G04 #@! TF.GenerationSoftware,KiCad,Pcbnew,(5.1.5)-3*
G04 #@! TF.CreationDate,2020-10-24T16:29:20+02:00*
G04 #@! TF.ProjectId,aegis,61656769-732e-46b6-9963-61645f706362,rev?*
G04 #@! TF.SameCoordinates,Original*
G04 #@! TF.FileFunction,Profile,NP*
%FSLAX46Y46*%
G04 Gerber Fmt 4.6, Leading zero omitted, Abs format (unit mm)*
G04 Created by KiCad (PCBNEW (5.1.5)-3) date 2020-10-24 16:29:20*
%MOMM*%
%LPD*%
G04 APERTURE LIST*
%ADD10C,0.050000*%
G04 APERTURE END LIST*
D10*
X76267731Y-113056360D02*
X73341975Y-111228136D01*
X74413016Y-116024532D02*
X76267731Y-113056360D01*
X71487250Y-114196296D02*
X74413016Y-116024532D01*
X73341975Y-111228136D02*
X71487250Y-114196296D01*
X42448704Y-86882887D02*
X39480514Y-85028176D01*
X40461505Y-90063064D02*
X42448704Y-86882887D01*
X39480514Y-85028176D02*
X37493324Y-88208351D01*
X37493324Y-88208351D02*
X40461505Y-90063064D01*
X9640975Y-50316040D02*
X6672807Y-48461331D01*
X7653777Y-53496224D02*
X9640975Y-50316040D01*
X6672807Y-48461331D02*
X4685599Y-51641511D01*
X4685599Y-51641511D02*
X7653777Y-53496224D01*
X19815422Y-34033521D02*
X16847254Y-32178804D01*
X17828226Y-37213705D02*
X19815422Y-34033521D01*
X16847254Y-32178804D02*
X14860062Y-35358980D01*
X14860062Y-35358980D02*
X17828226Y-37213705D01*
X55533416Y-48628982D02*
X52565250Y-46774274D01*
X53546227Y-51809158D02*
X55533416Y-48628982D01*
X52565250Y-46774274D02*
X50578056Y-49954440D01*
X50578056Y-49954440D02*
X53546227Y-51809158D01*
X84915824Y-69023225D02*
X81947653Y-67168522D01*
X82928630Y-72203406D02*
X84915824Y-69023225D01*
X81947653Y-67168522D02*
X79960459Y-70348702D01*
X79960459Y-70348702D02*
X82928630Y-72203406D01*
X113119763Y-122940894D02*
X109755344Y-121976156D01*
X112086122Y-126545622D02*
X113119763Y-122940894D01*
X109755344Y-121976156D02*
X108721704Y-125580901D01*
X108721704Y-125580901D02*
X112086122Y-126545622D01*
X142748369Y-112217231D02*
X139383963Y-111252494D01*
X141714725Y-115821963D02*
X142748369Y-112217231D01*
X139383963Y-111252494D02*
X138350322Y-114857219D01*
X138350322Y-114857219D02*
X141714725Y-115821963D01*
X173045224Y-138979907D02*
X169680812Y-138015178D01*
X172011573Y-142584644D02*
X173045224Y-138979907D01*
X169680812Y-138015178D02*
X168647168Y-141619916D01*
X168647168Y-141619916D02*
X172011573Y-142584644D01*
X199402350Y-149124575D02*
X195902378Y-149124567D01*
X199402344Y-152874569D02*
X199402350Y-149124575D01*
X195902378Y-149124567D02*
X195902363Y-152874570D01*
X195902363Y-152874570D02*
X199402344Y-152874569D01*
X244402363Y-142374578D02*
X240902368Y-142374573D01*
X244402364Y-146124581D02*
X244402363Y-142374578D01*
X240902368Y-142374573D02*
X240902369Y-146124561D01*
X240902369Y-146124561D02*
X244402364Y-146124581D01*
X288652362Y-128624577D02*
X285152365Y-128624571D01*
X288652356Y-132374589D02*
X288652362Y-128624577D01*
X285152365Y-128624571D02*
X285152348Y-132374583D01*
X285152348Y-132374583D02*
X288652356Y-132374589D01*
X288902362Y-109124577D02*
X285402356Y-109124581D01*
X288902362Y-112874577D02*
X288902362Y-109124577D01*
X285402356Y-109124581D02*
X285402348Y-112874576D01*
X285402348Y-112874576D02*
X288902362Y-112874577D01*
X250902349Y-103874581D02*
X247402361Y-103874583D01*
X250902363Y-107624578D02*
X250902349Y-103874581D01*
X247402361Y-103874583D02*
X247402354Y-107624572D01*
X247402354Y-107624572D02*
X250902363Y-107624578D01*
X212402351Y-106374571D02*
X208902359Y-106374580D01*
X212402373Y-110124581D02*
X212402351Y-106374571D01*
X208902362Y-110124574D02*
X212402373Y-110124581D01*
X208902359Y-106374580D02*
X208902362Y-110124574D01*
X110823162Y-76422881D02*
X126949305Y-86470143D01*
X108080462Y-77037916D02*
X110823162Y-76422881D01*
X88460197Y-108436915D02*
X108080462Y-77037916D01*
X89117659Y-111206091D02*
X88460197Y-108436915D01*
X105196127Y-121282505D02*
X89117659Y-111206091D01*
X107999750Y-120617111D02*
X105196127Y-121282505D01*
X127593522Y-89260527D02*
X107999750Y-120617111D01*
X126949305Y-86470143D02*
X127593522Y-89260527D01*
X63500962Y-33632532D02*
X148353246Y-86643706D01*
X62297540Y-35544037D02*
X63500962Y-33632532D01*
X46179079Y-25481517D02*
X62297540Y-35544037D01*
X43662148Y-29513393D02*
X46179079Y-25481517D01*
X11436715Y-9375814D02*
X43662148Y-29513393D01*
X-18374822Y-57083368D02*
X11436715Y-9375814D01*
X28903469Y-86631752D02*
X-18374822Y-57083368D01*
X30205337Y-104788135D02*
X28903469Y-86631752D01*
X58887454Y-129247252D02*
X30205337Y-104788135D01*
X67374510Y-145180704D02*
X58887454Y-129247252D01*
X99154569Y-128168488D02*
X67374510Y-145180704D01*
X168079346Y-147911208D02*
X99154569Y-128168488D01*
X186042093Y-179186962D02*
X168079346Y-147911208D01*
X201685065Y-170183248D02*
X186042093Y-179186962D01*
X238962914Y-164637835D02*
X201685065Y-170183248D01*
X249702691Y-149944898D02*
X238962914Y-164637835D01*
X305454185Y-149934541D02*
X249702691Y-149944898D01*
X305457551Y-93674374D02*
X305454185Y-149934541D01*
X267449184Y-93648950D02*
X305457551Y-93674374D01*
X267442528Y-88917226D02*
X267449184Y-93648950D01*
X248467136Y-88900872D02*
X267442528Y-88917226D01*
X248450071Y-86665837D02*
X248467136Y-88900872D01*
X148353246Y-86643706D02*
X248450071Y-86665837D01*
M02*
