G04 #@! TF.GenerationSoftware,KiCad,Pcbnew,(5.1.5)-3*
G04 #@! TF.CreationDate,2020-10-24T16:29:20+02:00*
G04 #@! TF.ProjectId,aegis,61656769-732e-46b6-9963-61645f706362,rev?*
G04 #@! TF.SameCoordinates,Original*
G04 #@! TF.FileFunction,Copper,L2,Bot*
G04 #@! TF.FilePolarity,Positive*
%FSLAX46Y46*%
G04 Gerber Fmt 4.6, Leading zero omitted, Abs format (unit mm)*
G04 Created by KiCad (PCBNEW (5.1.5)-3) date 2020-10-24 16:29:20*
%MOMM*%
%LPD*%
G04 APERTURE LIST*
%ADD10C,2.000000*%
%ADD11O,1.730000X2.030000*%
%ADD12R,1.730000X2.030000*%
%ADD13C,1.730000*%
%ADD14C,0.100000*%
%ADD15C,1.000000*%
%ADD16C,1.397000*%
%ADD17R,1.397000X1.397000*%
%ADD18R,0.950000X1.300000*%
%ADD19R,1.800000X0.820000*%
%ADD20C,1.905000*%
%ADD21C,1.400000*%
%ADD22C,1.400000*%
%ADD23C,1.600000*%
%ADD24R,1.600000X1.600000*%
%ADD25C,2.250000*%
%ADD26C,0.800000*%
%ADD27C,0.250000*%
G04 APERTURE END LIST*
D10*
X180880812Y-128648109D03*
X174380812Y-128648109D03*
D11*
X181304623Y-120784859D03*
X178764623Y-120784859D03*
X176224623Y-120784859D03*
D12*
X173684623Y-120784859D03*
D13*
X151910338Y-100823498D02*
X151658736Y-100660106D01*
X150526955Y-102953721D02*
X150275353Y-102790329D01*
G04 #@! TA.AperFunction,ComponentPad*
D14*
G36*
X150340134Y-104829607D02*
G01*
X149397909Y-106280507D01*
X147695408Y-105174889D01*
X148637633Y-103723989D01*
X150340134Y-104829607D01*
G37*
G04 #@! TD.AperFunction*
D15*
X120236459Y-80445568D02*
X120236459Y-80445568D01*
G04 #@! TA.AperFunction,ComponentPad*
D14*
G36*
X121154416Y-80429581D02*
G01*
X122002464Y-80959501D01*
X121472544Y-81807549D01*
X120624496Y-81277629D01*
X121154416Y-80429581D01*
G37*
G04 #@! TD.AperFunction*
D16*
X76977661Y-46836108D03*
G04 #@! TA.AperFunction,ComponentPad*
D14*
G36*
X73161890Y-54260744D02*
G01*
X71977167Y-53520447D01*
X72717464Y-52335724D01*
X73902187Y-53076021D01*
X73161890Y-54260744D01*
G37*
G04 #@! TD.AperFunction*
G04 #@! TA.AperFunction,SMDPad,CuDef*
G36*
X74076437Y-52375399D02*
G01*
X73270792Y-51871976D01*
X73959687Y-50769513D01*
X74765332Y-51272936D01*
X74076437Y-52375399D01*
G37*
G04 #@! TD.AperFunction*
G04 #@! TA.AperFunction,SMDPad,CuDef*
G36*
X75957651Y-49364829D02*
G01*
X75152006Y-48861406D01*
X75840901Y-47758943D01*
X76646546Y-48262366D01*
X75957651Y-49364829D01*
G37*
G04 #@! TD.AperFunction*
D16*
X106818856Y-70789262D03*
G04 #@! TA.AperFunction,ComponentPad*
D14*
G36*
X103003085Y-78213898D02*
G01*
X101818362Y-77473601D01*
X102558659Y-76288878D01*
X103743382Y-77029175D01*
X103003085Y-78213898D01*
G37*
G04 #@! TD.AperFunction*
G04 #@! TA.AperFunction,SMDPad,CuDef*
G36*
X103917632Y-76328553D02*
G01*
X103111987Y-75825130D01*
X103800882Y-74722667D01*
X104606527Y-75226090D01*
X103917632Y-76328553D01*
G37*
G04 #@! TD.AperFunction*
G04 #@! TA.AperFunction,SMDPad,CuDef*
G36*
X105798846Y-73317983D02*
G01*
X104993201Y-72814560D01*
X105682096Y-71712097D01*
X106487741Y-72215520D01*
X105798846Y-73317983D01*
G37*
G04 #@! TD.AperFunction*
D16*
X91765776Y-59024703D03*
G04 #@! TA.AperFunction,ComponentPad*
D14*
G36*
X87950005Y-66449339D02*
G01*
X86765282Y-65709042D01*
X87505579Y-64524319D01*
X88690302Y-65264616D01*
X87950005Y-66449339D01*
G37*
G04 #@! TD.AperFunction*
G04 #@! TA.AperFunction,SMDPad,CuDef*
G36*
X88864552Y-64563994D02*
G01*
X88058907Y-64060571D01*
X88747802Y-62958108D01*
X89553447Y-63461531D01*
X88864552Y-64563994D01*
G37*
G04 #@! TD.AperFunction*
G04 #@! TA.AperFunction,SMDPad,CuDef*
G36*
X90745766Y-61553424D02*
G01*
X89940121Y-61050001D01*
X90629016Y-59947538D01*
X91434661Y-60450961D01*
X90745766Y-61553424D01*
G37*
G04 #@! TD.AperFunction*
D16*
X136926630Y-88881426D03*
G04 #@! TA.AperFunction,ComponentPad*
D14*
G36*
X144351266Y-92697197D02*
G01*
X143610969Y-93881920D01*
X142426246Y-93141623D01*
X143166543Y-91956900D01*
X144351266Y-92697197D01*
G37*
G04 #@! TD.AperFunction*
G04 #@! TA.AperFunction,SMDPad,CuDef*
G36*
X142465921Y-91782650D02*
G01*
X141962498Y-92588295D01*
X140860035Y-91899400D01*
X141363458Y-91093755D01*
X142465921Y-91782650D01*
G37*
G04 #@! TD.AperFunction*
G04 #@! TA.AperFunction,SMDPad,CuDef*
G36*
X139455351Y-89901436D02*
G01*
X138951928Y-90707081D01*
X137849465Y-90018186D01*
X138352888Y-89212541D01*
X139455351Y-89901436D01*
G37*
G04 #@! TD.AperFunction*
D16*
X239630805Y-150838111D03*
D17*
X239630805Y-158458111D03*
D18*
X239630805Y-156423111D03*
X239630805Y-152873111D03*
D16*
X216894717Y-151217943D03*
G04 #@! TA.AperFunction,ComponentPad*
D14*
G36*
X219722403Y-159072211D02*
G01*
X218373005Y-159433781D01*
X218011435Y-158084383D01*
X219360833Y-157722813D01*
X219722403Y-159072211D01*
G37*
G04 #@! TD.AperFunction*
G04 #@! TA.AperFunction,SMDPad,CuDef*
G36*
X218967269Y-157117551D02*
G01*
X218049640Y-157363429D01*
X217713175Y-156107725D01*
X218630804Y-155861847D01*
X218967269Y-157117551D01*
G37*
G04 #@! TD.AperFunction*
G04 #@! TA.AperFunction,SMDPad,CuDef*
G36*
X218048461Y-153688515D02*
G01*
X217130832Y-153934393D01*
X216794367Y-152678689D01*
X217711996Y-152432811D01*
X218048461Y-153688515D01*
G37*
G04 #@! TD.AperFunction*
D16*
X195396599Y-168185800D03*
G04 #@! TA.AperFunction,ComponentPad*
D14*
G36*
X188626008Y-173068875D02*
G01*
X187906500Y-171871413D01*
X189103962Y-171151905D01*
X189823470Y-172349367D01*
X188626008Y-173068875D01*
G37*
G04 #@! TD.AperFunction*
G04 #@! TA.AperFunction,SMDPad,CuDef*
G36*
X190296804Y-171804217D02*
G01*
X189807518Y-170989908D01*
X190921836Y-170320359D01*
X191411122Y-171134668D01*
X190296804Y-171804217D01*
G37*
G04 #@! TD.AperFunction*
G04 #@! TA.AperFunction,SMDPad,CuDef*
G36*
X193339748Y-169975831D02*
G01*
X192850462Y-169161522D01*
X193964780Y-168491973D01*
X194454066Y-169306282D01*
X193339748Y-169975831D01*
G37*
G04 #@! TD.AperFunction*
D16*
X81895475Y-121432187D03*
G04 #@! TA.AperFunction,ComponentPad*
D14*
G36*
X86417514Y-128449060D02*
G01*
X85184036Y-129104912D01*
X84528184Y-127871434D01*
X85761662Y-127215582D01*
X86417514Y-128449060D01*
G37*
G04 #@! TD.AperFunction*
G04 #@! TA.AperFunction,SMDPad,CuDef*
G36*
X85242031Y-126714366D02*
G01*
X84403230Y-127160364D01*
X83792917Y-126012532D01*
X84631718Y-125566534D01*
X85242031Y-126714366D01*
G37*
G04 #@! TD.AperFunction*
G04 #@! TA.AperFunction,SMDPad,CuDef*
G36*
X83575407Y-123579902D02*
G01*
X82736606Y-124025900D01*
X82126293Y-122878068D01*
X82965094Y-122432070D01*
X83575407Y-123579902D01*
G37*
G04 #@! TD.AperFunction*
D16*
X69033369Y-118966435D03*
G04 #@! TA.AperFunction,ComponentPad*
D14*
G36*
X63425978Y-125150489D02*
G01*
X62473227Y-124128788D01*
X63494928Y-123176037D01*
X64447679Y-124197738D01*
X63425978Y-125150489D01*
G37*
G04 #@! TD.AperFunction*
G04 #@! TA.AperFunction,SMDPad,CuDef*
G36*
X64797327Y-123566088D02*
G01*
X64149429Y-122871302D01*
X65100189Y-121984704D01*
X65748087Y-122679490D01*
X64797327Y-123566088D01*
G37*
G04 #@! TD.AperFunction*
G04 #@! TA.AperFunction,SMDPad,CuDef*
G36*
X67393633Y-121144994D02*
G01*
X66745735Y-120450208D01*
X67696495Y-119563610D01*
X68344393Y-120258396D01*
X67393633Y-121144994D01*
G37*
G04 #@! TD.AperFunction*
D16*
X53636403Y-102117189D03*
G04 #@! TA.AperFunction,ComponentPad*
D14*
G36*
X49820632Y-109541825D02*
G01*
X48635909Y-108801528D01*
X49376206Y-107616805D01*
X50560929Y-108357102D01*
X49820632Y-109541825D01*
G37*
G04 #@! TD.AperFunction*
G04 #@! TA.AperFunction,SMDPad,CuDef*
G36*
X50735179Y-107656480D02*
G01*
X49929534Y-107153057D01*
X50618429Y-106050594D01*
X51424074Y-106554017D01*
X50735179Y-107656480D01*
G37*
G04 #@! TD.AperFunction*
G04 #@! TA.AperFunction,SMDPad,CuDef*
G36*
X52616393Y-104645910D02*
G01*
X51810748Y-104142487D01*
X52499643Y-103040024D01*
X53305288Y-103543447D01*
X52616393Y-104645910D01*
G37*
G04 #@! TD.AperFunction*
D16*
X303880807Y-137088111D03*
D17*
X303880807Y-144708111D03*
D18*
X303880807Y-142673111D03*
X303880807Y-139123111D03*
D16*
X303880797Y-118338106D03*
D17*
X303880797Y-125958106D03*
D18*
X303880797Y-123923106D03*
X303880797Y-120373106D03*
D16*
X303880787Y-99088093D03*
D17*
X303880787Y-106708093D03*
D18*
X303880787Y-104673093D03*
X303880787Y-101123093D03*
D16*
X286880798Y-136088125D03*
D17*
X286880798Y-143708125D03*
D18*
X286880798Y-141673125D03*
X286880798Y-138123125D03*
D16*
X286880795Y-117088108D03*
D17*
X286880795Y-124708108D03*
D18*
X286880795Y-122673108D03*
X286880795Y-119123108D03*
D16*
X286880808Y-97838119D03*
D17*
X286880808Y-105458119D03*
D18*
X286880808Y-103423119D03*
X286880808Y-99873119D03*
D16*
X267880794Y-131588117D03*
D17*
X267880794Y-139208117D03*
D18*
X267880794Y-137173117D03*
X267880794Y-133623117D03*
D16*
X267880795Y-112338109D03*
D17*
X267880795Y-119958109D03*
D18*
X267880795Y-117923109D03*
X267880795Y-114373109D03*
D16*
X267880817Y-95838100D03*
D17*
X267880817Y-103458100D03*
D18*
X267880817Y-101423100D03*
X267880817Y-97873100D03*
D16*
X248880789Y-128838113D03*
D17*
X248880789Y-136458113D03*
D18*
X248880789Y-134423113D03*
X248880789Y-130873113D03*
D16*
X248880785Y-110088105D03*
D17*
X248880785Y-117708105D03*
D18*
X248880785Y-115673105D03*
X248880785Y-112123105D03*
D16*
X248880801Y-91088100D03*
D17*
X248880801Y-98708100D03*
D18*
X248880801Y-96673100D03*
X248880801Y-93123100D03*
D16*
X229880805Y-131088097D03*
D17*
X229880805Y-138708097D03*
D18*
X229880805Y-136673097D03*
X229880805Y-133123097D03*
D16*
X229880800Y-112338110D03*
D17*
X229880800Y-119958110D03*
D18*
X229880800Y-117923110D03*
X229880800Y-114373110D03*
D16*
X229880802Y-93338108D03*
D17*
X229880802Y-100958108D03*
D18*
X229880802Y-98923108D03*
X229880802Y-95373108D03*
D16*
X210880815Y-133838108D03*
D17*
X210880815Y-141458108D03*
D18*
X210880815Y-139423108D03*
X210880815Y-135873108D03*
D16*
X210880800Y-114838105D03*
D17*
X210880800Y-122458105D03*
D18*
X210880800Y-120423105D03*
X210880800Y-116873105D03*
D16*
X210880791Y-95838111D03*
D17*
X210880791Y-103458111D03*
D18*
X210880791Y-101423111D03*
X210880791Y-97873111D03*
D16*
X86284501Y-103651139D03*
G04 #@! TA.AperFunction,ComponentPad*
D14*
G36*
X82468730Y-111075775D02*
G01*
X81284007Y-110335478D01*
X82024304Y-109150755D01*
X83209027Y-109891052D01*
X82468730Y-111075775D01*
G37*
G04 #@! TD.AperFunction*
G04 #@! TA.AperFunction,SMDPad,CuDef*
G36*
X83383277Y-109190430D02*
G01*
X82577632Y-108687007D01*
X83266527Y-107584544D01*
X84072172Y-108087967D01*
X83383277Y-109190430D01*
G37*
G04 #@! TD.AperFunction*
G04 #@! TA.AperFunction,SMDPad,CuDef*
G36*
X85264491Y-106179860D02*
G01*
X84458846Y-105676437D01*
X85147741Y-104573974D01*
X85953386Y-105077397D01*
X85264491Y-106179860D01*
G37*
G04 #@! TD.AperFunction*
D16*
X96352933Y-87538216D03*
G04 #@! TA.AperFunction,ComponentPad*
D14*
G36*
X92537162Y-94962852D02*
G01*
X91352439Y-94222555D01*
X92092736Y-93037832D01*
X93277459Y-93778129D01*
X92537162Y-94962852D01*
G37*
G04 #@! TD.AperFunction*
G04 #@! TA.AperFunction,SMDPad,CuDef*
G36*
X93451709Y-93077507D02*
G01*
X92646064Y-92574084D01*
X93334959Y-91471621D01*
X94140604Y-91975044D01*
X93451709Y-93077507D01*
G37*
G04 #@! TD.AperFunction*
G04 #@! TA.AperFunction,SMDPad,CuDef*
G36*
X95332923Y-90066937D02*
G01*
X94527278Y-89563514D01*
X95216173Y-88461051D01*
X96021818Y-88964474D01*
X95332923Y-90066937D01*
G37*
G04 #@! TD.AperFunction*
D16*
X71628842Y-91250516D03*
G04 #@! TA.AperFunction,ComponentPad*
D14*
G36*
X67813071Y-98675152D02*
G01*
X66628348Y-97934855D01*
X67368645Y-96750132D01*
X68553368Y-97490429D01*
X67813071Y-98675152D01*
G37*
G04 #@! TD.AperFunction*
G04 #@! TA.AperFunction,SMDPad,CuDef*
G36*
X68727618Y-96789807D02*
G01*
X67921973Y-96286384D01*
X68610868Y-95183921D01*
X69416513Y-95687344D01*
X68727618Y-96789807D01*
G37*
G04 #@! TD.AperFunction*
G04 #@! TA.AperFunction,SMDPad,CuDef*
G36*
X70608832Y-93779237D02*
G01*
X69803187Y-93275814D01*
X70492082Y-92173351D01*
X71297727Y-92676774D01*
X70608832Y-93779237D01*
G37*
G04 #@! TD.AperFunction*
D16*
X81564836Y-75349623D03*
G04 #@! TA.AperFunction,ComponentPad*
D14*
G36*
X77749065Y-82774259D02*
G01*
X76564342Y-82033962D01*
X77304639Y-80849239D01*
X78489362Y-81589536D01*
X77749065Y-82774259D01*
G37*
G04 #@! TD.AperFunction*
G04 #@! TA.AperFunction,SMDPad,CuDef*
G36*
X78663612Y-80888914D02*
G01*
X77857967Y-80385491D01*
X78546862Y-79283028D01*
X79352507Y-79786451D01*
X78663612Y-80888914D01*
G37*
G04 #@! TD.AperFunction*
G04 #@! TA.AperFunction,SMDPad,CuDef*
G36*
X80544826Y-77878344D02*
G01*
X79739181Y-77374921D01*
X80428076Y-76272458D01*
X81233721Y-76775881D01*
X80544826Y-77878344D01*
G37*
G04 #@! TD.AperFunction*
D16*
X56708251Y-79273941D03*
G04 #@! TA.AperFunction,ComponentPad*
D14*
G36*
X52892480Y-86698577D02*
G01*
X51707757Y-85958280D01*
X52448054Y-84773557D01*
X53632777Y-85513854D01*
X52892480Y-86698577D01*
G37*
G04 #@! TD.AperFunction*
G04 #@! TA.AperFunction,SMDPad,CuDef*
G36*
X53807027Y-84813232D02*
G01*
X53001382Y-84309809D01*
X53690277Y-83207346D01*
X54495922Y-83710769D01*
X53807027Y-84813232D01*
G37*
G04 #@! TD.AperFunction*
G04 #@! TA.AperFunction,SMDPad,CuDef*
G36*
X55688241Y-81802662D02*
G01*
X54882596Y-81299239D01*
X55571491Y-80196776D01*
X56377136Y-80700199D01*
X55688241Y-81802662D01*
G37*
G04 #@! TD.AperFunction*
D16*
X66776708Y-63161039D03*
G04 #@! TA.AperFunction,ComponentPad*
D14*
G36*
X62960937Y-70585675D02*
G01*
X61776214Y-69845378D01*
X62516511Y-68660655D01*
X63701234Y-69400952D01*
X62960937Y-70585675D01*
G37*
G04 #@! TD.AperFunction*
G04 #@! TA.AperFunction,SMDPad,CuDef*
G36*
X63875484Y-68700330D02*
G01*
X63069839Y-68196907D01*
X63758734Y-67094444D01*
X64564379Y-67597867D01*
X63875484Y-68700330D01*
G37*
G04 #@! TD.AperFunction*
G04 #@! TA.AperFunction,SMDPad,CuDef*
G36*
X65756698Y-65689760D02*
G01*
X64951053Y-65186337D01*
X65639948Y-64083874D01*
X66445593Y-64587297D01*
X65756698Y-65689760D01*
G37*
G04 #@! TD.AperFunction*
D16*
X39403015Y-71113607D03*
G04 #@! TA.AperFunction,ComponentPad*
D14*
G36*
X35587244Y-78538243D02*
G01*
X34402521Y-77797946D01*
X35142818Y-76613223D01*
X36327541Y-77353520D01*
X35587244Y-78538243D01*
G37*
G04 #@! TD.AperFunction*
G04 #@! TA.AperFunction,SMDPad,CuDef*
G36*
X36501791Y-76652898D02*
G01*
X35696146Y-76149475D01*
X36385041Y-75047012D01*
X37190686Y-75550435D01*
X36501791Y-76652898D01*
G37*
G04 #@! TD.AperFunction*
G04 #@! TA.AperFunction,SMDPad,CuDef*
G36*
X38383005Y-73642328D02*
G01*
X37577360Y-73138905D01*
X38266255Y-72036442D01*
X39071900Y-72539865D01*
X38383005Y-73642328D01*
G37*
G04 #@! TD.AperFunction*
D16*
X49471477Y-55000673D03*
G04 #@! TA.AperFunction,ComponentPad*
D14*
G36*
X45655706Y-62425309D02*
G01*
X44470983Y-61685012D01*
X45211280Y-60500289D01*
X46396003Y-61240586D01*
X45655706Y-62425309D01*
G37*
G04 #@! TD.AperFunction*
G04 #@! TA.AperFunction,SMDPad,CuDef*
G36*
X46570253Y-60539964D02*
G01*
X45764608Y-60036541D01*
X46453503Y-58934078D01*
X47259148Y-59437501D01*
X46570253Y-60539964D01*
G37*
G04 #@! TD.AperFunction*
G04 #@! TA.AperFunction,SMDPad,CuDef*
G36*
X48451467Y-57529394D02*
G01*
X47645822Y-57025971D01*
X48334717Y-55923508D01*
X49140362Y-56426931D01*
X48451467Y-57529394D01*
G37*
G04 #@! TD.AperFunction*
D16*
X59672432Y-38675764D03*
G04 #@! TA.AperFunction,ComponentPad*
D14*
G36*
X55856661Y-46100400D02*
G01*
X54671938Y-45360103D01*
X55412235Y-44175380D01*
X56596958Y-44915677D01*
X55856661Y-46100400D01*
G37*
G04 #@! TD.AperFunction*
G04 #@! TA.AperFunction,SMDPad,CuDef*
G36*
X56771208Y-44215055D02*
G01*
X55965563Y-43711632D01*
X56654458Y-42609169D01*
X57460103Y-43112592D01*
X56771208Y-44215055D01*
G37*
G04 #@! TD.AperFunction*
G04 #@! TA.AperFunction,SMDPad,CuDef*
G36*
X58652422Y-41204485D02*
G01*
X57846777Y-40701062D01*
X58535672Y-39598599D01*
X59341317Y-40102022D01*
X58652422Y-41204485D01*
G37*
G04 #@! TD.AperFunction*
D16*
X20905465Y-64861355D03*
G04 #@! TA.AperFunction,ComponentPad*
D14*
G36*
X17089694Y-72285991D02*
G01*
X15904971Y-71545694D01*
X16645268Y-70360971D01*
X17829991Y-71101268D01*
X17089694Y-72285991D01*
G37*
G04 #@! TD.AperFunction*
G04 #@! TA.AperFunction,SMDPad,CuDef*
G36*
X18004241Y-70400646D02*
G01*
X17198596Y-69897223D01*
X17887491Y-68794760D01*
X18693136Y-69298183D01*
X18004241Y-70400646D01*
G37*
G04 #@! TD.AperFunction*
G04 #@! TA.AperFunction,SMDPad,CuDef*
G36*
X19885455Y-67390076D02*
G01*
X19079810Y-66886653D01*
X19768705Y-65784190D01*
X20574350Y-66287613D01*
X19885455Y-67390076D01*
G37*
G04 #@! TD.AperFunction*
D16*
X30973944Y-48748436D03*
G04 #@! TA.AperFunction,ComponentPad*
D14*
G36*
X27158173Y-56173072D02*
G01*
X25973450Y-55432775D01*
X26713747Y-54248052D01*
X27898470Y-54988349D01*
X27158173Y-56173072D01*
G37*
G04 #@! TD.AperFunction*
G04 #@! TA.AperFunction,SMDPad,CuDef*
G36*
X28072720Y-54287727D02*
G01*
X27267075Y-53784304D01*
X27955970Y-52681841D01*
X28761615Y-53185264D01*
X28072720Y-54287727D01*
G37*
G04 #@! TD.AperFunction*
G04 #@! TA.AperFunction,SMDPad,CuDef*
G36*
X29953934Y-51277157D02*
G01*
X29148289Y-50773734D01*
X29837184Y-49671271D01*
X30642829Y-50174694D01*
X29953934Y-51277157D01*
G37*
G04 #@! TD.AperFunction*
D16*
X41042397Y-32635524D03*
G04 #@! TA.AperFunction,ComponentPad*
D14*
G36*
X37226626Y-40060160D02*
G01*
X36041903Y-39319863D01*
X36782200Y-38135140D01*
X37966923Y-38875437D01*
X37226626Y-40060160D01*
G37*
G04 #@! TD.AperFunction*
G04 #@! TA.AperFunction,SMDPad,CuDef*
G36*
X38141173Y-38174815D02*
G01*
X37335528Y-37671392D01*
X38024423Y-36568929D01*
X38830068Y-37072352D01*
X38141173Y-38174815D01*
G37*
G04 #@! TD.AperFunction*
G04 #@! TA.AperFunction,SMDPad,CuDef*
G36*
X40022387Y-35164245D02*
G01*
X39216742Y-34660822D01*
X39905637Y-33558359D01*
X40711282Y-34061782D01*
X40022387Y-35164245D01*
G37*
G04 #@! TD.AperFunction*
D16*
X4646817Y-55026070D03*
G04 #@! TA.AperFunction,ComponentPad*
D14*
G36*
X831046Y-62450706D02*
G01*
X-353677Y-61710409D01*
X386620Y-60525686D01*
X1571343Y-61265983D01*
X831046Y-62450706D01*
G37*
G04 #@! TD.AperFunction*
G04 #@! TA.AperFunction,SMDPad,CuDef*
G36*
X1745593Y-60565361D02*
G01*
X939948Y-60061938D01*
X1628843Y-58959475D01*
X2434488Y-59462898D01*
X1745593Y-60565361D01*
G37*
G04 #@! TD.AperFunction*
G04 #@! TA.AperFunction,SMDPad,CuDef*
G36*
X3626807Y-57554791D02*
G01*
X2821162Y-57051368D01*
X3510057Y-55948905D01*
X4315702Y-56452328D01*
X3626807Y-57554791D01*
G37*
G04 #@! TD.AperFunction*
D16*
X14715296Y-38913185D03*
G04 #@! TA.AperFunction,ComponentPad*
D14*
G36*
X10899525Y-46337821D02*
G01*
X9714802Y-45597524D01*
X10455099Y-44412801D01*
X11639822Y-45153098D01*
X10899525Y-46337821D01*
G37*
G04 #@! TD.AperFunction*
G04 #@! TA.AperFunction,SMDPad,CuDef*
G36*
X11814072Y-44452476D02*
G01*
X11008427Y-43949053D01*
X11697322Y-42846590D01*
X12502967Y-43350013D01*
X11814072Y-44452476D01*
G37*
G04 #@! TD.AperFunction*
G04 #@! TA.AperFunction,SMDPad,CuDef*
G36*
X13695286Y-41441906D02*
G01*
X12889641Y-40938483D01*
X13578536Y-39836020D01*
X14384181Y-40339443D01*
X13695286Y-41441906D01*
G37*
G04 #@! TD.AperFunction*
D16*
X24958632Y-22614749D03*
G04 #@! TA.AperFunction,ComponentPad*
D14*
G36*
X21142861Y-30039385D02*
G01*
X19958138Y-29299088D01*
X20698435Y-28114365D01*
X21883158Y-28854662D01*
X21142861Y-30039385D01*
G37*
G04 #@! TD.AperFunction*
G04 #@! TA.AperFunction,SMDPad,CuDef*
G36*
X22057408Y-28154040D02*
G01*
X21251763Y-27650617D01*
X21940658Y-26548154D01*
X22746303Y-27051577D01*
X22057408Y-28154040D01*
G37*
G04 #@! TD.AperFunction*
G04 #@! TA.AperFunction,SMDPad,CuDef*
G36*
X23938622Y-25143470D02*
G01*
X23132977Y-24640047D01*
X23821872Y-23537584D01*
X24627517Y-24041007D01*
X23938622Y-25143470D01*
G37*
G04 #@! TD.AperFunction*
G04 #@! TA.AperFunction,SMDPad,CuDef*
G36*
X141751618Y-115113350D02*
G01*
X141977641Y-114325115D01*
X143707912Y-114821262D01*
X143481889Y-115609497D01*
X141751618Y-115113350D01*
G37*
G04 #@! TD.AperFunction*
G04 #@! TA.AperFunction,SMDPad,CuDef*
G36*
X142165074Y-113671457D02*
G01*
X142391097Y-112883222D01*
X144121368Y-113379369D01*
X143895345Y-114167604D01*
X142165074Y-113671457D01*
G37*
G04 #@! TD.AperFunction*
G04 #@! TA.AperFunction,SMDPad,CuDef*
G36*
X137358766Y-112293270D02*
G01*
X137584789Y-111505035D01*
X139315060Y-112001182D01*
X139089037Y-112789417D01*
X137358766Y-112293270D01*
G37*
G04 #@! TD.AperFunction*
G04 #@! TA.AperFunction,SMDPad,CuDef*
G36*
X136945310Y-113735163D02*
G01*
X137171333Y-112946928D01*
X138901604Y-113443075D01*
X138675581Y-114231310D01*
X136945310Y-113735163D01*
G37*
G04 #@! TD.AperFunction*
D19*
X208042523Y-108990480D03*
X208042523Y-107490480D03*
X213042523Y-107490480D03*
X213042523Y-108990480D03*
X246542506Y-106490479D03*
X246542506Y-104990479D03*
X251542506Y-104990479D03*
X251542506Y-106490479D03*
X284542515Y-111740478D03*
X284542515Y-110240478D03*
X289542515Y-110240478D03*
X289542515Y-111740478D03*
X289334527Y-129666815D03*
X289334527Y-131166815D03*
X284334527Y-131166815D03*
X284334527Y-129666815D03*
X245099494Y-143478117D03*
X245099494Y-144978117D03*
X240099494Y-144978117D03*
X240099494Y-143478117D03*
X200197657Y-150302252D03*
X200197657Y-151802252D03*
X195197657Y-151802252D03*
X195197657Y-150302252D03*
G04 #@! TA.AperFunction,SMDPad,CuDef*
D14*
G36*
X172396353Y-140426644D02*
G01*
X172622376Y-139638409D01*
X174352647Y-140134556D01*
X174126624Y-140922791D01*
X172396353Y-140426644D01*
G37*
G04 #@! TD.AperFunction*
G04 #@! TA.AperFunction,SMDPad,CuDef*
G36*
X171982897Y-141868537D02*
G01*
X172208920Y-141080302D01*
X173939191Y-141576449D01*
X173713168Y-142364684D01*
X171982897Y-141868537D01*
G37*
G04 #@! TD.AperFunction*
G04 #@! TA.AperFunction,SMDPad,CuDef*
G36*
X167176589Y-140490350D02*
G01*
X167402612Y-139702115D01*
X169132883Y-140198262D01*
X168906860Y-140986497D01*
X167176589Y-140490350D01*
G37*
G04 #@! TD.AperFunction*
G04 #@! TA.AperFunction,SMDPad,CuDef*
G36*
X167590045Y-139048457D02*
G01*
X167816068Y-138260222D01*
X169546339Y-138756369D01*
X169320316Y-139544604D01*
X167590045Y-139048457D01*
G37*
G04 #@! TD.AperFunction*
G04 #@! TA.AperFunction,SMDPad,CuDef*
G36*
X107750285Y-123164048D02*
G01*
X107976308Y-122375813D01*
X109706579Y-122871960D01*
X109480556Y-123660195D01*
X107750285Y-123164048D01*
G37*
G04 #@! TD.AperFunction*
G04 #@! TA.AperFunction,SMDPad,CuDef*
G36*
X107336829Y-124605941D02*
G01*
X107562852Y-123817706D01*
X109293123Y-124313853D01*
X109067100Y-125102088D01*
X107336829Y-124605941D01*
G37*
G04 #@! TD.AperFunction*
G04 #@! TA.AperFunction,SMDPad,CuDef*
G36*
X112143137Y-125984128D02*
G01*
X112369160Y-125195893D01*
X114099431Y-125692040D01*
X113873408Y-126480275D01*
X112143137Y-125984128D01*
G37*
G04 #@! TD.AperFunction*
G04 #@! TA.AperFunction,SMDPad,CuDef*
G36*
X112556593Y-124542235D02*
G01*
X112782616Y-123754000D01*
X114512887Y-124250147D01*
X114286864Y-125038382D01*
X112556593Y-124542235D01*
G37*
G04 #@! TD.AperFunction*
G04 #@! TA.AperFunction,SMDPad,CuDef*
G36*
X75383451Y-114202376D02*
G01*
X75817985Y-113506977D01*
X77344471Y-114460832D01*
X76909937Y-115156231D01*
X75383451Y-114202376D01*
G37*
G04 #@! TD.AperFunction*
G04 #@! TA.AperFunction,SMDPad,CuDef*
G36*
X74588572Y-115474448D02*
G01*
X75023106Y-114779049D01*
X76549592Y-115732904D01*
X76115058Y-116428303D01*
X74588572Y-115474448D01*
G37*
G04 #@! TD.AperFunction*
G04 #@! TA.AperFunction,SMDPad,CuDef*
G36*
X70348331Y-112824852D02*
G01*
X70782865Y-112129453D01*
X72309351Y-113083308D01*
X71874817Y-113778707D01*
X70348331Y-112824852D01*
G37*
G04 #@! TD.AperFunction*
G04 #@! TA.AperFunction,SMDPad,CuDef*
G36*
X71143210Y-111552780D02*
G01*
X71577744Y-110857381D01*
X73104230Y-111811236D01*
X72669696Y-112506635D01*
X71143210Y-111552780D01*
G37*
G04 #@! TD.AperFunction*
G04 #@! TA.AperFunction,SMDPad,CuDef*
G36*
X41579560Y-88050024D02*
G01*
X42014094Y-87354625D01*
X43540580Y-88308480D01*
X43106046Y-89003879D01*
X41579560Y-88050024D01*
G37*
G04 #@! TD.AperFunction*
G04 #@! TA.AperFunction,SMDPad,CuDef*
G36*
X40784681Y-89322096D02*
G01*
X41219215Y-88626697D01*
X42745701Y-89580552D01*
X42311167Y-90275951D01*
X40784681Y-89322096D01*
G37*
G04 #@! TD.AperFunction*
G04 #@! TA.AperFunction,SMDPad,CuDef*
G36*
X36544440Y-86672500D02*
G01*
X36978974Y-85977101D01*
X38505460Y-86930956D01*
X38070926Y-87626355D01*
X36544440Y-86672500D01*
G37*
G04 #@! TD.AperFunction*
G04 #@! TA.AperFunction,SMDPad,CuDef*
G36*
X37339319Y-85400428D02*
G01*
X37773853Y-84705029D01*
X39300339Y-85658884D01*
X38865805Y-86354283D01*
X37339319Y-85400428D01*
G37*
G04 #@! TD.AperFunction*
G04 #@! TA.AperFunction,SMDPad,CuDef*
G36*
X8677186Y-51589267D02*
G01*
X9111720Y-50893868D01*
X10638206Y-51847723D01*
X10203672Y-52543122D01*
X8677186Y-51589267D01*
G37*
G04 #@! TD.AperFunction*
G04 #@! TA.AperFunction,SMDPad,CuDef*
G36*
X7882307Y-52861339D02*
G01*
X8316841Y-52165940D01*
X9843327Y-53119795D01*
X9408793Y-53815194D01*
X7882307Y-52861339D01*
G37*
G04 #@! TD.AperFunction*
G04 #@! TA.AperFunction,SMDPad,CuDef*
G36*
X3642066Y-50211743D02*
G01*
X4076600Y-49516344D01*
X5603086Y-50470199D01*
X5168552Y-51165598D01*
X3642066Y-50211743D01*
G37*
G04 #@! TD.AperFunction*
G04 #@! TA.AperFunction,SMDPad,CuDef*
G36*
X4436945Y-48939671D02*
G01*
X4871479Y-48244272D01*
X6397965Y-49198127D01*
X5963431Y-49893526D01*
X4436945Y-48939671D01*
G37*
G04 #@! TD.AperFunction*
G04 #@! TA.AperFunction,SMDPad,CuDef*
G36*
X15804053Y-34145269D02*
G01*
X15369519Y-34840668D01*
X13843033Y-33886813D01*
X14277567Y-33191414D01*
X15804053Y-34145269D01*
G37*
G04 #@! TD.AperFunction*
G04 #@! TA.AperFunction,SMDPad,CuDef*
G36*
X16598932Y-32873197D02*
G01*
X16164398Y-33568596D01*
X14637912Y-32614741D01*
X15072446Y-31919342D01*
X16598932Y-32873197D01*
G37*
G04 #@! TD.AperFunction*
G04 #@! TA.AperFunction,SMDPad,CuDef*
G36*
X20839173Y-35522793D02*
G01*
X20404639Y-36218192D01*
X18878153Y-35264337D01*
X19312687Y-34568938D01*
X20839173Y-35522793D01*
G37*
G04 #@! TD.AperFunction*
G04 #@! TA.AperFunction,SMDPad,CuDef*
G36*
X20044294Y-36794865D02*
G01*
X19609760Y-37490264D01*
X18083274Y-36536409D01*
X18517808Y-35841010D01*
X20044294Y-36794865D01*
G37*
G04 #@! TD.AperFunction*
G04 #@! TA.AperFunction,SMDPad,CuDef*
G36*
X51474344Y-48769882D02*
G01*
X51039810Y-49465281D01*
X49513324Y-48511426D01*
X49947858Y-47816027D01*
X51474344Y-48769882D01*
G37*
G04 #@! TD.AperFunction*
G04 #@! TA.AperFunction,SMDPad,CuDef*
G36*
X52269223Y-47497810D02*
G01*
X51834689Y-48193209D01*
X50308203Y-47239354D01*
X50742737Y-46543955D01*
X52269223Y-47497810D01*
G37*
G04 #@! TD.AperFunction*
G04 #@! TA.AperFunction,SMDPad,CuDef*
G36*
X56509464Y-50147406D02*
G01*
X56074930Y-50842805D01*
X54548444Y-49888950D01*
X54982978Y-49193551D01*
X56509464Y-50147406D01*
G37*
G04 #@! TD.AperFunction*
G04 #@! TA.AperFunction,SMDPad,CuDef*
G36*
X55714585Y-51419478D02*
G01*
X55280051Y-52114877D01*
X53753565Y-51161022D01*
X54188099Y-50465623D01*
X55714585Y-51419478D01*
G37*
G04 #@! TD.AperFunction*
G04 #@! TA.AperFunction,SMDPad,CuDef*
G36*
X80864700Y-69198605D02*
G01*
X80430166Y-69894004D01*
X78903680Y-68940149D01*
X79338214Y-68244750D01*
X80864700Y-69198605D01*
G37*
G04 #@! TD.AperFunction*
G04 #@! TA.AperFunction,SMDPad,CuDef*
G36*
X81659579Y-67926533D02*
G01*
X81225045Y-68621932D01*
X79698559Y-67668077D01*
X80133093Y-66972678D01*
X81659579Y-67926533D01*
G37*
G04 #@! TD.AperFunction*
G04 #@! TA.AperFunction,SMDPad,CuDef*
G36*
X85899820Y-70576129D02*
G01*
X85465286Y-71271528D01*
X83938800Y-70317673D01*
X84373334Y-69622274D01*
X85899820Y-70576129D01*
G37*
G04 #@! TD.AperFunction*
G04 #@! TA.AperFunction,SMDPad,CuDef*
G36*
X85104941Y-71848201D02*
G01*
X84670407Y-72543600D01*
X83143921Y-71589745D01*
X83578455Y-70894346D01*
X85104941Y-71848201D01*
G37*
G04 #@! TD.AperFunction*
D20*
X134938166Y-98460813D02*
X134887824Y-98541377D01*
X132784124Y-97114818D02*
X132733782Y-97195382D01*
G04 #@! TA.AperFunction,ComponentPad*
D14*
G36*
X129267226Y-96152405D02*
G01*
X130327064Y-94456309D01*
X131942596Y-95465805D01*
X130882758Y-97161901D01*
X129267226Y-96152405D01*
G37*
G04 #@! TD.AperFunction*
D21*
X140198481Y-94567141D02*
X140198481Y-94567141D01*
D22*
X133666866Y-90642551D03*
D23*
X185000806Y-88428102D03*
X185000806Y-90968102D03*
X185000806Y-93508102D03*
X185000806Y-96048102D03*
X185000806Y-98588102D03*
X185000806Y-101128102D03*
X185000806Y-103668102D03*
X185000806Y-106208102D03*
X185000806Y-108748102D03*
X185000806Y-111288102D03*
X185000806Y-113828102D03*
X185000806Y-116368102D03*
X169760806Y-116368102D03*
X169760806Y-113828102D03*
X169760806Y-111288102D03*
X169760806Y-108748102D03*
X169760806Y-106208102D03*
X169760806Y-103668102D03*
X169760806Y-101128102D03*
X169760806Y-98588102D03*
X169760806Y-96048102D03*
X169760806Y-93508102D03*
X169760806Y-90968102D03*
D24*
X169760806Y-88428102D03*
D25*
X232540579Y-150572222D03*
X226190579Y-153112222D03*
X210064240Y-152887917D03*
X204588011Y-156984870D03*
X192370000Y-161836920D03*
X186995296Y-157607658D03*
X75665515Y-124694524D03*
X71251256Y-129918356D03*
X64437031Y-113834314D03*
X58248703Y-110922494D03*
X47510266Y-98976325D03*
X40779166Y-97765379D03*
X298990589Y-135697227D03*
X292640589Y-138237227D03*
X298970588Y-116722213D03*
X292620588Y-119262213D03*
X299020586Y-97697243D03*
X292670586Y-100237243D03*
X279995593Y-135697212D03*
X273645593Y-138237212D03*
X279970593Y-116722240D03*
X273620593Y-119262240D03*
X279965595Y-97722230D03*
X273615595Y-100262230D03*
X260995584Y-130947228D03*
X254645584Y-133487228D03*
X260970597Y-111972220D03*
X254620597Y-114512220D03*
X260970590Y-92947219D03*
X254620590Y-95487219D03*
X241965587Y-128547235D03*
X235615587Y-131087235D03*
X241990590Y-109597229D03*
X235640590Y-112137229D03*
X241965593Y-90597231D03*
X235615593Y-93137231D03*
X222995597Y-130947217D03*
X216645597Y-133487217D03*
X222970596Y-111947217D03*
X216620596Y-114487217D03*
X223015597Y-92922216D03*
X216665597Y-95462216D03*
X203945589Y-133347230D03*
X197595589Y-135887230D03*
X203965573Y-114347235D03*
X197615573Y-116887235D03*
X203940586Y-95347223D03*
X197590586Y-97887223D03*
X80751846Y-99466080D03*
X74020746Y-98255134D03*
X90845737Y-83369052D03*
X84114637Y-82158106D03*
X100927456Y-67234965D03*
X94196356Y-66024019D03*
X65939888Y-87410002D03*
X59208788Y-86199056D03*
X75991378Y-71286483D03*
X69260278Y-70075537D03*
X86090067Y-55162982D03*
X79358967Y-53952036D03*
X51029883Y-75322134D03*
X44298783Y-74111188D03*
X61115835Y-59190658D03*
X54384735Y-57979712D03*
X71214514Y-43067149D03*
X64483414Y-41856203D03*
X33684900Y-67225371D03*
X26953800Y-66014425D03*
X43774573Y-51125704D03*
X37043473Y-49914758D03*
X53808585Y-35020752D03*
X47077485Y-33809806D03*
X15032624Y-61230196D03*
X8301524Y-60019250D03*
X25114340Y-45096090D03*
X18383240Y-43885144D03*
X35178562Y-28980509D03*
X28447462Y-27769563D03*
X-1036841Y-51129926D03*
X-7767941Y-49918980D03*
X8975977Y-35011699D03*
X2244877Y-33800753D03*
X19078876Y-18890829D03*
X12347776Y-17679883D03*
D26*
X105733487Y-75856198D03*
X160899617Y-138609846D03*
X86386894Y-112487033D03*
X78587318Y-86241452D03*
X89786798Y-97444601D03*
X84131299Y-115936538D03*
X162899613Y-140609859D03*
X179718961Y-144716918D03*
X85307688Y-114190246D03*
X161899616Y-139609857D03*
X193238193Y-123600309D03*
X84762348Y-115051094D03*
X160849624Y-140609847D03*
X176899616Y-146859869D03*
X179049614Y-148409862D03*
X194630807Y-143648101D03*
X166434517Y-120516823D03*
X176774627Y-105659838D03*
X79461060Y-71088220D03*
X50319850Y-51110004D03*
X14681344Y-36623176D03*
X46504915Y-90616482D03*
X75980161Y-112041579D03*
X146327182Y-111712492D03*
X144885000Y-115200078D03*
X178029045Y-141556828D03*
X189042380Y-144688840D03*
X221936790Y-144537854D03*
X232961794Y-143862854D03*
X266161790Y-143462851D03*
X275311794Y-146737853D03*
X275161791Y-110787854D03*
X255736794Y-108762852D03*
X78525174Y-66405782D03*
X57027154Y-52972328D03*
X157668505Y-115432417D03*
X141259527Y-101391816D03*
X87032150Y-71662569D03*
X57835233Y-51207345D03*
X21735639Y-36609274D03*
X43783709Y-94310838D03*
X68260560Y-110195259D03*
X137005258Y-110209811D03*
X166642836Y-136913493D03*
X176996092Y-144433547D03*
X187986440Y-146466659D03*
X218711789Y-147237850D03*
X236211792Y-146012854D03*
X288311790Y-140087849D03*
X290136794Y-138487848D03*
X275736790Y-107637853D03*
X255686789Y-105137847D03*
X86213431Y-73067137D03*
X49108322Y-46019486D03*
X21006994Y-37775333D03*
X45052908Y-92657123D03*
X68249766Y-108183911D03*
X162126584Y-130260938D03*
X166429148Y-134121436D03*
X177553738Y-143033000D03*
X187939599Y-145178857D03*
X221011788Y-145862846D03*
X232811792Y-145812842D03*
X291136794Y-131562843D03*
X291961791Y-129387854D03*
X275661792Y-109062843D03*
X255711794Y-106837855D03*
X237486793Y-104837849D03*
X216186784Y-109087853D03*
X171195811Y-110142321D03*
X167953106Y-118367137D03*
X125806431Y-74710295D03*
X158205498Y-92412395D03*
D27*
X24958625Y-22614742D02*
X23880252Y-24340532D01*
X56712842Y-43412111D02*
X55634454Y-45137880D01*
X21999041Y-27351101D02*
X20920648Y-29076882D01*
X105702555Y-75873353D02*
X105733487Y-75856198D01*
X160899617Y-138609846D02*
X163699613Y-135809860D01*
X163699614Y-117349287D02*
X169760805Y-111288105D01*
X163699613Y-135809860D02*
X163699614Y-117349287D01*
X210880790Y-101423106D02*
X210880795Y-103458116D01*
X248880790Y-96673105D02*
X248880800Y-98708112D01*
X286880807Y-105458124D02*
X286880811Y-103423110D01*
X85826049Y-110057700D02*
X86386894Y-112487033D01*
X105733487Y-75856198D02*
X106128451Y-77567054D01*
X106128451Y-77567054D02*
X85826049Y-110057700D01*
X51877564Y-109643406D02*
X51456788Y-109740552D01*
X54924607Y-104767140D02*
X51877564Y-109643406D01*
X67326314Y-101903975D02*
X54924607Y-104767140D01*
X87727800Y-65486826D02*
X87225163Y-66291192D01*
X51456788Y-109740552D02*
X49598418Y-108579319D01*
X87225163Y-66291192D02*
X88476273Y-71710334D01*
X80044355Y-81550825D02*
X67326314Y-101903975D01*
X88806177Y-63761049D02*
X87727800Y-65486826D01*
X88476273Y-71710334D02*
X82712108Y-80934927D01*
X49598418Y-108579319D02*
X50676808Y-106853536D01*
X82712108Y-80934927D02*
X80044355Y-81550825D01*
X13650161Y-40617757D02*
X13650149Y-40617759D01*
X14715295Y-38913190D02*
X13650161Y-40617757D01*
X77526836Y-81811751D02*
X78605229Y-80085972D01*
X64186217Y-123995713D02*
X63460445Y-124163272D01*
X64948749Y-122775402D02*
X64186217Y-123995713D01*
X45433486Y-61462806D02*
X46511891Y-59737026D01*
X10677300Y-45375307D02*
X10677280Y-45375293D01*
X11768940Y-43628318D02*
X10677300Y-45375307D01*
X71300917Y-97902113D02*
X70611930Y-98061177D01*
X62898246Y-121728122D02*
X63460445Y-124163272D01*
X78587318Y-86241452D02*
X71300917Y-97902113D01*
X65842652Y-105693616D02*
X67751435Y-113961418D01*
X70611930Y-98061177D02*
X65842652Y-105693616D01*
X67751435Y-113961418D02*
X62898246Y-121728122D01*
X90311734Y-99718250D02*
X89786798Y-97444601D01*
X83131320Y-111209314D02*
X90311734Y-99718250D01*
X84198040Y-115829763D02*
X83131320Y-111209314D01*
X84131299Y-115936538D02*
X84198040Y-115829763D01*
X168141366Y-116368103D02*
X169760802Y-116368103D01*
X164899634Y-119609857D02*
X168141366Y-116368103D01*
X162899613Y-140609859D02*
X164899618Y-138609855D01*
X164899618Y-138609855D02*
X164899634Y-119609857D01*
X210880800Y-120423121D02*
X210880799Y-122458107D01*
X248880807Y-115673108D02*
X248880796Y-117708096D01*
X286880805Y-122673102D02*
X286880796Y-124708112D01*
X3568430Y-56751856D02*
X4646822Y-55026084D01*
X286880813Y-141673106D02*
X286880796Y-143708107D01*
X210880788Y-141458122D02*
X210880787Y-139423130D01*
X248880812Y-134423106D02*
X248880798Y-136458109D01*
X68669236Y-95986870D02*
X67590879Y-97712651D01*
X85149141Y-126758146D02*
X85472860Y-128160243D01*
X84517489Y-126363456D02*
X85149141Y-126758146D01*
X35365020Y-77575707D02*
X36443429Y-75849954D01*
X608834Y-61488209D02*
X1687211Y-59762418D01*
X180118962Y-144316919D02*
X179718961Y-144716918D01*
X186599639Y-137836252D02*
X180118962Y-144316919D01*
X184011278Y-111836605D02*
X183997018Y-111886286D01*
X185000789Y-111288108D02*
X184011278Y-111836605D01*
X186599625Y-120245200D02*
X186599639Y-137836252D01*
X183997018Y-111886286D02*
X183640794Y-112083772D01*
X183640794Y-112083772D02*
X183640795Y-117286382D01*
X183640795Y-117286382D02*
X186599625Y-120245200D01*
X41042393Y-32635500D02*
X39964025Y-34361286D01*
X103859261Y-75525622D02*
X102780866Y-77251385D01*
X74018065Y-51572459D02*
X72939687Y-53298249D01*
X38082808Y-37371860D02*
X37004418Y-39097645D01*
X104303598Y-78202906D02*
X104497874Y-79044314D01*
X85180447Y-113639053D02*
X85307688Y-114190246D01*
X102780867Y-77251390D02*
X104303598Y-78202906D01*
X84559983Y-110951581D02*
X85180447Y-113639053D01*
X104497874Y-79044314D02*
X84559983Y-110951581D01*
X168960800Y-114628108D02*
X168881370Y-114628100D01*
X169760812Y-113828108D02*
X168960800Y-114628108D01*
X164299623Y-137209849D02*
X161899616Y-139609857D01*
X168960800Y-114628108D02*
X164299623Y-119289300D01*
X164299623Y-119289300D02*
X164299623Y-137209849D01*
X267880813Y-103458115D02*
X267880807Y-101423092D01*
X303880801Y-104673104D02*
X303880800Y-106708101D01*
X229880797Y-98923116D02*
X229880780Y-100958106D01*
X30973944Y-48748427D02*
X29895549Y-50474211D01*
X303880799Y-123923110D02*
X303880806Y-125958100D01*
X267880796Y-117923103D02*
X267880787Y-119958098D01*
X229880794Y-117923119D02*
X229880799Y-119958112D01*
X218866906Y-157139329D02*
X218340226Y-156612613D01*
X218866900Y-158578288D02*
X218866906Y-157139329D01*
X229880793Y-120906610D02*
X227630798Y-123156613D01*
X229880799Y-119958112D02*
X229880793Y-120906610D01*
X227630798Y-123156613D02*
X227630798Y-140898123D01*
X227630798Y-140898123D02*
X221130798Y-147398109D01*
X221130793Y-156314399D02*
X218866900Y-158578288D01*
X221130798Y-147398109D02*
X221130793Y-156314399D01*
X93393349Y-92274569D02*
X92314959Y-94000342D01*
X63817105Y-67897387D02*
X62738733Y-69623168D01*
X28014333Y-53484765D02*
X26935933Y-55210577D01*
X84730405Y-115031129D02*
X84762348Y-115051094D01*
X83821715Y-111095174D02*
X84730405Y-115031129D01*
X93446296Y-95692603D02*
X83821715Y-111095174D01*
X92314959Y-94000337D02*
X93180467Y-94541159D01*
X93180467Y-94541159D02*
X93446296Y-95692603D01*
X193232608Y-123598711D02*
X193238193Y-123600309D01*
X188099616Y-118461707D02*
X193238193Y-123600309D01*
X185000809Y-108748115D02*
X188099618Y-111846931D01*
X188099618Y-111846931D02*
X188099616Y-118461707D01*
X174655708Y-147149866D02*
X162550779Y-143678827D01*
X178675619Y-144921569D02*
X174655708Y-147149866D01*
X179171778Y-143191311D02*
X178675619Y-144921569D01*
X182296837Y-141459058D02*
X179171778Y-143191311D01*
X162550779Y-143678827D02*
X160849624Y-140609847D01*
X183099630Y-110649294D02*
X183099634Y-118059854D01*
X185000801Y-108748115D02*
X183099630Y-110649294D01*
X183099634Y-118059854D02*
X186149615Y-121109865D01*
X186149627Y-137609860D02*
X182299619Y-141459859D01*
X182299619Y-141459859D02*
X182296837Y-141459058D01*
X186149615Y-121109865D02*
X186149627Y-137609860D01*
X20905459Y-64861338D02*
X19827077Y-66587134D01*
X267880796Y-137173104D02*
X267880794Y-139208111D01*
X190138057Y-171816493D02*
X188864998Y-172110396D01*
X190609321Y-171062298D02*
X190138057Y-171816493D01*
X188355955Y-171601368D02*
X188865000Y-172110395D01*
X182249615Y-165495023D02*
X188355955Y-171601368D01*
X167438169Y-145548411D02*
X182249617Y-160359863D01*
X161767941Y-143922505D02*
X167438169Y-145548411D01*
X160124622Y-140957845D02*
X161767941Y-143922505D01*
X161159483Y-139397628D02*
X160250355Y-139607518D01*
X161899616Y-139609857D02*
X161159483Y-139397628D01*
X160250355Y-139607518D02*
X159680419Y-140519597D01*
X159680419Y-140519597D02*
X159723767Y-140707367D01*
X182249617Y-160359863D02*
X182249615Y-165495023D01*
X159723767Y-140707367D02*
X160124622Y-140957845D01*
X83324887Y-108387475D02*
X82246494Y-110113257D01*
X53748668Y-84010291D02*
X52670267Y-85736088D01*
X17945860Y-69597695D02*
X16867477Y-71323470D01*
X177299615Y-147259852D02*
X177299618Y-147309857D01*
X176899616Y-146859869D02*
X177299615Y-147259852D01*
X177299618Y-147309857D02*
X178399612Y-148409858D01*
X178399612Y-148409858D02*
X179049614Y-148409862D01*
X187599632Y-116426918D02*
X185000817Y-113828112D01*
X187599614Y-141909854D02*
X187599632Y-116426918D01*
X194630807Y-143648101D02*
X189337880Y-143648109D01*
X189337880Y-143648109D02*
X187599614Y-141909854D01*
X239630796Y-158458096D02*
X239630804Y-156423104D01*
X229880797Y-138708110D02*
X229880803Y-144838079D01*
X229880797Y-136673112D02*
X229880797Y-138708110D01*
X229880803Y-144838079D02*
X237380798Y-152338094D01*
X237940814Y-158458095D02*
X239630796Y-158458096D01*
X237380800Y-157898107D02*
X237940814Y-158458095D01*
X237380798Y-152338094D02*
X237380800Y-157898107D01*
X303537739Y-143222123D02*
X303880798Y-144708098D01*
X303880798Y-142673099D02*
X303537739Y-143222123D01*
X59672439Y-38675758D02*
X58594044Y-40401533D01*
X49471488Y-55000701D02*
X48393105Y-56726451D01*
X38324615Y-72839364D02*
X39403008Y-71113599D01*
X76977657Y-46836122D02*
X75899274Y-48561884D01*
X66776717Y-63161029D02*
X65698334Y-64886801D01*
X56708250Y-79273970D02*
X55629872Y-80999728D01*
X91765780Y-59024703D02*
X90687380Y-60750488D01*
X81564849Y-75349624D02*
X80486454Y-77075398D01*
X71628838Y-91250535D02*
X70550457Y-92976303D01*
X106818839Y-70789270D02*
X105858969Y-72325365D01*
X96352949Y-87538214D02*
X95274545Y-89263975D01*
X86284479Y-103651118D02*
X85206077Y-105376895D01*
X210880802Y-95838113D02*
X210880795Y-97873114D01*
X210880796Y-114838114D02*
X210880805Y-116873116D01*
X210880798Y-135873111D02*
X210880793Y-133838103D01*
X229880796Y-93338110D02*
X229880804Y-95373119D01*
X229880808Y-112338119D02*
X229880794Y-114373109D01*
X229880785Y-133123092D02*
X229880795Y-131088115D01*
X248880800Y-91088120D02*
X248880799Y-93123107D01*
X248880805Y-110088113D02*
X248880800Y-112123118D01*
X248880797Y-130873100D02*
X248880814Y-128838098D01*
X267880792Y-95838124D02*
X267880799Y-97873126D01*
X267880793Y-112338116D02*
X267880818Y-114373096D01*
X267880802Y-131588108D02*
X267880796Y-133623113D01*
X286880807Y-97838107D02*
X286880796Y-99873110D01*
X286880801Y-119123108D02*
X286880797Y-117088101D01*
X286880793Y-136088105D02*
X286880801Y-138123122D01*
X303880791Y-99088108D02*
X303880793Y-101123113D01*
X303880790Y-120373117D02*
X303880783Y-118338111D01*
X303880797Y-137088106D02*
X303880793Y-139123106D01*
X53636395Y-102117205D02*
X52558016Y-103842983D01*
X68270832Y-120186758D02*
X67545065Y-120354305D01*
X69033365Y-118966445D02*
X68270832Y-120186758D01*
X82527167Y-121826881D02*
X82850864Y-123228980D01*
X81895497Y-121432169D02*
X82527167Y-121826881D01*
X194348509Y-169233913D02*
X195396619Y-168185807D01*
X193652264Y-169233918D02*
X194348509Y-169233913D01*
X217421395Y-151744623D02*
X216894703Y-151217944D01*
X217421394Y-153183589D02*
X217421395Y-151744623D01*
X239630791Y-150838106D02*
X239630801Y-152873118D01*
X176774626Y-118644852D02*
X178764625Y-120634851D01*
X178764625Y-120634851D02*
X178764610Y-120784858D01*
X176774627Y-105659838D02*
X176774626Y-118644852D01*
X79234877Y-70108501D02*
X79884189Y-69069361D01*
X79461060Y-71088220D02*
X79234877Y-70108501D01*
X49950494Y-49510189D02*
X50493840Y-48640655D01*
X50319850Y-51110004D02*
X49950494Y-49510189D01*
X14473804Y-34575752D02*
X14823545Y-34016038D01*
X14201620Y-36323421D02*
X13980424Y-35365308D01*
X13980424Y-35365308D02*
X14473804Y-34575752D01*
X14681344Y-36623176D02*
X14201620Y-36323421D01*
X13441186Y-36909500D02*
X8420195Y-44944755D01*
X14681344Y-36623176D02*
X13441186Y-36909500D01*
X10717373Y-50022667D02*
X9657701Y-51718497D01*
X9096216Y-47872934D02*
X10410699Y-48694307D01*
X8420195Y-44944755D02*
X9096216Y-47872934D01*
X10410699Y-48694307D02*
X10717373Y-50022667D01*
X43651977Y-86431849D02*
X42560076Y-88179256D01*
X36317457Y-81302715D02*
X43504661Y-85793769D01*
X30116594Y-82734291D02*
X36317457Y-81302715D01*
X43504661Y-85793769D02*
X43651977Y-86431849D01*
X4166318Y-66518767D02*
X30116594Y-82734291D01*
X3108547Y-61937018D02*
X4166318Y-66518767D01*
X11014304Y-52566196D02*
X11161071Y-53201876D01*
X5731658Y-57739190D02*
X3108547Y-61937018D01*
X9657701Y-51718497D02*
X11014304Y-52566196D01*
X11161071Y-53201876D02*
X8763183Y-57039302D01*
X8763183Y-57039302D02*
X5731658Y-57739190D01*
X42560076Y-88179256D02*
X46472453Y-90623981D01*
X46472453Y-90623981D02*
X46504915Y-90616482D01*
X75980161Y-112041579D02*
X76462204Y-112342783D01*
X76770975Y-113680231D02*
X76713702Y-113771891D01*
X76713702Y-113771891D02*
X76363961Y-114331599D01*
X76462204Y-112342783D02*
X76770975Y-113680231D01*
X109914436Y-120880954D02*
X113879642Y-122017956D01*
X91861752Y-124015702D02*
X98975084Y-126055414D01*
X98975084Y-126055414D02*
X107465538Y-121349074D01*
X76363961Y-114331599D02*
X91861752Y-124015702D01*
X107465538Y-121349074D02*
X108522933Y-121652280D01*
X108522933Y-121652280D02*
X109914436Y-120880954D01*
X114101779Y-122418690D02*
X113534738Y-124396200D01*
X113879642Y-122017956D02*
X114101779Y-122418690D01*
X149017771Y-105002248D02*
X147238483Y-111207349D01*
X147238483Y-111207349D02*
X146327182Y-111712492D01*
X144426970Y-115453967D02*
X144885000Y-115200078D01*
X142729769Y-114967304D02*
X144426970Y-115453967D01*
X173374491Y-140280596D02*
X177959570Y-141595337D01*
X177959570Y-141595337D02*
X178029045Y-141556828D01*
X200315227Y-149892251D02*
X200197659Y-150302247D01*
X199016233Y-147548793D02*
X200315227Y-149892251D01*
X189042380Y-144688840D02*
X199016233Y-147548793D01*
X204486791Y-107912854D02*
X205564428Y-108990484D01*
X205564428Y-108990484D02*
X208042529Y-108990479D01*
X201261793Y-97712844D02*
X203161795Y-97712850D01*
X199597041Y-96048100D02*
X201261793Y-97712844D01*
X185000809Y-96048103D02*
X199597041Y-96048100D01*
X203161795Y-97712850D02*
X204486791Y-99037847D01*
X204486791Y-99037847D02*
X204486791Y-107912854D01*
X201347666Y-150302248D02*
X201362053Y-150287850D01*
X200197661Y-150302248D02*
X201347666Y-150302248D01*
X201362053Y-150287850D02*
X205936790Y-150287846D01*
X205936790Y-150287846D02*
X211686789Y-144537851D01*
X211686789Y-144537851D02*
X221936790Y-144537854D01*
X232961794Y-143862854D02*
X235061796Y-141762845D01*
X245099492Y-142818120D02*
X245099497Y-143478120D01*
X245099492Y-142576727D02*
X245099492Y-142818120D01*
X244285616Y-141762852D02*
X245099492Y-142576727D01*
X235061796Y-141762845D02*
X244285616Y-141762852D01*
X245099497Y-143478120D02*
X266146521Y-143478114D01*
X266146521Y-143478114D02*
X266161790Y-143462851D01*
X289136788Y-137812849D02*
X289136789Y-145012853D01*
X289136789Y-145012853D02*
X287411793Y-146737845D01*
X289334529Y-129666815D02*
X290484527Y-129666820D01*
X292711794Y-131894088D02*
X292711789Y-134237852D01*
X287411793Y-146737845D02*
X275877476Y-146737848D01*
X292711789Y-134237852D02*
X289136788Y-137812849D01*
X290484527Y-129666820D02*
X292711794Y-131894088D01*
X275877476Y-146737848D02*
X275311794Y-146737853D01*
X284542506Y-114518572D02*
X284542508Y-111740477D01*
X284961792Y-114937852D02*
X284542506Y-114518572D01*
X287561787Y-114937854D02*
X284961792Y-114937852D01*
X288086792Y-115462849D02*
X287561787Y-114937854D01*
X289002375Y-129334662D02*
X289002372Y-128479601D01*
X289334529Y-129666815D02*
X289002375Y-129334662D01*
X289002372Y-128479601D02*
X288797341Y-128274563D01*
X288797341Y-128274563D02*
X288086789Y-128274568D01*
X288086789Y-128274568D02*
X288086792Y-115462849D01*
X283392511Y-111740480D02*
X283364883Y-111712846D01*
X284542508Y-111740477D02*
X283392511Y-111740480D01*
X283364883Y-111712846D02*
X276086783Y-111712849D01*
X276086783Y-111712849D02*
X275161791Y-110787854D01*
X246542501Y-107150478D02*
X246542509Y-106490476D01*
X255171101Y-108762857D02*
X255021109Y-108612847D01*
X255736794Y-108762852D02*
X255171101Y-108762857D01*
X255021109Y-108612847D02*
X247211794Y-108612848D01*
X247211794Y-108612848D02*
X246542510Y-107943565D01*
X246542510Y-107943565D02*
X246542501Y-107150478D01*
X174080997Y-137816753D02*
X173374498Y-140280599D01*
X170926237Y-132125414D02*
X174080997Y-137816753D01*
X178764623Y-122049859D02*
X177154605Y-123659853D01*
X177154408Y-123660545D02*
X172635190Y-126165593D01*
X178764612Y-120784866D02*
X178764623Y-122049859D01*
X177154605Y-123659853D02*
X177154408Y-123660545D01*
X172635190Y-126165593D02*
X170926237Y-132125414D01*
X172635190Y-126165593D02*
X172611157Y-126158699D01*
X170060081Y-121556440D02*
X166434517Y-120516823D01*
X172611157Y-126158699D02*
X170060081Y-121556440D01*
X80679063Y-67797294D02*
X78537482Y-66459090D01*
X78537482Y-66459090D02*
X78525174Y-66405782D01*
X54801308Y-51581461D02*
X54734075Y-51290252D01*
X57027154Y-52972328D02*
X54801308Y-51581461D01*
X169760801Y-94639472D02*
X169760801Y-96048114D01*
X169760808Y-93508114D02*
X169760801Y-94639472D01*
X170892175Y-96048114D02*
X179699629Y-104855559D01*
X169760801Y-96048114D02*
X170892175Y-96048114D01*
X179699629Y-104855559D02*
X179699616Y-116934849D01*
X181304615Y-118539838D02*
X181304618Y-120784850D01*
X179699616Y-116934849D02*
X181304615Y-118539838D01*
X174706356Y-128648108D02*
X174380799Y-128648117D01*
X181304616Y-122049855D02*
X174706356Y-128648108D01*
X181304618Y-120784850D02*
X181304616Y-122049855D01*
X169161273Y-97007558D02*
X169166757Y-97031344D01*
X169760803Y-96048116D02*
X169161273Y-97007558D01*
X169166757Y-97031344D02*
X157668505Y-115432417D01*
X151434519Y-100391823D02*
X151784523Y-100741809D01*
X141259527Y-101391816D02*
X142259524Y-100391813D01*
X142259524Y-100391813D02*
X151434519Y-100391823D01*
X85041521Y-70418683D02*
X84919305Y-70446894D01*
X87032150Y-71662569D02*
X85041521Y-70418683D01*
X55823381Y-49950206D02*
X55528957Y-50018183D01*
X57835233Y-51207345D02*
X55823381Y-49950206D01*
X19870224Y-35443625D02*
X19858665Y-35393561D01*
X21735639Y-36609274D02*
X19870224Y-35443625D01*
X2523390Y-49029259D02*
X4622577Y-50340966D01*
X2041850Y-46943449D02*
X2523390Y-49029259D01*
X6643677Y-34106449D02*
X7566258Y-38102543D01*
X7566258Y-38102543D02*
X2041850Y-46943449D01*
X16424457Y-30342529D02*
X7743263Y-32346749D01*
X20208414Y-34833851D02*
X20203958Y-34814549D01*
X20601097Y-32952383D02*
X16424457Y-30342529D01*
X19858665Y-35393561D02*
X20208414Y-34833851D01*
X20203958Y-34814549D02*
X20807874Y-33848070D01*
X7743263Y-32346749D02*
X6643677Y-34106449D01*
X20807874Y-33848070D02*
X20601097Y-32952383D01*
X34780153Y-85086586D02*
X37524950Y-86801731D01*
X31643286Y-85810792D02*
X34780153Y-85086586D01*
X4622577Y-50340966D02*
X4272833Y-50900688D01*
X-2814184Y-61979976D02*
X-2193837Y-64667012D01*
X4272833Y-50900688D02*
X4081301Y-50944897D01*
X4081301Y-50944897D02*
X-2814184Y-61979976D01*
X-2193837Y-64667012D02*
X31643286Y-85810792D01*
X37659471Y-90483979D02*
X43783709Y-94310838D01*
X37524950Y-86801731D02*
X37002419Y-87637967D01*
X37002419Y-87637967D02*
X37659471Y-90483979D01*
X81806086Y-125174403D02*
X86628963Y-124060953D01*
X79071135Y-123465408D02*
X81806086Y-125174403D01*
X91208423Y-126922512D02*
X96978395Y-128577019D01*
X86628963Y-124060953D02*
X91208423Y-126922512D01*
X78522360Y-121088413D02*
X79071135Y-123465408D01*
X71328842Y-112954072D02*
X70323413Y-114563093D01*
X96978395Y-128577019D02*
X105738632Y-123721148D01*
X68487603Y-111178670D02*
X71328842Y-112954072D01*
X68260560Y-110195259D02*
X68487603Y-111178670D01*
X70701670Y-116201506D02*
X78522360Y-121088413D01*
X70323413Y-114563093D02*
X70701670Y-116201506D01*
X105738632Y-123721148D02*
X108314968Y-124459897D01*
X137231462Y-111830239D02*
X136776144Y-111008826D01*
X136776144Y-111008826D02*
X137005258Y-110209811D01*
X138336909Y-112147230D02*
X137231462Y-111830239D01*
X166486910Y-137457265D02*
X166521196Y-137519106D01*
X166642836Y-136913493D02*
X166486910Y-137457265D01*
X167049281Y-140027312D02*
X168154721Y-140344295D01*
X166227225Y-138544295D02*
X167049281Y-140027312D01*
X166521196Y-137519106D02*
X166227225Y-138544295D01*
X167972812Y-140978730D02*
X167973500Y-140979985D01*
X168154721Y-140344295D02*
X167972812Y-140978730D01*
X167973500Y-140979985D02*
X167945809Y-141076589D01*
X167945809Y-141076589D02*
X167606137Y-142261175D01*
X167606137Y-142261175D02*
X167983226Y-142941471D01*
X167983226Y-142941471D02*
X175697358Y-145153453D01*
X175697358Y-145153453D02*
X176996092Y-144433547D01*
X190140141Y-150352029D02*
X195197667Y-151802251D01*
X187986440Y-146466659D02*
X190140141Y-150352029D01*
X213042534Y-100243585D02*
X213042524Y-107490485D01*
X212336786Y-99537847D02*
X213042534Y-100243585D01*
X209161792Y-99537851D02*
X212336786Y-99537847D01*
X189976929Y-94812848D02*
X199611799Y-94812848D01*
X199611799Y-94812848D02*
X201886792Y-97087851D01*
X206711789Y-97087855D02*
X209161792Y-99537851D01*
X185000804Y-90968100D02*
X186132184Y-90968098D01*
X186132184Y-90968098D02*
X189976929Y-94812848D01*
X201886792Y-97087851D02*
X206711789Y-97087855D01*
X195197659Y-152462244D02*
X195161788Y-152498114D01*
X195197663Y-151802249D02*
X195197659Y-152462244D01*
X195161788Y-152498114D02*
X195161790Y-153612851D01*
X195161790Y-153612851D02*
X195836792Y-154287849D01*
X195836792Y-154287849D02*
X204861790Y-154287854D01*
X204861790Y-154287854D02*
X211911794Y-147237849D01*
X211911794Y-147237849D02*
X218711789Y-147237850D01*
X237246521Y-144978113D02*
X240099490Y-144978115D01*
X236211792Y-146012854D02*
X237246521Y-144978113D01*
X284334527Y-141860586D02*
X284334526Y-131166827D01*
X284336795Y-142162847D02*
X284336799Y-141862851D01*
X280711798Y-145787849D02*
X284336795Y-142162847D01*
X272586794Y-145787852D02*
X280711798Y-145787849D01*
X271086799Y-147287852D02*
X272586794Y-145787852D01*
X240099491Y-145638123D02*
X240136794Y-145675426D01*
X240099490Y-144978115D02*
X240099491Y-145638123D01*
X240136796Y-146687849D02*
X240736795Y-147287849D01*
X284336799Y-141862851D02*
X284334527Y-141860586D01*
X240136794Y-145675426D02*
X240136796Y-146687849D01*
X240736795Y-147287849D02*
X271086799Y-147287852D01*
X284336795Y-142162847D02*
X284911791Y-142162849D01*
X284911791Y-142162849D02*
X285486794Y-141587848D01*
X285486794Y-141587848D02*
X285486790Y-140487848D01*
X285486790Y-140487848D02*
X285886788Y-140087855D01*
X285886788Y-140087855D02*
X288311790Y-140087849D01*
X291139421Y-110240477D02*
X289542504Y-110240476D01*
X292011795Y-113037852D02*
X292011789Y-111112851D01*
X292011789Y-111112851D02*
X291139421Y-110240477D01*
X289261797Y-115787848D02*
X292011795Y-113037852D01*
X290536787Y-138087858D02*
X290536785Y-137187848D01*
X290136794Y-138487848D02*
X290536787Y-138087858D01*
X289261785Y-122662843D02*
X289261797Y-115787848D01*
X294136797Y-127537855D02*
X289261785Y-122662843D01*
X290536785Y-137187848D02*
X294136791Y-133587849D01*
X294136791Y-133587849D02*
X294136797Y-127537855D01*
X289542504Y-110240476D02*
X289542514Y-108418567D01*
X289542514Y-108418567D02*
X288761795Y-107637845D01*
X288761795Y-107637845D02*
X275736790Y-107637853D01*
X251689887Y-105137853D02*
X251542503Y-104990472D01*
X255686789Y-105137847D02*
X251689887Y-105137853D01*
X168710806Y-88428110D02*
X159734528Y-97404373D01*
X169760799Y-88428107D02*
X168710806Y-88428110D01*
X159734528Y-97404373D02*
X159734517Y-100766820D01*
X157629304Y-102872035D02*
X150401134Y-102872044D01*
X159734517Y-100766820D02*
X157629304Y-102872035D01*
X84135983Y-71769005D02*
X84124428Y-71718975D01*
X86213431Y-73067137D02*
X84135983Y-71769005D01*
X51288710Y-47368585D02*
X49123932Y-46015876D01*
X49123932Y-46015876D02*
X49108322Y-46019486D01*
X19185962Y-36637432D02*
X19063778Y-36665630D01*
X21006994Y-37775333D02*
X19185962Y-36637432D01*
X3085885Y-46357700D02*
X3424275Y-47823426D01*
X3424275Y-47823426D02*
X5417454Y-49068897D01*
X14643172Y-32134563D02*
X13073641Y-32496919D01*
X13073641Y-32496919D02*
X9657084Y-37964551D01*
X15618426Y-32743965D02*
X14643172Y-32134563D01*
X9657084Y-37964551D02*
X8106866Y-38322447D01*
X8106866Y-38322447D02*
X3085885Y-46357700D01*
X34345366Y-83046134D02*
X38319832Y-85529653D01*
X30760660Y-83873728D02*
X34345366Y-83046134D01*
X2072414Y-62085515D02*
X3114293Y-66598362D01*
X8513072Y-53550282D02*
X8493780Y-53554735D01*
X8862813Y-52990569D02*
X8513072Y-53550282D01*
X7877839Y-54540438D02*
X6603229Y-54834703D01*
X8493780Y-53554735D02*
X7877839Y-54540438D01*
X3114293Y-66598362D02*
X30760660Y-83873728D01*
X6603229Y-54834703D02*
X2072414Y-62085515D01*
X41765199Y-89451323D02*
X44742272Y-91311601D01*
X44742272Y-91311601D02*
X45052908Y-92657123D01*
X68249766Y-108183911D02*
X70157877Y-109376228D01*
X70448536Y-110635241D02*
X72123720Y-111682006D01*
X70157877Y-109376228D02*
X70448536Y-110635241D01*
X98006185Y-127360529D02*
X106824977Y-122472199D01*
X76632072Y-116192821D02*
X91534248Y-125504735D01*
X75569083Y-115603669D02*
X76544328Y-116213080D01*
X91534248Y-125504735D02*
X98006185Y-127360529D01*
X76544328Y-116213080D02*
X76632072Y-116192821D01*
X106824977Y-122472199D02*
X108728429Y-123018005D01*
X134477910Y-112601125D02*
X137923458Y-113589114D01*
X129462668Y-115381120D02*
X134477910Y-112601125D01*
X128056910Y-120283560D02*
X129462668Y-115381120D01*
X116360565Y-126766940D02*
X128056910Y-120283560D01*
X113121282Y-125838088D02*
X116360565Y-126766940D01*
X143143224Y-113525421D02*
X154684345Y-116834769D01*
X154684345Y-116834769D02*
X162126584Y-130260938D01*
X166429148Y-134121436D02*
X167438479Y-134410854D01*
X169031858Y-137285389D02*
X168568183Y-138902401D01*
X167438479Y-134410854D02*
X169031858Y-137285389D01*
X172961043Y-141722485D02*
X177546106Y-143037236D01*
X177546106Y-143037236D02*
X177553738Y-143033000D01*
X191640452Y-146240058D02*
X187939599Y-145178857D01*
X195197664Y-150302245D02*
X193645440Y-149857159D01*
X193645440Y-149857159D02*
X191640452Y-146240058D01*
X200197662Y-151802250D02*
X205972399Y-151802250D01*
X205972399Y-151802250D02*
X211911789Y-145862845D01*
X211911789Y-145862845D02*
X221011788Y-145862846D01*
X233211794Y-145412851D02*
X233261792Y-145412845D01*
X232811792Y-145812842D02*
X233211794Y-145412851D01*
X235196523Y-143478115D02*
X240099492Y-143478120D01*
X233261792Y-145412845D02*
X235196523Y-143478115D01*
X245099489Y-144978122D02*
X277896531Y-144978117D01*
X277896531Y-144978117D02*
X280711794Y-142162846D01*
X280711794Y-142162846D02*
X280711793Y-139562845D01*
X280711793Y-139562845D02*
X277211792Y-136062853D01*
X277211792Y-136062853D02*
X277211789Y-132637843D01*
X280182828Y-129666813D02*
X284334530Y-129666820D01*
X277211789Y-132637843D02*
X280182828Y-129666813D01*
X289334533Y-131166824D02*
X290740758Y-131166823D01*
X290740758Y-131166823D02*
X291136794Y-131562843D01*
X288686785Y-115074289D02*
X289542511Y-114218570D01*
X289542511Y-114218570D02*
X289542510Y-111740477D01*
X288686795Y-122962853D02*
X288686785Y-115074289D01*
X291961791Y-129387854D02*
X291961792Y-126237850D01*
X291961792Y-126237850D02*
X288686795Y-122962853D01*
X284542511Y-110240476D02*
X276839424Y-110240476D01*
X276839424Y-110240476D02*
X275661792Y-109062843D01*
X251889881Y-106837849D02*
X251542504Y-106490477D01*
X255711794Y-106837855D02*
X251889881Y-106837849D01*
X246542509Y-104990471D02*
X237639411Y-104990474D01*
X237639411Y-104990474D02*
X237486793Y-104837849D01*
X213139896Y-109087852D02*
X213042528Y-108990480D01*
X216186784Y-109087853D02*
X213139896Y-109087852D01*
X28447456Y-27769553D02*
X28044448Y-28414504D01*
X28044448Y-28414504D02*
X28285089Y-29456787D01*
X28285089Y-29456787D02*
X26827799Y-31788923D01*
X25792417Y-32027961D02*
X18383237Y-43885126D01*
X26827799Y-31788923D02*
X25792417Y-32027961D01*
X18383237Y-43885126D02*
X17845093Y-44746330D01*
X17845093Y-44746330D02*
X18004601Y-45437202D01*
X18004601Y-45437202D02*
X14427637Y-51161544D01*
X13736756Y-51321049D02*
X8301512Y-60019253D01*
X14427637Y-51161544D02*
X13736756Y-51321049D01*
X12347782Y-17679890D02*
X11799050Y-18558034D01*
X11799050Y-18558034D02*
X12039680Y-19600329D01*
X12039680Y-19600329D02*
X7270416Y-27232772D01*
X6193670Y-27481361D02*
X2244889Y-33800759D01*
X7270416Y-27232772D02*
X6193670Y-27481361D01*
X2244889Y-33800759D02*
X1722644Y-34636512D01*
X1722644Y-34636512D02*
X1891699Y-35368759D01*
X1891699Y-35368759D02*
X-1155340Y-40245037D01*
X-1818682Y-40398188D02*
X-7767943Y-49918977D01*
X-1155340Y-40245037D02*
X-1818682Y-40398188D01*
X37043470Y-49914765D02*
X36613968Y-50602113D01*
X36613968Y-50602113D02*
X36846641Y-51609934D01*
X36846641Y-51609934D02*
X30752579Y-61362497D01*
X29710297Y-61603121D02*
X26953810Y-66014427D01*
X30752579Y-61362497D02*
X29710297Y-61603121D01*
X47077490Y-33809782D02*
X46674484Y-34454757D01*
X46674484Y-34454757D02*
X46915119Y-35497030D01*
X46915119Y-35497030D02*
X41085993Y-44825570D01*
X40078171Y-45058230D02*
X37043470Y-49914765D01*
X41085993Y-44825570D02*
X40078171Y-45058230D01*
X50399737Y-64347583D02*
X44298770Y-74111178D01*
X54045325Y-58522884D02*
X54284366Y-59558286D01*
X51442039Y-64106956D02*
X50399737Y-64347583D01*
X54384739Y-57979701D02*
X54045325Y-58522884D01*
X64483430Y-41856195D02*
X64120153Y-42437529D01*
X54284366Y-59558286D02*
X51442039Y-64106956D01*
X64352821Y-43445360D02*
X57066435Y-55106019D01*
X56031040Y-55345084D02*
X54384739Y-57979701D01*
X64120153Y-42437529D02*
X64352821Y-43445360D01*
X57066435Y-55106019D02*
X56031040Y-55345084D01*
X94196361Y-66024007D02*
X93962932Y-66397578D01*
X93962932Y-66397578D02*
X94194003Y-67398519D01*
X94194003Y-67398519D02*
X91146970Y-72274785D01*
X90146025Y-72505893D02*
X84114653Y-82158115D01*
X91146970Y-72274785D02*
X90146025Y-72505893D01*
X84114653Y-82158115D02*
X83761980Y-82722489D01*
X83761980Y-82722489D02*
X83993060Y-83723453D01*
X83993060Y-83723453D02*
X78296431Y-92839967D01*
X77254160Y-93080583D02*
X74020738Y-98255140D01*
X78296431Y-92839967D02*
X77254160Y-93080583D01*
X79358977Y-53952020D02*
X78916210Y-54660580D01*
X78916210Y-54660580D02*
X79140925Y-55633969D01*
X79140925Y-55633969D02*
X73974210Y-63902420D01*
X72973259Y-64133520D02*
X69260275Y-70075526D01*
X73974210Y-63902420D02*
X72973259Y-64133520D01*
X69260275Y-70075526D02*
X68841389Y-70745919D01*
X68841389Y-70745919D02*
X69072475Y-71746878D01*
X69072475Y-71746878D02*
X65363039Y-77683216D01*
X64389648Y-77907933D02*
X59208794Y-86199053D01*
X65363039Y-77683216D02*
X64389648Y-77907933D01*
X197590593Y-97887215D02*
X197590591Y-98357917D01*
X197590591Y-98357917D02*
X198130790Y-98898108D01*
X198130790Y-98898108D02*
X198130799Y-103148098D01*
X197615586Y-103663324D02*
X197615597Y-116887233D01*
X198130799Y-103148098D02*
X197615586Y-103663324D01*
X197615597Y-116887233D02*
X197615589Y-117382897D01*
X197615589Y-117382897D02*
X198380802Y-118148117D01*
X198380802Y-118148117D02*
X198380792Y-121398107D01*
X197595600Y-122183329D02*
X197595595Y-135887223D01*
X198380792Y-121398107D02*
X197595600Y-122183329D01*
X216645612Y-121133301D02*
X216645587Y-133487217D01*
X217630808Y-120148119D02*
X216645612Y-121133301D01*
X216620591Y-114487216D02*
X216620586Y-115137884D01*
X216620586Y-115137884D02*
X217630797Y-116148107D01*
X216665588Y-96182911D02*
X217380799Y-96898123D01*
X217630797Y-116148107D02*
X217630808Y-120148119D01*
X217380800Y-102398124D02*
X219609533Y-104626834D01*
X219609523Y-111498292D02*
X216620591Y-114487216D01*
X216665595Y-95462231D02*
X216665588Y-96182911D01*
X217380799Y-96898123D02*
X217380800Y-102398124D01*
X219609533Y-104626834D02*
X219609523Y-111498292D01*
X235615565Y-93137212D02*
X235615575Y-93632908D01*
X235615575Y-93632908D02*
X236380799Y-94398086D01*
X236380799Y-94398086D02*
X236380808Y-100148101D01*
X235640578Y-100888319D02*
X235640589Y-112137221D01*
X236380808Y-100148101D02*
X235640578Y-100888319D01*
X235640589Y-112137221D02*
X235640591Y-112657894D01*
X235640591Y-112657894D02*
X236380801Y-113398113D01*
X236380801Y-113398113D02*
X236380808Y-117898105D01*
X235615592Y-118663321D02*
X235615599Y-131087225D01*
X236380808Y-117898105D02*
X235615592Y-118663321D01*
X254645585Y-123383324D02*
X254645596Y-133487208D01*
X255380795Y-115898104D02*
X255380805Y-122648106D01*
X254620590Y-114512222D02*
X254620601Y-115137898D01*
X256934527Y-112198287D02*
X254620590Y-114512222D01*
X254620589Y-96137897D02*
X255380800Y-96898121D01*
X255380805Y-122648106D02*
X254645585Y-123383324D01*
X255380805Y-101120536D02*
X256934529Y-102674261D01*
X254620601Y-115137898D02*
X255380795Y-115898104D01*
X254620594Y-95487223D02*
X254620589Y-96137897D01*
X255380800Y-96898121D02*
X255380805Y-101120536D01*
X256934529Y-102674261D02*
X256934527Y-112198287D01*
X273615589Y-100262227D02*
X273615592Y-101132898D01*
X273615592Y-101132898D02*
X274380789Y-101898106D01*
X274380789Y-101898106D02*
X274380796Y-108898111D01*
X273620594Y-109658304D02*
X273620589Y-119262220D01*
X274380796Y-108898111D02*
X273620594Y-109658304D01*
X273620589Y-119262220D02*
X273620610Y-119887900D01*
X273620610Y-119887900D02*
X274380793Y-120648113D01*
X274380793Y-120648113D02*
X274380799Y-124898105D01*
X273645578Y-125633320D02*
X273645583Y-138237215D01*
X274380799Y-124898105D02*
X273645578Y-125633320D01*
X296109534Y-128126824D02*
X296109522Y-134768287D01*
X293380800Y-120648115D02*
X293380794Y-125398123D01*
X296109522Y-134768287D02*
X292640589Y-138237227D01*
X292620587Y-119887915D02*
X293380800Y-120648115D01*
X293380794Y-125398123D02*
X296109534Y-128126824D01*
X294559532Y-117323290D02*
X292620590Y-119262225D01*
X292670591Y-101187894D02*
X293834517Y-102351843D01*
X292670593Y-100237223D02*
X292670591Y-101187894D01*
X293834517Y-102351843D02*
X293834527Y-108944378D01*
X293834527Y-108944378D02*
X294559533Y-109669391D01*
X294559533Y-109669391D02*
X294559532Y-117323290D01*
X187105805Y-155906162D02*
X186995282Y-156016681D01*
X186995282Y-156016681D02*
X186995277Y-157607661D01*
X187105799Y-119316046D02*
X187105805Y-155906162D01*
X185000808Y-116368113D02*
X185000798Y-117211029D01*
X185000798Y-117211029D02*
X187105799Y-119316046D01*
X181880808Y-127648117D02*
X180880809Y-128648111D01*
X182849613Y-126679289D02*
X181880808Y-127648117D01*
X183869431Y-93508124D02*
X180762795Y-96614746D01*
X182849623Y-118484845D02*
X182849613Y-126679289D01*
X185000803Y-93508116D02*
X183869431Y-93508124D01*
X180762804Y-116398023D02*
X182849623Y-118484845D01*
X180762795Y-96614746D02*
X180762804Y-116398023D01*
X169760791Y-101128111D02*
X171974617Y-103341933D01*
X171974617Y-103341933D02*
X171974612Y-122509852D01*
X171974612Y-122509852D02*
X172674603Y-123209862D01*
X175064628Y-123209860D02*
X176224632Y-122049849D01*
X176224632Y-122049849D02*
X176224601Y-120784854D01*
X172674603Y-123209862D02*
X175064628Y-123209860D01*
X173684620Y-119519861D02*
X173684623Y-120784859D01*
X173684618Y-101380554D02*
X173684620Y-119519861D01*
X170892179Y-98588113D02*
X173684618Y-101380554D01*
X169760808Y-98588115D02*
X170892179Y-98588113D01*
X132754173Y-97134425D02*
X132758952Y-97155090D01*
X136926608Y-88881430D02*
X137192248Y-90032013D01*
X137192248Y-90032013D02*
X132754173Y-97134425D01*
X136926608Y-88881430D02*
X138652382Y-89959814D01*
X130559994Y-95614585D02*
X130604911Y-95809105D01*
X133666866Y-90642551D02*
X130559994Y-95614585D01*
X171524606Y-110735508D02*
X171524601Y-116977120D01*
X171195811Y-110142321D02*
X171524606Y-110735508D01*
X171524601Y-116977120D02*
X170884959Y-119207822D01*
X170884959Y-119207822D02*
X167953106Y-118367137D01*
X121333295Y-81113983D02*
X121313480Y-81118565D01*
X157182779Y-94049067D02*
X158205498Y-92412395D01*
X144193107Y-93422029D02*
X147731628Y-95633132D01*
X155178424Y-93913921D02*
X155877125Y-94350512D01*
X141662971Y-91841021D02*
X144193107Y-93422029D01*
X147731628Y-95633132D02*
X155178424Y-93913921D01*
X155877125Y-94350512D02*
X157182779Y-94049067D01*
X125182428Y-74926921D02*
X121313480Y-81118565D01*
X125806431Y-74710295D02*
X125753436Y-74795101D01*
X125753436Y-74795101D02*
X125182428Y-74926921D01*
M02*
