G04 #@! TF.GenerationSoftware,KiCad,Pcbnew,(5.1.5)-3*
G04 #@! TF.CreationDate,2020-10-24T16:29:20+02:00*
G04 #@! TF.ProjectId,aegis,61656769-732e-46b6-9963-61645f706362,rev?*
G04 #@! TF.SameCoordinates,Original*
G04 #@! TF.FileFunction,Legend,Top*
G04 #@! TF.FilePolarity,Positive*
%FSLAX46Y46*%
G04 Gerber Fmt 4.6, Leading zero omitted, Abs format (unit mm)*
G04 Created by KiCad (PCBNEW (5.1.5)-3) date 2020-10-24 16:29:20*
%MOMM*%
%LPD*%
G04 APERTURE LIST*
%ADD10C,0.150000*%
%ADD11C,0.100000*%
%ADD12C,0.120000*%
%ADD13C,2.102000*%
%ADD14O,1.832000X2.132000*%
%ADD15R,1.832000X2.132000*%
%ADD16C,1.832000*%
%ADD17C,1.102000*%
%ADD18C,1.499000*%
%ADD19R,1.052000X1.402000*%
%ADD20R,1.499000X1.499000*%
%ADD21C,2.007000*%
%ADD22C,3.602000*%
%ADD23C,1.502000*%
%ADD24C,1.502000*%
%ADD25C,1.702000*%
%ADD26R,1.702000X1.702000*%
%ADD27C,2.352000*%
%ADD28C,4.089800*%
%ADD29C,1.852000*%
G04 APERTURE END LIST*
D10*
X175998742Y-87268780D02*
X175998742Y-88078304D01*
X176046361Y-88173542D01*
X176093980Y-88221161D01*
X176189218Y-88268780D01*
X176379694Y-88268780D01*
X176474932Y-88221161D01*
X176522551Y-88173542D01*
X176570170Y-88078304D01*
X176570170Y-87268780D01*
X176998742Y-88221161D02*
X177141599Y-88268780D01*
X177379694Y-88268780D01*
X177474932Y-88221161D01*
X177522551Y-88173542D01*
X177570170Y-88078304D01*
X177570170Y-87983066D01*
X177522551Y-87887828D01*
X177474932Y-87840209D01*
X177379694Y-87792590D01*
X177189218Y-87744971D01*
X177093980Y-87697352D01*
X177046361Y-87649733D01*
X176998742Y-87554495D01*
X176998742Y-87459257D01*
X177046361Y-87364019D01*
X177093980Y-87316400D01*
X177189218Y-87268780D01*
X177427313Y-87268780D01*
X177570170Y-87316400D01*
X178332075Y-87744971D02*
X178474932Y-87792590D01*
X178522551Y-87840209D01*
X178570170Y-87935447D01*
X178570170Y-88078304D01*
X178522551Y-88173542D01*
X178474932Y-88221161D01*
X178379694Y-88268780D01*
X177998742Y-88268780D01*
X177998742Y-87268780D01*
X178332075Y-87268780D01*
X178427313Y-87316400D01*
X178474932Y-87364019D01*
X178522551Y-87459257D01*
X178522551Y-87554495D01*
X178474932Y-87649733D01*
X178427313Y-87697352D01*
X178332075Y-87744971D01*
X177998742Y-87744971D01*
X176474932Y-88918780D02*
X176474932Y-89728304D01*
X176522551Y-89823542D01*
X176570170Y-89871161D01*
X176665408Y-89918780D01*
X176855885Y-89918780D01*
X176951123Y-89871161D01*
X176998742Y-89823542D01*
X177046361Y-89728304D01*
X177046361Y-88918780D01*
X177522551Y-89918780D02*
X177522551Y-88918780D01*
X177903504Y-88918780D01*
X177998742Y-88966400D01*
X178046361Y-89014019D01*
X178093980Y-89109257D01*
X178093980Y-89252114D01*
X178046361Y-89347352D01*
X177998742Y-89394971D01*
X177903504Y-89442590D01*
X177522551Y-89442590D01*
D11*
G36*
X188868241Y-127930619D02*
G01*
X188855761Y-127943658D01*
X188803024Y-127973358D01*
X188794839Y-127973122D01*
X188799913Y-127944260D01*
X188812394Y-127931222D01*
X188865131Y-127901523D01*
X188873315Y-127901758D01*
X188868241Y-127930619D01*
G37*
G36*
X188873808Y-128043238D02*
G01*
X188817115Y-128065887D01*
X188765677Y-128057667D01*
X188758290Y-128038064D01*
X188800295Y-128019966D01*
X188837887Y-128014492D01*
X188883524Y-128024298D01*
X188873808Y-128043238D01*
G37*
G36*
X186159156Y-132821433D02*
G01*
X186193789Y-132874993D01*
X186194868Y-132885859D01*
X186169176Y-132897782D01*
X186137778Y-132845554D01*
X186134548Y-132835074D01*
X186137946Y-132803932D01*
X186159156Y-132821433D01*
G37*
G36*
X186111055Y-132958209D02*
G01*
X186099461Y-132973065D01*
X186048627Y-133003263D01*
X186041098Y-133003264D01*
X186032092Y-132964369D01*
X186034410Y-132954412D01*
X186079707Y-132922271D01*
X186092772Y-132924214D01*
X186111055Y-132958209D01*
G37*
G36*
X186101866Y-133701226D02*
G01*
X186073964Y-133716692D01*
X186058498Y-133688790D01*
X186086400Y-133673324D01*
X186101866Y-133701226D01*
G37*
G36*
X186064560Y-133831328D02*
G01*
X186036658Y-133846795D01*
X186021191Y-133818893D01*
X186049093Y-133803427D01*
X186064560Y-133831328D01*
G37*
G36*
X185889626Y-133008911D02*
G01*
X185949424Y-133053689D01*
X185950538Y-133056643D01*
X185991869Y-133113534D01*
X186080919Y-133203195D01*
X186155318Y-133269302D01*
X186250254Y-133359262D01*
X186290109Y-133418355D01*
X186278561Y-133434360D01*
X186210243Y-133402429D01*
X186191710Y-133368973D01*
X186157113Y-133322263D01*
X186124074Y-133337344D01*
X186055496Y-133354155D01*
X185932187Y-133353808D01*
X185851805Y-133345715D01*
X185690678Y-133334460D01*
X185492370Y-133335609D01*
X185281731Y-133347173D01*
X185083607Y-133367161D01*
X184922847Y-133393582D01*
X184824298Y-133424446D01*
X184817516Y-133428569D01*
X184744371Y-133464427D01*
X184678697Y-133441065D01*
X184646284Y-133417028D01*
X184602822Y-133358988D01*
X184628433Y-133327229D01*
X184702671Y-133336692D01*
X184735346Y-133351947D01*
X184810196Y-133389772D01*
X184817898Y-133376422D01*
X184783907Y-133326426D01*
X184749308Y-133225811D01*
X184753805Y-133212986D01*
X184798865Y-133225907D01*
X184797425Y-133253396D01*
X184819486Y-133263109D01*
X184859733Y-133257477D01*
X184856688Y-133242487D01*
X184806710Y-133222539D01*
X184798865Y-133225907D01*
X184753805Y-133212986D01*
X184780457Y-133136982D01*
X184811665Y-133049443D01*
X184787264Y-133019201D01*
X184777481Y-132999372D01*
X184835836Y-132972257D01*
X184941045Y-132942594D01*
X185071820Y-132915115D01*
X185206874Y-132894556D01*
X185324919Y-132885653D01*
X185378063Y-132887795D01*
X185584080Y-132920105D01*
X185761223Y-132962430D01*
X185889626Y-133008911D01*
G37*
G36*
X185289741Y-134023733D02*
G01*
X185276395Y-134047808D01*
X185252539Y-134044354D01*
X185221392Y-134018251D01*
X185231917Y-134007152D01*
X185284872Y-134016720D01*
X185289741Y-134023733D01*
G37*
G36*
X189887496Y-128028302D02*
G01*
X189859594Y-128043767D01*
X189844127Y-128015866D01*
X189872029Y-128000400D01*
X189887496Y-128028302D01*
G37*
G36*
X189521796Y-128103351D02*
G01*
X189512228Y-128156307D01*
X189505215Y-128161175D01*
X189481140Y-128147829D01*
X189484594Y-128123972D01*
X189510697Y-128092826D01*
X189521796Y-128103351D01*
G37*
G36*
X189626976Y-128282134D02*
G01*
X189599074Y-128297600D01*
X189583608Y-128269698D01*
X189611510Y-128254232D01*
X189626976Y-128282134D01*
G37*
G36*
X189874747Y-128400115D02*
G01*
X189846845Y-128415581D01*
X189831379Y-128387679D01*
X189859281Y-128372214D01*
X189874747Y-128400115D01*
G37*
G36*
X189887967Y-128268208D02*
G01*
X189828348Y-128316410D01*
X189736527Y-128360195D01*
X189681615Y-128368202D01*
X189681995Y-128339740D01*
X189741614Y-128291539D01*
X189833435Y-128247753D01*
X189888347Y-128239747D01*
X189887967Y-128268208D01*
G37*
G36*
X189217262Y-128170653D02*
G01*
X189142323Y-128221628D01*
X189125060Y-128232079D01*
X189029946Y-128283742D01*
X188973204Y-128305303D01*
X188970433Y-128305074D01*
X188989489Y-128281070D01*
X189064429Y-128230095D01*
X189081691Y-128219644D01*
X189176805Y-128167980D01*
X189233547Y-128146419D01*
X189236320Y-128146648D01*
X189217262Y-128170653D01*
G37*
G36*
X189247593Y-128409490D02*
G01*
X189213704Y-128434281D01*
X189169381Y-128451230D01*
X189190941Y-128410384D01*
X189196388Y-128403042D01*
X189245971Y-128359787D01*
X189265613Y-128365007D01*
X189247593Y-128409490D01*
G37*
G36*
X190729406Y-128965897D02*
G01*
X190719838Y-129018853D01*
X190712825Y-129023720D01*
X190688750Y-129010375D01*
X190692203Y-128986518D01*
X190718307Y-128955372D01*
X190729406Y-128965897D01*
G37*
G36*
X191385931Y-129349709D02*
G01*
X191358029Y-129365175D01*
X191342563Y-129337273D01*
X191370465Y-129321808D01*
X191385931Y-129349709D01*
G37*
G36*
X187600500Y-128311188D02*
G01*
X187572600Y-128326654D01*
X187557133Y-128298753D01*
X187585035Y-128283287D01*
X187600500Y-128311188D01*
G37*
G36*
X191031678Y-128951960D02*
G01*
X191033025Y-128998525D01*
X191015570Y-129095296D01*
X190979587Y-129139496D01*
X190941353Y-129115292D01*
X190933034Y-129095786D01*
X190902914Y-129049329D01*
X190871430Y-129072564D01*
X190807859Y-129105986D01*
X190687867Y-129137806D01*
X190611964Y-129150697D01*
X190466724Y-129169728D01*
X190390548Y-129175375D01*
X190363275Y-129167729D01*
X190363204Y-129151813D01*
X190406306Y-129129048D01*
X190502476Y-129101986D01*
X190506839Y-129101011D01*
X190584795Y-129071856D01*
X190575357Y-129041544D01*
X190481190Y-129014436D01*
X190450928Y-129009562D01*
X190412061Y-128992110D01*
X190447544Y-128962872D01*
X190516348Y-128951137D01*
X190594191Y-129006140D01*
X190656618Y-129051998D01*
X190720202Y-129045716D01*
X190817960Y-128983722D01*
X190820864Y-128981618D01*
X190939400Y-128906298D01*
X191005895Y-128896112D01*
X191031678Y-128951960D01*
G37*
G36*
X190872693Y-129262271D02*
G01*
X190865014Y-129266990D01*
X190792494Y-129286520D01*
X190696371Y-129286858D01*
X190606887Y-129272291D01*
X190554278Y-129247106D01*
X190557661Y-129223413D01*
X190625886Y-129211495D01*
X190668620Y-129227664D01*
X190769305Y-129253262D01*
X190833159Y-129249166D01*
X190893183Y-129241081D01*
X190872693Y-129262271D01*
G37*
G36*
X187780033Y-128503469D02*
G01*
X187752131Y-128518935D01*
X187736665Y-128491033D01*
X187764567Y-128475567D01*
X187780033Y-128503469D01*
G37*
G36*
X191264238Y-129267844D02*
G01*
X191245800Y-129316427D01*
X191180817Y-129357485D01*
X191088438Y-129371885D01*
X191076814Y-129370955D01*
X190965887Y-129387950D01*
X190907781Y-129416353D01*
X190858629Y-129445126D01*
X190876695Y-129416513D01*
X190877846Y-129415219D01*
X190973425Y-129332586D01*
X191087763Y-129264652D01*
X191088455Y-129264409D01*
X191169093Y-129287532D01*
X191184558Y-129315433D01*
X191212460Y-129299967D01*
X191196994Y-129272066D01*
X191169093Y-129287532D01*
X191088455Y-129264409D01*
X191186278Y-129230216D01*
X191216990Y-129230866D01*
X191264238Y-129267844D01*
G37*
G36*
X188338621Y-128631374D02*
G01*
X188324356Y-128700635D01*
X188311362Y-128713514D01*
X188295360Y-128694928D01*
X188304906Y-128650062D01*
X188328767Y-128606825D01*
X188338621Y-128631374D01*
G37*
G36*
X192017638Y-129765516D02*
G01*
X192047836Y-129816350D01*
X192047836Y-129823879D01*
X192008942Y-129832884D01*
X191998984Y-129830568D01*
X191966843Y-129785271D01*
X191968786Y-129772205D01*
X192002782Y-129753923D01*
X192017638Y-129765516D01*
G37*
G36*
X191460428Y-129506669D02*
G01*
X191471671Y-129536321D01*
X191471250Y-129622506D01*
X191406600Y-129646990D01*
X191327376Y-129627018D01*
X191223468Y-129587689D01*
X191337060Y-129524912D01*
X191421133Y-129487954D01*
X191460428Y-129506669D01*
G37*
G36*
X190617434Y-129410948D02*
G01*
X190589532Y-129426414D01*
X190574066Y-129398512D01*
X190601968Y-129383046D01*
X190617434Y-129410948D01*
G37*
G36*
X187276922Y-128407611D02*
G01*
X187243032Y-128432402D01*
X187198710Y-128449352D01*
X187220269Y-128408506D01*
X187225716Y-128401164D01*
X187275299Y-128357910D01*
X187294942Y-128363129D01*
X187276922Y-128407611D01*
G37*
G36*
X190454514Y-129269008D02*
G01*
X190468508Y-129275607D01*
X190430239Y-129292348D01*
X190337108Y-129328404D01*
X190311069Y-129338180D01*
X190212653Y-129367828D01*
X190189247Y-129354220D01*
X190198732Y-129338262D01*
X190259220Y-129293190D01*
X190283909Y-129291844D01*
X190315417Y-129273941D01*
X190313908Y-129263569D01*
X190339309Y-129241039D01*
X190386170Y-129247415D01*
X190454514Y-129269008D01*
G37*
G36*
X185475168Y-128030294D02*
G01*
X185447266Y-128045760D01*
X185431800Y-128017858D01*
X185459701Y-128002392D01*
X185475168Y-128030294D01*
G37*
G36*
X191998880Y-129940049D02*
G01*
X191985534Y-129964124D01*
X191961678Y-129960671D01*
X191930531Y-129934568D01*
X191941056Y-129923469D01*
X191994012Y-129933037D01*
X191998880Y-129940049D01*
G37*
G36*
X191027374Y-128768596D02*
G01*
X191003908Y-128783282D01*
X190930381Y-128828190D01*
X190866690Y-128885333D01*
X190796653Y-128936110D01*
X190754899Y-128934645D01*
X190699357Y-128926416D01*
X190681999Y-128937802D01*
X190614971Y-128948122D01*
X190570567Y-128929022D01*
X190478198Y-128911930D01*
X190431414Y-128929744D01*
X190356363Y-128953961D01*
X190216988Y-128977188D01*
X190039147Y-128995451D01*
X189976153Y-128999727D01*
X189673700Y-129035623D01*
X189446318Y-129104296D01*
X189393500Y-129130391D01*
X189288579Y-129184371D01*
X189231198Y-129206610D01*
X189228216Y-129200330D01*
X189355147Y-129071035D01*
X189487658Y-128975187D01*
X189599505Y-128931024D01*
X189617204Y-128930002D01*
X189702167Y-128919957D01*
X189731408Y-128899998D01*
X189777321Y-128879841D01*
X189891553Y-128854548D01*
X190052698Y-128828552D01*
X190118119Y-128819871D01*
X190348675Y-128788864D01*
X190499617Y-128762114D01*
X190581220Y-128736021D01*
X190603758Y-128706984D01*
X190577507Y-128671403D01*
X190566674Y-128662697D01*
X190537929Y-128630908D01*
X190584129Y-128632626D01*
X190636072Y-128645187D01*
X190728860Y-128679739D01*
X190744519Y-128720383D01*
X190732914Y-128740057D01*
X190716095Y-128795055D01*
X190759473Y-128810009D01*
X190839363Y-128778128D01*
X190847334Y-128772867D01*
X190942708Y-128740641D01*
X190990369Y-128744200D01*
X191027374Y-128768596D01*
G37*
G36*
X189381154Y-128797478D02*
G01*
X189320357Y-128859195D01*
X189217773Y-128949550D01*
X189083271Y-129062192D01*
X189004349Y-129125049D01*
X188967862Y-129146805D01*
X188960672Y-129136146D01*
X188965365Y-129116356D01*
X189007085Y-129063879D01*
X189096685Y-128982404D01*
X189207306Y-128893494D01*
X189312090Y-128818709D01*
X189384180Y-128779610D01*
X189385203Y-128779311D01*
X189381154Y-128797478D01*
G37*
G36*
X185537032Y-128141900D02*
G01*
X185509130Y-128157367D01*
X185493665Y-128129465D01*
X185521566Y-128113998D01*
X185537032Y-128141900D01*
G37*
G36*
X189753956Y-127896957D02*
G01*
X189784813Y-127944141D01*
X189746088Y-127992362D01*
X189625472Y-128025907D01*
X189579378Y-128032079D01*
X189450171Y-128043444D01*
X189363087Y-128045236D01*
X189345361Y-128042181D01*
X189293237Y-128050684D01*
X189203191Y-128089237D01*
X189107209Y-128129801D01*
X189049914Y-128140131D01*
X188989308Y-128164921D01*
X188905855Y-128251080D01*
X188815725Y-128378617D01*
X188735091Y-128527542D01*
X188733235Y-128531589D01*
X188669310Y-128653989D01*
X188617911Y-128724337D01*
X188589122Y-128736700D01*
X188593029Y-128685141D01*
X188626162Y-128594610D01*
X188662770Y-128501617D01*
X188659850Y-128481995D01*
X188623919Y-128519745D01*
X188567890Y-128611128D01*
X188505241Y-128747877D01*
X188478434Y-128818288D01*
X188428561Y-128938797D01*
X188383926Y-129012029D01*
X188364890Y-129023166D01*
X188354839Y-128980219D01*
X188382284Y-128891285D01*
X188383840Y-128887809D01*
X188414676Y-128798418D01*
X188411150Y-128754886D01*
X188410399Y-128754624D01*
X188405348Y-128714046D01*
X188431618Y-128645078D01*
X188457331Y-128569145D01*
X188418657Y-128539714D01*
X188387874Y-128535629D01*
X188327571Y-128519716D01*
X188323653Y-128471161D01*
X188355343Y-128395530D01*
X188394793Y-128308315D01*
X188389627Y-128293644D01*
X188334041Y-128342610D01*
X188325880Y-128350292D01*
X188257379Y-128397698D01*
X188231617Y-128377290D01*
X188205463Y-128379516D01*
X188138927Y-128440879D01*
X188045854Y-128548396D01*
X188036140Y-128560534D01*
X187933492Y-128684388D01*
X187872300Y-128742042D01*
X187842181Y-128741147D01*
X187833995Y-128709491D01*
X187848095Y-128629739D01*
X187878193Y-128613532D01*
X187921802Y-128575352D01*
X187925494Y-128541549D01*
X187953666Y-128458499D01*
X187986524Y-128426033D01*
X188038062Y-128353889D01*
X188079032Y-128234785D01*
X188084216Y-128209340D01*
X188133905Y-128055821D01*
X188149314Y-128028547D01*
X188438954Y-128111600D01*
X188435626Y-128129976D01*
X188469772Y-128118438D01*
X188578010Y-128054991D01*
X188584665Y-128049363D01*
X188655442Y-128069658D01*
X188685092Y-128068646D01*
X188691323Y-128067013D01*
X188740668Y-128071256D01*
X188729488Y-128111406D01*
X188666542Y-128161615D01*
X188625218Y-128197067D01*
X188632086Y-128208054D01*
X188686969Y-128193353D01*
X188792161Y-128145560D01*
X188870633Y-128104504D01*
X188973685Y-128045108D01*
X189023205Y-128010393D01*
X189017003Y-128006439D01*
X188954124Y-127989465D01*
X188942731Y-127969361D01*
X188961312Y-127932047D01*
X188985308Y-127933871D01*
X189060560Y-127919451D01*
X189121526Y-127879064D01*
X189170474Y-127816821D01*
X189153935Y-127794490D01*
X189087527Y-127800184D01*
X188984230Y-127830864D01*
X188874436Y-127874383D01*
X188788539Y-127918593D01*
X188756931Y-127951345D01*
X188757553Y-127952924D01*
X188739465Y-127998511D01*
X188700683Y-128032948D01*
X188655442Y-128069658D01*
X188584665Y-128049363D01*
X188629280Y-128011642D01*
X188677982Y-127952170D01*
X188664264Y-127943334D01*
X188598273Y-127982148D01*
X188514825Y-128045364D01*
X188438954Y-128111600D01*
X188149314Y-128028547D01*
X188212792Y-127916190D01*
X188218111Y-127909373D01*
X188281534Y-127817524D01*
X188305925Y-127755926D01*
X188304561Y-127749858D01*
X188268841Y-127754508D01*
X188207133Y-127817828D01*
X188134570Y-127918169D01*
X188066285Y-128033885D01*
X188017412Y-128143327D01*
X188008303Y-128173647D01*
X187957509Y-128299235D01*
X187887262Y-128391610D01*
X187882197Y-128395621D01*
X187821875Y-128426730D01*
X187809393Y-128406287D01*
X187803330Y-128348945D01*
X187756158Y-128350837D01*
X187692691Y-128409584D01*
X187686711Y-128418042D01*
X187642651Y-128477947D01*
X187631845Y-128460990D01*
X187637222Y-128392118D01*
X187626835Y-128284732D01*
X187597024Y-128225725D01*
X187574788Y-128142033D01*
X187599020Y-127990463D01*
X187607650Y-127958904D01*
X187635191Y-127833701D01*
X187635355Y-127828379D01*
X187991280Y-127930439D01*
X187996912Y-127970687D01*
X188011902Y-127967641D01*
X188031850Y-127917663D01*
X188028482Y-127909818D01*
X188000993Y-127908378D01*
X187991280Y-127930439D01*
X187635355Y-127828379D01*
X187637734Y-127750369D01*
X187626671Y-127732023D01*
X187593531Y-127764645D01*
X187563814Y-127868497D01*
X187555847Y-127916229D01*
X187515415Y-128077065D01*
X187439270Y-128187543D01*
X187417176Y-128207801D01*
X187335784Y-128264682D01*
X187294501Y-128253755D01*
X187287057Y-128235844D01*
X187264155Y-128210377D01*
X187233754Y-128272304D01*
X187232522Y-128276072D01*
X187206290Y-128346386D01*
X187193472Y-128332603D01*
X187187676Y-128286680D01*
X187176580Y-128223370D01*
X187153779Y-128239359D01*
X187125361Y-128292277D01*
X187109325Y-128305712D01*
X187116061Y-128245220D01*
X187143997Y-128123764D01*
X187147351Y-128110850D01*
X187183288Y-127956195D01*
X187188720Y-127880393D01*
X187163995Y-127877501D01*
X187160919Y-127880071D01*
X187115844Y-127907650D01*
X187115839Y-127876109D01*
X187101344Y-127833069D01*
X187080401Y-127833517D01*
X187036878Y-127882206D01*
X186989703Y-127986649D01*
X186975851Y-128029243D01*
X186919837Y-128161690D01*
X186847958Y-128262905D01*
X186830447Y-128278114D01*
X186769067Y-128313276D01*
X186769246Y-128284030D01*
X186792123Y-128201396D01*
X186810482Y-128073410D01*
X186813493Y-128038583D01*
X186827034Y-127854732D01*
X186754156Y-127972456D01*
X186696863Y-128099364D01*
X186672379Y-128207142D01*
X186663482Y-128324103D01*
X186624326Y-128195542D01*
X186596581Y-128111004D01*
X186584055Y-128107779D01*
X186577532Y-128170455D01*
X186560510Y-128236345D01*
X186537537Y-128238351D01*
X186500755Y-128241948D01*
X186484273Y-128275693D01*
X186454224Y-128316512D01*
X186415108Y-128276186D01*
X186371132Y-128162820D01*
X186326503Y-127984518D01*
X186322157Y-127963384D01*
X186297062Y-127833023D01*
X186451421Y-127877284D01*
X186433675Y-127975803D01*
X186423984Y-128086325D01*
X186424828Y-128177470D01*
X186438688Y-128217863D01*
X186443546Y-128216927D01*
X186461232Y-128169371D01*
X186482355Y-128061781D01*
X186492411Y-127993017D01*
X186500100Y-127879160D01*
X186489159Y-127821447D01*
X186474745Y-127822143D01*
X186451421Y-127877284D01*
X186297062Y-127833023D01*
X186290811Y-127800555D01*
X186279350Y-127712309D01*
X186287652Y-127685248D01*
X186315594Y-127705970D01*
X186319841Y-127710568D01*
X186387220Y-127731156D01*
X186461533Y-127697439D01*
X186500928Y-127631013D01*
X186501063Y-127617030D01*
X186520120Y-127564344D01*
X186543068Y-127562105D01*
X186571654Y-127609562D01*
X186566206Y-127662607D01*
X186561337Y-127742299D01*
X186603348Y-127756478D01*
X186679733Y-127707565D01*
X186688885Y-127697785D01*
X186826412Y-127737220D01*
X186832043Y-127777466D01*
X186847033Y-127774422D01*
X186866982Y-127724443D01*
X186863614Y-127716598D01*
X186836125Y-127715159D01*
X186826412Y-127737220D01*
X186688885Y-127697785D01*
X186756245Y-127625803D01*
X186878585Y-127511121D01*
X186988984Y-127480224D01*
X187075745Y-127528130D01*
X187092174Y-127601408D01*
X187076433Y-127636024D01*
X187065821Y-127707587D01*
X187087746Y-127736398D01*
X187128138Y-127743571D01*
X187164757Y-127687191D01*
X187171109Y-127667881D01*
X187264706Y-127694720D01*
X187256550Y-127753255D01*
X187271162Y-127758171D01*
X187298159Y-127703097D01*
X187298420Y-127676032D01*
X187283874Y-127654083D01*
X187264706Y-127694720D01*
X187171109Y-127667881D01*
X187200103Y-127579745D01*
X187239918Y-127460224D01*
X187274739Y-127414086D01*
X187316378Y-127426059D01*
X187318053Y-127427305D01*
X187379810Y-127469834D01*
X187395879Y-127478110D01*
X187388459Y-127511441D01*
X187369039Y-127540814D01*
X187354976Y-127597057D01*
X187373431Y-127612473D01*
X187413418Y-127597828D01*
X188035989Y-127776347D01*
X188067981Y-127811599D01*
X188070428Y-127812334D01*
X188130954Y-127792997D01*
X188186259Y-127748128D01*
X188232263Y-127693439D01*
X188203815Y-127685143D01*
X188156415Y-127694288D01*
X188070844Y-127729862D01*
X188035989Y-127776347D01*
X187413418Y-127597828D01*
X187424636Y-127593720D01*
X187438431Y-127534475D01*
X187577146Y-127574251D01*
X187595964Y-127627441D01*
X187607345Y-127632614D01*
X187653828Y-127629929D01*
X187656196Y-127625925D01*
X187636424Y-127580184D01*
X187625998Y-127567562D01*
X187585049Y-127559541D01*
X187577146Y-127574251D01*
X187438431Y-127534475D01*
X187440875Y-127523979D01*
X187420143Y-127452817D01*
X187417425Y-127434299D01*
X188480081Y-127739010D01*
X188485204Y-127743535D01*
X188533534Y-127724353D01*
X188546125Y-127714070D01*
X188568803Y-127676695D01*
X188563681Y-127672170D01*
X188515349Y-127691352D01*
X188502758Y-127701635D01*
X188480081Y-127739010D01*
X187417425Y-127434299D01*
X187411461Y-127393676D01*
X187442017Y-127376533D01*
X187486221Y-127384096D01*
X187486837Y-127398167D01*
X187517806Y-127433916D01*
X187607730Y-127472878D01*
X187624932Y-127478082D01*
X187749065Y-127494324D01*
X187788905Y-127473474D01*
X188096982Y-127561814D01*
X188112448Y-127589716D01*
X188140350Y-127574249D01*
X188137772Y-127569598D01*
X188361649Y-127633794D01*
X188353493Y-127692329D01*
X188368104Y-127697246D01*
X188395101Y-127642171D01*
X188395363Y-127615106D01*
X188380817Y-127593157D01*
X188361649Y-127633794D01*
X188137772Y-127569598D01*
X188124884Y-127546347D01*
X188096982Y-127561814D01*
X187788905Y-127473474D01*
X187833077Y-127450357D01*
X187844530Y-127437812D01*
X187887570Y-127397327D01*
X187940308Y-127383885D01*
X188025046Y-127399219D01*
X188164086Y-127445057D01*
X188226486Y-127467463D01*
X188394476Y-127527323D01*
X188540090Y-127577581D01*
X188632746Y-127607686D01*
X188634813Y-127608292D01*
X188697782Y-127640639D01*
X188699644Y-127665965D01*
X188694582Y-127719426D01*
X188709062Y-127741333D01*
X188738159Y-127755998D01*
X188735757Y-127733683D01*
X188756867Y-127688997D01*
X188823447Y-127672305D01*
X188893025Y-127691413D01*
X188905693Y-127702458D01*
X188943518Y-127711236D01*
X188948783Y-127701092D01*
X188994742Y-127684955D01*
X189093953Y-127693320D01*
X189114129Y-127697331D01*
X189212916Y-127730446D01*
X189256329Y-127768959D01*
X189256022Y-127775359D01*
X189281545Y-127818945D01*
X189357394Y-127851651D01*
X189443670Y-127861789D01*
X189494155Y-127845112D01*
X189567216Y-127828055D01*
X189667713Y-127850070D01*
X189753956Y-127896957D01*
G37*
G36*
X186588668Y-128401405D02*
G01*
X186592774Y-128408646D01*
X186610725Y-128475330D01*
X186600086Y-128494901D01*
X186571558Y-128472636D01*
X186561535Y-128425963D01*
X186562860Y-128371511D01*
X186588668Y-128401405D01*
G37*
G36*
X188938214Y-129211041D02*
G01*
X188910312Y-129226506D01*
X188894846Y-129198605D01*
X188922748Y-129183139D01*
X188938214Y-129211041D01*
G37*
G36*
X187297481Y-128661367D02*
G01*
X187283217Y-128730628D01*
X187270223Y-128743508D01*
X187254221Y-128724922D01*
X187263767Y-128680056D01*
X187287627Y-128636818D01*
X187297481Y-128661367D01*
G37*
G36*
X188791907Y-128989757D02*
G01*
X188739885Y-129069269D01*
X188738299Y-129071582D01*
X188665005Y-129166976D01*
X188627715Y-129189631D01*
X188630951Y-129136957D01*
X188632263Y-129132281D01*
X188678966Y-129062544D01*
X188737134Y-129009818D01*
X188791053Y-128973279D01*
X188791907Y-128989757D01*
G37*
G36*
X185345886Y-128091550D02*
G01*
X185388879Y-128164618D01*
X185409015Y-128229380D01*
X185402763Y-128246722D01*
X185366967Y-128222201D01*
X185323388Y-128151327D01*
X185294355Y-128075204D01*
X185301103Y-128050782D01*
X185345886Y-128091550D01*
G37*
G36*
X191298570Y-129981729D02*
G01*
X191270668Y-129997195D01*
X191255201Y-129969294D01*
X191283103Y-129953827D01*
X191298570Y-129981729D01*
G37*
G36*
X189390388Y-129434567D02*
G01*
X189362487Y-129450032D01*
X189347020Y-129422131D01*
X189374922Y-129406665D01*
X189390388Y-129434567D01*
G37*
G36*
X188541328Y-129118993D02*
G01*
X188538647Y-129128897D01*
X188494064Y-129200975D01*
X188467230Y-129216789D01*
X188426612Y-129208253D01*
X188426901Y-129196261D01*
X188466836Y-129139234D01*
X188498319Y-129108369D01*
X188543653Y-129077386D01*
X188541328Y-129118993D01*
G37*
G36*
X186692713Y-128621973D02*
G01*
X186675413Y-128653622D01*
X186622913Y-128704630D01*
X186603216Y-128687915D01*
X186607900Y-128662938D01*
X186656260Y-128613161D01*
X186670071Y-128607927D01*
X186692713Y-128621973D01*
G37*
G36*
X191880847Y-130242562D02*
G01*
X191852945Y-130258027D01*
X191837480Y-130230126D01*
X191865381Y-130214660D01*
X191880847Y-130242562D01*
G37*
G36*
X189495620Y-129558609D02*
G01*
X189467719Y-129574074D01*
X189452253Y-129546174D01*
X189480154Y-129530707D01*
X189495620Y-129558609D01*
G37*
G36*
X189003019Y-129263108D02*
G01*
X188987836Y-129309246D01*
X188953353Y-129399222D01*
X188933363Y-129413994D01*
X188916487Y-129369450D01*
X188932996Y-129299022D01*
X188965292Y-129256253D01*
X189005243Y-129225435D01*
X189003019Y-129263108D01*
G37*
G36*
X187327233Y-128936834D02*
G01*
X187299331Y-128952299D01*
X187283865Y-128924398D01*
X187311767Y-128908932D01*
X187327233Y-128936834D01*
G37*
G36*
X192041883Y-130335671D02*
G01*
X192013981Y-130351138D01*
X191998515Y-130323236D01*
X192026416Y-130307769D01*
X192041883Y-130335671D01*
G37*
G36*
X187748475Y-129104556D02*
G01*
X187720573Y-129120023D01*
X187705107Y-129092121D01*
X187733008Y-129076654D01*
X187748475Y-129104556D01*
G37*
G36*
X186577546Y-128768798D02*
G01*
X186549644Y-128784264D01*
X186534177Y-128756362D01*
X186562079Y-128740896D01*
X186577546Y-128768798D01*
G37*
G36*
X186447442Y-128731491D02*
G01*
X186419541Y-128746958D01*
X186404074Y-128719056D01*
X186431976Y-128703589D01*
X186447442Y-128731491D01*
G37*
G36*
X185927029Y-128582265D02*
G01*
X185899127Y-128597731D01*
X185883662Y-128569830D01*
X185911563Y-128554363D01*
X185927029Y-128582265D01*
G37*
G36*
X191659301Y-129997986D02*
G01*
X191659537Y-129998413D01*
X191725778Y-130071768D01*
X191763614Y-130091611D01*
X191799076Y-130116642D01*
X191762898Y-130166044D01*
X191750841Y-130177133D01*
X191673529Y-130216729D01*
X191628634Y-130209292D01*
X191558785Y-130200226D01*
X191539611Y-130211914D01*
X191462950Y-130238471D01*
X191409848Y-130193447D01*
X191422398Y-130158037D01*
X191478102Y-130174010D01*
X191493568Y-130201912D01*
X191521469Y-130186445D01*
X191506004Y-130158543D01*
X191478102Y-130174010D01*
X191422398Y-130158037D01*
X191427098Y-130144776D01*
X191483798Y-130097318D01*
X191497241Y-130085630D01*
X191589709Y-130112145D01*
X191605175Y-130140047D01*
X191633076Y-130124580D01*
X191617610Y-130096679D01*
X191589709Y-130112145D01*
X191497241Y-130085630D01*
X191541569Y-130047093D01*
X191526638Y-130023660D01*
X191502880Y-130000423D01*
X191546311Y-129965946D01*
X191612168Y-129944943D01*
X191659301Y-129997986D01*
G37*
G36*
X191279812Y-130156262D02*
G01*
X191266466Y-130180337D01*
X191242610Y-130176884D01*
X191211464Y-130150780D01*
X191221989Y-130139681D01*
X191274944Y-130149249D01*
X191279812Y-130156262D01*
G37*
G36*
X187289978Y-129012196D02*
G01*
X187280410Y-129065152D01*
X187273398Y-129070019D01*
X187249323Y-129056673D01*
X187252776Y-129032817D01*
X187278880Y-129001671D01*
X187289978Y-129012196D01*
G37*
G36*
X191610522Y-130311298D02*
G01*
X191598800Y-130325954D01*
X191529379Y-130351229D01*
X191516195Y-130349200D01*
X191500344Y-130315738D01*
X191512064Y-130301083D01*
X191581486Y-130275807D01*
X191594671Y-130277836D01*
X191610522Y-130311298D01*
G37*
G36*
X185787301Y-128496242D02*
G01*
X185799361Y-128535692D01*
X185806307Y-128630625D01*
X185790436Y-128673933D01*
X185762827Y-128695951D01*
X185765134Y-128668748D01*
X185773634Y-128581253D01*
X185774059Y-128530507D01*
X185774643Y-128471301D01*
X185787301Y-128496242D01*
G37*
G36*
X185586867Y-128497236D02*
G01*
X185604802Y-128560268D01*
X185613492Y-128635325D01*
X185604666Y-128654096D01*
X185579368Y-128610865D01*
X185561433Y-128547832D01*
X185552743Y-128472775D01*
X185561569Y-128454004D01*
X185586867Y-128497236D01*
G37*
G36*
X185083142Y-127965278D02*
G01*
X185149930Y-128028829D01*
X185221852Y-128128714D01*
X185286222Y-128241189D01*
X185330350Y-128342505D01*
X185341552Y-128408920D01*
X185327233Y-128422135D01*
X185283260Y-128460280D01*
X185279598Y-128493517D01*
X185278814Y-128548003D01*
X185258180Y-128534186D01*
X185212970Y-128445937D01*
X185177796Y-128367426D01*
X185233145Y-128383297D01*
X185248611Y-128411199D01*
X185276512Y-128395732D01*
X185261047Y-128367831D01*
X185233145Y-128383297D01*
X185177796Y-128367426D01*
X185171393Y-128353137D01*
X185126226Y-128240641D01*
X185122134Y-128197368D01*
X185158349Y-128212597D01*
X185161468Y-128214898D01*
X185212751Y-128249632D01*
X185214418Y-128228641D01*
X185181839Y-128159404D01*
X185113095Y-128067496D01*
X185047048Y-128024867D01*
X184986301Y-127984922D01*
X184980307Y-127955632D01*
X185022689Y-127938933D01*
X185083142Y-127965278D01*
G37*
G36*
X185092105Y-128125626D02*
G01*
X185080176Y-128169605D01*
X185060701Y-128169582D01*
X185044838Y-128193438D01*
X185071139Y-128269890D01*
X185074292Y-128276196D01*
X185113493Y-128373532D01*
X185122998Y-128439940D01*
X185101872Y-128453766D01*
X185081219Y-128436077D01*
X185031873Y-128431593D01*
X185016127Y-128447531D01*
X184983213Y-128468908D01*
X184965462Y-128430173D01*
X184967583Y-128361920D01*
X184980260Y-128347179D01*
X184993671Y-128297078D01*
X184982886Y-128259645D01*
X184986080Y-128166443D01*
X185014199Y-128129211D01*
X185071010Y-128097727D01*
X185092105Y-128125626D01*
G37*
G36*
X189433443Y-129775448D02*
G01*
X189405541Y-129790914D01*
X189390076Y-129763012D01*
X189417977Y-129747546D01*
X189433443Y-129775448D01*
G37*
G36*
X189129921Y-129633658D02*
G01*
X189120353Y-129686614D01*
X189113341Y-129691482D01*
X189089265Y-129678136D01*
X189092719Y-129654280D01*
X189118823Y-129623133D01*
X189129921Y-129633658D01*
G37*
G36*
X187742101Y-129290463D02*
G01*
X187714199Y-129305929D01*
X187698733Y-129278027D01*
X187726635Y-129262561D01*
X187742101Y-129290463D01*
G37*
G36*
X187252620Y-129197040D02*
G01*
X187224718Y-129212506D01*
X187209252Y-129184604D01*
X187237154Y-129169139D01*
X187252620Y-129197040D01*
G37*
G36*
X187165885Y-129172169D02*
G01*
X187137983Y-129187635D01*
X187122516Y-129159733D01*
X187150418Y-129144268D01*
X187165885Y-129172169D01*
G37*
G36*
X185301071Y-128637442D02*
G01*
X185273169Y-128652908D01*
X185257703Y-128625007D01*
X185285604Y-128609541D01*
X185301071Y-128637442D01*
G37*
G36*
X185084232Y-128575265D02*
G01*
X185056330Y-128590731D01*
X185040864Y-128562829D01*
X185068765Y-128547364D01*
X185084232Y-128575265D01*
G37*
G36*
X189218590Y-129647996D02*
G01*
X189218598Y-129656068D01*
X189197858Y-129752357D01*
X189179684Y-129785710D01*
X189165034Y-129783069D01*
X189178687Y-129713512D01*
X189181691Y-129703259D01*
X189207231Y-129637791D01*
X189218590Y-129647996D01*
G37*
G36*
X187943039Y-129161756D02*
G01*
X187955498Y-129200469D01*
X187957802Y-129314622D01*
X187936330Y-129382707D01*
X187905986Y-129428073D01*
X187902232Y-129406780D01*
X187914444Y-129310275D01*
X187921400Y-129224542D01*
X187929156Y-129150676D01*
X187943039Y-129161756D01*
G37*
G36*
X187444639Y-129291212D02*
G01*
X187435072Y-129344168D01*
X187428059Y-129349035D01*
X187403984Y-129335689D01*
X187407437Y-129311833D01*
X187433541Y-129280687D01*
X187444639Y-129291212D01*
G37*
G36*
X186131119Y-129016256D02*
G01*
X186103217Y-129031721D01*
X186087752Y-129003821D01*
X186115653Y-128988354D01*
X186131119Y-129016256D01*
G37*
G36*
X185177028Y-128742675D02*
G01*
X185149128Y-128758140D01*
X185133661Y-128730239D01*
X185161563Y-128714773D01*
X185177028Y-128742675D01*
G37*
G36*
X191735185Y-130483785D02*
G01*
X191766684Y-130544726D01*
X191765591Y-130615431D01*
X191758933Y-130630659D01*
X191710999Y-130625046D01*
X191597989Y-130604262D01*
X191442940Y-130572588D01*
X191419005Y-130567489D01*
X191266037Y-130530572D01*
X191174972Y-130499740D01*
X191158323Y-130479394D01*
X191163220Y-130477459D01*
X191255718Y-130474052D01*
X191363151Y-130493050D01*
X191446917Y-130507811D01*
X191449861Y-130494447D01*
X191521156Y-130514890D01*
X191536623Y-130542792D01*
X191564525Y-130527326D01*
X191549058Y-130499424D01*
X191521156Y-130514890D01*
X191449861Y-130494447D01*
X191452330Y-130483240D01*
X191445487Y-130474874D01*
X191432032Y-130442401D01*
X191663696Y-130508830D01*
X191679161Y-130536730D01*
X191707063Y-130521265D01*
X191691597Y-130493363D01*
X191663696Y-130508830D01*
X191432032Y-130442401D01*
X191424804Y-130424959D01*
X191484948Y-130411852D01*
X191621300Y-130434103D01*
X191735185Y-130483785D01*
G37*
G36*
X184969760Y-128693926D02*
G01*
X184975656Y-128708398D01*
X184979735Y-128751781D01*
X184942917Y-128725325D01*
X184910605Y-128689745D01*
X184887247Y-128645371D01*
X184909448Y-128643199D01*
X184969760Y-128693926D01*
G37*
G36*
X191397114Y-130620122D02*
G01*
X191369213Y-130635589D01*
X191353747Y-130607687D01*
X191381649Y-130592221D01*
X191397114Y-130620122D01*
G37*
G36*
X186178510Y-128615368D02*
G01*
X186148640Y-128723376D01*
X186129793Y-128776877D01*
X186071137Y-128917392D01*
X186014397Y-129021459D01*
X185981229Y-129059219D01*
X185959370Y-129046500D01*
X185981450Y-128958569D01*
X186018363Y-128862995D01*
X186087639Y-128708958D01*
X186141657Y-128613069D01*
X186174064Y-128580236D01*
X186178510Y-128615368D01*
G37*
G36*
X191849341Y-130788908D02*
G01*
X191835995Y-130812983D01*
X191812139Y-130809530D01*
X191780992Y-130783426D01*
X191791517Y-130772327D01*
X191844474Y-130781895D01*
X191849341Y-130788908D01*
G37*
G36*
X191719238Y-130751602D02*
G01*
X191705892Y-130775677D01*
X191682036Y-130772223D01*
X191650889Y-130746120D01*
X191661414Y-130735021D01*
X191714370Y-130744588D01*
X191719238Y-130751602D01*
G37*
G36*
X191601518Y-130725668D02*
G01*
X191573616Y-130741134D01*
X191558150Y-130713232D01*
X191586052Y-130697766D01*
X191601518Y-130725668D01*
G37*
G36*
X186051882Y-127781192D02*
G01*
X186122529Y-127831118D01*
X186137029Y-127861432D01*
X186124126Y-127918522D01*
X186096703Y-128032177D01*
X186077715Y-128109204D01*
X186050901Y-128241539D01*
X186042851Y-128336017D01*
X186048016Y-128360874D01*
X186059922Y-128443813D01*
X186027709Y-128595910D01*
X185998140Y-128687560D01*
X185956178Y-128766831D01*
X185912732Y-128760628D01*
X185911466Y-128759297D01*
X185885244Y-128741991D01*
X185903650Y-128798382D01*
X185913374Y-128902882D01*
X185887436Y-129002210D01*
X185853758Y-129068284D01*
X185849138Y-129052038D01*
X185854914Y-129021959D01*
X185856608Y-128943231D01*
X185836766Y-128882122D01*
X185808654Y-128864722D01*
X185790395Y-128895088D01*
X185755959Y-128916397D01*
X185742209Y-128905875D01*
X185751199Y-128854544D01*
X185815705Y-128765064D01*
X185869456Y-128707626D01*
X185977014Y-128598101D01*
X186026045Y-128534556D01*
X186022895Y-128500260D01*
X185973911Y-128478476D01*
X185958118Y-128473845D01*
X185894914Y-128428780D01*
X185888513Y-128389233D01*
X185879928Y-128303784D01*
X185858037Y-128259729D01*
X185830232Y-128178224D01*
X185837064Y-128142368D01*
X185845141Y-128115187D01*
X185836013Y-128122323D01*
X185786410Y-128121571D01*
X185770181Y-128107928D01*
X185744890Y-128099182D01*
X185748620Y-128124920D01*
X185741362Y-128171284D01*
X185725295Y-128172417D01*
X185690528Y-128202345D01*
X185666047Y-128284496D01*
X185651808Y-128368483D01*
X185644873Y-128364352D01*
X185639564Y-128288634D01*
X185645646Y-128149409D01*
X185673808Y-128013268D01*
X185715509Y-127911549D01*
X185751954Y-127876260D01*
X185792904Y-127826680D01*
X185795146Y-127798065D01*
X185827214Y-127740362D01*
X185868316Y-127726723D01*
X185955051Y-127740331D01*
X186051882Y-127781192D01*
G37*
G36*
X191979392Y-130880955D02*
G01*
X191951491Y-130896421D01*
X191936024Y-130868519D01*
X191963926Y-130853054D01*
X191979392Y-130880955D01*
G37*
G36*
X189299126Y-130078313D02*
G01*
X189296809Y-130088270D01*
X189251512Y-130120411D01*
X189238447Y-130118468D01*
X189220164Y-130084473D01*
X189231758Y-130069617D01*
X189282592Y-130039419D01*
X189290121Y-130039418D01*
X189299126Y-130078313D01*
G37*
G36*
X189017855Y-129583789D02*
G01*
X189018588Y-129586090D01*
X189015147Y-129665121D01*
X188984663Y-129786510D01*
X188939124Y-129915025D01*
X188890521Y-130015439D01*
X188860548Y-130050455D01*
X188858362Y-130019000D01*
X188878305Y-129922452D01*
X188914574Y-129787020D01*
X188962476Y-129637239D01*
X188996049Y-129571144D01*
X189017855Y-129583789D01*
G37*
G36*
X184842210Y-128928268D02*
G01*
X184814308Y-128943734D01*
X184798841Y-128915832D01*
X184826743Y-128900367D01*
X184842210Y-128928268D01*
G37*
G36*
X191541326Y-130891253D02*
G01*
X191522740Y-130907256D01*
X191477874Y-130897710D01*
X191434636Y-130873849D01*
X191459186Y-130863995D01*
X191528447Y-130878260D01*
X191541326Y-130891253D01*
G37*
G36*
X187034936Y-129494794D02*
G01*
X187034635Y-129498269D01*
X187018588Y-129594222D01*
X186999178Y-129614434D01*
X186983868Y-129552331D01*
X186983051Y-129543693D01*
X186998046Y-129449031D01*
X187011433Y-129422764D01*
X187032287Y-129423509D01*
X187034936Y-129494794D01*
G37*
G36*
X185877842Y-129192964D02*
G01*
X185863577Y-129262225D01*
X185850583Y-129275104D01*
X185834581Y-129256518D01*
X185844128Y-129211653D01*
X185867988Y-129168415D01*
X185877842Y-129192964D01*
G37*
G36*
X189717895Y-130420215D02*
G01*
X189689993Y-130435682D01*
X189674527Y-130407780D01*
X189702429Y-130392313D01*
X189717895Y-130420215D01*
G37*
G36*
X188850591Y-130116765D02*
G01*
X188841024Y-130169720D01*
X188834011Y-130174588D01*
X188809936Y-130161242D01*
X188813389Y-130137386D01*
X188839493Y-130106239D01*
X188850591Y-130116765D01*
G37*
G36*
X185727937Y-129065951D02*
G01*
X185744136Y-129145135D01*
X185745704Y-129161843D01*
X185748729Y-129270879D01*
X185736441Y-129298224D01*
X185713313Y-129240337D01*
X185702749Y-129195889D01*
X185695588Y-129099494D01*
X185707168Y-129054324D01*
X185727937Y-129065951D01*
G37*
G36*
X184823399Y-129157543D02*
G01*
X184795498Y-129173008D01*
X184780032Y-129145107D01*
X184807933Y-129129641D01*
X184823399Y-129157543D01*
G37*
G36*
X184668426Y-129206971D02*
G01*
X184640524Y-129222437D01*
X184625057Y-129194535D01*
X184652959Y-129179070D01*
X184668426Y-129206971D01*
G37*
G36*
X191508095Y-131215149D02*
G01*
X191480193Y-131230615D01*
X191464728Y-131202713D01*
X191492629Y-131187247D01*
X191508095Y-131215149D01*
G37*
G36*
X184786093Y-129287646D02*
G01*
X184758191Y-129303112D01*
X184742725Y-129275210D01*
X184770626Y-129259744D01*
X184786093Y-129287646D01*
G37*
G36*
X184686922Y-129306142D02*
G01*
X184659020Y-129321608D01*
X184643554Y-129293707D01*
X184671455Y-129278241D01*
X184686922Y-129306142D01*
G37*
G36*
X184587751Y-129324639D02*
G01*
X184559849Y-129340106D01*
X184544383Y-129312204D01*
X184572284Y-129296737D01*
X184587751Y-129324639D01*
G37*
G36*
X191253950Y-131283074D02*
G01*
X191226048Y-131298541D01*
X191210582Y-131270639D01*
X191238483Y-131255173D01*
X191253950Y-131283074D01*
G37*
G36*
X190993743Y-131208461D02*
G01*
X190965841Y-131223927D01*
X190950376Y-131196026D01*
X190978277Y-131180560D01*
X190993743Y-131208461D01*
G37*
G36*
X191129908Y-131388307D02*
G01*
X191102006Y-131403772D01*
X191086540Y-131375872D01*
X191114441Y-131360405D01*
X191129908Y-131388307D01*
G37*
G36*
X191204208Y-131456545D02*
G01*
X191176306Y-131472012D01*
X191160840Y-131444110D01*
X191188742Y-131428643D01*
X191204208Y-131456545D01*
G37*
G36*
X191025223Y-131400741D02*
G01*
X191059260Y-131457757D01*
X191042510Y-131480123D01*
X191036326Y-131478806D01*
X191008478Y-131437486D01*
X191000615Y-131414381D01*
X191004014Y-131383240D01*
X191025223Y-131400741D01*
G37*
G36*
X191327739Y-131540240D02*
G01*
X191359026Y-131571339D01*
X191383885Y-131615656D01*
X191368654Y-131619596D01*
X191303577Y-131577568D01*
X191272290Y-131546468D01*
X191247431Y-131502151D01*
X191262661Y-131498211D01*
X191327739Y-131540240D01*
G37*
G36*
X190222786Y-130753104D02*
G01*
X190201854Y-130814873D01*
X190176008Y-130887897D01*
X190183791Y-130915294D01*
X190202865Y-130971819D01*
X190207163Y-131065047D01*
X190191155Y-131157337D01*
X190147314Y-131176640D01*
X190139920Y-131174833D01*
X190064155Y-131186300D01*
X190045402Y-131204024D01*
X190016247Y-131212500D01*
X190005999Y-131169258D01*
X190022517Y-131067184D01*
X190042467Y-131029554D01*
X190055075Y-130972977D01*
X190034977Y-130957007D01*
X189962638Y-130897701D01*
X189916474Y-130796281D01*
X189915035Y-130714765D01*
X189956892Y-130661051D01*
X190003728Y-130680826D01*
X190018417Y-130729324D01*
X190038068Y-130770089D01*
X190095756Y-130751500D01*
X190187273Y-130723316D01*
X190222786Y-130753104D01*
G37*
G36*
X184237510Y-129512661D02*
G01*
X184225030Y-129525699D01*
X184172292Y-129555398D01*
X184164107Y-129555163D01*
X184169181Y-129526302D01*
X184181662Y-129513263D01*
X184234400Y-129483564D01*
X184242584Y-129483799D01*
X184237510Y-129512661D01*
G37*
G36*
X191470476Y-131673697D02*
G01*
X191442574Y-131689163D01*
X191427108Y-131661261D01*
X191455009Y-131645796D01*
X191470476Y-131673697D01*
G37*
G36*
X190157060Y-131289259D02*
G01*
X190143714Y-131313334D01*
X190119857Y-131309880D01*
X190088711Y-131283777D01*
X190099236Y-131272678D01*
X190152192Y-131282247D01*
X190157060Y-131289259D01*
G37*
G36*
X191055295Y-131648513D02*
G01*
X191027393Y-131663979D01*
X191011928Y-131636078D01*
X191039828Y-131620612D01*
X191055295Y-131648513D01*
G37*
G36*
X184695384Y-129481225D02*
G01*
X184603818Y-129547085D01*
X184555747Y-129600451D01*
X184554899Y-129602886D01*
X184506607Y-129637322D01*
X184402070Y-129668973D01*
X184368244Y-129675406D01*
X184210104Y-129693873D01*
X184130631Y-129682006D01*
X184119859Y-129648076D01*
X184164775Y-129615419D01*
X184266446Y-129571505D01*
X184316725Y-129553852D01*
X184419431Y-129511163D01*
X184464546Y-129473998D01*
X184460082Y-129461980D01*
X184426793Y-129403438D01*
X184428433Y-129389216D01*
X184468875Y-129375636D01*
X184518023Y-129397950D01*
X184620852Y-129429284D01*
X184709403Y-129426153D01*
X184823431Y-129402947D01*
X184695384Y-129481225D01*
G37*
G36*
X190912756Y-131654575D02*
G01*
X190884854Y-131670041D01*
X190869388Y-131642139D01*
X190897290Y-131626673D01*
X190912756Y-131654575D01*
G37*
G36*
X190931253Y-131753746D02*
G01*
X190903351Y-131769211D01*
X190887885Y-131741310D01*
X190915786Y-131725844D01*
X190931253Y-131753746D01*
G37*
G36*
X184847332Y-130056143D02*
G01*
X184819430Y-130071609D01*
X184803963Y-130043707D01*
X184831865Y-130028241D01*
X184847332Y-130056143D01*
G37*
G36*
X190949750Y-131852917D02*
G01*
X190921848Y-131868382D01*
X190906382Y-131840481D01*
X190934283Y-131825015D01*
X190949750Y-131852917D01*
G37*
G36*
X191100478Y-131815439D02*
G01*
X191136508Y-131923999D01*
X191131643Y-132007079D01*
X191104360Y-132014380D01*
X191077269Y-131937546D01*
X191066663Y-131881410D01*
X191035497Y-131689770D01*
X191100478Y-131815439D01*
G37*
G36*
X190955863Y-131940714D02*
G01*
X190946295Y-131993670D01*
X190939283Y-131998538D01*
X190915207Y-131985192D01*
X190918661Y-131961336D01*
X190944765Y-131930189D01*
X190955863Y-131940714D01*
G37*
G36*
X190695657Y-131866101D02*
G01*
X190686088Y-131919057D01*
X190679076Y-131923925D01*
X190655001Y-131910579D01*
X190658454Y-131886723D01*
X190684558Y-131855576D01*
X190695657Y-131866101D01*
G37*
G36*
X190091267Y-131499576D02*
G01*
X190083055Y-131559188D01*
X190036699Y-131645627D01*
X189984461Y-131715734D01*
X189965477Y-131711937D01*
X189964074Y-131656397D01*
X189984659Y-131568055D01*
X190028332Y-131501997D01*
X190074373Y-131483768D01*
X190091267Y-131499576D01*
G37*
G36*
X184595237Y-129802523D02*
G01*
X184548673Y-129855798D01*
X184459796Y-129926869D01*
X184377416Y-129980753D01*
X184269675Y-130039657D01*
X184203903Y-130063767D01*
X184193432Y-130056374D01*
X184225868Y-130005465D01*
X184289322Y-129931736D01*
X184362316Y-129856956D01*
X184423372Y-129802889D01*
X184451012Y-129791303D01*
X184450729Y-129795631D01*
X184476308Y-129812079D01*
X184522229Y-129798654D01*
X184589689Y-129779368D01*
X184595237Y-129802523D01*
G37*
G36*
X190485882Y-131778572D02*
G01*
X190466149Y-131869003D01*
X190454793Y-131886991D01*
X190437402Y-131887900D01*
X190448463Y-131826509D01*
X190472932Y-131766897D01*
X190485882Y-131778572D01*
G37*
G36*
X184153186Y-130130879D02*
G01*
X184143618Y-130183835D01*
X184136606Y-130188703D01*
X184112531Y-130175357D01*
X184115984Y-130151501D01*
X184142088Y-130120354D01*
X184153186Y-130130879D01*
G37*
G36*
X191209643Y-132255975D02*
G01*
X191181741Y-132271441D01*
X191166275Y-132243540D01*
X191194176Y-132228073D01*
X191209643Y-132255975D01*
G37*
G36*
X191048812Y-132118407D02*
G01*
X191065805Y-132166331D01*
X191081810Y-132252835D01*
X191065500Y-132284895D01*
X191063412Y-132284444D01*
X191021590Y-132235720D01*
X190998099Y-132167829D01*
X190989080Y-132072510D01*
X191010657Y-132055933D01*
X191048812Y-132118407D01*
G37*
G36*
X190251652Y-131994121D02*
G01*
X190249334Y-132004078D01*
X190204038Y-132036219D01*
X190190972Y-132034276D01*
X190172690Y-132000281D01*
X190184283Y-131985425D01*
X190235117Y-131955227D01*
X190242646Y-131955226D01*
X190251652Y-131994121D01*
G37*
G36*
X190094081Y-131853948D02*
G01*
X190084777Y-131894336D01*
X190027832Y-131956241D01*
X189973092Y-131958023D01*
X189952115Y-131903905D01*
X189957159Y-131877276D01*
X190006087Y-131810623D01*
X190051298Y-131806491D01*
X190094081Y-131853948D01*
G37*
G36*
X190261614Y-132124933D02*
G01*
X190233712Y-132140399D01*
X190218246Y-132112497D01*
X190246148Y-132097031D01*
X190261614Y-132124933D01*
G37*
G36*
X191159901Y-132429446D02*
G01*
X191131999Y-132444912D01*
X191116533Y-132417011D01*
X191144434Y-132401544D01*
X191159901Y-132429446D01*
G37*
G36*
X190853737Y-132172288D02*
G01*
X190887415Y-132233978D01*
X190927803Y-132346105D01*
X190930178Y-132415618D01*
X190905184Y-132426808D01*
X190878089Y-132385167D01*
X190846087Y-132305551D01*
X190817689Y-132196657D01*
X190822221Y-132148804D01*
X190853737Y-132172288D01*
G37*
G36*
X190553938Y-132038178D02*
G01*
X190526886Y-132127932D01*
X190522587Y-132140888D01*
X190480056Y-132257287D01*
X190454752Y-132292274D01*
X190441217Y-132251771D01*
X190439109Y-132231431D01*
X190460386Y-132149353D01*
X190504796Y-132074266D01*
X190547377Y-132023293D01*
X190553938Y-132038178D01*
G37*
G36*
X190638164Y-132025616D02*
G01*
X190651118Y-132082560D01*
X190664774Y-132191008D01*
X190676715Y-132321311D01*
X190684528Y-132443816D01*
X190685793Y-132528873D01*
X190680908Y-132550232D01*
X190664473Y-132506574D01*
X190643263Y-132400885D01*
X190630663Y-132318657D01*
X190614564Y-132167612D01*
X190612158Y-132060216D01*
X190623012Y-132013422D01*
X190638164Y-132025616D01*
G37*
G36*
X190713475Y-132676904D02*
G01*
X190685573Y-132692370D01*
X190670107Y-132664468D01*
X190698009Y-132649003D01*
X190713475Y-132676904D01*
G37*
G36*
X183904737Y-130724529D02*
G01*
X183876836Y-130739996D01*
X183861369Y-130712094D01*
X183889271Y-130696629D01*
X183904737Y-130724529D01*
G37*
G36*
X183898415Y-130855695D02*
G01*
X183888847Y-130908651D01*
X183881834Y-130913519D01*
X183857759Y-130900173D01*
X183861212Y-130876317D01*
X183887316Y-130845170D01*
X183898415Y-130855695D01*
G37*
G36*
X183869591Y-131008899D02*
G01*
X183867274Y-131018856D01*
X183821977Y-131050997D01*
X183808912Y-131049054D01*
X183790629Y-131015059D01*
X183802223Y-131000203D01*
X183853057Y-130970005D01*
X183860585Y-130970004D01*
X183869591Y-131008899D01*
G37*
G36*
X183699446Y-131549580D02*
G01*
X183689879Y-131602535D01*
X183682866Y-131607404D01*
X183658791Y-131594058D01*
X183662244Y-131570201D01*
X183688348Y-131539054D01*
X183699446Y-131549580D01*
G37*
G36*
X190024713Y-133605810D02*
G01*
X189996812Y-133621277D01*
X189981345Y-133593375D01*
X190009247Y-133577909D01*
X190024713Y-133605810D01*
G37*
G36*
X190960046Y-134053925D02*
G01*
X190950478Y-134106881D01*
X190943465Y-134111749D01*
X190919390Y-134098403D01*
X190922843Y-134074547D01*
X190948947Y-134043400D01*
X190960046Y-134053925D01*
G37*
G36*
X183630843Y-132007065D02*
G01*
X183602942Y-132022532D01*
X183587475Y-131994630D01*
X183615377Y-131979165D01*
X183630843Y-132007065D01*
G37*
G36*
X189968284Y-134293634D02*
G01*
X189940382Y-134309100D01*
X189924916Y-134281198D01*
X189952817Y-134265732D01*
X189968284Y-134293634D01*
G37*
G36*
X188847093Y-133496092D02*
G01*
X189012699Y-133578915D01*
X189091928Y-133651527D01*
X189087407Y-133718543D01*
X189009109Y-133780574D01*
X188958668Y-133822490D01*
X188967884Y-133842506D01*
X189004710Y-133882517D01*
X189003543Y-133893516D01*
X188958468Y-133899764D01*
X188847850Y-133883534D01*
X188692581Y-133848263D01*
X188633788Y-133832672D01*
X188441737Y-133785688D01*
X188261325Y-133751330D01*
X188126839Y-133735951D01*
X188110438Y-133735685D01*
X187950044Y-133731394D01*
X187874705Y-133712565D01*
X187879964Y-133676027D01*
X187915731Y-133650317D01*
X187958963Y-133662714D01*
X187957523Y-133690203D01*
X187979585Y-133699916D01*
X188019831Y-133694284D01*
X188016787Y-133679295D01*
X187966807Y-133659347D01*
X187958963Y-133662714D01*
X187915731Y-133650317D01*
X187952883Y-133623613D01*
X188103522Y-133558892D01*
X188297855Y-133508868D01*
X188504971Y-133477952D01*
X188693966Y-133470549D01*
X188833929Y-133491067D01*
X188847093Y-133496092D01*
G37*
G36*
X183754259Y-132558724D02*
G01*
X183726357Y-132574190D01*
X183710892Y-132546288D01*
X183738792Y-132530823D01*
X183754259Y-132558724D01*
G37*
G36*
X189833095Y-134245850D02*
G01*
X189831962Y-134278011D01*
X189789482Y-134311427D01*
X189779706Y-134309960D01*
X189704091Y-134301391D01*
X189653212Y-134300987D01*
X189598185Y-134299172D01*
X189619994Y-134281307D01*
X189670389Y-134258978D01*
X189782799Y-134225677D01*
X189833095Y-134245850D01*
G37*
G36*
X188280428Y-133960330D02*
G01*
X188338391Y-134024101D01*
X188343417Y-134067852D01*
X188368073Y-134121933D01*
X188477284Y-134174461D01*
X188509305Y-134184955D01*
X188692398Y-134242063D01*
X188480757Y-134243595D01*
X188269117Y-134245129D01*
X188590070Y-134312487D01*
X188757592Y-134350520D01*
X188852460Y-134381655D01*
X188891118Y-134413239D01*
X188891689Y-134447275D01*
X188835973Y-134491672D01*
X188717141Y-134511394D01*
X188559131Y-134505495D01*
X188385880Y-134473026D01*
X188367665Y-134468005D01*
X188234426Y-134407673D01*
X188096605Y-134312969D01*
X188067810Y-134287725D01*
X187958955Y-134203032D01*
X187868063Y-134161022D01*
X187813216Y-134166855D01*
X187808573Y-134213751D01*
X187814093Y-134252340D01*
X187786984Y-134249586D01*
X187710302Y-134200275D01*
X187667705Y-134170410D01*
X187563701Y-134082224D01*
X187541532Y-134027017D01*
X187597425Y-134009250D01*
X187727608Y-134033384D01*
X187772232Y-134046777D01*
X187905584Y-134093846D01*
X187998649Y-134135368D01*
X188024823Y-134154407D01*
X188071325Y-134197892D01*
X188104810Y-134184709D01*
X188101104Y-134145430D01*
X188093415Y-134037736D01*
X188143400Y-133961996D01*
X188228728Y-133941264D01*
X188280428Y-133960330D01*
G37*
G36*
X187755903Y-134316313D02*
G01*
X187728001Y-134331780D01*
X187712534Y-134303878D01*
X187740436Y-134288412D01*
X187755903Y-134316313D01*
G37*
G36*
X189917916Y-135123995D02*
G01*
X189943731Y-135191400D01*
X189941896Y-135204042D01*
X189897451Y-135234197D01*
X189886827Y-135232415D01*
X189858889Y-135186201D01*
X189862846Y-135152368D01*
X189896742Y-135113509D01*
X189917916Y-135123995D01*
G37*
G36*
X187637921Y-134564084D02*
G01*
X187610019Y-134579551D01*
X187594554Y-134551649D01*
X187622455Y-134536182D01*
X187637921Y-134564084D01*
G37*
G36*
X191245923Y-135083848D02*
G01*
X191252731Y-135145678D01*
X191232895Y-135261046D01*
X191194714Y-135400296D01*
X191146485Y-135533777D01*
X191096504Y-135631832D01*
X191090126Y-135640672D01*
X191041882Y-135684515D01*
X191007490Y-135647258D01*
X191002999Y-135637343D01*
X190988154Y-135538089D01*
X191006597Y-135412296D01*
X191048969Y-135281286D01*
X191105911Y-135166384D01*
X191168063Y-135088914D01*
X191226067Y-135070202D01*
X191245923Y-135083848D01*
G37*
G36*
X187222479Y-134812604D02*
G01*
X187212912Y-134865561D01*
X187205899Y-134870428D01*
X187181824Y-134857082D01*
X187185277Y-134833226D01*
X187211381Y-134802080D01*
X187222479Y-134812604D01*
G37*
G36*
X183709639Y-133860070D02*
G01*
X183681738Y-133875536D01*
X183666272Y-133847634D01*
X183694174Y-133832168D01*
X183709639Y-133860070D01*
G37*
G36*
X187576377Y-134913585D02*
G01*
X187597107Y-134951029D01*
X187622018Y-135025534D01*
X187606115Y-135047767D01*
X187552382Y-134999919D01*
X187525432Y-134953097D01*
X187505073Y-134874595D01*
X187528469Y-134861239D01*
X187576377Y-134913585D01*
G37*
G36*
X183667139Y-133956418D02*
G01*
X183652874Y-134025679D01*
X183639881Y-134038557D01*
X183623879Y-134019971D01*
X183633425Y-133975106D01*
X183657286Y-133931868D01*
X183667139Y-133956418D01*
G37*
G36*
X183660082Y-134145974D02*
G01*
X183647306Y-134241131D01*
X183603714Y-134337192D01*
X183561580Y-134352933D01*
X183536807Y-134287921D01*
X183535209Y-134244189D01*
X183542257Y-134131993D01*
X183565997Y-134088432D01*
X183618363Y-134092034D01*
X183619560Y-134092375D01*
X183660082Y-134145974D01*
G37*
G36*
X183609842Y-134535457D02*
G01*
X183581940Y-134550924D01*
X183566475Y-134523022D01*
X183594376Y-134507555D01*
X183609842Y-134535457D01*
G37*
G36*
X183578649Y-134753358D02*
G01*
X183569082Y-134806314D01*
X183562068Y-134811182D01*
X183537993Y-134797836D01*
X183541447Y-134773980D01*
X183567550Y-134742833D01*
X183578649Y-134753358D01*
G37*
G36*
X189984769Y-134499885D02*
G01*
X189999068Y-134565816D01*
X189976055Y-134639570D01*
X189895611Y-134671463D01*
X189859045Y-134675513D01*
X189766329Y-134686393D01*
X189751497Y-134708888D01*
X189802024Y-134760721D01*
X189868775Y-134874717D01*
X189852823Y-135003327D01*
X189816159Y-135062359D01*
X189772858Y-135146221D01*
X189730135Y-135274093D01*
X189721066Y-135309778D01*
X189676244Y-135442228D01*
X189615142Y-135504808D01*
X189590146Y-135513364D01*
X189491008Y-135573976D01*
X189418885Y-135708613D01*
X189395471Y-135787373D01*
X189342206Y-135887440D01*
X189291062Y-135932609D01*
X189224663Y-136012672D01*
X189210205Y-136078026D01*
X189197628Y-136147408D01*
X189155177Y-136139871D01*
X189143714Y-136131658D01*
X189082345Y-136115050D01*
X189061744Y-136145698D01*
X189077434Y-136195577D01*
X189127989Y-136200678D01*
X189160553Y-136209039D01*
X189111480Y-136248155D01*
X189071042Y-136271521D01*
X188891143Y-136339238D01*
X188743655Y-136327000D01*
X188667696Y-136276026D01*
X188580798Y-136207383D01*
X188533467Y-136182713D01*
X188449724Y-136125144D01*
X188332220Y-136009955D01*
X188196307Y-135855219D01*
X188057336Y-135679009D01*
X187930658Y-135499399D01*
X187867836Y-135399046D01*
X187794852Y-135267646D01*
X187754963Y-135179681D01*
X187754467Y-135149775D01*
X187762174Y-135153746D01*
X187826361Y-135171950D01*
X187847805Y-135141547D01*
X187848168Y-135093707D01*
X189248276Y-135495182D01*
X189263743Y-135523084D01*
X189291645Y-135507617D01*
X189276178Y-135479716D01*
X189248276Y-135495182D01*
X187848168Y-135093707D01*
X187848444Y-135057100D01*
X187827466Y-134912564D01*
X187789832Y-134734074D01*
X187740504Y-134547770D01*
X187726111Y-134500431D01*
X187679270Y-134351125D01*
X187874775Y-134440340D01*
X188023134Y-134500535D01*
X188202202Y-134562271D01*
X188390650Y-134619618D01*
X188567146Y-134666647D01*
X188710357Y-134697428D01*
X188798953Y-134706032D01*
X188814727Y-134701621D01*
X188901323Y-134658748D01*
X189028995Y-134623260D01*
X189162006Y-134601874D01*
X189264617Y-134601312D01*
X189294101Y-134611483D01*
X189337253Y-134626482D01*
X189338817Y-134605402D01*
X189363400Y-134577813D01*
X189430283Y-134585233D01*
X189536384Y-134589552D01*
X189625446Y-134553235D01*
X189665610Y-134491842D01*
X189663500Y-134471347D01*
X189686757Y-134428881D01*
X189772992Y-134416740D01*
X189899138Y-134438079D01*
X189901564Y-134438770D01*
X189984769Y-134499885D01*
G37*
G36*
X187177807Y-136168692D02*
G01*
X187149906Y-136184157D01*
X187134440Y-136156256D01*
X187162341Y-136140790D01*
X187177807Y-136168692D01*
G37*
G36*
X187128065Y-136342163D02*
G01*
X187100164Y-136357628D01*
X187084698Y-136329727D01*
X187112599Y-136314261D01*
X187128065Y-136342163D01*
G37*
G36*
X189466024Y-137025406D02*
G01*
X189463707Y-137035363D01*
X189418410Y-137067505D01*
X189405344Y-137065562D01*
X189387062Y-137031566D01*
X189398655Y-137016710D01*
X189449488Y-136986513D01*
X189457017Y-136986512D01*
X189466024Y-137025406D01*
G37*
G36*
X187853218Y-135676728D02*
G01*
X187967301Y-135798633D01*
X188024406Y-135875765D01*
X188154360Y-136059429D01*
X188299155Y-136264092D01*
X188395710Y-136400585D01*
X188480375Y-136528883D01*
X188531327Y-136623633D01*
X188539076Y-136666781D01*
X188536081Y-136667682D01*
X188486092Y-136706939D01*
X188465212Y-136752961D01*
X188423412Y-136819070D01*
X188377974Y-136804602D01*
X188357135Y-136736201D01*
X188313198Y-136668917D01*
X188257065Y-136656340D01*
X188171865Y-136618752D01*
X188140512Y-136546109D01*
X188136038Y-136518882D01*
X188198650Y-136536835D01*
X188203344Y-136577530D01*
X188263313Y-136554605D01*
X188294042Y-136534625D01*
X188339166Y-136496682D01*
X188303990Y-136490037D01*
X188288773Y-136491203D01*
X188215537Y-136516038D01*
X188198650Y-136536835D01*
X188136038Y-136518882D01*
X188126478Y-136460703D01*
X188127678Y-136429329D01*
X188144607Y-136373575D01*
X188076615Y-136312340D01*
X188016501Y-136283326D01*
X187925108Y-136253942D01*
X187883992Y-136258400D01*
X187884099Y-136263692D01*
X187868038Y-136290789D01*
X187810338Y-136273707D01*
X187741189Y-136222878D01*
X187729128Y-136210132D01*
X187711015Y-136170846D01*
X187762198Y-136159006D01*
X187806440Y-136161214D01*
X188051537Y-136231495D01*
X188067003Y-136259397D01*
X188094905Y-136243931D01*
X188079438Y-136216029D01*
X188051537Y-136231495D01*
X187806440Y-136161214D01*
X187826830Y-136162232D01*
X187935307Y-136152660D01*
X187971950Y-136115160D01*
X187931895Y-136071079D01*
X187853034Y-136047284D01*
X187770869Y-136016998D01*
X187748487Y-135978943D01*
X187722799Y-135941086D01*
X187664287Y-135933762D01*
X187601284Y-135925783D01*
X187592777Y-135880598D01*
X187612274Y-135823937D01*
X187909311Y-135909111D01*
X187924777Y-135937013D01*
X187952679Y-135921546D01*
X187937213Y-135893644D01*
X187909311Y-135909111D01*
X187612274Y-135823937D01*
X187620499Y-135800035D01*
X187651932Y-135742362D01*
X187770700Y-135776418D01*
X187800106Y-135839032D01*
X187836663Y-135864812D01*
X187861250Y-135845046D01*
X187846878Y-135796207D01*
X187806883Y-135735539D01*
X187785436Y-135728533D01*
X187770700Y-135776418D01*
X187651932Y-135742362D01*
X187686626Y-135678705D01*
X187761929Y-135637178D01*
X187853218Y-135676728D01*
G37*
G36*
X188282659Y-136733016D02*
G01*
X188280341Y-136742973D01*
X188235045Y-136775114D01*
X188221979Y-136773171D01*
X188203697Y-136739176D01*
X188215290Y-136724320D01*
X188266124Y-136694122D01*
X188273653Y-136694121D01*
X188282659Y-136733016D01*
G37*
G36*
X187629904Y-137185584D02*
G01*
X187664536Y-137239144D01*
X187665616Y-137250009D01*
X187639923Y-137261932D01*
X187608526Y-137209705D01*
X187605295Y-137199224D01*
X187608694Y-137168083D01*
X187629904Y-137185584D01*
G37*
G36*
X188010318Y-137220654D02*
G01*
X188018704Y-137313439D01*
X187990206Y-137373966D01*
X187961068Y-137400202D01*
X187964021Y-137368006D01*
X187934492Y-137317505D01*
X187846039Y-137275508D01*
X187757938Y-137237918D01*
X187727080Y-137199370D01*
X187727206Y-137198894D01*
X187768195Y-137187445D01*
X187824982Y-137210857D01*
X187888577Y-137234923D01*
X187894857Y-137203033D01*
X187911104Y-137161306D01*
X187947198Y-137163715D01*
X188010318Y-137220654D01*
G37*
G36*
X187207488Y-137538276D02*
G01*
X187179586Y-137553742D01*
X187164120Y-137525841D01*
X187192021Y-137510374D01*
X187207488Y-137538276D01*
G37*
G36*
X189394059Y-138587667D02*
G01*
X189366157Y-138603134D01*
X189350692Y-138575232D01*
X189378593Y-138559765D01*
X189394059Y-138587667D01*
G37*
G36*
X188167379Y-138228100D02*
G01*
X188157811Y-138281056D01*
X188150798Y-138285924D01*
X188126723Y-138272578D01*
X188130177Y-138248722D01*
X188156280Y-138217575D01*
X188167379Y-138228100D01*
G37*
G36*
X188575507Y-139150823D02*
G01*
X188547606Y-139166288D01*
X188532139Y-139138387D01*
X188560041Y-139122921D01*
X188575507Y-139150823D01*
G37*
G36*
X187974420Y-139119264D02*
G01*
X187946518Y-139134730D01*
X187931052Y-139106828D01*
X187958954Y-139091362D01*
X187974420Y-139119264D01*
G37*
G36*
X188339859Y-139317919D02*
G01*
X188311957Y-139333385D01*
X188296491Y-139305484D01*
X188324392Y-139290017D01*
X188339859Y-139317919D01*
G37*
G36*
X186877478Y-139180190D02*
G01*
X186849576Y-139195655D01*
X186834109Y-139167754D01*
X186862011Y-139152288D01*
X186877478Y-139180190D01*
G37*
G36*
X186731038Y-139197978D02*
G01*
X186728721Y-139207935D01*
X186683424Y-139240076D01*
X186670358Y-139238133D01*
X186652076Y-139204138D01*
X186663669Y-139189281D01*
X186714503Y-139159083D01*
X186722032Y-139159083D01*
X186731038Y-139197978D01*
G37*
G36*
X186895661Y-139607806D02*
G01*
X186867759Y-139623271D01*
X186852293Y-139595370D01*
X186880195Y-139579904D01*
X186895661Y-139607806D01*
G37*
G36*
X185396339Y-139216993D02*
G01*
X185382993Y-139241068D01*
X185359136Y-139237615D01*
X185327990Y-139211511D01*
X185338515Y-139200413D01*
X185391471Y-139209980D01*
X185396339Y-139216993D01*
G37*
G36*
X185526390Y-139309041D02*
G01*
X185498488Y-139324506D01*
X185483021Y-139296605D01*
X185510923Y-139281139D01*
X185526390Y-139309041D01*
G37*
G36*
X185222816Y-139221993D02*
G01*
X185194914Y-139237458D01*
X185179447Y-139209557D01*
X185207349Y-139194091D01*
X185222816Y-139221993D01*
G37*
G36*
X185644057Y-139389715D02*
G01*
X185616155Y-139405181D01*
X185600690Y-139377279D01*
X185628591Y-139361813D01*
X185644057Y-139389715D01*
G37*
G36*
X186672448Y-139731535D02*
G01*
X186644546Y-139747001D01*
X186629081Y-139719100D01*
X186656982Y-139703633D01*
X186672448Y-139731535D01*
G37*
G36*
X186573277Y-139750031D02*
G01*
X186545375Y-139765498D01*
X186529910Y-139737596D01*
X186557811Y-139722130D01*
X186573277Y-139750031D01*
G37*
G36*
X185674363Y-140102409D02*
G01*
X185646462Y-140117875D01*
X185630996Y-140089973D01*
X185658898Y-140074507D01*
X185674363Y-140102409D01*
G37*
G36*
X184490999Y-139810018D02*
G01*
X184463098Y-139825484D01*
X184447631Y-139797582D01*
X184475533Y-139782117D01*
X184490999Y-139810018D01*
G37*
G36*
X184063274Y-140142270D02*
G01*
X184225112Y-140205327D01*
X184409319Y-140278843D01*
X184585285Y-140347161D01*
X184716386Y-140396073D01*
X184721377Y-140397849D01*
X184863254Y-140448853D01*
X184933651Y-140478285D01*
X184946161Y-140494642D01*
X184914376Y-140506424D01*
X184900476Y-140509799D01*
X184807129Y-140511353D01*
X184659003Y-140491871D01*
X184479272Y-140456959D01*
X184291109Y-140412229D01*
X184117690Y-140363293D01*
X183982186Y-140315758D01*
X183907773Y-140275236D01*
X183902047Y-140268090D01*
X183877528Y-140173654D01*
X183881365Y-140135617D01*
X183903571Y-140108984D01*
X183958675Y-140110079D01*
X184063274Y-140142270D01*
G37*
G36*
X193091093Y-128758077D02*
G01*
X193246598Y-128835483D01*
X193359827Y-128896709D01*
X193542730Y-128995808D01*
X193712601Y-129085921D01*
X193842201Y-129152670D01*
X193877945Y-129170217D01*
X193997769Y-129238935D01*
X194143785Y-129338213D01*
X194223209Y-129398317D01*
X194423942Y-129557581D01*
X191927933Y-138262196D01*
X191767316Y-138093696D01*
X191670578Y-138001408D01*
X191573595Y-137938008D01*
X191446335Y-137888114D01*
X191270930Y-137839439D01*
X190935160Y-137753680D01*
X190839186Y-137495835D01*
X190743212Y-137237988D01*
X190631296Y-137534431D01*
X190565032Y-137699836D01*
X190500920Y-137843207D01*
X190455020Y-137929755D01*
X190303828Y-138145193D01*
X190128367Y-138368695D01*
X189946002Y-138580307D01*
X189774097Y-138760080D01*
X189630016Y-138888059D01*
X189605143Y-138906329D01*
X189537257Y-138964161D01*
X189432308Y-139064546D01*
X189330763Y-139167476D01*
X189227826Y-139265521D01*
X189152683Y-139319875D01*
X189121532Y-139318835D01*
X189121514Y-139318676D01*
X189106393Y-139300141D01*
X189089497Y-139335370D01*
X189033036Y-139415569D01*
X188956618Y-139476559D01*
X188865925Y-139555457D01*
X188768883Y-139674713D01*
X188741013Y-139716990D01*
X188667523Y-139816904D01*
X188611238Y-139857497D01*
X188595845Y-139852553D01*
X188571787Y-139846252D01*
X188575153Y-139869180D01*
X188552794Y-139937856D01*
X188467144Y-140052526D01*
X188326344Y-140204049D01*
X188138528Y-140383284D01*
X188036220Y-140474591D01*
X187906951Y-140583157D01*
X187840721Y-140628391D01*
X187837634Y-140611621D01*
X187897793Y-140534174D01*
X188021304Y-140397378D01*
X188029511Y-140388612D01*
X188156814Y-140247302D01*
X188288005Y-140092518D01*
X188410394Y-139940468D01*
X188511296Y-139807356D01*
X188578022Y-139709393D01*
X188597886Y-139662782D01*
X188597818Y-139662655D01*
X188564152Y-139681561D01*
X188488410Y-139752642D01*
X188397776Y-139848770D01*
X188290636Y-139960887D01*
X188201868Y-140042131D01*
X188157460Y-140071648D01*
X188133911Y-140064375D01*
X188150294Y-140045218D01*
X188176321Y-140003843D01*
X188169538Y-139996550D01*
X188120194Y-140024088D01*
X188033394Y-140111555D01*
X187920937Y-140243276D01*
X187794621Y-140403580D01*
X187666243Y-140576792D01*
X187547602Y-140747238D01*
X187450497Y-140899246D01*
X187386723Y-141017141D01*
X187371487Y-141056760D01*
X187328825Y-141143967D01*
X187241866Y-141281198D01*
X187123718Y-141448859D01*
X187001891Y-141609152D01*
X186870688Y-141778600D01*
X186761182Y-141925388D01*
X186685126Y-142033392D01*
X186654498Y-142085610D01*
X186633175Y-142097075D01*
X186574405Y-142094103D01*
X186470453Y-142074801D01*
X186313589Y-142037280D01*
X186096078Y-141979647D01*
X185810186Y-141900014D01*
X185448181Y-141796488D01*
X185316812Y-141758530D01*
X183995059Y-141375889D01*
X184023490Y-141276739D01*
X184012270Y-141164378D01*
X183957666Y-141097102D01*
X183887030Y-141010195D01*
X183900247Y-140934510D01*
X184000005Y-140861525D01*
X184034655Y-140844680D01*
X184326743Y-140928435D01*
X184325303Y-140955924D01*
X184347364Y-140965637D01*
X184387611Y-140960006D01*
X184384567Y-140945016D01*
X184334588Y-140925068D01*
X184326743Y-140928435D01*
X184034655Y-140844680D01*
X184037782Y-140843160D01*
X184128785Y-140798133D01*
X184145575Y-140773205D01*
X184096926Y-140753040D01*
X184090402Y-140751154D01*
X184005065Y-140707433D01*
X183994222Y-140660683D01*
X184059744Y-140632615D01*
X184080052Y-140631213D01*
X184150259Y-140623605D01*
X184139160Y-140600588D01*
X184116009Y-140585813D01*
X184049871Y-140533102D01*
X184061445Y-140505203D01*
X184141447Y-140502994D01*
X184280589Y-140527356D01*
X184401522Y-140558765D01*
X184618071Y-140612998D01*
X184852462Y-140659718D01*
X185032969Y-140686178D01*
X185218022Y-140698164D01*
X185349606Y-140682880D01*
X185461714Y-140635251D01*
X185490397Y-140617875D01*
X185592733Y-140553874D01*
X185674118Y-140506607D01*
X185709721Y-140488016D01*
X187179487Y-140909464D01*
X187194953Y-140937366D01*
X187222855Y-140921900D01*
X187207388Y-140893999D01*
X187179487Y-140909464D01*
X185709721Y-140488016D01*
X185769489Y-140456807D01*
X185797642Y-140442826D01*
X187284875Y-140869284D01*
X187290507Y-140909530D01*
X187305497Y-140906486D01*
X187325446Y-140856507D01*
X187322078Y-140848662D01*
X187294589Y-140847222D01*
X187284875Y-140869284D01*
X185797642Y-140442826D01*
X185899774Y-140392112D01*
X185950348Y-140361458D01*
X186421770Y-140496636D01*
X186420330Y-140524125D01*
X186442391Y-140533838D01*
X186482638Y-140528206D01*
X186479594Y-140513216D01*
X186429615Y-140493269D01*
X186421770Y-140496636D01*
X185950348Y-140361458D01*
X186006571Y-140327379D01*
X186041464Y-140279594D01*
X186001613Y-140258627D01*
X185936770Y-140263639D01*
X185861819Y-140290035D01*
X185854202Y-140323548D01*
X185865538Y-140365835D01*
X185819315Y-140379923D01*
X185745013Y-140361401D01*
X185714810Y-140344400D01*
X185666817Y-140316785D01*
X185684527Y-140348799D01*
X185694067Y-140361047D01*
X185715344Y-140402886D01*
X185670453Y-140404084D01*
X185621609Y-140391631D01*
X185532336Y-140378362D01*
X185503895Y-140413997D01*
X185504295Y-140434337D01*
X185493393Y-140485028D01*
X185452741Y-140467960D01*
X185397352Y-140448891D01*
X185383458Y-140462210D01*
X185331300Y-140493273D01*
X185213698Y-140482767D01*
X185043345Y-140434253D01*
X184832927Y-140351296D01*
X184609289Y-140244762D01*
X184426197Y-140152322D01*
X184267321Y-140074991D01*
X184153305Y-140022658D01*
X184111227Y-140006189D01*
X184041546Y-139954267D01*
X184010316Y-139906853D01*
X185079337Y-140213390D01*
X185094804Y-140241291D01*
X185122705Y-140225825D01*
X185107239Y-140197923D01*
X185079337Y-140213390D01*
X184010316Y-139906853D01*
X183979527Y-139860109D01*
X183941188Y-139757482D01*
X183942547Y-139680150D01*
X183951084Y-139668620D01*
X183959557Y-139638011D01*
X183914038Y-139635545D01*
X183862186Y-139631065D01*
X183883818Y-139590743D01*
X183902504Y-139570869D01*
X183944006Y-139517050D01*
X183915147Y-139504267D01*
X183905512Y-139504923D01*
X183859647Y-139470104D01*
X183825608Y-139353287D01*
X183809782Y-139238472D01*
X183792215Y-139114072D01*
X184709041Y-139376968D01*
X184727859Y-139430157D01*
X184739240Y-139435330D01*
X184785722Y-139432647D01*
X184788091Y-139428641D01*
X184768319Y-139382902D01*
X184757893Y-139370279D01*
X184716944Y-139362258D01*
X184709041Y-139376968D01*
X183792215Y-139114072D01*
X183790158Y-139099515D01*
X183761483Y-139022077D01*
X183714982Y-139008642D01*
X183641880Y-139061693D01*
X183533407Y-139183714D01*
X183397875Y-139355082D01*
X183179842Y-139684077D01*
X183042862Y-140011092D01*
X182980544Y-140356420D01*
X182981414Y-140678175D01*
X182992939Y-140852490D01*
X183000437Y-140989133D01*
X183002736Y-141065714D01*
X183002136Y-141074054D01*
X182959229Y-141069447D01*
X182844887Y-141043191D01*
X182674238Y-140999115D01*
X182462406Y-140941046D01*
X182345761Y-140907956D01*
X182119896Y-140841238D01*
X181929204Y-140781178D01*
X181788484Y-140732735D01*
X181712537Y-140700871D01*
X181703479Y-140692705D01*
X181731154Y-140646166D01*
X181799844Y-140542074D01*
X181898658Y-140396684D01*
X181996885Y-140254666D01*
X182282056Y-139845345D01*
X182158920Y-139666194D01*
X182027073Y-139425556D01*
X181950086Y-139177718D01*
X181934203Y-138947679D01*
X181952811Y-138841118D01*
X181976851Y-138717330D01*
X181973543Y-138628804D01*
X181965485Y-138612897D01*
X181931912Y-138535362D01*
X181907353Y-138424345D01*
X184854131Y-139269320D01*
X184894769Y-139288489D01*
X184953303Y-139296644D01*
X184958220Y-139282032D01*
X184903146Y-139255037D01*
X184876080Y-139254774D01*
X184854131Y-139269320D01*
X181907353Y-138424345D01*
X181901186Y-138396473D01*
X181876726Y-138225107D01*
X181863715Y-138071051D01*
X184968984Y-138961473D01*
X184984449Y-138989375D01*
X185012351Y-138973908D01*
X184996885Y-138946006D01*
X184968984Y-138961473D01*
X181863715Y-138071051D01*
X181861948Y-138050137D01*
X181861562Y-138015678D01*
X184477534Y-138765796D01*
X184476095Y-138793285D01*
X184498156Y-138802998D01*
X184538402Y-138797366D01*
X184535357Y-138782376D01*
X184485379Y-138762429D01*
X184477534Y-138765796D01*
X181861562Y-138015678D01*
X181860268Y-137900442D01*
X181871223Y-137816235D01*
X181954387Y-137680515D01*
X181979110Y-137661132D01*
X184032279Y-138249869D01*
X184015735Y-138335506D01*
X184066321Y-138398494D01*
X184183515Y-138463643D01*
X184301855Y-138487792D01*
X184388573Y-138465793D01*
X184402337Y-138451242D01*
X184407556Y-138407178D01*
X184367018Y-138402260D01*
X184313631Y-138374678D01*
X184283076Y-138274759D01*
X184361570Y-138297267D01*
X184383282Y-138346392D01*
X184393236Y-138350511D01*
X184441418Y-138326125D01*
X184455992Y-138295335D01*
X184447838Y-138244418D01*
X184424325Y-138242091D01*
X184366713Y-138285575D01*
X184361570Y-138297267D01*
X184283076Y-138274759D01*
X184282522Y-138272949D01*
X184276029Y-138219380D01*
X184253632Y-138105995D01*
X184219094Y-138030507D01*
X184184823Y-138006213D01*
X184163223Y-138046404D01*
X184161088Y-138096209D01*
X184147080Y-138166499D01*
X184122513Y-138179015D01*
X184069568Y-138203025D01*
X184032279Y-138249869D01*
X181979110Y-137661132D01*
X182102196Y-137564633D01*
X182295626Y-137443963D01*
X182261703Y-137342446D01*
X183431341Y-137677834D01*
X183419039Y-137746717D01*
X183419306Y-137747707D01*
X183456038Y-137785402D01*
X183505450Y-137757077D01*
X183539322Y-137682329D01*
X183541619Y-137607066D01*
X183536589Y-137599346D01*
X183944972Y-137716448D01*
X183951563Y-137753009D01*
X183977978Y-137789835D01*
X184055801Y-137859739D01*
X184147849Y-137901645D01*
X184222330Y-137904809D01*
X184246400Y-137880530D01*
X184220626Y-137840871D01*
X184167046Y-137829915D01*
X184095811Y-137806330D01*
X184090132Y-137770795D01*
X184068033Y-137722693D01*
X184012131Y-137711648D01*
X183944972Y-137716448D01*
X183536589Y-137599346D01*
X183527980Y-137586133D01*
X183477284Y-137609989D01*
X183431341Y-137677834D01*
X182261703Y-137342446D01*
X182235407Y-137263752D01*
X182200763Y-137140342D01*
X182199341Y-137130840D01*
X183338843Y-137457587D01*
X183330687Y-137516123D01*
X183345299Y-137521039D01*
X183372295Y-137465965D01*
X183372558Y-137438899D01*
X183358011Y-137416951D01*
X183338843Y-137457587D01*
X182199341Y-137130840D01*
X182187391Y-137051012D01*
X182188937Y-137035590D01*
X182235209Y-137006065D01*
X182351931Y-136959517D01*
X182372601Y-136952534D01*
X183462187Y-137264968D01*
X183447810Y-137351943D01*
X183456848Y-137451625D01*
X183502109Y-137478375D01*
X183548492Y-137450855D01*
X183552982Y-137429035D01*
X183966403Y-137547581D01*
X183981869Y-137575483D01*
X184009770Y-137560017D01*
X183994305Y-137532115D01*
X183966403Y-137547581D01*
X183552982Y-137429035D01*
X183561457Y-137387847D01*
X183557147Y-137375473D01*
X183778528Y-137438953D01*
X183777088Y-137466442D01*
X183799149Y-137476155D01*
X183839396Y-137470523D01*
X183836351Y-137455534D01*
X183786373Y-137435586D01*
X183778528Y-137438953D01*
X183557147Y-137375473D01*
X183541870Y-137331622D01*
X183490643Y-137255231D01*
X183462187Y-137264968D01*
X182372601Y-136952534D01*
X182522311Y-136901956D01*
X182647113Y-136864281D01*
X183840053Y-137206351D01*
X183838800Y-137269337D01*
X183866727Y-137329339D01*
X183893870Y-137334600D01*
X183920056Y-137288941D01*
X183908246Y-137243991D01*
X183865804Y-137182482D01*
X183840053Y-137206351D01*
X182647113Y-136864281D01*
X182729558Y-136839393D01*
X182765528Y-136829177D01*
X183027581Y-136752981D01*
X183203051Y-136696155D01*
X183293338Y-136658039D01*
X183299838Y-136637975D01*
X183223950Y-136635305D01*
X183169319Y-136639087D01*
X183047063Y-136633321D01*
X182970251Y-136599865D01*
X182957224Y-136549587D01*
X182976508Y-136524861D01*
X183031702Y-136456925D01*
X183040993Y-136437420D01*
X183049757Y-136415557D01*
X183635714Y-136583577D01*
X183631270Y-136648624D01*
X183653005Y-136771332D01*
X183656733Y-136786161D01*
X183689303Y-136879486D01*
X183719080Y-136888039D01*
X183729170Y-136872875D01*
X183736435Y-136789491D01*
X183714567Y-136700965D01*
X186144821Y-137397829D01*
X186152960Y-137433402D01*
X186233713Y-137470229D01*
X186238246Y-137471551D01*
X186334234Y-137485723D01*
X186382942Y-137467430D01*
X186383344Y-137466224D01*
X186448395Y-137484877D01*
X186451441Y-137523039D01*
X186495893Y-137545430D01*
X186585526Y-137550189D01*
X186621867Y-137534619D01*
X186618822Y-137496458D01*
X186574369Y-137474066D01*
X186484736Y-137469308D01*
X186448395Y-137484877D01*
X186383344Y-137466224D01*
X186355740Y-137422721D01*
X186289920Y-137392501D01*
X186193508Y-137382161D01*
X186144821Y-137397829D01*
X183714567Y-136700965D01*
X183708176Y-136675096D01*
X183705602Y-136668633D01*
X183661951Y-136586734D01*
X183635714Y-136583577D01*
X183049757Y-136415557D01*
X183084324Y-136329329D01*
X183149395Y-136186731D01*
X183225553Y-136030572D01*
X183302141Y-135881798D01*
X183368508Y-135761353D01*
X183413998Y-135690182D01*
X183426437Y-135679673D01*
X183448506Y-135725422D01*
X183478224Y-135838813D01*
X183510192Y-135998203D01*
X183519748Y-136053768D01*
X183552220Y-136228338D01*
X183585014Y-136368820D01*
X183612268Y-136450985D01*
X183618071Y-136460200D01*
X183655283Y-136483019D01*
X183662738Y-136432021D01*
X183643306Y-136310071D01*
X183630114Y-136161887D01*
X183639937Y-135997539D01*
X183667955Y-135843959D01*
X183709349Y-135728077D01*
X183756526Y-135677480D01*
X183802615Y-135649408D01*
X183793916Y-135628690D01*
X183897946Y-135658520D01*
X183906907Y-135727281D01*
X183949992Y-135829024D01*
X184013028Y-135941142D01*
X184081840Y-136041029D01*
X184142248Y-136106076D01*
X184180081Y-136113678D01*
X184181727Y-136111092D01*
X184248810Y-136062230D01*
X184291067Y-136057133D01*
X184378503Y-136087422D01*
X184485685Y-136153897D01*
X184493401Y-136159830D01*
X184584717Y-136217913D01*
X184629361Y-136216518D01*
X184630596Y-136213324D01*
X184631233Y-136212877D01*
X185368014Y-136424146D01*
X185373646Y-136464392D01*
X185388636Y-136461348D01*
X185408585Y-136411369D01*
X185405217Y-136403524D01*
X185377728Y-136402085D01*
X185368014Y-136424146D01*
X184631233Y-136212877D01*
X184676281Y-136181332D01*
X184692627Y-136183548D01*
X184765367Y-136170911D01*
X184822915Y-136138773D01*
X184880856Y-136099100D01*
X184877308Y-136116630D01*
X184855582Y-136148140D01*
X184835481Y-136209910D01*
X184852525Y-136229398D01*
X184889911Y-136201144D01*
X184909034Y-136128843D01*
X184951739Y-136024306D01*
X185060815Y-135871918D01*
X185193990Y-135718793D01*
X185318110Y-135580245D01*
X185416805Y-135462560D01*
X185474939Y-135384112D01*
X185483660Y-135367143D01*
X185524274Y-135298492D01*
X185600806Y-135207177D01*
X185606019Y-135201719D01*
X185704528Y-135092287D01*
X185783332Y-134994428D01*
X185815753Y-134943186D01*
X185797992Y-134938085D01*
X185719685Y-134980715D01*
X185668049Y-135012128D01*
X185519968Y-135116700D01*
X185379653Y-135236554D01*
X185347140Y-135269082D01*
X185238189Y-135373300D01*
X185135223Y-135454914D01*
X185114095Y-135468303D01*
X185031659Y-135534046D01*
X184998788Y-135583990D01*
X184946022Y-135647165D01*
X184834907Y-135725463D01*
X184692440Y-135804719D01*
X184545621Y-135870772D01*
X184421447Y-135909459D01*
X184370182Y-135913753D01*
X184286004Y-135893906D01*
X184260987Y-135865534D01*
X184235954Y-135821551D01*
X184212495Y-135811204D01*
X184145831Y-135764852D01*
X184069296Y-135677813D01*
X183988307Y-135593654D01*
X183929172Y-135596714D01*
X183897946Y-135658520D01*
X183793916Y-135628690D01*
X183778613Y-135592247D01*
X183770152Y-135580617D01*
X183745073Y-135531127D01*
X183745168Y-135466126D01*
X183768574Y-135385102D01*
X183873826Y-135415282D01*
X183876974Y-135485003D01*
X183912718Y-135522057D01*
X183931051Y-135518519D01*
X183937841Y-135472247D01*
X183923279Y-135436502D01*
X183886627Y-135399535D01*
X183873826Y-135415282D01*
X183768574Y-135385102D01*
X183774550Y-135364418D01*
X183837327Y-135204804D01*
X183848013Y-135179040D01*
X183931548Y-134941611D01*
X183973928Y-134736867D01*
X183972668Y-134581395D01*
X183947493Y-134514943D01*
X183936013Y-134454912D01*
X183929722Y-134337453D01*
X183928951Y-134195236D01*
X183934032Y-134060935D01*
X183942112Y-133983637D01*
X183926035Y-133881918D01*
X183902230Y-133843133D01*
X183870463Y-133790703D01*
X183916043Y-133762006D01*
X183926444Y-133758689D01*
X183974921Y-133735990D01*
X183935652Y-133714589D01*
X183923977Y-133711047D01*
X183859833Y-133652555D01*
X183846392Y-133594743D01*
X183830462Y-133525869D01*
X183804087Y-133514545D01*
X183790573Y-133489917D01*
X183818479Y-133413136D01*
X183821424Y-133407346D01*
X183854665Y-133310337D01*
X183847313Y-133248122D01*
X183838922Y-133182940D01*
X183851809Y-133149899D01*
X183908607Y-133166186D01*
X183924073Y-133194088D01*
X183951975Y-133178622D01*
X183936509Y-133150720D01*
X183908607Y-133166186D01*
X183851809Y-133149899D01*
X183862633Y-133122150D01*
X183871818Y-133099625D01*
X184153023Y-133180259D01*
X184161159Y-133215386D01*
X184223650Y-133274627D01*
X184335588Y-133337111D01*
X184373209Y-133352887D01*
X184491195Y-133403677D01*
X184570584Y-133447246D01*
X184582062Y-133456773D01*
X184598081Y-133507166D01*
X184551519Y-133530365D01*
X184467918Y-133518567D01*
X184431043Y-133502922D01*
X184320961Y-133446742D01*
X184415196Y-133527299D01*
X184523542Y-133620498D01*
X184596350Y-133683650D01*
X184686158Y-133734856D01*
X184725483Y-133724341D01*
X184794801Y-133694740D01*
X184912280Y-133666310D01*
X184939916Y-133661508D01*
X185087626Y-133619191D01*
X185216630Y-133553270D01*
X185225874Y-133546483D01*
X185228685Y-133544712D01*
X185296376Y-133564122D01*
X185311841Y-133592024D01*
X185339743Y-133576558D01*
X185324277Y-133548656D01*
X185296376Y-133564122D01*
X185228685Y-133544712D01*
X185331754Y-133479785D01*
X185390189Y-133484112D01*
X185410613Y-133560448D01*
X185410793Y-133565710D01*
X185427601Y-133622713D01*
X185488874Y-133660440D01*
X185616872Y-133692267D01*
X185623684Y-133693603D01*
X185745273Y-133728332D01*
X185781843Y-133762526D01*
X185732887Y-133787201D01*
X185629385Y-133794031D01*
X185607605Y-133798812D01*
X185663759Y-133811614D01*
X185704635Y-133818038D01*
X185809843Y-133843168D01*
X185861069Y-133874909D01*
X185861980Y-133883100D01*
X185812147Y-133916383D01*
X185700832Y-133946490D01*
X185556762Y-133968352D01*
X185408664Y-133976902D01*
X185342922Y-133974666D01*
X185247649Y-133980218D01*
X185206629Y-134008030D01*
X185206596Y-134009638D01*
X185169379Y-134044079D01*
X185099848Y-134054559D01*
X185028282Y-134056966D01*
X185041380Y-134070313D01*
X185078622Y-134083674D01*
X185169683Y-134097182D01*
X185314526Y-134101282D01*
X185437271Y-134097326D01*
X185588849Y-134090652D01*
X185657480Y-134090069D01*
X186312018Y-134277755D01*
X186327483Y-134305657D01*
X186355385Y-134290190D01*
X186339919Y-134262288D01*
X186312018Y-134277755D01*
X185657480Y-134090069D01*
X185704213Y-134089673D01*
X185750548Y-134093289D01*
X185824591Y-134099071D01*
X185903522Y-134095843D01*
X186004529Y-134092109D01*
X186053815Y-134096013D01*
X186118979Y-134076238D01*
X186187035Y-134017204D01*
X186209387Y-133978458D01*
X186183053Y-133939656D01*
X186154326Y-133927469D01*
X186103850Y-133886648D01*
X186119171Y-133833284D01*
X186185292Y-133795003D01*
X186228925Y-133790067D01*
X186301350Y-133782657D01*
X186298219Y-133746563D01*
X186282728Y-133725193D01*
X186253875Y-133681383D01*
X186289564Y-133698470D01*
X186303334Y-133707635D01*
X186383858Y-133754510D01*
X186415205Y-133767607D01*
X186440462Y-133812921D01*
X186436373Y-133844077D01*
X186454601Y-133911527D01*
X186482771Y-133927783D01*
X186522104Y-133936999D01*
X186545829Y-133925144D01*
X186558428Y-133874788D01*
X186564383Y-133768502D01*
X186568036Y-133596200D01*
X186568816Y-133435715D01*
X186557356Y-133342338D01*
X186524363Y-133292993D01*
X186460544Y-133264607D01*
X186430960Y-133255855D01*
X186337603Y-133216605D01*
X186300135Y-133175411D01*
X186300677Y-133171564D01*
X186287178Y-133126414D01*
X186279115Y-133124005D01*
X186188068Y-133094157D01*
X186175132Y-133027206D01*
X186201042Y-132964365D01*
X186231254Y-132870056D01*
X186288555Y-132886486D01*
X186294186Y-132926733D01*
X186309176Y-132923689D01*
X186320382Y-132895613D01*
X187632955Y-133271987D01*
X187638588Y-133312234D01*
X187653577Y-133309189D01*
X187673526Y-133259210D01*
X187670157Y-133251365D01*
X187642668Y-133249926D01*
X187632955Y-133271987D01*
X186320382Y-132895613D01*
X186329125Y-132873709D01*
X186325757Y-132865865D01*
X186298268Y-132864425D01*
X186288555Y-132886486D01*
X186231254Y-132870056D01*
X186233283Y-132863724D01*
X186210318Y-132780215D01*
X186124451Y-132708686D01*
X185967981Y-132643991D01*
X185733208Y-132580980D01*
X185576971Y-132547036D01*
X185472475Y-132534387D01*
X185447720Y-132555069D01*
X185454381Y-132565364D01*
X185445567Y-132584582D01*
X185365983Y-132568761D01*
X185299262Y-132546697D01*
X185186077Y-132512543D01*
X185119802Y-132505217D01*
X185111967Y-132513905D01*
X185090702Y-132540812D01*
X185074722Y-132538426D01*
X185004026Y-132537312D01*
X184881699Y-132550563D01*
X184822188Y-132559935D01*
X184688276Y-132575902D01*
X184618626Y-132562086D01*
X184595276Y-132530068D01*
X184578244Y-132510633D01*
X184572345Y-132570372D01*
X184554003Y-132650809D01*
X184520882Y-132661216D01*
X184480103Y-132683409D01*
X184476127Y-132717280D01*
X184455555Y-132786960D01*
X184433290Y-132801740D01*
X184392835Y-132854081D01*
X184381443Y-132956788D01*
X184398979Y-133074856D01*
X184434652Y-133158265D01*
X184480853Y-133243354D01*
X184468976Y-133275063D01*
X184390978Y-133257295D01*
X184303265Y-133222022D01*
X184194954Y-133180511D01*
X184153023Y-133180259D01*
X183871818Y-133099625D01*
X183888059Y-133059803D01*
X183850806Y-133053490D01*
X183846109Y-133054757D01*
X183804611Y-133053566D01*
X183829102Y-133006448D01*
X183878914Y-132927318D01*
X183892018Y-132896685D01*
X183922954Y-132877155D01*
X183930947Y-132883683D01*
X183957622Y-132861341D01*
X183998796Y-132773097D01*
X184033457Y-132674872D01*
X184041799Y-132653109D01*
X184184775Y-132694107D01*
X184185651Y-132771175D01*
X184208455Y-132886272D01*
X184243469Y-133004654D01*
X184280979Y-133091574D01*
X184302427Y-133114845D01*
X184323630Y-133084495D01*
X184322445Y-132996042D01*
X184321810Y-132991335D01*
X184296648Y-132877143D01*
X184259307Y-132772119D01*
X184220504Y-132699509D01*
X184190956Y-132682557D01*
X184184775Y-132694107D01*
X184041799Y-132653109D01*
X184078340Y-132557785D01*
X184169440Y-132583908D01*
X184184906Y-132611810D01*
X184336693Y-132655334D01*
X184342325Y-132695580D01*
X184357315Y-132692536D01*
X184377262Y-132642557D01*
X184373895Y-132634712D01*
X184346406Y-132633273D01*
X184336693Y-132655334D01*
X184184906Y-132611810D01*
X184212808Y-132596343D01*
X184197341Y-132568442D01*
X184169440Y-132583908D01*
X184078340Y-132557785D01*
X184084980Y-132540465D01*
X184137331Y-132446971D01*
X184166679Y-132420506D01*
X184200365Y-132374440D01*
X184245648Y-132265322D01*
X184296407Y-132114953D01*
X184346521Y-131945131D01*
X184389869Y-131777658D01*
X184420330Y-131634332D01*
X184431783Y-131536955D01*
X184423238Y-131506811D01*
X184405154Y-131462015D01*
X184413767Y-131404482D01*
X184423416Y-131338831D01*
X184380055Y-131338786D01*
X184349718Y-131350915D01*
X184288045Y-131373324D01*
X184297734Y-131351914D01*
X184314533Y-131334839D01*
X184400983Y-131261286D01*
X184442846Y-131230832D01*
X184493030Y-131174621D01*
X184475914Y-131122981D01*
X189697207Y-132620162D01*
X189712673Y-132648063D01*
X189740574Y-132632598D01*
X189725108Y-132604696D01*
X189697207Y-132620162D01*
X184475914Y-131122981D01*
X184470938Y-131107970D01*
X184432571Y-131065186D01*
X184405879Y-131105824D01*
X184399795Y-131125855D01*
X184349683Y-131233325D01*
X184315304Y-131279479D01*
X184251195Y-131364806D01*
X184191405Y-131463801D01*
X184154642Y-131539629D01*
X184165842Y-131546732D01*
X184193532Y-131523293D01*
X184255806Y-131487128D01*
X184303196Y-131529635D01*
X184304415Y-131531621D01*
X184318393Y-131610345D01*
X184289835Y-131642504D01*
X184246646Y-131707664D01*
X184247209Y-131736301D01*
X184240326Y-131807718D01*
X184200769Y-131879398D01*
X184151249Y-131918967D01*
X184124129Y-131911757D01*
X184103174Y-131896487D01*
X184082786Y-131911207D01*
X184056872Y-131969950D01*
X184019335Y-132086743D01*
X183964084Y-132275617D01*
X183960164Y-132289231D01*
X183920918Y-132416611D01*
X183895719Y-132480408D01*
X183888967Y-132470044D01*
X183890370Y-132456953D01*
X183894258Y-132337864D01*
X183879767Y-132256696D01*
X183879957Y-132171229D01*
X183909931Y-132101078D01*
X183946886Y-132038187D01*
X183926151Y-132042175D01*
X183883885Y-132072674D01*
X183831172Y-132106341D01*
X183824167Y-132084255D01*
X183858824Y-131993315D01*
X183859136Y-131992568D01*
X183890789Y-131857596D01*
X183859588Y-131764980D01*
X183819817Y-131719649D01*
X183817411Y-131743679D01*
X183798476Y-131816299D01*
X183739186Y-131884226D01*
X183674685Y-131924812D01*
X183661889Y-131905136D01*
X183696671Y-131835824D01*
X183774908Y-131727499D01*
X183811256Y-131683330D01*
X184120636Y-131772043D01*
X184136103Y-131799944D01*
X184164005Y-131784479D01*
X184148538Y-131756577D01*
X184120636Y-131772043D01*
X183811256Y-131683330D01*
X183822482Y-131669690D01*
X183874572Y-131607618D01*
X184023859Y-131650426D01*
X184007309Y-131725834D01*
X184019015Y-131736248D01*
X184021852Y-131732878D01*
X184055118Y-131649244D01*
X184060766Y-131603235D01*
X184052033Y-131581591D01*
X184028007Y-131637040D01*
X184023859Y-131650426D01*
X183874572Y-131607618D01*
X183915518Y-131558826D01*
X183957561Y-131499440D01*
X183956352Y-131474517D01*
X183919634Y-131467037D01*
X183914875Y-131466641D01*
X183883830Y-131429311D01*
X183902351Y-131357449D01*
X183909767Y-131336108D01*
X184003282Y-131362924D01*
X184018748Y-131390825D01*
X184046650Y-131375359D01*
X184031184Y-131347457D01*
X184003282Y-131362924D01*
X183909767Y-131336108D01*
X183921867Y-131301287D01*
X183904558Y-131289098D01*
X183836311Y-131322805D01*
X183743602Y-131379121D01*
X183634888Y-131439039D01*
X183567674Y-131461435D01*
X183555944Y-131449886D01*
X183601496Y-131376537D01*
X183692475Y-131274227D01*
X183803337Y-131169711D01*
X183884596Y-131105669D01*
X183929568Y-131060184D01*
X184077895Y-131102717D01*
X184093361Y-131130619D01*
X184121263Y-131115152D01*
X184105797Y-131087251D01*
X184077895Y-131102717D01*
X183929568Y-131060184D01*
X183942687Y-131046916D01*
X183949042Y-131012832D01*
X183966540Y-130963624D01*
X184031788Y-130873417D01*
X184096721Y-130798891D01*
X184203778Y-130681132D01*
X184257279Y-130612733D01*
X184266619Y-130578408D01*
X184241710Y-130563020D01*
X184191733Y-130587142D01*
X184122411Y-130657880D01*
X184078466Y-130705769D01*
X184080463Y-130686618D01*
X184085600Y-130676989D01*
X184119249Y-130564504D01*
X184123302Y-130475033D01*
X184135952Y-130415361D01*
X184221060Y-130439766D01*
X184236526Y-130467666D01*
X184264427Y-130452201D01*
X184248961Y-130424299D01*
X184221060Y-130439766D01*
X184135952Y-130415361D01*
X184143662Y-130378986D01*
X184169624Y-130331149D01*
X184202563Y-130340594D01*
X184218029Y-130368495D01*
X184245931Y-130353030D01*
X184289298Y-130365466D01*
X184304765Y-130393367D01*
X184332667Y-130377901D01*
X184317200Y-130349999D01*
X184289298Y-130365466D01*
X184245931Y-130353030D01*
X184230465Y-130325128D01*
X184202563Y-130340594D01*
X184169624Y-130331149D01*
X184205507Y-130265034D01*
X184289941Y-130156516D01*
X184378063Y-130076770D01*
X184450975Y-130049135D01*
X184464859Y-130053234D01*
X184504986Y-130052086D01*
X184504768Y-130032721D01*
X184526918Y-129978632D01*
X184550327Y-129967245D01*
X184579345Y-129969181D01*
X184573283Y-130008681D01*
X184527089Y-130098402D01*
X184439797Y-130244353D01*
X184378576Y-130344131D01*
X184475205Y-130371839D01*
X184490672Y-130399741D01*
X184518573Y-130384275D01*
X184503107Y-130356374D01*
X184475205Y-130371839D01*
X184378576Y-130344131D01*
X184467827Y-130275856D01*
X184543444Y-130297539D01*
X184558910Y-130325441D01*
X184586812Y-130309975D01*
X184571345Y-130282074D01*
X184543444Y-130297539D01*
X184467827Y-130275856D01*
X184479730Y-130266751D01*
X184571258Y-130217541D01*
X184615096Y-130240456D01*
X184607949Y-130329068D01*
X184566545Y-130436064D01*
X184519966Y-130542302D01*
X184515325Y-130584534D01*
X184553887Y-130579302D01*
X184576789Y-130569769D01*
X184653941Y-130499544D01*
X184685967Y-130383137D01*
X184703054Y-130335485D01*
X189590632Y-131736975D01*
X189589192Y-131764464D01*
X189611253Y-131774177D01*
X189651501Y-131768546D01*
X189648456Y-131753556D01*
X189598477Y-131733608D01*
X189590632Y-131736975D01*
X184703054Y-130335485D01*
X184742387Y-130225800D01*
X184810549Y-130156192D01*
X184906169Y-130054325D01*
X184939228Y-129994885D01*
X189467527Y-131293353D01*
X189470674Y-131363074D01*
X189506419Y-131400129D01*
X189524751Y-131396589D01*
X189531542Y-131350318D01*
X189516979Y-131314573D01*
X189480328Y-131277605D01*
X189467527Y-131293353D01*
X184939228Y-129994885D01*
X184959861Y-129957787D01*
X185013178Y-129855407D01*
X185064684Y-129800110D01*
X185133527Y-129745142D01*
X185232711Y-129653704D01*
X185272249Y-129614783D01*
X188075668Y-130418651D01*
X188091135Y-130446552D01*
X188119035Y-130431086D01*
X188103570Y-130403184D01*
X188075668Y-130418651D01*
X185272249Y-129614783D01*
X185372560Y-129530683D01*
X185407773Y-129512843D01*
X187115516Y-130002530D01*
X187130982Y-130030432D01*
X187158884Y-130014966D01*
X187143418Y-129987065D01*
X187115516Y-130002530D01*
X185407773Y-129512843D01*
X185456930Y-129487938D01*
X185481357Y-129487010D01*
X185562329Y-129486154D01*
X185582649Y-129476008D01*
X185639463Y-129480647D01*
X185697539Y-129521772D01*
X185754203Y-129567887D01*
X185769504Y-129545324D01*
X185768351Y-129522924D01*
X185779524Y-129476200D01*
X185828578Y-129499290D01*
X185875250Y-129524691D01*
X185880280Y-129484256D01*
X185872077Y-129441896D01*
X185869824Y-129360105D01*
X185905486Y-129354828D01*
X185964194Y-129425993D01*
X185995257Y-129470091D01*
X185992577Y-129436431D01*
X185991993Y-129433964D01*
X185993464Y-129427411D01*
X186587788Y-129597831D01*
X186584427Y-129643895D01*
X186585154Y-129653008D01*
X186604283Y-129715965D01*
X186623705Y-129721947D01*
X186631995Y-129674675D01*
X186616393Y-129635692D01*
X186587788Y-129597831D01*
X185993464Y-129427411D01*
X186002867Y-129385499D01*
X186022858Y-129384148D01*
X186044013Y-129366747D01*
X186552049Y-129512424D01*
X186567514Y-129540325D01*
X186595416Y-129524859D01*
X186579950Y-129496957D01*
X186552049Y-129512424D01*
X186044013Y-129366747D01*
X186061311Y-129352519D01*
X186107060Y-129254341D01*
X186126372Y-129194806D01*
X186358112Y-129261257D01*
X186356672Y-129288746D01*
X186378733Y-129298459D01*
X186418981Y-129292827D01*
X186415936Y-129277837D01*
X186365957Y-129257890D01*
X186358112Y-129261257D01*
X186126372Y-129194806D01*
X186130526Y-129182004D01*
X186160026Y-129097774D01*
X186508917Y-129197817D01*
X186503952Y-129219145D01*
X186504624Y-129256262D01*
X186500997Y-129356580D01*
X186495699Y-129394504D01*
X186498924Y-129422840D01*
X186521001Y-129399689D01*
X186523961Y-129387036D01*
X186669873Y-129428876D01*
X186675505Y-129469122D01*
X186690494Y-129466078D01*
X186710442Y-129416098D01*
X186707075Y-129408254D01*
X186679585Y-129406814D01*
X186669873Y-129428876D01*
X186523961Y-129387036D01*
X186539058Y-129322493D01*
X186529925Y-129261447D01*
X186508917Y-129197817D01*
X186160026Y-129097774D01*
X186179186Y-129043074D01*
X186187104Y-129032309D01*
X186434693Y-129103304D01*
X186450160Y-129131205D01*
X186478061Y-129115740D01*
X186462595Y-129087838D01*
X186434693Y-129103304D01*
X186187104Y-129032309D01*
X186232248Y-128970942D01*
X186290449Y-128945544D01*
X186372414Y-128895047D01*
X186386045Y-128842237D01*
X186389949Y-128794044D01*
X186407711Y-128827730D01*
X186459502Y-128865009D01*
X186553261Y-128844773D01*
X186671203Y-128777120D01*
X186795544Y-128672150D01*
X186904373Y-128545713D01*
X186965600Y-128489006D01*
X186995536Y-128512010D01*
X186986732Y-128581062D01*
X186954284Y-128648109D01*
X186932774Y-128659456D01*
X186881907Y-128680007D01*
X186799247Y-128741170D01*
X186796376Y-128743635D01*
X186710122Y-128829956D01*
X186636103Y-128923534D01*
X186587806Y-129003577D01*
X186578717Y-129049293D01*
X186596364Y-129051991D01*
X186626565Y-129068350D01*
X186619355Y-129092878D01*
X186599483Y-129178535D01*
X186596528Y-129263763D01*
X186603696Y-129327536D01*
X186625720Y-129331865D01*
X186676112Y-129270459D01*
X186721306Y-129205675D01*
X186818830Y-129086091D01*
X186920392Y-128994195D01*
X186951251Y-128974777D01*
X187027888Y-128937896D01*
X187036090Y-128952045D01*
X186997475Y-129011499D01*
X186951358Y-129101886D01*
X186899165Y-129237635D01*
X186848524Y-129393267D01*
X186807059Y-129543305D01*
X186782399Y-129662271D01*
X186782168Y-129724686D01*
X186783459Y-129726502D01*
X186802510Y-129716406D01*
X186803205Y-129679851D01*
X186807254Y-129638540D01*
X186841608Y-129654098D01*
X186909384Y-129719592D01*
X186980259Y-129811755D01*
X187006565Y-129886889D01*
X187005378Y-129894562D01*
X187007362Y-129935210D01*
X187065964Y-129920202D01*
X187069118Y-129918825D01*
X187132764Y-129866675D01*
X187196191Y-129884863D01*
X187211657Y-129912765D01*
X187239558Y-129897298D01*
X187224093Y-129869397D01*
X187196191Y-129884863D01*
X187132764Y-129866675D01*
X187146988Y-129855022D01*
X187169226Y-129812718D01*
X187173393Y-129765637D01*
X187134647Y-129790093D01*
X187081950Y-129809900D01*
X187061613Y-129751551D01*
X187074409Y-129621410D01*
X187099942Y-129504991D01*
X187133219Y-129395599D01*
X187160635Y-129345771D01*
X187171220Y-129352913D01*
X187172941Y-129439014D01*
X187154250Y-129537590D01*
X187142070Y-129628414D01*
X187179996Y-129655925D01*
X187190054Y-129655507D01*
X187259705Y-129675979D01*
X187274461Y-129698155D01*
X187306921Y-129757001D01*
X187339632Y-129738621D01*
X187361323Y-129655280D01*
X187364483Y-129600184D01*
X187373216Y-129486467D01*
X187392684Y-129419402D01*
X187397722Y-129414485D01*
X187415908Y-129440916D01*
X187418371Y-129528720D01*
X187417418Y-129541867D01*
X187417669Y-129657735D01*
X187437937Y-129691974D01*
X187468633Y-129648193D01*
X187500169Y-129529999D01*
X187503831Y-129509351D01*
X187540180Y-129372054D01*
X187590980Y-129266527D01*
X187608153Y-129245930D01*
X187653631Y-129209893D01*
X187656659Y-129238203D01*
X187634587Y-129306567D01*
X187575937Y-129494740D01*
X187554143Y-129616575D01*
X187569910Y-129666039D01*
X187593227Y-129661135D01*
X187636626Y-129601617D01*
X187630571Y-129517636D01*
X187626685Y-129428481D01*
X187649920Y-129385132D01*
X187683943Y-129404936D01*
X187699910Y-129443991D01*
X187721676Y-129477516D01*
X187750083Y-129430938D01*
X187764256Y-129390683D01*
X187793849Y-129306072D01*
X187805194Y-129305029D01*
X187807503Y-129379617D01*
X187827834Y-129467937D01*
X187867764Y-129500578D01*
X187899273Y-129527919D01*
X187879890Y-129566560D01*
X187834043Y-129636107D01*
X187823732Y-129657978D01*
X187804976Y-129647980D01*
X187788378Y-129608801D01*
X187766433Y-129562913D01*
X187753310Y-129603113D01*
X187750892Y-129621519D01*
X187767155Y-129702605D01*
X187799875Y-129729432D01*
X187851223Y-129782914D01*
X187866702Y-129842461D01*
X187876818Y-129902158D01*
X187907031Y-129895156D01*
X187930798Y-129869610D01*
X188010087Y-129892346D01*
X188032623Y-129993867D01*
X188036353Y-130002185D01*
X188078973Y-130079346D01*
X188116645Y-130084348D01*
X188148467Y-130057139D01*
X188179487Y-129987169D01*
X188149061Y-129938041D01*
X188107106Y-129850387D01*
X188108018Y-129803724D01*
X188110752Y-129760461D01*
X188073451Y-129788578D01*
X188055156Y-129808506D01*
X188010087Y-129892346D01*
X187930798Y-129869610D01*
X187965561Y-129832247D01*
X188028254Y-129734028D01*
X188022048Y-129684177D01*
X187993101Y-129624578D01*
X187980021Y-129553383D01*
X187985358Y-129504395D01*
X188008776Y-129508064D01*
X188051113Y-129511494D01*
X188063078Y-129490872D01*
X188080621Y-129484793D01*
X188093346Y-129543715D01*
X188118284Y-129632176D01*
X188149353Y-129665376D01*
X188172362Y-129712129D01*
X188163030Y-129786630D01*
X188152515Y-129871850D01*
X188169486Y-129905816D01*
X188196093Y-129872582D01*
X188213314Y-129801049D01*
X188249765Y-129811502D01*
X188265232Y-129839403D01*
X188293133Y-129823937D01*
X188277667Y-129796036D01*
X188249765Y-129811502D01*
X188213314Y-129801049D01*
X188219295Y-129776200D01*
X188226100Y-129722582D01*
X188227859Y-129709660D01*
X188377640Y-129752609D01*
X188390677Y-129781507D01*
X188435950Y-129753682D01*
X188487826Y-129670089D01*
X188489037Y-129667436D01*
X188516002Y-129585171D01*
X188497624Y-129572101D01*
X188444410Y-129626554D01*
X188406770Y-129680521D01*
X188377640Y-129752609D01*
X188227859Y-129709660D01*
X188242605Y-129601289D01*
X188261545Y-129525851D01*
X188268271Y-129515652D01*
X188280559Y-129535733D01*
X188276865Y-129553315D01*
X188292215Y-129609384D01*
X188305725Y-129616347D01*
X188346500Y-129586980D01*
X188387621Y-129498771D01*
X188390887Y-129488233D01*
X188449040Y-129366322D01*
X188524085Y-129280026D01*
X188586975Y-129236802D01*
X188589735Y-129254907D01*
X188555932Y-129316535D01*
X188523972Y-129399107D01*
X188556437Y-129437659D01*
X188564315Y-129440184D01*
X188630441Y-129419019D01*
X188661670Y-129357081D01*
X188709596Y-129253212D01*
X188788440Y-129133281D01*
X188800781Y-129117460D01*
X188893212Y-128991713D01*
X188921343Y-128924580D01*
X188886459Y-128912701D01*
X188878507Y-128914714D01*
X188863014Y-128909284D01*
X188892588Y-128867726D01*
X188974126Y-128782297D01*
X189114531Y-128645251D01*
X189142712Y-128618214D01*
X189198879Y-128573009D01*
X189213319Y-128576577D01*
X189244188Y-128584225D01*
X189332766Y-128561707D01*
X189375126Y-128546650D01*
X189536748Y-128501237D01*
X189701822Y-128477272D01*
X189715992Y-128476651D01*
X189870860Y-128449069D01*
X189937618Y-128423168D01*
X190066382Y-128460091D01*
X190085306Y-128516434D01*
X190130683Y-128540199D01*
X190159172Y-128536906D01*
X190135133Y-128513999D01*
X190115561Y-128458383D01*
X190128901Y-128438266D01*
X190137694Y-128413040D01*
X190111077Y-128416940D01*
X190066382Y-128460091D01*
X189937618Y-128423168D01*
X190027614Y-128388253D01*
X190046435Y-128377860D01*
X190189073Y-128317526D01*
X190322580Y-128321566D01*
X190360646Y-128332055D01*
X190514151Y-128379883D01*
X190217802Y-128431319D01*
X190377950Y-128445683D01*
X190551602Y-128473761D01*
X190748803Y-128524239D01*
X190938564Y-128587267D01*
X191089890Y-128652987D01*
X191152169Y-128691843D01*
X191184485Y-128725167D01*
X191154785Y-128726572D01*
X191055158Y-128694655D01*
X190951203Y-128656149D01*
X190774779Y-128595123D01*
X190638200Y-128567915D01*
X190500012Y-128569197D01*
X190385390Y-128583414D01*
X190207533Y-128603193D01*
X190039126Y-128611555D01*
X189955546Y-128609366D01*
X189784072Y-128603366D01*
X189599925Y-128610170D01*
X189434304Y-128627335D01*
X189318407Y-128652409D01*
X189298311Y-128660939D01*
X189237616Y-128710699D01*
X189138754Y-128809133D01*
X189021872Y-128936057D01*
X189008074Y-128951695D01*
X188899799Y-129080424D01*
X188822782Y-129192157D01*
X188762733Y-129314752D01*
X188705364Y-129476069D01*
X188655614Y-129638839D01*
X188598432Y-129847577D01*
X188566395Y-130000810D01*
X188561835Y-130086279D01*
X188568068Y-130098639D01*
X188613383Y-130086657D01*
X188640240Y-130041371D01*
X188651439Y-129968193D01*
X188637137Y-129946046D01*
X188631945Y-129903125D01*
X188651996Y-129805436D01*
X188688237Y-129681670D01*
X188731619Y-129560520D01*
X188773088Y-129470676D01*
X188796249Y-129441711D01*
X188811319Y-129443391D01*
X188812250Y-129481020D01*
X188796757Y-129567927D01*
X188762555Y-129717443D01*
X188717073Y-129903689D01*
X188681032Y-130076635D01*
X188683254Y-130183140D01*
X188731665Y-130241746D01*
X188834194Y-130270991D01*
X188876629Y-130276802D01*
X188992300Y-130299369D01*
X189021216Y-130327944D01*
X189015531Y-130335043D01*
X189006342Y-130376448D01*
X189021294Y-130384736D01*
X189069027Y-130358559D01*
X189098625Y-130301310D01*
X189124348Y-130247761D01*
X189136157Y-130260452D01*
X189183606Y-130306032D01*
X189268520Y-130317874D01*
X189420382Y-130360519D01*
X189550537Y-130486915D01*
X189581323Y-130533588D01*
X189645551Y-130604738D01*
X189700121Y-130611639D01*
X189717738Y-130584438D01*
X189763897Y-130556036D01*
X189795225Y-130559724D01*
X189846005Y-130600407D01*
X189847452Y-130623106D01*
X189797651Y-130665980D01*
X189762415Y-130674144D01*
X189686566Y-130707546D01*
X189679059Y-130767612D01*
X189739079Y-130823049D01*
X189766539Y-130833100D01*
X189836377Y-130868024D01*
X189838280Y-130900605D01*
X189766665Y-130919496D01*
X189714865Y-130912149D01*
X189639827Y-130913309D01*
X189616700Y-130936801D01*
X189645532Y-130977311D01*
X189740275Y-130996876D01*
X189838445Y-131016860D01*
X189862337Y-131059843D01*
X189860115Y-131069974D01*
X189873477Y-131150583D01*
X189905608Y-131197753D01*
X189937976Y-131247336D01*
X189923647Y-131257604D01*
X189835302Y-131249296D01*
X189832209Y-131249130D01*
X189744073Y-131240440D01*
X189733909Y-131238997D01*
X189695584Y-131268558D01*
X189679116Y-131340449D01*
X189690112Y-131408243D01*
X189711156Y-131427355D01*
X189763588Y-131405052D01*
X189790285Y-131376670D01*
X189843591Y-131341325D01*
X189878714Y-131371345D01*
X189880896Y-131441928D01*
X189860012Y-131493849D01*
X189830579Y-131603279D01*
X189835669Y-131728149D01*
X189842824Y-131871907D01*
X189820412Y-132025539D01*
X189818448Y-132032659D01*
X189799888Y-132177299D01*
X189841580Y-132272027D01*
X189882726Y-132341029D01*
X189847868Y-132392045D01*
X189843203Y-132395303D01*
X189801322Y-132449305D01*
X189832552Y-132515120D01*
X189862060Y-132568477D01*
X189854069Y-132628780D01*
X189802001Y-132724370D01*
X189773546Y-132769234D01*
X189700583Y-132898883D01*
X189682463Y-132981905D01*
X189691970Y-133012106D01*
X189704065Y-133059525D01*
X189669777Y-133058165D01*
X189623374Y-133078680D01*
X189609157Y-133158117D01*
X189601060Y-133237809D01*
X189573083Y-133258401D01*
X189508800Y-133218818D01*
X189423439Y-133145964D01*
X189342869Y-133081497D01*
X189269825Y-133051863D01*
X189169728Y-133049305D01*
X189047100Y-133061517D01*
X188871484Y-133069231D01*
X188702885Y-133056827D01*
X188633878Y-133042727D01*
X188516773Y-133021042D01*
X188436456Y-133027422D01*
X188427439Y-133032943D01*
X188359120Y-133046573D01*
X188341210Y-133037569D01*
X188267300Y-133024399D01*
X188150981Y-133038842D01*
X188027862Y-133071998D01*
X187933548Y-133114965D01*
X187903465Y-133146995D01*
X187862222Y-133191866D01*
X187843733Y-133191626D01*
X187812527Y-133146013D01*
X187814874Y-133128595D01*
X187808244Y-133092965D01*
X187796959Y-133095971D01*
X187780914Y-133148077D01*
X187788859Y-133226874D01*
X187794838Y-133301851D01*
X187758938Y-133353579D01*
X187661549Y-133406101D01*
X187631888Y-133419289D01*
X187510212Y-133465429D01*
X187420398Y-133486713D01*
X187402062Y-133486118D01*
X187361435Y-133514541D01*
X187343414Y-133585124D01*
X187310465Y-133688965D01*
X187239561Y-133818134D01*
X187205531Y-133866936D01*
X187127185Y-133980201D01*
X187094393Y-134067948D01*
X187094214Y-134173365D01*
X187099334Y-134221337D01*
X187104393Y-134378551D01*
X187092420Y-134564812D01*
X187081574Y-134645832D01*
X187064154Y-134792799D01*
X187074976Y-134873304D01*
X187116867Y-134907464D01*
X187118442Y-134907929D01*
X187162376Y-134933360D01*
X187158086Y-134987185D01*
X187112088Y-135080502D01*
X187062923Y-135191938D01*
X187046727Y-135275017D01*
X187048704Y-135285261D01*
X187046372Y-135368477D01*
X187010220Y-135517811D01*
X186944290Y-135717476D01*
X186923956Y-135772534D01*
X186866806Y-135847062D01*
X186759479Y-135935722D01*
X186693541Y-135978640D01*
X186568041Y-136045913D01*
X186479933Y-136065563D01*
X186393140Y-136042352D01*
X186353487Y-136023528D01*
X186238354Y-135946437D01*
X186107993Y-135831878D01*
X186048276Y-135769434D01*
X185924591Y-135649893D01*
X185811573Y-135573452D01*
X185722189Y-135542308D01*
X185669409Y-135558655D01*
X185666200Y-135624692D01*
X185706082Y-135711480D01*
X185843291Y-135937895D01*
X185952740Y-136101831D01*
X186048249Y-136220892D01*
X186143638Y-136312681D01*
X186230161Y-136379023D01*
X186388907Y-136480205D01*
X186504873Y-136521909D01*
X186598397Y-136509143D01*
X186646495Y-136481527D01*
X186699735Y-136462533D01*
X186764149Y-136492134D01*
X186846965Y-136563322D01*
X187033814Y-136684894D01*
X187155715Y-136722422D01*
X187269467Y-136751494D01*
X187317785Y-136794383D01*
X187325781Y-136857066D01*
X187335767Y-136928887D01*
X187381084Y-136927421D01*
X187392162Y-136921618D01*
X187468673Y-136894391D01*
X187509621Y-136903006D01*
X187491259Y-136939267D01*
X187476196Y-136950624D01*
X187394320Y-136968211D01*
X187268373Y-136958484D01*
X187224412Y-136949351D01*
X187067889Y-136923559D01*
X186877584Y-136908538D01*
X186778419Y-136906818D01*
X186617337Y-136900908D01*
X186432147Y-136877774D01*
X186208587Y-136834546D01*
X185932387Y-136768351D01*
X185589283Y-136676319D01*
X185476577Y-136644765D01*
X185281163Y-136591343D01*
X185158379Y-136563334D01*
X185094721Y-136559276D01*
X185076684Y-136577702D01*
X185083502Y-136602135D01*
X185154106Y-136668397D01*
X185216709Y-136684106D01*
X185309864Y-136708894D01*
X185443011Y-136768156D01*
X185536181Y-136819231D01*
X185695643Y-136902420D01*
X185797358Y-136926831D01*
X185822624Y-136921269D01*
X185887257Y-136924084D01*
X186006817Y-136950820D01*
X186152093Y-136992794D01*
X186293874Y-137041322D01*
X186402951Y-137087723D01*
X186426067Y-137100635D01*
X186431308Y-137142358D01*
X186431605Y-137186727D01*
X186437405Y-137237485D01*
X186467797Y-137211349D01*
X186487971Y-137182300D01*
X186555029Y-137127710D01*
X186671795Y-137108595D01*
X186773641Y-137111680D01*
X186936707Y-137124354D01*
X187019915Y-137136078D01*
X187033562Y-137149576D01*
X186987945Y-137167575D01*
X186986486Y-137168003D01*
X186931844Y-137202724D01*
X186930349Y-137224744D01*
X186981331Y-137235779D01*
X187093108Y-137228247D01*
X187201210Y-137211096D01*
X187342247Y-137188903D01*
X187456829Y-137179231D01*
X187528998Y-137181618D01*
X187542793Y-137195599D01*
X187486661Y-137219392D01*
X187440199Y-137243693D01*
X187448611Y-137254696D01*
X187445029Y-137282918D01*
X187384303Y-137330842D01*
X187286574Y-137373414D01*
X187222607Y-137378344D01*
X187161356Y-137398659D01*
X187145080Y-137428562D01*
X187078840Y-137516380D01*
X186951493Y-137589531D01*
X186792156Y-137634378D01*
X186689354Y-137641977D01*
X186567822Y-137633289D01*
X186489425Y-137615387D01*
X186479781Y-137609115D01*
X186420059Y-137592311D01*
X186315481Y-137593868D01*
X186189695Y-137600222D01*
X186100044Y-137594984D01*
X186004986Y-137596198D01*
X185961114Y-137630723D01*
X185966245Y-137656920D01*
X186019473Y-137688853D01*
X186135856Y-137732094D01*
X186290212Y-137779559D01*
X186457363Y-137824157D01*
X186612126Y-137858803D01*
X186729322Y-137876408D01*
X186749291Y-137877314D01*
X186855877Y-137857491D01*
X187007453Y-137804478D01*
X187032370Y-137793130D01*
X187755489Y-138000481D01*
X187754675Y-138040428D01*
X187783862Y-138055551D01*
X187849692Y-138049923D01*
X187863909Y-138031570D01*
X187844862Y-137980518D01*
X187835536Y-137976501D01*
X187767762Y-137991182D01*
X187755489Y-138000481D01*
X187032370Y-137793130D01*
X187166404Y-137732085D01*
X187311545Y-137661063D01*
X187424819Y-137611862D01*
X187483177Y-137594433D01*
X187484652Y-137594671D01*
X187520381Y-137564587D01*
X187534573Y-137530469D01*
X187859390Y-137623608D01*
X187850617Y-137683419D01*
X187890617Y-137724775D01*
X187973345Y-137768264D01*
X188019014Y-137783162D01*
X188007368Y-137763338D01*
X188000967Y-137758186D01*
X187968332Y-137687016D01*
X187971683Y-137655716D01*
X187959063Y-137600221D01*
X187933915Y-137593064D01*
X187859390Y-137623608D01*
X187534573Y-137530469D01*
X187546441Y-137501943D01*
X187608554Y-137403153D01*
X187679614Y-137349190D01*
X187769798Y-137321785D01*
X187838091Y-137359480D01*
X187854686Y-137377015D01*
X187894793Y-137459519D01*
X187883932Y-137511400D01*
X187867862Y-137549622D01*
X187919155Y-137549899D01*
X187946961Y-137544323D01*
X188046313Y-137511796D01*
X188092429Y-137484799D01*
X188157531Y-137476796D01*
X188213513Y-137501333D01*
X188273164Y-137526809D01*
X188278068Y-137498286D01*
X188225963Y-137440403D01*
X188173345Y-137416296D01*
X188114282Y-137377348D01*
X188127214Y-137334170D01*
X188145109Y-137262429D01*
X188132667Y-137236570D01*
X188121124Y-137168619D01*
X188138253Y-137123382D01*
X188144473Y-137056015D01*
X188317179Y-137105538D01*
X188332645Y-137133439D01*
X188360546Y-137117973D01*
X188345080Y-137090071D01*
X188317179Y-137105538D01*
X188144473Y-137056015D01*
X188145493Y-137044955D01*
X188105500Y-137006348D01*
X188049802Y-136945073D01*
X188045602Y-136906901D01*
X188071060Y-136877739D01*
X188080807Y-136887485D01*
X188134668Y-136907625D01*
X188193809Y-136902592D01*
X188266591Y-136900943D01*
X188273671Y-136929913D01*
X188293035Y-136963955D01*
X188315028Y-136961899D01*
X188372426Y-136986221D01*
X188429239Y-137062847D01*
X188464266Y-137146443D01*
X188447705Y-137179592D01*
X188413861Y-137185783D01*
X188350277Y-137215468D01*
X188318416Y-137268822D01*
X188331574Y-137311956D01*
X188361546Y-137319082D01*
X188439334Y-137281590D01*
X188537017Y-137188253D01*
X188633944Y-137063836D01*
X188709465Y-136933103D01*
X188732365Y-136874354D01*
X188805056Y-136737709D01*
X188903165Y-136681246D01*
X189009105Y-136706496D01*
X189105290Y-136814988D01*
X189118875Y-136840733D01*
X189141702Y-136928750D01*
X189104566Y-137017623D01*
X189083091Y-137047751D01*
X189029291Y-137140702D01*
X189041464Y-137186965D01*
X189053105Y-137233736D01*
X189011352Y-137288927D01*
X188957968Y-137366380D01*
X188975995Y-137399907D01*
X189056704Y-137375530D01*
X189063231Y-137371985D01*
X189161917Y-137333037D01*
X189200843Y-137353998D01*
X189174728Y-137429176D01*
X189150662Y-137492770D01*
X189182553Y-137499049D01*
X189234156Y-137447991D01*
X189280634Y-137345907D01*
X189284049Y-137334553D01*
X189323204Y-137236561D01*
X189365571Y-137218538D01*
X189379613Y-137226739D01*
X189425461Y-137226823D01*
X189480774Y-137154769D01*
X189524626Y-137067380D01*
X189575290Y-136967631D01*
X189607863Y-136933502D01*
X189623840Y-136970505D01*
X189624721Y-137084151D01*
X189612002Y-137279950D01*
X189605085Y-137363420D01*
X189588426Y-137517001D01*
X189562206Y-137640306D01*
X189516209Y-137762913D01*
X189440224Y-137914406D01*
X189371877Y-138038857D01*
X189268368Y-138218212D01*
X189168396Y-138380513D01*
X189088088Y-138499970D01*
X189063968Y-138531321D01*
X188981185Y-138630768D01*
X188918635Y-138706428D01*
X188916612Y-138708896D01*
X188837640Y-138796648D01*
X188760692Y-138869350D01*
X188706446Y-138908988D01*
X188693665Y-138903102D01*
X188664903Y-138902254D01*
X188578585Y-138941593D01*
X188453152Y-139012661D01*
X188448446Y-139015518D01*
X188318378Y-139091276D01*
X188223718Y-139140002D01*
X188184903Y-139151180D01*
X188184891Y-139151147D01*
X188172738Y-139087648D01*
X188159575Y-138984782D01*
X188150290Y-138886123D01*
X188149523Y-138835960D01*
X188177613Y-138838060D01*
X188182675Y-138843103D01*
X188214487Y-138827762D01*
X188254298Y-138750150D01*
X188255534Y-138746818D01*
X188311363Y-138648836D01*
X188412345Y-138514092D01*
X188537339Y-138367026D01*
X188665200Y-138232081D01*
X188774785Y-138133699D01*
X188803564Y-138113277D01*
X188869496Y-138048469D01*
X188946846Y-137941987D01*
X189019330Y-137821243D01*
X189070668Y-137713645D01*
X189084578Y-137646603D01*
X189083058Y-137642761D01*
X189034565Y-137636302D01*
X188945395Y-137671224D01*
X188941855Y-137673166D01*
X188863844Y-137731013D01*
X188842158Y-137778326D01*
X188842748Y-137779515D01*
X188889562Y-137786348D01*
X188950958Y-137753181D01*
X189011813Y-137710316D01*
X189011340Y-137730768D01*
X188984076Y-137779272D01*
X188905109Y-137867343D01*
X188845131Y-137903698D01*
X188776863Y-137951183D01*
X188669693Y-138049179D01*
X188543125Y-138179416D01*
X188499167Y-138227764D01*
X188379267Y-138354410D01*
X188280590Y-138444644D01*
X188218417Y-138485074D01*
X188206794Y-138483903D01*
X188157459Y-138477766D01*
X188147674Y-138488115D01*
X188143242Y-138472793D01*
X188160986Y-138390997D01*
X188182655Y-138311222D01*
X188234859Y-138169682D01*
X188287954Y-138096245D01*
X188304870Y-138089605D01*
X188369272Y-138058973D01*
X188359209Y-138001100D01*
X188307564Y-137957452D01*
X188250812Y-137878278D01*
X188253367Y-137819104D01*
X188248354Y-137737789D01*
X188214351Y-137709655D01*
X188151078Y-137731765D01*
X188120698Y-137790748D01*
X188075603Y-137883003D01*
X188037246Y-137920898D01*
X187995313Y-137989953D01*
X187961005Y-138143043D01*
X187950478Y-138220749D01*
X187925249Y-138385375D01*
X187887356Y-138498029D01*
X187821219Y-138596926D01*
X187775446Y-138650083D01*
X187683368Y-138741740D01*
X187611624Y-138793418D01*
X187590759Y-138798049D01*
X187532717Y-138813164D01*
X187423717Y-138864468D01*
X187310097Y-138927701D01*
X187046300Y-139044023D01*
X186803049Y-139083249D01*
X186632519Y-139097708D01*
X186479779Y-139119983D01*
X186408183Y-139136592D01*
X186269060Y-139150414D01*
X186157656Y-139130090D01*
X186045721Y-139102264D01*
X185969260Y-139102452D01*
X185884389Y-139090754D01*
X185750567Y-139033230D01*
X185588512Y-138941387D01*
X185418949Y-138826733D01*
X185291455Y-138726013D01*
X185174531Y-138603627D01*
X185045408Y-138434253D01*
X184930298Y-138252549D01*
X184921526Y-138236785D01*
X184834280Y-138080492D01*
X184796378Y-138020241D01*
X184901683Y-138050436D01*
X184917149Y-138078338D01*
X184945051Y-138062872D01*
X184929585Y-138034970D01*
X184901683Y-138050436D01*
X184796378Y-138020241D01*
X184780613Y-137995182D01*
X184751869Y-137972103D01*
X184739390Y-138002502D01*
X184735789Y-138049022D01*
X184758049Y-138189956D01*
X184828996Y-138378255D01*
X184938581Y-138592782D01*
X185076755Y-138812404D01*
X185140802Y-138900955D01*
X185228916Y-139020139D01*
X185265606Y-139084236D01*
X185254368Y-139109753D01*
X185198697Y-139113195D01*
X185185660Y-139112792D01*
X185096748Y-139132168D01*
X185047562Y-139180380D01*
X185053945Y-139232196D01*
X185095743Y-139255955D01*
X185141165Y-139301787D01*
X185131514Y-139372348D01*
X185080455Y-139433916D01*
X185015484Y-139454010D01*
X184935337Y-139468176D01*
X184911260Y-139490130D01*
X184865959Y-139510765D01*
X184812951Y-139503401D01*
X184693491Y-139491219D01*
X184638700Y-139497295D01*
X184533427Y-139515145D01*
X184399077Y-139532132D01*
X184394543Y-139532609D01*
X184272780Y-139562743D01*
X184221768Y-139613390D01*
X184249768Y-139673159D01*
X184278108Y-139693153D01*
X184310512Y-139719369D01*
X184261722Y-139714454D01*
X184246735Y-139711065D01*
X184172875Y-139711244D01*
X184160502Y-139741916D01*
X184211505Y-139788574D01*
X184237740Y-139791042D01*
X184273272Y-139811498D01*
X184252318Y-139865462D01*
X184232765Y-139909534D01*
X184249753Y-139938836D01*
X184319927Y-139962383D01*
X184459925Y-139989188D01*
X184462973Y-139989716D01*
X185221876Y-140207328D01*
X185237342Y-140235230D01*
X185265244Y-140219763D01*
X185249778Y-140191861D01*
X185221876Y-140207328D01*
X184462973Y-139989716D01*
X184490503Y-139994483D01*
X184701787Y-140025124D01*
X184937974Y-140051019D01*
X185075854Y-140061862D01*
X185250079Y-140072857D01*
X185403133Y-140083257D01*
X185490226Y-140089867D01*
X185604744Y-140099684D01*
X185463125Y-140143461D01*
X185363289Y-140182850D01*
X185312557Y-140219252D01*
X185311712Y-140221386D01*
X185343159Y-140247548D01*
X185435328Y-140263552D01*
X185558988Y-140266269D01*
X185653234Y-140257935D01*
X185787153Y-140242736D01*
X185931160Y-140232196D01*
X186035820Y-140229921D01*
X186036724Y-140229963D01*
X186103343Y-140213341D01*
X186215169Y-140168996D01*
X186260962Y-140148127D01*
X186426564Y-140082268D01*
X186601081Y-140030179D01*
X186624855Y-140024819D01*
X186791656Y-139973729D01*
X186958260Y-139899601D01*
X186979678Y-139887672D01*
X187112697Y-139822268D01*
X187291126Y-139749328D01*
X187454060Y-139692069D01*
X187712751Y-139603382D01*
X187928837Y-139517588D01*
X188090782Y-139440115D01*
X188187050Y-139376390D01*
X188208608Y-139337035D01*
X188215853Y-139314250D01*
X188238247Y-139333732D01*
X188296955Y-139335849D01*
X188413183Y-139293332D01*
X188571729Y-139214965D01*
X188757393Y-139109531D01*
X188954974Y-138985817D01*
X189149272Y-138852603D01*
X189325086Y-138718677D01*
X189375875Y-138676320D01*
X189668856Y-138421678D01*
X189901004Y-138208803D01*
X190082774Y-138024155D01*
X190224627Y-137854197D01*
X190337021Y-137685387D01*
X190430414Y-137504186D01*
X190515265Y-137297057D01*
X190578684Y-137119189D01*
X190648249Y-136954177D01*
X190727428Y-136853216D01*
X190783799Y-136814269D01*
X190898386Y-136722938D01*
X190935368Y-136606044D01*
X190922253Y-136500104D01*
X190914966Y-136371409D01*
X190933266Y-136202801D01*
X190970539Y-136022630D01*
X191020167Y-135859247D01*
X191075537Y-135741004D01*
X191108010Y-135704038D01*
X191148250Y-135646431D01*
X191206838Y-135527911D01*
X191271994Y-135372619D01*
X191280536Y-135350453D01*
X191407362Y-135020379D01*
X191507819Y-134766149D01*
X191586250Y-134578764D01*
X191647003Y-134449224D01*
X191694419Y-134368528D01*
X191732843Y-134327680D01*
X191766620Y-134317680D01*
X191778079Y-134319782D01*
X191809424Y-134317796D01*
X191837513Y-134282691D01*
X191867417Y-134200562D01*
X191904210Y-134057508D01*
X191952495Y-133841792D01*
X191997805Y-133636091D01*
X192037868Y-133459598D01*
X192067899Y-133333071D01*
X192081902Y-133280496D01*
X192184063Y-132972529D01*
X192259825Y-132737932D01*
X192312556Y-132564896D01*
X192345627Y-132441614D01*
X192362409Y-132356278D01*
X192366269Y-132297077D01*
X192365695Y-132286055D01*
X192367565Y-132168133D01*
X192382922Y-132015197D01*
X192390051Y-131967384D01*
X192405884Y-131811505D01*
X192404849Y-131670358D01*
X192400805Y-131638277D01*
X192386311Y-131513266D01*
X192377029Y-131353142D01*
X192375773Y-131299684D01*
X192369350Y-131162204D01*
X192356197Y-131060389D01*
X192349104Y-131036249D01*
X192338812Y-130949291D01*
X192344845Y-130915883D01*
X192349533Y-130838169D01*
X192338513Y-130726350D01*
X192317466Y-130611405D01*
X192292069Y-130524313D01*
X192268000Y-130496052D01*
X192267898Y-130496106D01*
X192241467Y-130468553D01*
X192215337Y-130385338D01*
X192183604Y-130290987D01*
X192149820Y-130249287D01*
X192137621Y-130217003D01*
X192147774Y-130204979D01*
X192151124Y-130149686D01*
X192114653Y-130085671D01*
X192072970Y-130014791D01*
X192076418Y-129982178D01*
X192090839Y-129928473D01*
X192078575Y-129819995D01*
X192046401Y-129685763D01*
X192001092Y-129554801D01*
X191955749Y-129465325D01*
X191853661Y-129321127D01*
X191749430Y-129191703D01*
X191661085Y-129098132D01*
X191611057Y-129062261D01*
X191576691Y-129017837D01*
X191578369Y-129005954D01*
X191624505Y-128977387D01*
X191654963Y-128980983D01*
X191725340Y-128968668D01*
X191842794Y-128918003D01*
X191954968Y-128855808D01*
X192085789Y-128781742D01*
X192187433Y-128734343D01*
X192231758Y-128723975D01*
X192301967Y-128714273D01*
X192347799Y-128694087D01*
X192430978Y-128675021D01*
X192570593Y-128667820D01*
X192704569Y-128672247D01*
X192848785Y-128686293D01*
X192968057Y-128711626D01*
X193091093Y-128758077D01*
G37*
D12*
X122360735Y-80876787D02*
X121957997Y-81521304D01*
X121716219Y-80474048D02*
X122360735Y-80876787D01*
X119413901Y-80450415D02*
X119477779Y-80490330D01*
D10*
X186270806Y-117638102D02*
X168490806Y-117638102D01*
X186270806Y-87158102D02*
X186270806Y-117638102D01*
X181190806Y-87158102D02*
X186270806Y-87158102D01*
X181190806Y-84618102D02*
X181190806Y-87158102D01*
X173570806Y-84618102D02*
X181190806Y-84618102D01*
X173570806Y-87158102D02*
X173570806Y-84618102D01*
X168490806Y-87158102D02*
X173570806Y-87158102D01*
X168490806Y-87158102D02*
X168490806Y-117638102D01*
%LPC*%
X134067089Y-124809308D02*
X134524833Y-124940564D01*
X133896787Y-125057703D02*
X134492845Y-124188320D01*
X134537628Y-125241461D01*
X135237369Y-125392570D02*
X135132695Y-125412094D01*
X134949597Y-125359591D01*
X134871174Y-125287566D01*
X134851651Y-125182891D01*
X134956656Y-124816697D01*
X135028681Y-124738273D01*
X135133355Y-124718750D01*
X135316453Y-124771253D01*
X135394876Y-124843278D01*
X135414399Y-124947952D01*
X135388148Y-125039501D01*
X134904153Y-124999794D01*
X136277715Y-125046890D02*
X136054580Y-125825054D01*
X135982554Y-125903477D01*
X135923654Y-125936126D01*
X135818980Y-125955649D01*
X135681657Y-125916272D01*
X135603234Y-125844247D01*
X136107082Y-125641957D02*
X136002408Y-125661480D01*
X135819310Y-125608978D01*
X135740887Y-125536952D01*
X135708238Y-125478052D01*
X135688715Y-125373378D01*
X135767469Y-125098731D01*
X135839494Y-125020308D01*
X135898394Y-124987660D01*
X136003068Y-124968136D01*
X136186166Y-125020639D01*
X136264589Y-125092664D01*
X136551700Y-125818987D02*
X136735458Y-125178146D01*
X136827337Y-124857725D02*
X136768437Y-124890374D01*
X136801086Y-124949274D01*
X136859986Y-124916625D01*
X136827337Y-124857725D01*
X136801086Y-124949274D01*
X136976795Y-125891343D02*
X137055218Y-125963368D01*
X137238316Y-126015871D01*
X137342990Y-125996348D01*
X137415015Y-125917924D01*
X137428141Y-125872150D01*
X137408618Y-125767476D01*
X137330195Y-125695450D01*
X137192872Y-125656073D01*
X137114448Y-125584048D01*
X137094925Y-125479374D01*
X137108051Y-125433599D01*
X137180076Y-125355176D01*
X137284751Y-125335653D01*
X137422074Y-125375030D01*
X137500497Y-125447055D01*
X138612207Y-125716295D02*
X138657321Y-126422764D01*
X139069951Y-125847551D01*
X139755906Y-126737778D02*
X139206613Y-126580271D01*
X139481259Y-126659025D02*
X139756897Y-125697763D01*
X139625971Y-125808835D01*
X139508171Y-125874132D01*
X139403497Y-125893656D01*
X140194126Y-126764360D02*
X140226775Y-126823260D01*
X140167875Y-126855908D01*
X140135226Y-126797008D01*
X140194126Y-126764360D01*
X140167875Y-126855908D01*
X132415664Y-127372453D02*
X132231906Y-128013295D01*
X132003695Y-127254323D02*
X131859313Y-127757841D01*
X131878836Y-127862516D01*
X131957260Y-127934541D01*
X132094583Y-127973918D01*
X132199257Y-127954395D01*
X132258157Y-127921746D01*
X133665028Y-127334398D02*
X132486698Y-128334046D01*
X134272229Y-128499272D02*
X134213329Y-128531921D01*
X134062880Y-128538318D01*
X133971332Y-128512067D01*
X133847134Y-128426916D01*
X133781837Y-128309116D01*
X133762313Y-128204442D01*
X133769041Y-128008219D01*
X133808418Y-127870895D01*
X133906695Y-127700924D01*
X133978720Y-127622500D01*
X134096520Y-127557203D01*
X134246969Y-127550805D01*
X134338518Y-127577056D01*
X134462715Y-127662208D01*
X134495364Y-127721108D01*
X134795270Y-128748328D02*
X134716847Y-128676302D01*
X134684198Y-128617402D01*
X134664675Y-128512728D01*
X134743429Y-128238082D01*
X134815454Y-128159658D01*
X134874354Y-128127010D01*
X134979028Y-128107486D01*
X135116352Y-128146863D01*
X135194775Y-128218889D01*
X135227423Y-128277789D01*
X135246947Y-128382463D01*
X135168193Y-128657109D01*
X135096168Y-128735532D01*
X135037268Y-128768181D01*
X134932593Y-128787704D01*
X134795270Y-128748328D01*
X136123388Y-128435626D02*
X135939629Y-129076467D01*
X135711418Y-128317496D02*
X135567037Y-128821014D01*
X135586560Y-128925688D01*
X135664983Y-128997714D01*
X135802306Y-129037090D01*
X135906981Y-129017567D01*
X135965881Y-128984919D01*
X136397373Y-129207723D02*
X136581131Y-128566882D01*
X136554880Y-128658431D02*
X136613780Y-128625782D01*
X136718454Y-128606259D01*
X136855777Y-128645636D01*
X136934201Y-128717661D01*
X136953724Y-128822335D01*
X136809342Y-129325853D01*
X136953724Y-128822335D02*
X137025749Y-128743912D01*
X137130424Y-128724389D01*
X137267747Y-128763766D01*
X137346170Y-128835791D01*
X137365693Y-128940466D01*
X137221312Y-129443984D01*
X137679055Y-129575240D02*
X137954693Y-128613978D01*
X137849688Y-128980173D02*
X137954362Y-128960650D01*
X138137460Y-129013152D01*
X138215883Y-129085178D01*
X138248532Y-129144078D01*
X138268055Y-129248752D01*
X138189301Y-129523398D01*
X138117276Y-129601821D01*
X138058376Y-129634470D01*
X137953702Y-129653993D01*
X137770604Y-129601491D01*
X137692181Y-129529465D01*
X138960738Y-129942756D02*
X139105119Y-129439238D01*
X139085596Y-129334564D01*
X139007173Y-129262538D01*
X138824075Y-129210036D01*
X138719401Y-129229559D01*
X138973863Y-129896982D02*
X138869189Y-129916505D01*
X138640317Y-129850877D01*
X138561894Y-129778851D01*
X138542371Y-129674177D01*
X138568622Y-129582628D01*
X138640647Y-129504205D01*
X138745322Y-129484682D01*
X138974194Y-129550310D01*
X139078868Y-129530787D01*
X139510691Y-129406920D02*
X139555804Y-130113389D01*
X139968434Y-129538176D02*
X139555804Y-130113389D01*
X139398628Y-130316009D01*
X139339728Y-130348658D01*
X139235053Y-130368181D01*
X140562840Y-130402152D02*
X140707222Y-129898634D01*
X140687699Y-129793959D01*
X140609276Y-129721934D01*
X140426178Y-129669431D01*
X140321504Y-129688955D01*
X140575966Y-130356377D02*
X140471292Y-130375900D01*
X140242420Y-130310273D01*
X140163997Y-130238247D01*
X140144474Y-130133573D01*
X140170725Y-130042024D01*
X140242750Y-129963601D01*
X140347425Y-129944078D01*
X140576296Y-130009706D01*
X140680971Y-129990182D01*
D13*
X180880812Y-128648109D03*
X174380812Y-128648109D03*
D14*
X181304623Y-120784859D03*
X178764623Y-120784859D03*
X176224623Y-120784859D03*
D15*
X173684623Y-120784859D03*
D16*
X151910338Y-100823498D02*
X151658736Y-100660106D01*
X150526955Y-102953721D02*
X150275353Y-102790329D01*
D11*
G36*
X150410683Y-104814611D02*
G01*
X149412904Y-106351055D01*
X147624859Y-105189885D01*
X148622638Y-103653441D01*
X150410683Y-104814611D01*
G37*
D17*
X120236459Y-80445568D02*
X120236459Y-80445568D01*
D11*
G36*
X121138191Y-80359305D02*
G01*
X122072740Y-80943276D01*
X121488769Y-81877825D01*
X120554220Y-81293854D01*
X121138191Y-80359305D01*
G37*
G36*
X75973876Y-49435105D02*
G01*
X75081729Y-48877630D01*
X75824676Y-47688667D01*
X76716823Y-48246142D01*
X75973876Y-49435105D01*
G37*
D18*
X76977661Y-46836108D03*
D11*
G36*
X73178115Y-54331021D02*
G01*
X71906890Y-53536672D01*
X72701239Y-52265447D01*
X73972464Y-53059796D01*
X73178115Y-54331021D01*
G37*
G36*
X74092662Y-52445675D02*
G01*
X73200515Y-51888200D01*
X73943462Y-50699237D01*
X74835609Y-51256712D01*
X74092662Y-52445675D01*
G37*
G36*
X105815071Y-73388259D02*
G01*
X104922924Y-72830784D01*
X105665871Y-71641821D01*
X106558018Y-72199296D01*
X105815071Y-73388259D01*
G37*
D18*
X106818856Y-70789262D03*
D11*
G36*
X103019310Y-78284175D02*
G01*
X101748085Y-77489826D01*
X102542434Y-76218601D01*
X103813659Y-77012950D01*
X103019310Y-78284175D01*
G37*
G36*
X103933857Y-76398829D02*
G01*
X103041710Y-75841354D01*
X103784657Y-74652391D01*
X104676804Y-75209866D01*
X103933857Y-76398829D01*
G37*
G36*
X90761991Y-61623700D02*
G01*
X89869844Y-61066225D01*
X90612791Y-59877262D01*
X91504938Y-60434737D01*
X90761991Y-61623700D01*
G37*
D18*
X91765776Y-59024703D03*
D11*
G36*
X87966230Y-66519616D02*
G01*
X86695005Y-65725267D01*
X87489354Y-64454042D01*
X88760579Y-65248391D01*
X87966230Y-66519616D01*
G37*
G36*
X88880777Y-64634270D02*
G01*
X87988630Y-64076795D01*
X88731577Y-62887832D01*
X89623724Y-63445307D01*
X88880777Y-64634270D01*
G37*
G36*
X139525627Y-89885211D02*
G01*
X138968152Y-90777358D01*
X137779189Y-90034411D01*
X138336664Y-89142264D01*
X139525627Y-89885211D01*
G37*
D18*
X136926630Y-88881426D03*
D11*
G36*
X144421543Y-92680972D02*
G01*
X143627194Y-93952197D01*
X142355969Y-93157848D01*
X143150318Y-91886623D01*
X144421543Y-92680972D01*
G37*
G36*
X142536197Y-91766425D02*
G01*
X141978722Y-92658572D01*
X140789759Y-91915625D01*
X141347234Y-91023478D01*
X142536197Y-91766425D01*
G37*
D19*
X239630805Y-152873111D03*
D18*
X239630805Y-150838111D03*
D20*
X239630805Y-158458111D03*
D19*
X239630805Y-156423111D03*
D11*
G36*
X218110923Y-153724577D02*
G01*
X217094769Y-153996855D01*
X216731905Y-152642627D01*
X217748059Y-152370349D01*
X218110923Y-153724577D01*
G37*
D18*
X216894717Y-151217943D03*
D11*
G36*
X219784865Y-159108274D02*
G01*
X218336942Y-159496243D01*
X217948973Y-158048320D01*
X219396896Y-157660351D01*
X219784865Y-159108274D01*
G37*
G36*
X219029731Y-157153613D02*
G01*
X218013577Y-157425891D01*
X217650713Y-156071663D01*
X218666867Y-155799385D01*
X219029731Y-157153613D01*
G37*
G36*
X193322300Y-170045814D02*
G01*
X192780480Y-169144074D01*
X193982228Y-168421990D01*
X194524048Y-169323730D01*
X193322300Y-170045814D01*
G37*
D18*
X195396599Y-168185800D03*
D11*
G36*
X188608559Y-173138858D02*
G01*
X187836517Y-171853964D01*
X189121411Y-171081922D01*
X189893453Y-172366816D01*
X188608559Y-173138858D01*
G37*
G36*
X190279356Y-171874200D02*
G01*
X189737536Y-170972460D01*
X190939284Y-170250376D01*
X191481104Y-171152116D01*
X190279356Y-171874200D01*
G37*
G36*
X83644380Y-123600989D02*
G01*
X82715519Y-124094873D01*
X82057320Y-122856981D01*
X82986181Y-122363097D01*
X83644380Y-123600989D01*
G37*
D18*
X81895475Y-121432187D03*
D11*
G36*
X86486487Y-128470147D02*
G01*
X85162949Y-129173885D01*
X84459211Y-127850347D01*
X85782749Y-127146609D01*
X86486487Y-128470147D01*
G37*
G36*
X85311004Y-126735453D02*
G01*
X84382143Y-127229337D01*
X83723944Y-125991445D01*
X84652805Y-125497561D01*
X85311004Y-126735453D01*
G37*
G36*
X67391116Y-121217075D02*
G01*
X66673654Y-120447691D01*
X67699012Y-119491529D01*
X68416474Y-120260913D01*
X67391116Y-121217075D01*
G37*
D18*
X69033369Y-118966435D03*
D11*
G36*
X63423461Y-125222570D02*
G01*
X62401146Y-124126271D01*
X63497445Y-123103956D01*
X64519760Y-124200255D01*
X63423461Y-125222570D01*
G37*
G36*
X64794810Y-123638169D02*
G01*
X64077348Y-122868785D01*
X65102706Y-121912623D01*
X65820168Y-122682007D01*
X64794810Y-123638169D01*
G37*
G36*
X52632618Y-104716186D02*
G01*
X51740471Y-104158711D01*
X52483418Y-102969748D01*
X53375565Y-103527223D01*
X52632618Y-104716186D01*
G37*
D18*
X53636403Y-102117189D03*
D11*
G36*
X49836857Y-109612102D02*
G01*
X48565632Y-108817753D01*
X49359981Y-107546528D01*
X50631206Y-108340877D01*
X49836857Y-109612102D01*
G37*
G36*
X50751404Y-107726756D02*
G01*
X49859257Y-107169281D01*
X50602204Y-105980318D01*
X51494351Y-106537793D01*
X50751404Y-107726756D01*
G37*
D19*
X303880807Y-139123111D03*
D18*
X303880807Y-137088111D03*
D20*
X303880807Y-144708111D03*
D19*
X303880807Y-142673111D03*
X303880797Y-120373106D03*
D18*
X303880797Y-118338106D03*
D20*
X303880797Y-125958106D03*
D19*
X303880797Y-123923106D03*
X303880787Y-101123093D03*
D18*
X303880787Y-99088093D03*
D20*
X303880787Y-106708093D03*
D19*
X303880787Y-104673093D03*
X286880798Y-138123125D03*
D18*
X286880798Y-136088125D03*
D20*
X286880798Y-143708125D03*
D19*
X286880798Y-141673125D03*
X286880795Y-119123108D03*
D18*
X286880795Y-117088108D03*
D20*
X286880795Y-124708108D03*
D19*
X286880795Y-122673108D03*
X286880808Y-99873119D03*
D18*
X286880808Y-97838119D03*
D20*
X286880808Y-105458119D03*
D19*
X286880808Y-103423119D03*
X267880794Y-133623117D03*
D18*
X267880794Y-131588117D03*
D20*
X267880794Y-139208117D03*
D19*
X267880794Y-137173117D03*
X267880795Y-114373109D03*
D18*
X267880795Y-112338109D03*
D20*
X267880795Y-119958109D03*
D19*
X267880795Y-117923109D03*
X267880817Y-97873100D03*
D18*
X267880817Y-95838100D03*
D20*
X267880817Y-103458100D03*
D19*
X267880817Y-101423100D03*
X248880789Y-130873113D03*
D18*
X248880789Y-128838113D03*
D20*
X248880789Y-136458113D03*
D19*
X248880789Y-134423113D03*
X248880785Y-112123105D03*
D18*
X248880785Y-110088105D03*
D20*
X248880785Y-117708105D03*
D19*
X248880785Y-115673105D03*
X248880801Y-93123100D03*
D18*
X248880801Y-91088100D03*
D20*
X248880801Y-98708100D03*
D19*
X248880801Y-96673100D03*
X229880805Y-133123097D03*
D18*
X229880805Y-131088097D03*
D20*
X229880805Y-138708097D03*
D19*
X229880805Y-136673097D03*
X229880800Y-114373110D03*
D18*
X229880800Y-112338110D03*
D20*
X229880800Y-119958110D03*
D19*
X229880800Y-117923110D03*
X229880802Y-95373108D03*
D18*
X229880802Y-93338108D03*
D20*
X229880802Y-100958108D03*
D19*
X229880802Y-98923108D03*
X210880815Y-135873108D03*
D18*
X210880815Y-133838108D03*
D20*
X210880815Y-141458108D03*
D19*
X210880815Y-139423108D03*
X210880800Y-116873105D03*
D18*
X210880800Y-114838105D03*
D20*
X210880800Y-122458105D03*
D19*
X210880800Y-120423105D03*
X210880791Y-97873111D03*
D18*
X210880791Y-95838111D03*
D20*
X210880791Y-103458111D03*
D19*
X210880791Y-101423111D03*
D11*
G36*
X85280716Y-106250136D02*
G01*
X84388569Y-105692661D01*
X85131516Y-104503698D01*
X86023663Y-105061173D01*
X85280716Y-106250136D01*
G37*
D18*
X86284501Y-103651139D03*
D11*
G36*
X82484955Y-111146052D02*
G01*
X81213730Y-110351703D01*
X82008079Y-109080478D01*
X83279304Y-109874827D01*
X82484955Y-111146052D01*
G37*
G36*
X83399502Y-109260706D02*
G01*
X82507355Y-108703231D01*
X83250302Y-107514268D01*
X84142449Y-108071743D01*
X83399502Y-109260706D01*
G37*
G36*
X95349148Y-90137213D02*
G01*
X94457001Y-89579738D01*
X95199948Y-88390775D01*
X96092095Y-88948250D01*
X95349148Y-90137213D01*
G37*
D18*
X96352933Y-87538216D03*
D11*
G36*
X92553387Y-95033129D02*
G01*
X91282162Y-94238780D01*
X92076511Y-92967555D01*
X93347736Y-93761904D01*
X92553387Y-95033129D01*
G37*
G36*
X93467934Y-93147783D02*
G01*
X92575787Y-92590308D01*
X93318734Y-91401345D01*
X94210881Y-91958820D01*
X93467934Y-93147783D01*
G37*
G36*
X70625057Y-93849513D02*
G01*
X69732910Y-93292038D01*
X70475857Y-92103075D01*
X71368004Y-92660550D01*
X70625057Y-93849513D01*
G37*
D18*
X71628842Y-91250516D03*
D11*
G36*
X67829296Y-98745429D02*
G01*
X66558071Y-97951080D01*
X67352420Y-96679855D01*
X68623645Y-97474204D01*
X67829296Y-98745429D01*
G37*
G36*
X68743843Y-96860083D02*
G01*
X67851696Y-96302608D01*
X68594643Y-95113645D01*
X69486790Y-95671120D01*
X68743843Y-96860083D01*
G37*
G36*
X80561051Y-77948620D02*
G01*
X79668904Y-77391145D01*
X80411851Y-76202182D01*
X81303998Y-76759657D01*
X80561051Y-77948620D01*
G37*
D18*
X81564836Y-75349623D03*
D11*
G36*
X77765290Y-82844536D02*
G01*
X76494065Y-82050187D01*
X77288414Y-80778962D01*
X78559639Y-81573311D01*
X77765290Y-82844536D01*
G37*
G36*
X78679837Y-80959190D02*
G01*
X77787690Y-80401715D01*
X78530637Y-79212752D01*
X79422784Y-79770227D01*
X78679837Y-80959190D01*
G37*
G36*
X55704466Y-81872938D02*
G01*
X54812319Y-81315463D01*
X55555266Y-80126500D01*
X56447413Y-80683975D01*
X55704466Y-81872938D01*
G37*
D18*
X56708251Y-79273941D03*
D11*
G36*
X52908705Y-86768854D02*
G01*
X51637480Y-85974505D01*
X52431829Y-84703280D01*
X53703054Y-85497629D01*
X52908705Y-86768854D01*
G37*
G36*
X53823252Y-84883508D02*
G01*
X52931105Y-84326033D01*
X53674052Y-83137070D01*
X54566199Y-83694545D01*
X53823252Y-84883508D01*
G37*
G36*
X65772923Y-65760036D02*
G01*
X64880776Y-65202561D01*
X65623723Y-64013598D01*
X66515870Y-64571073D01*
X65772923Y-65760036D01*
G37*
D18*
X66776708Y-63161039D03*
D11*
G36*
X62977162Y-70655952D02*
G01*
X61705937Y-69861603D01*
X62500286Y-68590378D01*
X63771511Y-69384727D01*
X62977162Y-70655952D01*
G37*
G36*
X63891709Y-68770606D02*
G01*
X62999562Y-68213131D01*
X63742509Y-67024168D01*
X64634656Y-67581643D01*
X63891709Y-68770606D01*
G37*
G36*
X38399230Y-73712604D02*
G01*
X37507083Y-73155129D01*
X38250030Y-71966166D01*
X39142177Y-72523641D01*
X38399230Y-73712604D01*
G37*
D18*
X39403015Y-71113607D03*
D11*
G36*
X35603469Y-78608520D02*
G01*
X34332244Y-77814171D01*
X35126593Y-76542946D01*
X36397818Y-77337295D01*
X35603469Y-78608520D01*
G37*
G36*
X36518016Y-76723174D02*
G01*
X35625869Y-76165699D01*
X36368816Y-74976736D01*
X37260963Y-75534211D01*
X36518016Y-76723174D01*
G37*
G36*
X48467692Y-57599670D02*
G01*
X47575545Y-57042195D01*
X48318492Y-55853232D01*
X49210639Y-56410707D01*
X48467692Y-57599670D01*
G37*
D18*
X49471477Y-55000673D03*
D11*
G36*
X45671931Y-62495586D02*
G01*
X44400706Y-61701237D01*
X45195055Y-60430012D01*
X46466280Y-61224361D01*
X45671931Y-62495586D01*
G37*
G36*
X46586478Y-60610240D02*
G01*
X45694331Y-60052765D01*
X46437278Y-58863802D01*
X47329425Y-59421277D01*
X46586478Y-60610240D01*
G37*
G36*
X58668647Y-41274761D02*
G01*
X57776500Y-40717286D01*
X58519447Y-39528323D01*
X59411594Y-40085798D01*
X58668647Y-41274761D01*
G37*
D18*
X59672432Y-38675764D03*
D11*
G36*
X55872886Y-46170677D02*
G01*
X54601661Y-45376328D01*
X55396010Y-44105103D01*
X56667235Y-44899452D01*
X55872886Y-46170677D01*
G37*
G36*
X56787433Y-44285331D02*
G01*
X55895286Y-43727856D01*
X56638233Y-42538893D01*
X57530380Y-43096368D01*
X56787433Y-44285331D01*
G37*
G36*
X19901680Y-67460352D02*
G01*
X19009533Y-66902877D01*
X19752480Y-65713914D01*
X20644627Y-66271389D01*
X19901680Y-67460352D01*
G37*
D18*
X20905465Y-64861355D03*
D11*
G36*
X17105919Y-72356268D02*
G01*
X15834694Y-71561919D01*
X16629043Y-70290694D01*
X17900268Y-71085043D01*
X17105919Y-72356268D01*
G37*
G36*
X18020466Y-70470922D02*
G01*
X17128319Y-69913447D01*
X17871266Y-68724484D01*
X18763413Y-69281959D01*
X18020466Y-70470922D01*
G37*
G36*
X29970159Y-51347433D02*
G01*
X29078012Y-50789958D01*
X29820959Y-49600995D01*
X30713106Y-50158470D01*
X29970159Y-51347433D01*
G37*
D18*
X30973944Y-48748436D03*
D11*
G36*
X27174398Y-56243349D02*
G01*
X25903173Y-55449000D01*
X26697522Y-54177775D01*
X27968747Y-54972124D01*
X27174398Y-56243349D01*
G37*
G36*
X28088945Y-54358003D02*
G01*
X27196798Y-53800528D01*
X27939745Y-52611565D01*
X28831892Y-53169040D01*
X28088945Y-54358003D01*
G37*
G36*
X40038612Y-35234521D02*
G01*
X39146465Y-34677046D01*
X39889412Y-33488083D01*
X40781559Y-34045558D01*
X40038612Y-35234521D01*
G37*
D18*
X41042397Y-32635524D03*
D11*
G36*
X37242851Y-40130437D02*
G01*
X35971626Y-39336088D01*
X36765975Y-38064863D01*
X38037200Y-38859212D01*
X37242851Y-40130437D01*
G37*
G36*
X38157398Y-38245091D02*
G01*
X37265251Y-37687616D01*
X38008198Y-36498653D01*
X38900345Y-37056128D01*
X38157398Y-38245091D01*
G37*
G36*
X3643032Y-57625067D02*
G01*
X2750885Y-57067592D01*
X3493832Y-55878629D01*
X4385979Y-56436104D01*
X3643032Y-57625067D01*
G37*
D18*
X4646817Y-55026070D03*
D11*
G36*
X847271Y-62520983D02*
G01*
X-423954Y-61726634D01*
X370395Y-60455409D01*
X1641620Y-61249758D01*
X847271Y-62520983D01*
G37*
G36*
X1761818Y-60635637D02*
G01*
X869671Y-60078162D01*
X1612618Y-58889199D01*
X2504765Y-59446674D01*
X1761818Y-60635637D01*
G37*
G36*
X13711511Y-41512182D02*
G01*
X12819364Y-40954707D01*
X13562311Y-39765744D01*
X14454458Y-40323219D01*
X13711511Y-41512182D01*
G37*
D18*
X14715296Y-38913185D03*
D11*
G36*
X10915750Y-46408098D02*
G01*
X9644525Y-45613749D01*
X10438874Y-44342524D01*
X11710099Y-45136873D01*
X10915750Y-46408098D01*
G37*
G36*
X11830297Y-44522752D02*
G01*
X10938150Y-43965277D01*
X11681097Y-42776314D01*
X12573244Y-43333789D01*
X11830297Y-44522752D01*
G37*
G36*
X23954847Y-25213746D02*
G01*
X23062700Y-24656271D01*
X23805647Y-23467308D01*
X24697794Y-24024783D01*
X23954847Y-25213746D01*
G37*
D18*
X24958632Y-22614749D03*
D11*
G36*
X21159086Y-30109662D02*
G01*
X19887861Y-29315313D01*
X20682210Y-28044088D01*
X21953435Y-28838437D01*
X21159086Y-30109662D01*
G37*
G36*
X22073633Y-28224316D02*
G01*
X21181486Y-27666841D01*
X21924433Y-26477878D01*
X22816580Y-27035353D01*
X22073633Y-28224316D01*
G37*
D21*
X134938166Y-98460813D02*
X134887824Y-98541377D01*
X132784124Y-97114818D02*
X132733782Y-97195382D01*
D11*
G36*
X129196950Y-96168630D02*
G01*
X130310840Y-94386032D01*
X132012872Y-95449580D01*
X130898982Y-97232178D01*
X129196950Y-96168630D01*
G37*
D22*
X123930498Y-111283581D02*
X123930498Y-111283581D01*
D23*
X140198481Y-94567141D02*
X140198481Y-94567141D01*
D24*
X133666866Y-90642551D03*
D25*
X185000806Y-88428102D03*
X185000806Y-90968102D03*
X185000806Y-93508102D03*
X185000806Y-96048102D03*
X185000806Y-98588102D03*
X185000806Y-101128102D03*
X185000806Y-103668102D03*
X185000806Y-106208102D03*
X185000806Y-108748102D03*
X185000806Y-111288102D03*
X185000806Y-113828102D03*
X185000806Y-116368102D03*
X169760806Y-116368102D03*
X169760806Y-113828102D03*
X169760806Y-111288102D03*
X169760806Y-108748102D03*
X169760806Y-106208102D03*
X169760806Y-103668102D03*
X169760806Y-101128102D03*
X169760806Y-98588102D03*
X169760806Y-96048102D03*
X169760806Y-93508102D03*
X169760806Y-90968102D03*
D26*
X169760806Y-88428102D03*
D27*
X232540579Y-150572222D03*
D28*
X230000579Y-155652222D03*
D27*
X226190579Y-153112222D03*
D29*
X224920579Y-155652222D03*
X235080579Y-155652222D03*
D27*
X210064240Y-152887917D03*
D28*
X208925589Y-158452221D03*
D27*
X204588011Y-156984870D03*
D29*
X204018686Y-159767022D03*
X213832492Y-157137420D03*
D27*
X192370000Y-161836920D03*
D28*
X186700591Y-162177215D03*
D27*
X186995296Y-157607658D03*
D29*
X184160591Y-157777806D03*
X189240591Y-166576624D03*
D27*
X75665515Y-124694524D03*
D28*
X75807744Y-130372356D03*
D27*
X71251256Y-129918356D03*
D29*
X71322370Y-132757272D03*
X80293118Y-127987440D03*
D27*
X64437031Y-113834314D03*
D28*
X58989478Y-115441227D03*
D27*
X58248703Y-110922494D03*
D29*
X55524926Y-111725950D03*
X62454030Y-119156504D03*
D27*
X47510266Y-98976325D03*
D28*
X42664234Y-101938414D03*
D27*
X40779166Y-97765379D03*
D29*
X38356150Y-99246424D03*
X46972318Y-104630404D03*
D27*
X298990589Y-135697227D03*
D28*
X296450589Y-140777227D03*
D27*
X292640589Y-138237227D03*
D29*
X291370589Y-140777227D03*
X301530589Y-140777227D03*
D27*
X298970588Y-116722213D03*
D28*
X296430588Y-121802213D03*
D27*
X292620588Y-119262213D03*
D29*
X291350588Y-121802213D03*
X301510588Y-121802213D03*
D27*
X299020586Y-97697243D03*
D28*
X296480586Y-102777243D03*
D27*
X292670586Y-100237243D03*
D29*
X291400586Y-102777243D03*
X301560586Y-102777243D03*
D27*
X279995593Y-135697212D03*
D28*
X277455593Y-140777212D03*
D27*
X273645593Y-138237212D03*
D29*
X272375593Y-140777212D03*
X282535593Y-140777212D03*
D27*
X279970593Y-116722240D03*
D28*
X277430593Y-121802240D03*
D27*
X273620593Y-119262240D03*
D29*
X272350593Y-121802240D03*
X282510593Y-121802240D03*
D27*
X279965595Y-97722230D03*
D28*
X277425595Y-102802230D03*
D27*
X273615595Y-100262230D03*
D29*
X272345595Y-102802230D03*
X282505595Y-102802230D03*
D27*
X260995584Y-130947228D03*
D28*
X258455584Y-136027228D03*
D27*
X254645584Y-133487228D03*
D29*
X253375584Y-136027228D03*
X263535584Y-136027228D03*
D27*
X260970597Y-111972220D03*
D28*
X258430597Y-117052220D03*
D27*
X254620597Y-114512220D03*
D29*
X253350597Y-117052220D03*
X263510597Y-117052220D03*
D27*
X260970590Y-92947219D03*
D28*
X258430590Y-98027219D03*
D27*
X254620590Y-95487219D03*
D29*
X253350590Y-98027219D03*
X263510590Y-98027219D03*
D27*
X241965587Y-128547235D03*
D28*
X239425587Y-133627235D03*
D27*
X235615587Y-131087235D03*
D29*
X234345587Y-133627235D03*
X244505587Y-133627235D03*
D27*
X241990590Y-109597229D03*
D28*
X239450590Y-114677229D03*
D27*
X235640590Y-112137229D03*
D29*
X234370590Y-114677229D03*
X244530590Y-114677229D03*
D27*
X241965593Y-90597231D03*
D28*
X239425593Y-95677231D03*
D27*
X235615593Y-93137231D03*
D29*
X234345593Y-95677231D03*
X244505593Y-95677231D03*
D27*
X222995597Y-130947217D03*
D28*
X220455597Y-136027217D03*
D27*
X216645597Y-133487217D03*
D29*
X215375597Y-136027217D03*
X225535597Y-136027217D03*
D27*
X222970596Y-111947217D03*
D28*
X220430596Y-117027217D03*
D27*
X216620596Y-114487217D03*
D29*
X215350596Y-117027217D03*
X225510596Y-117027217D03*
D27*
X223015597Y-92922216D03*
D28*
X220475597Y-98002216D03*
D27*
X216665597Y-95462216D03*
D29*
X215395597Y-98002216D03*
X225555597Y-98002216D03*
D27*
X203945589Y-133347230D03*
D28*
X201405589Y-138427230D03*
D27*
X197595589Y-135887230D03*
D29*
X196325589Y-138427230D03*
X206485589Y-138427230D03*
D27*
X203965573Y-114347235D03*
D28*
X201425573Y-119427235D03*
D27*
X197615573Y-116887235D03*
D29*
X196345573Y-119427235D03*
X206505573Y-119427235D03*
D27*
X203940586Y-95347223D03*
D28*
X201400586Y-100427223D03*
D27*
X197590586Y-97887223D03*
D29*
X196320586Y-100427223D03*
X206480586Y-100427223D03*
D27*
X80751846Y-99466080D03*
D28*
X75905814Y-102428169D03*
D27*
X74020746Y-98255134D03*
D29*
X71597730Y-99736179D03*
X80213898Y-105120159D03*
D27*
X90845737Y-83369052D03*
D28*
X85999705Y-86331141D03*
D27*
X84114637Y-82158106D03*
D29*
X81691621Y-83639151D03*
X90307789Y-89023131D03*
D27*
X100927456Y-67234965D03*
D28*
X96081424Y-70197054D03*
D27*
X94196356Y-66024019D03*
D29*
X91773340Y-67505064D03*
X100389508Y-72889044D03*
D27*
X65939888Y-87410002D03*
D28*
X61093856Y-90372091D03*
D27*
X59208788Y-86199056D03*
D29*
X56785772Y-87680101D03*
X65401940Y-93064081D03*
D27*
X75991378Y-71286483D03*
D28*
X71145346Y-74248572D03*
D27*
X69260278Y-70075537D03*
D29*
X66837262Y-71556582D03*
X75453430Y-76940562D03*
D27*
X86090067Y-55162982D03*
D28*
X81244035Y-58125071D03*
D27*
X79358967Y-53952036D03*
D29*
X76935951Y-55433081D03*
X85552119Y-60817061D03*
D27*
X51029883Y-75322134D03*
D28*
X46183851Y-78284223D03*
D27*
X44298783Y-74111188D03*
D29*
X41875767Y-75592233D03*
X50491935Y-80976213D03*
D27*
X61115835Y-59190658D03*
D28*
X56269803Y-62152747D03*
D27*
X54384735Y-57979712D03*
D29*
X51961719Y-59460757D03*
X60577887Y-64844737D03*
D27*
X71214514Y-43067149D03*
D28*
X66368482Y-46029238D03*
D27*
X64483414Y-41856203D03*
D29*
X62060398Y-43337248D03*
X70676566Y-48721228D03*
D27*
X33684900Y-67225371D03*
D28*
X28838868Y-70187460D03*
D27*
X26953800Y-66014425D03*
D29*
X24530784Y-67495470D03*
X33146952Y-72879450D03*
D27*
X43774573Y-51125704D03*
D28*
X38928541Y-54087793D03*
D27*
X37043473Y-49914758D03*
D29*
X34620457Y-51395803D03*
X43236625Y-56779783D03*
D27*
X53808585Y-35020752D03*
D28*
X48962553Y-37982841D03*
D27*
X47077485Y-33809806D03*
D29*
X44654469Y-35290851D03*
X53270637Y-40674831D03*
D27*
X15032624Y-61230196D03*
D28*
X10186592Y-64192285D03*
D27*
X8301524Y-60019250D03*
D29*
X5878508Y-61500295D03*
X14494676Y-66884275D03*
D27*
X25114340Y-45096090D03*
D28*
X20268308Y-48058179D03*
D27*
X18383240Y-43885144D03*
D29*
X15960224Y-45366189D03*
X24576392Y-50750169D03*
D27*
X35178562Y-28980509D03*
D28*
X30332530Y-31942598D03*
D27*
X28447462Y-27769563D03*
D29*
X26024446Y-29250608D03*
X34640614Y-34634588D03*
D27*
X-1036841Y-51129926D03*
D28*
X-5882873Y-54092015D03*
D27*
X-7767941Y-49918980D03*
D29*
X-10190957Y-51400025D03*
X-1574789Y-56784005D03*
D27*
X8975977Y-35011699D03*
D28*
X4129945Y-37973788D03*
D27*
X2244877Y-33800753D03*
D29*
X-178139Y-35281798D03*
X8438029Y-40665778D03*
D27*
X19078876Y-18890829D03*
D28*
X14232844Y-21852918D03*
D27*
X12347776Y-17679883D03*
D29*
X9924760Y-19160928D03*
X18540928Y-24544908D03*
M02*
