G04 #@! TF.GenerationSoftware,KiCad,Pcbnew,(5.1.5)-3*
G04 #@! TF.CreationDate,2020-10-24T16:29:20+02:00*
G04 #@! TF.ProjectId,aegis,61656769-732e-46b6-9963-61645f706362,rev?*
G04 #@! TF.SameCoordinates,Original*
G04 #@! TF.FileFunction,Legend,Bot*
G04 #@! TF.FilePolarity,Positive*
%FSLAX46Y46*%
G04 Gerber Fmt 4.6, Leading zero omitted, Abs format (unit mm)*
G04 Created by KiCad (PCBNEW (5.1.5)-3) date 2020-10-24 16:29:20*
%MOMM*%
%LPD*%
G04 APERTURE LIST*
%ADD10C,0.150000*%
%ADD11C,0.300000*%
%ADD12C,0.120000*%
%ADD13C,2.102000*%
%ADD14O,1.832000X2.132000*%
%ADD15R,1.832000X2.132000*%
%ADD16C,1.832000*%
%ADD17C,0.100000*%
%ADD18C,1.102000*%
%ADD19C,1.499000*%
%ADD20R,1.499000X1.499000*%
%ADD21R,1.052000X1.402000*%
%ADD22R,1.902000X0.922000*%
%ADD23C,2.007000*%
%ADD24C,3.602000*%
%ADD25C,1.502000*%
%ADD26C,1.502000*%
%ADD27C,1.702000*%
%ADD28R,1.702000X1.702000*%
%ADD29C,2.352000*%
%ADD30C,4.089800*%
%ADD31C,1.852000*%
G04 APERTURE END LIST*
D10*
X127269092Y-85145729D02*
X127122114Y-85112970D01*
X126918027Y-84990342D01*
X126860917Y-84900473D01*
X126844626Y-84835130D01*
X126852859Y-84728969D01*
X126901911Y-84647334D01*
X126991779Y-84590225D01*
X127057122Y-84573933D01*
X127163283Y-84582167D01*
X127351079Y-84639452D01*
X127457239Y-84647686D01*
X127522582Y-84631394D01*
X127612451Y-84574284D01*
X127661502Y-84492649D01*
X127669736Y-84386489D01*
X127653444Y-84321146D01*
X127596335Y-84231277D01*
X127392247Y-84108649D01*
X127245269Y-84075889D01*
X126264947Y-84597932D02*
X126371108Y-84606166D01*
X126436451Y-84589874D01*
X126526319Y-84532764D01*
X126673473Y-84287859D01*
X126681707Y-84181699D01*
X126665415Y-84116356D01*
X126608306Y-84026487D01*
X126485853Y-83952910D01*
X126379693Y-83944676D01*
X126314349Y-83960968D01*
X126224481Y-84018077D01*
X126077327Y-84262982D01*
X126069093Y-84369143D01*
X126085385Y-84434486D01*
X126142494Y-84524355D01*
X126264947Y-84597932D01*
X125489415Y-84131945D02*
X125595575Y-84140179D01*
X125685444Y-84083069D01*
X126126905Y-83348354D01*
X124860860Y-83698717D02*
X124917970Y-83788586D01*
X125081240Y-83886689D01*
X125187400Y-83894922D01*
X125277269Y-83837813D01*
X125473474Y-83511273D01*
X125481708Y-83405113D01*
X125424598Y-83315244D01*
X125261328Y-83217141D01*
X125155168Y-83208908D01*
X125065299Y-83266017D01*
X125016248Y-83347652D01*
X125375372Y-83674543D01*
X124771519Y-82922834D02*
X124428160Y-83494279D01*
X124722467Y-83004469D02*
X124706175Y-82939126D01*
X124649066Y-82849257D01*
X124526614Y-82775680D01*
X124420453Y-82767446D01*
X124330584Y-82824556D01*
X124060802Y-83273548D01*
X123530175Y-82954715D02*
X123636336Y-82962949D01*
X123701679Y-82946657D01*
X123791548Y-82889548D01*
X123938701Y-82644643D01*
X123946935Y-82538482D01*
X123930643Y-82473139D01*
X123873534Y-82383270D01*
X123751081Y-82309693D01*
X123644921Y-82301460D01*
X123579578Y-82317751D01*
X123489709Y-82374861D01*
X123342555Y-82619766D01*
X123334321Y-82725926D01*
X123350613Y-82791269D01*
X123407723Y-82881138D01*
X123530175Y-82954715D01*
X122877095Y-82562305D02*
X123220454Y-81990860D01*
X123392133Y-81705138D02*
X123408425Y-81770481D01*
X123343082Y-81786773D01*
X123326790Y-81721430D01*
X123392133Y-81705138D01*
X123343082Y-81786773D01*
X122101563Y-82096318D02*
X122616601Y-81239151D01*
X122126089Y-82055501D02*
X122183198Y-82145369D01*
X122346468Y-82243472D01*
X122452628Y-82251706D01*
X122517972Y-82235414D01*
X122607840Y-82178305D01*
X122754994Y-81933400D01*
X122763228Y-81827239D01*
X122746936Y-81761896D01*
X122689827Y-81672027D01*
X122526557Y-81573925D01*
X122420396Y-81565691D01*
D11*
X143292837Y-118104438D02*
X143568474Y-117143177D01*
X143706293Y-116662546D02*
X143755266Y-116750896D01*
X143666916Y-116799869D01*
X143617943Y-116711519D01*
X143706293Y-116662546D01*
X143666916Y-116799869D01*
X142881859Y-116946293D02*
X142606221Y-117907554D01*
X142842482Y-117083616D02*
X142793509Y-116995266D01*
X142675874Y-116887228D01*
X142469890Y-116828162D01*
X142312878Y-116857447D01*
X142204840Y-116975082D01*
X141988268Y-117730359D01*
X141714612Y-116611590D02*
X141095667Y-117474410D01*
X141027997Y-116414706D01*
X139673463Y-116992292D02*
X139791098Y-117100331D01*
X140065744Y-117179084D01*
X140222756Y-117149799D01*
X140330794Y-117032165D01*
X140488301Y-116482872D01*
X140459016Y-116325861D01*
X140341381Y-116217823D01*
X140066735Y-116139069D01*
X139909724Y-116168354D01*
X139801685Y-116285989D01*
X139762309Y-116423312D01*
X140409547Y-116757519D01*
X138967159Y-116864070D02*
X139242797Y-115902808D01*
X139164043Y-116177455D02*
X139134758Y-116020443D01*
X139085785Y-115932093D01*
X138968150Y-115824055D01*
X138830827Y-115784678D01*
X138556181Y-115705925D02*
X138006889Y-115548418D01*
X138488015Y-115166229D02*
X138133624Y-116402136D01*
X138025586Y-116519771D01*
X137868575Y-116549056D01*
X137731251Y-116509679D01*
X136721017Y-116145692D02*
X136838651Y-116253730D01*
X137113298Y-116332484D01*
X137270309Y-116303199D01*
X137378347Y-116185564D01*
X137535854Y-115636272D01*
X137506570Y-115479260D01*
X137388935Y-115371222D01*
X137114289Y-115292469D01*
X136957277Y-115321753D01*
X136849239Y-115439388D01*
X136809862Y-115576711D01*
X137457101Y-115910918D01*
X135396759Y-115840274D02*
X135810215Y-114398382D01*
X135416447Y-115771613D02*
X135534082Y-115879651D01*
X135808728Y-115958405D01*
X135965740Y-115929120D01*
X136054089Y-115880147D01*
X136162128Y-115762512D01*
X136280258Y-115350543D01*
X136250973Y-115193531D01*
X136202000Y-115105181D01*
X136084365Y-114997143D01*
X135809719Y-114918389D01*
X135652708Y-114947674D01*
D10*
X180630812Y-130148109D02*
X180630812Y-130398109D01*
X180630812Y-130398109D02*
X174630812Y-130398109D01*
X174630812Y-130398109D02*
X174630812Y-130148109D01*
X174630812Y-127148109D02*
X174630812Y-126898109D01*
X174630812Y-126898109D02*
X180630812Y-126898109D01*
X180630812Y-126898109D02*
X180630812Y-127148109D01*
D12*
X150157636Y-105700084D02*
X150720015Y-106065298D01*
X150531792Y-105646261D02*
X150255116Y-106072306D01*
X152975458Y-101818055D02*
X153230001Y-101426094D01*
D10*
X77025487Y-48174881D02*
X75753415Y-47380002D01*
X74163923Y-52754340D02*
X77025487Y-48174881D01*
X72891851Y-51959461D02*
X74163923Y-52754340D01*
X75753415Y-47380002D02*
X72891851Y-51959461D01*
X74269685Y-50226235D02*
X75117733Y-50756155D01*
X75647653Y-49908107D02*
X74746701Y-50406390D01*
X74799605Y-49378187D02*
X75647653Y-49908107D01*
X74746701Y-50406390D02*
X74799605Y-49378187D01*
X106866682Y-72128035D02*
X105594610Y-71333156D01*
X104005118Y-76707494D02*
X106866682Y-72128035D01*
X102733046Y-75912615D02*
X104005118Y-76707494D01*
X105594610Y-71333156D02*
X102733046Y-75912615D01*
X104110880Y-74179389D02*
X104958928Y-74709309D01*
X105488848Y-73861261D02*
X104587896Y-74359544D01*
X104640800Y-73331341D02*
X105488848Y-73861261D01*
X104587896Y-74359544D02*
X104640800Y-73331341D01*
X91813602Y-60363476D02*
X90541530Y-59568597D01*
X88952038Y-64942935D02*
X91813602Y-60363476D01*
X87679966Y-64148056D02*
X88952038Y-64942935D01*
X90541530Y-59568597D02*
X87679966Y-64148056D01*
X89057800Y-62414830D02*
X89905848Y-62944750D01*
X90435768Y-62096702D02*
X89534816Y-62594985D01*
X89587720Y-61566782D02*
X90435768Y-62096702D01*
X89534816Y-62594985D02*
X89587720Y-61566782D01*
X138265403Y-88833600D02*
X137470524Y-90105672D01*
X142844862Y-91695164D02*
X138265403Y-88833600D01*
X142049983Y-92967236D02*
X142844862Y-91695164D01*
X137470524Y-90105672D02*
X142049983Y-92967236D01*
X140316757Y-91589402D02*
X140846677Y-90741354D01*
X139998629Y-90211434D02*
X140496912Y-91112386D01*
X139468709Y-91059482D02*
X139998629Y-90211434D01*
X140496912Y-91112386D02*
X139468709Y-91059482D01*
X240380805Y-151948111D02*
X238880805Y-151948111D01*
X240380805Y-157348111D02*
X240380805Y-151948111D01*
X238880805Y-157348111D02*
X240380805Y-157348111D01*
X238880805Y-151948111D02*
X238880805Y-157348111D01*
X239130805Y-155148111D02*
X240130805Y-155148111D01*
X240130805Y-154148111D02*
X239630805Y-155048111D01*
X239130805Y-154148111D02*
X240130805Y-154148111D01*
X239630805Y-155048111D02*
X239130805Y-154148111D01*
X217906451Y-152096006D02*
X216457562Y-152484235D01*
X219304074Y-157312005D02*
X217906451Y-152096006D01*
X217855185Y-157700234D02*
X219304074Y-157312005D01*
X216457562Y-152484235D02*
X217855185Y-157700234D01*
X217527265Y-155510492D02*
X218493190Y-155251673D01*
X218234371Y-154285748D02*
X217984346Y-155284490D01*
X217268446Y-154544567D02*
X218234371Y-154285748D01*
X217984346Y-155284490D02*
X217268446Y-154544567D01*
X194831422Y-169400368D02*
X194058865Y-168114617D01*
X190202719Y-172181573D02*
X194831422Y-169400368D01*
X189430162Y-170895822D02*
X190202719Y-172181573D01*
X194058865Y-168114617D02*
X189430162Y-170895822D01*
X191444689Y-169977030D02*
X191959727Y-170834198D01*
X192816895Y-170319160D02*
X191787925Y-170354110D01*
X192301857Y-169461992D02*
X192816895Y-170319160D01*
X191787925Y-170354110D02*
X192301857Y-169461992D01*
X83078799Y-122060155D02*
X81754378Y-122764362D01*
X85613946Y-126828072D02*
X83078799Y-122060155D01*
X84289525Y-127532279D02*
X85613946Y-126828072D01*
X81754378Y-122764362D02*
X84289525Y-127532279D01*
X83477424Y-125472427D02*
X84360372Y-125002955D01*
X83890900Y-124120007D02*
X83871951Y-125149396D01*
X83007952Y-124589479D02*
X83890900Y-124120007D01*
X83871951Y-125149396D02*
X83007952Y-124589479D01*
X68733065Y-120271969D02*
X67710067Y-119174938D01*
X64783755Y-123954760D02*
X68733065Y-120271969D01*
X63760757Y-122857729D02*
X64783755Y-123954760D01*
X67710067Y-119174938D02*
X63760757Y-122857729D01*
X65540235Y-121540171D02*
X66222233Y-122271525D01*
X66953587Y-121589527D02*
X65954370Y-121837648D01*
X66271589Y-120858173D02*
X66953587Y-121589527D01*
X65954370Y-121837648D02*
X66271589Y-120858173D01*
X53684229Y-103455962D02*
X52412157Y-102661083D01*
X50822665Y-108035421D02*
X53684229Y-103455962D01*
X49550593Y-107240542D02*
X50822665Y-108035421D01*
X52412157Y-102661083D02*
X49550593Y-107240542D01*
X50928427Y-105507316D02*
X51776475Y-106037236D01*
X52306395Y-105189188D02*
X51405443Y-105687471D01*
X51458347Y-104659268D02*
X52306395Y-105189188D01*
X51405443Y-105687471D02*
X51458347Y-104659268D01*
X304630807Y-138198111D02*
X303130807Y-138198111D01*
X304630807Y-143598111D02*
X304630807Y-138198111D01*
X303130807Y-143598111D02*
X304630807Y-143598111D01*
X303130807Y-138198111D02*
X303130807Y-143598111D01*
X303380807Y-141398111D02*
X304380807Y-141398111D01*
X304380807Y-140398111D02*
X303880807Y-141298111D01*
X303380807Y-140398111D02*
X304380807Y-140398111D01*
X303880807Y-141298111D02*
X303380807Y-140398111D01*
X304630797Y-119448106D02*
X303130797Y-119448106D01*
X304630797Y-124848106D02*
X304630797Y-119448106D01*
X303130797Y-124848106D02*
X304630797Y-124848106D01*
X303130797Y-119448106D02*
X303130797Y-124848106D01*
X303380797Y-122648106D02*
X304380797Y-122648106D01*
X304380797Y-121648106D02*
X303880797Y-122548106D01*
X303380797Y-121648106D02*
X304380797Y-121648106D01*
X303880797Y-122548106D02*
X303380797Y-121648106D01*
X304630787Y-100198093D02*
X303130787Y-100198093D01*
X304630787Y-105598093D02*
X304630787Y-100198093D01*
X303130787Y-105598093D02*
X304630787Y-105598093D01*
X303130787Y-100198093D02*
X303130787Y-105598093D01*
X303380787Y-103398093D02*
X304380787Y-103398093D01*
X304380787Y-102398093D02*
X303880787Y-103298093D01*
X303380787Y-102398093D02*
X304380787Y-102398093D01*
X303880787Y-103298093D02*
X303380787Y-102398093D01*
X287630798Y-137198125D02*
X286130798Y-137198125D01*
X287630798Y-142598125D02*
X287630798Y-137198125D01*
X286130798Y-142598125D02*
X287630798Y-142598125D01*
X286130798Y-137198125D02*
X286130798Y-142598125D01*
X286380798Y-140398125D02*
X287380798Y-140398125D01*
X287380798Y-139398125D02*
X286880798Y-140298125D01*
X286380798Y-139398125D02*
X287380798Y-139398125D01*
X286880798Y-140298125D02*
X286380798Y-139398125D01*
X287630795Y-118198108D02*
X286130795Y-118198108D01*
X287630795Y-123598108D02*
X287630795Y-118198108D01*
X286130795Y-123598108D02*
X287630795Y-123598108D01*
X286130795Y-118198108D02*
X286130795Y-123598108D01*
X286380795Y-121398108D02*
X287380795Y-121398108D01*
X287380795Y-120398108D02*
X286880795Y-121298108D01*
X286380795Y-120398108D02*
X287380795Y-120398108D01*
X286880795Y-121298108D02*
X286380795Y-120398108D01*
X287630808Y-98948119D02*
X286130808Y-98948119D01*
X287630808Y-104348119D02*
X287630808Y-98948119D01*
X286130808Y-104348119D02*
X287630808Y-104348119D01*
X286130808Y-98948119D02*
X286130808Y-104348119D01*
X286380808Y-102148119D02*
X287380808Y-102148119D01*
X287380808Y-101148119D02*
X286880808Y-102048119D01*
X286380808Y-101148119D02*
X287380808Y-101148119D01*
X286880808Y-102048119D02*
X286380808Y-101148119D01*
X268630794Y-132698117D02*
X267130794Y-132698117D01*
X268630794Y-138098117D02*
X268630794Y-132698117D01*
X267130794Y-138098117D02*
X268630794Y-138098117D01*
X267130794Y-132698117D02*
X267130794Y-138098117D01*
X267380794Y-135898117D02*
X268380794Y-135898117D01*
X268380794Y-134898117D02*
X267880794Y-135798117D01*
X267380794Y-134898117D02*
X268380794Y-134898117D01*
X267880794Y-135798117D02*
X267380794Y-134898117D01*
X268630795Y-113448109D02*
X267130795Y-113448109D01*
X268630795Y-118848109D02*
X268630795Y-113448109D01*
X267130795Y-118848109D02*
X268630795Y-118848109D01*
X267130795Y-113448109D02*
X267130795Y-118848109D01*
X267380795Y-116648109D02*
X268380795Y-116648109D01*
X268380795Y-115648109D02*
X267880795Y-116548109D01*
X267380795Y-115648109D02*
X268380795Y-115648109D01*
X267880795Y-116548109D02*
X267380795Y-115648109D01*
X268630817Y-96948100D02*
X267130817Y-96948100D01*
X268630817Y-102348100D02*
X268630817Y-96948100D01*
X267130817Y-102348100D02*
X268630817Y-102348100D01*
X267130817Y-96948100D02*
X267130817Y-102348100D01*
X267380817Y-100148100D02*
X268380817Y-100148100D01*
X268380817Y-99148100D02*
X267880817Y-100048100D01*
X267380817Y-99148100D02*
X268380817Y-99148100D01*
X267880817Y-100048100D02*
X267380817Y-99148100D01*
X249630789Y-129948113D02*
X248130789Y-129948113D01*
X249630789Y-135348113D02*
X249630789Y-129948113D01*
X248130789Y-135348113D02*
X249630789Y-135348113D01*
X248130789Y-129948113D02*
X248130789Y-135348113D01*
X248380789Y-133148113D02*
X249380789Y-133148113D01*
X249380789Y-132148113D02*
X248880789Y-133048113D01*
X248380789Y-132148113D02*
X249380789Y-132148113D01*
X248880789Y-133048113D02*
X248380789Y-132148113D01*
X249630785Y-111198105D02*
X248130785Y-111198105D01*
X249630785Y-116598105D02*
X249630785Y-111198105D01*
X248130785Y-116598105D02*
X249630785Y-116598105D01*
X248130785Y-111198105D02*
X248130785Y-116598105D01*
X248380785Y-114398105D02*
X249380785Y-114398105D01*
X249380785Y-113398105D02*
X248880785Y-114298105D01*
X248380785Y-113398105D02*
X249380785Y-113398105D01*
X248880785Y-114298105D02*
X248380785Y-113398105D01*
X249630801Y-92198100D02*
X248130801Y-92198100D01*
X249630801Y-97598100D02*
X249630801Y-92198100D01*
X248130801Y-97598100D02*
X249630801Y-97598100D01*
X248130801Y-92198100D02*
X248130801Y-97598100D01*
X248380801Y-95398100D02*
X249380801Y-95398100D01*
X249380801Y-94398100D02*
X248880801Y-95298100D01*
X248380801Y-94398100D02*
X249380801Y-94398100D01*
X248880801Y-95298100D02*
X248380801Y-94398100D01*
X230630805Y-132198097D02*
X229130805Y-132198097D01*
X230630805Y-137598097D02*
X230630805Y-132198097D01*
X229130805Y-137598097D02*
X230630805Y-137598097D01*
X229130805Y-132198097D02*
X229130805Y-137598097D01*
X229380805Y-135398097D02*
X230380805Y-135398097D01*
X230380805Y-134398097D02*
X229880805Y-135298097D01*
X229380805Y-134398097D02*
X230380805Y-134398097D01*
X229880805Y-135298097D02*
X229380805Y-134398097D01*
X230630800Y-113448110D02*
X229130800Y-113448110D01*
X230630800Y-118848110D02*
X230630800Y-113448110D01*
X229130800Y-118848110D02*
X230630800Y-118848110D01*
X229130800Y-113448110D02*
X229130800Y-118848110D01*
X229380800Y-116648110D02*
X230380800Y-116648110D01*
X230380800Y-115648110D02*
X229880800Y-116548110D01*
X229380800Y-115648110D02*
X230380800Y-115648110D01*
X229880800Y-116548110D02*
X229380800Y-115648110D01*
X230630802Y-94448108D02*
X229130802Y-94448108D01*
X230630802Y-99848108D02*
X230630802Y-94448108D01*
X229130802Y-99848108D02*
X230630802Y-99848108D01*
X229130802Y-94448108D02*
X229130802Y-99848108D01*
X229380802Y-97648108D02*
X230380802Y-97648108D01*
X230380802Y-96648108D02*
X229880802Y-97548108D01*
X229380802Y-96648108D02*
X230380802Y-96648108D01*
X229880802Y-97548108D02*
X229380802Y-96648108D01*
X211630815Y-134948108D02*
X210130815Y-134948108D01*
X211630815Y-140348108D02*
X211630815Y-134948108D01*
X210130815Y-140348108D02*
X211630815Y-140348108D01*
X210130815Y-134948108D02*
X210130815Y-140348108D01*
X210380815Y-138148108D02*
X211380815Y-138148108D01*
X211380815Y-137148108D02*
X210880815Y-138048108D01*
X210380815Y-137148108D02*
X211380815Y-137148108D01*
X210880815Y-138048108D02*
X210380815Y-137148108D01*
X211630800Y-115948105D02*
X210130800Y-115948105D01*
X211630800Y-121348105D02*
X211630800Y-115948105D01*
X210130800Y-121348105D02*
X211630800Y-121348105D01*
X210130800Y-115948105D02*
X210130800Y-121348105D01*
X210380800Y-119148105D02*
X211380800Y-119148105D01*
X211380800Y-118148105D02*
X210880800Y-119048105D01*
X210380800Y-118148105D02*
X211380800Y-118148105D01*
X210880800Y-119048105D02*
X210380800Y-118148105D01*
X211630791Y-96948111D02*
X210130791Y-96948111D01*
X211630791Y-102348111D02*
X211630791Y-96948111D01*
X210130791Y-102348111D02*
X211630791Y-102348111D01*
X210130791Y-96948111D02*
X210130791Y-102348111D01*
X210380791Y-100148111D02*
X211380791Y-100148111D01*
X211380791Y-99148111D02*
X210880791Y-100048111D01*
X210380791Y-99148111D02*
X211380791Y-99148111D01*
X210880791Y-100048111D02*
X210380791Y-99148111D01*
X86332327Y-104989912D02*
X85060255Y-104195033D01*
X83470763Y-109569371D02*
X86332327Y-104989912D01*
X82198691Y-108774492D02*
X83470763Y-109569371D01*
X85060255Y-104195033D02*
X82198691Y-108774492D01*
X83576525Y-107041266D02*
X84424573Y-107571186D01*
X84954493Y-106723138D02*
X84053541Y-107221421D01*
X84106445Y-106193218D02*
X84954493Y-106723138D01*
X84053541Y-107221421D02*
X84106445Y-106193218D01*
X96400759Y-88876989D02*
X95128687Y-88082110D01*
X93539195Y-93456448D02*
X96400759Y-88876989D01*
X92267123Y-92661569D02*
X93539195Y-93456448D01*
X95128687Y-88082110D02*
X92267123Y-92661569D01*
X93644957Y-90928343D02*
X94493005Y-91458263D01*
X95022925Y-90610215D02*
X94121973Y-91108498D01*
X94174877Y-90080295D02*
X95022925Y-90610215D01*
X94121973Y-91108498D02*
X94174877Y-90080295D01*
X71676668Y-92589289D02*
X70404596Y-91794410D01*
X68815104Y-97168748D02*
X71676668Y-92589289D01*
X67543032Y-96373869D02*
X68815104Y-97168748D01*
X70404596Y-91794410D02*
X67543032Y-96373869D01*
X68920866Y-94640643D02*
X69768914Y-95170563D01*
X70298834Y-94322515D02*
X69397882Y-94820798D01*
X69450786Y-93792595D02*
X70298834Y-94322515D01*
X69397882Y-94820798D02*
X69450786Y-93792595D01*
X81612662Y-76688396D02*
X80340590Y-75893517D01*
X78751098Y-81267855D02*
X81612662Y-76688396D01*
X77479026Y-80472976D02*
X78751098Y-81267855D01*
X80340590Y-75893517D02*
X77479026Y-80472976D01*
X78856860Y-78739750D02*
X79704908Y-79269670D01*
X80234828Y-78421622D02*
X79333876Y-78919905D01*
X79386780Y-77891702D02*
X80234828Y-78421622D01*
X79333876Y-78919905D02*
X79386780Y-77891702D01*
X56756077Y-80612714D02*
X55484005Y-79817835D01*
X53894513Y-85192173D02*
X56756077Y-80612714D01*
X52622441Y-84397294D02*
X53894513Y-85192173D01*
X55484005Y-79817835D02*
X52622441Y-84397294D01*
X54000275Y-82664068D02*
X54848323Y-83193988D01*
X55378243Y-82345940D02*
X54477291Y-82844223D01*
X54530195Y-81816020D02*
X55378243Y-82345940D01*
X54477291Y-82844223D02*
X54530195Y-81816020D01*
X66824534Y-64499812D02*
X65552462Y-63704933D01*
X63962970Y-69079271D02*
X66824534Y-64499812D01*
X62690898Y-68284392D02*
X63962970Y-69079271D01*
X65552462Y-63704933D02*
X62690898Y-68284392D01*
X64068732Y-66551166D02*
X64916780Y-67081086D01*
X65446700Y-66233038D02*
X64545748Y-66731321D01*
X64598652Y-65703118D02*
X65446700Y-66233038D01*
X64545748Y-66731321D02*
X64598652Y-65703118D01*
X39450841Y-72452380D02*
X38178769Y-71657501D01*
X36589277Y-77031839D02*
X39450841Y-72452380D01*
X35317205Y-76236960D02*
X36589277Y-77031839D01*
X38178769Y-71657501D02*
X35317205Y-76236960D01*
X36695039Y-74503734D02*
X37543087Y-75033654D01*
X38073007Y-74185606D02*
X37172055Y-74683889D01*
X37224959Y-73655686D02*
X38073007Y-74185606D01*
X37172055Y-74683889D02*
X37224959Y-73655686D01*
X49519303Y-56339446D02*
X48247231Y-55544567D01*
X46657739Y-60918905D02*
X49519303Y-56339446D01*
X45385667Y-60124026D02*
X46657739Y-60918905D01*
X48247231Y-55544567D02*
X45385667Y-60124026D01*
X46763501Y-58390800D02*
X47611549Y-58920720D01*
X48141469Y-58072672D02*
X47240517Y-58570955D01*
X47293421Y-57542752D02*
X48141469Y-58072672D01*
X47240517Y-58570955D02*
X47293421Y-57542752D01*
X59720258Y-40014537D02*
X58448186Y-39219658D01*
X56858694Y-44593996D02*
X59720258Y-40014537D01*
X55586622Y-43799117D02*
X56858694Y-44593996D01*
X58448186Y-39219658D02*
X55586622Y-43799117D01*
X56964456Y-42065891D02*
X57812504Y-42595811D01*
X58342424Y-41747763D02*
X57441472Y-42246046D01*
X57494376Y-41217843D02*
X58342424Y-41747763D01*
X57441472Y-42246046D02*
X57494376Y-41217843D01*
X20953291Y-66200128D02*
X19681219Y-65405249D01*
X18091727Y-70779587D02*
X20953291Y-66200128D01*
X16819655Y-69984708D02*
X18091727Y-70779587D01*
X19681219Y-65405249D02*
X16819655Y-69984708D01*
X18197489Y-68251482D02*
X19045537Y-68781402D01*
X19575457Y-67933354D02*
X18674505Y-68431637D01*
X18727409Y-67403434D02*
X19575457Y-67933354D01*
X18674505Y-68431637D02*
X18727409Y-67403434D01*
X31021770Y-50087209D02*
X29749698Y-49292330D01*
X28160206Y-54666668D02*
X31021770Y-50087209D01*
X26888134Y-53871789D02*
X28160206Y-54666668D01*
X29749698Y-49292330D02*
X26888134Y-53871789D01*
X28265968Y-52138563D02*
X29114016Y-52668483D01*
X29643936Y-51820435D02*
X28742984Y-52318718D01*
X28795888Y-51290515D02*
X29643936Y-51820435D01*
X28742984Y-52318718D02*
X28795888Y-51290515D01*
X41090223Y-33974297D02*
X39818151Y-33179418D01*
X38228659Y-38553756D02*
X41090223Y-33974297D01*
X36956587Y-37758877D02*
X38228659Y-38553756D01*
X39818151Y-33179418D02*
X36956587Y-37758877D01*
X38334421Y-36025651D02*
X39182469Y-36555571D01*
X39712389Y-35707523D02*
X38811437Y-36205806D01*
X38864341Y-35177603D02*
X39712389Y-35707523D01*
X38811437Y-36205806D02*
X38864341Y-35177603D01*
X4694643Y-56364843D02*
X3422571Y-55569964D01*
X1833079Y-60944302D02*
X4694643Y-56364843D01*
X561007Y-60149423D02*
X1833079Y-60944302D01*
X3422571Y-55569964D02*
X561007Y-60149423D01*
X1938841Y-58416197D02*
X2786889Y-58946117D01*
X3316809Y-58098069D02*
X2415857Y-58596352D01*
X2468761Y-57568149D02*
X3316809Y-58098069D01*
X2415857Y-58596352D02*
X2468761Y-57568149D01*
X14763122Y-40251958D02*
X13491050Y-39457079D01*
X11901558Y-44831417D02*
X14763122Y-40251958D01*
X10629486Y-44036538D02*
X11901558Y-44831417D01*
X13491050Y-39457079D02*
X10629486Y-44036538D01*
X12007320Y-42303312D02*
X12855368Y-42833232D01*
X13385288Y-41985184D02*
X12484336Y-42483467D01*
X12537240Y-41455264D02*
X13385288Y-41985184D01*
X12484336Y-42483467D02*
X12537240Y-41455264D01*
X25006458Y-23953522D02*
X23734386Y-23158643D01*
X22144894Y-28532981D02*
X25006458Y-23953522D01*
X20872822Y-27738102D02*
X22144894Y-28532981D01*
X23734386Y-23158643D02*
X20872822Y-27738102D01*
X22250656Y-26004876D02*
X23098704Y-26534796D01*
X23628624Y-25686748D02*
X22727672Y-26185031D01*
X22780576Y-25156828D02*
X23628624Y-25686748D01*
X22727672Y-26185031D02*
X22780576Y-25156828D01*
X137870758Y-111233334D02*
X137582379Y-111150643D01*
X137499688Y-111439021D02*
X137870758Y-111233334D01*
X137582379Y-111150643D02*
X137499688Y-111439021D01*
X213742523Y-106740480D02*
X214042523Y-106740480D01*
X214042523Y-107040480D02*
X213742523Y-106740480D01*
X252242506Y-104240479D02*
X252542506Y-104240479D01*
X252542506Y-104540479D02*
X252242506Y-104240479D01*
X290242515Y-109490478D02*
X290542515Y-109490478D01*
X290542515Y-109790478D02*
X290242515Y-109490478D01*
X283634527Y-131916815D02*
X283334527Y-131916815D01*
X283334527Y-131616815D02*
X283634527Y-131916815D01*
X239399494Y-145728117D02*
X239099494Y-145728117D01*
X239099494Y-145428117D02*
X239399494Y-145728117D01*
X194497657Y-152552252D02*
X194197657Y-152552252D01*
X194197657Y-152252252D02*
X194497657Y-152552252D01*
X167275125Y-140872306D02*
X166986746Y-140789615D01*
X167069437Y-140501236D02*
X167275125Y-140872306D01*
X107229677Y-124616827D02*
X107435365Y-124987897D01*
X107435365Y-124987897D02*
X107146986Y-124905206D01*
X70337768Y-113219172D02*
X70083354Y-113060197D01*
X70242330Y-112805782D02*
X70337768Y-113219172D01*
X36533877Y-87066820D02*
X36279463Y-86907845D01*
X36438439Y-86653430D02*
X36533877Y-87066820D01*
X3631503Y-50606063D02*
X3377089Y-50447088D01*
X3536065Y-50192673D02*
X3631503Y-50606063D01*
X20849736Y-35128473D02*
X21104150Y-35287448D01*
X20945174Y-35541863D02*
X20849736Y-35128473D01*
X56520027Y-49753086D02*
X56774441Y-49912061D01*
X56615465Y-50166476D02*
X56520027Y-49753086D01*
X85910383Y-70181809D02*
X86164797Y-70340784D01*
X86005821Y-70595199D02*
X85910383Y-70181809D01*
D12*
X132957593Y-101630392D02*
X134303588Y-99476350D01*
X130803551Y-100284397D02*
X132149546Y-98130355D01*
X128649509Y-98938402D02*
X129995504Y-96784360D01*
X126725140Y-116473068D02*
X135145557Y-102997584D01*
X118041128Y-111046695D02*
X126461545Y-97571211D01*
X118041128Y-111046695D02*
X126725140Y-116473068D01*
X126461545Y-97571211D02*
X135145557Y-102997584D01*
X139392744Y-94083005D02*
X138578435Y-93593719D01*
X134472603Y-91126687D02*
X135286912Y-91615973D01*
X138104600Y-94382313D02*
X134813077Y-92404567D01*
X139052270Y-92805125D02*
X138104600Y-94382313D01*
X135760747Y-90827379D02*
X139052270Y-92805125D01*
X134813077Y-92404567D02*
X135760747Y-90827379D01*
D10*
X186270806Y-87158102D02*
X186270806Y-117638102D01*
X181190806Y-87158102D02*
X186270806Y-87158102D01*
X181190806Y-84618102D02*
X181190806Y-87158102D01*
X173570806Y-84618102D02*
X181190806Y-84618102D01*
X173570806Y-87158102D02*
X173570806Y-84618102D01*
X168490806Y-87158102D02*
X173570806Y-87158102D01*
X168490806Y-117638102D02*
X168490806Y-87158102D01*
X186270806Y-117638102D02*
X168490806Y-117638102D01*
X178995907Y-129100489D02*
X179329240Y-128624299D01*
X179567335Y-129100489D02*
X179567335Y-128100489D01*
X179186383Y-128100489D01*
X179091145Y-128148109D01*
X179043526Y-128195728D01*
X178995907Y-128290966D01*
X178995907Y-128433823D01*
X179043526Y-128529061D01*
X179091145Y-128576680D01*
X179186383Y-128624299D01*
X179567335Y-128624299D01*
X178186383Y-129052870D02*
X178281621Y-129100489D01*
X178472097Y-129100489D01*
X178567335Y-129052870D01*
X178614954Y-128957632D01*
X178614954Y-128576680D01*
X178567335Y-128481442D01*
X178472097Y-128433823D01*
X178281621Y-128433823D01*
X178186383Y-128481442D01*
X178138764Y-128576680D01*
X178138764Y-128671918D01*
X178614954Y-128767156D01*
X177757812Y-129052870D02*
X177662573Y-129100489D01*
X177472097Y-129100489D01*
X177376859Y-129052870D01*
X177329240Y-128957632D01*
X177329240Y-128910013D01*
X177376859Y-128814775D01*
X177472097Y-128767156D01*
X177614954Y-128767156D01*
X177710192Y-128719537D01*
X177757812Y-128624299D01*
X177757812Y-128576680D01*
X177710192Y-128481442D01*
X177614954Y-128433823D01*
X177472097Y-128433823D01*
X177376859Y-128481442D01*
X176519716Y-129052870D02*
X176614954Y-129100489D01*
X176805431Y-129100489D01*
X176900669Y-129052870D01*
X176948288Y-128957632D01*
X176948288Y-128576680D01*
X176900669Y-128481442D01*
X176805431Y-128433823D01*
X176614954Y-128433823D01*
X176519716Y-128481442D01*
X176472097Y-128576680D01*
X176472097Y-128671918D01*
X176948288Y-128767156D01*
X176186383Y-128433823D02*
X175805431Y-128433823D01*
X176043526Y-128100489D02*
X176043526Y-128957632D01*
X175995907Y-129052870D01*
X175900669Y-129100489D01*
X175805431Y-129100489D01*
X147038458Y-102638062D02*
X146779106Y-103037429D01*
X145940436Y-102492790D01*
X146780701Y-102073218D02*
X146962247Y-101793661D01*
X147479356Y-101959138D02*
X147220004Y-102358505D01*
X146381334Y-101813866D01*
X146640686Y-101414499D01*
X147712773Y-101599708D02*
X146874103Y-101055069D01*
X147003779Y-100855386D01*
X147121521Y-100761511D01*
X147253265Y-100733508D01*
X147359073Y-100745441D01*
X147544755Y-100809245D01*
X147664565Y-100887051D01*
X147798377Y-101030728D01*
X147852315Y-101122536D01*
X147880318Y-101254279D01*
X147842449Y-101400025D01*
X147712773Y-101599708D01*
X148191540Y-100775039D02*
X148309283Y-100681164D01*
X148438959Y-100481481D01*
X148450892Y-100375672D01*
X148436891Y-100309800D01*
X148382953Y-100217993D01*
X148303079Y-100166123D01*
X148197271Y-100154189D01*
X148131399Y-100168190D01*
X148039592Y-100222129D01*
X147895914Y-100355940D01*
X147804107Y-100409878D01*
X147738235Y-100423880D01*
X147632427Y-100411946D01*
X147552553Y-100360076D01*
X147498615Y-100268269D01*
X147484614Y-100202397D01*
X147496547Y-100096588D01*
X147626223Y-99896905D01*
X147743965Y-99803030D01*
X149061403Y-99523000D02*
X148750181Y-100002240D01*
X148905792Y-99762620D02*
X148067121Y-99217981D01*
X148135061Y-99375660D01*
X148163064Y-99507404D01*
X148151130Y-99613212D01*
X152154628Y-104323030D02*
X151315957Y-103778391D01*
X151445633Y-103578707D01*
X151563375Y-103484832D01*
X151695119Y-103456829D01*
X151800928Y-103468763D01*
X151986610Y-103532567D01*
X152106420Y-103610373D01*
X152240231Y-103754050D01*
X152294169Y-103845857D01*
X152322172Y-103977601D01*
X152284303Y-104123346D01*
X152154628Y-104323030D01*
X121643787Y-115122805D02*
X121749788Y-115132891D01*
X121881023Y-115102593D01*
X122077875Y-115057146D01*
X122183876Y-115067231D01*
X122264643Y-115117699D01*
X122098088Y-115294381D02*
X122204089Y-115304467D01*
X122335324Y-115274169D01*
X122476644Y-115137870D01*
X122653284Y-114855187D01*
X122713838Y-114668420D01*
X122683540Y-114537185D01*
X122628007Y-114446333D01*
X122466474Y-114345396D01*
X122360474Y-114335311D01*
X122229239Y-114365609D01*
X122087918Y-114501908D01*
X121911279Y-114784590D01*
X121850725Y-114971358D01*
X121881023Y-115102593D01*
X121936555Y-115193444D01*
X122098088Y-115294381D01*
X120926974Y-114562588D02*
X121411573Y-114865399D01*
X121169273Y-114713994D02*
X121699193Y-113865945D01*
X121704256Y-114037564D01*
X121734554Y-114168799D01*
X121790087Y-114259650D01*
X135853667Y-94724212D02*
X136384646Y-94487717D01*
X136343477Y-95018520D02*
X136858515Y-94161353D01*
X136531975Y-93965148D01*
X136425815Y-93956914D01*
X136360472Y-93973206D01*
X136270603Y-94030315D01*
X136197026Y-94152767D01*
X136188792Y-94258928D01*
X136205084Y-94324271D01*
X136262193Y-94414140D01*
X136588733Y-94610345D01*
X135037317Y-94233700D02*
X135527127Y-94528007D01*
X135282222Y-94380854D02*
X135797261Y-93523686D01*
X135805319Y-93695190D01*
X135837902Y-93825876D01*
X135895012Y-93915745D01*
%LPC*%
D13*
X180880812Y-128648109D03*
X174380812Y-128648109D03*
D14*
X181304623Y-120784859D03*
X178764623Y-120784859D03*
X176224623Y-120784859D03*
D15*
X173684623Y-120784859D03*
D16*
X151910338Y-100823498D02*
X151658736Y-100660106D01*
X150526955Y-102953721D02*
X150275353Y-102790329D01*
D17*
G36*
X150410683Y-104814611D02*
G01*
X149412904Y-106351055D01*
X147624859Y-105189885D01*
X148622638Y-103653441D01*
X150410683Y-104814611D01*
G37*
D18*
X120236459Y-80445568D02*
X120236459Y-80445568D01*
D17*
G36*
X121138191Y-80359305D02*
G01*
X122072740Y-80943276D01*
X121488769Y-81877825D01*
X120554220Y-81293854D01*
X121138191Y-80359305D01*
G37*
D19*
X76977661Y-46836108D03*
D17*
G36*
X73178115Y-54331021D02*
G01*
X71906890Y-53536672D01*
X72701239Y-52265447D01*
X73972464Y-53059796D01*
X73178115Y-54331021D01*
G37*
G36*
X74092662Y-52445675D02*
G01*
X73200515Y-51888200D01*
X73943462Y-50699237D01*
X74835609Y-51256712D01*
X74092662Y-52445675D01*
G37*
G36*
X75973876Y-49435105D02*
G01*
X75081729Y-48877630D01*
X75824676Y-47688667D01*
X76716823Y-48246142D01*
X75973876Y-49435105D01*
G37*
D19*
X106818856Y-70789262D03*
D17*
G36*
X103019310Y-78284175D02*
G01*
X101748085Y-77489826D01*
X102542434Y-76218601D01*
X103813659Y-77012950D01*
X103019310Y-78284175D01*
G37*
G36*
X103933857Y-76398829D02*
G01*
X103041710Y-75841354D01*
X103784657Y-74652391D01*
X104676804Y-75209866D01*
X103933857Y-76398829D01*
G37*
G36*
X105815071Y-73388259D02*
G01*
X104922924Y-72830784D01*
X105665871Y-71641821D01*
X106558018Y-72199296D01*
X105815071Y-73388259D01*
G37*
D19*
X91765776Y-59024703D03*
D17*
G36*
X87966230Y-66519616D02*
G01*
X86695005Y-65725267D01*
X87489354Y-64454042D01*
X88760579Y-65248391D01*
X87966230Y-66519616D01*
G37*
G36*
X88880777Y-64634270D02*
G01*
X87988630Y-64076795D01*
X88731577Y-62887832D01*
X89623724Y-63445307D01*
X88880777Y-64634270D01*
G37*
G36*
X90761991Y-61623700D02*
G01*
X89869844Y-61066225D01*
X90612791Y-59877262D01*
X91504938Y-60434737D01*
X90761991Y-61623700D01*
G37*
D19*
X136926630Y-88881426D03*
D17*
G36*
X144421543Y-92680972D02*
G01*
X143627194Y-93952197D01*
X142355969Y-93157848D01*
X143150318Y-91886623D01*
X144421543Y-92680972D01*
G37*
G36*
X142536197Y-91766425D02*
G01*
X141978722Y-92658572D01*
X140789759Y-91915625D01*
X141347234Y-91023478D01*
X142536197Y-91766425D01*
G37*
G36*
X139525627Y-89885211D02*
G01*
X138968152Y-90777358D01*
X137779189Y-90034411D01*
X138336664Y-89142264D01*
X139525627Y-89885211D01*
G37*
D19*
X239630805Y-150838111D03*
D20*
X239630805Y-158458111D03*
D21*
X239630805Y-156423111D03*
X239630805Y-152873111D03*
D19*
X216894717Y-151217943D03*
D17*
G36*
X219784865Y-159108274D02*
G01*
X218336942Y-159496243D01*
X217948973Y-158048320D01*
X219396896Y-157660351D01*
X219784865Y-159108274D01*
G37*
G36*
X219029731Y-157153613D02*
G01*
X218013577Y-157425891D01*
X217650713Y-156071663D01*
X218666867Y-155799385D01*
X219029731Y-157153613D01*
G37*
G36*
X218110923Y-153724577D02*
G01*
X217094769Y-153996855D01*
X216731905Y-152642627D01*
X217748059Y-152370349D01*
X218110923Y-153724577D01*
G37*
D19*
X195396599Y-168185800D03*
D17*
G36*
X188608559Y-173138858D02*
G01*
X187836517Y-171853964D01*
X189121411Y-171081922D01*
X189893453Y-172366816D01*
X188608559Y-173138858D01*
G37*
G36*
X190279356Y-171874200D02*
G01*
X189737536Y-170972460D01*
X190939284Y-170250376D01*
X191481104Y-171152116D01*
X190279356Y-171874200D01*
G37*
G36*
X193322300Y-170045814D02*
G01*
X192780480Y-169144074D01*
X193982228Y-168421990D01*
X194524048Y-169323730D01*
X193322300Y-170045814D01*
G37*
D19*
X81895475Y-121432187D03*
D17*
G36*
X86486487Y-128470147D02*
G01*
X85162949Y-129173885D01*
X84459211Y-127850347D01*
X85782749Y-127146609D01*
X86486487Y-128470147D01*
G37*
G36*
X85311004Y-126735453D02*
G01*
X84382143Y-127229337D01*
X83723944Y-125991445D01*
X84652805Y-125497561D01*
X85311004Y-126735453D01*
G37*
G36*
X83644380Y-123600989D02*
G01*
X82715519Y-124094873D01*
X82057320Y-122856981D01*
X82986181Y-122363097D01*
X83644380Y-123600989D01*
G37*
D19*
X69033369Y-118966435D03*
D17*
G36*
X63423461Y-125222570D02*
G01*
X62401146Y-124126271D01*
X63497445Y-123103956D01*
X64519760Y-124200255D01*
X63423461Y-125222570D01*
G37*
G36*
X64794810Y-123638169D02*
G01*
X64077348Y-122868785D01*
X65102706Y-121912623D01*
X65820168Y-122682007D01*
X64794810Y-123638169D01*
G37*
G36*
X67391116Y-121217075D02*
G01*
X66673654Y-120447691D01*
X67699012Y-119491529D01*
X68416474Y-120260913D01*
X67391116Y-121217075D01*
G37*
D19*
X53636403Y-102117189D03*
D17*
G36*
X49836857Y-109612102D02*
G01*
X48565632Y-108817753D01*
X49359981Y-107546528D01*
X50631206Y-108340877D01*
X49836857Y-109612102D01*
G37*
G36*
X50751404Y-107726756D02*
G01*
X49859257Y-107169281D01*
X50602204Y-105980318D01*
X51494351Y-106537793D01*
X50751404Y-107726756D01*
G37*
G36*
X52632618Y-104716186D02*
G01*
X51740471Y-104158711D01*
X52483418Y-102969748D01*
X53375565Y-103527223D01*
X52632618Y-104716186D01*
G37*
D19*
X303880807Y-137088111D03*
D20*
X303880807Y-144708111D03*
D21*
X303880807Y-142673111D03*
X303880807Y-139123111D03*
D19*
X303880797Y-118338106D03*
D20*
X303880797Y-125958106D03*
D21*
X303880797Y-123923106D03*
X303880797Y-120373106D03*
D19*
X303880787Y-99088093D03*
D20*
X303880787Y-106708093D03*
D21*
X303880787Y-104673093D03*
X303880787Y-101123093D03*
D19*
X286880798Y-136088125D03*
D20*
X286880798Y-143708125D03*
D21*
X286880798Y-141673125D03*
X286880798Y-138123125D03*
D19*
X286880795Y-117088108D03*
D20*
X286880795Y-124708108D03*
D21*
X286880795Y-122673108D03*
X286880795Y-119123108D03*
D19*
X286880808Y-97838119D03*
D20*
X286880808Y-105458119D03*
D21*
X286880808Y-103423119D03*
X286880808Y-99873119D03*
D19*
X267880794Y-131588117D03*
D20*
X267880794Y-139208117D03*
D21*
X267880794Y-137173117D03*
X267880794Y-133623117D03*
D19*
X267880795Y-112338109D03*
D20*
X267880795Y-119958109D03*
D21*
X267880795Y-117923109D03*
X267880795Y-114373109D03*
D19*
X267880817Y-95838100D03*
D20*
X267880817Y-103458100D03*
D21*
X267880817Y-101423100D03*
X267880817Y-97873100D03*
D19*
X248880789Y-128838113D03*
D20*
X248880789Y-136458113D03*
D21*
X248880789Y-134423113D03*
X248880789Y-130873113D03*
D19*
X248880785Y-110088105D03*
D20*
X248880785Y-117708105D03*
D21*
X248880785Y-115673105D03*
X248880785Y-112123105D03*
D19*
X248880801Y-91088100D03*
D20*
X248880801Y-98708100D03*
D21*
X248880801Y-96673100D03*
X248880801Y-93123100D03*
D19*
X229880805Y-131088097D03*
D20*
X229880805Y-138708097D03*
D21*
X229880805Y-136673097D03*
X229880805Y-133123097D03*
D19*
X229880800Y-112338110D03*
D20*
X229880800Y-119958110D03*
D21*
X229880800Y-117923110D03*
X229880800Y-114373110D03*
D19*
X229880802Y-93338108D03*
D20*
X229880802Y-100958108D03*
D21*
X229880802Y-98923108D03*
X229880802Y-95373108D03*
D19*
X210880815Y-133838108D03*
D20*
X210880815Y-141458108D03*
D21*
X210880815Y-139423108D03*
X210880815Y-135873108D03*
D19*
X210880800Y-114838105D03*
D20*
X210880800Y-122458105D03*
D21*
X210880800Y-120423105D03*
X210880800Y-116873105D03*
D19*
X210880791Y-95838111D03*
D20*
X210880791Y-103458111D03*
D21*
X210880791Y-101423111D03*
X210880791Y-97873111D03*
D19*
X86284501Y-103651139D03*
D17*
G36*
X82484955Y-111146052D02*
G01*
X81213730Y-110351703D01*
X82008079Y-109080478D01*
X83279304Y-109874827D01*
X82484955Y-111146052D01*
G37*
G36*
X83399502Y-109260706D02*
G01*
X82507355Y-108703231D01*
X83250302Y-107514268D01*
X84142449Y-108071743D01*
X83399502Y-109260706D01*
G37*
G36*
X85280716Y-106250136D02*
G01*
X84388569Y-105692661D01*
X85131516Y-104503698D01*
X86023663Y-105061173D01*
X85280716Y-106250136D01*
G37*
D19*
X96352933Y-87538216D03*
D17*
G36*
X92553387Y-95033129D02*
G01*
X91282162Y-94238780D01*
X92076511Y-92967555D01*
X93347736Y-93761904D01*
X92553387Y-95033129D01*
G37*
G36*
X93467934Y-93147783D02*
G01*
X92575787Y-92590308D01*
X93318734Y-91401345D01*
X94210881Y-91958820D01*
X93467934Y-93147783D01*
G37*
G36*
X95349148Y-90137213D02*
G01*
X94457001Y-89579738D01*
X95199948Y-88390775D01*
X96092095Y-88948250D01*
X95349148Y-90137213D01*
G37*
D19*
X71628842Y-91250516D03*
D17*
G36*
X67829296Y-98745429D02*
G01*
X66558071Y-97951080D01*
X67352420Y-96679855D01*
X68623645Y-97474204D01*
X67829296Y-98745429D01*
G37*
G36*
X68743843Y-96860083D02*
G01*
X67851696Y-96302608D01*
X68594643Y-95113645D01*
X69486790Y-95671120D01*
X68743843Y-96860083D01*
G37*
G36*
X70625057Y-93849513D02*
G01*
X69732910Y-93292038D01*
X70475857Y-92103075D01*
X71368004Y-92660550D01*
X70625057Y-93849513D01*
G37*
D19*
X81564836Y-75349623D03*
D17*
G36*
X77765290Y-82844536D02*
G01*
X76494065Y-82050187D01*
X77288414Y-80778962D01*
X78559639Y-81573311D01*
X77765290Y-82844536D01*
G37*
G36*
X78679837Y-80959190D02*
G01*
X77787690Y-80401715D01*
X78530637Y-79212752D01*
X79422784Y-79770227D01*
X78679837Y-80959190D01*
G37*
G36*
X80561051Y-77948620D02*
G01*
X79668904Y-77391145D01*
X80411851Y-76202182D01*
X81303998Y-76759657D01*
X80561051Y-77948620D01*
G37*
D19*
X56708251Y-79273941D03*
D17*
G36*
X52908705Y-86768854D02*
G01*
X51637480Y-85974505D01*
X52431829Y-84703280D01*
X53703054Y-85497629D01*
X52908705Y-86768854D01*
G37*
G36*
X53823252Y-84883508D02*
G01*
X52931105Y-84326033D01*
X53674052Y-83137070D01*
X54566199Y-83694545D01*
X53823252Y-84883508D01*
G37*
G36*
X55704466Y-81872938D02*
G01*
X54812319Y-81315463D01*
X55555266Y-80126500D01*
X56447413Y-80683975D01*
X55704466Y-81872938D01*
G37*
D19*
X66776708Y-63161039D03*
D17*
G36*
X62977162Y-70655952D02*
G01*
X61705937Y-69861603D01*
X62500286Y-68590378D01*
X63771511Y-69384727D01*
X62977162Y-70655952D01*
G37*
G36*
X63891709Y-68770606D02*
G01*
X62999562Y-68213131D01*
X63742509Y-67024168D01*
X64634656Y-67581643D01*
X63891709Y-68770606D01*
G37*
G36*
X65772923Y-65760036D02*
G01*
X64880776Y-65202561D01*
X65623723Y-64013598D01*
X66515870Y-64571073D01*
X65772923Y-65760036D01*
G37*
D19*
X39403015Y-71113607D03*
D17*
G36*
X35603469Y-78608520D02*
G01*
X34332244Y-77814171D01*
X35126593Y-76542946D01*
X36397818Y-77337295D01*
X35603469Y-78608520D01*
G37*
G36*
X36518016Y-76723174D02*
G01*
X35625869Y-76165699D01*
X36368816Y-74976736D01*
X37260963Y-75534211D01*
X36518016Y-76723174D01*
G37*
G36*
X38399230Y-73712604D02*
G01*
X37507083Y-73155129D01*
X38250030Y-71966166D01*
X39142177Y-72523641D01*
X38399230Y-73712604D01*
G37*
D19*
X49471477Y-55000673D03*
D17*
G36*
X45671931Y-62495586D02*
G01*
X44400706Y-61701237D01*
X45195055Y-60430012D01*
X46466280Y-61224361D01*
X45671931Y-62495586D01*
G37*
G36*
X46586478Y-60610240D02*
G01*
X45694331Y-60052765D01*
X46437278Y-58863802D01*
X47329425Y-59421277D01*
X46586478Y-60610240D01*
G37*
G36*
X48467692Y-57599670D02*
G01*
X47575545Y-57042195D01*
X48318492Y-55853232D01*
X49210639Y-56410707D01*
X48467692Y-57599670D01*
G37*
D19*
X59672432Y-38675764D03*
D17*
G36*
X55872886Y-46170677D02*
G01*
X54601661Y-45376328D01*
X55396010Y-44105103D01*
X56667235Y-44899452D01*
X55872886Y-46170677D01*
G37*
G36*
X56787433Y-44285331D02*
G01*
X55895286Y-43727856D01*
X56638233Y-42538893D01*
X57530380Y-43096368D01*
X56787433Y-44285331D01*
G37*
G36*
X58668647Y-41274761D02*
G01*
X57776500Y-40717286D01*
X58519447Y-39528323D01*
X59411594Y-40085798D01*
X58668647Y-41274761D01*
G37*
D19*
X20905465Y-64861355D03*
D17*
G36*
X17105919Y-72356268D02*
G01*
X15834694Y-71561919D01*
X16629043Y-70290694D01*
X17900268Y-71085043D01*
X17105919Y-72356268D01*
G37*
G36*
X18020466Y-70470922D02*
G01*
X17128319Y-69913447D01*
X17871266Y-68724484D01*
X18763413Y-69281959D01*
X18020466Y-70470922D01*
G37*
G36*
X19901680Y-67460352D02*
G01*
X19009533Y-66902877D01*
X19752480Y-65713914D01*
X20644627Y-66271389D01*
X19901680Y-67460352D01*
G37*
D19*
X30973944Y-48748436D03*
D17*
G36*
X27174398Y-56243349D02*
G01*
X25903173Y-55449000D01*
X26697522Y-54177775D01*
X27968747Y-54972124D01*
X27174398Y-56243349D01*
G37*
G36*
X28088945Y-54358003D02*
G01*
X27196798Y-53800528D01*
X27939745Y-52611565D01*
X28831892Y-53169040D01*
X28088945Y-54358003D01*
G37*
G36*
X29970159Y-51347433D02*
G01*
X29078012Y-50789958D01*
X29820959Y-49600995D01*
X30713106Y-50158470D01*
X29970159Y-51347433D01*
G37*
D19*
X41042397Y-32635524D03*
D17*
G36*
X37242851Y-40130437D02*
G01*
X35971626Y-39336088D01*
X36765975Y-38064863D01*
X38037200Y-38859212D01*
X37242851Y-40130437D01*
G37*
G36*
X38157398Y-38245091D02*
G01*
X37265251Y-37687616D01*
X38008198Y-36498653D01*
X38900345Y-37056128D01*
X38157398Y-38245091D01*
G37*
G36*
X40038612Y-35234521D02*
G01*
X39146465Y-34677046D01*
X39889412Y-33488083D01*
X40781559Y-34045558D01*
X40038612Y-35234521D01*
G37*
D19*
X4646817Y-55026070D03*
D17*
G36*
X847271Y-62520983D02*
G01*
X-423954Y-61726634D01*
X370395Y-60455409D01*
X1641620Y-61249758D01*
X847271Y-62520983D01*
G37*
G36*
X1761818Y-60635637D02*
G01*
X869671Y-60078162D01*
X1612618Y-58889199D01*
X2504765Y-59446674D01*
X1761818Y-60635637D01*
G37*
G36*
X3643032Y-57625067D02*
G01*
X2750885Y-57067592D01*
X3493832Y-55878629D01*
X4385979Y-56436104D01*
X3643032Y-57625067D01*
G37*
D19*
X14715296Y-38913185D03*
D17*
G36*
X10915750Y-46408098D02*
G01*
X9644525Y-45613749D01*
X10438874Y-44342524D01*
X11710099Y-45136873D01*
X10915750Y-46408098D01*
G37*
G36*
X11830297Y-44522752D02*
G01*
X10938150Y-43965277D01*
X11681097Y-42776314D01*
X12573244Y-43333789D01*
X11830297Y-44522752D01*
G37*
G36*
X13711511Y-41512182D02*
G01*
X12819364Y-40954707D01*
X13562311Y-39765744D01*
X14454458Y-40323219D01*
X13711511Y-41512182D01*
G37*
D19*
X24958632Y-22614749D03*
D17*
G36*
X21159086Y-30109662D02*
G01*
X19887861Y-29315313D01*
X20682210Y-28044088D01*
X21953435Y-28838437D01*
X21159086Y-30109662D01*
G37*
G36*
X22073633Y-28224316D02*
G01*
X21181486Y-27666841D01*
X21924433Y-26477878D01*
X22816580Y-27035353D01*
X22073633Y-28224316D01*
G37*
G36*
X23954847Y-25213746D02*
G01*
X23062700Y-24656271D01*
X23805647Y-23467308D01*
X24697794Y-24024783D01*
X23954847Y-25213746D01*
G37*
G36*
X141688536Y-115148317D02*
G01*
X141942674Y-114262033D01*
X143770994Y-114786295D01*
X143516856Y-115672579D01*
X141688536Y-115148317D01*
G37*
G36*
X142101992Y-113706424D02*
G01*
X142356130Y-112820140D01*
X144184450Y-113344402D01*
X143930312Y-114230686D01*
X142101992Y-113706424D01*
G37*
G36*
X137295684Y-112328237D02*
G01*
X137549822Y-111441953D01*
X139378142Y-111966215D01*
X139124004Y-112852499D01*
X137295684Y-112328237D01*
G37*
G36*
X136882228Y-113770130D02*
G01*
X137136366Y-112883846D01*
X138964686Y-113408108D01*
X138710548Y-114294392D01*
X136882228Y-113770130D01*
G37*
D22*
X208042523Y-108990480D03*
X208042523Y-107490480D03*
X213042523Y-107490480D03*
X213042523Y-108990480D03*
X246542506Y-106490479D03*
X246542506Y-104990479D03*
X251542506Y-104990479D03*
X251542506Y-106490479D03*
X284542515Y-111740478D03*
X284542515Y-110240478D03*
X289542515Y-110240478D03*
X289542515Y-111740478D03*
X289334527Y-129666815D03*
X289334527Y-131166815D03*
X284334527Y-131166815D03*
X284334527Y-129666815D03*
X245099494Y-143478117D03*
X245099494Y-144978117D03*
X240099494Y-144978117D03*
X240099494Y-143478117D03*
X200197657Y-150302252D03*
X200197657Y-151802252D03*
X195197657Y-151802252D03*
X195197657Y-150302252D03*
D17*
G36*
X172333271Y-140461611D02*
G01*
X172587409Y-139575327D01*
X174415729Y-140099589D01*
X174161591Y-140985873D01*
X172333271Y-140461611D01*
G37*
G36*
X171919815Y-141903504D02*
G01*
X172173953Y-141017220D01*
X174002273Y-141541482D01*
X173748135Y-142427766D01*
X171919815Y-141903504D01*
G37*
G36*
X167113507Y-140525317D02*
G01*
X167367645Y-139639033D01*
X169195965Y-140163295D01*
X168941827Y-141049579D01*
X167113507Y-140525317D01*
G37*
G36*
X167526963Y-139083424D02*
G01*
X167781101Y-138197140D01*
X169609421Y-138721402D01*
X169355283Y-139607686D01*
X167526963Y-139083424D01*
G37*
G36*
X107687203Y-123199015D02*
G01*
X107941341Y-122312731D01*
X109769661Y-122836993D01*
X109515523Y-123723277D01*
X107687203Y-123199015D01*
G37*
G36*
X107273747Y-124640908D02*
G01*
X107527885Y-123754624D01*
X109356205Y-124278886D01*
X109102067Y-125165170D01*
X107273747Y-124640908D01*
G37*
G36*
X112080055Y-126019095D02*
G01*
X112334193Y-125132811D01*
X114162513Y-125657073D01*
X113908375Y-126543357D01*
X112080055Y-126019095D01*
G37*
G36*
X112493511Y-124577202D02*
G01*
X112747649Y-123690918D01*
X114575969Y-124215180D01*
X114321831Y-125101464D01*
X112493511Y-124577202D01*
G37*
G36*
X75313174Y-114218601D02*
G01*
X75801760Y-113436701D01*
X77414748Y-114444607D01*
X76926162Y-115226507D01*
X75313174Y-114218601D01*
G37*
G36*
X74518295Y-115490673D02*
G01*
X75006881Y-114708773D01*
X76619869Y-115716679D01*
X76131283Y-116498579D01*
X74518295Y-115490673D01*
G37*
G36*
X70278054Y-112841077D02*
G01*
X70766640Y-112059177D01*
X72379628Y-113067083D01*
X71891042Y-113848983D01*
X70278054Y-112841077D01*
G37*
G36*
X71072933Y-111569005D02*
G01*
X71561519Y-110787105D01*
X73174507Y-111795011D01*
X72685921Y-112576911D01*
X71072933Y-111569005D01*
G37*
G36*
X41509283Y-88066249D02*
G01*
X41997869Y-87284349D01*
X43610857Y-88292255D01*
X43122271Y-89074155D01*
X41509283Y-88066249D01*
G37*
G36*
X40714404Y-89338321D02*
G01*
X41202990Y-88556421D01*
X42815978Y-89564327D01*
X42327392Y-90346227D01*
X40714404Y-89338321D01*
G37*
G36*
X36474163Y-86688725D02*
G01*
X36962749Y-85906825D01*
X38575737Y-86914731D01*
X38087151Y-87696631D01*
X36474163Y-86688725D01*
G37*
G36*
X37269042Y-85416653D02*
G01*
X37757628Y-84634753D01*
X39370616Y-85642659D01*
X38882030Y-86424559D01*
X37269042Y-85416653D01*
G37*
G36*
X8606909Y-51605492D02*
G01*
X9095495Y-50823592D01*
X10708483Y-51831498D01*
X10219897Y-52613398D01*
X8606909Y-51605492D01*
G37*
G36*
X7812030Y-52877564D02*
G01*
X8300616Y-52095664D01*
X9913604Y-53103570D01*
X9425018Y-53885470D01*
X7812030Y-52877564D01*
G37*
G36*
X3571789Y-50227968D02*
G01*
X4060375Y-49446068D01*
X5673363Y-50453974D01*
X5184777Y-51235874D01*
X3571789Y-50227968D01*
G37*
G36*
X4366668Y-48955896D02*
G01*
X4855254Y-48173996D01*
X6468242Y-49181902D01*
X5979656Y-49963802D01*
X4366668Y-48955896D01*
G37*
G36*
X15874330Y-34129044D02*
G01*
X15385744Y-34910944D01*
X13772756Y-33903038D01*
X14261342Y-33121138D01*
X15874330Y-34129044D01*
G37*
G36*
X16669209Y-32856972D02*
G01*
X16180623Y-33638872D01*
X14567635Y-32630966D01*
X15056221Y-31849066D01*
X16669209Y-32856972D01*
G37*
G36*
X20909450Y-35506568D02*
G01*
X20420864Y-36288468D01*
X18807876Y-35280562D01*
X19296462Y-34498662D01*
X20909450Y-35506568D01*
G37*
G36*
X20114571Y-36778640D02*
G01*
X19625985Y-37560540D01*
X18012997Y-36552634D01*
X18501583Y-35770734D01*
X20114571Y-36778640D01*
G37*
G36*
X51544621Y-48753657D02*
G01*
X51056035Y-49535557D01*
X49443047Y-48527651D01*
X49931633Y-47745751D01*
X51544621Y-48753657D01*
G37*
G36*
X52339500Y-47481585D02*
G01*
X51850914Y-48263485D01*
X50237926Y-47255579D01*
X50726512Y-46473679D01*
X52339500Y-47481585D01*
G37*
G36*
X56579741Y-50131181D02*
G01*
X56091155Y-50913081D01*
X54478167Y-49905175D01*
X54966753Y-49123275D01*
X56579741Y-50131181D01*
G37*
G36*
X55784862Y-51403253D02*
G01*
X55296276Y-52185153D01*
X53683288Y-51177247D01*
X54171874Y-50395347D01*
X55784862Y-51403253D01*
G37*
G36*
X80934977Y-69182380D02*
G01*
X80446391Y-69964280D01*
X78833403Y-68956374D01*
X79321989Y-68174474D01*
X80934977Y-69182380D01*
G37*
G36*
X81729856Y-67910308D02*
G01*
X81241270Y-68692208D01*
X79628282Y-67684302D01*
X80116868Y-66902402D01*
X81729856Y-67910308D01*
G37*
G36*
X85970097Y-70559904D02*
G01*
X85481511Y-71341804D01*
X83868523Y-70333898D01*
X84357109Y-69551998D01*
X85970097Y-70559904D01*
G37*
G36*
X85175218Y-71831976D02*
G01*
X84686632Y-72613876D01*
X83073644Y-71605970D01*
X83562230Y-70824070D01*
X85175218Y-71831976D01*
G37*
D23*
X134938166Y-98460813D02*
X134887824Y-98541377D01*
X132784124Y-97114818D02*
X132733782Y-97195382D01*
D17*
G36*
X129196950Y-96168630D02*
G01*
X130310840Y-94386032D01*
X132012872Y-95449580D01*
X130898982Y-97232178D01*
X129196950Y-96168630D01*
G37*
D24*
X123930498Y-111283581D02*
X123930498Y-111283581D01*
D25*
X140198481Y-94567141D02*
X140198481Y-94567141D01*
D26*
X133666866Y-90642551D03*
D27*
X185000806Y-88428102D03*
X185000806Y-90968102D03*
X185000806Y-93508102D03*
X185000806Y-96048102D03*
X185000806Y-98588102D03*
X185000806Y-101128102D03*
X185000806Y-103668102D03*
X185000806Y-106208102D03*
X185000806Y-108748102D03*
X185000806Y-111288102D03*
X185000806Y-113828102D03*
X185000806Y-116368102D03*
X169760806Y-116368102D03*
X169760806Y-113828102D03*
X169760806Y-111288102D03*
X169760806Y-108748102D03*
X169760806Y-106208102D03*
X169760806Y-103668102D03*
X169760806Y-101128102D03*
X169760806Y-98588102D03*
X169760806Y-96048102D03*
X169760806Y-93508102D03*
X169760806Y-90968102D03*
D28*
X169760806Y-88428102D03*
D29*
X232540579Y-150572222D03*
D30*
X230000579Y-155652222D03*
D29*
X226190579Y-153112222D03*
D31*
X224920579Y-155652222D03*
X235080579Y-155652222D03*
D29*
X210064240Y-152887917D03*
D30*
X208925589Y-158452221D03*
D29*
X204588011Y-156984870D03*
D31*
X204018686Y-159767022D03*
X213832492Y-157137420D03*
D29*
X192370000Y-161836920D03*
D30*
X186700591Y-162177215D03*
D29*
X186995296Y-157607658D03*
D31*
X184160591Y-157777806D03*
X189240591Y-166576624D03*
D29*
X75665515Y-124694524D03*
D30*
X75807744Y-130372356D03*
D29*
X71251256Y-129918356D03*
D31*
X71322370Y-132757272D03*
X80293118Y-127987440D03*
D29*
X64437031Y-113834314D03*
D30*
X58989478Y-115441227D03*
D29*
X58248703Y-110922494D03*
D31*
X55524926Y-111725950D03*
X62454030Y-119156504D03*
D29*
X47510266Y-98976325D03*
D30*
X42664234Y-101938414D03*
D29*
X40779166Y-97765379D03*
D31*
X38356150Y-99246424D03*
X46972318Y-104630404D03*
D29*
X298990589Y-135697227D03*
D30*
X296450589Y-140777227D03*
D29*
X292640589Y-138237227D03*
D31*
X291370589Y-140777227D03*
X301530589Y-140777227D03*
D29*
X298970588Y-116722213D03*
D30*
X296430588Y-121802213D03*
D29*
X292620588Y-119262213D03*
D31*
X291350588Y-121802213D03*
X301510588Y-121802213D03*
D29*
X299020586Y-97697243D03*
D30*
X296480586Y-102777243D03*
D29*
X292670586Y-100237243D03*
D31*
X291400586Y-102777243D03*
X301560586Y-102777243D03*
D29*
X279995593Y-135697212D03*
D30*
X277455593Y-140777212D03*
D29*
X273645593Y-138237212D03*
D31*
X272375593Y-140777212D03*
X282535593Y-140777212D03*
D29*
X279970593Y-116722240D03*
D30*
X277430593Y-121802240D03*
D29*
X273620593Y-119262240D03*
D31*
X272350593Y-121802240D03*
X282510593Y-121802240D03*
D29*
X279965595Y-97722230D03*
D30*
X277425595Y-102802230D03*
D29*
X273615595Y-100262230D03*
D31*
X272345595Y-102802230D03*
X282505595Y-102802230D03*
D29*
X260995584Y-130947228D03*
D30*
X258455584Y-136027228D03*
D29*
X254645584Y-133487228D03*
D31*
X253375584Y-136027228D03*
X263535584Y-136027228D03*
D29*
X260970597Y-111972220D03*
D30*
X258430597Y-117052220D03*
D29*
X254620597Y-114512220D03*
D31*
X253350597Y-117052220D03*
X263510597Y-117052220D03*
D29*
X260970590Y-92947219D03*
D30*
X258430590Y-98027219D03*
D29*
X254620590Y-95487219D03*
D31*
X253350590Y-98027219D03*
X263510590Y-98027219D03*
D29*
X241965587Y-128547235D03*
D30*
X239425587Y-133627235D03*
D29*
X235615587Y-131087235D03*
D31*
X234345587Y-133627235D03*
X244505587Y-133627235D03*
D29*
X241990590Y-109597229D03*
D30*
X239450590Y-114677229D03*
D29*
X235640590Y-112137229D03*
D31*
X234370590Y-114677229D03*
X244530590Y-114677229D03*
D29*
X241965593Y-90597231D03*
D30*
X239425593Y-95677231D03*
D29*
X235615593Y-93137231D03*
D31*
X234345593Y-95677231D03*
X244505593Y-95677231D03*
D29*
X222995597Y-130947217D03*
D30*
X220455597Y-136027217D03*
D29*
X216645597Y-133487217D03*
D31*
X215375597Y-136027217D03*
X225535597Y-136027217D03*
D29*
X222970596Y-111947217D03*
D30*
X220430596Y-117027217D03*
D29*
X216620596Y-114487217D03*
D31*
X215350596Y-117027217D03*
X225510596Y-117027217D03*
D29*
X223015597Y-92922216D03*
D30*
X220475597Y-98002216D03*
D29*
X216665597Y-95462216D03*
D31*
X215395597Y-98002216D03*
X225555597Y-98002216D03*
D29*
X203945589Y-133347230D03*
D30*
X201405589Y-138427230D03*
D29*
X197595589Y-135887230D03*
D31*
X196325589Y-138427230D03*
X206485589Y-138427230D03*
D29*
X203965573Y-114347235D03*
D30*
X201425573Y-119427235D03*
D29*
X197615573Y-116887235D03*
D31*
X196345573Y-119427235D03*
X206505573Y-119427235D03*
D29*
X203940586Y-95347223D03*
D30*
X201400586Y-100427223D03*
D29*
X197590586Y-97887223D03*
D31*
X196320586Y-100427223D03*
X206480586Y-100427223D03*
D29*
X80751846Y-99466080D03*
D30*
X75905814Y-102428169D03*
D29*
X74020746Y-98255134D03*
D31*
X71597730Y-99736179D03*
X80213898Y-105120159D03*
D29*
X90845737Y-83369052D03*
D30*
X85999705Y-86331141D03*
D29*
X84114637Y-82158106D03*
D31*
X81691621Y-83639151D03*
X90307789Y-89023131D03*
D29*
X100927456Y-67234965D03*
D30*
X96081424Y-70197054D03*
D29*
X94196356Y-66024019D03*
D31*
X91773340Y-67505064D03*
X100389508Y-72889044D03*
D29*
X65939888Y-87410002D03*
D30*
X61093856Y-90372091D03*
D29*
X59208788Y-86199056D03*
D31*
X56785772Y-87680101D03*
X65401940Y-93064081D03*
D29*
X75991378Y-71286483D03*
D30*
X71145346Y-74248572D03*
D29*
X69260278Y-70075537D03*
D31*
X66837262Y-71556582D03*
X75453430Y-76940562D03*
D29*
X86090067Y-55162982D03*
D30*
X81244035Y-58125071D03*
D29*
X79358967Y-53952036D03*
D31*
X76935951Y-55433081D03*
X85552119Y-60817061D03*
D29*
X51029883Y-75322134D03*
D30*
X46183851Y-78284223D03*
D29*
X44298783Y-74111188D03*
D31*
X41875767Y-75592233D03*
X50491935Y-80976213D03*
D29*
X61115835Y-59190658D03*
D30*
X56269803Y-62152747D03*
D29*
X54384735Y-57979712D03*
D31*
X51961719Y-59460757D03*
X60577887Y-64844737D03*
D29*
X71214514Y-43067149D03*
D30*
X66368482Y-46029238D03*
D29*
X64483414Y-41856203D03*
D31*
X62060398Y-43337248D03*
X70676566Y-48721228D03*
D29*
X33684900Y-67225371D03*
D30*
X28838868Y-70187460D03*
D29*
X26953800Y-66014425D03*
D31*
X24530784Y-67495470D03*
X33146952Y-72879450D03*
D29*
X43774573Y-51125704D03*
D30*
X38928541Y-54087793D03*
D29*
X37043473Y-49914758D03*
D31*
X34620457Y-51395803D03*
X43236625Y-56779783D03*
D29*
X53808585Y-35020752D03*
D30*
X48962553Y-37982841D03*
D29*
X47077485Y-33809806D03*
D31*
X44654469Y-35290851D03*
X53270637Y-40674831D03*
D29*
X15032624Y-61230196D03*
D30*
X10186592Y-64192285D03*
D29*
X8301524Y-60019250D03*
D31*
X5878508Y-61500295D03*
X14494676Y-66884275D03*
D29*
X25114340Y-45096090D03*
D30*
X20268308Y-48058179D03*
D29*
X18383240Y-43885144D03*
D31*
X15960224Y-45366189D03*
X24576392Y-50750169D03*
D29*
X35178562Y-28980509D03*
D30*
X30332530Y-31942598D03*
D29*
X28447462Y-27769563D03*
D31*
X26024446Y-29250608D03*
X34640614Y-34634588D03*
D29*
X-1036841Y-51129926D03*
D30*
X-5882873Y-54092015D03*
D29*
X-7767941Y-49918980D03*
D31*
X-10190957Y-51400025D03*
X-1574789Y-56784005D03*
D29*
X8975977Y-35011699D03*
D30*
X4129945Y-37973788D03*
D29*
X2244877Y-33800753D03*
D31*
X-178139Y-35281798D03*
X8438029Y-40665778D03*
D29*
X19078876Y-18890829D03*
D30*
X14232844Y-21852918D03*
D29*
X12347776Y-17679883D03*
D31*
X9924760Y-19160928D03*
X18540928Y-24544908D03*
M02*
