G04 #@! TF.GenerationSoftware,KiCad,Pcbnew,(5.1.5)-3*
G04 #@! TF.CreationDate,2020-11-08T14:52:40+01:00*
G04 #@! TF.ProjectId,aegis,61656769-732e-46b6-9963-61645f706362,rev?*
G04 #@! TF.SameCoordinates,Original*
G04 #@! TF.FileFunction,Legend,Bot*
G04 #@! TF.FilePolarity,Positive*
%FSLAX46Y46*%
G04 Gerber Fmt 4.6, Leading zero omitted, Abs format (unit mm)*
G04 Created by KiCad (PCBNEW (5.1.5)-3) date 2020-11-08 14:52:40*
%MOMM*%
%LPD*%
G04 APERTURE LIST*
%ADD10C,0.300000*%
%ADD11C,0.120000*%
%ADD12C,0.150000*%
%ADD13R,1.102000X1.602000*%
%ADD14C,0.100000*%
%ADD15C,2.102000*%
%ADD16O,1.832000X2.132000*%
%ADD17R,1.832000X2.132000*%
%ADD18C,1.832000*%
%ADD19C,1.499000*%
%ADD20R,1.499000X1.499000*%
%ADD21R,1.052000X1.402000*%
%ADD22R,1.902000X0.922000*%
%ADD23C,2.007000*%
%ADD24C,3.602000*%
%ADD25C,1.502000*%
%ADD26C,1.502000*%
%ADD27C,1.702000*%
%ADD28R,1.702000X1.702000*%
%ADD29C,2.352000*%
%ADD30C,4.089800*%
%ADD31C,1.852000*%
G04 APERTURE END LIST*
D10*
X130089340Y-123162050D02*
X130364977Y-122200789D01*
X130502796Y-121720158D02*
X130551769Y-121808508D01*
X130463419Y-121857481D01*
X130414446Y-121769131D01*
X130502796Y-121720158D01*
X130463419Y-121857481D01*
X129678362Y-122003905D02*
X129402724Y-122965166D01*
X129638985Y-122141228D02*
X129590012Y-122052878D01*
X129472377Y-121944840D01*
X129266393Y-121885774D01*
X129109381Y-121915059D01*
X129001343Y-122032694D01*
X128784771Y-122787971D01*
X128511115Y-121669202D02*
X127892170Y-122532022D01*
X127824500Y-121472318D01*
X126469966Y-122049904D02*
X126587601Y-122157943D01*
X126862247Y-122236696D01*
X127019259Y-122207411D01*
X127127297Y-122089777D01*
X127284804Y-121540484D01*
X127255519Y-121383473D01*
X127137884Y-121275435D01*
X126863238Y-121196681D01*
X126706227Y-121225966D01*
X126598188Y-121343601D01*
X126558812Y-121480924D01*
X127206050Y-121815131D01*
X125763662Y-121921682D02*
X126039300Y-120960420D01*
X125960546Y-121235067D02*
X125931261Y-121078055D01*
X125882288Y-120989705D01*
X125764653Y-120881667D01*
X125627330Y-120842290D01*
X125352684Y-120763537D02*
X124803392Y-120606030D01*
X125284518Y-120223841D02*
X124930127Y-121459748D01*
X124822089Y-121577383D01*
X124665078Y-121606668D01*
X124527754Y-121567291D01*
X123517520Y-121203304D02*
X123635154Y-121311342D01*
X123909801Y-121390096D01*
X124066812Y-121360811D01*
X124174850Y-121243176D01*
X124332357Y-120693884D01*
X124303073Y-120536872D01*
X124185438Y-120428834D01*
X123910792Y-120350081D01*
X123753780Y-120379365D01*
X123645742Y-120497000D01*
X123606365Y-120634323D01*
X124253604Y-120968530D01*
X122193262Y-120897886D02*
X122606718Y-119455994D01*
X122212950Y-120829225D02*
X122330585Y-120937263D01*
X122605231Y-121016017D01*
X122762243Y-120986732D01*
X122850592Y-120937759D01*
X122958631Y-120820124D01*
X123076761Y-120408155D01*
X123047476Y-120251143D01*
X122998503Y-120162793D01*
X122880868Y-120054755D01*
X122606222Y-119976001D01*
X122449211Y-120005286D01*
D11*
X149619368Y-103062699D02*
X152419368Y-103062699D01*
X152419368Y-103062699D02*
X152419368Y-101062699D01*
X152419368Y-101062699D02*
X149619368Y-101062699D01*
X149619368Y-101062699D02*
X149619368Y-103062699D01*
X147608635Y-97756067D02*
X150408208Y-97707200D01*
X150408208Y-97707200D02*
X150373303Y-95707505D01*
X150373303Y-95707505D02*
X147573730Y-95756372D01*
X147573730Y-95756372D02*
X147608635Y-97756067D01*
D12*
X106196613Y-82490390D02*
X106329092Y-82278378D01*
X106329092Y-82278378D02*
X111417381Y-85457894D01*
X111417381Y-85457894D02*
X111284901Y-85669906D01*
X109695143Y-88214050D02*
X109562664Y-88426062D01*
X109562664Y-88426062D02*
X104474375Y-85246546D01*
X104474375Y-85246546D02*
X104606855Y-85034534D01*
X167427317Y-135205719D02*
X167427317Y-135455719D01*
X167427317Y-135455719D02*
X161427317Y-135455719D01*
X161427317Y-135455719D02*
X161427317Y-135205719D01*
X161427317Y-132205719D02*
X161427317Y-131955719D01*
X161427317Y-131955719D02*
X167427317Y-131955719D01*
X167427317Y-131955719D02*
X167427317Y-132205719D01*
D11*
X136954140Y-110757697D02*
X137516519Y-111122911D01*
X137328296Y-110703874D02*
X137051620Y-111129919D01*
X139771962Y-106875668D02*
X140026505Y-106483707D01*
D12*
X63821988Y-53232494D02*
X62549916Y-52437615D01*
X60960424Y-57811953D02*
X63821988Y-53232494D01*
X59688352Y-57017074D02*
X60960424Y-57811953D01*
X62549916Y-52437615D02*
X59688352Y-57017074D01*
X61066186Y-55283848D02*
X61914234Y-55813768D01*
X62444154Y-54965720D02*
X61543202Y-55464003D01*
X61596106Y-54435800D02*
X62444154Y-54965720D01*
X61543202Y-55464003D02*
X61596106Y-54435800D01*
X93663191Y-77185650D02*
X92391119Y-76390771D01*
X90801627Y-81765109D02*
X93663191Y-77185650D01*
X89529555Y-80970230D02*
X90801627Y-81765109D01*
X92391119Y-76390771D02*
X89529555Y-80970230D01*
X90907389Y-79237004D02*
X91755437Y-79766924D01*
X92285357Y-78918876D02*
X91384405Y-79417159D01*
X91437309Y-78388956D02*
X92285357Y-78918876D01*
X91384405Y-79417159D02*
X91437309Y-78388956D01*
X78610106Y-65421088D02*
X77338034Y-64626209D01*
X75748542Y-70000547D02*
X78610106Y-65421088D01*
X74476470Y-69205668D02*
X75748542Y-70000547D01*
X77338034Y-64626209D02*
X74476470Y-69205668D01*
X75854304Y-67472442D02*
X76702352Y-68002362D01*
X77232272Y-67154314D02*
X76331320Y-67652597D01*
X76384224Y-66624394D02*
X77232272Y-67154314D01*
X76331320Y-67652597D02*
X76384224Y-66624394D01*
X125061910Y-93891211D02*
X124267031Y-95163283D01*
X129641369Y-96752775D02*
X125061910Y-93891211D01*
X128846490Y-98024847D02*
X129641369Y-96752775D01*
X124267031Y-95163283D02*
X128846490Y-98024847D01*
X127113264Y-96647013D02*
X127643184Y-95798965D01*
X126795136Y-95269045D02*
X127293419Y-96169997D01*
X126265216Y-96117093D02*
X126795136Y-95269045D01*
X127293419Y-96169997D02*
X126265216Y-96117093D01*
X227177313Y-157005726D02*
X225677313Y-157005726D01*
X227177313Y-162405726D02*
X227177313Y-157005726D01*
X225677313Y-162405726D02*
X227177313Y-162405726D01*
X225677313Y-157005726D02*
X225677313Y-162405726D01*
X225927313Y-160205726D02*
X226927313Y-160205726D01*
X226927313Y-159205726D02*
X226427313Y-160105726D01*
X225927313Y-159205726D02*
X226927313Y-159205726D01*
X226427313Y-160105726D02*
X225927313Y-159205726D01*
X204702958Y-157153616D02*
X203254069Y-157541845D01*
X206100581Y-162369615D02*
X204702958Y-157153616D01*
X204651692Y-162757844D02*
X206100581Y-162369615D01*
X203254069Y-157541845D02*
X204651692Y-162757844D01*
X204323772Y-160568102D02*
X205289697Y-160309283D01*
X205030878Y-159343358D02*
X204780853Y-160342100D01*
X204064953Y-159602177D02*
X205030878Y-159343358D01*
X204780853Y-160342100D02*
X204064953Y-159602177D01*
X181627931Y-174457980D02*
X180855374Y-173172229D01*
X176999228Y-177239185D02*
X181627931Y-174457980D01*
X176226671Y-175953434D02*
X176999228Y-177239185D01*
X180855374Y-173172229D02*
X176226671Y-175953434D01*
X178241198Y-175034642D02*
X178756236Y-175891810D01*
X179613404Y-175376772D02*
X178584434Y-175411722D01*
X179098366Y-174519604D02*
X179613404Y-175376772D01*
X178584434Y-175411722D02*
X179098366Y-174519604D01*
X69875299Y-127117768D02*
X68550878Y-127821975D01*
X72410446Y-131885685D02*
X69875299Y-127117768D01*
X71086025Y-132589892D02*
X72410446Y-131885685D01*
X68550878Y-127821975D02*
X71086025Y-132589892D01*
X70273924Y-130530040D02*
X71156872Y-130060568D01*
X70687400Y-129177620D02*
X70668451Y-130207009D01*
X69804452Y-129647092D02*
X70687400Y-129177620D01*
X70668451Y-130207009D02*
X69804452Y-129647092D01*
X55529572Y-125329578D02*
X54506574Y-124232547D01*
X51580262Y-129012369D02*
X55529572Y-125329578D01*
X50557264Y-127915338D02*
X51580262Y-129012369D01*
X54506574Y-124232547D02*
X50557264Y-127915338D01*
X52336742Y-126597780D02*
X53018740Y-127329134D01*
X53750094Y-126647136D02*
X52750877Y-126895257D01*
X53068096Y-125915782D02*
X53750094Y-126647136D01*
X52750877Y-126895257D02*
X53068096Y-125915782D01*
X40480739Y-108513577D02*
X39208667Y-107718698D01*
X37619175Y-113093036D02*
X40480739Y-108513577D01*
X36347103Y-112298157D02*
X37619175Y-113093036D01*
X39208667Y-107718698D02*
X36347103Y-112298157D01*
X37724937Y-110564931D02*
X38572985Y-111094851D01*
X39102905Y-110246803D02*
X38201953Y-110745086D01*
X38254857Y-109716883D02*
X39102905Y-110246803D01*
X38201953Y-110745086D02*
X38254857Y-109716883D01*
X291427313Y-143255725D02*
X289927313Y-143255725D01*
X291427313Y-148655725D02*
X291427313Y-143255725D01*
X289927313Y-148655725D02*
X291427313Y-148655725D01*
X289927313Y-143255725D02*
X289927313Y-148655725D01*
X290177313Y-146455725D02*
X291177313Y-146455725D01*
X291177313Y-145455725D02*
X290677313Y-146355725D01*
X290177313Y-145455725D02*
X291177313Y-145455725D01*
X290677313Y-146355725D02*
X290177313Y-145455725D01*
X291427304Y-124505715D02*
X289927304Y-124505715D01*
X291427304Y-129905715D02*
X291427304Y-124505715D01*
X289927304Y-129905715D02*
X291427304Y-129905715D01*
X289927304Y-124505715D02*
X289927304Y-129905715D01*
X290177304Y-127705715D02*
X291177304Y-127705715D01*
X291177304Y-126705715D02*
X290677304Y-127605715D01*
X290177304Y-126705715D02*
X291177304Y-126705715D01*
X290677304Y-127605715D02*
X290177304Y-126705715D01*
X291427294Y-105255702D02*
X289927294Y-105255702D01*
X291427294Y-110655702D02*
X291427294Y-105255702D01*
X289927294Y-110655702D02*
X291427294Y-110655702D01*
X289927294Y-105255702D02*
X289927294Y-110655702D01*
X290177294Y-108455702D02*
X291177294Y-108455702D01*
X291177294Y-107455702D02*
X290677294Y-108355702D01*
X290177294Y-107455702D02*
X291177294Y-107455702D01*
X290677294Y-108355702D02*
X290177294Y-107455702D01*
X274427302Y-142255741D02*
X272927302Y-142255741D01*
X274427302Y-147655741D02*
X274427302Y-142255741D01*
X272927302Y-147655741D02*
X274427302Y-147655741D01*
X272927302Y-142255741D02*
X272927302Y-147655741D01*
X273177302Y-145455741D02*
X274177302Y-145455741D01*
X274177302Y-144455741D02*
X273677302Y-145355741D01*
X273177302Y-144455741D02*
X274177302Y-144455741D01*
X273677302Y-145355741D02*
X273177302Y-144455741D01*
X274427294Y-123255721D02*
X272927294Y-123255721D01*
X274427294Y-128655721D02*
X274427294Y-123255721D01*
X272927294Y-128655721D02*
X274427294Y-128655721D01*
X272927294Y-123255721D02*
X272927294Y-128655721D01*
X273177294Y-126455721D02*
X274177294Y-126455721D01*
X274177294Y-125455721D02*
X273677294Y-126355721D01*
X273177294Y-125455721D02*
X274177294Y-125455721D01*
X273677294Y-126355721D02*
X273177294Y-125455721D01*
X274427313Y-104005728D02*
X272927313Y-104005728D01*
X274427313Y-109405728D02*
X274427313Y-104005728D01*
X272927313Y-109405728D02*
X274427313Y-109405728D01*
X272927313Y-104005728D02*
X272927313Y-109405728D01*
X273177313Y-107205728D02*
X274177313Y-107205728D01*
X274177313Y-106205728D02*
X273677313Y-107105728D01*
X273177313Y-106205728D02*
X274177313Y-106205728D01*
X273677313Y-107105728D02*
X273177313Y-106205728D01*
X255427304Y-137755727D02*
X253927304Y-137755727D01*
X255427304Y-143155727D02*
X255427304Y-137755727D01*
X253927304Y-143155727D02*
X255427304Y-143155727D01*
X253927304Y-137755727D02*
X253927304Y-143155727D01*
X254177304Y-140955727D02*
X255177304Y-140955727D01*
X255177304Y-139955727D02*
X254677304Y-140855727D01*
X254177304Y-139955727D02*
X255177304Y-139955727D01*
X254677304Y-140855727D02*
X254177304Y-139955727D01*
X255427300Y-118505726D02*
X253927300Y-118505726D01*
X255427300Y-123905726D02*
X255427300Y-118505726D01*
X253927300Y-123905726D02*
X255427300Y-123905726D01*
X253927300Y-118505726D02*
X253927300Y-123905726D01*
X254177300Y-121705726D02*
X255177300Y-121705726D01*
X255177300Y-120705726D02*
X254677300Y-121605726D01*
X254177300Y-120705726D02*
X255177300Y-120705726D01*
X254677300Y-121605726D02*
X254177300Y-120705726D01*
X255427324Y-102005714D02*
X253927324Y-102005714D01*
X255427324Y-107405714D02*
X255427324Y-102005714D01*
X253927324Y-107405714D02*
X255427324Y-107405714D01*
X253927324Y-102005714D02*
X253927324Y-107405714D01*
X254177324Y-105205714D02*
X255177324Y-105205714D01*
X255177324Y-104205714D02*
X254677324Y-105105714D01*
X254177324Y-104205714D02*
X255177324Y-104205714D01*
X254677324Y-105105714D02*
X254177324Y-104205714D01*
X236427293Y-135005732D02*
X234927293Y-135005732D01*
X236427293Y-140405732D02*
X236427293Y-135005732D01*
X234927293Y-140405732D02*
X236427293Y-140405732D01*
X234927293Y-135005732D02*
X234927293Y-140405732D01*
X235177293Y-138205732D02*
X236177293Y-138205732D01*
X236177293Y-137205732D02*
X235677293Y-138105732D01*
X235177293Y-137205732D02*
X236177293Y-137205732D01*
X235677293Y-138105732D02*
X235177293Y-137205732D01*
X236427291Y-116255720D02*
X234927291Y-116255720D01*
X236427291Y-121655720D02*
X236427291Y-116255720D01*
X234927291Y-121655720D02*
X236427291Y-121655720D01*
X234927291Y-116255720D02*
X234927291Y-121655720D01*
X235177291Y-119455720D02*
X236177291Y-119455720D01*
X236177291Y-118455720D02*
X235677291Y-119355720D01*
X235177291Y-118455720D02*
X236177291Y-118455720D01*
X235677291Y-119355720D02*
X235177291Y-118455720D01*
X236427307Y-97255717D02*
X234927307Y-97255717D01*
X236427307Y-102655717D02*
X236427307Y-97255717D01*
X234927307Y-102655717D02*
X236427307Y-102655717D01*
X234927307Y-97255717D02*
X234927307Y-102655717D01*
X235177307Y-100455717D02*
X236177307Y-100455717D01*
X236177307Y-99455717D02*
X235677307Y-100355717D01*
X235177307Y-99455717D02*
X236177307Y-99455717D01*
X235677307Y-100355717D02*
X235177307Y-99455717D01*
X217427309Y-137255713D02*
X215927309Y-137255713D01*
X217427309Y-142655713D02*
X217427309Y-137255713D01*
X215927309Y-142655713D02*
X217427309Y-142655713D01*
X215927309Y-137255713D02*
X215927309Y-142655713D01*
X216177309Y-140455713D02*
X217177309Y-140455713D01*
X217177309Y-139455713D02*
X216677309Y-140355713D01*
X216177309Y-139455713D02*
X217177309Y-139455713D01*
X216677309Y-140355713D02*
X216177309Y-139455713D01*
X217427300Y-118505722D02*
X215927300Y-118505722D01*
X217427300Y-123905722D02*
X217427300Y-118505722D01*
X215927300Y-123905722D02*
X217427300Y-123905722D01*
X215927300Y-118505722D02*
X215927300Y-123905722D01*
X216177300Y-121705722D02*
X217177300Y-121705722D01*
X217177300Y-120705722D02*
X216677300Y-121605722D01*
X216177300Y-120705722D02*
X217177300Y-120705722D01*
X216677300Y-121605722D02*
X216177300Y-120705722D01*
X217427308Y-99505723D02*
X215927308Y-99505723D01*
X217427308Y-104905723D02*
X217427308Y-99505723D01*
X215927308Y-104905723D02*
X217427308Y-104905723D01*
X215927308Y-99505723D02*
X215927308Y-104905723D01*
X216177308Y-102705723D02*
X217177308Y-102705723D01*
X217177308Y-101705723D02*
X216677308Y-102605723D01*
X216177308Y-101705723D02*
X217177308Y-101705723D01*
X216677308Y-102605723D02*
X216177308Y-101705723D01*
X198427320Y-140005722D02*
X196927320Y-140005722D01*
X198427320Y-145405722D02*
X198427320Y-140005722D01*
X196927320Y-145405722D02*
X198427320Y-145405722D01*
X196927320Y-140005722D02*
X196927320Y-145405722D01*
X197177320Y-143205722D02*
X198177320Y-143205722D01*
X198177320Y-142205722D02*
X197677320Y-143105722D01*
X197177320Y-142205722D02*
X198177320Y-142205722D01*
X197677320Y-143105722D02*
X197177320Y-142205722D01*
X198427307Y-121005714D02*
X196927307Y-121005714D01*
X198427307Y-126405714D02*
X198427307Y-121005714D01*
X196927307Y-126405714D02*
X198427307Y-126405714D01*
X196927307Y-121005714D02*
X196927307Y-126405714D01*
X197177307Y-124205714D02*
X198177307Y-124205714D01*
X198177307Y-123205714D02*
X197677307Y-124105714D01*
X197177307Y-123205714D02*
X198177307Y-123205714D01*
X197677307Y-124105714D02*
X197177307Y-123205714D01*
X198427296Y-102005718D02*
X196927296Y-102005718D01*
X198427296Y-107405718D02*
X198427296Y-102005718D01*
X196927296Y-107405718D02*
X198427296Y-107405718D01*
X196927296Y-102005718D02*
X196927296Y-107405718D01*
X197177296Y-105205718D02*
X198177296Y-105205718D01*
X198177296Y-104205718D02*
X197677296Y-105105718D01*
X197177296Y-104205718D02*
X198177296Y-104205718D01*
X197677296Y-105105718D02*
X197177296Y-104205718D01*
X73128833Y-110047523D02*
X71856761Y-109252644D01*
X70267269Y-114626982D02*
X73128833Y-110047523D01*
X68995197Y-113832103D02*
X70267269Y-114626982D01*
X71856761Y-109252644D02*
X68995197Y-113832103D01*
X70373031Y-112098877D02*
X71221079Y-112628797D01*
X71750999Y-111780749D02*
X70850047Y-112279032D01*
X70902951Y-111250829D02*
X71750999Y-111780749D01*
X70850047Y-112279032D02*
X70902951Y-111250829D01*
X83197265Y-93934605D02*
X81925193Y-93139726D01*
X80335701Y-98514064D02*
X83197265Y-93934605D01*
X79063629Y-97719185D02*
X80335701Y-98514064D01*
X81925193Y-93139726D02*
X79063629Y-97719185D01*
X80441463Y-95985959D02*
X81289511Y-96515879D01*
X81819431Y-95667831D02*
X80918479Y-96166114D01*
X80971383Y-95137911D02*
X81819431Y-95667831D01*
X80918479Y-96166114D02*
X80971383Y-95137911D01*
X58473173Y-97646900D02*
X57201101Y-96852021D01*
X55611609Y-102226359D02*
X58473173Y-97646900D01*
X54339537Y-101431480D02*
X55611609Y-102226359D01*
X57201101Y-96852021D02*
X54339537Y-101431480D01*
X55717371Y-99698254D02*
X56565419Y-100228174D01*
X57095339Y-99380126D02*
X56194387Y-99878409D01*
X56247291Y-98850206D02*
X57095339Y-99380126D01*
X56194387Y-99878409D02*
X56247291Y-98850206D01*
X68409165Y-81746012D02*
X67137093Y-80951133D01*
X65547601Y-86325471D02*
X68409165Y-81746012D01*
X64275529Y-85530592D02*
X65547601Y-86325471D01*
X67137093Y-80951133D02*
X64275529Y-85530592D01*
X65653363Y-83797366D02*
X66501411Y-84327286D01*
X67031331Y-83479238D02*
X66130379Y-83977521D01*
X66183283Y-82949318D02*
X67031331Y-83479238D01*
X66130379Y-83977521D02*
X66183283Y-82949318D01*
X43552586Y-85670323D02*
X42280514Y-84875444D01*
X40691022Y-90249782D02*
X43552586Y-85670323D01*
X39418950Y-89454903D02*
X40691022Y-90249782D01*
X42280514Y-84875444D02*
X39418950Y-89454903D01*
X40796784Y-87721677D02*
X41644832Y-88251597D01*
X42174752Y-87403549D02*
X41273800Y-87901832D01*
X41326704Y-86873629D02*
X42174752Y-87403549D01*
X41273800Y-87901832D02*
X41326704Y-86873629D01*
X53621040Y-69557423D02*
X52348968Y-68762544D01*
X50759476Y-74136882D02*
X53621040Y-69557423D01*
X49487404Y-73342003D02*
X50759476Y-74136882D01*
X52348968Y-68762544D02*
X49487404Y-73342003D01*
X50865238Y-71608777D02*
X51713286Y-72138697D01*
X52243206Y-71290649D02*
X51342254Y-71788932D01*
X51395158Y-70760729D02*
X52243206Y-71290649D01*
X51342254Y-71788932D02*
X51395158Y-70760729D01*
X26247343Y-77509993D02*
X24975271Y-76715114D01*
X23385779Y-82089452D02*
X26247343Y-77509993D01*
X22113707Y-81294573D02*
X23385779Y-82089452D01*
X24975271Y-76715114D02*
X22113707Y-81294573D01*
X23491541Y-79561347D02*
X24339589Y-80091267D01*
X24869509Y-79243219D02*
X23968557Y-79741502D01*
X24021461Y-78713299D02*
X24869509Y-79243219D01*
X23968557Y-79741502D02*
X24021461Y-78713299D01*
X36315808Y-61397058D02*
X35043736Y-60602179D01*
X33454244Y-65976517D02*
X36315808Y-61397058D01*
X32182172Y-65181638D02*
X33454244Y-65976517D01*
X35043736Y-60602179D02*
X32182172Y-65181638D01*
X33560006Y-63448412D02*
X34408054Y-63978332D01*
X34937974Y-63130284D02*
X34037022Y-63628567D01*
X34089926Y-62600364D02*
X34937974Y-63130284D01*
X34037022Y-63628567D02*
X34089926Y-62600364D01*
X46516758Y-45072149D02*
X45244686Y-44277270D01*
X43655194Y-49651608D02*
X46516758Y-45072149D01*
X42383122Y-48856729D02*
X43655194Y-49651608D01*
X45244686Y-44277270D02*
X42383122Y-48856729D01*
X43760956Y-47123503D02*
X44609004Y-47653423D01*
X45138924Y-46805375D02*
X44237972Y-47303658D01*
X44290876Y-46275455D02*
X45138924Y-46805375D01*
X44237972Y-47303658D02*
X44290876Y-46275455D01*
X7749798Y-71257744D02*
X6477726Y-70462865D01*
X4888234Y-75837203D02*
X7749798Y-71257744D01*
X3616162Y-75042324D02*
X4888234Y-75837203D01*
X6477726Y-70462865D02*
X3616162Y-75042324D01*
X4993996Y-73309098D02*
X5842044Y-73839018D01*
X6371964Y-72990970D02*
X5471012Y-73489253D01*
X5523916Y-72461050D02*
X6371964Y-72990970D01*
X5471012Y-73489253D02*
X5523916Y-72461050D01*
X17818271Y-55144823D02*
X16546199Y-54349944D01*
X14956707Y-59724282D02*
X17818271Y-55144823D01*
X13684635Y-58929403D02*
X14956707Y-59724282D01*
X16546199Y-54349944D02*
X13684635Y-58929403D01*
X15062469Y-57196177D02*
X15910517Y-57726097D01*
X16440437Y-56878049D02*
X15539485Y-57376332D01*
X15592389Y-56348129D02*
X16440437Y-56878049D01*
X15539485Y-57376332D02*
X15592389Y-56348129D01*
X27886729Y-39031910D02*
X26614657Y-38237031D01*
X25025165Y-43611369D02*
X27886729Y-39031910D01*
X23753093Y-42816490D02*
X25025165Y-43611369D01*
X26614657Y-38237031D02*
X23753093Y-42816490D01*
X25130927Y-41083264D02*
X25978975Y-41613184D01*
X26508895Y-40765136D02*
X25607943Y-41263419D01*
X25660847Y-40235216D02*
X26508895Y-40765136D01*
X25607943Y-41263419D02*
X25660847Y-40235216D01*
X-8508852Y-61422452D02*
X-9780924Y-60627573D01*
X-11370416Y-66001911D02*
X-8508852Y-61422452D01*
X-12642488Y-65207032D02*
X-11370416Y-66001911D01*
X-9780924Y-60627573D02*
X-12642488Y-65207032D01*
X-11264654Y-63473806D02*
X-10416606Y-64003726D01*
X-9886686Y-63155678D02*
X-10787638Y-63653961D01*
X-10734734Y-62625758D02*
X-9886686Y-63155678D01*
X-10787638Y-63653961D02*
X-10734734Y-62625758D01*
X1559623Y-45309567D02*
X287551Y-44514688D01*
X-1301941Y-49889026D02*
X1559623Y-45309567D01*
X-2574013Y-49094147D02*
X-1301941Y-49889026D01*
X287551Y-44514688D02*
X-2574013Y-49094147D01*
X-1196179Y-47360921D02*
X-348131Y-47890841D01*
X181789Y-47042793D02*
X-719163Y-47541076D01*
X-666259Y-46512873D02*
X181789Y-47042793D01*
X-719163Y-47541076D02*
X-666259Y-46512873D01*
X11802965Y-29011136D02*
X10530893Y-28216257D01*
X8941401Y-33590595D02*
X11802965Y-29011136D01*
X7669329Y-32795716D02*
X8941401Y-33590595D01*
X10530893Y-28216257D02*
X7669329Y-32795716D01*
X9047163Y-31062490D02*
X9895211Y-31592410D01*
X10425131Y-30744362D02*
X9524179Y-31242645D01*
X9577083Y-30214442D02*
X10425131Y-30744362D01*
X9524179Y-31242645D02*
X9577083Y-30214442D01*
X124667265Y-116290946D02*
X124378886Y-116208255D01*
X124296195Y-116496633D02*
X124667265Y-116290946D01*
X124378886Y-116208255D02*
X124296195Y-116496633D01*
X200539026Y-111798091D02*
X200839026Y-111798091D01*
X200839026Y-112098091D02*
X200539026Y-111798091D01*
X239039006Y-109298086D02*
X239339006Y-109298086D01*
X239339006Y-109598086D02*
X239039006Y-109298086D01*
X277039017Y-114548092D02*
X277339017Y-114548092D01*
X277339017Y-114848092D02*
X277039017Y-114548092D01*
X270431027Y-136974425D02*
X270131027Y-136974425D01*
X270131027Y-136674425D02*
X270431027Y-136974425D01*
X226196001Y-150785725D02*
X225896001Y-150785725D01*
X225896001Y-150485725D02*
X226196001Y-150785725D01*
X181294162Y-157609869D02*
X180994162Y-157609869D01*
X180994162Y-157309869D02*
X181294162Y-157609869D01*
X154071632Y-145929917D02*
X153783253Y-145847226D01*
X153865944Y-145558847D02*
X154071632Y-145929917D01*
X94026180Y-129674436D02*
X94231868Y-130045506D01*
X94231868Y-130045506D02*
X93943489Y-129962815D01*
X57134273Y-118276781D02*
X56879859Y-118117806D01*
X57038835Y-117863391D02*
X57134273Y-118276781D01*
X23330383Y-92124439D02*
X23075969Y-91965464D01*
X23234945Y-91711049D02*
X23330383Y-92124439D01*
X-9571990Y-55663678D02*
X-9826404Y-55504703D01*
X-9667428Y-55250288D02*
X-9571990Y-55663678D01*
X7646238Y-40186085D02*
X7900652Y-40345060D01*
X7741676Y-40599475D02*
X7646238Y-40186085D01*
X43316531Y-54810691D02*
X43570945Y-54969666D01*
X43411969Y-55224081D02*
X43316531Y-54810691D01*
X72706891Y-75239424D02*
X72961305Y-75398399D01*
X72802329Y-75652814D02*
X72706891Y-75239424D01*
D11*
X119754101Y-106688008D02*
X121100096Y-104533966D01*
X117600059Y-105342013D02*
X118946054Y-103187971D01*
X115446017Y-103996018D02*
X116792012Y-101841976D01*
X113521648Y-121530684D02*
X121942065Y-108055200D01*
X104837636Y-116104311D02*
X113258053Y-102628827D01*
X104837636Y-116104311D02*
X113521648Y-121530684D01*
X113258053Y-102628827D02*
X121942065Y-108055200D01*
X126189248Y-99140615D02*
X125374939Y-98651329D01*
X121269107Y-96184297D02*
X122083416Y-96673583D01*
X124901104Y-99439923D02*
X121609581Y-97462177D01*
X125848774Y-97862735D02*
X124901104Y-99439923D01*
X122557251Y-95884989D02*
X125848774Y-97862735D01*
X121609581Y-97462177D02*
X122557251Y-95884989D01*
D12*
X173067310Y-92215719D02*
X173067310Y-122695719D01*
X167987310Y-92215719D02*
X173067310Y-92215719D01*
X167987310Y-89675719D02*
X167987310Y-92215719D01*
X160367310Y-89675719D02*
X167987310Y-89675719D01*
X160367310Y-92215719D02*
X160367310Y-89675719D01*
X155287310Y-92215719D02*
X160367310Y-92215719D01*
X155287310Y-122695719D02*
X155287310Y-92215719D01*
X173067310Y-122695719D02*
X155287310Y-122695719D01*
X155757463Y-103315079D02*
X155424129Y-104315079D01*
X155090796Y-103315079D01*
X154186034Y-104219841D02*
X154233653Y-104267460D01*
X154376510Y-104315079D01*
X154471748Y-104315079D01*
X154614606Y-104267460D01*
X154709844Y-104172222D01*
X154757463Y-104076984D01*
X154805082Y-103886508D01*
X154805082Y-103743651D01*
X154757463Y-103553175D01*
X154709844Y-103457937D01*
X154614606Y-103362699D01*
X154471748Y-103315079D01*
X154376510Y-103315079D01*
X154233653Y-103362699D01*
X154186034Y-103410318D01*
X153186034Y-104219841D02*
X153233653Y-104267460D01*
X153376510Y-104315079D01*
X153471748Y-104315079D01*
X153614606Y-104267460D01*
X153709844Y-104172222D01*
X153757463Y-104076984D01*
X153805082Y-103886508D01*
X153805082Y-103743651D01*
X153757463Y-103553175D01*
X153709844Y-103457937D01*
X153614606Y-103362699D01*
X153471748Y-103315079D01*
X153376510Y-103315079D01*
X153233653Y-103362699D01*
X153186034Y-103410318D01*
X151995558Y-103934127D02*
X151233653Y-103934127D01*
X150757463Y-103648413D02*
X149995558Y-103934127D01*
X150757463Y-104219841D01*
X148805082Y-104267460D02*
X148662225Y-104315079D01*
X148424129Y-104315079D01*
X148328891Y-104267460D01*
X148281272Y-104219841D01*
X148233653Y-104124603D01*
X148233653Y-104029365D01*
X148281272Y-103934127D01*
X148328891Y-103886508D01*
X148424129Y-103838889D01*
X148614606Y-103791270D01*
X148709844Y-103743651D01*
X148757463Y-103696032D01*
X148805082Y-103600794D01*
X148805082Y-103505556D01*
X148757463Y-103410318D01*
X148709844Y-103362699D01*
X148614606Y-103315079D01*
X148376510Y-103315079D01*
X148233653Y-103362699D01*
X147614606Y-103315079D02*
X147424129Y-103315079D01*
X147328891Y-103362699D01*
X147233653Y-103457937D01*
X147186034Y-103648413D01*
X147186034Y-103981746D01*
X147233653Y-104172222D01*
X147328891Y-104267460D01*
X147424129Y-104315079D01*
X147614606Y-104315079D01*
X147709844Y-104267460D01*
X147805082Y-104172222D01*
X147852701Y-103981746D01*
X147852701Y-103648413D01*
X147805082Y-103457937D01*
X147709844Y-103362699D01*
X147614606Y-103315079D01*
X146281272Y-104315079D02*
X146757463Y-104315079D01*
X146757463Y-103315079D01*
X153124892Y-98912353D02*
X153449864Y-98430417D01*
X153696234Y-98902380D02*
X153678781Y-97902532D01*
X153297887Y-97909181D01*
X153203494Y-97958455D01*
X153156714Y-98006898D01*
X153110764Y-98102952D01*
X153113257Y-98245788D01*
X153162531Y-98340180D01*
X153210974Y-98386961D01*
X153307029Y-98432911D01*
X153687923Y-98426262D01*
X152739011Y-98633331D02*
X152262893Y-98641641D01*
X152839221Y-98917339D02*
X152488486Y-97923309D01*
X152172656Y-98928974D01*
X151917145Y-97933282D02*
X151696538Y-98937285D01*
X151493625Y-98226432D01*
X151315644Y-98943933D01*
X151060132Y-97948241D01*
X149928253Y-98587140D02*
X149166464Y-98600437D01*
X148685360Y-98323077D02*
X147928558Y-98622045D01*
X148695333Y-98894418D01*
X146744080Y-98976104D02*
X146602076Y-99026209D01*
X146364017Y-99030364D01*
X146267962Y-98984415D01*
X146219520Y-98937634D01*
X146170246Y-98843241D01*
X146168584Y-98748018D01*
X146214533Y-98651963D01*
X146261314Y-98603520D01*
X146355706Y-98554246D01*
X146545323Y-98503310D01*
X146639715Y-98454036D01*
X146686496Y-98405593D01*
X146732445Y-98309539D01*
X146730783Y-98214315D01*
X146681509Y-98119923D01*
X146633067Y-98073142D01*
X146537012Y-98027192D01*
X146298953Y-98031348D01*
X146156949Y-98081453D01*
X145537164Y-98044645D02*
X145346717Y-98047969D01*
X145252324Y-98097243D01*
X145158763Y-98194129D01*
X145114476Y-98385407D01*
X145120293Y-98718689D01*
X145171229Y-98908306D01*
X145268115Y-99001867D01*
X145364169Y-99047817D01*
X145554617Y-99044492D01*
X145649009Y-98995219D01*
X145742571Y-98898333D01*
X145786858Y-98707055D01*
X145781041Y-98373772D01*
X145730105Y-98184156D01*
X145633219Y-98090594D01*
X145537164Y-98044645D01*
X144221486Y-99067762D02*
X144697604Y-99059452D01*
X144680152Y-98059604D01*
X108835182Y-86385205D02*
X108688798Y-86349885D01*
X108486881Y-86223714D01*
X108431349Y-86132862D01*
X108416200Y-86067245D01*
X108426285Y-85961244D01*
X108476754Y-85880477D01*
X108567606Y-85824945D01*
X108633223Y-85809796D01*
X108739224Y-85819881D01*
X108925991Y-85880435D01*
X109031992Y-85890520D01*
X109097609Y-85875371D01*
X109188461Y-85819839D01*
X109238930Y-85739073D01*
X109249015Y-85633072D01*
X109233866Y-85567454D01*
X109178334Y-85476603D01*
X108976417Y-85350431D01*
X108830034Y-85315112D01*
X107840750Y-85819966D02*
X107946750Y-85830051D01*
X108012368Y-85814902D01*
X108103220Y-85759370D01*
X108254625Y-85517070D01*
X108264710Y-85411070D01*
X108249561Y-85345452D01*
X108194029Y-85254600D01*
X108072879Y-85178898D01*
X107966879Y-85168812D01*
X107901261Y-85183961D01*
X107810409Y-85239494D01*
X107659004Y-85481793D01*
X107648919Y-85587794D01*
X107664068Y-85653411D01*
X107719600Y-85744263D01*
X107840750Y-85819966D01*
X107073468Y-85340515D02*
X107179469Y-85350600D01*
X107270320Y-85295068D01*
X107724537Y-84568170D01*
X106452570Y-84896384D02*
X106508103Y-84987236D01*
X106669636Y-85088173D01*
X106775636Y-85098258D01*
X106866488Y-85042726D01*
X107068362Y-84719660D01*
X107078447Y-84613659D01*
X107022915Y-84522807D01*
X106861382Y-84421870D01*
X106755381Y-84411785D01*
X106664530Y-84467317D01*
X106614061Y-84548084D01*
X106967425Y-84881193D01*
X165792412Y-134158099D02*
X166125745Y-133681909D01*
X166363840Y-134158099D02*
X166363840Y-133158099D01*
X165982888Y-133158099D01*
X165887650Y-133205719D01*
X165840031Y-133253338D01*
X165792412Y-133348576D01*
X165792412Y-133491433D01*
X165840031Y-133586671D01*
X165887650Y-133634290D01*
X165982888Y-133681909D01*
X166363840Y-133681909D01*
X164982888Y-134110480D02*
X165078126Y-134158099D01*
X165268602Y-134158099D01*
X165363840Y-134110480D01*
X165411459Y-134015242D01*
X165411459Y-133634290D01*
X165363840Y-133539052D01*
X165268602Y-133491433D01*
X165078126Y-133491433D01*
X164982888Y-133539052D01*
X164935269Y-133634290D01*
X164935269Y-133729528D01*
X165411459Y-133824766D01*
X164554317Y-134110480D02*
X164459078Y-134158099D01*
X164268602Y-134158099D01*
X164173364Y-134110480D01*
X164125745Y-134015242D01*
X164125745Y-133967623D01*
X164173364Y-133872385D01*
X164268602Y-133824766D01*
X164411459Y-133824766D01*
X164506697Y-133777147D01*
X164554317Y-133681909D01*
X164554317Y-133634290D01*
X164506697Y-133539052D01*
X164411459Y-133491433D01*
X164268602Y-133491433D01*
X164173364Y-133539052D01*
X163316221Y-134110480D02*
X163411459Y-134158099D01*
X163601936Y-134158099D01*
X163697174Y-134110480D01*
X163744793Y-134015242D01*
X163744793Y-133634290D01*
X163697174Y-133539052D01*
X163601936Y-133491433D01*
X163411459Y-133491433D01*
X163316221Y-133539052D01*
X163268602Y-133634290D01*
X163268602Y-133729528D01*
X163744793Y-133824766D01*
X162982888Y-133491433D02*
X162601936Y-133491433D01*
X162840031Y-133158099D02*
X162840031Y-134015242D01*
X162792412Y-134110480D01*
X162697174Y-134158099D01*
X162601936Y-134158099D01*
X163028753Y-121744855D02*
X163219229Y-121744855D01*
X163314467Y-121792475D01*
X163409705Y-121887713D01*
X163457324Y-122078189D01*
X163457324Y-122411522D01*
X163409705Y-122601998D01*
X163314467Y-122697236D01*
X163219229Y-122744855D01*
X163028753Y-122744855D01*
X162933514Y-122697236D01*
X162838276Y-122601998D01*
X162790657Y-122411522D01*
X162790657Y-122078189D01*
X162838276Y-121887713D01*
X162933514Y-121792475D01*
X163028753Y-121744855D01*
X164362086Y-122744855D02*
X163885895Y-122744855D01*
X163885895Y-121744855D01*
X164695419Y-122221046D02*
X165028753Y-122221046D01*
X165171610Y-122744855D02*
X164695419Y-122744855D01*
X164695419Y-121744855D01*
X165171610Y-121744855D01*
X165600181Y-122744855D02*
X165600181Y-121744855D01*
X165838276Y-121744855D01*
X165981134Y-121792475D01*
X166076372Y-121887713D01*
X166123991Y-121982951D01*
X166171610Y-122173427D01*
X166171610Y-122316284D01*
X166123991Y-122506760D01*
X166076372Y-122601998D01*
X165981134Y-122697236D01*
X165838276Y-122744855D01*
X165600181Y-122744855D01*
X133834962Y-107695675D02*
X133575610Y-108095042D01*
X132736940Y-107550403D01*
X133577205Y-107130831D02*
X133758751Y-106851274D01*
X134275860Y-107016751D02*
X134016508Y-107416118D01*
X133177838Y-106871479D01*
X133437190Y-106472112D01*
X134509277Y-106657321D02*
X133670607Y-106112682D01*
X133800283Y-105912999D01*
X133918025Y-105819124D01*
X134049769Y-105791121D01*
X134155577Y-105803054D01*
X134341259Y-105866858D01*
X134461069Y-105944664D01*
X134594881Y-106088341D01*
X134648819Y-106180149D01*
X134676822Y-106311892D01*
X134638953Y-106457638D01*
X134509277Y-106657321D01*
X134988044Y-105832652D02*
X135105787Y-105738777D01*
X135235463Y-105539094D01*
X135247396Y-105433285D01*
X135233395Y-105367413D01*
X135179457Y-105275606D01*
X135099583Y-105223736D01*
X134993775Y-105211802D01*
X134927903Y-105225803D01*
X134836096Y-105279742D01*
X134692418Y-105413553D01*
X134600611Y-105467491D01*
X134534739Y-105481493D01*
X134428931Y-105469559D01*
X134349057Y-105417689D01*
X134295119Y-105325882D01*
X134281118Y-105260010D01*
X134293051Y-105154201D01*
X134422727Y-104954518D01*
X134540469Y-104860643D01*
X135857907Y-104580613D02*
X135546685Y-105059853D01*
X135702296Y-104820233D02*
X134863625Y-104275594D01*
X134931565Y-104433273D01*
X134959568Y-104565017D01*
X134947634Y-104670825D01*
X138951132Y-109380643D02*
X138112461Y-108836004D01*
X138242137Y-108636320D01*
X138359879Y-108542445D01*
X138491623Y-108514442D01*
X138597432Y-108526376D01*
X138783114Y-108590180D01*
X138902924Y-108667986D01*
X139036735Y-108811663D01*
X139090673Y-108903470D01*
X139118676Y-109035214D01*
X139080807Y-109180959D01*
X138951132Y-109380643D01*
X108440295Y-120180421D02*
X108546296Y-120190507D01*
X108677531Y-120160209D01*
X108874383Y-120114762D01*
X108980384Y-120124847D01*
X109061151Y-120175315D01*
X108894596Y-120351997D02*
X109000597Y-120362083D01*
X109131832Y-120331785D01*
X109273152Y-120195486D01*
X109449792Y-119912803D01*
X109510346Y-119726036D01*
X109480048Y-119594801D01*
X109424515Y-119503949D01*
X109262982Y-119403012D01*
X109156982Y-119392927D01*
X109025747Y-119423225D01*
X108884426Y-119559524D01*
X108707787Y-119842206D01*
X108647233Y-120028974D01*
X108677531Y-120160209D01*
X108733063Y-120251060D01*
X108894596Y-120351997D01*
X107723482Y-119620204D02*
X108208081Y-119923015D01*
X107965781Y-119771610D02*
X108495701Y-118923561D01*
X108500764Y-119095180D01*
X108531062Y-119226415D01*
X108586595Y-119317266D01*
X122650171Y-99781822D02*
X123181150Y-99545327D01*
X123139981Y-100076130D02*
X123655019Y-99218963D01*
X123328479Y-99022758D01*
X123222319Y-99014524D01*
X123156976Y-99030816D01*
X123067107Y-99087925D01*
X122993530Y-99210377D01*
X122985296Y-99316538D01*
X123001588Y-99381881D01*
X123058697Y-99471750D01*
X123385237Y-99667955D01*
X121833821Y-99291310D02*
X122323631Y-99585617D01*
X122078726Y-99438464D02*
X122593765Y-98581296D01*
X122601823Y-98752800D01*
X122634406Y-98883486D01*
X122691516Y-98973355D01*
%LPC*%
D13*
X150369368Y-102062699D03*
X151669368Y-102062699D03*
D14*
G36*
X147804131Y-97553624D02*
G01*
X147776173Y-95951868D01*
X148878005Y-95932636D01*
X148905963Y-97534392D01*
X147804131Y-97553624D01*
G37*
G36*
X149103933Y-97530936D02*
G01*
X149075975Y-95929180D01*
X150177807Y-95909948D01*
X150205765Y-97511704D01*
X149103933Y-97530936D01*
G37*
D15*
X105189722Y-83629982D03*
X110702034Y-87074458D03*
X167677317Y-133705719D03*
X161177317Y-133705719D03*
D16*
X168101134Y-125842475D03*
X165561134Y-125842475D03*
X163021134Y-125842475D03*
D17*
X160481134Y-125842475D03*
D18*
X138706842Y-105881111D02*
X138455240Y-105717719D01*
X137323459Y-108011334D02*
X137071857Y-107847942D01*
D14*
G36*
X137207187Y-109872224D02*
G01*
X136209408Y-111408668D01*
X134421363Y-110247498D01*
X135419142Y-108711054D01*
X137207187Y-109872224D01*
G37*
D19*
X63774162Y-51893721D03*
D14*
G36*
X59974616Y-59388634D02*
G01*
X58703391Y-58594285D01*
X59497740Y-57323060D01*
X60768965Y-58117409D01*
X59974616Y-59388634D01*
G37*
G36*
X60889163Y-57503288D02*
G01*
X59997016Y-56945813D01*
X60739963Y-55756850D01*
X61632110Y-56314325D01*
X60889163Y-57503288D01*
G37*
G36*
X62770377Y-54492718D02*
G01*
X61878230Y-53935243D01*
X62621177Y-52746280D01*
X63513324Y-53303755D01*
X62770377Y-54492718D01*
G37*
D19*
X93615365Y-75846877D03*
D14*
G36*
X89815819Y-83341790D02*
G01*
X88544594Y-82547441D01*
X89338943Y-81276216D01*
X90610168Y-82070565D01*
X89815819Y-83341790D01*
G37*
G36*
X90730366Y-81456444D02*
G01*
X89838219Y-80898969D01*
X90581166Y-79710006D01*
X91473313Y-80267481D01*
X90730366Y-81456444D01*
G37*
G36*
X92611580Y-78445874D02*
G01*
X91719433Y-77888399D01*
X92462380Y-76699436D01*
X93354527Y-77256911D01*
X92611580Y-78445874D01*
G37*
D19*
X78562280Y-64082315D03*
D14*
G36*
X74762734Y-71577228D02*
G01*
X73491509Y-70782879D01*
X74285858Y-69511654D01*
X75557083Y-70306003D01*
X74762734Y-71577228D01*
G37*
G36*
X75677281Y-69691882D02*
G01*
X74785134Y-69134407D01*
X75528081Y-67945444D01*
X76420228Y-68502919D01*
X75677281Y-69691882D01*
G37*
G36*
X77558495Y-66681312D02*
G01*
X76666348Y-66123837D01*
X77409295Y-64934874D01*
X78301442Y-65492349D01*
X77558495Y-66681312D01*
G37*
D19*
X123723137Y-93939037D03*
D14*
G36*
X131218050Y-97738583D02*
G01*
X130423701Y-99009808D01*
X129152476Y-98215459D01*
X129946825Y-96944234D01*
X131218050Y-97738583D01*
G37*
G36*
X129332704Y-96824036D02*
G01*
X128775229Y-97716183D01*
X127586266Y-96973236D01*
X128143741Y-96081089D01*
X129332704Y-96824036D01*
G37*
G36*
X126322134Y-94942822D02*
G01*
X125764659Y-95834969D01*
X124575696Y-95092022D01*
X125133171Y-94199875D01*
X126322134Y-94942822D01*
G37*
D19*
X226427313Y-155895726D03*
D20*
X226427313Y-163515726D03*
D21*
X226427313Y-161480726D03*
X226427313Y-157930726D03*
D19*
X203691224Y-156275553D03*
D14*
G36*
X206581372Y-164165884D02*
G01*
X205133449Y-164553853D01*
X204745480Y-163105930D01*
X206193403Y-162717961D01*
X206581372Y-164165884D01*
G37*
G36*
X205826238Y-162211223D02*
G01*
X204810084Y-162483501D01*
X204447220Y-161129273D01*
X205463374Y-160856995D01*
X205826238Y-162211223D01*
G37*
G36*
X204907430Y-158782187D02*
G01*
X203891276Y-159054465D01*
X203528412Y-157700237D01*
X204544566Y-157427959D01*
X204907430Y-158782187D01*
G37*
D19*
X182193108Y-173243412D03*
D14*
G36*
X175405068Y-178196470D02*
G01*
X174633026Y-176911576D01*
X175917920Y-176139534D01*
X176689962Y-177424428D01*
X175405068Y-178196470D01*
G37*
G36*
X177075865Y-176931812D02*
G01*
X176534045Y-176030072D01*
X177735793Y-175307988D01*
X178277613Y-176209728D01*
X177075865Y-176931812D01*
G37*
G36*
X180118809Y-175103426D02*
G01*
X179576989Y-174201686D01*
X180778737Y-173479602D01*
X181320557Y-174381342D01*
X180118809Y-175103426D01*
G37*
D19*
X68691975Y-126489800D03*
D14*
G36*
X73282987Y-133527760D02*
G01*
X71959449Y-134231498D01*
X71255711Y-132907960D01*
X72579249Y-132204222D01*
X73282987Y-133527760D01*
G37*
G36*
X72107504Y-131793066D02*
G01*
X71178643Y-132286950D01*
X70520444Y-131049058D01*
X71449305Y-130555174D01*
X72107504Y-131793066D01*
G37*
G36*
X70440880Y-128658602D02*
G01*
X69512019Y-129152486D01*
X68853820Y-127914594D01*
X69782681Y-127420710D01*
X70440880Y-128658602D01*
G37*
D19*
X55829876Y-124024044D03*
D14*
G36*
X50219968Y-130280179D02*
G01*
X49197653Y-129183880D01*
X50293952Y-128161565D01*
X51316267Y-129257864D01*
X50219968Y-130280179D01*
G37*
G36*
X51591317Y-128695778D02*
G01*
X50873855Y-127926394D01*
X51899213Y-126970232D01*
X52616675Y-127739616D01*
X51591317Y-128695778D01*
G37*
G36*
X54187623Y-126274684D02*
G01*
X53470161Y-125505300D01*
X54495519Y-124549138D01*
X55212981Y-125318522D01*
X54187623Y-126274684D01*
G37*
D19*
X40432913Y-107174804D03*
D14*
G36*
X36633367Y-114669717D02*
G01*
X35362142Y-113875368D01*
X36156491Y-112604143D01*
X37427716Y-113398492D01*
X36633367Y-114669717D01*
G37*
G36*
X37547914Y-112784371D02*
G01*
X36655767Y-112226896D01*
X37398714Y-111037933D01*
X38290861Y-111595408D01*
X37547914Y-112784371D01*
G37*
G36*
X39429128Y-109773801D02*
G01*
X38536981Y-109216326D01*
X39279928Y-108027363D01*
X40172075Y-108584838D01*
X39429128Y-109773801D01*
G37*
D19*
X290677313Y-142145725D03*
D20*
X290677313Y-149765725D03*
D21*
X290677313Y-147730725D03*
X290677313Y-144180725D03*
D19*
X290677304Y-123395715D03*
D20*
X290677304Y-131015715D03*
D21*
X290677304Y-128980715D03*
X290677304Y-125430715D03*
D19*
X290677294Y-104145702D03*
D20*
X290677294Y-111765702D03*
D21*
X290677294Y-109730702D03*
X290677294Y-106180702D03*
D19*
X273677302Y-141145741D03*
D20*
X273677302Y-148765741D03*
D21*
X273677302Y-146730741D03*
X273677302Y-143180741D03*
D19*
X273677294Y-122145721D03*
D20*
X273677294Y-129765721D03*
D21*
X273677294Y-127730721D03*
X273677294Y-124180721D03*
D19*
X273677313Y-102895728D03*
D20*
X273677313Y-110515728D03*
D21*
X273677313Y-108480728D03*
X273677313Y-104930728D03*
D19*
X254677304Y-136645727D03*
D20*
X254677304Y-144265727D03*
D21*
X254677304Y-142230727D03*
X254677304Y-138680727D03*
D19*
X254677300Y-117395726D03*
D20*
X254677300Y-125015726D03*
D21*
X254677300Y-122980726D03*
X254677300Y-119430726D03*
D19*
X254677324Y-100895714D03*
D20*
X254677324Y-108515714D03*
D21*
X254677324Y-106480714D03*
X254677324Y-102930714D03*
D19*
X235677293Y-133895732D03*
D20*
X235677293Y-141515732D03*
D21*
X235677293Y-139480732D03*
X235677293Y-135930732D03*
D19*
X235677291Y-115145720D03*
D20*
X235677291Y-122765720D03*
D21*
X235677291Y-120730720D03*
X235677291Y-117180720D03*
D19*
X235677307Y-96145717D03*
D20*
X235677307Y-103765717D03*
D21*
X235677307Y-101730717D03*
X235677307Y-98180717D03*
D19*
X216677309Y-136145713D03*
D20*
X216677309Y-143765713D03*
D21*
X216677309Y-141730713D03*
X216677309Y-138180713D03*
D19*
X216677300Y-117395722D03*
D20*
X216677300Y-125015722D03*
D21*
X216677300Y-122980722D03*
X216677300Y-119430722D03*
D19*
X216677308Y-98395723D03*
D20*
X216677308Y-106015723D03*
D21*
X216677308Y-103980723D03*
X216677308Y-100430723D03*
D19*
X197677320Y-138895722D03*
D20*
X197677320Y-146515722D03*
D21*
X197677320Y-144480722D03*
X197677320Y-140930722D03*
D19*
X197677307Y-119895714D03*
D20*
X197677307Y-127515714D03*
D21*
X197677307Y-125480714D03*
X197677307Y-121930714D03*
D19*
X197677296Y-100895718D03*
D20*
X197677296Y-108515718D03*
D21*
X197677296Y-106480718D03*
X197677296Y-102930718D03*
D19*
X73081007Y-108708750D03*
D14*
G36*
X69281461Y-116203663D02*
G01*
X68010236Y-115409314D01*
X68804585Y-114138089D01*
X70075810Y-114932438D01*
X69281461Y-116203663D01*
G37*
G36*
X70196008Y-114318317D02*
G01*
X69303861Y-113760842D01*
X70046808Y-112571879D01*
X70938955Y-113129354D01*
X70196008Y-114318317D01*
G37*
G36*
X72077222Y-111307747D02*
G01*
X71185075Y-110750272D01*
X71928022Y-109561309D01*
X72820169Y-110118784D01*
X72077222Y-111307747D01*
G37*
D19*
X83149439Y-92595832D03*
D14*
G36*
X79349893Y-100090745D02*
G01*
X78078668Y-99296396D01*
X78873017Y-98025171D01*
X80144242Y-98819520D01*
X79349893Y-100090745D01*
G37*
G36*
X80264440Y-98205399D02*
G01*
X79372293Y-97647924D01*
X80115240Y-96458961D01*
X81007387Y-97016436D01*
X80264440Y-98205399D01*
G37*
G36*
X82145654Y-95194829D02*
G01*
X81253507Y-94637354D01*
X81996454Y-93448391D01*
X82888601Y-94005866D01*
X82145654Y-95194829D01*
G37*
D19*
X58425347Y-96308127D03*
D14*
G36*
X54625801Y-103803040D02*
G01*
X53354576Y-103008691D01*
X54148925Y-101737466D01*
X55420150Y-102531815D01*
X54625801Y-103803040D01*
G37*
G36*
X55540348Y-101917694D02*
G01*
X54648201Y-101360219D01*
X55391148Y-100171256D01*
X56283295Y-100728731D01*
X55540348Y-101917694D01*
G37*
G36*
X57421562Y-98907124D02*
G01*
X56529415Y-98349649D01*
X57272362Y-97160686D01*
X58164509Y-97718161D01*
X57421562Y-98907124D01*
G37*
D19*
X68361339Y-80407239D03*
D14*
G36*
X64561793Y-87902152D02*
G01*
X63290568Y-87107803D01*
X64084917Y-85836578D01*
X65356142Y-86630927D01*
X64561793Y-87902152D01*
G37*
G36*
X65476340Y-86016806D02*
G01*
X64584193Y-85459331D01*
X65327140Y-84270368D01*
X66219287Y-84827843D01*
X65476340Y-86016806D01*
G37*
G36*
X67357554Y-83006236D02*
G01*
X66465407Y-82448761D01*
X67208354Y-81259798D01*
X68100501Y-81817273D01*
X67357554Y-83006236D01*
G37*
D19*
X43504760Y-84331550D03*
D14*
G36*
X39705214Y-91826463D02*
G01*
X38433989Y-91032114D01*
X39228338Y-89760889D01*
X40499563Y-90555238D01*
X39705214Y-91826463D01*
G37*
G36*
X40619761Y-89941117D02*
G01*
X39727614Y-89383642D01*
X40470561Y-88194679D01*
X41362708Y-88752154D01*
X40619761Y-89941117D01*
G37*
G36*
X42500975Y-86930547D02*
G01*
X41608828Y-86373072D01*
X42351775Y-85184109D01*
X43243922Y-85741584D01*
X42500975Y-86930547D01*
G37*
D19*
X53573214Y-68218650D03*
D14*
G36*
X49773668Y-75713563D02*
G01*
X48502443Y-74919214D01*
X49296792Y-73647989D01*
X50568017Y-74442338D01*
X49773668Y-75713563D01*
G37*
G36*
X50688215Y-73828217D02*
G01*
X49796068Y-73270742D01*
X50539015Y-72081779D01*
X51431162Y-72639254D01*
X50688215Y-73828217D01*
G37*
G36*
X52569429Y-70817647D02*
G01*
X51677282Y-70260172D01*
X52420229Y-69071209D01*
X53312376Y-69628684D01*
X52569429Y-70817647D01*
G37*
D19*
X26199517Y-76171220D03*
D14*
G36*
X22399971Y-83666133D02*
G01*
X21128746Y-82871784D01*
X21923095Y-81600559D01*
X23194320Y-82394908D01*
X22399971Y-83666133D01*
G37*
G36*
X23314518Y-81780787D02*
G01*
X22422371Y-81223312D01*
X23165318Y-80034349D01*
X24057465Y-80591824D01*
X23314518Y-81780787D01*
G37*
G36*
X25195732Y-78770217D02*
G01*
X24303585Y-78212742D01*
X25046532Y-77023779D01*
X25938679Y-77581254D01*
X25195732Y-78770217D01*
G37*
D19*
X36267982Y-60058285D03*
D14*
G36*
X32468436Y-67553198D02*
G01*
X31197211Y-66758849D01*
X31991560Y-65487624D01*
X33262785Y-66281973D01*
X32468436Y-67553198D01*
G37*
G36*
X33382983Y-65667852D02*
G01*
X32490836Y-65110377D01*
X33233783Y-63921414D01*
X34125930Y-64478889D01*
X33382983Y-65667852D01*
G37*
G36*
X35264197Y-62657282D02*
G01*
X34372050Y-62099807D01*
X35114997Y-60910844D01*
X36007144Y-61468319D01*
X35264197Y-62657282D01*
G37*
D19*
X46468932Y-43733376D03*
D14*
G36*
X42669386Y-51228289D02*
G01*
X41398161Y-50433940D01*
X42192510Y-49162715D01*
X43463735Y-49957064D01*
X42669386Y-51228289D01*
G37*
G36*
X43583933Y-49342943D02*
G01*
X42691786Y-48785468D01*
X43434733Y-47596505D01*
X44326880Y-48153980D01*
X43583933Y-49342943D01*
G37*
G36*
X45465147Y-46332373D02*
G01*
X44573000Y-45774898D01*
X45315947Y-44585935D01*
X46208094Y-45143410D01*
X45465147Y-46332373D01*
G37*
D19*
X7701972Y-69918971D03*
D14*
G36*
X3902426Y-77413884D02*
G01*
X2631201Y-76619535D01*
X3425550Y-75348310D01*
X4696775Y-76142659D01*
X3902426Y-77413884D01*
G37*
G36*
X4816973Y-75528538D02*
G01*
X3924826Y-74971063D01*
X4667773Y-73782100D01*
X5559920Y-74339575D01*
X4816973Y-75528538D01*
G37*
G36*
X6698187Y-72517968D02*
G01*
X5806040Y-71960493D01*
X6548987Y-70771530D01*
X7441134Y-71329005D01*
X6698187Y-72517968D01*
G37*
D19*
X17770445Y-53806050D03*
D14*
G36*
X13970899Y-61300963D02*
G01*
X12699674Y-60506614D01*
X13494023Y-59235389D01*
X14765248Y-60029738D01*
X13970899Y-61300963D01*
G37*
G36*
X14885446Y-59415617D02*
G01*
X13993299Y-58858142D01*
X14736246Y-57669179D01*
X15628393Y-58226654D01*
X14885446Y-59415617D01*
G37*
G36*
X16766660Y-56405047D02*
G01*
X15874513Y-55847572D01*
X16617460Y-54658609D01*
X17509607Y-55216084D01*
X16766660Y-56405047D01*
G37*
D19*
X27838903Y-37693137D03*
D14*
G36*
X24039357Y-45188050D02*
G01*
X22768132Y-44393701D01*
X23562481Y-43122476D01*
X24833706Y-43916825D01*
X24039357Y-45188050D01*
G37*
G36*
X24953904Y-43302704D02*
G01*
X24061757Y-42745229D01*
X24804704Y-41556266D01*
X25696851Y-42113741D01*
X24953904Y-43302704D01*
G37*
G36*
X26835118Y-40292134D02*
G01*
X25942971Y-39734659D01*
X26685918Y-38545696D01*
X27578065Y-39103171D01*
X26835118Y-40292134D01*
G37*
D19*
X-8556678Y-60083679D03*
D14*
G36*
X-12356224Y-67578592D02*
G01*
X-13627449Y-66784243D01*
X-12833100Y-65513018D01*
X-11561875Y-66307367D01*
X-12356224Y-67578592D01*
G37*
G36*
X-11441677Y-65693246D02*
G01*
X-12333824Y-65135771D01*
X-11590877Y-63946808D01*
X-10698730Y-64504283D01*
X-11441677Y-65693246D01*
G37*
G36*
X-9560463Y-62682676D02*
G01*
X-10452610Y-62125201D01*
X-9709663Y-60936238D01*
X-8817516Y-61493713D01*
X-9560463Y-62682676D01*
G37*
D19*
X1511797Y-43970794D03*
D14*
G36*
X-2287749Y-51465707D02*
G01*
X-3558974Y-50671358D01*
X-2764625Y-49400133D01*
X-1493400Y-50194482D01*
X-2287749Y-51465707D01*
G37*
G36*
X-1373202Y-49580361D02*
G01*
X-2265349Y-49022886D01*
X-1522402Y-47833923D01*
X-630255Y-48391398D01*
X-1373202Y-49580361D01*
G37*
G36*
X508012Y-46569791D02*
G01*
X-384135Y-46012316D01*
X358812Y-44823353D01*
X1250959Y-45380828D01*
X508012Y-46569791D01*
G37*
D19*
X11755139Y-27672363D03*
D14*
G36*
X7955593Y-35167276D02*
G01*
X6684368Y-34372927D01*
X7478717Y-33101702D01*
X8749942Y-33896051D01*
X7955593Y-35167276D01*
G37*
G36*
X8870140Y-33281930D02*
G01*
X7977993Y-32724455D01*
X8720940Y-31535492D01*
X9613087Y-32092967D01*
X8870140Y-33281930D01*
G37*
G36*
X10751354Y-30271360D02*
G01*
X9859207Y-29713885D01*
X10602154Y-28524922D01*
X11494301Y-29082397D01*
X10751354Y-30271360D01*
G37*
G36*
X128485043Y-120205929D02*
G01*
X128739181Y-119319645D01*
X130567501Y-119843907D01*
X130313363Y-120730191D01*
X128485043Y-120205929D01*
G37*
G36*
X128898499Y-118764036D02*
G01*
X129152637Y-117877752D01*
X130980957Y-118402014D01*
X130726819Y-119288298D01*
X128898499Y-118764036D01*
G37*
G36*
X124092191Y-117385849D02*
G01*
X124346329Y-116499565D01*
X126174649Y-117023827D01*
X125920511Y-117910111D01*
X124092191Y-117385849D01*
G37*
G36*
X123678735Y-118827742D02*
G01*
X123932873Y-117941458D01*
X125761193Y-118465720D01*
X125507055Y-119352004D01*
X123678735Y-118827742D01*
G37*
D22*
X194839026Y-114048091D03*
X194839026Y-112548091D03*
X199839026Y-112548091D03*
X199839026Y-114048091D03*
X233339006Y-111548086D03*
X233339006Y-110048086D03*
X238339006Y-110048086D03*
X238339006Y-111548086D03*
X271339017Y-116798092D03*
X271339017Y-115298092D03*
X276339017Y-115298092D03*
X276339017Y-116798092D03*
X276131027Y-134724425D03*
X276131027Y-136224425D03*
X271131027Y-136224425D03*
X271131027Y-134724425D03*
X231896001Y-148535725D03*
X231896001Y-150035725D03*
X226896001Y-150035725D03*
X226896001Y-148535725D03*
X186994162Y-155359869D03*
X186994162Y-156859869D03*
X181994162Y-156859869D03*
X181994162Y-155359869D03*
D14*
G36*
X159129778Y-145519222D02*
G01*
X159383916Y-144632938D01*
X161212236Y-145157200D01*
X160958098Y-146043484D01*
X159129778Y-145519222D01*
G37*
G36*
X158716322Y-146961115D02*
G01*
X158970460Y-146074831D01*
X160798780Y-146599093D01*
X160544642Y-147485377D01*
X158716322Y-146961115D01*
G37*
G36*
X153910014Y-145582928D02*
G01*
X154164152Y-144696644D01*
X155992472Y-145220906D01*
X155738334Y-146107190D01*
X153910014Y-145582928D01*
G37*
G36*
X154323470Y-144141035D02*
G01*
X154577608Y-143254751D01*
X156405928Y-143779013D01*
X156151790Y-144665297D01*
X154323470Y-144141035D01*
G37*
G36*
X94483706Y-128256624D02*
G01*
X94737844Y-127370340D01*
X96566164Y-127894602D01*
X96312026Y-128780886D01*
X94483706Y-128256624D01*
G37*
G36*
X94070250Y-129698517D02*
G01*
X94324388Y-128812233D01*
X96152708Y-129336495D01*
X95898570Y-130222779D01*
X94070250Y-129698517D01*
G37*
G36*
X98876558Y-131076704D02*
G01*
X99130696Y-130190420D01*
X100959016Y-130714682D01*
X100704878Y-131600966D01*
X98876558Y-131076704D01*
G37*
G36*
X99290014Y-129634811D02*
G01*
X99544152Y-128748527D01*
X101372472Y-129272789D01*
X101118334Y-130159073D01*
X99290014Y-129634811D01*
G37*
G36*
X62109679Y-119276210D02*
G01*
X62598265Y-118494310D01*
X64211253Y-119502216D01*
X63722667Y-120284116D01*
X62109679Y-119276210D01*
G37*
G36*
X61314800Y-120548282D02*
G01*
X61803386Y-119766382D01*
X63416374Y-120774288D01*
X62927788Y-121556188D01*
X61314800Y-120548282D01*
G37*
G36*
X57074559Y-117898686D02*
G01*
X57563145Y-117116786D01*
X59176133Y-118124692D01*
X58687547Y-118906592D01*
X57074559Y-117898686D01*
G37*
G36*
X57869438Y-116626614D02*
G01*
X58358024Y-115844714D01*
X59971012Y-116852620D01*
X59482426Y-117634520D01*
X57869438Y-116626614D01*
G37*
G36*
X28305789Y-93123868D02*
G01*
X28794375Y-92341968D01*
X30407363Y-93349874D01*
X29918777Y-94131774D01*
X28305789Y-93123868D01*
G37*
G36*
X27510910Y-94395940D02*
G01*
X27999496Y-93614040D01*
X29612484Y-94621946D01*
X29123898Y-95403846D01*
X27510910Y-94395940D01*
G37*
G36*
X23270669Y-91746344D02*
G01*
X23759255Y-90964444D01*
X25372243Y-91972350D01*
X24883657Y-92754250D01*
X23270669Y-91746344D01*
G37*
G36*
X24065548Y-90474272D02*
G01*
X24554134Y-89692372D01*
X26167122Y-90700278D01*
X25678536Y-91482178D01*
X24065548Y-90474272D01*
G37*
G36*
X-4596584Y-56663107D02*
G01*
X-4107998Y-55881207D01*
X-2495010Y-56889113D01*
X-2983596Y-57671013D01*
X-4596584Y-56663107D01*
G37*
G36*
X-5391463Y-57935179D02*
G01*
X-4902877Y-57153279D01*
X-3289889Y-58161185D01*
X-3778475Y-58943085D01*
X-5391463Y-57935179D01*
G37*
G36*
X-9631704Y-55285583D02*
G01*
X-9143118Y-54503683D01*
X-7530130Y-55511589D01*
X-8018716Y-56293489D01*
X-9631704Y-55285583D01*
G37*
G36*
X-8836825Y-54013511D02*
G01*
X-8348239Y-53231611D01*
X-6735251Y-54239517D01*
X-7223837Y-55021417D01*
X-8836825Y-54013511D01*
G37*
G36*
X2670832Y-39186656D02*
G01*
X2182246Y-39968556D01*
X569258Y-38960650D01*
X1057844Y-38178750D01*
X2670832Y-39186656D01*
G37*
G36*
X3465711Y-37914584D02*
G01*
X2977125Y-38696484D01*
X1364137Y-37688578D01*
X1852723Y-36906678D01*
X3465711Y-37914584D01*
G37*
G36*
X7705952Y-40564180D02*
G01*
X7217366Y-41346080D01*
X5604378Y-40338174D01*
X6092964Y-39556274D01*
X7705952Y-40564180D01*
G37*
G36*
X6911073Y-41836252D02*
G01*
X6422487Y-42618152D01*
X4809499Y-41610246D01*
X5298085Y-40828346D01*
X6911073Y-41836252D01*
G37*
G36*
X38341125Y-53811262D02*
G01*
X37852539Y-54593162D01*
X36239551Y-53585256D01*
X36728137Y-52803356D01*
X38341125Y-53811262D01*
G37*
G36*
X39136004Y-52539190D02*
G01*
X38647418Y-53321090D01*
X37034430Y-52313184D01*
X37523016Y-51531284D01*
X39136004Y-52539190D01*
G37*
G36*
X43376245Y-55188786D02*
G01*
X42887659Y-55970686D01*
X41274671Y-54962780D01*
X41763257Y-54180880D01*
X43376245Y-55188786D01*
G37*
G36*
X42581366Y-56460858D02*
G01*
X42092780Y-57242758D01*
X40479792Y-56234852D01*
X40968378Y-55452952D01*
X42581366Y-56460858D01*
G37*
G36*
X67731485Y-74239995D02*
G01*
X67242899Y-75021895D01*
X65629911Y-74013989D01*
X66118497Y-73232089D01*
X67731485Y-74239995D01*
G37*
G36*
X68526364Y-72967923D02*
G01*
X68037778Y-73749823D01*
X66424790Y-72741917D01*
X66913376Y-71960017D01*
X68526364Y-72967923D01*
G37*
G36*
X72766605Y-75617519D02*
G01*
X72278019Y-76399419D01*
X70665031Y-75391513D01*
X71153617Y-74609613D01*
X72766605Y-75617519D01*
G37*
G36*
X71971726Y-76889591D02*
G01*
X71483140Y-77671491D01*
X69870152Y-76663585D01*
X70358738Y-75881685D01*
X71971726Y-76889591D01*
G37*
D23*
X121734674Y-103518429D02*
X121684332Y-103598993D01*
X119580632Y-102172434D02*
X119530290Y-102252998D01*
D14*
G36*
X115993458Y-101226246D02*
G01*
X117107348Y-99443648D01*
X118809380Y-100507196D01*
X117695490Y-102289794D01*
X115993458Y-101226246D01*
G37*
D24*
X110727006Y-116341197D02*
X110727006Y-116341197D01*
D25*
X126994985Y-99624751D02*
X126994985Y-99624751D01*
D26*
X120463370Y-95700161D03*
D27*
X171797310Y-93485719D03*
X171797310Y-96025719D03*
X171797310Y-98565719D03*
X171797310Y-101105719D03*
X171797310Y-103645719D03*
X171797310Y-106185719D03*
X171797310Y-108725719D03*
X171797310Y-111265719D03*
X171797310Y-113805719D03*
X171797310Y-116345719D03*
X171797310Y-118885719D03*
X171797310Y-121425719D03*
X156557310Y-121425719D03*
X156557310Y-118885719D03*
X156557310Y-116345719D03*
X156557310Y-113805719D03*
X156557310Y-111265719D03*
X156557310Y-108725719D03*
X156557310Y-106185719D03*
X156557310Y-103645719D03*
X156557310Y-101105719D03*
X156557310Y-98565719D03*
X156557310Y-96025719D03*
D28*
X156557310Y-93485719D03*
D29*
X219337082Y-155629831D03*
D30*
X216797082Y-160709831D03*
D29*
X212987082Y-158169831D03*
D31*
X211717082Y-160709831D03*
X221877082Y-160709831D03*
D29*
X196860746Y-157945525D03*
D30*
X195722095Y-163509829D03*
D29*
X191384517Y-162042478D03*
D31*
X190815192Y-164824630D03*
X200628998Y-162195028D03*
D29*
X179166510Y-166894536D03*
D30*
X173497101Y-167234831D03*
D29*
X173791806Y-162665274D03*
D31*
X170957101Y-162835422D03*
X176037101Y-171634240D03*
D29*
X62462021Y-129752132D03*
D30*
X62604250Y-135429964D03*
D29*
X58047762Y-134975964D03*
D31*
X58118876Y-137814880D03*
X67089624Y-133045048D03*
D29*
X51233536Y-118891924D03*
D30*
X45785983Y-120498837D03*
D29*
X45045208Y-115980104D03*
D31*
X42321431Y-116783560D03*
X49250535Y-124214114D03*
D29*
X34306767Y-104033934D03*
D30*
X29460735Y-106996023D03*
D29*
X27575667Y-102822988D03*
D31*
X25152651Y-104304033D03*
X33768819Y-109688013D03*
D29*
X285787094Y-140754839D03*
D30*
X283247094Y-145834839D03*
D29*
X279437094Y-143294839D03*
D31*
X278167094Y-145834839D03*
X288327094Y-145834839D03*
D29*
X285767094Y-121779823D03*
D30*
X283227094Y-126859823D03*
D29*
X279417094Y-124319823D03*
D31*
X278147094Y-126859823D03*
X288307094Y-126859823D03*
D29*
X285817092Y-102754850D03*
D30*
X283277092Y-107834850D03*
D29*
X279467092Y-105294850D03*
D31*
X278197092Y-107834850D03*
X288357092Y-107834850D03*
D29*
X266792100Y-140754824D03*
D30*
X264252100Y-145834824D03*
D29*
X260442100Y-143294824D03*
D31*
X259172100Y-145834824D03*
X269332100Y-145834824D03*
D29*
X266767090Y-121779850D03*
D30*
X264227090Y-126859850D03*
D29*
X260417090Y-124319850D03*
D31*
X259147090Y-126859850D03*
X269307090Y-126859850D03*
D29*
X266762101Y-102779845D03*
D30*
X264222101Y-107859845D03*
D29*
X260412101Y-105319845D03*
D31*
X259142101Y-107859845D03*
X269302101Y-107859845D03*
D29*
X247792090Y-136004841D03*
D30*
X245252090Y-141084841D03*
D29*
X241442090Y-138544841D03*
D31*
X240172090Y-141084841D03*
X250332090Y-141084841D03*
D29*
X247767099Y-117029833D03*
D30*
X245227099Y-122109833D03*
D29*
X241417099Y-119569833D03*
D31*
X240147099Y-122109833D03*
X250307099Y-122109833D03*
D29*
X247767093Y-98004832D03*
D30*
X245227093Y-103084832D03*
D29*
X241417093Y-100544832D03*
D31*
X240147093Y-103084832D03*
X250307093Y-103084832D03*
D29*
X228762097Y-133604849D03*
D30*
X226222097Y-138684849D03*
D29*
X222412097Y-136144849D03*
D31*
X221142097Y-138684849D03*
X231302097Y-138684849D03*
D29*
X228787091Y-114654841D03*
D30*
X226247091Y-119734841D03*
D29*
X222437091Y-117194841D03*
D31*
X221167091Y-119734841D03*
X231327091Y-119734841D03*
D29*
X228762092Y-95654844D03*
D30*
X226222092Y-100734844D03*
D29*
X222412092Y-98194844D03*
D31*
X221142092Y-100734844D03*
X231302092Y-100734844D03*
D29*
X209792100Y-136004822D03*
D30*
X207252100Y-141084822D03*
D29*
X203442100Y-138544822D03*
D31*
X202172100Y-141084822D03*
X212332100Y-141084822D03*
D29*
X209767099Y-117004830D03*
D30*
X207227099Y-122084830D03*
D29*
X203417099Y-119544830D03*
D31*
X202147099Y-122084830D03*
X212307099Y-122084830D03*
D29*
X209812105Y-97979823D03*
D30*
X207272105Y-103059823D03*
D29*
X203462105Y-100519823D03*
D31*
X202192105Y-103059823D03*
X212352105Y-103059823D03*
D29*
X190742096Y-138404846D03*
D30*
X188202096Y-143484846D03*
D29*
X184392096Y-140944846D03*
D31*
X183122096Y-143484846D03*
X193282096Y-143484846D03*
D29*
X190762081Y-119404851D03*
D30*
X188222081Y-124484851D03*
D29*
X184412081Y-121944851D03*
D31*
X183142081Y-124484851D03*
X193302081Y-124484851D03*
D29*
X190737092Y-100404835D03*
D30*
X188197092Y-105484835D03*
D29*
X184387092Y-102944835D03*
D31*
X183117092Y-105484835D03*
X193277092Y-105484835D03*
D29*
X67548352Y-104523696D03*
D30*
X62702320Y-107485785D03*
D29*
X60817252Y-103312750D03*
D31*
X58394236Y-104793795D03*
X67010404Y-110177775D03*
D29*
X77642242Y-88426663D03*
D30*
X72796210Y-91388752D03*
D29*
X70911142Y-87215717D03*
D31*
X68488126Y-88696762D03*
X77104294Y-94080742D03*
D29*
X87723964Y-72292582D03*
D30*
X82877932Y-75254671D03*
D29*
X80992864Y-71081636D03*
D31*
X78569848Y-72562681D03*
X87186016Y-77946661D03*
D29*
X52736393Y-92467619D03*
D30*
X47890361Y-95429708D03*
D29*
X46005293Y-91256673D03*
D31*
X43582277Y-92737718D03*
X52198445Y-98121698D03*
D29*
X62787883Y-76344102D03*
D30*
X57941851Y-79306191D03*
D29*
X56056783Y-75133156D03*
D31*
X53633767Y-76614201D03*
X62249935Y-81998181D03*
D29*
X72886572Y-60220592D03*
D30*
X68040540Y-63182681D03*
D29*
X66155472Y-59009646D03*
D31*
X63732456Y-60490691D03*
X72348624Y-65874671D03*
D29*
X37826388Y-80379747D03*
D30*
X32980356Y-83341836D03*
D29*
X31095288Y-79168801D03*
D31*
X28672272Y-80649846D03*
X37288440Y-86033826D03*
D29*
X47912339Y-64248268D03*
D30*
X43066307Y-67210357D03*
D29*
X41181239Y-63037322D03*
D31*
X38758223Y-64518367D03*
X47374391Y-69902347D03*
D29*
X58011013Y-48124754D03*
D30*
X53164981Y-51086843D03*
D29*
X51279913Y-46913808D03*
D31*
X48856897Y-48394853D03*
X57473065Y-53778833D03*
D29*
X20481402Y-72282984D03*
D30*
X15635370Y-75245073D03*
D29*
X13750302Y-71072038D03*
D31*
X11327286Y-72553083D03*
X19943454Y-77937063D03*
D29*
X30571075Y-56183313D03*
D30*
X25725043Y-59145402D03*
D29*
X23839975Y-54972367D03*
D31*
X21416959Y-56453412D03*
X30033127Y-61837392D03*
D29*
X40605085Y-40078366D03*
D30*
X35759053Y-43040455D03*
D29*
X33873985Y-38867420D03*
D31*
X31450969Y-40348465D03*
X40067137Y-45732445D03*
D29*
X1829126Y-66287810D03*
D30*
X-3016906Y-69249899D03*
D29*
X-4901974Y-65076864D03*
D31*
X-7324990Y-66557909D03*
X1291178Y-71941889D03*
D29*
X11910844Y-50153701D03*
D30*
X7064812Y-53115790D03*
D29*
X5179744Y-48942755D03*
D31*
X2756728Y-50423800D03*
X11372896Y-55807780D03*
D29*
X21975075Y-34038121D03*
D30*
X17129043Y-37000210D03*
D29*
X15243975Y-32827175D03*
D31*
X12820959Y-34308220D03*
X21437127Y-39692200D03*
D29*
X-14240331Y-56187541D03*
D30*
X-19086363Y-59149630D03*
D29*
X-20971431Y-54976595D03*
D31*
X-23394447Y-56457640D03*
X-14778279Y-61841620D03*
D29*
X-4227521Y-40069310D03*
D30*
X-9073553Y-43031399D03*
D29*
X-10958621Y-38858364D03*
D31*
X-13381637Y-40339409D03*
X-4765469Y-45723389D03*
D29*
X5875380Y-23948447D03*
D30*
X1029348Y-26910536D03*
D29*
X-855720Y-22737501D03*
D31*
X-3278736Y-24218546D03*
X5337432Y-29602526D03*
M02*
