M48
; DRILL file {KiCad (5.1.5)-3} date 24/10/2020 16:30:31
; FORMAT={-:-/ absolute / inch / decimal}
; #@! TF.CreationDate,2020-10-24T16:30:31+02:00
; #@! TF.GenerationSoftware,Kicad,Pcbnew,(5.1.5)-3
; #@! TF.FileFunction,Plated,1,2,PTH
FMAT,2
INCH
T1C0.0157
T2C0.0256
T3C0.0276
T4C0.0320
T5C0.0402
T6C0.0433
T7C0.0512
T8C0.0579
%
G90
G05
T1
X0.578Y-1.4419
X0.827Y-1.4872
X0.8557Y-1.4413
X1.7238Y-3.713
X1.7737Y-3.6479
X1.8309Y-3.5676
X1.9334Y-1.8118
X1.9811Y-2.0122
X2.2452Y-2.0855
X2.277Y-2.016
X2.687Y-4.2592
X2.6874Y-4.3384
X2.9913Y-4.4111
X3.0915Y-2.6144
X3.094Y-3.3953
X3.1284Y-2.7987
X3.3123Y-4.5644
X3.3371Y-4.5296
X3.3586Y-4.4957
X3.3942Y-2.8767
X3.4011Y-4.4286
X3.4265Y-2.8214
X3.5349Y-3.8364
X4.1627Y-2.9865
X4.953Y-2.9414
X5.3939Y-4.339
X5.5614Y-3.9918
X5.7041Y-4.5354
X5.7609Y-4.3981
X6.2074Y-4.5446
X6.2286Y-3.6383
X6.3327Y-5.5358
X6.3346Y-5.4571
X6.374Y-5.4965
X6.3829Y-5.1284
X6.4134Y-5.5358
X6.5523Y-5.2804
X6.5525Y-4.7448
X6.5607Y-5.3903
X6.6123Y-4.6601
X6.74Y-4.3363
X6.9596Y-4.1598
X6.9646Y-5.7819
X6.9684Y-5.6864
X6.9903Y-5.6312
X7.009Y-5.5731
X7.0492Y-5.8429
X7.0755Y-5.6975
X7.3992Y-5.7157
X7.401Y-5.7664
X7.4426Y-5.6964
X7.6078Y-4.8662
X7.6626Y-5.6554
X8.5113Y-4.2948
X8.6107Y-5.7968
X8.7013Y-5.7426
X8.7377Y-5.6905
X9.1658Y-5.7407
X9.1717Y-5.6639
X9.2997Y-5.7485
X9.3499Y-4.1275
X10.0664Y-4.1393
X10.0674Y-4.2062
X10.0684Y-4.282
X10.4788Y-5.6481
X10.8331Y-4.3617
X10.839Y-5.7771
X10.8528Y-4.2938
X10.8558Y-4.2377
X11.3509Y-5.5153
X11.4227Y-5.4523
X11.4621Y-5.1796
X11.4946Y-5.094
T2
X4.7337Y-3.1671
X4.7761Y-3.1936
T3
X5.2625Y-3.5686
X5.5196Y-3.7231
T4
X1.9527Y-4.2748
X2.1117Y-4.0204
X3.2242Y-4.7808
X3.3651Y-5.0457
X11.2945Y-5.3578
X11.2945Y-5.6578
X11.2945Y-3.8519
X11.2945Y-4.1519
X2.6611Y-3.847
X2.82Y-3.5925
X2.1903Y-1.7771
X2.3493Y-1.5227
X2.8716Y-2.0984
X3.0306Y-1.8439
X10.5465Y-4.4228
X10.5465Y-4.7228
X9.7985Y-4.3342
X9.7985Y-4.6342
X1.7887Y-2.4198
X1.9477Y-2.1654
X10.5465Y-5.1806
X10.5465Y-5.4806
X8.3024Y-5.2692
X8.3024Y-5.5692
X0.4204Y-1.7864
X0.5793Y-1.532
X9.7985Y-5.0724
X9.7985Y-5.3724
X4.0465Y-3.0414
X4.2055Y-2.787
X11.9638Y-5.3972
X11.9638Y-5.6972
X9.0504Y-3.6747
X9.0504Y-3.9747
X9.0504Y-4.4228
X9.0504Y-4.7228
X0.8236Y-1.1448
X0.9826Y-0.8903
X8.3024Y-4.5212
X8.3024Y-4.8212
X5.3908Y-3.4993
X5.6452Y-3.6582
X3.4539Y-2.5782
X3.6128Y-2.3238
X0.6641Y-2.808
X0.823Y-2.5536
X2.47Y-2.7411
X2.629Y-2.4867
X9.4343Y-5.9385
X9.4343Y-6.2385
X3.2381Y-4.3352
X3.397Y-4.0808
X2.4984Y-4.8883
X2.7178Y-4.6837
X8.5392Y-5.9535
X8.6168Y-6.2432
X1.4569Y-1.5393
X1.6158Y-1.2849
X9.7985Y-3.5861
X9.7985Y-3.8861
X8.3024Y-3.7732
X8.3024Y-4.0732
X11.2945Y-4.6098
X11.2945Y-4.9098
X7.4356Y-6.776
X7.6928Y-6.6215
X11.9638Y-3.9011
X11.9638Y-4.2011
X2.0736Y-3.3754
X2.2326Y-3.121
X3.0522Y-3.2209
X3.2112Y-2.9665
X3.6344Y-3.7008
X3.7934Y-3.4464
X10.5465Y-3.7732
X10.5465Y-4.0732
X11.9638Y-4.659
X11.9638Y-4.959
X1.0605Y-2.1736
X1.2194Y-1.9192
X0.024Y-2.4208
X0.1829Y-2.1664
X9.0504Y-5.1609
X9.0504Y-5.4609
X1.3923Y-3.0542
X1.5513Y-2.7997
T5
X5.8668Y-4.1339
X5.9213Y-4.0501
X5.9758Y-3.9662
X6.838Y-4.7553
X6.938Y-4.7553
X7.038Y-4.7553
X7.138Y-4.7553
T6
X5.1419Y-3.772
X5.2267Y-3.825
X5.3115Y-3.878
X6.6835Y-3.4814
X6.6835Y-3.5814
X6.6835Y-3.6814
X6.6835Y-3.7814
X6.6835Y-3.8814
X6.6835Y-3.9814
X6.6835Y-4.0814
X6.6835Y-4.1814
X6.6835Y-4.2814
X6.6835Y-4.3814
X6.6835Y-4.4814
X6.6835Y-4.5814
X7.2835Y-3.4814
X7.2835Y-3.5814
X7.2835Y-3.6814
X7.2835Y-3.7814
X7.2835Y-3.8814
X7.2835Y-3.9814
X7.2835Y-4.0814
X7.2835Y-4.1814
X7.2835Y-4.2814
X7.2835Y-4.3814
X7.2835Y-4.4814
X7.2835Y-4.5814
T7
X6.8654Y-5.0649
X7.1213Y-5.0649
T8
X1.8534Y-1.3311
X2.1184Y-1.3788
X8.0546Y-6.1805
X8.2702Y-6.0192
X7.7794Y-5.3499
X8.0294Y-5.2499
X10.7734Y-5.4424
X11.0234Y-5.3424
X2.1411Y-2.2827
X2.4061Y-2.3303
X1.0612Y-2.599
X1.3262Y-2.6467
X0.0884Y-1.3307
X0.3534Y-1.3784
X7.7792Y-3.8538
X8.0292Y-3.7538
X1.6055Y-3.849
X1.8705Y-3.8967
X9.2772Y-4.4149
X9.5272Y-4.3149
X10.7723Y-3.9473
X11.0223Y-3.8473
X1.744Y-2.9178
X2.0091Y-2.9654
X2.5387Y-1.6479
X2.8037Y-1.6956
X0.7237Y-1.7278
X0.9888Y-1.7754
X7.7801Y-4.6019
X8.0301Y-4.5019
X2.2933Y-4.367
X2.5369Y-4.4817
X11.5205Y-4.6954
X11.7705Y-4.5954
X9.2762Y-3.6668
X9.5262Y-3.5668
X3.7085Y-2.5994
X3.9735Y-2.647
X8.5284Y-4.5074
X8.7784Y-4.4074
X2.8052Y-5.1149
X2.979Y-4.9092
X10.0244Y-3.7593
X10.2744Y-3.6593
X10.0244Y-4.5084
X10.2744Y-4.4084
X2.7268Y-2.7589
X2.9918Y-2.8066
X0.4861Y-0.6961
X0.7511Y-0.7437
X11.5213Y-5.4424
X11.7713Y-5.3424
X9.2762Y-5.1609
X9.5262Y-5.0609
X8.9051Y-6.028
X9.1551Y-5.928
X8.5301Y-3.7584
X8.7801Y-3.6584
X2.9142Y-3.8683
X3.1792Y-3.916
X3.3116Y-3.2346
X3.5766Y-3.2822
X-0.3058Y-1.9653
X-0.0408Y-2.013
X1.12Y-1.0933
X1.385Y-1.141
X7.362Y-6.205
X7.5736Y-6.3715
X10.7725Y-4.6954
X11.0225Y-4.5954
X8.5294Y-5.2554
X8.7794Y-5.1554
X2.3311Y-3.3937
X2.5961Y-3.4413
X1.4584Y-1.9651
X1.7234Y-2.0128
X0.3268Y-2.363
X0.5918Y-2.4106
X10.0254Y-5.2554
X10.2754Y-5.1554
X11.5225Y-3.9463
X11.7725Y-3.8463
X3.1244Y-2.1241
X3.3894Y-2.1718
T0
M30
