M48
; DRILL file {KiCad (5.1.5)-3} date 08/11/2020 14:52:44
; FORMAT={-:-/ absolute / inch / decimal}
; #@! TF.CreationDate,2020-11-08T14:52:44+01:00
; #@! TF.GenerationSoftware,Kicad,Pcbnew,(5.1.5)-3
; #@! TF.FileFunction,Plated,1,2,PTH
FMAT,2
INCH
T1C0.0157
T2C0.0276
T3C0.0320
T4C0.0402
T5C0.0433
T6C0.0512
T7C0.0579
%
G90
G05
T1
X0.0582Y-1.641
X0.3072Y-1.6863
X0.3359Y-1.6404
X1.2039Y-3.9121
X1.2539Y-3.847
X1.3111Y-3.7667
X1.4136Y-2.0109
X1.4613Y-2.2113
X1.7253Y-2.2846
X1.7572Y-2.2152
X2.1672Y-4.4583
X2.1676Y-4.5375
X2.4715Y-4.6102
X2.5717Y-2.8135
X2.5742Y-3.5945
X2.6086Y-2.9979
X2.7924Y-4.7635
X2.8173Y-4.7287
X2.8387Y-4.6948
X2.8744Y-3.0758
X2.8812Y-4.6277
X2.9066Y-3.0205
X3.0151Y-4.0355
X3.6429Y-3.1856
X4.4332Y-3.1405
X4.8741Y-4.5381
X5.0416Y-4.1909
X5.1843Y-4.7346
X5.2411Y-4.5972
X5.6876Y-4.7437
X5.7087Y-3.8374
X5.8128Y-5.7349
X5.8148Y-5.6562
X5.8472Y-4.0124
X5.8542Y-5.6956
X5.8631Y-5.3275
X5.8935Y-5.7349
X5.9648Y-3.7795
X6.0325Y-5.4795
X6.0327Y-4.9439
X6.0409Y-5.5894
X6.0491Y-4.0457
X6.0925Y-4.8592
X6.2202Y-4.5354
X6.4398Y-4.359
X6.4447Y-5.981
X6.4485Y-5.8855
X6.4705Y-5.8303
X6.4892Y-5.7722
X6.5294Y-6.042
X6.5557Y-5.8966
X6.8794Y-5.9148
X6.8812Y-5.9655
X6.9228Y-5.8955
X7.088Y-5.0653
X7.1428Y-5.8546
X7.9915Y-4.4939
X8.0909Y-5.9959
X8.1814Y-5.9418
X8.2178Y-5.8896
X8.646Y-5.9398
X8.6519Y-5.863
X8.7799Y-5.9477
X8.8301Y-4.3266
X9.5466Y-4.3384
X9.5476Y-4.4053
X9.5486Y-4.4811
X9.959Y-5.8473
X10.3133Y-4.5608
X10.3192Y-5.9762
X10.333Y-4.4929
X10.336Y-4.4368
X10.831Y-5.7144
X10.9029Y-5.6514
X10.9423Y-5.3788
X10.9747Y-5.2931
T2
X4.7427Y-3.7677
X4.9998Y-3.9222
T3
X7.7826Y-4.7203
X7.7826Y-5.0203
X10.7747Y-5.5569
X10.7747Y-5.8569
X8.5306Y-4.6219
X8.5306Y-4.9219
X11.444Y-4.1002
X11.444Y-4.4002
X2.1412Y-4.0461
X2.3002Y-3.7917
X9.2786Y-4.5333
X9.2786Y-4.8333
X0.937Y-1.7384
X1.096Y-1.484
X8.5306Y-5.3601
X8.5306Y-5.6601
X2.3518Y-2.2975
X2.5108Y-2.0431
X11.444Y-4.8581
X11.444Y-5.1581
X1.9502Y-2.9402
X2.1092Y-2.6858
X2.934Y-2.7773
X3.093Y-2.5229
X1.4329Y-4.4739
X1.5918Y-4.2195
X3.1146Y-3.8999
X3.2736Y-3.6455
X9.2786Y-5.2715
X9.2786Y-5.5715
X7.7826Y-5.4683
X7.7826Y-5.7683
X8.9145Y-6.1376
X8.9145Y-6.4376
X1.5538Y-3.5746
X1.7128Y-3.3201
X8.0193Y-6.1526
X8.097Y-6.4424
X9.2786Y-3.7853
X9.2786Y-4.0853
X10.0267Y-4.6219
X10.0267Y-4.9219
X1.6705Y-1.9762
X1.8295Y-1.7218
X11.444Y-5.5963
X11.444Y-5.8963
X2.7182Y-4.5343
X2.8772Y-4.2799
X6.9158Y-6.9751
X7.173Y-6.8206
X-0.4959Y-2.6199
X-0.3369Y-2.3655
X0.8725Y-3.2533
X1.0315Y-2.9989
X10.0267Y-3.9723
X10.0267Y-4.2723
X1.2689Y-2.6189
X1.4279Y-2.3645
X4.871Y-3.6984
X5.1254Y-3.8574
X-0.0995Y-1.9855
X0.0595Y-1.7311
X2.5324Y-3.4201
X2.6914Y-3.1656
X10.7747Y-4.8089
X10.7747Y-5.1089
X0.5406Y-2.3728
X0.6996Y-2.1183
X3.5267Y-3.2405
X3.6856Y-2.9861
X2.7044Y-4.9799
X2.8452Y-5.2448
X7.7826Y-3.9723
X7.7826Y-4.2723
X10.7747Y-4.051
X10.7747Y-4.351
X8.5306Y-3.8738
X8.5306Y-4.1738
X10.0267Y-5.3798
X10.0267Y-5.6798
X0.3038Y-1.3439
X0.4628Y-1.0895
X0.1443Y-3.0071
X0.3032Y-2.7527
X1.9786Y-5.0874
X2.198Y-4.8828
T4
X6.3182Y-4.9544
X6.4182Y-4.9544
X6.5182Y-4.9544
X6.6182Y-4.9544
X5.347Y-4.3331
X5.4015Y-4.2492
X5.4559Y-4.1653
T5
X6.1637Y-3.6805
X6.1637Y-3.7805
X6.1637Y-3.8805
X6.1637Y-3.9805
X6.1637Y-4.0805
X6.1637Y-4.1805
X6.1637Y-4.2805
X6.1637Y-4.3805
X6.1637Y-4.4805
X6.1637Y-4.5805
X6.1637Y-4.6805
X6.1637Y-4.7805
X6.7637Y-3.6805
X6.7637Y-3.7805
X6.7637Y-3.8805
X6.7637Y-3.9805
X6.7637Y-4.0805
X6.7637Y-4.1805
X6.7637Y-4.2805
X6.7637Y-4.3805
X6.7637Y-4.4805
X6.7637Y-4.5805
X6.7637Y-4.6805
X6.7637Y-4.7805
X4.6221Y-3.9711
X4.7069Y-4.0241
X4.7917Y-4.0771
T6
X4.1413Y-3.2925
X4.3583Y-3.4281
X6.3456Y-5.264
X6.6015Y-5.264
T7
X1.0857Y-4.0481
X1.3507Y-4.0958
X0.9386Y-2.1643
X1.2036Y-2.2119
X8.7564Y-3.8659
X9.0064Y-3.7659
X8.0103Y-3.9575
X8.2603Y-3.8575
X2.207Y-2.958
X2.472Y-3.0057
X11.0007Y-4.8945
X11.2507Y-4.7945
X10.2536Y-5.6415
X10.5036Y-5.5415
X0.5414Y-2.7981
X0.8064Y-2.8458
X2.0189Y-1.847
X2.2839Y-1.8947
X3.1887Y-2.7985
X3.4537Y-2.8462
X8.0095Y-5.4545
X8.2595Y-5.3545
X9.5046Y-3.9585
X9.7546Y-3.8585
X11.0015Y-5.6415
X11.2515Y-5.5415
X8.3853Y-6.2272
X8.6353Y-6.1272
X-0.4314Y-1.5299
X-0.1664Y-1.5775
X2.7918Y-3.4337
X3.0568Y-3.4814
X8.7574Y-4.614
X9.0074Y-4.514
X1.8112Y-3.5928
X2.0762Y-3.6405
X7.5348Y-6.3796
X7.7504Y-6.2183
X11.0026Y-4.1455
X11.2526Y-4.0455
X0.6002Y-1.2924
X0.8652Y-1.3401
X-0.0337Y-0.8952
X0.2313Y-0.9429
X2.3944Y-4.0674
X2.6594Y-4.1151
X8.7564Y-5.36
X9.0064Y-5.26
X8.0085Y-4.7065
X8.2585Y-4.6065
X2.2853Y-5.314
X2.4591Y-5.1084
X6.8422Y-6.4041
X7.0538Y-6.5707
X0.2039Y-1.9269
X0.4689Y-1.9746
X7.2593Y-4.0529
X7.5093Y-3.9529
X1.6213Y-2.4818
X1.8863Y-2.5295
X9.5056Y-5.4545
X9.7556Y-5.3545
X9.5046Y-4.7075
X9.7546Y-4.6075
X1.3336Y-1.5302
X1.5986Y-1.5779
X-0.8256Y-2.1644
X-0.5606Y-2.2121
X7.2603Y-4.801
X7.5103Y-4.701
X1.2242Y-3.1169
X1.4892Y-3.1646
X10.2524Y-4.1465
X10.5024Y-4.0465
X1.7734Y-4.5661
X2.0171Y-4.6808
X-0.193Y-2.5621
X0.072Y-2.6098
X7.2595Y-5.549
X7.5095Y-5.449
X2.6045Y-2.3232
X2.8696Y-2.3709
X10.2526Y-4.8945
X10.5026Y-4.7945
T0
M30
