G04 #@! TF.GenerationSoftware,KiCad,Pcbnew,(5.1.5)-3*
G04 #@! TF.CreationDate,2020-11-08T14:52:40+01:00*
G04 #@! TF.ProjectId,aegis,61656769-732e-46b6-9963-61645f706362,rev?*
G04 #@! TF.SameCoordinates,Original*
G04 #@! TF.FileFunction,Profile,NP*
%FSLAX46Y46*%
G04 Gerber Fmt 4.6, Leading zero omitted, Abs format (unit mm)*
G04 Created by KiCad (PCBNEW (5.1.5)-3) date 2020-11-08 14:52:40*
%MOMM*%
%LPD*%
G04 APERTURE LIST*
%ADD10C,0.050000*%
G04 APERTURE END LIST*
D10*
X124220085Y-107053636D02*
X113449878Y-100323660D01*
X113452138Y-124285970D02*
X124220085Y-107053636D01*
X102681914Y-117555999D02*
X113452138Y-124285970D01*
X113449878Y-100323660D02*
X102681914Y-117555999D01*
X63064241Y-118113970D02*
X60138474Y-116285752D01*
X61209520Y-121082143D02*
X63064241Y-118113970D01*
X58283749Y-119253909D02*
X61209520Y-121082143D01*
X60138474Y-116285752D02*
X58283749Y-119253909D01*
X29245212Y-91940505D02*
X26277013Y-90085792D01*
X27258012Y-95120669D02*
X29245212Y-91940505D01*
X26277013Y-90085792D02*
X24289826Y-93265968D01*
X24289826Y-93265968D02*
X27258012Y-95120669D01*
X-3562514Y-55373659D02*
X-6530686Y-53518944D01*
X-5549717Y-58553836D02*
X-3562514Y-55373659D01*
X-6530686Y-53518944D02*
X-8517900Y-56699130D01*
X-8517900Y-56699130D02*
X-5549717Y-58553836D01*
X6611931Y-39091130D02*
X3643758Y-37236410D01*
X4624732Y-42271310D02*
X6611931Y-39091130D01*
X3643758Y-37236410D02*
X1656564Y-40416591D01*
X1656564Y-40416591D02*
X4624732Y-42271310D01*
X42329923Y-53686590D02*
X39361757Y-51831887D01*
X40342727Y-56866765D02*
X42329923Y-53686590D01*
X39361757Y-51831887D02*
X37374559Y-55012050D01*
X37374559Y-55012050D02*
X40342727Y-56866765D01*
X71712324Y-74080841D02*
X68744155Y-72226136D01*
X69725136Y-77261017D02*
X71712324Y-74080841D01*
X68744155Y-72226136D02*
X66756961Y-75406317D01*
X66756961Y-75406317D02*
X69725136Y-77261017D01*
X99916261Y-127998504D02*
X96551847Y-127033765D01*
X98882630Y-131603235D02*
X99916261Y-127998504D01*
X96551847Y-127033765D02*
X95518208Y-130638511D01*
X95518208Y-130638511D02*
X98882630Y-131603235D01*
X129544872Y-117274845D02*
X126180471Y-116310107D01*
X128511228Y-120879575D02*
X129544872Y-117274845D01*
X126180471Y-116310107D02*
X125146826Y-119914830D01*
X125146826Y-119914830D02*
X128511228Y-120879575D01*
X159841727Y-144037521D02*
X156477317Y-143072795D01*
X158808076Y-147642259D02*
X159841727Y-144037521D01*
X156477317Y-143072795D02*
X155443670Y-146677525D01*
X155443670Y-146677525D02*
X158808076Y-147642259D01*
X186198855Y-154182185D02*
X182698884Y-154182181D01*
X186198846Y-157932180D02*
X186198855Y-154182185D01*
X182698884Y-154182181D02*
X182698870Y-157932189D01*
X182698870Y-157932189D02*
X186198846Y-157932180D01*
X231198865Y-147432186D02*
X227698869Y-147432186D01*
X231198860Y-151182191D02*
X231198865Y-147432186D01*
X227698869Y-147432186D02*
X227698875Y-151182169D01*
X227698875Y-151182169D02*
X231198860Y-151182191D01*
X275448869Y-133682199D02*
X271948872Y-133682180D01*
X275448860Y-137432196D02*
X275448869Y-133682199D01*
X271948872Y-133682180D02*
X271948855Y-137432200D01*
X271948855Y-137432200D02*
X275448860Y-137432196D01*
X275698868Y-114182188D02*
X272198856Y-114182196D01*
X275698867Y-117932189D02*
X275698868Y-114182188D01*
X272198856Y-114182196D02*
X272198851Y-117932190D01*
X272198851Y-117932190D02*
X275698867Y-117932189D01*
X237698851Y-108932196D02*
X234198871Y-108932188D01*
X237698871Y-112682190D02*
X237698851Y-108932196D01*
X234198871Y-108932188D02*
X234198863Y-112682187D01*
X234198863Y-112682187D02*
X237698871Y-112682190D01*
X199198862Y-111432184D02*
X195698863Y-111432184D01*
X199198878Y-115182195D02*
X199198862Y-111432184D01*
X195698869Y-115182190D02*
X199198878Y-115182195D01*
X195698863Y-111432184D02*
X195698869Y-115182190D01*
X97619667Y-81480488D02*
X113745807Y-91527750D01*
X94876970Y-82095526D02*
X97619667Y-81480488D01*
X75256704Y-113494523D02*
X94876970Y-82095526D01*
X75914161Y-116263706D02*
X75256704Y-113494523D01*
X91992631Y-126340118D02*
X75914161Y-116263706D01*
X94796256Y-125674725D02*
X91992631Y-126340118D01*
X114390028Y-94318136D02*
X94796256Y-125674725D01*
X113745807Y-91527750D02*
X114390028Y-94318136D01*
X50297464Y-38690148D02*
X135149750Y-91701316D01*
X49094047Y-40601654D02*
X50297464Y-38690148D01*
X32975583Y-30539127D02*
X49094047Y-40601654D01*
X30458652Y-34571005D02*
X32975583Y-30539127D01*
X-1766778Y-14433428D02*
X30458652Y-34571005D01*
X-31578321Y-62140981D02*
X-1766778Y-14433428D01*
X15699977Y-91689367D02*
X-31578321Y-62140981D01*
X17001839Y-109845743D02*
X15699977Y-91689367D01*
X45683957Y-134304868D02*
X17001839Y-109845743D01*
X54171016Y-150238320D02*
X45683957Y-134304868D01*
X85951078Y-133226104D02*
X54171016Y-150238320D01*
X154875852Y-152968815D02*
X85951078Y-133226104D01*
X172838597Y-184244574D02*
X154875852Y-152968815D01*
X188481573Y-175240861D02*
X172838597Y-184244574D01*
X225759415Y-169695449D02*
X188481573Y-175240861D01*
X236499193Y-155002504D02*
X225759415Y-169695449D01*
X292250690Y-154992153D02*
X236499193Y-155002504D01*
X292254052Y-98731981D02*
X292250690Y-154992153D01*
X254245690Y-98706561D02*
X292254052Y-98731981D01*
X254239034Y-93974840D02*
X254245690Y-98706561D01*
X235263640Y-93958481D02*
X254239034Y-93974840D01*
X235246577Y-91723450D02*
X235263640Y-93958481D01*
X135149750Y-91701316D02*
X235246577Y-91723450D01*
M02*
