M48
; DRILL file {KiCad (5.1.5)-3} date 24/10/2020 16:30:31
; FORMAT={-:-/ absolute / inch / decimal}
; #@! TF.CreationDate,2020-10-24T16:30:31+02:00
; #@! TF.GenerationSoftware,Kicad,Pcbnew,(5.1.5)-3
; #@! TF.FileFunction,NonPlated,1,2,NPTH
FMAT,2
INCH
T1C0.0689
T2C0.1378
T3C0.1570
%
G90
G05
T1
X-0.007Y-1.389
X0.3322Y-1.601
X7.7292Y-3.9538
X8.1292Y-3.9538
X1.5101Y-3.9073
X1.8493Y-4.1193
X9.2272Y-4.5149
X9.6272Y-4.5149
X10.7223Y-4.0473
X11.1223Y-4.0473
X1.6487Y-2.9761
X1.9879Y-3.188
X2.4433Y-1.7062
X2.7825Y-1.9182
X0.6284Y-1.7861
X0.9676Y-1.998
X7.7301Y-4.7019
X8.1301Y-4.7019
X2.186Y-4.3987
X2.4588Y-4.6912
X11.4705Y-4.7954
X11.8705Y-4.7954
X9.2262Y-3.7668
X9.6262Y-3.7668
X3.6131Y-2.6577
X3.9523Y-2.8696
X8.4784Y-4.6074
X8.8784Y-4.6074
X2.808Y-5.2267
X3.1611Y-5.0389
X9.9744Y-3.8593
X10.3744Y-3.8593
X9.9744Y-4.6084
X10.3744Y-4.6084
X2.6314Y-2.8172
X2.9706Y-3.0292
X0.3907Y-0.7544
X0.73Y-0.9663
X11.4713Y-5.5424
X11.8713Y-5.5424
X9.2262Y-5.2609
X9.6262Y-5.2609
X8.8551Y-6.128
X9.2551Y-6.128
X8.4801Y-3.8584
X8.8801Y-3.8584
X2.8188Y-3.9266
X3.158Y-4.1386
X3.2162Y-3.2929
X3.5554Y-3.5048
X-0.4012Y-2.0236
X-0.062Y-2.2356
X1.0246Y-1.1516
X1.3638Y-1.3636
X7.2504Y-6.2117
X7.4504Y-6.5581
X10.7225Y-4.7954
X11.1225Y-4.7954
X8.4794Y-5.3554
X8.8794Y-5.3554
X2.2357Y-3.452
X2.5749Y-3.6639
X1.363Y-2.0235
X1.7022Y-2.2354
X0.2314Y-2.4213
X0.5707Y-2.6332
X9.9754Y-5.3554
X10.3754Y-5.3554
X11.4725Y-4.0463
X11.8725Y-4.0463
X3.029Y-2.1824
X3.3682Y-2.3944
X1.758Y-1.3894
X2.0973Y-1.6014
X8.0322Y-6.29
X8.4186Y-6.1865
X7.7294Y-5.4499
X8.1294Y-5.4499
X10.7234Y-5.5424
X11.1234Y-5.5424
X2.0457Y-2.341
X2.385Y-2.5529
X0.9658Y-2.6573
X1.305Y-2.8693
T2
X4.8792Y-4.3812
T3
X1.9277Y-1.4954
X8.2254Y-6.2383
X7.9294Y-5.4499
X10.9234Y-5.5424
X2.2153Y-2.447
X1.1354Y-2.7633
X0.1626Y-1.495
X7.9292Y-3.9538
X1.6797Y-4.0133
X9.4272Y-4.5149
X10.9223Y-4.0473
X1.8183Y-3.0821
X2.6129Y-1.8122
X0.798Y-1.8921
X7.9301Y-4.7019
X2.3224Y-4.5449
X11.6705Y-4.7954
X9.4262Y-3.7668
X3.7827Y-2.7637
X8.6784Y-4.6074
X2.9846Y-5.1328
X10.1744Y-3.8593
X10.1744Y-4.6084
X2.801Y-2.9232
X0.5603Y-0.8604
X11.6713Y-5.5424
X9.4262Y-5.2609
X9.0551Y-6.128
X8.6801Y-3.8584
X2.9884Y-4.0326
X3.3858Y-3.3989
X-0.2316Y-2.1296
X1.1942Y-1.2576
X7.3504Y-6.3849
X10.9225Y-4.7954
X8.6794Y-5.3554
X2.4053Y-3.558
X1.5326Y-2.1294
X0.401Y-2.5273
X10.1754Y-5.3554
X11.6725Y-4.0463
X3.1986Y-2.2884
T0
M30
