G04 #@! TF.GenerationSoftware,KiCad,Pcbnew,(5.1.5)-3*
G04 #@! TF.CreationDate,2020-11-08T14:52:40+01:00*
G04 #@! TF.ProjectId,aegis,61656769-732e-46b6-9963-61645f706362,rev?*
G04 #@! TF.SameCoordinates,Original*
G04 #@! TF.FileFunction,Copper,L2,Bot*
G04 #@! TF.FilePolarity,Positive*
%FSLAX46Y46*%
G04 Gerber Fmt 4.6, Leading zero omitted, Abs format (unit mm)*
G04 Created by KiCad (PCBNEW (5.1.5)-3) date 2020-11-08 14:52:40*
%MOMM*%
%LPD*%
G04 APERTURE LIST*
%ADD10R,1.000000X1.500000*%
%ADD11C,0.100000*%
%ADD12C,2.000000*%
%ADD13O,1.730000X2.030000*%
%ADD14R,1.730000X2.030000*%
%ADD15C,1.730000*%
%ADD16C,1.397000*%
%ADD17R,1.397000X1.397000*%
%ADD18R,0.950000X1.300000*%
%ADD19R,1.800000X0.820000*%
%ADD20C,1.905000*%
%ADD21C,1.400000*%
%ADD22C,1.400000*%
%ADD23C,1.600000*%
%ADD24R,1.600000X1.600000*%
%ADD25C,2.250000*%
%ADD26C,0.800000*%
%ADD27C,0.250000*%
G04 APERTURE END LIST*
D10*
X150369368Y-102062699D03*
X151669368Y-102062699D03*
G04 #@! TA.AperFunction,SMDPad,CuDef*
D11*
G36*
X147854233Y-97501742D02*
G01*
X147828055Y-96001970D01*
X148827903Y-95984518D01*
X148854081Y-97484290D01*
X147854233Y-97501742D01*
G37*
G04 #@! TD.AperFunction*
G04 #@! TA.AperFunction,SMDPad,CuDef*
G36*
X149154035Y-97479054D02*
G01*
X149127857Y-95979282D01*
X150127705Y-95961830D01*
X150153883Y-97461602D01*
X149154035Y-97479054D01*
G37*
G04 #@! TD.AperFunction*
D12*
X105189722Y-83629982D03*
X110702034Y-87074458D03*
X167677317Y-133705719D03*
X161177317Y-133705719D03*
D13*
X168101134Y-125842475D03*
X165561134Y-125842475D03*
X163021134Y-125842475D03*
D14*
X160481134Y-125842475D03*
D15*
X138706842Y-105881111D02*
X138455240Y-105717719D01*
X137323459Y-108011334D02*
X137071857Y-107847942D01*
G04 #@! TA.AperFunction,ComponentPad*
D11*
G36*
X137136638Y-109887220D02*
G01*
X136194413Y-111338120D01*
X134491912Y-110232502D01*
X135434137Y-108781602D01*
X137136638Y-109887220D01*
G37*
G04 #@! TD.AperFunction*
D16*
X63774162Y-51893721D03*
G04 #@! TA.AperFunction,ComponentPad*
D11*
G36*
X59958391Y-59318357D02*
G01*
X58773668Y-58578060D01*
X59513965Y-57393337D01*
X60698688Y-58133634D01*
X59958391Y-59318357D01*
G37*
G04 #@! TD.AperFunction*
G04 #@! TA.AperFunction,SMDPad,CuDef*
G36*
X60872938Y-57433012D02*
G01*
X60067293Y-56929589D01*
X60756188Y-55827126D01*
X61561833Y-56330549D01*
X60872938Y-57433012D01*
G37*
G04 #@! TD.AperFunction*
G04 #@! TA.AperFunction,SMDPad,CuDef*
G36*
X62754152Y-54422442D02*
G01*
X61948507Y-53919019D01*
X62637402Y-52816556D01*
X63443047Y-53319979D01*
X62754152Y-54422442D01*
G37*
G04 #@! TD.AperFunction*
D16*
X93615365Y-75846877D03*
G04 #@! TA.AperFunction,ComponentPad*
D11*
G36*
X89799594Y-83271513D02*
G01*
X88614871Y-82531216D01*
X89355168Y-81346493D01*
X90539891Y-82086790D01*
X89799594Y-83271513D01*
G37*
G04 #@! TD.AperFunction*
G04 #@! TA.AperFunction,SMDPad,CuDef*
G36*
X90714141Y-81386168D02*
G01*
X89908496Y-80882745D01*
X90597391Y-79780282D01*
X91403036Y-80283705D01*
X90714141Y-81386168D01*
G37*
G04 #@! TD.AperFunction*
G04 #@! TA.AperFunction,SMDPad,CuDef*
G36*
X92595355Y-78375598D02*
G01*
X91789710Y-77872175D01*
X92478605Y-76769712D01*
X93284250Y-77273135D01*
X92595355Y-78375598D01*
G37*
G04 #@! TD.AperFunction*
D16*
X78562280Y-64082315D03*
G04 #@! TA.AperFunction,ComponentPad*
D11*
G36*
X74746509Y-71506951D02*
G01*
X73561786Y-70766654D01*
X74302083Y-69581931D01*
X75486806Y-70322228D01*
X74746509Y-71506951D01*
G37*
G04 #@! TD.AperFunction*
G04 #@! TA.AperFunction,SMDPad,CuDef*
G36*
X75661056Y-69621606D02*
G01*
X74855411Y-69118183D01*
X75544306Y-68015720D01*
X76349951Y-68519143D01*
X75661056Y-69621606D01*
G37*
G04 #@! TD.AperFunction*
G04 #@! TA.AperFunction,SMDPad,CuDef*
G36*
X77542270Y-66611036D02*
G01*
X76736625Y-66107613D01*
X77425520Y-65005150D01*
X78231165Y-65508573D01*
X77542270Y-66611036D01*
G37*
G04 #@! TD.AperFunction*
D16*
X123723137Y-93939037D03*
G04 #@! TA.AperFunction,ComponentPad*
D11*
G36*
X131147773Y-97754808D02*
G01*
X130407476Y-98939531D01*
X129222753Y-98199234D01*
X129963050Y-97014511D01*
X131147773Y-97754808D01*
G37*
G04 #@! TD.AperFunction*
G04 #@! TA.AperFunction,SMDPad,CuDef*
G36*
X129262428Y-96840261D02*
G01*
X128759005Y-97645906D01*
X127656542Y-96957011D01*
X128159965Y-96151366D01*
X129262428Y-96840261D01*
G37*
G04 #@! TD.AperFunction*
G04 #@! TA.AperFunction,SMDPad,CuDef*
G36*
X126251858Y-94959047D02*
G01*
X125748435Y-95764692D01*
X124645972Y-95075797D01*
X125149395Y-94270152D01*
X126251858Y-94959047D01*
G37*
G04 #@! TD.AperFunction*
D16*
X226427313Y-155895726D03*
D17*
X226427313Y-163515726D03*
D18*
X226427313Y-161480726D03*
X226427313Y-157930726D03*
D16*
X203691224Y-156275553D03*
G04 #@! TA.AperFunction,ComponentPad*
D11*
G36*
X206518910Y-164129821D02*
G01*
X205169512Y-164491391D01*
X204807942Y-163141993D01*
X206157340Y-162780423D01*
X206518910Y-164129821D01*
G37*
G04 #@! TD.AperFunction*
G04 #@! TA.AperFunction,SMDPad,CuDef*
G36*
X205763776Y-162175161D02*
G01*
X204846147Y-162421039D01*
X204509682Y-161165335D01*
X205427311Y-160919457D01*
X205763776Y-162175161D01*
G37*
G04 #@! TD.AperFunction*
G04 #@! TA.AperFunction,SMDPad,CuDef*
G36*
X204844968Y-158746125D02*
G01*
X203927339Y-158992003D01*
X203590874Y-157736299D01*
X204508503Y-157490421D01*
X204844968Y-158746125D01*
G37*
G04 #@! TD.AperFunction*
D16*
X182193108Y-173243412D03*
G04 #@! TA.AperFunction,ComponentPad*
D11*
G36*
X175422517Y-178126487D02*
G01*
X174703009Y-176929025D01*
X175900471Y-176209517D01*
X176619979Y-177406979D01*
X175422517Y-178126487D01*
G37*
G04 #@! TD.AperFunction*
G04 #@! TA.AperFunction,SMDPad,CuDef*
G36*
X177093313Y-176861829D02*
G01*
X176604027Y-176047520D01*
X177718345Y-175377971D01*
X178207631Y-176192280D01*
X177093313Y-176861829D01*
G37*
G04 #@! TD.AperFunction*
G04 #@! TA.AperFunction,SMDPad,CuDef*
G36*
X180136257Y-175033443D02*
G01*
X179646971Y-174219134D01*
X180761289Y-173549585D01*
X181250575Y-174363894D01*
X180136257Y-175033443D01*
G37*
G04 #@! TD.AperFunction*
D16*
X68691975Y-126489800D03*
G04 #@! TA.AperFunction,ComponentPad*
D11*
G36*
X73214014Y-133506673D02*
G01*
X71980536Y-134162525D01*
X71324684Y-132929047D01*
X72558162Y-132273195D01*
X73214014Y-133506673D01*
G37*
G04 #@! TD.AperFunction*
G04 #@! TA.AperFunction,SMDPad,CuDef*
G36*
X72038531Y-131771979D02*
G01*
X71199730Y-132217977D01*
X70589417Y-131070145D01*
X71428218Y-130624147D01*
X72038531Y-131771979D01*
G37*
G04 #@! TD.AperFunction*
G04 #@! TA.AperFunction,SMDPad,CuDef*
G36*
X70371907Y-128637515D02*
G01*
X69533106Y-129083513D01*
X68922793Y-127935681D01*
X69761594Y-127489683D01*
X70371907Y-128637515D01*
G37*
G04 #@! TD.AperFunction*
D16*
X55829876Y-124024044D03*
G04 #@! TA.AperFunction,ComponentPad*
D11*
G36*
X50222485Y-130208098D02*
G01*
X49269734Y-129186397D01*
X50291435Y-128233646D01*
X51244186Y-129255347D01*
X50222485Y-130208098D01*
G37*
G04 #@! TD.AperFunction*
G04 #@! TA.AperFunction,SMDPad,CuDef*
G36*
X51593834Y-128623697D02*
G01*
X50945936Y-127928911D01*
X51896696Y-127042313D01*
X52544594Y-127737099D01*
X51593834Y-128623697D01*
G37*
G04 #@! TD.AperFunction*
G04 #@! TA.AperFunction,SMDPad,CuDef*
G36*
X54190140Y-126202603D02*
G01*
X53542242Y-125507817D01*
X54493002Y-124621219D01*
X55140900Y-125316005D01*
X54190140Y-126202603D01*
G37*
G04 #@! TD.AperFunction*
D16*
X40432913Y-107174804D03*
G04 #@! TA.AperFunction,ComponentPad*
D11*
G36*
X36617142Y-114599440D02*
G01*
X35432419Y-113859143D01*
X36172716Y-112674420D01*
X37357439Y-113414717D01*
X36617142Y-114599440D01*
G37*
G04 #@! TD.AperFunction*
G04 #@! TA.AperFunction,SMDPad,CuDef*
G36*
X37531689Y-112714095D02*
G01*
X36726044Y-112210672D01*
X37414939Y-111108209D01*
X38220584Y-111611632D01*
X37531689Y-112714095D01*
G37*
G04 #@! TD.AperFunction*
G04 #@! TA.AperFunction,SMDPad,CuDef*
G36*
X39412903Y-109703525D02*
G01*
X38607258Y-109200102D01*
X39296153Y-108097639D01*
X40101798Y-108601062D01*
X39412903Y-109703525D01*
G37*
G04 #@! TD.AperFunction*
D16*
X290677313Y-142145725D03*
D17*
X290677313Y-149765725D03*
D18*
X290677313Y-147730725D03*
X290677313Y-144180725D03*
D16*
X290677304Y-123395715D03*
D17*
X290677304Y-131015715D03*
D18*
X290677304Y-128980715D03*
X290677304Y-125430715D03*
D16*
X290677294Y-104145702D03*
D17*
X290677294Y-111765702D03*
D18*
X290677294Y-109730702D03*
X290677294Y-106180702D03*
D16*
X273677302Y-141145741D03*
D17*
X273677302Y-148765741D03*
D18*
X273677302Y-146730741D03*
X273677302Y-143180741D03*
D16*
X273677294Y-122145721D03*
D17*
X273677294Y-129765721D03*
D18*
X273677294Y-127730721D03*
X273677294Y-124180721D03*
D16*
X273677313Y-102895728D03*
D17*
X273677313Y-110515728D03*
D18*
X273677313Y-108480728D03*
X273677313Y-104930728D03*
D16*
X254677304Y-136645727D03*
D17*
X254677304Y-144265727D03*
D18*
X254677304Y-142230727D03*
X254677304Y-138680727D03*
D16*
X254677300Y-117395726D03*
D17*
X254677300Y-125015726D03*
D18*
X254677300Y-122980726D03*
X254677300Y-119430726D03*
D16*
X254677324Y-100895714D03*
D17*
X254677324Y-108515714D03*
D18*
X254677324Y-106480714D03*
X254677324Y-102930714D03*
D16*
X235677293Y-133895732D03*
D17*
X235677293Y-141515732D03*
D18*
X235677293Y-139480732D03*
X235677293Y-135930732D03*
D16*
X235677291Y-115145720D03*
D17*
X235677291Y-122765720D03*
D18*
X235677291Y-120730720D03*
X235677291Y-117180720D03*
D16*
X235677307Y-96145717D03*
D17*
X235677307Y-103765717D03*
D18*
X235677307Y-101730717D03*
X235677307Y-98180717D03*
D16*
X216677309Y-136145713D03*
D17*
X216677309Y-143765713D03*
D18*
X216677309Y-141730713D03*
X216677309Y-138180713D03*
D16*
X216677300Y-117395722D03*
D17*
X216677300Y-125015722D03*
D18*
X216677300Y-122980722D03*
X216677300Y-119430722D03*
D16*
X216677308Y-98395723D03*
D17*
X216677308Y-106015723D03*
D18*
X216677308Y-103980723D03*
X216677308Y-100430723D03*
D16*
X197677320Y-138895722D03*
D17*
X197677320Y-146515722D03*
D18*
X197677320Y-144480722D03*
X197677320Y-140930722D03*
D16*
X197677307Y-119895714D03*
D17*
X197677307Y-127515714D03*
D18*
X197677307Y-125480714D03*
X197677307Y-121930714D03*
D16*
X197677296Y-100895718D03*
D17*
X197677296Y-108515718D03*
D18*
X197677296Y-106480718D03*
X197677296Y-102930718D03*
D16*
X73081007Y-108708750D03*
G04 #@! TA.AperFunction,ComponentPad*
D11*
G36*
X69265236Y-116133386D02*
G01*
X68080513Y-115393089D01*
X68820810Y-114208366D01*
X70005533Y-114948663D01*
X69265236Y-116133386D01*
G37*
G04 #@! TD.AperFunction*
G04 #@! TA.AperFunction,SMDPad,CuDef*
G36*
X70179783Y-114248041D02*
G01*
X69374138Y-113744618D01*
X70063033Y-112642155D01*
X70868678Y-113145578D01*
X70179783Y-114248041D01*
G37*
G04 #@! TD.AperFunction*
G04 #@! TA.AperFunction,SMDPad,CuDef*
G36*
X72060997Y-111237471D02*
G01*
X71255352Y-110734048D01*
X71944247Y-109631585D01*
X72749892Y-110135008D01*
X72060997Y-111237471D01*
G37*
G04 #@! TD.AperFunction*
D16*
X83149439Y-92595832D03*
G04 #@! TA.AperFunction,ComponentPad*
D11*
G36*
X79333668Y-100020468D02*
G01*
X78148945Y-99280171D01*
X78889242Y-98095448D01*
X80073965Y-98835745D01*
X79333668Y-100020468D01*
G37*
G04 #@! TD.AperFunction*
G04 #@! TA.AperFunction,SMDPad,CuDef*
G36*
X80248215Y-98135123D02*
G01*
X79442570Y-97631700D01*
X80131465Y-96529237D01*
X80937110Y-97032660D01*
X80248215Y-98135123D01*
G37*
G04 #@! TD.AperFunction*
G04 #@! TA.AperFunction,SMDPad,CuDef*
G36*
X82129429Y-95124553D02*
G01*
X81323784Y-94621130D01*
X82012679Y-93518667D01*
X82818324Y-94022090D01*
X82129429Y-95124553D01*
G37*
G04 #@! TD.AperFunction*
D16*
X58425347Y-96308127D03*
G04 #@! TA.AperFunction,ComponentPad*
D11*
G36*
X54609576Y-103732763D02*
G01*
X53424853Y-102992466D01*
X54165150Y-101807743D01*
X55349873Y-102548040D01*
X54609576Y-103732763D01*
G37*
G04 #@! TD.AperFunction*
G04 #@! TA.AperFunction,SMDPad,CuDef*
G36*
X55524123Y-101847418D02*
G01*
X54718478Y-101343995D01*
X55407373Y-100241532D01*
X56213018Y-100744955D01*
X55524123Y-101847418D01*
G37*
G04 #@! TD.AperFunction*
G04 #@! TA.AperFunction,SMDPad,CuDef*
G36*
X57405337Y-98836848D02*
G01*
X56599692Y-98333425D01*
X57288587Y-97230962D01*
X58094232Y-97734385D01*
X57405337Y-98836848D01*
G37*
G04 #@! TD.AperFunction*
D16*
X68361339Y-80407239D03*
G04 #@! TA.AperFunction,ComponentPad*
D11*
G36*
X64545568Y-87831875D02*
G01*
X63360845Y-87091578D01*
X64101142Y-85906855D01*
X65285865Y-86647152D01*
X64545568Y-87831875D01*
G37*
G04 #@! TD.AperFunction*
G04 #@! TA.AperFunction,SMDPad,CuDef*
G36*
X65460115Y-85946530D02*
G01*
X64654470Y-85443107D01*
X65343365Y-84340644D01*
X66149010Y-84844067D01*
X65460115Y-85946530D01*
G37*
G04 #@! TD.AperFunction*
G04 #@! TA.AperFunction,SMDPad,CuDef*
G36*
X67341329Y-82935960D02*
G01*
X66535684Y-82432537D01*
X67224579Y-81330074D01*
X68030224Y-81833497D01*
X67341329Y-82935960D01*
G37*
G04 #@! TD.AperFunction*
D16*
X43504760Y-84331550D03*
G04 #@! TA.AperFunction,ComponentPad*
D11*
G36*
X39688989Y-91756186D02*
G01*
X38504266Y-91015889D01*
X39244563Y-89831166D01*
X40429286Y-90571463D01*
X39688989Y-91756186D01*
G37*
G04 #@! TD.AperFunction*
G04 #@! TA.AperFunction,SMDPad,CuDef*
G36*
X40603536Y-89870841D02*
G01*
X39797891Y-89367418D01*
X40486786Y-88264955D01*
X41292431Y-88768378D01*
X40603536Y-89870841D01*
G37*
G04 #@! TD.AperFunction*
G04 #@! TA.AperFunction,SMDPad,CuDef*
G36*
X42484750Y-86860271D02*
G01*
X41679105Y-86356848D01*
X42368000Y-85254385D01*
X43173645Y-85757808D01*
X42484750Y-86860271D01*
G37*
G04 #@! TD.AperFunction*
D16*
X53573214Y-68218650D03*
G04 #@! TA.AperFunction,ComponentPad*
D11*
G36*
X49757443Y-75643286D02*
G01*
X48572720Y-74902989D01*
X49313017Y-73718266D01*
X50497740Y-74458563D01*
X49757443Y-75643286D01*
G37*
G04 #@! TD.AperFunction*
G04 #@! TA.AperFunction,SMDPad,CuDef*
G36*
X50671990Y-73757941D02*
G01*
X49866345Y-73254518D01*
X50555240Y-72152055D01*
X51360885Y-72655478D01*
X50671990Y-73757941D01*
G37*
G04 #@! TD.AperFunction*
G04 #@! TA.AperFunction,SMDPad,CuDef*
G36*
X52553204Y-70747371D02*
G01*
X51747559Y-70243948D01*
X52436454Y-69141485D01*
X53242099Y-69644908D01*
X52553204Y-70747371D01*
G37*
G04 #@! TD.AperFunction*
D16*
X26199517Y-76171220D03*
G04 #@! TA.AperFunction,ComponentPad*
D11*
G36*
X22383746Y-83595856D02*
G01*
X21199023Y-82855559D01*
X21939320Y-81670836D01*
X23124043Y-82411133D01*
X22383746Y-83595856D01*
G37*
G04 #@! TD.AperFunction*
G04 #@! TA.AperFunction,SMDPad,CuDef*
G36*
X23298293Y-81710511D02*
G01*
X22492648Y-81207088D01*
X23181543Y-80104625D01*
X23987188Y-80608048D01*
X23298293Y-81710511D01*
G37*
G04 #@! TD.AperFunction*
G04 #@! TA.AperFunction,SMDPad,CuDef*
G36*
X25179507Y-78699941D02*
G01*
X24373862Y-78196518D01*
X25062757Y-77094055D01*
X25868402Y-77597478D01*
X25179507Y-78699941D01*
G37*
G04 #@! TD.AperFunction*
D16*
X36267982Y-60058285D03*
G04 #@! TA.AperFunction,ComponentPad*
D11*
G36*
X32452211Y-67482921D02*
G01*
X31267488Y-66742624D01*
X32007785Y-65557901D01*
X33192508Y-66298198D01*
X32452211Y-67482921D01*
G37*
G04 #@! TD.AperFunction*
G04 #@! TA.AperFunction,SMDPad,CuDef*
G36*
X33366758Y-65597576D02*
G01*
X32561113Y-65094153D01*
X33250008Y-63991690D01*
X34055653Y-64495113D01*
X33366758Y-65597576D01*
G37*
G04 #@! TD.AperFunction*
G04 #@! TA.AperFunction,SMDPad,CuDef*
G36*
X35247972Y-62587006D02*
G01*
X34442327Y-62083583D01*
X35131222Y-60981120D01*
X35936867Y-61484543D01*
X35247972Y-62587006D01*
G37*
G04 #@! TD.AperFunction*
D16*
X46468932Y-43733376D03*
G04 #@! TA.AperFunction,ComponentPad*
D11*
G36*
X42653161Y-51158012D02*
G01*
X41468438Y-50417715D01*
X42208735Y-49232992D01*
X43393458Y-49973289D01*
X42653161Y-51158012D01*
G37*
G04 #@! TD.AperFunction*
G04 #@! TA.AperFunction,SMDPad,CuDef*
G36*
X43567708Y-49272667D02*
G01*
X42762063Y-48769244D01*
X43450958Y-47666781D01*
X44256603Y-48170204D01*
X43567708Y-49272667D01*
G37*
G04 #@! TD.AperFunction*
G04 #@! TA.AperFunction,SMDPad,CuDef*
G36*
X45448922Y-46262097D02*
G01*
X44643277Y-45758674D01*
X45332172Y-44656211D01*
X46137817Y-45159634D01*
X45448922Y-46262097D01*
G37*
G04 #@! TD.AperFunction*
D16*
X7701972Y-69918971D03*
G04 #@! TA.AperFunction,ComponentPad*
D11*
G36*
X3886201Y-77343607D02*
G01*
X2701478Y-76603310D01*
X3441775Y-75418587D01*
X4626498Y-76158884D01*
X3886201Y-77343607D01*
G37*
G04 #@! TD.AperFunction*
G04 #@! TA.AperFunction,SMDPad,CuDef*
G36*
X4800748Y-75458262D02*
G01*
X3995103Y-74954839D01*
X4683998Y-73852376D01*
X5489643Y-74355799D01*
X4800748Y-75458262D01*
G37*
G04 #@! TD.AperFunction*
G04 #@! TA.AperFunction,SMDPad,CuDef*
G36*
X6681962Y-72447692D02*
G01*
X5876317Y-71944269D01*
X6565212Y-70841806D01*
X7370857Y-71345229D01*
X6681962Y-72447692D01*
G37*
G04 #@! TD.AperFunction*
D16*
X17770445Y-53806050D03*
G04 #@! TA.AperFunction,ComponentPad*
D11*
G36*
X13954674Y-61230686D02*
G01*
X12769951Y-60490389D01*
X13510248Y-59305666D01*
X14694971Y-60045963D01*
X13954674Y-61230686D01*
G37*
G04 #@! TD.AperFunction*
G04 #@! TA.AperFunction,SMDPad,CuDef*
G36*
X14869221Y-59345341D02*
G01*
X14063576Y-58841918D01*
X14752471Y-57739455D01*
X15558116Y-58242878D01*
X14869221Y-59345341D01*
G37*
G04 #@! TD.AperFunction*
G04 #@! TA.AperFunction,SMDPad,CuDef*
G36*
X16750435Y-56334771D02*
G01*
X15944790Y-55831348D01*
X16633685Y-54728885D01*
X17439330Y-55232308D01*
X16750435Y-56334771D01*
G37*
G04 #@! TD.AperFunction*
D16*
X27838903Y-37693137D03*
G04 #@! TA.AperFunction,ComponentPad*
D11*
G36*
X24023132Y-45117773D02*
G01*
X22838409Y-44377476D01*
X23578706Y-43192753D01*
X24763429Y-43933050D01*
X24023132Y-45117773D01*
G37*
G04 #@! TD.AperFunction*
G04 #@! TA.AperFunction,SMDPad,CuDef*
G36*
X24937679Y-43232428D02*
G01*
X24132034Y-42729005D01*
X24820929Y-41626542D01*
X25626574Y-42129965D01*
X24937679Y-43232428D01*
G37*
G04 #@! TD.AperFunction*
G04 #@! TA.AperFunction,SMDPad,CuDef*
G36*
X26818893Y-40221858D02*
G01*
X26013248Y-39718435D01*
X26702143Y-38615972D01*
X27507788Y-39119395D01*
X26818893Y-40221858D01*
G37*
G04 #@! TD.AperFunction*
D16*
X-8556678Y-60083679D03*
G04 #@! TA.AperFunction,ComponentPad*
D11*
G36*
X-12372449Y-67508315D02*
G01*
X-13557172Y-66768018D01*
X-12816875Y-65583295D01*
X-11632152Y-66323592D01*
X-12372449Y-67508315D01*
G37*
G04 #@! TD.AperFunction*
G04 #@! TA.AperFunction,SMDPad,CuDef*
G36*
X-11457902Y-65622970D02*
G01*
X-12263547Y-65119547D01*
X-11574652Y-64017084D01*
X-10769007Y-64520507D01*
X-11457902Y-65622970D01*
G37*
G04 #@! TD.AperFunction*
G04 #@! TA.AperFunction,SMDPad,CuDef*
G36*
X-9576688Y-62612400D02*
G01*
X-10382333Y-62108977D01*
X-9693438Y-61006514D01*
X-8887793Y-61509937D01*
X-9576688Y-62612400D01*
G37*
G04 #@! TD.AperFunction*
D16*
X1511797Y-43970794D03*
G04 #@! TA.AperFunction,ComponentPad*
D11*
G36*
X-2303974Y-51395430D02*
G01*
X-3488697Y-50655133D01*
X-2748400Y-49470410D01*
X-1563677Y-50210707D01*
X-2303974Y-51395430D01*
G37*
G04 #@! TD.AperFunction*
G04 #@! TA.AperFunction,SMDPad,CuDef*
G36*
X-1389427Y-49510085D02*
G01*
X-2195072Y-49006662D01*
X-1506177Y-47904199D01*
X-700532Y-48407622D01*
X-1389427Y-49510085D01*
G37*
G04 #@! TD.AperFunction*
G04 #@! TA.AperFunction,SMDPad,CuDef*
G36*
X491787Y-46499515D02*
G01*
X-313858Y-45996092D01*
X375037Y-44893629D01*
X1180682Y-45397052D01*
X491787Y-46499515D01*
G37*
G04 #@! TD.AperFunction*
D16*
X11755139Y-27672363D03*
G04 #@! TA.AperFunction,ComponentPad*
D11*
G36*
X7939368Y-35096999D02*
G01*
X6754645Y-34356702D01*
X7494942Y-33171979D01*
X8679665Y-33912276D01*
X7939368Y-35096999D01*
G37*
G04 #@! TD.AperFunction*
G04 #@! TA.AperFunction,SMDPad,CuDef*
G36*
X8853915Y-33211654D02*
G01*
X8048270Y-32708231D01*
X8737165Y-31605768D01*
X9542810Y-32109191D01*
X8853915Y-33211654D01*
G37*
G04 #@! TD.AperFunction*
G04 #@! TA.AperFunction,SMDPad,CuDef*
G36*
X10735129Y-30201084D02*
G01*
X9929484Y-29697661D01*
X10618379Y-28595198D01*
X11424024Y-29098621D01*
X10735129Y-30201084D01*
G37*
G04 #@! TD.AperFunction*
G04 #@! TA.AperFunction,SMDPad,CuDef*
G36*
X128548125Y-120170962D02*
G01*
X128774148Y-119382727D01*
X130504419Y-119878874D01*
X130278396Y-120667109D01*
X128548125Y-120170962D01*
G37*
G04 #@! TD.AperFunction*
G04 #@! TA.AperFunction,SMDPad,CuDef*
G36*
X128961581Y-118729069D02*
G01*
X129187604Y-117940834D01*
X130917875Y-118436981D01*
X130691852Y-119225216D01*
X128961581Y-118729069D01*
G37*
G04 #@! TD.AperFunction*
G04 #@! TA.AperFunction,SMDPad,CuDef*
G36*
X124155273Y-117350882D02*
G01*
X124381296Y-116562647D01*
X126111567Y-117058794D01*
X125885544Y-117847029D01*
X124155273Y-117350882D01*
G37*
G04 #@! TD.AperFunction*
G04 #@! TA.AperFunction,SMDPad,CuDef*
G36*
X123741817Y-118792775D02*
G01*
X123967840Y-118004540D01*
X125698111Y-118500687D01*
X125472088Y-119288922D01*
X123741817Y-118792775D01*
G37*
G04 #@! TD.AperFunction*
D19*
X194839026Y-114048091D03*
X194839026Y-112548091D03*
X199839026Y-112548091D03*
X199839026Y-114048091D03*
X233339006Y-111548086D03*
X233339006Y-110048086D03*
X238339006Y-110048086D03*
X238339006Y-111548086D03*
X271339017Y-116798092D03*
X271339017Y-115298092D03*
X276339017Y-115298092D03*
X276339017Y-116798092D03*
X276131027Y-134724425D03*
X276131027Y-136224425D03*
X271131027Y-136224425D03*
X271131027Y-134724425D03*
X231896001Y-148535725D03*
X231896001Y-150035725D03*
X226896001Y-150035725D03*
X226896001Y-148535725D03*
X186994162Y-155359869D03*
X186994162Y-156859869D03*
X181994162Y-156859869D03*
X181994162Y-155359869D03*
G04 #@! TA.AperFunction,SMDPad,CuDef*
D11*
G36*
X159192860Y-145484255D02*
G01*
X159418883Y-144696020D01*
X161149154Y-145192167D01*
X160923131Y-145980402D01*
X159192860Y-145484255D01*
G37*
G04 #@! TD.AperFunction*
G04 #@! TA.AperFunction,SMDPad,CuDef*
G36*
X158779404Y-146926148D02*
G01*
X159005427Y-146137913D01*
X160735698Y-146634060D01*
X160509675Y-147422295D01*
X158779404Y-146926148D01*
G37*
G04 #@! TD.AperFunction*
G04 #@! TA.AperFunction,SMDPad,CuDef*
G36*
X153973096Y-145547961D02*
G01*
X154199119Y-144759726D01*
X155929390Y-145255873D01*
X155703367Y-146044108D01*
X153973096Y-145547961D01*
G37*
G04 #@! TD.AperFunction*
G04 #@! TA.AperFunction,SMDPad,CuDef*
G36*
X154386552Y-144106068D02*
G01*
X154612575Y-143317833D01*
X156342846Y-143813980D01*
X156116823Y-144602215D01*
X154386552Y-144106068D01*
G37*
G04 #@! TD.AperFunction*
G04 #@! TA.AperFunction,SMDPad,CuDef*
G36*
X94546788Y-128221657D02*
G01*
X94772811Y-127433422D01*
X96503082Y-127929569D01*
X96277059Y-128717804D01*
X94546788Y-128221657D01*
G37*
G04 #@! TD.AperFunction*
G04 #@! TA.AperFunction,SMDPad,CuDef*
G36*
X94133332Y-129663550D02*
G01*
X94359355Y-128875315D01*
X96089626Y-129371462D01*
X95863603Y-130159697D01*
X94133332Y-129663550D01*
G37*
G04 #@! TD.AperFunction*
G04 #@! TA.AperFunction,SMDPad,CuDef*
G36*
X98939640Y-131041737D02*
G01*
X99165663Y-130253502D01*
X100895934Y-130749649D01*
X100669911Y-131537884D01*
X98939640Y-131041737D01*
G37*
G04 #@! TD.AperFunction*
G04 #@! TA.AperFunction,SMDPad,CuDef*
G36*
X99353096Y-129599844D02*
G01*
X99579119Y-128811609D01*
X101309390Y-129307756D01*
X101083367Y-130095991D01*
X99353096Y-129599844D01*
G37*
G04 #@! TD.AperFunction*
G04 #@! TA.AperFunction,SMDPad,CuDef*
G36*
X62179956Y-119259985D02*
G01*
X62614490Y-118564586D01*
X64140976Y-119518441D01*
X63706442Y-120213840D01*
X62179956Y-119259985D01*
G37*
G04 #@! TD.AperFunction*
G04 #@! TA.AperFunction,SMDPad,CuDef*
G36*
X61385077Y-120532057D02*
G01*
X61819611Y-119836658D01*
X63346097Y-120790513D01*
X62911563Y-121485912D01*
X61385077Y-120532057D01*
G37*
G04 #@! TD.AperFunction*
G04 #@! TA.AperFunction,SMDPad,CuDef*
G36*
X57144836Y-117882461D02*
G01*
X57579370Y-117187062D01*
X59105856Y-118140917D01*
X58671322Y-118836316D01*
X57144836Y-117882461D01*
G37*
G04 #@! TD.AperFunction*
G04 #@! TA.AperFunction,SMDPad,CuDef*
G36*
X57939715Y-116610389D02*
G01*
X58374249Y-115914990D01*
X59900735Y-116868845D01*
X59466201Y-117564244D01*
X57939715Y-116610389D01*
G37*
G04 #@! TD.AperFunction*
G04 #@! TA.AperFunction,SMDPad,CuDef*
G36*
X28376066Y-93107643D02*
G01*
X28810600Y-92412244D01*
X30337086Y-93366099D01*
X29902552Y-94061498D01*
X28376066Y-93107643D01*
G37*
G04 #@! TD.AperFunction*
G04 #@! TA.AperFunction,SMDPad,CuDef*
G36*
X27581187Y-94379715D02*
G01*
X28015721Y-93684316D01*
X29542207Y-94638171D01*
X29107673Y-95333570D01*
X27581187Y-94379715D01*
G37*
G04 #@! TD.AperFunction*
G04 #@! TA.AperFunction,SMDPad,CuDef*
G36*
X23340946Y-91730119D02*
G01*
X23775480Y-91034720D01*
X25301966Y-91988575D01*
X24867432Y-92683974D01*
X23340946Y-91730119D01*
G37*
G04 #@! TD.AperFunction*
G04 #@! TA.AperFunction,SMDPad,CuDef*
G36*
X24135825Y-90458047D02*
G01*
X24570359Y-89762648D01*
X26096845Y-90716503D01*
X25662311Y-91411902D01*
X24135825Y-90458047D01*
G37*
G04 #@! TD.AperFunction*
G04 #@! TA.AperFunction,SMDPad,CuDef*
G36*
X-4526307Y-56646882D02*
G01*
X-4091773Y-55951483D01*
X-2565287Y-56905338D01*
X-2999821Y-57600737D01*
X-4526307Y-56646882D01*
G37*
G04 #@! TD.AperFunction*
G04 #@! TA.AperFunction,SMDPad,CuDef*
G36*
X-5321186Y-57918954D02*
G01*
X-4886652Y-57223555D01*
X-3360166Y-58177410D01*
X-3794700Y-58872809D01*
X-5321186Y-57918954D01*
G37*
G04 #@! TD.AperFunction*
G04 #@! TA.AperFunction,SMDPad,CuDef*
G36*
X-9561427Y-55269358D02*
G01*
X-9126893Y-54573959D01*
X-7600407Y-55527814D01*
X-8034941Y-56223213D01*
X-9561427Y-55269358D01*
G37*
G04 #@! TD.AperFunction*
G04 #@! TA.AperFunction,SMDPad,CuDef*
G36*
X-8766548Y-53997286D02*
G01*
X-8332014Y-53301887D01*
X-6805528Y-54255742D01*
X-7240062Y-54951141D01*
X-8766548Y-53997286D01*
G37*
G04 #@! TD.AperFunction*
G04 #@! TA.AperFunction,SMDPad,CuDef*
G36*
X2600555Y-39202881D02*
G01*
X2166021Y-39898280D01*
X639535Y-38944425D01*
X1074069Y-38249026D01*
X2600555Y-39202881D01*
G37*
G04 #@! TD.AperFunction*
G04 #@! TA.AperFunction,SMDPad,CuDef*
G36*
X3395434Y-37930809D02*
G01*
X2960900Y-38626208D01*
X1434414Y-37672353D01*
X1868948Y-36976954D01*
X3395434Y-37930809D01*
G37*
G04 #@! TD.AperFunction*
G04 #@! TA.AperFunction,SMDPad,CuDef*
G36*
X7635675Y-40580405D02*
G01*
X7201141Y-41275804D01*
X5674655Y-40321949D01*
X6109189Y-39626550D01*
X7635675Y-40580405D01*
G37*
G04 #@! TD.AperFunction*
G04 #@! TA.AperFunction,SMDPad,CuDef*
G36*
X6840796Y-41852477D02*
G01*
X6406262Y-42547876D01*
X4879776Y-41594021D01*
X5314310Y-40898622D01*
X6840796Y-41852477D01*
G37*
G04 #@! TD.AperFunction*
G04 #@! TA.AperFunction,SMDPad,CuDef*
G36*
X38270848Y-53827487D02*
G01*
X37836314Y-54522886D01*
X36309828Y-53569031D01*
X36744362Y-52873632D01*
X38270848Y-53827487D01*
G37*
G04 #@! TD.AperFunction*
G04 #@! TA.AperFunction,SMDPad,CuDef*
G36*
X39065727Y-52555415D02*
G01*
X38631193Y-53250814D01*
X37104707Y-52296959D01*
X37539241Y-51601560D01*
X39065727Y-52555415D01*
G37*
G04 #@! TD.AperFunction*
G04 #@! TA.AperFunction,SMDPad,CuDef*
G36*
X43305968Y-55205011D02*
G01*
X42871434Y-55900410D01*
X41344948Y-54946555D01*
X41779482Y-54251156D01*
X43305968Y-55205011D01*
G37*
G04 #@! TD.AperFunction*
G04 #@! TA.AperFunction,SMDPad,CuDef*
G36*
X42511089Y-56477083D02*
G01*
X42076555Y-57172482D01*
X40550069Y-56218627D01*
X40984603Y-55523228D01*
X42511089Y-56477083D01*
G37*
G04 #@! TD.AperFunction*
G04 #@! TA.AperFunction,SMDPad,CuDef*
G36*
X67661208Y-74256220D02*
G01*
X67226674Y-74951619D01*
X65700188Y-73997764D01*
X66134722Y-73302365D01*
X67661208Y-74256220D01*
G37*
G04 #@! TD.AperFunction*
G04 #@! TA.AperFunction,SMDPad,CuDef*
G36*
X68456087Y-72984148D02*
G01*
X68021553Y-73679547D01*
X66495067Y-72725692D01*
X66929601Y-72030293D01*
X68456087Y-72984148D01*
G37*
G04 #@! TD.AperFunction*
G04 #@! TA.AperFunction,SMDPad,CuDef*
G36*
X72696328Y-75633744D02*
G01*
X72261794Y-76329143D01*
X70735308Y-75375288D01*
X71169842Y-74679889D01*
X72696328Y-75633744D01*
G37*
G04 #@! TD.AperFunction*
G04 #@! TA.AperFunction,SMDPad,CuDef*
G36*
X71901449Y-76905816D02*
G01*
X71466915Y-77601215D01*
X69940429Y-76647360D01*
X70374963Y-75951961D01*
X71901449Y-76905816D01*
G37*
G04 #@! TD.AperFunction*
D20*
X121734674Y-103518429D02*
X121684332Y-103598993D01*
X119580632Y-102172434D02*
X119530290Y-102252998D01*
G04 #@! TA.AperFunction,ComponentPad*
D11*
G36*
X116063734Y-101210021D02*
G01*
X117123572Y-99513925D01*
X118739104Y-100523421D01*
X117679266Y-102219517D01*
X116063734Y-101210021D01*
G37*
G04 #@! TD.AperFunction*
D21*
X126994985Y-99624751D02*
X126994985Y-99624751D01*
D22*
X120463370Y-95700161D03*
D23*
X171797310Y-93485719D03*
X171797310Y-96025719D03*
X171797310Y-98565719D03*
X171797310Y-101105719D03*
X171797310Y-103645719D03*
X171797310Y-106185719D03*
X171797310Y-108725719D03*
X171797310Y-111265719D03*
X171797310Y-113805719D03*
X171797310Y-116345719D03*
X171797310Y-118885719D03*
X171797310Y-121425719D03*
X156557310Y-121425719D03*
X156557310Y-118885719D03*
X156557310Y-116345719D03*
X156557310Y-113805719D03*
X156557310Y-111265719D03*
X156557310Y-108725719D03*
X156557310Y-106185719D03*
X156557310Y-103645719D03*
X156557310Y-101105719D03*
X156557310Y-98565719D03*
X156557310Y-96025719D03*
D24*
X156557310Y-93485719D03*
D25*
X219337082Y-155629831D03*
X212987082Y-158169831D03*
X196860746Y-157945525D03*
X191384517Y-162042478D03*
X179166510Y-166894536D03*
X173791806Y-162665274D03*
X62462021Y-129752132D03*
X58047762Y-134975964D03*
X51233536Y-118891924D03*
X45045208Y-115980104D03*
X34306767Y-104033934D03*
X27575667Y-102822988D03*
X285787094Y-140754839D03*
X279437094Y-143294839D03*
X285767094Y-121779823D03*
X279417094Y-124319823D03*
X285817092Y-102754850D03*
X279467092Y-105294850D03*
X266792100Y-140754824D03*
X260442100Y-143294824D03*
X266767090Y-121779850D03*
X260417090Y-124319850D03*
X266762101Y-102779845D03*
X260412101Y-105319845D03*
X247792090Y-136004841D03*
X241442090Y-138544841D03*
X247767099Y-117029833D03*
X241417099Y-119569833D03*
X247767093Y-98004832D03*
X241417093Y-100544832D03*
X228762097Y-133604849D03*
X222412097Y-136144849D03*
X228787091Y-114654841D03*
X222437091Y-117194841D03*
X228762092Y-95654844D03*
X222412092Y-98194844D03*
X209792100Y-136004822D03*
X203442100Y-138544822D03*
X209767099Y-117004830D03*
X203417099Y-119544830D03*
X209812105Y-97979823D03*
X203462105Y-100519823D03*
X190742096Y-138404846D03*
X184392096Y-140944846D03*
X190762081Y-119404851D03*
X184412081Y-121944851D03*
X190737092Y-100404835D03*
X184387092Y-102944835D03*
X67548352Y-104523696D03*
X60817252Y-103312750D03*
X77642242Y-88426663D03*
X70911142Y-87215717D03*
X87723964Y-72292582D03*
X80992864Y-71081636D03*
X52736393Y-92467619D03*
X46005293Y-91256673D03*
X62787883Y-76344102D03*
X56056783Y-75133156D03*
X72886572Y-60220592D03*
X66155472Y-59009646D03*
X37826388Y-80379747D03*
X31095288Y-79168801D03*
X47912339Y-64248268D03*
X41181239Y-63037322D03*
X58011013Y-48124754D03*
X51279913Y-46913808D03*
X20481402Y-72282984D03*
X13750302Y-71072038D03*
X30571075Y-56183313D03*
X23839975Y-54972367D03*
X40605085Y-40078366D03*
X33873985Y-38867420D03*
X1829126Y-66287810D03*
X-4901974Y-65076864D03*
X11910844Y-50153701D03*
X5179744Y-48942755D03*
X21975075Y-34038121D03*
X15243975Y-32827175D03*
X-14240331Y-56187541D03*
X-20971431Y-54976595D03*
X-4227521Y-40069310D03*
X-10958621Y-38858364D03*
X5875380Y-23948447D03*
X-855720Y-22737501D03*
D26*
X92529989Y-80913816D03*
X147696119Y-143667454D03*
X73183398Y-117544644D03*
X65383825Y-91299063D03*
X76583303Y-102502213D03*
X70927804Y-120994151D03*
X149696111Y-145667469D03*
X166515468Y-149774525D03*
X72104191Y-119247862D03*
X148696120Y-144667474D03*
X180034692Y-128657921D03*
X71558854Y-120108702D03*
X147646131Y-145667464D03*
X163696115Y-151917490D03*
X165846122Y-153467473D03*
X181427311Y-148705717D03*
X153231021Y-125574436D03*
X163571136Y-110717449D03*
X66257562Y-76145828D03*
X37116350Y-56167619D03*
X1477847Y-41680792D03*
X33301412Y-95674093D03*
X62776665Y-117099188D03*
X133123691Y-116770103D03*
X131681505Y-120257690D03*
X164825551Y-146614449D03*
X175838886Y-149746453D03*
X208733299Y-149595462D03*
X219758300Y-148920469D03*
X252958297Y-148520467D03*
X262108297Y-151795469D03*
X261958300Y-115845461D03*
X242533292Y-113820464D03*
X153648231Y-102762050D03*
X65321677Y-71463393D03*
X43823658Y-58029942D03*
X144465012Y-120490030D03*
X128056033Y-106449427D03*
X73828656Y-76720181D03*
X44631733Y-56264956D03*
X8532145Y-41666886D03*
X30580214Y-99368443D03*
X55057065Y-115252877D03*
X123801761Y-115267425D03*
X153439335Y-141971112D03*
X163792596Y-149491155D03*
X174782948Y-151524268D03*
X205508290Y-152295467D03*
X223008298Y-151070467D03*
X275108299Y-145145453D03*
X276933300Y-143545459D03*
X262533294Y-112695464D03*
X242483294Y-110195458D03*
X73009939Y-78124748D03*
X35904825Y-51077095D03*
X7803500Y-42832947D03*
X31849413Y-97714736D03*
X55046267Y-113241526D03*
X148923094Y-135318552D03*
X153225655Y-139179051D03*
X164350246Y-148090616D03*
X174736105Y-150236467D03*
X207808294Y-150920453D03*
X219608295Y-150870452D03*
X277933297Y-136620455D03*
X278758290Y-134445465D03*
X262458295Y-114120459D03*
X242508300Y-111895470D03*
X224283298Y-109895466D03*
X202983291Y-114145464D03*
X157992313Y-115199929D03*
X154749609Y-123424746D03*
X112602939Y-79767908D03*
X151506401Y-95999464D03*
X145001998Y-97470009D03*
X148517759Y-101914530D03*
D27*
X11755119Y-27672357D02*
X10676758Y-29398138D01*
X43509353Y-48469724D02*
X42430956Y-50195492D01*
X8795546Y-32408713D02*
X7717146Y-34134492D01*
X92499063Y-80930961D02*
X92529989Y-80913816D01*
X147696119Y-143667454D02*
X150496116Y-140867472D01*
X150496118Y-122406905D02*
X156557302Y-116345720D01*
X150496116Y-140867472D02*
X150496118Y-122406905D01*
X197677292Y-106480717D02*
X197677295Y-108515734D01*
X235677300Y-101730719D02*
X235677304Y-103765723D01*
X273677313Y-110515739D02*
X273677313Y-108480727D01*
X72622557Y-115115315D02*
X73183398Y-117544644D01*
X92529989Y-80913816D02*
X92924954Y-82624666D01*
X92924954Y-82624666D02*
X72622557Y-115115315D01*
X38674069Y-114701019D02*
X38253292Y-114798172D01*
X41721110Y-109824749D02*
X38674069Y-114701019D01*
X54122816Y-106961585D02*
X41721110Y-109824749D01*
X74524306Y-70544446D02*
X74021671Y-71348802D01*
X38253292Y-114798172D02*
X36394923Y-113636931D01*
X74021671Y-71348802D02*
X75272772Y-76767952D01*
X66840854Y-86608442D02*
X54122816Y-106961585D01*
X75602678Y-68818658D02*
X74524306Y-70544446D01*
X75272772Y-76767952D02*
X69508611Y-85992541D01*
X36394923Y-113636931D02*
X37473310Y-111911149D01*
X69508611Y-85992541D02*
X66840854Y-86608442D01*
X446665Y-45675363D02*
X446653Y-45675366D01*
X1511801Y-43970806D02*
X446665Y-45675363D01*
X64323346Y-86869366D02*
X65401728Y-85143586D01*
X50982725Y-129053328D02*
X50256951Y-129220877D01*
X51745252Y-127833010D02*
X50982725Y-129053328D01*
X32229989Y-66520421D02*
X33308396Y-64794634D01*
X-2526192Y-50432921D02*
X-2526210Y-50432909D01*
X-1434557Y-48685932D02*
X-2526192Y-50432921D01*
X58097419Y-102959725D02*
X57408444Y-103118789D01*
X49694748Y-126785738D02*
X50256951Y-129220877D01*
X65383825Y-91299063D02*
X58097419Y-102959725D01*
X52639155Y-110751229D02*
X54547941Y-119019031D01*
X57408444Y-103118789D02*
X52639155Y-110751229D01*
X54547941Y-119019031D02*
X49694748Y-126785738D01*
X77108239Y-104775859D02*
X76583303Y-102502213D01*
X69927827Y-116266927D02*
X77108239Y-104775859D01*
X70994545Y-120887376D02*
X69927827Y-116266927D01*
X70927804Y-120994151D02*
X70994545Y-120887376D01*
X154937870Y-121425716D02*
X156557308Y-121425716D01*
X151696139Y-124667469D02*
X154937870Y-121425716D01*
X149696111Y-145667469D02*
X151696122Y-143667470D01*
X151696122Y-143667470D02*
X151696139Y-124667469D01*
X197677308Y-125480733D02*
X197677305Y-127515717D01*
X235677309Y-120730720D02*
X235677304Y-122765712D01*
X273677313Y-127730715D02*
X273677302Y-129765725D01*
X-9635068Y-61809470D02*
X-8556671Y-60083698D01*
X273677319Y-146730720D02*
X273677302Y-148765722D01*
X197677293Y-146515732D02*
X197677286Y-144480743D01*
X235677319Y-139480718D02*
X235677300Y-141515721D01*
X55465739Y-101044478D02*
X54387380Y-102770260D01*
X71945642Y-131815762D02*
X72269366Y-133217852D01*
X71313993Y-131421064D02*
X71945642Y-131815762D01*
X22161519Y-82633327D02*
X23239925Y-80907568D01*
X-12594664Y-66545819D02*
X-11516288Y-64820027D01*
X166915466Y-149374525D02*
X166515468Y-149774525D01*
X173396139Y-142893861D02*
X166915466Y-149374525D01*
X170807782Y-116894215D02*
X170793521Y-116943902D01*
X171797292Y-116345717D02*
X170807782Y-116894215D01*
X173396124Y-125302817D02*
X173396139Y-142893861D01*
X170793521Y-116943902D02*
X170437299Y-117141385D01*
X170437299Y-117141385D02*
X170437303Y-122343991D01*
X170437303Y-122343991D02*
X173396124Y-125302817D01*
X27838895Y-37693109D02*
X26760532Y-39418893D01*
X90655765Y-80583242D02*
X89577370Y-82308996D01*
X60814569Y-56630073D02*
X59736185Y-58355859D01*
X24879317Y-42429470D02*
X23800925Y-44155260D01*
X91100100Y-83260520D02*
X91294375Y-84101930D01*
X71976952Y-118696664D02*
X72104191Y-119247862D01*
X89577369Y-82309005D02*
X91100100Y-83260520D01*
X71356489Y-116009192D02*
X71976952Y-118696664D01*
X91294375Y-84101930D02*
X71356489Y-116009192D01*
X155757311Y-119685721D02*
X155677869Y-119685711D01*
X156557319Y-118885723D02*
X155757311Y-119685721D01*
X151096125Y-142267458D02*
X148696120Y-144667474D01*
X155757311Y-119685721D02*
X151096130Y-124346907D01*
X151096130Y-124346907D02*
X151096125Y-142267458D01*
X254677314Y-108515729D02*
X254677310Y-106480701D01*
X290677309Y-109730712D02*
X290677299Y-111765712D01*
X216677300Y-103980730D02*
X216677286Y-106015719D01*
X176934561Y-176874108D02*
X175661499Y-177168014D01*
X177405827Y-176119913D02*
X176934561Y-176874108D01*
X175152459Y-176658978D02*
X175661504Y-177168012D01*
X169046121Y-170552641D02*
X175152459Y-176658978D01*
X154234674Y-150606022D02*
X169046120Y-165417475D01*
X148564444Y-148980116D02*
X154234674Y-150606022D01*
X146921119Y-146015455D02*
X148564444Y-148980116D01*
X147955990Y-144455242D02*
X147046866Y-144665131D01*
X148696120Y-144667474D02*
X147955990Y-144455242D01*
X147046866Y-144665131D02*
X146476923Y-145577209D01*
X146476923Y-145577209D02*
X146520275Y-145764978D01*
X169046120Y-165417475D02*
X169046121Y-170552641D01*
X146520275Y-145764978D02*
X146921119Y-146015455D01*
X17770451Y-53806038D02*
X16692051Y-55531819D01*
X290677303Y-128980723D02*
X290677310Y-131015709D01*
X254677299Y-122980719D02*
X254677290Y-125015706D01*
X216677299Y-122980732D02*
X216677307Y-125015718D01*
X205663410Y-162196940D02*
X205136732Y-161670222D01*
X205663404Y-163635894D02*
X205663410Y-162196940D01*
X216677301Y-125964221D02*
X214427299Y-128214221D01*
X216677307Y-125015718D02*
X216677301Y-125964221D01*
X214427299Y-128214221D02*
X214427302Y-145955733D01*
X214427302Y-145955733D02*
X207927308Y-152455727D01*
X207927300Y-161372011D02*
X205663404Y-163635894D01*
X207927308Y-152455727D02*
X207927300Y-161372011D01*
X80189856Y-97332177D02*
X79111463Y-99057956D01*
X50613612Y-72955006D02*
X49535234Y-74680785D01*
X14810833Y-58542384D02*
X13732442Y-60268191D01*
X71526915Y-120088737D02*
X71558854Y-120108702D01*
X70618223Y-116152783D02*
X71526915Y-120088737D01*
X80242802Y-100750217D02*
X70618223Y-116152783D01*
X79111464Y-99057949D02*
X79976970Y-99598776D01*
X79976970Y-99598776D02*
X80242802Y-100750217D01*
X180029115Y-128656323D02*
X180034692Y-128657921D01*
X174896116Y-123519317D02*
X180034692Y-128657921D01*
X171797314Y-113805729D02*
X174896123Y-116904543D01*
X174896123Y-116904543D02*
X174896116Y-123519317D01*
X161452211Y-152207479D02*
X149347280Y-148736439D01*
X165472124Y-149979185D02*
X161452211Y-152207479D01*
X165968283Y-148248920D02*
X165472124Y-149979185D01*
X169093337Y-146516666D02*
X165968283Y-148248920D01*
X149347280Y-148736439D02*
X147646131Y-145667464D01*
X169896138Y-115706905D02*
X169896138Y-123117468D01*
X171797308Y-113805733D02*
X169896138Y-115706905D01*
X169896138Y-123117468D02*
X172946118Y-126167478D01*
X172946130Y-142667476D02*
X169096119Y-146517475D01*
X169096119Y-146517475D02*
X169093337Y-146516666D01*
X172946118Y-126167478D02*
X172946130Y-142667476D01*
X7701968Y-69918950D02*
X6623587Y-71644745D01*
X254677297Y-142230716D02*
X254677299Y-144265728D01*
X70121394Y-113445084D02*
X69042996Y-115170873D01*
X40545174Y-89067901D02*
X39466772Y-90793697D01*
X4742370Y-74655309D02*
X3663978Y-76381081D01*
X164096119Y-152317459D02*
X164096123Y-152367473D01*
X163696115Y-151917490D02*
X164096119Y-152317459D01*
X164096123Y-152367473D02*
X165196120Y-153467466D01*
X165196120Y-153467466D02*
X165846122Y-153467473D01*
X174396136Y-121484531D02*
X171797326Y-118885722D01*
X174396114Y-146967469D02*
X174396136Y-121484531D01*
X181427311Y-148705717D02*
X176134390Y-148705725D01*
X176134390Y-148705725D02*
X174396114Y-146967469D01*
X226427305Y-163515714D02*
X226427306Y-161480714D01*
X216677298Y-143765722D02*
X216677304Y-149895695D01*
X216677307Y-141730732D02*
X216677298Y-143765722D01*
X216677304Y-149895695D02*
X224177302Y-157395711D01*
X224737322Y-163515715D02*
X226427305Y-163515714D01*
X224177301Y-162955719D02*
X224737322Y-163515715D01*
X224177302Y-157395711D02*
X224177301Y-162955719D01*
X290334244Y-148279736D02*
X290677306Y-149765714D01*
X290677305Y-147730708D02*
X290334244Y-148279736D01*
X46468948Y-43733377D02*
X45390551Y-45459149D01*
X36267990Y-60058315D02*
X35189606Y-61784060D01*
X25121118Y-77896979D02*
X26199515Y-76171210D01*
X63774162Y-51893733D02*
X62695778Y-53619499D01*
X53573219Y-68218639D02*
X52494835Y-69944412D01*
X43504753Y-84331580D02*
X42426378Y-86057337D01*
X78562279Y-64082313D02*
X77483887Y-65808102D01*
X68361356Y-80407230D02*
X67282956Y-82133007D01*
X58425338Y-96308151D02*
X57346964Y-98033921D01*
X93615342Y-75846885D02*
X92655476Y-77382977D01*
X83149450Y-92595829D02*
X82071050Y-94321588D01*
X73080985Y-108708731D02*
X72002584Y-110434507D01*
X197677309Y-100895726D02*
X197677298Y-102930721D01*
X197677300Y-119895730D02*
X197677309Y-121930730D01*
X197677303Y-140930724D02*
X197677305Y-138895713D01*
X216677306Y-98395724D02*
X216677309Y-100430732D01*
X216677306Y-117395734D02*
X216677303Y-119430724D01*
X216677291Y-138180709D02*
X216677299Y-136145726D01*
X235677301Y-96145735D02*
X235677305Y-98180716D01*
X235677309Y-115145722D02*
X235677297Y-117180733D01*
X235677301Y-135930714D02*
X235677321Y-133895713D01*
X254677287Y-100895737D02*
X254677300Y-102930741D01*
X254677306Y-117395734D02*
X254677322Y-119430714D01*
X254677307Y-136645723D02*
X254677302Y-138680725D01*
X273677308Y-102895721D02*
X273677298Y-104930728D01*
X273677304Y-124180723D02*
X273677307Y-122145712D01*
X273677298Y-141145719D02*
X273677305Y-143180737D01*
X290677297Y-104145719D02*
X290677296Y-106180721D01*
X290677299Y-125430736D02*
X290677289Y-123395723D01*
X290677304Y-142145721D02*
X290677298Y-144180721D01*
X40432900Y-107174813D02*
X39354518Y-108900594D01*
X55067337Y-125244371D02*
X54341572Y-125411918D01*
X55829863Y-124024066D02*
X55067337Y-125244371D01*
X69323672Y-126884495D02*
X69647368Y-128286597D01*
X68692005Y-126489782D02*
X69323672Y-126884495D01*
X181145013Y-174291522D02*
X182193121Y-173243426D01*
X180448769Y-174291531D02*
X181145013Y-174291522D01*
X204217903Y-156802232D02*
X203691205Y-156275551D01*
X204217897Y-158241202D02*
X204217903Y-156802232D01*
X226427295Y-155895722D02*
X226427304Y-157930734D01*
X163571126Y-123702465D02*
X165561125Y-125692460D01*
X165561125Y-125692460D02*
X165561109Y-125842473D01*
X163571136Y-110717449D02*
X163571126Y-123702465D01*
X66031379Y-75166116D02*
X66680693Y-74126973D01*
X66257562Y-76145828D02*
X66031379Y-75166116D01*
X36747001Y-54567797D02*
X37290343Y-53698266D01*
X37116350Y-56167619D02*
X36747001Y-54567797D01*
X1270308Y-39633363D02*
X1620047Y-39073644D01*
X998127Y-41381038D02*
X776929Y-40422925D01*
X776929Y-40422925D02*
X1270308Y-39633363D01*
X1477847Y-41680792D02*
X998127Y-41381038D01*
X237689Y-41967110D02*
X-4783304Y-50002370D01*
X1477847Y-41680792D02*
X237689Y-41967110D01*
X-2486117Y-55080277D02*
X-3545794Y-56776107D01*
X-4107280Y-52930555D02*
X-2792796Y-53751916D01*
X-4783304Y-50002370D02*
X-4107280Y-52930555D01*
X-2792796Y-53751916D02*
X-2486117Y-55080277D01*
X30448478Y-91489460D02*
X29356577Y-93236871D01*
X23113959Y-86360332D02*
X30301161Y-90851380D01*
X16913098Y-87791907D02*
X23113959Y-86360332D01*
X30301161Y-90851380D02*
X30448478Y-91489460D01*
X-9037176Y-71576375D02*
X16913098Y-87791907D01*
X-10094945Y-66994627D02*
X-9037176Y-71576375D01*
X-2189187Y-57623809D02*
X-2042419Y-58259486D01*
X-7471833Y-62796805D02*
X-10094945Y-66994627D01*
X-3545794Y-56776107D02*
X-2189187Y-57623809D01*
X-2042419Y-58259486D02*
X-4440311Y-62096909D01*
X-4440311Y-62096909D02*
X-7471833Y-62796805D01*
X29356577Y-93236871D02*
X33268961Y-95681594D01*
X33268961Y-95681594D02*
X33301412Y-95674093D01*
X62776665Y-117099188D02*
X63258703Y-117400393D01*
X63567482Y-118737846D02*
X63510206Y-118829500D01*
X63510206Y-118829500D02*
X63160464Y-119389213D01*
X63258703Y-117400393D02*
X63567482Y-118737846D01*
X96710939Y-125938566D02*
X100676149Y-127075566D01*
X78658256Y-129073319D02*
X85771585Y-131113024D01*
X85771585Y-131113024D02*
X94262041Y-126406684D01*
X63160464Y-119389213D02*
X78658256Y-129073319D01*
X94262041Y-126406684D02*
X95319434Y-126709892D01*
X95319434Y-126709892D02*
X96710939Y-125938566D01*
X100898286Y-127476304D02*
X100331239Y-129453808D01*
X100676149Y-127075566D02*
X100898286Y-127476304D01*
X135814275Y-110059861D02*
X134034990Y-116264958D01*
X134034990Y-116264958D02*
X133123691Y-116770103D01*
X131223479Y-120511587D02*
X131681505Y-120257690D01*
X129526275Y-120024920D02*
X131223479Y-120511587D01*
X160170998Y-145338207D02*
X164756071Y-146652951D01*
X164756071Y-146652951D02*
X164825551Y-146614449D01*
X187111734Y-154949861D02*
X186994163Y-155359859D01*
X185812736Y-152606407D02*
X187111734Y-154949861D01*
X175838886Y-149746453D02*
X185812736Y-152606407D01*
X191283298Y-112970465D02*
X192360931Y-114048092D01*
X192360931Y-114048092D02*
X194839033Y-114048087D01*
X188058294Y-102770461D02*
X189958303Y-102770463D01*
X186393537Y-101105715D02*
X188058294Y-102770461D01*
X171797315Y-101105715D02*
X186393537Y-101105715D01*
X189958303Y-102770463D02*
X191283297Y-104095464D01*
X191283297Y-104095464D02*
X191283298Y-112970465D01*
X188144176Y-155359855D02*
X188158559Y-155345462D01*
X186994165Y-155359862D02*
X188144176Y-155359855D01*
X188158559Y-155345462D02*
X192733299Y-155345457D01*
X192733299Y-155345457D02*
X198483297Y-149595461D01*
X198483297Y-149595461D02*
X208733299Y-149595462D01*
X219758300Y-148920469D02*
X221858307Y-146820450D01*
X231895995Y-147875734D02*
X231895992Y-148535738D01*
X231895999Y-147634341D02*
X231895995Y-147875734D01*
X231082123Y-146820470D02*
X231895999Y-147634341D01*
X221858307Y-146820450D02*
X231082123Y-146820470D01*
X231895992Y-148535738D02*
X252943029Y-148535716D01*
X252943029Y-148535716D02*
X252958297Y-148520467D01*
X275933294Y-142870460D02*
X275933298Y-150070467D01*
X275933298Y-150070467D02*
X274208298Y-151795457D01*
X276131029Y-134724425D02*
X277281036Y-134724434D01*
X279508301Y-136951702D02*
X279508294Y-139295467D01*
X274208298Y-151795457D02*
X262673983Y-151795463D01*
X279508294Y-139295467D02*
X275933294Y-142870460D01*
X277281036Y-134724434D02*
X279508301Y-136951702D01*
X262673983Y-151795463D02*
X262108297Y-151795469D01*
X271339006Y-119576184D02*
X271339014Y-116798089D01*
X271758296Y-119995460D02*
X271339006Y-119576184D01*
X274358294Y-119995467D02*
X271758296Y-119995460D01*
X274883296Y-120520454D02*
X274358294Y-119995467D01*
X275798883Y-134392274D02*
X275798879Y-133537208D01*
X276131029Y-134724425D02*
X275798883Y-134392274D01*
X275798879Y-133537208D02*
X275593846Y-133332182D01*
X275593846Y-133332182D02*
X274883296Y-133332175D01*
X274883296Y-133332175D02*
X274883296Y-120520454D01*
X270189015Y-116798096D02*
X270161389Y-116770456D01*
X271339014Y-116798089D02*
X270189015Y-116798096D01*
X270161389Y-116770456D02*
X262883287Y-116770462D01*
X262883287Y-116770462D02*
X261958300Y-115845461D01*
X233339000Y-112208094D02*
X233339011Y-111548095D01*
X241967605Y-113820462D02*
X241817609Y-113670458D01*
X242533292Y-113820464D02*
X241967605Y-113820462D01*
X241817609Y-113670458D02*
X234008304Y-113670464D01*
X234008304Y-113670464D02*
X233339016Y-113001176D01*
X233339016Y-113001176D02*
X233339000Y-112208094D01*
X160877499Y-142874363D02*
X160171006Y-145338212D01*
X157722739Y-137183027D02*
X160877499Y-142874363D01*
X165561125Y-127107471D02*
X163951108Y-128717472D01*
X163950915Y-128718158D02*
X159431693Y-131223203D01*
X165561111Y-125842477D02*
X165561125Y-127107471D01*
X163951108Y-128717472D02*
X163950915Y-128718158D01*
X159431693Y-131223203D02*
X157722739Y-137183027D01*
X159431693Y-131223203D02*
X159407661Y-131216319D01*
X156856592Y-126614050D02*
X153231021Y-125574436D01*
X159407661Y-131216319D02*
X156856592Y-126614050D01*
X152297107Y-101917771D02*
X151669371Y-102062700D01*
X153648231Y-102762050D02*
X152297107Y-101917771D01*
X67475566Y-72854907D02*
X65333987Y-71516704D01*
X65333987Y-71516704D02*
X65321677Y-71463393D01*
X41597814Y-56639072D02*
X41530581Y-56347866D01*
X43823658Y-58029942D02*
X41597814Y-56639072D01*
X156557299Y-99697078D02*
X156557308Y-101105721D01*
X156557313Y-98565725D02*
X156557299Y-99697078D01*
X157688677Y-101105727D02*
X166496131Y-109913172D01*
X156557308Y-101105721D02*
X157688677Y-101105727D01*
X166496131Y-109913172D02*
X166496116Y-121992460D01*
X168101122Y-123597457D02*
X168101125Y-125842459D01*
X166496116Y-121992460D02*
X168101122Y-123597457D01*
X161502858Y-133705722D02*
X161177304Y-133705728D01*
X168101125Y-127107472D02*
X161502858Y-133705722D01*
X168101125Y-125842459D02*
X168101125Y-127107472D01*
X155957780Y-102065166D02*
X155963263Y-102088951D01*
X156557310Y-101105725D02*
X155957780Y-102065166D01*
X155963263Y-102088951D02*
X144465012Y-120490030D01*
X138231018Y-105449436D02*
X138581025Y-105799418D01*
X128056033Y-106449427D02*
X129056024Y-105449433D01*
X129056024Y-105449433D02*
X138231018Y-105449436D01*
X71838023Y-75476294D02*
X71715806Y-75504507D01*
X73828656Y-76720181D02*
X71838023Y-75476294D01*
X42619886Y-55007823D02*
X42325461Y-55075797D01*
X44631733Y-56264956D02*
X42619886Y-55007823D01*
X6666733Y-40501233D02*
X6655174Y-40451171D01*
X8532145Y-41666886D02*
X6666733Y-40501233D01*
X-10680107Y-54086873D02*
X-8580919Y-55398580D01*
X-11161649Y-52001063D02*
X-10680107Y-54086873D01*
X-6559819Y-39164064D02*
X-5637239Y-43160151D01*
X-5637239Y-43160151D02*
X-11161649Y-52001063D01*
X3220961Y-35400141D02*
X-5460230Y-37404357D01*
X7004915Y-39891466D02*
X7000461Y-39872163D01*
X7397602Y-38009995D02*
X3220961Y-35400141D01*
X6655174Y-40451171D02*
X7004915Y-39891466D01*
X7000461Y-39872163D02*
X7604379Y-38905684D01*
X-5460230Y-37404357D02*
X-6559819Y-39164064D01*
X7604379Y-38905684D02*
X7397602Y-38009995D01*
X21576653Y-90144201D02*
X24321453Y-91859346D01*
X18439794Y-90868407D02*
X21576653Y-90144201D01*
X-8580919Y-55398580D02*
X-8930667Y-55958298D01*
X-16017680Y-67037584D02*
X-15397333Y-69724620D01*
X-8930667Y-55958298D02*
X-9122197Y-56002511D01*
X-9122197Y-56002511D02*
X-16017680Y-67037584D01*
X-15397333Y-69724620D02*
X18439794Y-90868407D01*
X24455976Y-95541585D02*
X30580214Y-99368443D01*
X24321453Y-91859346D02*
X23798923Y-92695578D01*
X23798923Y-92695578D02*
X24455976Y-95541585D01*
X68602588Y-130232015D02*
X73425469Y-129118566D01*
X65867638Y-128523025D02*
X68602588Y-130232015D01*
X78004926Y-131980118D02*
X83774905Y-133634634D01*
X73425469Y-129118566D02*
X78004926Y-131980118D01*
X65318866Y-126146026D02*
X65867638Y-128523025D01*
X58125349Y-118011687D02*
X57119913Y-119620707D01*
X83774905Y-133634634D02*
X92535137Y-128778758D01*
X55284106Y-116236280D02*
X58125349Y-118011687D01*
X55057065Y-115252877D02*
X55284106Y-116236280D01*
X57498172Y-121259116D02*
X65318866Y-126146026D01*
X57119913Y-119620707D02*
X57498172Y-121259116D01*
X92535137Y-128778758D02*
X95111470Y-129517512D01*
X124027970Y-116887851D02*
X123572649Y-116066441D01*
X123572649Y-116066441D02*
X123801761Y-115267425D01*
X125133415Y-117204846D02*
X124027970Y-116887851D01*
X153283413Y-142514878D02*
X153317700Y-142576717D01*
X153439335Y-141971112D02*
X153283413Y-142514878D01*
X153845787Y-145084924D02*
X154951225Y-145401905D01*
X153023734Y-143601909D02*
X153845787Y-145084924D01*
X153317700Y-142576717D02*
X153023734Y-143601909D01*
X154769323Y-146036347D02*
X154770003Y-146037599D01*
X154951225Y-145401905D02*
X154769323Y-146036347D01*
X154770003Y-146037599D02*
X154742313Y-146134207D01*
X154742313Y-146134207D02*
X154402644Y-147318786D01*
X154402644Y-147318786D02*
X154779735Y-147999082D01*
X154779735Y-147999082D02*
X162493861Y-150211064D01*
X162493861Y-150211064D02*
X163792596Y-149491155D01*
X176936645Y-155409638D02*
X181994170Y-156859858D01*
X174782948Y-151524268D02*
X176936645Y-155409638D01*
X199839039Y-105301196D02*
X199839031Y-112548096D01*
X199133290Y-104595464D02*
X199839039Y-105301196D01*
X195958294Y-104595464D02*
X199133290Y-104595464D01*
X176773435Y-99870459D02*
X186408308Y-99870456D01*
X186408308Y-99870456D02*
X188683300Y-102145461D01*
X193508291Y-102145467D02*
X195958294Y-104595464D01*
X171797309Y-96025708D02*
X172928689Y-96025701D01*
X172928689Y-96025701D02*
X176773435Y-99870459D01*
X188683300Y-102145461D02*
X193508291Y-102145467D01*
X181994163Y-157519860D02*
X181958296Y-157555730D01*
X181994163Y-156859858D02*
X181994163Y-157519860D01*
X181958296Y-157555730D02*
X181958301Y-158670460D01*
X181958301Y-158670460D02*
X182633298Y-159345469D01*
X182633298Y-159345469D02*
X191658293Y-159345464D01*
X191658293Y-159345464D02*
X198708295Y-152295461D01*
X198708295Y-152295461D02*
X205508290Y-152295467D01*
X224043026Y-150035724D02*
X226895999Y-150035725D01*
X223008298Y-151070467D02*
X224043026Y-150035724D01*
X271131038Y-146918205D02*
X271131039Y-136224434D01*
X271133300Y-147220458D02*
X271133298Y-146920461D01*
X267508309Y-150845460D02*
X271133300Y-147220458D01*
X259383300Y-150845466D02*
X267508309Y-150845460D01*
X257883300Y-152345465D02*
X259383300Y-150845466D01*
X226895999Y-150695737D02*
X226933297Y-150733037D01*
X226895999Y-150035725D02*
X226895999Y-150695737D01*
X226933297Y-151745454D02*
X227533298Y-152345463D01*
X271133298Y-146920461D02*
X271131038Y-146918205D01*
X226933297Y-150733037D02*
X226933297Y-151745454D01*
X227533298Y-152345463D02*
X257883300Y-152345465D01*
X271133300Y-147220458D02*
X271708301Y-147220464D01*
X271708301Y-147220464D02*
X272283298Y-146645456D01*
X272283298Y-146645456D02*
X272283293Y-145545463D01*
X272283293Y-145545463D02*
X272683298Y-145145467D01*
X272683298Y-145145467D02*
X275108299Y-145145453D01*
X277935926Y-115298084D02*
X276339009Y-115298090D01*
X278808302Y-118095463D02*
X278808293Y-116170467D01*
X278808293Y-116170467D02*
X277935926Y-115298084D01*
X276058301Y-120845463D02*
X278808302Y-118095463D01*
X277333289Y-143145464D02*
X277333289Y-142245452D01*
X276933300Y-143545459D02*
X277333289Y-143145464D01*
X276058286Y-127720456D02*
X276058301Y-120845463D01*
X280933302Y-132595468D02*
X276058286Y-127720456D01*
X277333289Y-142245452D02*
X280933295Y-138645465D01*
X280933295Y-138645465D02*
X280933302Y-132595468D01*
X276339009Y-115298090D02*
X276339020Y-113476183D01*
X276339020Y-113476183D02*
X275558302Y-112695458D01*
X275558302Y-112695458D02*
X262533294Y-112695464D01*
X238486391Y-110195464D02*
X238339009Y-110048085D01*
X242483294Y-110195458D02*
X238486391Y-110195464D01*
X155507307Y-93485727D02*
X146531032Y-102461980D01*
X156557308Y-93485717D02*
X155507307Y-93485727D01*
X146531032Y-102461980D02*
X146531021Y-105824429D01*
X144425809Y-107929651D02*
X137197643Y-107929658D01*
X146531021Y-105824429D02*
X144425809Y-107929651D01*
X70932486Y-76826617D02*
X70920933Y-76776582D01*
X73009939Y-78124748D02*
X70932486Y-76826617D01*
X38085216Y-52426195D02*
X35920433Y-51073491D01*
X35920433Y-51073491D02*
X35904825Y-51077095D01*
X5982463Y-41695046D02*
X5860284Y-41723245D01*
X7803500Y-42832947D02*
X5982463Y-41695046D01*
X-10117606Y-51415314D02*
X-9779222Y-52881041D01*
X-9779222Y-52881041D02*
X-7786036Y-54126513D01*
X1439672Y-37192168D02*
X-129855Y-37554528D01*
X-129855Y-37554528D02*
X-3546411Y-43022159D01*
X2414928Y-37801572D02*
X1439672Y-37192168D01*
X-3546411Y-43022159D02*
X-5096627Y-43380055D01*
X-5096627Y-43380055D02*
X-10117606Y-51415314D01*
X21141866Y-88103746D02*
X25116336Y-90587268D01*
X17557163Y-88931339D02*
X21141866Y-88103746D01*
X-11131082Y-67143129D02*
X-10089200Y-71655975D01*
X-4690424Y-58607896D02*
X-4709713Y-58612342D01*
X-4340684Y-58048178D02*
X-4690424Y-58607896D01*
X-5325661Y-59598045D02*
X-6600264Y-59892313D01*
X-4709713Y-58612342D02*
X-5325661Y-59598045D01*
X-10089200Y-71655975D02*
X17557163Y-88931339D01*
X-6600264Y-59892313D02*
X-11131082Y-67143129D01*
X28561703Y-94508937D02*
X31538775Y-96369216D01*
X31538775Y-96369216D02*
X31849413Y-97714736D01*
X55046267Y-113241526D02*
X56954376Y-114433841D01*
X57245042Y-115692854D02*
X58920216Y-116739618D01*
X56954376Y-114433841D02*
X57245042Y-115692854D01*
X84802691Y-132418142D02*
X93621481Y-127529815D01*
X63428580Y-121250433D02*
X78330754Y-130562347D01*
X62365592Y-120661279D02*
X63340832Y-121270692D01*
X78330754Y-130562347D02*
X84802691Y-132418142D01*
X63340832Y-121270692D02*
X63428580Y-121250433D01*
X93621481Y-127529815D02*
X95524929Y-128075626D01*
X122352601Y-117967895D02*
X124719960Y-118646729D01*
X118005356Y-120377619D02*
X122352601Y-117967895D01*
X116908773Y-124201862D02*
X118005356Y-120377619D01*
X99917787Y-130895706D02*
X103157068Y-131824554D01*
X103157068Y-131824554D02*
X116908773Y-124201862D01*
X129939729Y-118583035D02*
X141480849Y-121892379D01*
X141480849Y-121892379D02*
X148923094Y-135318552D01*
X153225655Y-139179051D02*
X154234973Y-139468472D01*
X155828366Y-142342994D02*
X155364690Y-143960014D01*
X154234973Y-139468472D02*
X155828366Y-142342994D01*
X159757553Y-146780103D02*
X164342611Y-148094849D01*
X164342611Y-148094849D02*
X164350246Y-148090616D01*
X178436961Y-151297670D02*
X174736105Y-150236467D01*
X181994167Y-155359856D02*
X180441946Y-154914770D01*
X180441946Y-154914770D02*
X178436961Y-151297670D01*
X186994165Y-156859865D02*
X192768905Y-156859866D01*
X192768905Y-156859866D02*
X198708296Y-150920455D01*
X198708296Y-150920455D02*
X207808294Y-150920453D01*
X220008295Y-150470459D02*
X220058292Y-150470457D01*
X219608295Y-150870452D02*
X220008295Y-150470459D01*
X221993022Y-148535724D02*
X226895998Y-148535736D01*
X220058292Y-150470457D02*
X221993022Y-148535724D01*
X231895988Y-150035733D02*
X264693032Y-150035731D01*
X264693032Y-150035731D02*
X267508299Y-147220462D01*
X267508299Y-147220462D02*
X267508297Y-144620460D01*
X267508297Y-144620460D02*
X264008293Y-141120473D01*
X264008293Y-141120473D02*
X264008287Y-137695458D01*
X266979330Y-134724430D02*
X271131037Y-134724430D01*
X264008287Y-137695458D02*
X266979330Y-134724430D01*
X276131043Y-136224436D02*
X277537257Y-136224432D01*
X277537257Y-136224432D02*
X277933297Y-136620455D01*
X275483286Y-120131906D02*
X276339016Y-119276184D01*
X276339016Y-119276184D02*
X276339013Y-116798089D01*
X275483304Y-128020466D02*
X275483286Y-120131906D01*
X278758290Y-134445465D02*
X278758297Y-131295466D01*
X278758297Y-131295466D02*
X275483304Y-128020466D01*
X271339019Y-115298088D02*
X263635921Y-115298084D01*
X263635921Y-115298084D02*
X262458295Y-114120459D01*
X238686390Y-111895459D02*
X238339011Y-111548089D01*
X242508300Y-111895470D02*
X238686390Y-111895459D01*
X233339015Y-110048086D02*
X224435912Y-110048086D01*
X224435912Y-110048086D02*
X224283298Y-109895466D01*
X199936402Y-114145463D02*
X199839031Y-114048092D01*
X202983291Y-114145464D02*
X199936402Y-114145463D01*
X15243957Y-32827166D02*
X14840952Y-33472122D01*
X14840952Y-33472122D02*
X15081592Y-34514401D01*
X15081592Y-34514401D02*
X13624307Y-36846533D01*
X12588925Y-37085572D02*
X5179742Y-48942738D01*
X13624307Y-36846533D02*
X12588925Y-37085572D01*
X5179742Y-48942738D02*
X4641594Y-49803943D01*
X4641594Y-49803943D02*
X4801108Y-50494815D01*
X4801108Y-50494815D02*
X1224140Y-56219158D01*
X533260Y-56378659D02*
X-4901987Y-65076862D01*
X1224140Y-56219158D02*
X533260Y-56378659D01*
X-855714Y-22737509D02*
X-1404444Y-23615640D01*
X-1404444Y-23615640D02*
X-1163820Y-24657946D01*
X-1163820Y-24657946D02*
X-5933081Y-32290381D01*
X-7009820Y-32538974D02*
X-10958606Y-38858372D01*
X-5933081Y-32290381D02*
X-7009820Y-32538974D01*
X-10958606Y-38858372D02*
X-11480852Y-39694120D01*
X-11480852Y-39694120D02*
X-11311794Y-40426365D01*
X-11311794Y-40426365D02*
X-14358835Y-45302643D01*
X-15022174Y-45455804D02*
X-20971434Y-54976589D01*
X-14358835Y-45302643D02*
X-15022174Y-45455804D01*
X23839971Y-54972377D02*
X23410470Y-55659730D01*
X23410470Y-55659730D02*
X23643148Y-56667545D01*
X23643148Y-56667545D02*
X17549082Y-66420112D01*
X16506803Y-66660731D02*
X13750311Y-71072039D01*
X17549082Y-66420112D02*
X16506803Y-66660731D01*
X33873995Y-38867395D02*
X33470990Y-39512373D01*
X33470990Y-39512373D02*
X33711623Y-40554641D01*
X33711623Y-40554641D02*
X27882502Y-49883178D01*
X26874669Y-50115839D02*
X23839971Y-54972377D01*
X27882502Y-49883178D02*
X26874669Y-50115839D01*
X37196241Y-69405197D02*
X31095270Y-79168796D01*
X40841827Y-63580499D02*
X41080872Y-64615889D01*
X38238544Y-69164564D02*
X37196241Y-69405197D01*
X41181245Y-63037313D02*
X40841827Y-63580499D01*
X51279934Y-46913803D02*
X50916657Y-47495142D01*
X41080872Y-64615889D02*
X38238544Y-69164564D01*
X51149326Y-48502976D02*
X43862945Y-60163629D01*
X42827541Y-60402693D02*
X41181245Y-63037313D01*
X50916657Y-47495142D02*
X51149326Y-48502976D01*
X43862945Y-60163629D02*
X42827541Y-60402693D01*
X80992858Y-71081619D02*
X80759434Y-71455192D01*
X80759434Y-71455192D02*
X80990506Y-72456140D01*
X80990506Y-72456140D02*
X77943467Y-77332397D01*
X76942533Y-77563501D02*
X70911160Y-87215729D01*
X77943467Y-77332397D02*
X76942533Y-77563501D01*
X70911160Y-87215729D02*
X70558480Y-87780099D01*
X70558480Y-87780099D02*
X70789565Y-88781064D01*
X70789565Y-88781064D02*
X65092927Y-97897581D01*
X64050660Y-98138197D02*
X60817240Y-103312759D01*
X65092927Y-97897581D02*
X64050660Y-98138197D01*
X66155482Y-59009633D02*
X65712714Y-59718190D01*
X65712714Y-59718190D02*
X65937427Y-60691579D01*
X65937427Y-60691579D02*
X60770717Y-68960031D01*
X59769762Y-69191137D02*
X56056783Y-75133142D01*
X60770717Y-68960031D02*
X59769762Y-69191137D01*
X56056783Y-75133142D02*
X55637900Y-75803526D01*
X55637900Y-75803526D02*
X55868979Y-76804491D01*
X55868979Y-76804491D02*
X52159540Y-82740832D01*
X51186158Y-82965543D02*
X46005295Y-91256669D01*
X52159540Y-82740832D02*
X51186158Y-82965543D01*
X184387101Y-102944827D02*
X184387095Y-103415528D01*
X184387095Y-103415528D02*
X184927290Y-103955722D01*
X184927290Y-103955722D02*
X184927301Y-108205712D01*
X184412089Y-108720933D02*
X184412101Y-121944847D01*
X184927301Y-108205712D02*
X184412089Y-108720933D01*
X184412101Y-121944847D02*
X184412093Y-122440506D01*
X184412093Y-122440506D02*
X185177307Y-123205731D01*
X185177307Y-123205731D02*
X185177294Y-126455726D01*
X184392107Y-127240936D02*
X184392097Y-140944839D01*
X185177294Y-126455726D02*
X184392107Y-127240936D01*
X203442117Y-126190915D02*
X203442092Y-138544829D01*
X204427314Y-125205726D02*
X203442117Y-126190915D01*
X203417091Y-119544826D02*
X203417091Y-120195493D01*
X203417091Y-120195493D02*
X204427300Y-121205717D01*
X203462097Y-101240526D02*
X204177300Y-101955734D01*
X204427300Y-121205717D02*
X204427314Y-125205726D01*
X204177305Y-107455731D02*
X206406040Y-109684443D01*
X206406031Y-116555909D02*
X203417091Y-119544826D01*
X203462100Y-100519841D02*
X203462097Y-101240526D01*
X204177300Y-101955734D02*
X204177305Y-107455731D01*
X206406040Y-109684443D02*
X206406031Y-116555909D01*
X222412075Y-98194823D02*
X222412079Y-98690521D01*
X222412079Y-98690521D02*
X223177303Y-99455696D01*
X223177303Y-99455696D02*
X223177307Y-105205715D01*
X222437081Y-105945932D02*
X222437093Y-117194828D01*
X223177307Y-105205715D02*
X222437081Y-105945932D01*
X222437093Y-117194828D02*
X222437094Y-117715505D01*
X222437094Y-117715505D02*
X223177309Y-118455721D01*
X223177309Y-118455721D02*
X223177311Y-122955716D01*
X222412095Y-123720932D02*
X222412102Y-136144837D01*
X223177311Y-122955716D02*
X222412095Y-123720932D01*
X241442092Y-128440933D02*
X241442102Y-138544820D01*
X242177299Y-120955716D02*
X242177313Y-127705721D01*
X241417095Y-119569834D02*
X241417106Y-120195510D01*
X243731035Y-117255900D02*
X241417095Y-119569834D01*
X241417092Y-101195510D02*
X242177301Y-101955735D01*
X242177313Y-127705721D02*
X241442092Y-128440933D01*
X242177315Y-106178145D02*
X243731028Y-107731867D01*
X241417106Y-120195510D02*
X242177299Y-120955716D01*
X241417099Y-100544838D02*
X241417092Y-101195510D01*
X242177301Y-101955735D02*
X242177315Y-106178145D01*
X243731028Y-107731867D02*
X243731035Y-117255900D01*
X260412094Y-105319841D02*
X260412093Y-106190512D01*
X260412093Y-106190512D02*
X261177292Y-106955717D01*
X261177292Y-106955717D02*
X261177300Y-113955728D01*
X260417101Y-114715918D02*
X260417097Y-124319834D01*
X261177300Y-113955728D02*
X260417101Y-114715918D01*
X260417097Y-124319834D02*
X260417117Y-124945508D01*
X260417117Y-124945508D02*
X261177297Y-125705727D01*
X261177297Y-125705727D02*
X261177303Y-129955718D01*
X260442084Y-130690934D02*
X260442091Y-143294824D01*
X261177303Y-129955718D02*
X260442084Y-130690934D01*
X282906036Y-133184439D02*
X282906026Y-139825902D01*
X280177303Y-125705728D02*
X280177300Y-130455738D01*
X282906026Y-139825902D02*
X279437093Y-143294834D01*
X279417095Y-124945521D02*
X280177303Y-125705728D01*
X280177300Y-130455738D02*
X282906036Y-133184439D01*
X281356037Y-122380899D02*
X279417099Y-124319838D01*
X279467092Y-106245506D02*
X280631021Y-107409456D01*
X279467098Y-105294833D02*
X279467092Y-106245506D01*
X280631021Y-107409456D02*
X280631031Y-114001994D01*
X280631031Y-114001994D02*
X281356036Y-114727004D01*
X281356036Y-114727004D02*
X281356037Y-122380899D01*
X173902311Y-160963771D02*
X173791787Y-161074298D01*
X173791787Y-161074298D02*
X173791779Y-162665268D01*
X173902304Y-124373660D02*
X173902311Y-160963771D01*
X171797311Y-121425719D02*
X171797305Y-122268640D01*
X171797305Y-122268640D02*
X173902304Y-124373660D01*
X168677306Y-132705733D02*
X167677308Y-133705723D01*
X169646119Y-131736899D02*
X168677306Y-132705733D01*
X170665934Y-98565739D02*
X167559301Y-101672358D01*
X169646123Y-123542458D02*
X169646119Y-131736899D01*
X171797307Y-98565733D02*
X170665934Y-98565739D01*
X167559303Y-121455630D02*
X169646123Y-123542458D01*
X167559301Y-101672358D02*
X167559303Y-121455630D01*
X156557297Y-106185729D02*
X158771124Y-108399541D01*
X158771124Y-108399541D02*
X158771115Y-127567470D01*
X158771115Y-127567470D02*
X159471107Y-128267468D01*
X161861135Y-128267477D02*
X163021132Y-127107460D01*
X163021132Y-127107460D02*
X163021111Y-125842469D01*
X159471107Y-128267468D02*
X161861135Y-128267477D01*
X160481128Y-124577466D02*
X160481134Y-125842475D01*
X160481121Y-106438163D02*
X160481128Y-124577466D01*
X157688684Y-103645727D02*
X160481121Y-106438163D01*
X156557311Y-103645727D02*
X157688684Y-103645727D01*
X119550682Y-102192031D02*
X119555452Y-102212701D01*
X123723115Y-93939050D02*
X123988750Y-95089618D01*
X123988750Y-95089618D02*
X119550682Y-102192031D01*
X123723115Y-93939050D02*
X125448886Y-95017429D01*
X117356495Y-100672201D02*
X117401419Y-100866721D01*
X120463370Y-95700161D02*
X117356495Y-100672201D01*
X158321110Y-115793117D02*
X158321106Y-122034730D01*
X157992313Y-115199929D02*
X158321110Y-115793117D01*
X158321106Y-122034730D02*
X157681464Y-124265432D01*
X157681464Y-124265432D02*
X154749609Y-123424746D01*
X149640868Y-96720444D02*
X149852836Y-96381217D01*
X149852836Y-96381217D02*
X151506401Y-95999464D01*
X143979286Y-99106678D02*
X145001998Y-97470009D01*
X130989612Y-98479639D02*
X134528131Y-100690745D01*
X141974929Y-98971534D02*
X142673626Y-99408123D01*
X128459477Y-96898632D02*
X130989612Y-98479639D01*
X134528131Y-100690745D02*
X141974929Y-98971534D01*
X142673626Y-99408123D02*
X143979286Y-99106678D01*
X112602939Y-79767908D02*
X112549942Y-79852718D01*
X105939140Y-82430662D02*
X105189719Y-83629984D01*
X107059883Y-80637099D02*
X105939140Y-82430662D01*
X112123207Y-79468138D02*
X107059883Y-80637099D01*
X112602939Y-79767908D02*
X112123207Y-79468138D01*
X150369368Y-102062697D02*
X149696683Y-101642359D01*
X149696683Y-101642359D02*
X148517759Y-101914530D01*
X145053415Y-97502143D02*
X145001998Y-97470009D01*
X148341071Y-96743129D02*
X145053415Y-97502143D01*
M02*
