M48
; DRILL file {KiCad (5.1.5)-3} date 08/11/2020 14:52:44
; FORMAT={-:-/ absolute / inch / decimal}
; #@! TF.CreationDate,2020-11-08T14:52:44+01:00
; #@! TF.GenerationSoftware,Kicad,Pcbnew,(5.1.5)-3
; #@! TF.FileFunction,NonPlated,1,2,NPTH
FMAT,2
INCH
T1C0.0689
T2C0.1378
T3C0.1570
%
G90
G05
T1
X0.9903Y-4.1065
X1.3295Y-4.3184
X0.8432Y-2.2226
X1.1824Y-2.4345
X8.7064Y-3.9659
X9.1064Y-3.9659
X7.9603Y-4.0575
X8.3603Y-4.0575
X2.1116Y-3.0163
X2.4508Y-3.2283
X10.9507Y-4.9945
X11.3507Y-4.9945
X10.2036Y-5.7415
X10.6036Y-5.7415
X0.446Y-2.8564
X0.7852Y-3.0684
X1.9235Y-1.9053
X2.2627Y-2.1173
X3.0933Y-2.8568
X3.4325Y-3.0688
X7.9595Y-5.5545
X8.3595Y-5.5545
X9.4546Y-4.0585
X9.8546Y-4.0585
X10.9515Y-5.7415
X11.3515Y-5.7415
X8.3353Y-6.3272
X8.7353Y-6.3272
X-0.5268Y-1.5882
X-0.1876Y-1.8001
X2.6964Y-3.492
X3.0356Y-3.704
X8.7074Y-4.714
X9.1074Y-4.714
X1.7158Y-3.6511
X2.0551Y-3.8631
X7.5124Y-6.4892
X7.8988Y-6.3856
X10.9526Y-4.2455
X11.3526Y-4.2455
X0.5048Y-1.3507
X0.844Y-1.5627
X-0.1291Y-0.9535
X0.2101Y-1.1655
X2.299Y-4.1257
X2.6382Y-4.3377
X8.7064Y-5.46
X9.1064Y-5.46
X7.9585Y-4.8065
X8.3585Y-4.8065
X2.2881Y-5.4258
X2.6413Y-5.238
X6.7306Y-6.4108
X6.9306Y-6.7573
X0.1085Y-1.9852
X0.4478Y-2.1972
X7.2093Y-4.1529
X7.6093Y-4.1529
X1.5259Y-2.5401
X1.8651Y-2.7521
X9.4556Y-5.5545
X9.8556Y-5.5545
X9.4546Y-4.8075
X9.8546Y-4.8075
X1.2382Y-1.5885
X1.5774Y-1.8005
X-0.921Y-2.2227
X-0.5818Y-2.4347
X7.2103Y-4.901
X7.6103Y-4.901
X1.1288Y-3.1752
X1.468Y-3.3872
X10.2024Y-4.2465
X10.6024Y-4.2465
X1.6662Y-4.5978
X1.939Y-4.8903
X-0.2884Y-2.6204
X0.0508Y-2.8324
X7.2095Y-5.649
X7.6095Y-5.649
X2.5092Y-2.3815
X2.8484Y-2.5935
X10.2026Y-4.9945
X10.6026Y-4.9945
T2
X4.3593Y-4.5804
T3
X11.1515Y-5.7415
X8.5353Y-6.3272
X-0.3572Y-1.6941
X2.866Y-3.598
X8.9074Y-4.714
X1.8854Y-3.7571
X7.7056Y-6.4374
X11.1526Y-4.2455
X0.6744Y-1.4567
X0.0405Y-1.0595
X2.4686Y-4.2317
X8.9064Y-5.46
X8.1585Y-4.8065
X2.4647Y-5.3319
X6.8306Y-6.584
X0.2781Y-2.0912
X7.4093Y-4.1529
X1.6955Y-2.6461
X9.6556Y-5.5545
X9.6546Y-4.8075
X1.4078Y-1.6945
X-0.7514Y-2.3287
X7.4103Y-4.901
X1.2984Y-3.2812
X10.4024Y-4.2465
X1.8026Y-4.744
X-0.1188Y-2.7264
X7.4095Y-5.649
X2.6788Y-2.4875
X10.4026Y-4.9945
X1.1599Y-4.2124
X1.0128Y-2.3286
X8.9064Y-3.9659
X8.1603Y-4.0575
X2.2812Y-3.1223
X11.1507Y-4.9945
X10.4036Y-5.7415
X0.6156Y-2.9624
X2.0931Y-2.0113
X3.2629Y-2.9628
X8.1595Y-5.5545
X9.6546Y-4.0585
T0
M30
