G04 #@! TF.GenerationSoftware,KiCad,Pcbnew,(5.1.5)-3*
G04 #@! TF.CreationDate,2020-10-24T16:29:20+02:00*
G04 #@! TF.ProjectId,aegis,61656769-732e-46b6-9963-61645f706362,rev?*
G04 #@! TF.SameCoordinates,Original*
G04 #@! TF.FileFunction,Copper,L1,Top*
G04 #@! TF.FilePolarity,Positive*
%FSLAX46Y46*%
G04 Gerber Fmt 4.6, Leading zero omitted, Abs format (unit mm)*
G04 Created by KiCad (PCBNEW (5.1.5)-3) date 2020-10-24 16:29:20*
%MOMM*%
%LPD*%
G04 APERTURE LIST*
%ADD10C,0.100000*%
%ADD11C,2.000000*%
%ADD12O,1.730000X2.030000*%
%ADD13R,1.730000X2.030000*%
%ADD14C,1.730000*%
%ADD15C,1.000000*%
%ADD16C,1.397000*%
%ADD17R,0.950000X1.300000*%
%ADD18R,1.397000X1.397000*%
%ADD19C,1.905000*%
%ADD20C,1.400000*%
%ADD21C,1.400000*%
%ADD22C,1.600000*%
%ADD23R,1.600000X1.600000*%
%ADD24C,2.250000*%
%ADD25C,0.800000*%
%ADD26C,0.250000*%
G04 APERTURE END LIST*
D10*
G36*
X152289526Y-126792242D02*
G01*
X149670968Y-135924233D01*
X122185782Y-128016969D01*
X124790552Y-118933044D01*
X152289526Y-126792242D01*
G37*
X152289526Y-126792242D02*
X149670968Y-135924233D01*
X122185782Y-128016969D01*
X124790552Y-118933044D01*
X152289526Y-126792242D01*
D11*
X180880812Y-128648109D03*
X174380812Y-128648109D03*
D12*
X181304623Y-120784859D03*
X178764623Y-120784859D03*
X176224623Y-120784859D03*
D13*
X173684623Y-120784859D03*
D14*
X151910338Y-100823498D02*
X151658736Y-100660106D01*
X150526955Y-102953721D02*
X150275353Y-102790329D01*
G04 #@! TA.AperFunction,ComponentPad*
D10*
G36*
X150340134Y-104829607D02*
G01*
X149397909Y-106280507D01*
X147695408Y-105174889D01*
X148637633Y-103723989D01*
X150340134Y-104829607D01*
G37*
G04 #@! TD.AperFunction*
D15*
X120236459Y-80445568D02*
X120236459Y-80445568D01*
G04 #@! TA.AperFunction,ComponentPad*
D10*
G36*
X121154416Y-80429581D02*
G01*
X122002464Y-80959501D01*
X121472544Y-81807549D01*
X120624496Y-81277629D01*
X121154416Y-80429581D01*
G37*
G04 #@! TD.AperFunction*
G04 #@! TA.AperFunction,SMDPad,CuDef*
G36*
X75957651Y-49364829D02*
G01*
X75152006Y-48861406D01*
X75840901Y-47758943D01*
X76646546Y-48262366D01*
X75957651Y-49364829D01*
G37*
G04 #@! TD.AperFunction*
D16*
X76977661Y-46836108D03*
G04 #@! TA.AperFunction,ComponentPad*
D10*
G36*
X73161890Y-54260744D02*
G01*
X71977167Y-53520447D01*
X72717464Y-52335724D01*
X73902187Y-53076021D01*
X73161890Y-54260744D01*
G37*
G04 #@! TD.AperFunction*
G04 #@! TA.AperFunction,SMDPad,CuDef*
G36*
X74076437Y-52375399D02*
G01*
X73270792Y-51871976D01*
X73959687Y-50769513D01*
X74765332Y-51272936D01*
X74076437Y-52375399D01*
G37*
G04 #@! TD.AperFunction*
G04 #@! TA.AperFunction,SMDPad,CuDef*
G36*
X105798846Y-73317983D02*
G01*
X104993201Y-72814560D01*
X105682096Y-71712097D01*
X106487741Y-72215520D01*
X105798846Y-73317983D01*
G37*
G04 #@! TD.AperFunction*
D16*
X106818856Y-70789262D03*
G04 #@! TA.AperFunction,ComponentPad*
D10*
G36*
X103003085Y-78213898D02*
G01*
X101818362Y-77473601D01*
X102558659Y-76288878D01*
X103743382Y-77029175D01*
X103003085Y-78213898D01*
G37*
G04 #@! TD.AperFunction*
G04 #@! TA.AperFunction,SMDPad,CuDef*
G36*
X103917632Y-76328553D02*
G01*
X103111987Y-75825130D01*
X103800882Y-74722667D01*
X104606527Y-75226090D01*
X103917632Y-76328553D01*
G37*
G04 #@! TD.AperFunction*
G04 #@! TA.AperFunction,SMDPad,CuDef*
G36*
X90745766Y-61553424D02*
G01*
X89940121Y-61050001D01*
X90629016Y-59947538D01*
X91434661Y-60450961D01*
X90745766Y-61553424D01*
G37*
G04 #@! TD.AperFunction*
D16*
X91765776Y-59024703D03*
G04 #@! TA.AperFunction,ComponentPad*
D10*
G36*
X87950005Y-66449339D02*
G01*
X86765282Y-65709042D01*
X87505579Y-64524319D01*
X88690302Y-65264616D01*
X87950005Y-66449339D01*
G37*
G04 #@! TD.AperFunction*
G04 #@! TA.AperFunction,SMDPad,CuDef*
G36*
X88864552Y-64563994D02*
G01*
X88058907Y-64060571D01*
X88747802Y-62958108D01*
X89553447Y-63461531D01*
X88864552Y-64563994D01*
G37*
G04 #@! TD.AperFunction*
G04 #@! TA.AperFunction,SMDPad,CuDef*
G36*
X139455351Y-89901436D02*
G01*
X138951928Y-90707081D01*
X137849465Y-90018186D01*
X138352888Y-89212541D01*
X139455351Y-89901436D01*
G37*
G04 #@! TD.AperFunction*
D16*
X136926630Y-88881426D03*
G04 #@! TA.AperFunction,ComponentPad*
D10*
G36*
X144351266Y-92697197D02*
G01*
X143610969Y-93881920D01*
X142426246Y-93141623D01*
X143166543Y-91956900D01*
X144351266Y-92697197D01*
G37*
G04 #@! TD.AperFunction*
G04 #@! TA.AperFunction,SMDPad,CuDef*
G36*
X142465921Y-91782650D02*
G01*
X141962498Y-92588295D01*
X140860035Y-91899400D01*
X141363458Y-91093755D01*
X142465921Y-91782650D01*
G37*
G04 #@! TD.AperFunction*
D17*
X239630805Y-152873111D03*
D16*
X239630805Y-150838111D03*
D18*
X239630805Y-158458111D03*
D17*
X239630805Y-156423111D03*
G04 #@! TA.AperFunction,SMDPad,CuDef*
D10*
G36*
X218048461Y-153688515D02*
G01*
X217130832Y-153934393D01*
X216794367Y-152678689D01*
X217711996Y-152432811D01*
X218048461Y-153688515D01*
G37*
G04 #@! TD.AperFunction*
D16*
X216894717Y-151217943D03*
G04 #@! TA.AperFunction,ComponentPad*
D10*
G36*
X219722403Y-159072211D02*
G01*
X218373005Y-159433781D01*
X218011435Y-158084383D01*
X219360833Y-157722813D01*
X219722403Y-159072211D01*
G37*
G04 #@! TD.AperFunction*
G04 #@! TA.AperFunction,SMDPad,CuDef*
G36*
X218967269Y-157117551D02*
G01*
X218049640Y-157363429D01*
X217713175Y-156107725D01*
X218630804Y-155861847D01*
X218967269Y-157117551D01*
G37*
G04 #@! TD.AperFunction*
G04 #@! TA.AperFunction,SMDPad,CuDef*
G36*
X193339748Y-169975831D02*
G01*
X192850462Y-169161522D01*
X193964780Y-168491973D01*
X194454066Y-169306282D01*
X193339748Y-169975831D01*
G37*
G04 #@! TD.AperFunction*
D16*
X195396599Y-168185800D03*
G04 #@! TA.AperFunction,ComponentPad*
D10*
G36*
X188626008Y-173068875D02*
G01*
X187906500Y-171871413D01*
X189103962Y-171151905D01*
X189823470Y-172349367D01*
X188626008Y-173068875D01*
G37*
G04 #@! TD.AperFunction*
G04 #@! TA.AperFunction,SMDPad,CuDef*
G36*
X190296804Y-171804217D02*
G01*
X189807518Y-170989908D01*
X190921836Y-170320359D01*
X191411122Y-171134668D01*
X190296804Y-171804217D01*
G37*
G04 #@! TD.AperFunction*
G04 #@! TA.AperFunction,SMDPad,CuDef*
G36*
X83575407Y-123579902D02*
G01*
X82736606Y-124025900D01*
X82126293Y-122878068D01*
X82965094Y-122432070D01*
X83575407Y-123579902D01*
G37*
G04 #@! TD.AperFunction*
D16*
X81895475Y-121432187D03*
G04 #@! TA.AperFunction,ComponentPad*
D10*
G36*
X86417514Y-128449060D02*
G01*
X85184036Y-129104912D01*
X84528184Y-127871434D01*
X85761662Y-127215582D01*
X86417514Y-128449060D01*
G37*
G04 #@! TD.AperFunction*
G04 #@! TA.AperFunction,SMDPad,CuDef*
G36*
X85242031Y-126714366D02*
G01*
X84403230Y-127160364D01*
X83792917Y-126012532D01*
X84631718Y-125566534D01*
X85242031Y-126714366D01*
G37*
G04 #@! TD.AperFunction*
G04 #@! TA.AperFunction,SMDPad,CuDef*
G36*
X67393633Y-121144994D02*
G01*
X66745735Y-120450208D01*
X67696495Y-119563610D01*
X68344393Y-120258396D01*
X67393633Y-121144994D01*
G37*
G04 #@! TD.AperFunction*
D16*
X69033369Y-118966435D03*
G04 #@! TA.AperFunction,ComponentPad*
D10*
G36*
X63425978Y-125150489D02*
G01*
X62473227Y-124128788D01*
X63494928Y-123176037D01*
X64447679Y-124197738D01*
X63425978Y-125150489D01*
G37*
G04 #@! TD.AperFunction*
G04 #@! TA.AperFunction,SMDPad,CuDef*
G36*
X64797327Y-123566088D02*
G01*
X64149429Y-122871302D01*
X65100189Y-121984704D01*
X65748087Y-122679490D01*
X64797327Y-123566088D01*
G37*
G04 #@! TD.AperFunction*
G04 #@! TA.AperFunction,SMDPad,CuDef*
G36*
X52616393Y-104645910D02*
G01*
X51810748Y-104142487D01*
X52499643Y-103040024D01*
X53305288Y-103543447D01*
X52616393Y-104645910D01*
G37*
G04 #@! TD.AperFunction*
D16*
X53636403Y-102117189D03*
G04 #@! TA.AperFunction,ComponentPad*
D10*
G36*
X49820632Y-109541825D02*
G01*
X48635909Y-108801528D01*
X49376206Y-107616805D01*
X50560929Y-108357102D01*
X49820632Y-109541825D01*
G37*
G04 #@! TD.AperFunction*
G04 #@! TA.AperFunction,SMDPad,CuDef*
G36*
X50735179Y-107656480D02*
G01*
X49929534Y-107153057D01*
X50618429Y-106050594D01*
X51424074Y-106554017D01*
X50735179Y-107656480D01*
G37*
G04 #@! TD.AperFunction*
D17*
X303880807Y-139123111D03*
D16*
X303880807Y-137088111D03*
D18*
X303880807Y-144708111D03*
D17*
X303880807Y-142673111D03*
X303880797Y-120373106D03*
D16*
X303880797Y-118338106D03*
D18*
X303880797Y-125958106D03*
D17*
X303880797Y-123923106D03*
X303880787Y-101123093D03*
D16*
X303880787Y-99088093D03*
D18*
X303880787Y-106708093D03*
D17*
X303880787Y-104673093D03*
X286880798Y-138123125D03*
D16*
X286880798Y-136088125D03*
D18*
X286880798Y-143708125D03*
D17*
X286880798Y-141673125D03*
X286880795Y-119123108D03*
D16*
X286880795Y-117088108D03*
D18*
X286880795Y-124708108D03*
D17*
X286880795Y-122673108D03*
X286880808Y-99873119D03*
D16*
X286880808Y-97838119D03*
D18*
X286880808Y-105458119D03*
D17*
X286880808Y-103423119D03*
X267880794Y-133623117D03*
D16*
X267880794Y-131588117D03*
D18*
X267880794Y-139208117D03*
D17*
X267880794Y-137173117D03*
X267880795Y-114373109D03*
D16*
X267880795Y-112338109D03*
D18*
X267880795Y-119958109D03*
D17*
X267880795Y-117923109D03*
X267880817Y-97873100D03*
D16*
X267880817Y-95838100D03*
D18*
X267880817Y-103458100D03*
D17*
X267880817Y-101423100D03*
X248880789Y-130873113D03*
D16*
X248880789Y-128838113D03*
D18*
X248880789Y-136458113D03*
D17*
X248880789Y-134423113D03*
X248880785Y-112123105D03*
D16*
X248880785Y-110088105D03*
D18*
X248880785Y-117708105D03*
D17*
X248880785Y-115673105D03*
X248880801Y-93123100D03*
D16*
X248880801Y-91088100D03*
D18*
X248880801Y-98708100D03*
D17*
X248880801Y-96673100D03*
X229880805Y-133123097D03*
D16*
X229880805Y-131088097D03*
D18*
X229880805Y-138708097D03*
D17*
X229880805Y-136673097D03*
X229880800Y-114373110D03*
D16*
X229880800Y-112338110D03*
D18*
X229880800Y-119958110D03*
D17*
X229880800Y-117923110D03*
X229880802Y-95373108D03*
D16*
X229880802Y-93338108D03*
D18*
X229880802Y-100958108D03*
D17*
X229880802Y-98923108D03*
X210880815Y-135873108D03*
D16*
X210880815Y-133838108D03*
D18*
X210880815Y-141458108D03*
D17*
X210880815Y-139423108D03*
X210880800Y-116873105D03*
D16*
X210880800Y-114838105D03*
D18*
X210880800Y-122458105D03*
D17*
X210880800Y-120423105D03*
X210880791Y-97873111D03*
D16*
X210880791Y-95838111D03*
D18*
X210880791Y-103458111D03*
D17*
X210880791Y-101423111D03*
G04 #@! TA.AperFunction,SMDPad,CuDef*
D10*
G36*
X85264491Y-106179860D02*
G01*
X84458846Y-105676437D01*
X85147741Y-104573974D01*
X85953386Y-105077397D01*
X85264491Y-106179860D01*
G37*
G04 #@! TD.AperFunction*
D16*
X86284501Y-103651139D03*
G04 #@! TA.AperFunction,ComponentPad*
D10*
G36*
X82468730Y-111075775D02*
G01*
X81284007Y-110335478D01*
X82024304Y-109150755D01*
X83209027Y-109891052D01*
X82468730Y-111075775D01*
G37*
G04 #@! TD.AperFunction*
G04 #@! TA.AperFunction,SMDPad,CuDef*
G36*
X83383277Y-109190430D02*
G01*
X82577632Y-108687007D01*
X83266527Y-107584544D01*
X84072172Y-108087967D01*
X83383277Y-109190430D01*
G37*
G04 #@! TD.AperFunction*
G04 #@! TA.AperFunction,SMDPad,CuDef*
G36*
X95332923Y-90066937D02*
G01*
X94527278Y-89563514D01*
X95216173Y-88461051D01*
X96021818Y-88964474D01*
X95332923Y-90066937D01*
G37*
G04 #@! TD.AperFunction*
D16*
X96352933Y-87538216D03*
G04 #@! TA.AperFunction,ComponentPad*
D10*
G36*
X92537162Y-94962852D02*
G01*
X91352439Y-94222555D01*
X92092736Y-93037832D01*
X93277459Y-93778129D01*
X92537162Y-94962852D01*
G37*
G04 #@! TD.AperFunction*
G04 #@! TA.AperFunction,SMDPad,CuDef*
G36*
X93451709Y-93077507D02*
G01*
X92646064Y-92574084D01*
X93334959Y-91471621D01*
X94140604Y-91975044D01*
X93451709Y-93077507D01*
G37*
G04 #@! TD.AperFunction*
G04 #@! TA.AperFunction,SMDPad,CuDef*
G36*
X70608832Y-93779237D02*
G01*
X69803187Y-93275814D01*
X70492082Y-92173351D01*
X71297727Y-92676774D01*
X70608832Y-93779237D01*
G37*
G04 #@! TD.AperFunction*
D16*
X71628842Y-91250516D03*
G04 #@! TA.AperFunction,ComponentPad*
D10*
G36*
X67813071Y-98675152D02*
G01*
X66628348Y-97934855D01*
X67368645Y-96750132D01*
X68553368Y-97490429D01*
X67813071Y-98675152D01*
G37*
G04 #@! TD.AperFunction*
G04 #@! TA.AperFunction,SMDPad,CuDef*
G36*
X68727618Y-96789807D02*
G01*
X67921973Y-96286384D01*
X68610868Y-95183921D01*
X69416513Y-95687344D01*
X68727618Y-96789807D01*
G37*
G04 #@! TD.AperFunction*
G04 #@! TA.AperFunction,SMDPad,CuDef*
G36*
X80544826Y-77878344D02*
G01*
X79739181Y-77374921D01*
X80428076Y-76272458D01*
X81233721Y-76775881D01*
X80544826Y-77878344D01*
G37*
G04 #@! TD.AperFunction*
D16*
X81564836Y-75349623D03*
G04 #@! TA.AperFunction,ComponentPad*
D10*
G36*
X77749065Y-82774259D02*
G01*
X76564342Y-82033962D01*
X77304639Y-80849239D01*
X78489362Y-81589536D01*
X77749065Y-82774259D01*
G37*
G04 #@! TD.AperFunction*
G04 #@! TA.AperFunction,SMDPad,CuDef*
G36*
X78663612Y-80888914D02*
G01*
X77857967Y-80385491D01*
X78546862Y-79283028D01*
X79352507Y-79786451D01*
X78663612Y-80888914D01*
G37*
G04 #@! TD.AperFunction*
G04 #@! TA.AperFunction,SMDPad,CuDef*
G36*
X55688241Y-81802662D02*
G01*
X54882596Y-81299239D01*
X55571491Y-80196776D01*
X56377136Y-80700199D01*
X55688241Y-81802662D01*
G37*
G04 #@! TD.AperFunction*
D16*
X56708251Y-79273941D03*
G04 #@! TA.AperFunction,ComponentPad*
D10*
G36*
X52892480Y-86698577D02*
G01*
X51707757Y-85958280D01*
X52448054Y-84773557D01*
X53632777Y-85513854D01*
X52892480Y-86698577D01*
G37*
G04 #@! TD.AperFunction*
G04 #@! TA.AperFunction,SMDPad,CuDef*
G36*
X53807027Y-84813232D02*
G01*
X53001382Y-84309809D01*
X53690277Y-83207346D01*
X54495922Y-83710769D01*
X53807027Y-84813232D01*
G37*
G04 #@! TD.AperFunction*
G04 #@! TA.AperFunction,SMDPad,CuDef*
G36*
X65756698Y-65689760D02*
G01*
X64951053Y-65186337D01*
X65639948Y-64083874D01*
X66445593Y-64587297D01*
X65756698Y-65689760D01*
G37*
G04 #@! TD.AperFunction*
D16*
X66776708Y-63161039D03*
G04 #@! TA.AperFunction,ComponentPad*
D10*
G36*
X62960937Y-70585675D02*
G01*
X61776214Y-69845378D01*
X62516511Y-68660655D01*
X63701234Y-69400952D01*
X62960937Y-70585675D01*
G37*
G04 #@! TD.AperFunction*
G04 #@! TA.AperFunction,SMDPad,CuDef*
G36*
X63875484Y-68700330D02*
G01*
X63069839Y-68196907D01*
X63758734Y-67094444D01*
X64564379Y-67597867D01*
X63875484Y-68700330D01*
G37*
G04 #@! TD.AperFunction*
G04 #@! TA.AperFunction,SMDPad,CuDef*
G36*
X38383005Y-73642328D02*
G01*
X37577360Y-73138905D01*
X38266255Y-72036442D01*
X39071900Y-72539865D01*
X38383005Y-73642328D01*
G37*
G04 #@! TD.AperFunction*
D16*
X39403015Y-71113607D03*
G04 #@! TA.AperFunction,ComponentPad*
D10*
G36*
X35587244Y-78538243D02*
G01*
X34402521Y-77797946D01*
X35142818Y-76613223D01*
X36327541Y-77353520D01*
X35587244Y-78538243D01*
G37*
G04 #@! TD.AperFunction*
G04 #@! TA.AperFunction,SMDPad,CuDef*
G36*
X36501791Y-76652898D02*
G01*
X35696146Y-76149475D01*
X36385041Y-75047012D01*
X37190686Y-75550435D01*
X36501791Y-76652898D01*
G37*
G04 #@! TD.AperFunction*
G04 #@! TA.AperFunction,SMDPad,CuDef*
G36*
X48451467Y-57529394D02*
G01*
X47645822Y-57025971D01*
X48334717Y-55923508D01*
X49140362Y-56426931D01*
X48451467Y-57529394D01*
G37*
G04 #@! TD.AperFunction*
D16*
X49471477Y-55000673D03*
G04 #@! TA.AperFunction,ComponentPad*
D10*
G36*
X45655706Y-62425309D02*
G01*
X44470983Y-61685012D01*
X45211280Y-60500289D01*
X46396003Y-61240586D01*
X45655706Y-62425309D01*
G37*
G04 #@! TD.AperFunction*
G04 #@! TA.AperFunction,SMDPad,CuDef*
G36*
X46570253Y-60539964D02*
G01*
X45764608Y-60036541D01*
X46453503Y-58934078D01*
X47259148Y-59437501D01*
X46570253Y-60539964D01*
G37*
G04 #@! TD.AperFunction*
G04 #@! TA.AperFunction,SMDPad,CuDef*
G36*
X58652422Y-41204485D02*
G01*
X57846777Y-40701062D01*
X58535672Y-39598599D01*
X59341317Y-40102022D01*
X58652422Y-41204485D01*
G37*
G04 #@! TD.AperFunction*
D16*
X59672432Y-38675764D03*
G04 #@! TA.AperFunction,ComponentPad*
D10*
G36*
X55856661Y-46100400D02*
G01*
X54671938Y-45360103D01*
X55412235Y-44175380D01*
X56596958Y-44915677D01*
X55856661Y-46100400D01*
G37*
G04 #@! TD.AperFunction*
G04 #@! TA.AperFunction,SMDPad,CuDef*
G36*
X56771208Y-44215055D02*
G01*
X55965563Y-43711632D01*
X56654458Y-42609169D01*
X57460103Y-43112592D01*
X56771208Y-44215055D01*
G37*
G04 #@! TD.AperFunction*
G04 #@! TA.AperFunction,SMDPad,CuDef*
G36*
X19885455Y-67390076D02*
G01*
X19079810Y-66886653D01*
X19768705Y-65784190D01*
X20574350Y-66287613D01*
X19885455Y-67390076D01*
G37*
G04 #@! TD.AperFunction*
D16*
X20905465Y-64861355D03*
G04 #@! TA.AperFunction,ComponentPad*
D10*
G36*
X17089694Y-72285991D02*
G01*
X15904971Y-71545694D01*
X16645268Y-70360971D01*
X17829991Y-71101268D01*
X17089694Y-72285991D01*
G37*
G04 #@! TD.AperFunction*
G04 #@! TA.AperFunction,SMDPad,CuDef*
G36*
X18004241Y-70400646D02*
G01*
X17198596Y-69897223D01*
X17887491Y-68794760D01*
X18693136Y-69298183D01*
X18004241Y-70400646D01*
G37*
G04 #@! TD.AperFunction*
G04 #@! TA.AperFunction,SMDPad,CuDef*
G36*
X29953934Y-51277157D02*
G01*
X29148289Y-50773734D01*
X29837184Y-49671271D01*
X30642829Y-50174694D01*
X29953934Y-51277157D01*
G37*
G04 #@! TD.AperFunction*
D16*
X30973944Y-48748436D03*
G04 #@! TA.AperFunction,ComponentPad*
D10*
G36*
X27158173Y-56173072D02*
G01*
X25973450Y-55432775D01*
X26713747Y-54248052D01*
X27898470Y-54988349D01*
X27158173Y-56173072D01*
G37*
G04 #@! TD.AperFunction*
G04 #@! TA.AperFunction,SMDPad,CuDef*
G36*
X28072720Y-54287727D02*
G01*
X27267075Y-53784304D01*
X27955970Y-52681841D01*
X28761615Y-53185264D01*
X28072720Y-54287727D01*
G37*
G04 #@! TD.AperFunction*
G04 #@! TA.AperFunction,SMDPad,CuDef*
G36*
X40022387Y-35164245D02*
G01*
X39216742Y-34660822D01*
X39905637Y-33558359D01*
X40711282Y-34061782D01*
X40022387Y-35164245D01*
G37*
G04 #@! TD.AperFunction*
D16*
X41042397Y-32635524D03*
G04 #@! TA.AperFunction,ComponentPad*
D10*
G36*
X37226626Y-40060160D02*
G01*
X36041903Y-39319863D01*
X36782200Y-38135140D01*
X37966923Y-38875437D01*
X37226626Y-40060160D01*
G37*
G04 #@! TD.AperFunction*
G04 #@! TA.AperFunction,SMDPad,CuDef*
G36*
X38141173Y-38174815D02*
G01*
X37335528Y-37671392D01*
X38024423Y-36568929D01*
X38830068Y-37072352D01*
X38141173Y-38174815D01*
G37*
G04 #@! TD.AperFunction*
G04 #@! TA.AperFunction,SMDPad,CuDef*
G36*
X3626807Y-57554791D02*
G01*
X2821162Y-57051368D01*
X3510057Y-55948905D01*
X4315702Y-56452328D01*
X3626807Y-57554791D01*
G37*
G04 #@! TD.AperFunction*
D16*
X4646817Y-55026070D03*
G04 #@! TA.AperFunction,ComponentPad*
D10*
G36*
X831046Y-62450706D02*
G01*
X-353677Y-61710409D01*
X386620Y-60525686D01*
X1571343Y-61265983D01*
X831046Y-62450706D01*
G37*
G04 #@! TD.AperFunction*
G04 #@! TA.AperFunction,SMDPad,CuDef*
G36*
X1745593Y-60565361D02*
G01*
X939948Y-60061938D01*
X1628843Y-58959475D01*
X2434488Y-59462898D01*
X1745593Y-60565361D01*
G37*
G04 #@! TD.AperFunction*
G04 #@! TA.AperFunction,SMDPad,CuDef*
G36*
X13695286Y-41441906D02*
G01*
X12889641Y-40938483D01*
X13578536Y-39836020D01*
X14384181Y-40339443D01*
X13695286Y-41441906D01*
G37*
G04 #@! TD.AperFunction*
D16*
X14715296Y-38913185D03*
G04 #@! TA.AperFunction,ComponentPad*
D10*
G36*
X10899525Y-46337821D02*
G01*
X9714802Y-45597524D01*
X10455099Y-44412801D01*
X11639822Y-45153098D01*
X10899525Y-46337821D01*
G37*
G04 #@! TD.AperFunction*
G04 #@! TA.AperFunction,SMDPad,CuDef*
G36*
X11814072Y-44452476D02*
G01*
X11008427Y-43949053D01*
X11697322Y-42846590D01*
X12502967Y-43350013D01*
X11814072Y-44452476D01*
G37*
G04 #@! TD.AperFunction*
G04 #@! TA.AperFunction,SMDPad,CuDef*
G36*
X23938622Y-25143470D02*
G01*
X23132977Y-24640047D01*
X23821872Y-23537584D01*
X24627517Y-24041007D01*
X23938622Y-25143470D01*
G37*
G04 #@! TD.AperFunction*
D16*
X24958632Y-22614749D03*
G04 #@! TA.AperFunction,ComponentPad*
D10*
G36*
X21142861Y-30039385D02*
G01*
X19958138Y-29299088D01*
X20698435Y-28114365D01*
X21883158Y-28854662D01*
X21142861Y-30039385D01*
G37*
G04 #@! TD.AperFunction*
G04 #@! TA.AperFunction,SMDPad,CuDef*
G36*
X22057408Y-28154040D02*
G01*
X21251763Y-27650617D01*
X21940658Y-26548154D01*
X22746303Y-27051577D01*
X22057408Y-28154040D01*
G37*
G04 #@! TD.AperFunction*
D19*
X134938166Y-98460813D02*
X134887824Y-98541377D01*
X132784124Y-97114818D02*
X132733782Y-97195382D01*
G04 #@! TA.AperFunction,ComponentPad*
D10*
G36*
X129267226Y-96152405D02*
G01*
X130327064Y-94456309D01*
X131942596Y-95465805D01*
X130882758Y-97161901D01*
X129267226Y-96152405D01*
G37*
G04 #@! TD.AperFunction*
D20*
X140198481Y-94567141D02*
X140198481Y-94567141D01*
D21*
X133666866Y-90642551D03*
D22*
X185000806Y-88428102D03*
X185000806Y-90968102D03*
X185000806Y-93508102D03*
X185000806Y-96048102D03*
X185000806Y-98588102D03*
X185000806Y-101128102D03*
X185000806Y-103668102D03*
X185000806Y-106208102D03*
X185000806Y-108748102D03*
X185000806Y-111288102D03*
X185000806Y-113828102D03*
X185000806Y-116368102D03*
X169760806Y-116368102D03*
X169760806Y-113828102D03*
X169760806Y-111288102D03*
X169760806Y-108748102D03*
X169760806Y-106208102D03*
X169760806Y-103668102D03*
X169760806Y-101128102D03*
X169760806Y-98588102D03*
X169760806Y-96048102D03*
X169760806Y-93508102D03*
X169760806Y-90968102D03*
D23*
X169760806Y-88428102D03*
D24*
X232540579Y-150572222D03*
X226190579Y-153112222D03*
X210064240Y-152887917D03*
X204588011Y-156984870D03*
X192370000Y-161836920D03*
X186995296Y-157607658D03*
X75665515Y-124694524D03*
X71251256Y-129918356D03*
X64437031Y-113834314D03*
X58248703Y-110922494D03*
X47510266Y-98976325D03*
X40779166Y-97765379D03*
X298990589Y-135697227D03*
X292640589Y-138237227D03*
X298970588Y-116722213D03*
X292620588Y-119262213D03*
X299020586Y-97697243D03*
X292670586Y-100237243D03*
X279995593Y-135697212D03*
X273645593Y-138237212D03*
X279970593Y-116722240D03*
X273620593Y-119262240D03*
X279965595Y-97722230D03*
X273615595Y-100262230D03*
X260995584Y-130947228D03*
X254645584Y-133487228D03*
X260970597Y-111972220D03*
X254620597Y-114512220D03*
X260970590Y-92947219D03*
X254620590Y-95487219D03*
X241965587Y-128547235D03*
X235615587Y-131087235D03*
X241990590Y-109597229D03*
X235640590Y-112137229D03*
X241965593Y-90597231D03*
X235615593Y-93137231D03*
X222995597Y-130947217D03*
X216645597Y-133487217D03*
X222970596Y-111947217D03*
X216620596Y-114487217D03*
X223015597Y-92922216D03*
X216665597Y-95462216D03*
X203945589Y-133347230D03*
X197595589Y-135887230D03*
X203965573Y-114347235D03*
X197615573Y-116887235D03*
X203940586Y-95347223D03*
X197590586Y-97887223D03*
X80751846Y-99466080D03*
X74020746Y-98255134D03*
X90845737Y-83369052D03*
X84114637Y-82158106D03*
X100927456Y-67234965D03*
X94196356Y-66024019D03*
X65939888Y-87410002D03*
X59208788Y-86199056D03*
X75991378Y-71286483D03*
X69260278Y-70075537D03*
X86090067Y-55162982D03*
X79358967Y-53952036D03*
X51029883Y-75322134D03*
X44298783Y-74111188D03*
X61115835Y-59190658D03*
X54384735Y-57979712D03*
X71214514Y-43067149D03*
X64483414Y-41856203D03*
X33684900Y-67225371D03*
X26953800Y-66014425D03*
X43774573Y-51125704D03*
X37043473Y-49914758D03*
X53808585Y-35020752D03*
X47077485Y-33809806D03*
X15032624Y-61230196D03*
X8301524Y-60019250D03*
X25114340Y-45096090D03*
X18383240Y-43885144D03*
X35178562Y-28980509D03*
X28447462Y-27769563D03*
X-1036841Y-51129926D03*
X-7767941Y-49918980D03*
X8975977Y-35011699D03*
X2244877Y-33800753D03*
X19078876Y-18890829D03*
X12347776Y-17679883D03*
D25*
X105733487Y-75856198D03*
X160899617Y-138609846D03*
X86386894Y-112487033D03*
X78587318Y-86241452D03*
X89786798Y-97444601D03*
X84131299Y-115936538D03*
X162899613Y-140609859D03*
X179718961Y-144716918D03*
X85307688Y-114190246D03*
X161899616Y-139609857D03*
X193238193Y-123600309D03*
X84762348Y-115051094D03*
X160849624Y-140609847D03*
X176899616Y-146859869D03*
X179049614Y-148409862D03*
X194630807Y-143648101D03*
X166434517Y-120516823D03*
X176774627Y-105659838D03*
X79461060Y-71088220D03*
X50319850Y-51110004D03*
X14681344Y-36623176D03*
X46504915Y-90616482D03*
X75980161Y-112041579D03*
X146327182Y-111712492D03*
X144885000Y-115200078D03*
X178029045Y-141556828D03*
X189042380Y-144688840D03*
X221936790Y-144537854D03*
X232961794Y-143862854D03*
X266161790Y-143462851D03*
X275311794Y-146737853D03*
X275161791Y-110787854D03*
X255736794Y-108762852D03*
X78525174Y-66405782D03*
X57027154Y-52972328D03*
X157668505Y-115432417D03*
X141259527Y-101391816D03*
X87032150Y-71662569D03*
X57835233Y-51207345D03*
X21735639Y-36609274D03*
X43783709Y-94310838D03*
X68260560Y-110195259D03*
X137005258Y-110209811D03*
X166642836Y-136913493D03*
X176996092Y-144433547D03*
X187986440Y-146466659D03*
X218711789Y-147237850D03*
X236211792Y-146012854D03*
X288311790Y-140087849D03*
X290136794Y-138487848D03*
X275736790Y-107637853D03*
X255686789Y-105137847D03*
X86213431Y-73067137D03*
X49108322Y-46019486D03*
X21006994Y-37775333D03*
X45052908Y-92657123D03*
X68249766Y-108183911D03*
X162126584Y-130260938D03*
X166429148Y-134121436D03*
X177553738Y-143033000D03*
X187939599Y-145178857D03*
X221011788Y-145862846D03*
X232811792Y-145812842D03*
X291136794Y-131562843D03*
X291961791Y-129387854D03*
X275661792Y-109062843D03*
X255711794Y-106837855D03*
X237486793Y-104837849D03*
X216186784Y-109087853D03*
X171195811Y-110142321D03*
X167953106Y-118367137D03*
X125806431Y-74710295D03*
X158205498Y-92412395D03*
D26*
X24958625Y-22614742D02*
X23880252Y-24340532D01*
X24945185Y-22556518D02*
X24958625Y-22614742D01*
X19078878Y-18890849D02*
X24945185Y-22556518D01*
X21999041Y-27351101D02*
X20920648Y-29076882D01*
X56712842Y-43412111D02*
X55634454Y-45137880D01*
X50676808Y-106853536D02*
X49598418Y-108579319D01*
X88806177Y-63761049D02*
X87727800Y-65486826D01*
X23276782Y-31338760D02*
X23063732Y-30416021D01*
X30697182Y-35975551D02*
X23276782Y-31338760D01*
X32075144Y-35657432D02*
X30697182Y-35975551D01*
X34619303Y-37247183D02*
X32075144Y-35657432D01*
X35308274Y-37088117D02*
X34619303Y-37247183D01*
X50072385Y-41662323D02*
X48770718Y-41962839D01*
X36500605Y-35180009D02*
X35308274Y-37088117D01*
X55634454Y-45137880D02*
X50072385Y-41662323D01*
X23063732Y-30416021D02*
X20920648Y-29076882D01*
X48770718Y-41962839D02*
X37534069Y-34941395D01*
X37534069Y-34941395D02*
X36500605Y-35180009D01*
X69256134Y-52110401D02*
X62683750Y-48003523D01*
X72939417Y-49990074D02*
X72012059Y-51474128D01*
X60885003Y-48418802D02*
X55634454Y-45137880D01*
X73972892Y-49751449D02*
X72939417Y-49990074D01*
X62683750Y-48003523D02*
X60885003Y-48418802D01*
X75469750Y-57827145D02*
X74738404Y-54659382D01*
X87727800Y-65486826D02*
X75469750Y-57827145D01*
X76331619Y-52109726D02*
X76093014Y-51076244D01*
X72012059Y-51474128D02*
X69256134Y-52110401D01*
X74738404Y-54659382D02*
X76331619Y-52109726D01*
X76093014Y-51076244D02*
X73972892Y-49751449D01*
X105413150Y-74468735D02*
X105733487Y-75856198D01*
X98731910Y-74950834D02*
X104174000Y-73694419D01*
X88532174Y-65989454D02*
X89230349Y-69013588D01*
X87727800Y-65486826D02*
X88532174Y-65989454D01*
X89230349Y-69013588D02*
X98731910Y-74950834D01*
X104174000Y-73694419D02*
X105413150Y-74468735D01*
X210880790Y-101423106D02*
X210880795Y-103458116D01*
X188349604Y-117159869D02*
X188349613Y-109359858D01*
X170560803Y-112088119D02*
X176377870Y-112088109D01*
X194251364Y-103458101D02*
X210880795Y-103458116D01*
X188349613Y-109359858D02*
X194251364Y-103458101D01*
X169760805Y-111288105D02*
X170560803Y-112088119D01*
X176377870Y-112088109D02*
X182949622Y-118659851D01*
X182949622Y-118659851D02*
X186849613Y-118659855D01*
X186849613Y-118659855D02*
X188349604Y-117159869D01*
X248880800Y-98708112D02*
X248880790Y-96673105D01*
X233651380Y-98708095D02*
X248880800Y-98708112D01*
X233674636Y-98684851D02*
X233651380Y-98708095D01*
X232649619Y-97659857D02*
X233674636Y-98684851D01*
X223601370Y-103458110D02*
X227699605Y-99359852D01*
X228699625Y-97659838D02*
X232649619Y-97659857D01*
X210880795Y-103458116D02*
X223601370Y-103458110D01*
X227699605Y-99359852D02*
X227699629Y-98659852D01*
X227699629Y-98659852D02*
X228699625Y-97659838D01*
X286880811Y-103423110D02*
X286880807Y-105458124D01*
X275347863Y-105458100D02*
X286880807Y-105458124D01*
X270149616Y-103359849D02*
X272247870Y-105458113D01*
X270149618Y-100959870D02*
X270149616Y-103359849D01*
X269099614Y-99909846D02*
X270149618Y-100959870D01*
X249829314Y-98708105D02*
X252331052Y-101209871D01*
X272247870Y-105458113D02*
X275347863Y-105458100D01*
X248880800Y-98708112D02*
X249829314Y-98708105D01*
X263649614Y-101209854D02*
X264949624Y-99909855D01*
X252331052Y-101209871D02*
X263649614Y-101209854D01*
X264949624Y-99909855D02*
X269099614Y-99909846D01*
X86514147Y-113038229D02*
X86386894Y-112487033D01*
X85982309Y-113889352D02*
X86514147Y-113038229D01*
X86542508Y-116315871D02*
X85982309Y-113889352D01*
X153138336Y-138915570D02*
X96904539Y-122790778D01*
X96904539Y-122790778D02*
X86542508Y-116315871D01*
X160899617Y-138609846D02*
X160593897Y-138915573D01*
X160593897Y-138915573D02*
X153138336Y-138915570D01*
X14728531Y-38891975D02*
X13650149Y-40617759D01*
X14630265Y-38544893D02*
X14715295Y-38913190D01*
X8975967Y-35011705D02*
X14630265Y-38544893D01*
X11755696Y-43649527D02*
X10677280Y-45375293D01*
X46511891Y-59737026D02*
X45433486Y-61462806D01*
X78605229Y-80085972D02*
X77526836Y-81811751D01*
X64186217Y-123995713D02*
X63460445Y-124163272D01*
X64948749Y-122775402D02*
X64186217Y-123995713D01*
X77526836Y-81811751D02*
X76914149Y-81953200D01*
X79062354Y-85481229D02*
X78587318Y-86241452D01*
X77526836Y-81811751D02*
X78331239Y-82314368D01*
X78331239Y-82314368D02*
X79062354Y-85481229D01*
X77024218Y-82616123D02*
X77526836Y-81811751D01*
X78295510Y-88122671D02*
X77024218Y-82616123D01*
X89786798Y-97444601D02*
X82429993Y-92847554D01*
X81865324Y-90401664D02*
X78295510Y-88122671D01*
X82429993Y-92847554D02*
X81865324Y-90401664D01*
X11147266Y-47332354D02*
X10690556Y-45354099D01*
X44930865Y-62267170D02*
X37701867Y-63936124D01*
X18826733Y-52141636D02*
X18823857Y-52129224D01*
X45433486Y-61462806D02*
X44930865Y-62267170D01*
X18823857Y-52129224D02*
X11147266Y-47332354D01*
X37701867Y-63936124D02*
X18826733Y-52141636D01*
X210880800Y-120423121D02*
X210880799Y-122458107D01*
X248880807Y-115673108D02*
X248880796Y-117708096D01*
X286880805Y-122673102D02*
X286880796Y-124708112D01*
X196747868Y-122458113D02*
X210880799Y-122458107D01*
X191951371Y-122458100D02*
X196747868Y-122458113D01*
X169760802Y-116368103D02*
X168960798Y-117168112D01*
X168960798Y-117168112D02*
X168960802Y-120521036D01*
X168960802Y-120521036D02*
X171315083Y-122875303D01*
X171315083Y-122875303D02*
X191534172Y-122875297D01*
X191534172Y-122875297D02*
X191951371Y-122458100D01*
X232599621Y-117709849D02*
X232601353Y-117708107D01*
X231249629Y-116359851D02*
X232599621Y-117709849D01*
X224301363Y-122458113D02*
X227649625Y-119109849D01*
X210880799Y-122458107D02*
X224301363Y-122458113D01*
X227649625Y-119109849D02*
X227649604Y-116809865D01*
X232601353Y-117708107D02*
X248880796Y-117708096D01*
X227649604Y-116809865D02*
X228099616Y-116359848D01*
X228099616Y-116359848D02*
X231249629Y-116359851D01*
X284689580Y-124362323D02*
X285035377Y-124708109D01*
X285035377Y-124708109D02*
X286880796Y-124708112D01*
X283084891Y-118852905D02*
X284689579Y-120457583D01*
X277842924Y-118852891D02*
X283084891Y-118852905D01*
X250197874Y-117708108D02*
X252549628Y-120059847D01*
X284689579Y-120457583D02*
X284689580Y-124362323D01*
X263149618Y-120059842D02*
X266649611Y-116559856D01*
X252549628Y-120059847D02*
X263149618Y-120059842D01*
X248880796Y-117708096D02*
X250197874Y-117708108D01*
X275549871Y-116559858D02*
X277842924Y-118852891D01*
X266649611Y-116559856D02*
X275549871Y-116559858D01*
X83975383Y-116480320D02*
X84131299Y-115936538D01*
X83911976Y-116701402D02*
X83975383Y-116480320D01*
X159649089Y-142411658D02*
X93501552Y-123444157D01*
X162899613Y-140609859D02*
X159649089Y-142411658D01*
X84115231Y-117581718D02*
X83911976Y-116701402D01*
X93501552Y-123444157D02*
X93498286Y-123444910D01*
X93498286Y-123444910D02*
X84115231Y-117581718D01*
X76722461Y-81309115D02*
X77526839Y-81811749D01*
X75792989Y-81523706D02*
X76523153Y-81355135D01*
X45433499Y-61462799D02*
X46237874Y-61965448D01*
X46237874Y-61965448D02*
X46531977Y-63239403D01*
X46531977Y-63239403D02*
X75792989Y-81523706D01*
X76523153Y-81355135D02*
X76722461Y-81309115D01*
X4646822Y-55026084D02*
X3568430Y-56751856D01*
X4553851Y-54623374D02*
X4646822Y-55026084D01*
X-1036849Y-51129907D02*
X4553851Y-54623374D01*
X286880813Y-141673106D02*
X286880796Y-143708107D01*
X248880812Y-134423106D02*
X248880798Y-136458109D01*
X210880787Y-139423130D02*
X210880788Y-141458122D01*
X210880788Y-141458122D02*
X223320803Y-141458117D01*
X223320803Y-141458117D02*
X228130798Y-136648109D01*
X228130798Y-136648109D02*
X228130802Y-135898100D01*
X228130802Y-135898100D02*
X228630801Y-135398093D01*
X228630801Y-135398093D02*
X231630802Y-135398120D01*
X232690798Y-136458109D02*
X248880798Y-136458109D01*
X231630802Y-135398120D02*
X232690798Y-136458109D01*
X250872293Y-139398105D02*
X264130789Y-139398107D01*
X248880802Y-137406605D02*
X250872293Y-139398105D01*
X286440802Y-144148111D02*
X286880796Y-143708107D01*
X266130802Y-137398126D02*
X266130799Y-136148106D01*
X266130799Y-136148106D02*
X266630795Y-135648122D01*
X248880798Y-136458109D02*
X248880802Y-137406605D01*
X264130789Y-139398107D02*
X266130802Y-137398126D01*
X266630795Y-135648122D02*
X269380792Y-135648101D01*
X269380792Y-135648101D02*
X270380807Y-136648115D01*
X270380807Y-136648115D02*
X270380803Y-142398108D01*
X270380803Y-142398108D02*
X272130814Y-144148115D01*
X272130814Y-144148115D02*
X286440802Y-144148111D01*
X1687211Y-59762418D02*
X608834Y-61488209D01*
X36443429Y-75849954D02*
X35365020Y-77575707D01*
X68669236Y-95986870D02*
X67590879Y-97712651D01*
X84841191Y-127765528D02*
X84517489Y-126363456D01*
X85472860Y-128160243D02*
X84841191Y-127765528D01*
X66786482Y-97210029D02*
X64451359Y-97749141D01*
X67590879Y-97712651D02*
X66786482Y-97210029D01*
X64451359Y-97749141D02*
X40612558Y-82853019D01*
X40073454Y-80517854D02*
X35365020Y-77575707D01*
X40612558Y-82853019D02*
X40073454Y-80517854D01*
X335620Y-63286288D02*
X106202Y-62292582D01*
X25680163Y-79123321D02*
X335620Y-63286288D01*
X34560653Y-77073087D02*
X25680163Y-79123321D01*
X106202Y-62292582D02*
X608830Y-61488204D01*
X35365020Y-77575707D02*
X34560653Y-77073087D01*
X178917129Y-146515578D02*
X178827547Y-146827982D01*
X178899612Y-146498076D02*
X178917129Y-146515578D01*
X179718961Y-144716918D02*
X178899619Y-145536250D01*
X178899619Y-145536250D02*
X178899612Y-146498076D01*
X179409408Y-147409867D02*
X178827547Y-146827982D01*
X194433375Y-141472047D02*
X188495590Y-147409868D01*
X210880788Y-141458122D02*
X194440806Y-141458112D01*
X188495590Y-147409868D02*
X179409408Y-147409867D01*
X194440806Y-141458112D02*
X194433375Y-141472047D01*
X176137285Y-148319223D02*
X178827547Y-146827982D01*
X172506529Y-147292762D02*
X172523915Y-147283104D01*
X92397480Y-124321863D02*
X172506529Y-147292762D01*
X68624742Y-101241353D02*
X69420068Y-104686275D01*
X69420068Y-104686275D02*
X78721894Y-110498695D01*
X66846620Y-98903661D02*
X67177543Y-100337056D01*
X172523915Y-147283104D02*
X176137285Y-148319223D01*
X78721894Y-110498695D02*
X80683455Y-118995221D01*
X67177543Y-100337056D02*
X68624742Y-101241353D01*
X80683455Y-118995221D02*
X85686940Y-122121747D01*
X67590879Y-97712651D02*
X66846620Y-98903661D01*
X85686940Y-122121747D02*
X86577383Y-125978692D01*
X85403077Y-127857985D02*
X85472865Y-128160243D01*
X86577383Y-125978692D02*
X85403077Y-127857985D01*
X85472865Y-128160243D02*
X92397480Y-124321863D01*
X41042393Y-32635500D02*
X39964025Y-34361286D01*
X41031742Y-32637979D02*
X41042393Y-32635500D01*
X35178554Y-28980504D02*
X41031742Y-32637979D01*
X74018065Y-51572459D02*
X72939687Y-53298249D01*
X72182208Y-54510464D02*
X72939687Y-53298249D01*
X72743754Y-56942867D02*
X72182208Y-54510464D01*
X77816352Y-60112584D02*
X72743754Y-56942867D01*
X101976495Y-76748759D02*
X100330330Y-77128816D01*
X103859261Y-75525622D02*
X102780866Y-77251385D01*
X102780866Y-77251385D02*
X101976495Y-76748759D01*
X100330330Y-77128816D02*
X78611681Y-63557492D01*
X78611681Y-63557492D02*
X77816352Y-60112584D01*
X161749632Y-139759849D02*
X154156006Y-139759852D01*
X85927799Y-116876253D02*
X85434943Y-114741431D01*
X161899616Y-139609857D02*
X161749632Y-139759849D01*
X154156006Y-139759852D02*
X154147151Y-139750998D01*
X85434943Y-114741431D02*
X85307688Y-114190246D01*
X154147151Y-139750998D02*
X95726460Y-122999140D01*
X95726460Y-122999140D02*
X85927799Y-116876253D01*
X170560807Y-113028115D02*
X176317873Y-113028108D01*
X169760812Y-113828108D02*
X170560807Y-113028115D01*
X176317873Y-113028108D02*
X182699619Y-119409860D01*
X182699619Y-119409860D02*
X187449610Y-119409860D01*
X187449610Y-119409860D02*
X189799620Y-117059855D01*
X189799620Y-117059855D02*
X189799610Y-109509845D01*
X189799610Y-109509845D02*
X194599623Y-104709845D01*
X267880807Y-101423092D02*
X267880813Y-103458115D01*
X303880800Y-106708101D02*
X303880801Y-104673104D01*
X194599623Y-104709845D02*
X224899614Y-104709856D01*
X228651361Y-100958108D02*
X229880780Y-100958106D01*
X224899614Y-104709856D02*
X228651361Y-100958108D01*
X229880780Y-100958106D02*
X229880797Y-98923116D01*
X266932307Y-103458110D02*
X267880813Y-103458115D01*
X265184058Y-101709838D02*
X266932307Y-103458110D01*
X231581022Y-101709863D02*
X265184058Y-101709838D01*
X229880780Y-100958106D02*
X230829296Y-100958114D01*
X230829296Y-100958114D02*
X231581022Y-101709863D01*
X272079311Y-106708094D02*
X302932290Y-106708097D01*
X302932290Y-106708097D02*
X303880800Y-106708101D01*
X268829315Y-103458115D02*
X272079311Y-106708094D01*
X267880813Y-103458115D02*
X268829315Y-103458115D01*
X30973944Y-48748427D02*
X29895549Y-50474211D01*
X30963266Y-48750893D02*
X30973944Y-48748427D01*
X25114354Y-45096060D02*
X30963266Y-48750893D01*
X303880799Y-123923110D02*
X303880806Y-125958100D01*
X267880796Y-117923103D02*
X267880787Y-119958098D01*
X229880794Y-117923119D02*
X229880799Y-119958112D01*
X218340212Y-158051594D02*
X218866900Y-158578288D01*
X218340226Y-156612613D02*
X218340212Y-158051594D01*
X230829277Y-119958108D02*
X232269295Y-121398096D01*
X229880799Y-119958112D02*
X230829277Y-119958108D01*
X267880816Y-120906605D02*
X267880787Y-119958098D01*
X267389310Y-121398119D02*
X267880816Y-120906605D01*
X232269295Y-121398096D02*
X267389310Y-121398119D01*
X268829297Y-119958123D02*
X269380805Y-120509603D01*
X267880787Y-119958098D02*
X268829297Y-119958123D01*
X269380798Y-120608430D02*
X269880789Y-121108441D01*
X269380805Y-120509603D02*
X269380798Y-120608430D01*
X269880789Y-121108441D02*
X269880801Y-124148103D01*
X271690804Y-125958110D02*
X303880806Y-125958100D01*
X269880801Y-124148103D02*
X271690804Y-125958110D01*
X28014333Y-53484765D02*
X26935933Y-55210577D01*
X63817105Y-67897387D02*
X62738733Y-69623168D01*
X93393349Y-92274569D02*
X92314959Y-94000342D01*
X64266990Y-70578112D02*
X62738733Y-69623168D01*
X79169968Y-82478400D02*
X80627249Y-80146271D01*
X91492981Y-93421426D02*
X80044810Y-86267823D01*
X76440173Y-79298664D02*
X74717715Y-79696321D01*
X64965147Y-73602255D02*
X64266990Y-70578112D01*
X74717715Y-79696321D02*
X64965147Y-73602255D01*
X80044810Y-86267823D02*
X79169968Y-82478400D01*
X92314959Y-94000342D02*
X91510592Y-93497710D01*
X91510592Y-93497710D02*
X91492981Y-93421426D01*
X80627249Y-80146271D02*
X80388641Y-79112792D01*
X80388641Y-79112792D02*
X78692544Y-78052961D01*
X78692544Y-78052961D02*
X76970079Y-78450616D01*
X76970079Y-78450616D02*
X76440173Y-79298664D01*
X46254702Y-57783534D02*
X45221239Y-58022159D01*
X61934366Y-69120549D02*
X61321674Y-69261980D01*
X62738733Y-69623168D02*
X61934366Y-69120549D01*
X45221239Y-58022159D02*
X44691321Y-58870186D01*
X61321674Y-69261980D02*
X49355569Y-61784733D01*
X49355569Y-61784733D02*
X48798846Y-59373303D01*
X36002729Y-60876107D02*
X26935933Y-55210577D01*
X44691321Y-58870186D02*
X36002729Y-60876107D01*
X48798846Y-59373303D02*
X46254702Y-57783534D01*
X229880793Y-120906610D02*
X229880799Y-119958112D01*
X193947752Y-124309862D02*
X193949634Y-124309853D01*
X193949634Y-124309853D02*
X194037874Y-124398111D01*
X193238193Y-123600309D02*
X193947752Y-124309862D01*
X194037874Y-124398111D02*
X226389290Y-124398101D01*
X226389290Y-124398101D02*
X229880793Y-120906610D01*
X84759955Y-116510630D02*
X85036597Y-115545855D01*
X158874462Y-141704709D02*
X94390426Y-123214205D01*
X160849624Y-140609847D02*
X158874462Y-141704709D01*
X94390426Y-123214205D02*
X85341539Y-117559824D01*
X85036597Y-115545855D02*
X84762348Y-115051094D01*
X85341539Y-117559824D02*
X84759955Y-116510630D01*
X20905459Y-64861338D02*
X19827077Y-66587134D01*
X20860343Y-64871766D02*
X20905459Y-64861338D01*
X15032634Y-61230190D02*
X20860343Y-64871766D01*
X267880796Y-137173104D02*
X267880794Y-139208111D01*
X229880797Y-136673112D02*
X229880797Y-138708110D01*
X239630804Y-156423104D02*
X239630796Y-158458096D01*
X230829297Y-138708111D02*
X233269292Y-141148125D01*
X229880797Y-138708110D02*
X230829297Y-138708111D01*
X233269292Y-141148125D02*
X263880787Y-141148104D01*
X265820800Y-139208109D02*
X267880794Y-139208111D01*
X263880787Y-141148104D02*
X265820800Y-139208109D01*
X268829292Y-139208113D02*
X269380798Y-139759626D01*
X267880794Y-139208111D02*
X268829292Y-139208113D01*
X269380798Y-139759626D02*
X269380793Y-143398101D01*
X269380793Y-143398101D02*
X271130803Y-145148120D01*
X303812641Y-107299477D02*
X304114296Y-106755230D01*
X72135306Y-52795614D02*
X66397228Y-54120339D01*
X37004418Y-39097645D02*
X38082808Y-37371860D01*
X72939687Y-53298249D02*
X72135306Y-52795614D01*
X42982504Y-39489192D02*
X39074778Y-40391359D01*
X66397228Y-54120339D02*
X42982504Y-39489192D01*
X39074778Y-40391359D02*
X37004418Y-39097645D01*
X189336254Y-171356202D02*
X190609321Y-171062298D01*
X188864998Y-172110396D02*
X189336254Y-171356202D01*
X271130803Y-145148120D02*
X302492293Y-145148106D01*
X53748668Y-84010291D02*
X52670267Y-85736088D01*
X70611718Y-95702677D02*
X68067572Y-94112920D01*
X70850321Y-96736151D02*
X70611718Y-95702677D01*
X54410518Y-86823505D02*
X52670267Y-85736088D01*
X68067572Y-94112920D02*
X66689621Y-94431074D01*
X66689621Y-94431074D02*
X65762247Y-95915134D01*
X64728777Y-96153737D02*
X55188237Y-90192138D01*
X65762247Y-95915134D02*
X64728777Y-96153737D01*
X75689124Y-106015742D02*
X69993966Y-102457032D01*
X55188237Y-90192138D02*
X54410518Y-86823505D01*
X69260551Y-99280313D02*
X70850321Y-96736151D01*
X69993966Y-102457032D02*
X69260551Y-99280313D01*
X83204793Y-108170821D02*
X75689124Y-106015742D01*
X83324887Y-108387475D02*
X83204793Y-108170821D01*
X228570787Y-138708091D02*
X229880797Y-138708110D01*
X223630798Y-143648107D02*
X228570787Y-138708091D01*
X179615311Y-148409855D02*
X179915311Y-148709852D01*
X179049614Y-148409862D02*
X179615311Y-148409855D01*
X194770485Y-143648114D02*
X223630798Y-143648107D01*
X179915311Y-148709852D02*
X189569050Y-148709859D01*
X189569050Y-148709859D02*
X194630807Y-143648101D01*
X194630807Y-143648101D02*
X194770485Y-143648114D01*
X81743873Y-110917626D02*
X83309010Y-117697015D01*
X175615776Y-147571506D02*
X176899616Y-146859869D01*
X93387726Y-123992992D02*
X175615776Y-147571506D01*
X83324898Y-108387477D02*
X81743873Y-110917626D01*
X83309010Y-117697015D02*
X93385496Y-123993502D01*
X93385496Y-123993502D02*
X93387726Y-123992992D01*
X16867477Y-71323470D02*
X17945860Y-69597695D01*
X38571307Y-74797214D02*
X36239196Y-73339969D01*
X51865876Y-85233461D02*
X39145654Y-77284964D01*
X52670267Y-85736088D02*
X51865880Y-85233451D01*
X34861229Y-73658091D02*
X32771221Y-77002771D01*
X51865880Y-85233451D02*
X51865876Y-85233461D01*
X39145654Y-77284964D02*
X38571307Y-74797214D01*
X36239196Y-73339969D02*
X34861229Y-73658091D01*
X25852389Y-78600114D02*
X19174315Y-74427198D01*
X32771221Y-77002771D02*
X25852389Y-78600114D01*
X18725843Y-72484715D02*
X16867477Y-71323470D01*
X19174315Y-74427198D02*
X18725843Y-72484715D01*
X302579531Y-145008517D02*
X303880798Y-144708098D01*
X302492293Y-145148106D02*
X302579531Y-145008517D01*
X304223863Y-144159080D02*
X303880798Y-142673099D01*
X303880798Y-144708098D02*
X304223863Y-144159080D01*
X59672439Y-38675758D02*
X58594044Y-40401533D01*
X59661766Y-38678220D02*
X59672439Y-38675758D01*
X53808591Y-35020747D02*
X59661766Y-38678220D01*
X49471488Y-55000701D02*
X48393105Y-56726451D01*
X49386472Y-54632400D02*
X49471488Y-55000701D01*
X43774577Y-51125697D02*
X49386472Y-54632400D01*
X39403008Y-71113599D02*
X38324615Y-72839364D01*
X39317987Y-70745305D02*
X39403008Y-71113599D01*
X33684908Y-67225364D02*
X39317987Y-70745305D01*
X76977657Y-46836122D02*
X75899274Y-48561884D01*
X76932409Y-46640078D02*
X76977657Y-46836122D01*
X71214501Y-43067149D02*
X76932409Y-46640078D01*
X66776717Y-63161029D02*
X65698334Y-64886801D01*
X66659891Y-62654955D02*
X66776717Y-63161029D01*
X61115837Y-59190659D02*
X66659891Y-62654955D01*
X56708250Y-79273970D02*
X55629872Y-80999728D01*
X56599367Y-78802316D02*
X56708250Y-79273970D01*
X51029890Y-75322119D02*
X56599367Y-78802316D01*
X91765780Y-59024703D02*
X90687380Y-60750488D01*
X91680766Y-58656413D02*
X91765780Y-59024703D01*
X86090075Y-55162967D02*
X91680766Y-58656413D01*
X81564849Y-75349624D02*
X80486454Y-77075398D01*
X81408228Y-74671290D02*
X81564849Y-75349624D01*
X75991387Y-71286476D02*
X81408228Y-74671290D01*
X71628838Y-91250535D02*
X70550457Y-92976303D01*
X71551783Y-90916690D02*
X71628838Y-91250535D01*
X65939888Y-87409999D02*
X71551783Y-90916690D01*
X106818839Y-70789270D02*
X105740462Y-72515055D01*
X106670405Y-70823531D02*
X106818839Y-70789270D01*
X100927461Y-67234954D02*
X106670405Y-70823531D01*
X96352949Y-87538214D02*
X95274545Y-89263975D01*
X96156575Y-86687630D02*
X96352949Y-87538214D01*
X90845738Y-83369066D02*
X96156575Y-86687630D01*
X86284479Y-103651118D02*
X85206077Y-105376895D01*
X86088120Y-102800563D02*
X86284479Y-103651118D01*
X80751843Y-99466073D02*
X86088120Y-102800563D01*
X210389911Y-95347228D02*
X210880802Y-95838113D01*
X203940594Y-95347231D02*
X210389911Y-95347228D01*
X210880802Y-95838113D02*
X210880795Y-97873114D01*
X210389915Y-114347231D02*
X210880796Y-114838114D01*
X203965590Y-114347227D02*
X210389915Y-114347231D01*
X210880796Y-114838114D02*
X210880805Y-116873116D01*
X210389921Y-133347235D02*
X210880793Y-133838103D01*
X203945582Y-133347218D02*
X210389921Y-133347235D01*
X210880793Y-133838103D02*
X210880798Y-135873111D01*
X229464909Y-92922223D02*
X229880796Y-93338110D01*
X223015575Y-92922232D02*
X229464909Y-92922223D01*
X229880796Y-93338110D02*
X229880804Y-95373119D01*
X229489905Y-111947217D02*
X229880808Y-112338119D01*
X222970585Y-111947220D02*
X229489905Y-111947217D01*
X229880808Y-112338119D02*
X229880794Y-114373109D01*
X229739917Y-130947208D02*
X229880795Y-131088115D01*
X222995597Y-130947216D02*
X229739917Y-130947208D01*
X229880795Y-131088115D02*
X229880785Y-133123092D01*
X248389904Y-90597220D02*
X248880800Y-91088120D01*
X241965581Y-90597224D02*
X248389904Y-90597220D01*
X248880800Y-91088120D02*
X248880799Y-93123107D01*
X248389910Y-109597222D02*
X248880805Y-110088113D01*
X241990575Y-109597220D02*
X248389910Y-109597222D01*
X248880800Y-112123118D02*
X248880805Y-110088113D01*
X248589905Y-128547228D02*
X248880814Y-128838098D01*
X241965594Y-128547219D02*
X248589905Y-128547228D01*
X248880814Y-128838098D02*
X248880797Y-130873100D01*
X263861479Y-95838101D02*
X267880792Y-95838124D01*
X260970593Y-92947225D02*
X263861479Y-95838101D01*
X267880792Y-95838124D02*
X267880799Y-97873126D01*
X267514928Y-111972216D02*
X267880793Y-112338116D01*
X260970598Y-111972225D02*
X267514928Y-111972216D01*
X267880818Y-114373096D02*
X267880793Y-112338116D01*
X267239901Y-130947221D02*
X267880802Y-131588108D01*
X260995584Y-130947207D02*
X267239901Y-130947221D01*
X267880802Y-131588108D02*
X267880796Y-133623113D01*
X286764903Y-97722224D02*
X286880807Y-97838107D01*
X279965604Y-97722224D02*
X286764903Y-97722224D01*
X286880807Y-97838107D02*
X286880796Y-99873110D01*
X286514915Y-116722213D02*
X286880797Y-117088101D01*
X279970589Y-116722220D02*
X286514915Y-116722213D01*
X286880797Y-117088101D02*
X286880801Y-119123108D01*
X286880793Y-136088105D02*
X286880801Y-138123122D01*
X286489901Y-135697233D02*
X286880793Y-136088105D01*
X279995582Y-135697234D02*
X286489901Y-135697233D01*
X300411489Y-99088121D02*
X303880791Y-99088108D01*
X299020598Y-97697213D02*
X300411489Y-99088121D01*
X303880791Y-99088108D02*
X303880793Y-101123113D01*
X300586484Y-118338106D02*
X303880783Y-118338111D01*
X298970588Y-116722228D02*
X300586484Y-118338106D01*
X303880783Y-118338111D02*
X303880790Y-120373117D01*
X302489921Y-135697230D02*
X303880797Y-137088106D01*
X298990586Y-135697223D02*
X302489921Y-135697230D01*
X303880797Y-137088106D02*
X303880793Y-139123106D01*
X53636395Y-102117205D02*
X52558016Y-103842983D01*
X47510270Y-98976301D02*
X50977330Y-101142769D01*
X51780317Y-100957387D02*
X53636395Y-102117205D01*
X50977330Y-101142769D02*
X51780317Y-100957387D01*
X68270832Y-120186758D02*
X67545065Y-120354305D01*
X69033365Y-118966445D02*
X68270832Y-120186758D01*
X68423650Y-116325449D02*
X69033365Y-118966445D01*
X64437008Y-113834325D02*
X68423650Y-116325449D01*
X82527167Y-121826881D02*
X82850864Y-123228980D01*
X81895497Y-121432169D02*
X82527167Y-121826881D01*
X80932990Y-121654392D02*
X81895497Y-121432169D01*
X76997462Y-122562964D02*
X80932990Y-121654392D01*
X75665506Y-124694548D02*
X76997462Y-122562964D01*
X195396600Y-164863537D02*
X195396619Y-168185807D01*
X192369992Y-161836913D02*
X195396600Y-164863537D01*
X194700374Y-168185820D02*
X193652264Y-169233918D01*
X195396619Y-168185807D02*
X194700374Y-168185820D01*
X211734230Y-151217936D02*
X216894703Y-151217944D01*
X210064231Y-152887903D02*
X211734230Y-151217936D01*
X216894705Y-152656896D02*
X217421394Y-153183589D01*
X216894703Y-151217944D02*
X216894705Y-152656896D01*
X239364907Y-150572234D02*
X239630791Y-150838106D01*
X232540599Y-150572214D02*
X239364907Y-150572234D01*
X239630791Y-150838106D02*
X239630801Y-152873118D01*
X149017771Y-105002248D02*
X148156870Y-104464315D01*
X148156870Y-104464315D02*
X148119059Y-104473030D01*
X166434517Y-120516823D02*
X150919969Y-105002271D01*
X150919969Y-105002271D02*
X149017771Y-105002248D01*
X176774629Y-104274291D02*
X176774627Y-105659838D01*
X185000803Y-96048102D02*
X176774629Y-104274291D01*
X79461060Y-71088220D02*
X78981334Y-70788463D01*
X78981334Y-70788463D02*
X74648386Y-68080938D01*
X74648386Y-68080938D02*
X73900785Y-64842707D01*
X73900785Y-64842707D02*
X56430995Y-53926368D01*
X56430995Y-53926368D02*
X55259722Y-54196781D01*
X55259722Y-54196781D02*
X50319850Y-51110004D01*
X50319850Y-51110004D02*
X38192747Y-43532163D01*
X38192747Y-43532163D02*
X29098168Y-45631809D01*
X29098168Y-45631809D02*
X14681344Y-36623176D01*
X46504915Y-90616482D02*
X46998007Y-92752337D01*
X46998007Y-92752337D02*
X75662037Y-110663604D01*
X75662037Y-110663604D02*
X75980161Y-112041579D01*
X146327182Y-111712492D02*
X145410681Y-114908690D01*
X145410681Y-114908690D02*
X144885000Y-115200078D01*
X178029045Y-141556828D02*
X189011467Y-144705991D01*
X189011467Y-144705991D02*
X189042380Y-144688840D01*
X221936790Y-144537854D02*
X232286793Y-144537853D01*
X232286793Y-144537853D02*
X232961794Y-143862854D01*
X269436791Y-146737850D02*
X275311794Y-146737853D01*
X266161790Y-143462851D02*
X269436791Y-146737850D01*
X275161791Y-110787854D02*
X274661794Y-110287853D01*
X274661794Y-110287853D02*
X263336787Y-110287844D01*
X263336787Y-110287844D02*
X261811790Y-108762855D01*
X261811790Y-108762855D02*
X255736794Y-108762852D01*
X105718125Y-79233194D02*
X96062983Y-81462260D01*
X79940787Y-71387994D02*
X79461060Y-71088220D01*
X110381413Y-71770371D02*
X105718125Y-79233194D01*
X111587124Y-71492011D02*
X110381413Y-71770371D01*
X96062983Y-81462260D02*
X79940787Y-71387994D01*
X128621349Y-82136175D02*
X111587124Y-71492011D01*
X131041284Y-92618087D02*
X128621349Y-82136175D01*
X149017771Y-105002248D02*
X149476224Y-104268577D01*
X149476224Y-104268577D02*
X149440860Y-104115419D01*
X149440860Y-104115419D02*
X131041284Y-92618087D01*
X78525174Y-66405782D02*
X57027154Y-52972328D01*
X185000801Y-90968110D02*
X178441374Y-90968102D01*
X175901355Y-93508104D02*
X169760808Y-93508114D01*
X178441374Y-90968102D02*
X175901355Y-93508104D01*
X135085229Y-98461346D02*
X134912979Y-98501087D01*
X157626088Y-115405916D02*
X155487966Y-115899548D01*
X141964400Y-107449069D02*
X140699298Y-101969389D01*
X157668505Y-115432417D02*
X157626088Y-115405916D01*
X155487966Y-115899548D02*
X141964400Y-107449069D01*
X140699298Y-101969389D02*
X135085229Y-98461346D01*
X140699298Y-101969389D02*
X140699311Y-101952028D01*
X140699311Y-101952028D02*
X141259527Y-101391816D01*
X87032150Y-71662569D02*
X87469336Y-70962932D01*
X87469336Y-70962932D02*
X87151208Y-69584963D01*
X87151208Y-69584963D02*
X57851133Y-51276251D01*
X57851133Y-51276251D02*
X57835233Y-51207345D01*
X43783709Y-94310838D02*
X68101493Y-109506266D01*
X68101493Y-109506266D02*
X68260560Y-110195259D01*
X141960365Y-107463151D02*
X137500016Y-109935563D01*
X141964400Y-107449069D02*
X141960365Y-107463151D01*
X137500016Y-109935563D02*
X137005258Y-110209811D01*
X173991003Y-130007533D02*
X170175194Y-132122672D01*
X174380813Y-128648111D02*
X173991003Y-130007533D01*
X170175194Y-132122672D02*
X169209402Y-135490821D01*
X169209402Y-135490821D02*
X166642836Y-136913493D01*
X177539864Y-144589468D02*
X179364293Y-143578180D01*
X176996092Y-144433547D02*
X177539864Y-144589468D01*
X179364293Y-143578180D02*
X187712192Y-145971896D01*
X187712192Y-145971896D02*
X187986440Y-146466659D01*
X218711789Y-147237850D02*
X234986793Y-147237853D01*
X234986793Y-147237853D02*
X236211792Y-146012854D01*
X288311790Y-140087849D02*
X288536796Y-140087855D01*
X288536796Y-140087855D02*
X290136794Y-138487848D01*
X275736790Y-107637853D02*
X266086791Y-107637842D01*
X266086791Y-107637842D02*
X263586789Y-105137848D01*
X263586789Y-105137848D02*
X255686789Y-105137847D01*
X150924950Y-100204674D02*
X147338181Y-101032749D01*
X105152421Y-78440102D02*
X99840901Y-79666362D01*
X87511873Y-71962328D02*
X87032150Y-71662569D01*
X129414443Y-81570471D02*
X111747908Y-70531199D01*
X147338181Y-101032749D02*
X131643506Y-91225628D01*
X111747908Y-70531199D02*
X109815708Y-70977278D01*
X99840901Y-79666362D02*
X87511873Y-71962328D01*
X109815708Y-70977278D02*
X105152421Y-78440102D01*
X151784534Y-100741809D02*
X150924950Y-100204674D01*
X131643506Y-91225628D02*
X129414443Y-81570471D01*
X43391471Y-40408824D02*
X32018226Y-43034539D01*
X57836606Y-49435147D02*
X43391471Y-40408824D01*
X32018226Y-43034539D02*
X21735639Y-36609274D01*
X57835233Y-51207345D02*
X58134999Y-50727628D01*
X58134999Y-50727628D02*
X57836606Y-49435147D01*
X98141418Y-80520570D02*
X86693165Y-73366904D01*
X105435270Y-78836645D02*
X98141418Y-80520570D01*
X131299513Y-91736089D02*
X129017890Y-81853319D01*
X150401151Y-102872023D02*
X149466172Y-103087880D01*
X149466172Y-103087880D02*
X131299513Y-91736089D01*
X86693165Y-73366904D02*
X86213431Y-73067137D01*
X110098564Y-71373824D02*
X105435270Y-78836645D01*
X129017890Y-81853319D02*
X111667518Y-71011605D01*
X111667518Y-71011605D02*
X110098564Y-71373824D01*
X49108322Y-46019486D02*
X42175523Y-41687390D01*
X42175523Y-41687390D02*
X31427377Y-44168788D01*
X31427377Y-44168788D02*
X21144791Y-37743519D01*
X21144791Y-37743519D02*
X21006994Y-37775333D01*
X45052908Y-92657123D02*
X45331267Y-93862837D01*
X45331267Y-93862837D02*
X68249766Y-108183911D01*
X162126584Y-130260938D02*
X163857777Y-133384104D01*
X163857777Y-133384104D02*
X166429148Y-134121436D01*
X178543260Y-142484508D02*
X187939599Y-145178857D01*
X177553738Y-143033000D02*
X178543260Y-142484508D01*
X221011788Y-145862846D02*
X232761790Y-145862852D01*
X232761790Y-145862852D02*
X232811792Y-145812842D01*
X291961788Y-131262851D02*
X291961791Y-129387854D01*
X291136794Y-131562843D02*
X291661791Y-131562854D01*
X291661791Y-131562854D02*
X291961788Y-131262851D01*
X275661792Y-109062843D02*
X265586793Y-109062851D01*
X265586793Y-109062851D02*
X263361794Y-106837853D01*
X263361794Y-106837853D02*
X255711794Y-106837855D01*
X237086786Y-105237851D02*
X227961788Y-105237845D01*
X237486793Y-104837849D02*
X237086786Y-105237851D01*
X227961788Y-105237845D02*
X224111796Y-109087855D01*
X224111796Y-109087855D02*
X216186784Y-109087853D01*
X18835401Y-16182108D02*
X12347782Y-17679890D01*
X63933720Y-36992811D02*
X51021971Y-28924655D01*
X95419366Y-54887821D02*
X66013087Y-36512739D01*
X169760801Y-103668104D02*
X96047040Y-57606646D01*
X51021971Y-28924655D02*
X42456558Y-30902139D01*
X66013087Y-36512739D02*
X63933720Y-36992811D01*
X96047040Y-57606646D02*
X95419366Y-54887821D01*
X42456558Y-30902139D02*
X33552050Y-25337979D01*
X28290964Y-22090588D02*
X18835401Y-16182108D01*
X33552050Y-25337979D02*
X33551799Y-25338395D01*
X33551799Y-25338395D02*
X32415629Y-25600700D01*
X31500867Y-27064630D02*
X28447458Y-27769549D01*
X32415629Y-25600700D02*
X31500867Y-27064630D01*
X28932657Y-24870102D02*
X28290964Y-22090588D01*
X28089567Y-26219342D02*
X28932657Y-24870102D01*
X28447458Y-27769549D02*
X28089567Y-26219342D01*
X63502599Y-37607795D02*
X54633023Y-32065479D01*
X54633028Y-32065479D02*
X47077490Y-33809782D01*
X64483430Y-41856195D02*
X63502599Y-37607795D01*
X54633023Y-32065479D02*
X54633028Y-32065479D01*
X70845644Y-40387364D02*
X64483430Y-41856195D01*
X166258174Y-102395557D02*
X95488552Y-58173804D01*
X169760802Y-106208107D02*
X166696285Y-104293188D01*
X166696285Y-104293188D02*
X166258174Y-102395557D01*
X95488552Y-58173804D02*
X94844370Y-55383419D01*
X94844370Y-55383419D02*
X70845644Y-40387364D01*
X80419712Y-52254475D02*
X79358977Y-53952020D01*
X84493508Y-51313958D02*
X80419712Y-52254475D01*
X168799387Y-108140091D02*
X165556278Y-106113586D01*
X165556278Y-106113586D02*
X164705289Y-102427512D01*
X93186012Y-56745636D02*
X84493508Y-51313958D01*
X169760799Y-108748124D02*
X168801346Y-108148584D01*
X93838469Y-64473805D02*
X94664891Y-63151261D01*
X168801346Y-108148584D02*
X168799387Y-108140091D01*
X103142303Y-63958683D02*
X94196361Y-66024007D01*
X164705289Y-102427512D02*
X103142303Y-63958683D01*
X94196361Y-66024007D02*
X93838469Y-64473805D01*
X94664891Y-63151261D02*
X93742737Y-59157091D01*
X93742737Y-59157091D02*
X93186012Y-56745636D01*
X214851480Y-93648115D02*
X216665595Y-95462231D01*
X186801354Y-106208110D02*
X195122251Y-97887222D01*
X198130793Y-93648107D02*
X214851480Y-93648115D01*
X197590593Y-97887215D02*
X197590596Y-94188313D01*
X185000810Y-106208103D02*
X186801354Y-106208110D01*
X195122251Y-97887222D02*
X197590593Y-97887215D01*
X197590596Y-94188313D02*
X198130793Y-93648107D01*
X245630784Y-92648104D02*
X247442542Y-94459857D01*
X237130802Y-92648100D02*
X245630784Y-92648104D01*
X236641693Y-93137225D02*
X237130802Y-92648100D01*
X253593213Y-94459844D02*
X254620594Y-95487223D01*
X247442542Y-94459857D02*
X253593213Y-94459844D01*
X235615565Y-93137212D02*
X236641693Y-93137225D01*
X195457491Y-93211413D02*
X195498069Y-93211409D01*
X185000787Y-103668126D02*
X195457491Y-93211413D01*
X197811350Y-90898101D02*
X233376469Y-90898123D01*
X233376469Y-90898123D02*
X235615565Y-93137212D01*
X195498069Y-93211409D02*
X197811350Y-90898101D01*
X287831486Y-95398104D02*
X292670593Y-100237223D01*
X278880792Y-95398116D02*
X287831486Y-95398104D01*
X276380800Y-97898114D02*
X278880792Y-95398116D01*
X246630798Y-88648120D02*
X247630795Y-89648108D01*
X232880803Y-88648108D02*
X246630798Y-88648120D01*
X195980811Y-90148099D02*
X231380802Y-90148103D01*
X275206591Y-100262230D02*
X276380785Y-99088002D01*
X247630795Y-89648108D02*
X261880809Y-89648121D01*
X231380802Y-90148103D02*
X232880803Y-88648108D01*
X185000806Y-101128112D02*
X195980811Y-90148099D01*
X276380785Y-99088002D02*
X276380800Y-97898114D01*
X261880809Y-89648121D02*
X266380784Y-94148104D01*
X266380784Y-94148104D02*
X269092472Y-94148107D01*
X273615589Y-98671228D02*
X273615589Y-100262227D01*
X269092472Y-94148107D02*
X273615589Y-98671228D01*
X273615589Y-100262227D02*
X275206591Y-100262230D01*
X203965213Y-157607663D02*
X204588008Y-156984865D01*
X186995277Y-157607661D02*
X203965213Y-157607663D01*
X221416692Y-153112229D02*
X226190598Y-153112212D01*
X205713017Y-155859875D02*
X206169036Y-155859876D01*
X204588008Y-156984865D02*
X205713017Y-155859875D01*
X207130796Y-154898106D02*
X219630796Y-154898111D01*
X219630796Y-154898111D02*
X221416692Y-153112229D01*
X206169036Y-155859876D02*
X207130796Y-154898106D01*
X42474198Y-98824539D02*
X40779163Y-97765379D01*
X43152330Y-98667984D02*
X42474198Y-98824539D01*
X45950884Y-100416729D02*
X43152330Y-98667984D01*
X78146335Y-135244923D02*
X75981326Y-133892078D01*
X72950518Y-130980202D02*
X71251251Y-129918370D01*
X85126524Y-133633423D02*
X78146335Y-135244923D01*
X71251251Y-129918370D02*
X68074239Y-127933166D01*
X87211464Y-130296831D02*
X85126524Y-133633423D01*
X182457073Y-150677531D02*
X96927939Y-126152450D01*
X88278043Y-130050606D02*
X87211464Y-130296831D01*
X186166804Y-157370112D02*
X182457073Y-150677531D01*
X75968289Y-133835591D02*
X73212140Y-132113382D01*
X186995280Y-157607672D02*
X186166804Y-157370112D01*
X61537181Y-112977378D02*
X54980488Y-108880315D01*
X89666255Y-127828953D02*
X88278043Y-130050606D01*
X75981326Y-133892078D02*
X75968289Y-133835591D01*
X96927939Y-126152450D02*
X89666255Y-127828953D01*
X68074239Y-127933166D02*
X66586154Y-121487517D01*
X73212140Y-132113382D02*
X72950518Y-130980202D01*
X65526083Y-120825096D02*
X64810290Y-117724680D01*
X66586154Y-121487517D02*
X65526083Y-120825096D01*
X64810290Y-117724680D02*
X62266148Y-116134920D01*
X62266148Y-116134920D02*
X61537181Y-112977378D01*
X46221275Y-101587984D02*
X45950884Y-100416729D01*
X54980488Y-108880315D02*
X54489774Y-106754699D01*
X54489774Y-106754699D02*
X46221275Y-101587984D01*
X138652382Y-89959814D02*
X136926608Y-88881430D01*
X133421339Y-96095040D02*
X132758952Y-97155090D01*
X121078648Y-79097761D02*
X120236432Y-80445573D01*
X133421342Y-96095043D02*
X133299291Y-95566357D01*
X122415671Y-78789080D02*
X121078648Y-79097761D01*
X132758955Y-97155097D02*
X133421342Y-96095043D01*
X133299291Y-95566357D02*
X130916332Y-94077319D01*
X128224804Y-82419026D02*
X122415671Y-78789080D01*
X130916332Y-94077319D02*
X128224804Y-82419026D01*
X182680950Y-103775982D02*
X171195811Y-110142321D01*
X185000795Y-98588101D02*
X184011292Y-99136625D01*
X184011292Y-99136625D02*
X182680950Y-103775982D01*
X150998255Y-94680552D02*
X140128987Y-94680535D01*
X167953106Y-118367137D02*
X167953119Y-111635422D01*
X167953119Y-111635422D02*
X150998255Y-94680552D01*
X170216460Y-89784576D02*
X170046855Y-89678616D01*
X180749943Y-89409504D02*
X185000799Y-88428110D01*
X178346470Y-87907635D02*
X180749943Y-89409504D01*
X178346470Y-87907635D02*
X170216460Y-89784576D01*
X141662971Y-91841021D02*
X143388741Y-92919408D01*
X156068361Y-91076972D02*
X153136776Y-91753792D01*
X158205498Y-92412395D02*
X156068361Y-91076972D01*
X170046855Y-89678616D02*
X158205498Y-92412395D01*
X153136776Y-91753792D02*
X125806431Y-74710295D01*
M02*
