G04 #@! TF.GenerationSoftware,KiCad,Pcbnew,(5.1.5)-3*
G04 #@! TF.CreationDate,2020-11-08T14:52:40+01:00*
G04 #@! TF.ProjectId,aegis,61656769-732e-46b6-9963-61645f706362,rev?*
G04 #@! TF.SameCoordinates,Original*
G04 #@! TF.FileFunction,Legend,Top*
G04 #@! TF.FilePolarity,Positive*
%FSLAX46Y46*%
G04 Gerber Fmt 4.6, Leading zero omitted, Abs format (unit mm)*
G04 Created by KiCad (PCBNEW (5.1.5)-3) date 2020-11-08 14:52:40*
%MOMM*%
%LPD*%
G04 APERTURE LIST*
%ADD10C,0.150000*%
%ADD11C,0.100000*%
%ADD12C,0.350000*%
%ADD13C,2.102000*%
%ADD14O,1.832000X2.132000*%
%ADD15R,1.832000X2.132000*%
%ADD16C,1.832000*%
%ADD17C,1.499000*%
%ADD18R,1.052000X1.402000*%
%ADD19R,1.499000X1.499000*%
%ADD20C,2.007000*%
%ADD21C,3.602000*%
%ADD22C,1.502000*%
%ADD23C,1.502000*%
%ADD24C,1.702000*%
%ADD25R,1.702000X1.702000*%
%ADD26C,2.352000*%
%ADD27C,4.089800*%
%ADD28C,1.852000*%
G04 APERTURE END LIST*
D10*
X162795243Y-92326395D02*
X162795243Y-93135919D01*
X162842862Y-93231157D01*
X162890481Y-93278776D01*
X162985719Y-93326395D01*
X163176195Y-93326395D01*
X163271433Y-93278776D01*
X163319052Y-93231157D01*
X163366671Y-93135919D01*
X163366671Y-92326395D01*
X163795243Y-93278776D02*
X163938100Y-93326395D01*
X164176195Y-93326395D01*
X164271433Y-93278776D01*
X164319052Y-93231157D01*
X164366671Y-93135919D01*
X164366671Y-93040681D01*
X164319052Y-92945443D01*
X164271433Y-92897824D01*
X164176195Y-92850205D01*
X163985719Y-92802586D01*
X163890481Y-92754967D01*
X163842862Y-92707348D01*
X163795243Y-92612110D01*
X163795243Y-92516872D01*
X163842862Y-92421634D01*
X163890481Y-92374015D01*
X163985719Y-92326395D01*
X164223814Y-92326395D01*
X164366671Y-92374015D01*
X165128576Y-92802586D02*
X165271433Y-92850205D01*
X165319052Y-92897824D01*
X165366671Y-92993062D01*
X165366671Y-93135919D01*
X165319052Y-93231157D01*
X165271433Y-93278776D01*
X165176195Y-93326395D01*
X164795243Y-93326395D01*
X164795243Y-92326395D01*
X165128576Y-92326395D01*
X165223814Y-92374015D01*
X165271433Y-92421634D01*
X165319052Y-92516872D01*
X165319052Y-92612110D01*
X165271433Y-92707348D01*
X165223814Y-92754967D01*
X165128576Y-92802586D01*
X164795243Y-92802586D01*
X163271433Y-93976395D02*
X163271433Y-94785919D01*
X163319052Y-94881157D01*
X163366671Y-94928776D01*
X163461909Y-94976395D01*
X163652386Y-94976395D01*
X163747624Y-94928776D01*
X163795243Y-94881157D01*
X163842862Y-94785919D01*
X163842862Y-93976395D01*
X164319052Y-94976395D02*
X164319052Y-93976395D01*
X164700005Y-93976395D01*
X164795243Y-94024015D01*
X164842862Y-94071634D01*
X164890481Y-94166872D01*
X164890481Y-94309729D01*
X164842862Y-94404967D01*
X164795243Y-94452586D01*
X164700005Y-94500205D01*
X164319052Y-94500205D01*
X111417381Y-85457894D02*
X106329092Y-82278378D01*
X106329092Y-82278378D02*
X106196613Y-82490390D01*
X111417381Y-85457894D02*
X111284901Y-85669906D01*
X109562664Y-88426062D02*
X109695143Y-88214050D01*
X109562664Y-88426062D02*
X104474375Y-85246546D01*
X104474375Y-85246546D02*
X104606855Y-85034534D01*
D11*
G36*
X175664744Y-132988233D02*
G01*
X175652264Y-133001272D01*
X175599527Y-133030972D01*
X175591342Y-133030736D01*
X175596416Y-133001874D01*
X175608897Y-132988836D01*
X175661634Y-132959137D01*
X175669818Y-132959372D01*
X175664744Y-132988233D01*
G37*
G36*
X175670311Y-133100852D02*
G01*
X175613618Y-133123501D01*
X175562180Y-133115281D01*
X175554793Y-133095678D01*
X175596798Y-133077580D01*
X175634390Y-133072106D01*
X175680027Y-133081912D01*
X175670311Y-133100852D01*
G37*
G36*
X172955659Y-137879047D02*
G01*
X172990292Y-137932607D01*
X172991371Y-137943473D01*
X172965679Y-137955396D01*
X172934281Y-137903168D01*
X172931051Y-137892688D01*
X172934449Y-137861546D01*
X172955659Y-137879047D01*
G37*
G36*
X172907558Y-138015823D02*
G01*
X172895964Y-138030679D01*
X172845130Y-138060877D01*
X172837601Y-138060878D01*
X172828595Y-138021983D01*
X172830913Y-138012026D01*
X172876210Y-137979885D01*
X172889275Y-137981828D01*
X172907558Y-138015823D01*
G37*
G36*
X172898369Y-138758840D02*
G01*
X172870467Y-138774306D01*
X172855001Y-138746404D01*
X172882903Y-138730938D01*
X172898369Y-138758840D01*
G37*
G36*
X172861063Y-138888942D02*
G01*
X172833161Y-138904409D01*
X172817694Y-138876507D01*
X172845596Y-138861041D01*
X172861063Y-138888942D01*
G37*
G36*
X172686129Y-138066525D02*
G01*
X172745927Y-138111303D01*
X172747041Y-138114257D01*
X172788372Y-138171148D01*
X172877422Y-138260809D01*
X172951821Y-138326916D01*
X173046757Y-138416876D01*
X173086612Y-138475969D01*
X173075064Y-138491974D01*
X173006746Y-138460043D01*
X172988213Y-138426587D01*
X172953616Y-138379877D01*
X172920577Y-138394958D01*
X172851999Y-138411769D01*
X172728690Y-138411422D01*
X172648308Y-138403329D01*
X172487181Y-138392074D01*
X172288873Y-138393223D01*
X172078234Y-138404787D01*
X171880110Y-138424775D01*
X171719350Y-138451196D01*
X171620801Y-138482060D01*
X171614019Y-138486183D01*
X171540874Y-138522041D01*
X171475200Y-138498679D01*
X171442787Y-138474642D01*
X171399325Y-138416602D01*
X171424936Y-138384843D01*
X171499174Y-138394306D01*
X171531849Y-138409561D01*
X171606699Y-138447386D01*
X171614401Y-138434036D01*
X171580410Y-138384040D01*
X171545811Y-138283425D01*
X171550308Y-138270600D01*
X171595368Y-138283521D01*
X171593928Y-138311010D01*
X171615989Y-138320723D01*
X171656236Y-138315091D01*
X171653191Y-138300101D01*
X171603213Y-138280153D01*
X171595368Y-138283521D01*
X171550308Y-138270600D01*
X171576960Y-138194596D01*
X171608168Y-138107057D01*
X171583767Y-138076815D01*
X171573984Y-138056986D01*
X171632339Y-138029871D01*
X171737548Y-138000208D01*
X171868323Y-137972729D01*
X172003377Y-137952170D01*
X172121422Y-137943267D01*
X172174566Y-137945409D01*
X172380583Y-137977719D01*
X172557726Y-138020044D01*
X172686129Y-138066525D01*
G37*
G36*
X172086244Y-139081347D02*
G01*
X172072898Y-139105422D01*
X172049042Y-139101968D01*
X172017895Y-139075865D01*
X172028420Y-139064766D01*
X172081375Y-139074334D01*
X172086244Y-139081347D01*
G37*
G36*
X176683999Y-133085916D02*
G01*
X176656097Y-133101381D01*
X176640630Y-133073480D01*
X176668532Y-133058014D01*
X176683999Y-133085916D01*
G37*
G36*
X176318299Y-133160965D02*
G01*
X176308731Y-133213921D01*
X176301718Y-133218789D01*
X176277643Y-133205443D01*
X176281097Y-133181586D01*
X176307200Y-133150440D01*
X176318299Y-133160965D01*
G37*
G36*
X176423479Y-133339748D02*
G01*
X176395577Y-133355214D01*
X176380111Y-133327312D01*
X176408013Y-133311846D01*
X176423479Y-133339748D01*
G37*
G36*
X176671250Y-133457729D02*
G01*
X176643348Y-133473195D01*
X176627882Y-133445293D01*
X176655784Y-133429828D01*
X176671250Y-133457729D01*
G37*
G36*
X176684470Y-133325822D02*
G01*
X176624851Y-133374024D01*
X176533030Y-133417809D01*
X176478118Y-133425816D01*
X176478498Y-133397354D01*
X176538117Y-133349153D01*
X176629938Y-133305367D01*
X176684850Y-133297361D01*
X176684470Y-133325822D01*
G37*
G36*
X176013765Y-133228267D02*
G01*
X175938826Y-133279242D01*
X175921563Y-133289693D01*
X175826449Y-133341356D01*
X175769707Y-133362917D01*
X175766936Y-133362688D01*
X175785992Y-133338684D01*
X175860932Y-133287709D01*
X175878194Y-133277258D01*
X175973308Y-133225594D01*
X176030050Y-133204033D01*
X176032823Y-133204262D01*
X176013765Y-133228267D01*
G37*
G36*
X176044096Y-133467104D02*
G01*
X176010207Y-133491895D01*
X175965884Y-133508844D01*
X175987444Y-133467998D01*
X175992891Y-133460656D01*
X176042474Y-133417401D01*
X176062116Y-133422621D01*
X176044096Y-133467104D01*
G37*
G36*
X177525909Y-134023511D02*
G01*
X177516341Y-134076467D01*
X177509328Y-134081334D01*
X177485253Y-134067989D01*
X177488706Y-134044132D01*
X177514810Y-134012986D01*
X177525909Y-134023511D01*
G37*
G36*
X178182434Y-134407323D02*
G01*
X178154532Y-134422789D01*
X178139066Y-134394887D01*
X178166968Y-134379422D01*
X178182434Y-134407323D01*
G37*
G36*
X174397003Y-133368802D02*
G01*
X174369103Y-133384268D01*
X174353636Y-133356367D01*
X174381538Y-133340901D01*
X174397003Y-133368802D01*
G37*
G36*
X177828181Y-134009574D02*
G01*
X177829528Y-134056139D01*
X177812073Y-134152910D01*
X177776090Y-134197110D01*
X177737856Y-134172906D01*
X177729537Y-134153400D01*
X177699417Y-134106943D01*
X177667933Y-134130178D01*
X177604362Y-134163600D01*
X177484370Y-134195420D01*
X177408467Y-134208311D01*
X177263227Y-134227342D01*
X177187051Y-134232989D01*
X177159778Y-134225343D01*
X177159707Y-134209427D01*
X177202809Y-134186662D01*
X177298979Y-134159600D01*
X177303342Y-134158625D01*
X177381298Y-134129470D01*
X177371860Y-134099158D01*
X177277693Y-134072050D01*
X177247431Y-134067176D01*
X177208564Y-134049724D01*
X177244047Y-134020486D01*
X177312851Y-134008751D01*
X177390694Y-134063754D01*
X177453121Y-134109612D01*
X177516705Y-134103330D01*
X177614463Y-134041336D01*
X177617367Y-134039232D01*
X177735903Y-133963912D01*
X177802398Y-133953726D01*
X177828181Y-134009574D01*
G37*
G36*
X177669196Y-134319885D02*
G01*
X177661517Y-134324604D01*
X177588997Y-134344134D01*
X177492874Y-134344472D01*
X177403390Y-134329905D01*
X177350781Y-134304720D01*
X177354164Y-134281027D01*
X177422389Y-134269109D01*
X177465123Y-134285278D01*
X177565808Y-134310876D01*
X177629662Y-134306780D01*
X177689686Y-134298695D01*
X177669196Y-134319885D01*
G37*
G36*
X174576536Y-133561083D02*
G01*
X174548634Y-133576549D01*
X174533168Y-133548647D01*
X174561070Y-133533181D01*
X174576536Y-133561083D01*
G37*
G36*
X178060741Y-134325458D02*
G01*
X178042303Y-134374041D01*
X177977320Y-134415099D01*
X177884941Y-134429499D01*
X177873317Y-134428569D01*
X177762390Y-134445564D01*
X177704284Y-134473967D01*
X177655132Y-134502740D01*
X177673198Y-134474127D01*
X177674349Y-134472833D01*
X177769928Y-134390200D01*
X177884266Y-134322266D01*
X177884958Y-134322023D01*
X177965596Y-134345146D01*
X177981061Y-134373047D01*
X178008963Y-134357581D01*
X177993497Y-134329680D01*
X177965596Y-134345146D01*
X177884958Y-134322023D01*
X177982781Y-134287830D01*
X178013493Y-134288480D01*
X178060741Y-134325458D01*
G37*
G36*
X175135124Y-133688988D02*
G01*
X175120859Y-133758249D01*
X175107865Y-133771128D01*
X175091863Y-133752542D01*
X175101409Y-133707676D01*
X175125270Y-133664439D01*
X175135124Y-133688988D01*
G37*
G36*
X178814141Y-134823130D02*
G01*
X178844339Y-134873964D01*
X178844339Y-134881493D01*
X178805445Y-134890498D01*
X178795487Y-134888182D01*
X178763346Y-134842885D01*
X178765289Y-134829819D01*
X178799285Y-134811537D01*
X178814141Y-134823130D01*
G37*
G36*
X178256931Y-134564283D02*
G01*
X178268174Y-134593935D01*
X178267753Y-134680120D01*
X178203103Y-134704604D01*
X178123879Y-134684632D01*
X178019971Y-134645303D01*
X178133563Y-134582526D01*
X178217636Y-134545568D01*
X178256931Y-134564283D01*
G37*
G36*
X177413937Y-134468562D02*
G01*
X177386035Y-134484028D01*
X177370569Y-134456126D01*
X177398471Y-134440660D01*
X177413937Y-134468562D01*
G37*
G36*
X174073425Y-133465225D02*
G01*
X174039535Y-133490016D01*
X173995213Y-133506966D01*
X174016772Y-133466120D01*
X174022219Y-133458778D01*
X174071802Y-133415524D01*
X174091445Y-133420743D01*
X174073425Y-133465225D01*
G37*
G36*
X177251017Y-134326622D02*
G01*
X177265011Y-134333221D01*
X177226742Y-134349962D01*
X177133611Y-134386018D01*
X177107572Y-134395794D01*
X177009156Y-134425442D01*
X176985750Y-134411834D01*
X176995235Y-134395876D01*
X177055723Y-134350804D01*
X177080412Y-134349458D01*
X177111920Y-134331555D01*
X177110411Y-134321183D01*
X177135812Y-134298653D01*
X177182673Y-134305029D01*
X177251017Y-134326622D01*
G37*
G36*
X172271671Y-133087908D02*
G01*
X172243769Y-133103374D01*
X172228303Y-133075472D01*
X172256204Y-133060006D01*
X172271671Y-133087908D01*
G37*
G36*
X178795383Y-134997663D02*
G01*
X178782037Y-135021738D01*
X178758181Y-135018285D01*
X178727034Y-134992182D01*
X178737559Y-134981083D01*
X178790515Y-134990651D01*
X178795383Y-134997663D01*
G37*
G36*
X177823877Y-133826210D02*
G01*
X177800411Y-133840896D01*
X177726884Y-133885804D01*
X177663193Y-133942947D01*
X177593156Y-133993724D01*
X177551402Y-133992259D01*
X177495860Y-133984030D01*
X177478502Y-133995416D01*
X177411474Y-134005736D01*
X177367070Y-133986636D01*
X177274701Y-133969544D01*
X177227917Y-133987358D01*
X177152866Y-134011575D01*
X177013491Y-134034802D01*
X176835650Y-134053065D01*
X176772656Y-134057341D01*
X176470203Y-134093237D01*
X176242821Y-134161910D01*
X176190003Y-134188005D01*
X176085082Y-134241985D01*
X176027701Y-134264224D01*
X176024719Y-134257944D01*
X176151650Y-134128649D01*
X176284161Y-134032801D01*
X176396008Y-133988638D01*
X176413707Y-133987616D01*
X176498670Y-133977571D01*
X176527911Y-133957612D01*
X176573824Y-133937455D01*
X176688056Y-133912162D01*
X176849201Y-133886166D01*
X176914622Y-133877485D01*
X177145178Y-133846478D01*
X177296120Y-133819728D01*
X177377723Y-133793635D01*
X177400261Y-133764598D01*
X177374010Y-133729017D01*
X177363177Y-133720311D01*
X177334432Y-133688522D01*
X177380632Y-133690240D01*
X177432575Y-133702801D01*
X177525363Y-133737353D01*
X177541022Y-133777997D01*
X177529417Y-133797671D01*
X177512598Y-133852669D01*
X177555976Y-133867623D01*
X177635866Y-133835742D01*
X177643837Y-133830481D01*
X177739211Y-133798255D01*
X177786872Y-133801814D01*
X177823877Y-133826210D01*
G37*
G36*
X176177657Y-133855092D02*
G01*
X176116860Y-133916809D01*
X176014276Y-134007164D01*
X175879774Y-134119806D01*
X175800852Y-134182663D01*
X175764365Y-134204419D01*
X175757175Y-134193760D01*
X175761868Y-134173970D01*
X175803588Y-134121493D01*
X175893188Y-134040018D01*
X176003809Y-133951108D01*
X176108593Y-133876323D01*
X176180683Y-133837224D01*
X176181706Y-133836925D01*
X176177657Y-133855092D01*
G37*
G36*
X172333535Y-133199514D02*
G01*
X172305633Y-133214981D01*
X172290168Y-133187079D01*
X172318069Y-133171612D01*
X172333535Y-133199514D01*
G37*
G36*
X176550459Y-132954571D02*
G01*
X176581316Y-133001755D01*
X176542591Y-133049976D01*
X176421975Y-133083521D01*
X176375881Y-133089693D01*
X176246674Y-133101058D01*
X176159590Y-133102850D01*
X176141864Y-133099795D01*
X176089740Y-133108298D01*
X175999694Y-133146851D01*
X175903712Y-133187415D01*
X175846417Y-133197745D01*
X175785811Y-133222535D01*
X175702358Y-133308694D01*
X175612228Y-133436231D01*
X175531594Y-133585156D01*
X175529738Y-133589203D01*
X175465813Y-133711603D01*
X175414414Y-133781951D01*
X175385625Y-133794314D01*
X175389532Y-133742755D01*
X175422665Y-133652224D01*
X175459273Y-133559231D01*
X175456353Y-133539609D01*
X175420422Y-133577359D01*
X175364393Y-133668742D01*
X175301744Y-133805491D01*
X175274937Y-133875902D01*
X175225064Y-133996411D01*
X175180429Y-134069643D01*
X175161393Y-134080780D01*
X175151342Y-134037833D01*
X175178787Y-133948899D01*
X175180343Y-133945423D01*
X175211179Y-133856032D01*
X175207653Y-133812500D01*
X175206902Y-133812238D01*
X175201851Y-133771660D01*
X175228121Y-133702692D01*
X175253834Y-133626759D01*
X175215160Y-133597328D01*
X175184377Y-133593243D01*
X175124074Y-133577330D01*
X175120156Y-133528775D01*
X175151846Y-133453144D01*
X175191296Y-133365929D01*
X175186130Y-133351258D01*
X175130544Y-133400224D01*
X175122383Y-133407906D01*
X175053882Y-133455312D01*
X175028120Y-133434904D01*
X175001966Y-133437130D01*
X174935430Y-133498493D01*
X174842357Y-133606010D01*
X174832643Y-133618148D01*
X174729995Y-133742002D01*
X174668803Y-133799656D01*
X174638684Y-133798761D01*
X174630498Y-133767105D01*
X174644598Y-133687353D01*
X174674696Y-133671146D01*
X174718305Y-133632966D01*
X174721997Y-133599163D01*
X174750169Y-133516113D01*
X174783027Y-133483647D01*
X174834565Y-133411503D01*
X174875535Y-133292399D01*
X174880719Y-133266954D01*
X174930408Y-133113435D01*
X174945817Y-133086161D01*
X175235457Y-133169214D01*
X175232129Y-133187590D01*
X175266275Y-133176052D01*
X175374513Y-133112605D01*
X175381168Y-133106977D01*
X175451945Y-133127272D01*
X175481595Y-133126260D01*
X175487826Y-133124627D01*
X175537171Y-133128870D01*
X175525991Y-133169020D01*
X175463045Y-133219229D01*
X175421721Y-133254681D01*
X175428589Y-133265668D01*
X175483472Y-133250967D01*
X175588664Y-133203174D01*
X175667136Y-133162118D01*
X175770188Y-133102722D01*
X175819708Y-133068007D01*
X175813506Y-133064053D01*
X175750627Y-133047079D01*
X175739234Y-133026975D01*
X175757815Y-132989661D01*
X175781811Y-132991485D01*
X175857063Y-132977065D01*
X175918029Y-132936678D01*
X175966977Y-132874435D01*
X175950438Y-132852104D01*
X175884030Y-132857798D01*
X175780733Y-132888478D01*
X175670939Y-132931997D01*
X175585042Y-132976207D01*
X175553434Y-133008959D01*
X175554056Y-133010538D01*
X175535968Y-133056125D01*
X175497186Y-133090562D01*
X175451945Y-133127272D01*
X175381168Y-133106977D01*
X175425783Y-133069256D01*
X175474485Y-133009784D01*
X175460767Y-133000948D01*
X175394776Y-133039762D01*
X175311328Y-133102978D01*
X175235457Y-133169214D01*
X174945817Y-133086161D01*
X175009295Y-132973804D01*
X175014614Y-132966987D01*
X175078037Y-132875138D01*
X175102428Y-132813540D01*
X175101064Y-132807472D01*
X175065344Y-132812122D01*
X175003636Y-132875442D01*
X174931073Y-132975783D01*
X174862788Y-133091499D01*
X174813915Y-133200941D01*
X174804806Y-133231261D01*
X174754012Y-133356849D01*
X174683765Y-133449224D01*
X174678700Y-133453235D01*
X174618378Y-133484344D01*
X174605896Y-133463901D01*
X174599833Y-133406559D01*
X174552661Y-133408451D01*
X174489194Y-133467198D01*
X174483214Y-133475656D01*
X174439154Y-133535561D01*
X174428348Y-133518604D01*
X174433725Y-133449732D01*
X174423338Y-133342346D01*
X174393527Y-133283339D01*
X174371291Y-133199647D01*
X174395523Y-133048077D01*
X174404153Y-133016518D01*
X174431694Y-132891315D01*
X174431858Y-132885993D01*
X174787783Y-132988053D01*
X174793415Y-133028301D01*
X174808405Y-133025255D01*
X174828353Y-132975277D01*
X174824985Y-132967432D01*
X174797496Y-132965992D01*
X174787783Y-132988053D01*
X174431858Y-132885993D01*
X174434237Y-132807983D01*
X174423174Y-132789637D01*
X174390034Y-132822259D01*
X174360317Y-132926111D01*
X174352350Y-132973843D01*
X174311918Y-133134679D01*
X174235773Y-133245157D01*
X174213679Y-133265415D01*
X174132287Y-133322296D01*
X174091004Y-133311369D01*
X174083560Y-133293458D01*
X174060658Y-133267991D01*
X174030257Y-133329918D01*
X174029025Y-133333686D01*
X174002793Y-133404000D01*
X173989975Y-133390217D01*
X173984179Y-133344294D01*
X173973083Y-133280984D01*
X173950282Y-133296973D01*
X173921864Y-133349891D01*
X173905828Y-133363326D01*
X173912564Y-133302834D01*
X173940500Y-133181378D01*
X173943854Y-133168464D01*
X173979791Y-133013809D01*
X173985223Y-132938007D01*
X173960498Y-132935115D01*
X173957422Y-132937685D01*
X173912347Y-132965264D01*
X173912342Y-132933723D01*
X173897847Y-132890683D01*
X173876904Y-132891131D01*
X173833381Y-132939820D01*
X173786206Y-133044263D01*
X173772354Y-133086857D01*
X173716340Y-133219304D01*
X173644461Y-133320519D01*
X173626950Y-133335728D01*
X173565570Y-133370890D01*
X173565749Y-133341644D01*
X173588626Y-133259010D01*
X173606985Y-133131024D01*
X173609996Y-133096197D01*
X173623537Y-132912346D01*
X173550659Y-133030070D01*
X173493366Y-133156978D01*
X173468882Y-133264756D01*
X173459985Y-133381717D01*
X173420829Y-133253156D01*
X173393084Y-133168618D01*
X173380558Y-133165393D01*
X173374035Y-133228069D01*
X173357013Y-133293959D01*
X173334040Y-133295965D01*
X173297258Y-133299562D01*
X173280776Y-133333307D01*
X173250727Y-133374126D01*
X173211611Y-133333800D01*
X173167635Y-133220434D01*
X173123006Y-133042132D01*
X173118660Y-133020998D01*
X173093565Y-132890637D01*
X173247924Y-132934898D01*
X173230178Y-133033417D01*
X173220487Y-133143939D01*
X173221331Y-133235084D01*
X173235191Y-133275477D01*
X173240049Y-133274541D01*
X173257735Y-133226985D01*
X173278858Y-133119395D01*
X173288914Y-133050631D01*
X173296603Y-132936774D01*
X173285662Y-132879061D01*
X173271248Y-132879757D01*
X173247924Y-132934898D01*
X173093565Y-132890637D01*
X173087314Y-132858169D01*
X173075853Y-132769923D01*
X173084155Y-132742862D01*
X173112097Y-132763584D01*
X173116344Y-132768182D01*
X173183723Y-132788770D01*
X173258036Y-132755053D01*
X173297431Y-132688627D01*
X173297566Y-132674644D01*
X173316623Y-132621958D01*
X173339571Y-132619719D01*
X173368157Y-132667176D01*
X173362709Y-132720221D01*
X173357840Y-132799913D01*
X173399851Y-132814092D01*
X173476236Y-132765179D01*
X173485388Y-132755399D01*
X173622915Y-132794834D01*
X173628546Y-132835080D01*
X173643536Y-132832036D01*
X173663485Y-132782057D01*
X173660117Y-132774212D01*
X173632628Y-132772773D01*
X173622915Y-132794834D01*
X173485388Y-132755399D01*
X173552748Y-132683417D01*
X173675088Y-132568735D01*
X173785487Y-132537838D01*
X173872248Y-132585744D01*
X173888677Y-132659022D01*
X173872936Y-132693638D01*
X173862324Y-132765201D01*
X173884249Y-132794012D01*
X173924641Y-132801185D01*
X173961260Y-132744805D01*
X173967612Y-132725495D01*
X174061209Y-132752334D01*
X174053053Y-132810869D01*
X174067665Y-132815785D01*
X174094662Y-132760711D01*
X174094923Y-132733646D01*
X174080377Y-132711697D01*
X174061209Y-132752334D01*
X173967612Y-132725495D01*
X173996606Y-132637359D01*
X174036421Y-132517838D01*
X174071242Y-132471700D01*
X174112881Y-132483673D01*
X174114556Y-132484919D01*
X174176313Y-132527448D01*
X174192382Y-132535724D01*
X174184962Y-132569055D01*
X174165542Y-132598428D01*
X174151479Y-132654671D01*
X174169934Y-132670087D01*
X174209921Y-132655442D01*
X174832492Y-132833961D01*
X174864484Y-132869213D01*
X174866931Y-132869948D01*
X174927457Y-132850611D01*
X174982762Y-132805742D01*
X175028766Y-132751053D01*
X175000318Y-132742757D01*
X174952918Y-132751902D01*
X174867347Y-132787476D01*
X174832492Y-132833961D01*
X174209921Y-132655442D01*
X174221139Y-132651334D01*
X174234934Y-132592089D01*
X174373649Y-132631865D01*
X174392467Y-132685055D01*
X174403848Y-132690228D01*
X174450331Y-132687543D01*
X174452699Y-132683539D01*
X174432927Y-132637798D01*
X174422501Y-132625176D01*
X174381552Y-132617155D01*
X174373649Y-132631865D01*
X174234934Y-132592089D01*
X174237378Y-132581593D01*
X174216646Y-132510431D01*
X174213928Y-132491913D01*
X175276584Y-132796624D01*
X175281707Y-132801149D01*
X175330037Y-132781967D01*
X175342628Y-132771684D01*
X175365306Y-132734309D01*
X175360184Y-132729784D01*
X175311852Y-132748966D01*
X175299261Y-132759249D01*
X175276584Y-132796624D01*
X174213928Y-132491913D01*
X174207964Y-132451290D01*
X174238520Y-132434147D01*
X174282724Y-132441710D01*
X174283340Y-132455781D01*
X174314309Y-132491530D01*
X174404233Y-132530492D01*
X174421435Y-132535696D01*
X174545568Y-132551938D01*
X174585408Y-132531088D01*
X174893485Y-132619428D01*
X174908951Y-132647330D01*
X174936853Y-132631863D01*
X174934275Y-132627212D01*
X175158152Y-132691408D01*
X175149996Y-132749943D01*
X175164607Y-132754860D01*
X175191604Y-132699785D01*
X175191866Y-132672720D01*
X175177320Y-132650771D01*
X175158152Y-132691408D01*
X174934275Y-132627212D01*
X174921387Y-132603961D01*
X174893485Y-132619428D01*
X174585408Y-132531088D01*
X174629580Y-132507971D01*
X174641033Y-132495426D01*
X174684073Y-132454941D01*
X174736811Y-132441499D01*
X174821549Y-132456833D01*
X174960589Y-132502671D01*
X175022989Y-132525077D01*
X175190979Y-132584937D01*
X175336593Y-132635195D01*
X175429249Y-132665300D01*
X175431316Y-132665906D01*
X175494285Y-132698253D01*
X175496147Y-132723579D01*
X175491085Y-132777040D01*
X175505565Y-132798947D01*
X175534662Y-132813612D01*
X175532260Y-132791297D01*
X175553370Y-132746611D01*
X175619950Y-132729919D01*
X175689528Y-132749027D01*
X175702196Y-132760072D01*
X175740021Y-132768850D01*
X175745286Y-132758706D01*
X175791245Y-132742569D01*
X175890456Y-132750934D01*
X175910632Y-132754945D01*
X176009419Y-132788060D01*
X176052832Y-132826573D01*
X176052525Y-132832973D01*
X176078048Y-132876559D01*
X176153897Y-132909265D01*
X176240173Y-132919403D01*
X176290658Y-132902726D01*
X176363719Y-132885669D01*
X176464216Y-132907684D01*
X176550459Y-132954571D01*
G37*
G36*
X173385171Y-133459019D02*
G01*
X173389277Y-133466260D01*
X173407228Y-133532944D01*
X173396589Y-133552515D01*
X173368061Y-133530250D01*
X173358038Y-133483577D01*
X173359363Y-133429125D01*
X173385171Y-133459019D01*
G37*
G36*
X175734717Y-134268655D02*
G01*
X175706815Y-134284120D01*
X175691349Y-134256219D01*
X175719251Y-134240753D01*
X175734717Y-134268655D01*
G37*
G36*
X174093984Y-133718981D02*
G01*
X174079720Y-133788242D01*
X174066726Y-133801122D01*
X174050724Y-133782536D01*
X174060270Y-133737670D01*
X174084130Y-133694432D01*
X174093984Y-133718981D01*
G37*
G36*
X175588410Y-134047371D02*
G01*
X175536388Y-134126883D01*
X175534802Y-134129196D01*
X175461508Y-134224590D01*
X175424218Y-134247245D01*
X175427454Y-134194571D01*
X175428766Y-134189895D01*
X175475469Y-134120158D01*
X175533637Y-134067432D01*
X175587556Y-134030893D01*
X175588410Y-134047371D01*
G37*
G36*
X172142389Y-133149164D02*
G01*
X172185382Y-133222232D01*
X172205518Y-133286994D01*
X172199266Y-133304336D01*
X172163470Y-133279815D01*
X172119891Y-133208941D01*
X172090858Y-133132818D01*
X172097606Y-133108396D01*
X172142389Y-133149164D01*
G37*
G36*
X178095073Y-135039343D02*
G01*
X178067171Y-135054809D01*
X178051704Y-135026908D01*
X178079606Y-135011441D01*
X178095073Y-135039343D01*
G37*
G36*
X176186891Y-134492181D02*
G01*
X176158990Y-134507646D01*
X176143523Y-134479745D01*
X176171425Y-134464279D01*
X176186891Y-134492181D01*
G37*
G36*
X175337831Y-134176607D02*
G01*
X175335150Y-134186511D01*
X175290567Y-134258589D01*
X175263733Y-134274403D01*
X175223115Y-134265867D01*
X175223404Y-134253875D01*
X175263339Y-134196848D01*
X175294822Y-134165983D01*
X175340156Y-134135000D01*
X175337831Y-134176607D01*
G37*
G36*
X173489216Y-133679587D02*
G01*
X173471916Y-133711236D01*
X173419416Y-133762244D01*
X173399719Y-133745529D01*
X173404403Y-133720552D01*
X173452763Y-133670775D01*
X173466574Y-133665541D01*
X173489216Y-133679587D01*
G37*
G36*
X178677350Y-135300176D02*
G01*
X178649448Y-135315641D01*
X178633983Y-135287740D01*
X178661884Y-135272274D01*
X178677350Y-135300176D01*
G37*
G36*
X176292123Y-134616223D02*
G01*
X176264222Y-134631688D01*
X176248756Y-134603788D01*
X176276657Y-134588321D01*
X176292123Y-134616223D01*
G37*
G36*
X175799522Y-134320722D02*
G01*
X175784339Y-134366860D01*
X175749856Y-134456836D01*
X175729866Y-134471608D01*
X175712990Y-134427064D01*
X175729499Y-134356636D01*
X175761795Y-134313867D01*
X175801746Y-134283049D01*
X175799522Y-134320722D01*
G37*
G36*
X174123736Y-133994448D02*
G01*
X174095834Y-134009913D01*
X174080368Y-133982012D01*
X174108270Y-133966546D01*
X174123736Y-133994448D01*
G37*
G36*
X178838386Y-135393285D02*
G01*
X178810484Y-135408752D01*
X178795018Y-135380850D01*
X178822919Y-135365383D01*
X178838386Y-135393285D01*
G37*
G36*
X174544978Y-134162170D02*
G01*
X174517076Y-134177637D01*
X174501610Y-134149735D01*
X174529511Y-134134268D01*
X174544978Y-134162170D01*
G37*
G36*
X173374049Y-133826412D02*
G01*
X173346147Y-133841878D01*
X173330680Y-133813976D01*
X173358582Y-133798510D01*
X173374049Y-133826412D01*
G37*
G36*
X173243945Y-133789105D02*
G01*
X173216044Y-133804572D01*
X173200577Y-133776670D01*
X173228479Y-133761203D01*
X173243945Y-133789105D01*
G37*
G36*
X172723532Y-133639879D02*
G01*
X172695630Y-133655345D01*
X172680165Y-133627444D01*
X172708066Y-133611977D01*
X172723532Y-133639879D01*
G37*
G36*
X178455804Y-135055600D02*
G01*
X178456040Y-135056027D01*
X178522281Y-135129382D01*
X178560117Y-135149225D01*
X178595579Y-135174256D01*
X178559401Y-135223658D01*
X178547344Y-135234747D01*
X178470032Y-135274343D01*
X178425137Y-135266906D01*
X178355288Y-135257840D01*
X178336114Y-135269528D01*
X178259453Y-135296085D01*
X178206351Y-135251061D01*
X178218901Y-135215651D01*
X178274605Y-135231624D01*
X178290071Y-135259526D01*
X178317972Y-135244059D01*
X178302507Y-135216157D01*
X178274605Y-135231624D01*
X178218901Y-135215651D01*
X178223601Y-135202390D01*
X178280301Y-135154932D01*
X178293744Y-135143244D01*
X178386212Y-135169759D01*
X178401678Y-135197661D01*
X178429579Y-135182194D01*
X178414113Y-135154293D01*
X178386212Y-135169759D01*
X178293744Y-135143244D01*
X178338072Y-135104707D01*
X178323141Y-135081274D01*
X178299383Y-135058037D01*
X178342814Y-135023560D01*
X178408671Y-135002557D01*
X178455804Y-135055600D01*
G37*
G36*
X178076315Y-135213876D02*
G01*
X178062969Y-135237951D01*
X178039113Y-135234498D01*
X178007967Y-135208394D01*
X178018492Y-135197295D01*
X178071447Y-135206863D01*
X178076315Y-135213876D01*
G37*
G36*
X174086481Y-134069810D02*
G01*
X174076913Y-134122766D01*
X174069901Y-134127633D01*
X174045826Y-134114287D01*
X174049279Y-134090431D01*
X174075383Y-134059285D01*
X174086481Y-134069810D01*
G37*
G36*
X178407025Y-135368912D02*
G01*
X178395303Y-135383568D01*
X178325882Y-135408843D01*
X178312698Y-135406814D01*
X178296847Y-135373352D01*
X178308567Y-135358697D01*
X178377989Y-135333421D01*
X178391174Y-135335450D01*
X178407025Y-135368912D01*
G37*
G36*
X172583804Y-133553856D02*
G01*
X172595864Y-133593306D01*
X172602810Y-133688239D01*
X172586939Y-133731547D01*
X172559330Y-133753565D01*
X172561637Y-133726362D01*
X172570137Y-133638867D01*
X172570562Y-133588121D01*
X172571146Y-133528915D01*
X172583804Y-133553856D01*
G37*
G36*
X172383370Y-133554850D02*
G01*
X172401305Y-133617882D01*
X172409995Y-133692939D01*
X172401169Y-133711710D01*
X172375871Y-133668479D01*
X172357936Y-133605446D01*
X172349246Y-133530389D01*
X172358072Y-133511618D01*
X172383370Y-133554850D01*
G37*
G36*
X171879645Y-133022892D02*
G01*
X171946433Y-133086443D01*
X172018355Y-133186328D01*
X172082725Y-133298803D01*
X172126853Y-133400119D01*
X172138055Y-133466534D01*
X172123736Y-133479749D01*
X172079763Y-133517894D01*
X172076101Y-133551131D01*
X172075317Y-133605617D01*
X172054683Y-133591800D01*
X172009473Y-133503551D01*
X171974299Y-133425040D01*
X172029648Y-133440911D01*
X172045114Y-133468813D01*
X172073015Y-133453346D01*
X172057550Y-133425445D01*
X172029648Y-133440911D01*
X171974299Y-133425040D01*
X171967896Y-133410751D01*
X171922729Y-133298255D01*
X171918637Y-133254982D01*
X171954852Y-133270211D01*
X171957971Y-133272512D01*
X172009254Y-133307246D01*
X172010921Y-133286255D01*
X171978342Y-133217018D01*
X171909598Y-133125110D01*
X171843551Y-133082481D01*
X171782804Y-133042536D01*
X171776810Y-133013246D01*
X171819192Y-132996547D01*
X171879645Y-133022892D01*
G37*
G36*
X171888608Y-133183240D02*
G01*
X171876679Y-133227219D01*
X171857204Y-133227196D01*
X171841341Y-133251052D01*
X171867642Y-133327504D01*
X171870795Y-133333810D01*
X171909996Y-133431146D01*
X171919501Y-133497554D01*
X171898375Y-133511380D01*
X171877722Y-133493691D01*
X171828376Y-133489207D01*
X171812630Y-133505145D01*
X171779716Y-133526522D01*
X171761965Y-133487787D01*
X171764086Y-133419534D01*
X171776763Y-133404793D01*
X171790174Y-133354692D01*
X171779389Y-133317259D01*
X171782583Y-133224057D01*
X171810702Y-133186825D01*
X171867513Y-133155341D01*
X171888608Y-133183240D01*
G37*
G36*
X176229946Y-134833062D02*
G01*
X176202044Y-134848528D01*
X176186579Y-134820626D01*
X176214480Y-134805160D01*
X176229946Y-134833062D01*
G37*
G36*
X175926424Y-134691272D02*
G01*
X175916856Y-134744228D01*
X175909844Y-134749096D01*
X175885768Y-134735750D01*
X175889222Y-134711894D01*
X175915326Y-134680747D01*
X175926424Y-134691272D01*
G37*
G36*
X174538604Y-134348077D02*
G01*
X174510702Y-134363543D01*
X174495236Y-134335641D01*
X174523138Y-134320175D01*
X174538604Y-134348077D01*
G37*
G36*
X174049123Y-134254654D02*
G01*
X174021221Y-134270120D01*
X174005755Y-134242218D01*
X174033657Y-134226753D01*
X174049123Y-134254654D01*
G37*
G36*
X173962388Y-134229783D02*
G01*
X173934486Y-134245249D01*
X173919019Y-134217347D01*
X173946921Y-134201882D01*
X173962388Y-134229783D01*
G37*
G36*
X172097574Y-133695056D02*
G01*
X172069672Y-133710522D01*
X172054206Y-133682621D01*
X172082107Y-133667155D01*
X172097574Y-133695056D01*
G37*
G36*
X171880735Y-133632879D02*
G01*
X171852833Y-133648345D01*
X171837367Y-133620443D01*
X171865268Y-133604978D01*
X171880735Y-133632879D01*
G37*
G36*
X176015093Y-134705610D02*
G01*
X176015101Y-134713682D01*
X175994361Y-134809971D01*
X175976187Y-134843324D01*
X175961537Y-134840683D01*
X175975190Y-134771126D01*
X175978194Y-134760873D01*
X176003734Y-134695405D01*
X176015093Y-134705610D01*
G37*
G36*
X174739542Y-134219370D02*
G01*
X174752001Y-134258083D01*
X174754305Y-134372236D01*
X174732833Y-134440321D01*
X174702489Y-134485687D01*
X174698735Y-134464394D01*
X174710947Y-134367889D01*
X174717903Y-134282156D01*
X174725659Y-134208290D01*
X174739542Y-134219370D01*
G37*
G36*
X174241142Y-134348826D02*
G01*
X174231575Y-134401782D01*
X174224562Y-134406649D01*
X174200487Y-134393303D01*
X174203940Y-134369447D01*
X174230044Y-134338301D01*
X174241142Y-134348826D01*
G37*
G36*
X172927622Y-134073870D02*
G01*
X172899720Y-134089335D01*
X172884255Y-134061435D01*
X172912156Y-134045968D01*
X172927622Y-134073870D01*
G37*
G36*
X171973531Y-133800289D02*
G01*
X171945631Y-133815754D01*
X171930164Y-133787853D01*
X171958066Y-133772387D01*
X171973531Y-133800289D01*
G37*
G36*
X178531688Y-135541399D02*
G01*
X178563187Y-135602340D01*
X178562094Y-135673045D01*
X178555436Y-135688273D01*
X178507502Y-135682660D01*
X178394492Y-135661876D01*
X178239443Y-135630202D01*
X178215508Y-135625103D01*
X178062540Y-135588186D01*
X177971475Y-135557354D01*
X177954826Y-135537008D01*
X177959723Y-135535073D01*
X178052221Y-135531666D01*
X178159654Y-135550664D01*
X178243420Y-135565425D01*
X178246364Y-135552061D01*
X178317659Y-135572504D01*
X178333126Y-135600406D01*
X178361028Y-135584940D01*
X178345561Y-135557038D01*
X178317659Y-135572504D01*
X178246364Y-135552061D01*
X178248833Y-135540854D01*
X178241990Y-135532488D01*
X178228535Y-135500015D01*
X178460199Y-135566444D01*
X178475664Y-135594344D01*
X178503566Y-135578879D01*
X178488100Y-135550977D01*
X178460199Y-135566444D01*
X178228535Y-135500015D01*
X178221307Y-135482573D01*
X178281451Y-135469466D01*
X178417803Y-135491717D01*
X178531688Y-135541399D01*
G37*
G36*
X171766263Y-133751540D02*
G01*
X171772159Y-133766012D01*
X171776238Y-133809395D01*
X171739420Y-133782939D01*
X171707108Y-133747359D01*
X171683750Y-133702985D01*
X171705951Y-133700813D01*
X171766263Y-133751540D01*
G37*
G36*
X178193617Y-135677736D02*
G01*
X178165716Y-135693203D01*
X178150250Y-135665301D01*
X178178152Y-135649835D01*
X178193617Y-135677736D01*
G37*
G36*
X172975013Y-133672982D02*
G01*
X172945143Y-133780990D01*
X172926296Y-133834491D01*
X172867640Y-133975006D01*
X172810900Y-134079073D01*
X172777732Y-134116833D01*
X172755873Y-134104114D01*
X172777953Y-134016183D01*
X172814866Y-133920609D01*
X172884142Y-133766572D01*
X172938160Y-133670683D01*
X172970567Y-133637850D01*
X172975013Y-133672982D01*
G37*
G36*
X178645844Y-135846522D02*
G01*
X178632498Y-135870597D01*
X178608642Y-135867144D01*
X178577495Y-135841040D01*
X178588020Y-135829941D01*
X178640977Y-135839509D01*
X178645844Y-135846522D01*
G37*
G36*
X178515741Y-135809216D02*
G01*
X178502395Y-135833291D01*
X178478539Y-135829837D01*
X178447392Y-135803734D01*
X178457917Y-135792635D01*
X178510873Y-135802202D01*
X178515741Y-135809216D01*
G37*
G36*
X178398021Y-135783282D02*
G01*
X178370119Y-135798748D01*
X178354653Y-135770846D01*
X178382555Y-135755380D01*
X178398021Y-135783282D01*
G37*
G36*
X172848385Y-132838806D02*
G01*
X172919032Y-132888732D01*
X172933532Y-132919046D01*
X172920629Y-132976136D01*
X172893206Y-133089791D01*
X172874218Y-133166818D01*
X172847404Y-133299153D01*
X172839354Y-133393631D01*
X172844519Y-133418488D01*
X172856425Y-133501427D01*
X172824212Y-133653524D01*
X172794643Y-133745174D01*
X172752681Y-133824445D01*
X172709235Y-133818242D01*
X172707969Y-133816911D01*
X172681747Y-133799605D01*
X172700153Y-133855996D01*
X172709877Y-133960496D01*
X172683939Y-134059824D01*
X172650261Y-134125898D01*
X172645641Y-134109652D01*
X172651417Y-134079573D01*
X172653111Y-134000845D01*
X172633269Y-133939736D01*
X172605157Y-133922336D01*
X172586898Y-133952702D01*
X172552462Y-133974011D01*
X172538712Y-133963489D01*
X172547702Y-133912158D01*
X172612208Y-133822678D01*
X172665959Y-133765240D01*
X172773517Y-133655715D01*
X172822548Y-133592170D01*
X172819398Y-133557874D01*
X172770414Y-133536090D01*
X172754621Y-133531459D01*
X172691417Y-133486394D01*
X172685016Y-133446847D01*
X172676431Y-133361398D01*
X172654540Y-133317343D01*
X172626735Y-133235838D01*
X172633567Y-133199982D01*
X172641644Y-133172801D01*
X172632516Y-133179937D01*
X172582913Y-133179185D01*
X172566684Y-133165542D01*
X172541393Y-133156796D01*
X172545123Y-133182534D01*
X172537865Y-133228898D01*
X172521798Y-133230031D01*
X172487031Y-133259959D01*
X172462550Y-133342110D01*
X172448311Y-133426097D01*
X172441376Y-133421966D01*
X172436067Y-133346248D01*
X172442149Y-133207023D01*
X172470311Y-133070882D01*
X172512012Y-132969163D01*
X172548457Y-132933874D01*
X172589407Y-132884294D01*
X172591649Y-132855679D01*
X172623717Y-132797976D01*
X172664819Y-132784337D01*
X172751554Y-132797945D01*
X172848385Y-132838806D01*
G37*
G36*
X178775895Y-135938569D02*
G01*
X178747994Y-135954035D01*
X178732527Y-135926133D01*
X178760429Y-135910668D01*
X178775895Y-135938569D01*
G37*
G36*
X176095629Y-135135927D02*
G01*
X176093312Y-135145884D01*
X176048015Y-135178025D01*
X176034950Y-135176082D01*
X176016667Y-135142087D01*
X176028261Y-135127231D01*
X176079095Y-135097033D01*
X176086624Y-135097032D01*
X176095629Y-135135927D01*
G37*
G36*
X175814358Y-134641403D02*
G01*
X175815091Y-134643704D01*
X175811650Y-134722735D01*
X175781166Y-134844124D01*
X175735627Y-134972639D01*
X175687024Y-135073053D01*
X175657051Y-135108069D01*
X175654865Y-135076614D01*
X175674808Y-134980066D01*
X175711077Y-134844634D01*
X175758979Y-134694853D01*
X175792552Y-134628758D01*
X175814358Y-134641403D01*
G37*
G36*
X171638713Y-133985882D02*
G01*
X171610811Y-134001348D01*
X171595344Y-133973446D01*
X171623246Y-133957981D01*
X171638713Y-133985882D01*
G37*
G36*
X178337829Y-135948867D02*
G01*
X178319243Y-135964870D01*
X178274377Y-135955324D01*
X178231139Y-135931463D01*
X178255689Y-135921609D01*
X178324950Y-135935874D01*
X178337829Y-135948867D01*
G37*
G36*
X173831439Y-134552408D02*
G01*
X173831138Y-134555883D01*
X173815091Y-134651836D01*
X173795681Y-134672048D01*
X173780371Y-134609945D01*
X173779554Y-134601307D01*
X173794549Y-134506645D01*
X173807936Y-134480378D01*
X173828790Y-134481123D01*
X173831439Y-134552408D01*
G37*
G36*
X172674345Y-134250578D02*
G01*
X172660080Y-134319839D01*
X172647086Y-134332718D01*
X172631084Y-134314132D01*
X172640631Y-134269267D01*
X172664491Y-134226029D01*
X172674345Y-134250578D01*
G37*
G36*
X176514398Y-135477829D02*
G01*
X176486496Y-135493296D01*
X176471030Y-135465394D01*
X176498932Y-135449927D01*
X176514398Y-135477829D01*
G37*
G36*
X175647094Y-135174379D02*
G01*
X175637527Y-135227334D01*
X175630514Y-135232202D01*
X175606439Y-135218856D01*
X175609892Y-135195000D01*
X175635996Y-135163853D01*
X175647094Y-135174379D01*
G37*
G36*
X172524440Y-134123565D02*
G01*
X172540639Y-134202749D01*
X172542207Y-134219457D01*
X172545232Y-134328493D01*
X172532944Y-134355838D01*
X172509816Y-134297951D01*
X172499252Y-134253503D01*
X172492091Y-134157108D01*
X172503671Y-134111938D01*
X172524440Y-134123565D01*
G37*
G36*
X171619902Y-134215157D02*
G01*
X171592001Y-134230622D01*
X171576535Y-134202721D01*
X171604436Y-134187255D01*
X171619902Y-134215157D01*
G37*
G36*
X171464929Y-134264585D02*
G01*
X171437027Y-134280051D01*
X171421560Y-134252149D01*
X171449462Y-134236684D01*
X171464929Y-134264585D01*
G37*
G36*
X178304598Y-136272763D02*
G01*
X178276696Y-136288229D01*
X178261231Y-136260327D01*
X178289132Y-136244861D01*
X178304598Y-136272763D01*
G37*
G36*
X171582596Y-134345260D02*
G01*
X171554694Y-134360726D01*
X171539228Y-134332824D01*
X171567129Y-134317358D01*
X171582596Y-134345260D01*
G37*
G36*
X171483425Y-134363756D02*
G01*
X171455523Y-134379222D01*
X171440057Y-134351321D01*
X171467958Y-134335855D01*
X171483425Y-134363756D01*
G37*
G36*
X171384254Y-134382253D02*
G01*
X171356352Y-134397720D01*
X171340886Y-134369818D01*
X171368787Y-134354351D01*
X171384254Y-134382253D01*
G37*
G36*
X178050453Y-136340688D02*
G01*
X178022551Y-136356155D01*
X178007085Y-136328253D01*
X178034986Y-136312787D01*
X178050453Y-136340688D01*
G37*
G36*
X177790246Y-136266075D02*
G01*
X177762344Y-136281541D01*
X177746879Y-136253640D01*
X177774780Y-136238174D01*
X177790246Y-136266075D01*
G37*
G36*
X177926411Y-136445921D02*
G01*
X177898509Y-136461386D01*
X177883043Y-136433486D01*
X177910944Y-136418019D01*
X177926411Y-136445921D01*
G37*
G36*
X178000711Y-136514159D02*
G01*
X177972809Y-136529626D01*
X177957343Y-136501724D01*
X177985245Y-136486257D01*
X178000711Y-136514159D01*
G37*
G36*
X177821726Y-136458355D02*
G01*
X177855763Y-136515371D01*
X177839013Y-136537737D01*
X177832829Y-136536420D01*
X177804981Y-136495100D01*
X177797118Y-136471995D01*
X177800517Y-136440854D01*
X177821726Y-136458355D01*
G37*
G36*
X178124242Y-136597854D02*
G01*
X178155529Y-136628953D01*
X178180388Y-136673270D01*
X178165157Y-136677210D01*
X178100080Y-136635182D01*
X178068793Y-136604082D01*
X178043934Y-136559765D01*
X178059164Y-136555825D01*
X178124242Y-136597854D01*
G37*
G36*
X177019289Y-135810718D02*
G01*
X176998357Y-135872487D01*
X176972511Y-135945511D01*
X176980294Y-135972908D01*
X176999368Y-136029433D01*
X177003666Y-136122661D01*
X176987658Y-136214951D01*
X176943817Y-136234254D01*
X176936423Y-136232447D01*
X176860658Y-136243914D01*
X176841905Y-136261638D01*
X176812750Y-136270114D01*
X176802502Y-136226872D01*
X176819020Y-136124798D01*
X176838970Y-136087168D01*
X176851578Y-136030591D01*
X176831480Y-136014621D01*
X176759141Y-135955315D01*
X176712977Y-135853895D01*
X176711538Y-135772379D01*
X176753395Y-135718665D01*
X176800231Y-135738440D01*
X176814920Y-135786938D01*
X176834571Y-135827703D01*
X176892259Y-135809114D01*
X176983776Y-135780930D01*
X177019289Y-135810718D01*
G37*
G36*
X171034013Y-134570275D02*
G01*
X171021533Y-134583313D01*
X170968795Y-134613012D01*
X170960610Y-134612777D01*
X170965684Y-134583916D01*
X170978165Y-134570877D01*
X171030903Y-134541178D01*
X171039087Y-134541413D01*
X171034013Y-134570275D01*
G37*
G36*
X178266979Y-136731311D02*
G01*
X178239077Y-136746777D01*
X178223611Y-136718875D01*
X178251512Y-136703410D01*
X178266979Y-136731311D01*
G37*
G36*
X176953563Y-136346873D02*
G01*
X176940217Y-136370948D01*
X176916360Y-136367494D01*
X176885214Y-136341391D01*
X176895739Y-136330292D01*
X176948695Y-136339861D01*
X176953563Y-136346873D01*
G37*
G36*
X177851798Y-136706127D02*
G01*
X177823896Y-136721593D01*
X177808431Y-136693692D01*
X177836331Y-136678226D01*
X177851798Y-136706127D01*
G37*
G36*
X171491887Y-134538839D02*
G01*
X171400321Y-134604699D01*
X171352250Y-134658065D01*
X171351402Y-134660500D01*
X171303110Y-134694936D01*
X171198573Y-134726587D01*
X171164747Y-134733020D01*
X171006607Y-134751487D01*
X170927134Y-134739620D01*
X170916362Y-134705690D01*
X170961278Y-134673033D01*
X171062949Y-134629119D01*
X171113228Y-134611466D01*
X171215934Y-134568777D01*
X171261049Y-134531612D01*
X171256585Y-134519594D01*
X171223296Y-134461052D01*
X171224936Y-134446830D01*
X171265378Y-134433250D01*
X171314526Y-134455564D01*
X171417355Y-134486898D01*
X171505906Y-134483767D01*
X171619934Y-134460561D01*
X171491887Y-134538839D01*
G37*
G36*
X177709259Y-136712189D02*
G01*
X177681357Y-136727655D01*
X177665891Y-136699753D01*
X177693793Y-136684287D01*
X177709259Y-136712189D01*
G37*
G36*
X177727756Y-136811360D02*
G01*
X177699854Y-136826825D01*
X177684388Y-136798924D01*
X177712289Y-136783458D01*
X177727756Y-136811360D01*
G37*
G36*
X171643835Y-135113757D02*
G01*
X171615933Y-135129223D01*
X171600466Y-135101321D01*
X171628368Y-135085855D01*
X171643835Y-135113757D01*
G37*
G36*
X177746253Y-136910531D02*
G01*
X177718351Y-136925996D01*
X177702885Y-136898095D01*
X177730786Y-136882629D01*
X177746253Y-136910531D01*
G37*
G36*
X177896981Y-136873053D02*
G01*
X177933011Y-136981613D01*
X177928146Y-137064693D01*
X177900863Y-137071994D01*
X177873772Y-136995160D01*
X177863166Y-136939024D01*
X177832000Y-136747384D01*
X177896981Y-136873053D01*
G37*
G36*
X177752366Y-136998328D02*
G01*
X177742798Y-137051284D01*
X177735786Y-137056152D01*
X177711710Y-137042806D01*
X177715164Y-137018950D01*
X177741268Y-136987803D01*
X177752366Y-136998328D01*
G37*
G36*
X177492160Y-136923715D02*
G01*
X177482591Y-136976671D01*
X177475579Y-136981539D01*
X177451504Y-136968193D01*
X177454957Y-136944337D01*
X177481061Y-136913190D01*
X177492160Y-136923715D01*
G37*
G36*
X176887770Y-136557190D02*
G01*
X176879558Y-136616802D01*
X176833202Y-136703241D01*
X176780964Y-136773348D01*
X176761980Y-136769551D01*
X176760577Y-136714011D01*
X176781162Y-136625669D01*
X176824835Y-136559611D01*
X176870876Y-136541382D01*
X176887770Y-136557190D01*
G37*
G36*
X171391740Y-134860137D02*
G01*
X171345176Y-134913412D01*
X171256299Y-134984483D01*
X171173919Y-135038367D01*
X171066178Y-135097271D01*
X171000406Y-135121381D01*
X170989935Y-135113988D01*
X171022371Y-135063079D01*
X171085825Y-134989350D01*
X171158819Y-134914570D01*
X171219875Y-134860503D01*
X171247515Y-134848917D01*
X171247232Y-134853245D01*
X171272811Y-134869693D01*
X171318732Y-134856268D01*
X171386192Y-134836982D01*
X171391740Y-134860137D01*
G37*
G36*
X177282385Y-136836186D02*
G01*
X177262652Y-136926617D01*
X177251296Y-136944605D01*
X177233905Y-136945514D01*
X177244966Y-136884123D01*
X177269435Y-136824511D01*
X177282385Y-136836186D01*
G37*
G36*
X170949689Y-135188493D02*
G01*
X170940121Y-135241449D01*
X170933109Y-135246317D01*
X170909034Y-135232971D01*
X170912487Y-135209115D01*
X170938591Y-135177968D01*
X170949689Y-135188493D01*
G37*
G36*
X178006146Y-137313589D02*
G01*
X177978244Y-137329055D01*
X177962778Y-137301154D01*
X177990679Y-137285687D01*
X178006146Y-137313589D01*
G37*
G36*
X177845315Y-137176021D02*
G01*
X177862308Y-137223945D01*
X177878313Y-137310449D01*
X177862003Y-137342509D01*
X177859915Y-137342058D01*
X177818093Y-137293334D01*
X177794602Y-137225443D01*
X177785583Y-137130124D01*
X177807160Y-137113547D01*
X177845315Y-137176021D01*
G37*
G36*
X177048155Y-137051735D02*
G01*
X177045837Y-137061692D01*
X177000541Y-137093833D01*
X176987475Y-137091890D01*
X176969193Y-137057895D01*
X176980786Y-137043039D01*
X177031620Y-137012841D01*
X177039149Y-137012840D01*
X177048155Y-137051735D01*
G37*
G36*
X176890584Y-136911562D02*
G01*
X176881280Y-136951950D01*
X176824335Y-137013855D01*
X176769595Y-137015637D01*
X176748618Y-136961519D01*
X176753662Y-136934890D01*
X176802590Y-136868237D01*
X176847801Y-136864105D01*
X176890584Y-136911562D01*
G37*
G36*
X177058117Y-137182547D02*
G01*
X177030215Y-137198013D01*
X177014749Y-137170111D01*
X177042651Y-137154645D01*
X177058117Y-137182547D01*
G37*
G36*
X177956404Y-137487060D02*
G01*
X177928502Y-137502526D01*
X177913036Y-137474625D01*
X177940937Y-137459158D01*
X177956404Y-137487060D01*
G37*
G36*
X177650240Y-137229902D02*
G01*
X177683918Y-137291592D01*
X177724306Y-137403719D01*
X177726681Y-137473232D01*
X177701687Y-137484422D01*
X177674592Y-137442781D01*
X177642590Y-137363165D01*
X177614192Y-137254271D01*
X177618724Y-137206418D01*
X177650240Y-137229902D01*
G37*
G36*
X177350441Y-137095792D02*
G01*
X177323389Y-137185546D01*
X177319090Y-137198502D01*
X177276559Y-137314901D01*
X177251255Y-137349888D01*
X177237720Y-137309385D01*
X177235612Y-137289045D01*
X177256889Y-137206967D01*
X177301299Y-137131880D01*
X177343880Y-137080907D01*
X177350441Y-137095792D01*
G37*
G36*
X177434667Y-137083230D02*
G01*
X177447621Y-137140174D01*
X177461277Y-137248622D01*
X177473218Y-137378925D01*
X177481031Y-137501430D01*
X177482296Y-137586487D01*
X177477411Y-137607846D01*
X177460976Y-137564188D01*
X177439766Y-137458499D01*
X177427166Y-137376271D01*
X177411067Y-137225226D01*
X177408661Y-137117830D01*
X177419515Y-137071036D01*
X177434667Y-137083230D01*
G37*
G36*
X177509978Y-137734518D02*
G01*
X177482076Y-137749984D01*
X177466610Y-137722082D01*
X177494512Y-137706617D01*
X177509978Y-137734518D01*
G37*
G36*
X170701240Y-135782143D02*
G01*
X170673339Y-135797610D01*
X170657872Y-135769708D01*
X170685774Y-135754243D01*
X170701240Y-135782143D01*
G37*
G36*
X170694918Y-135913309D02*
G01*
X170685350Y-135966265D01*
X170678337Y-135971133D01*
X170654262Y-135957787D01*
X170657715Y-135933931D01*
X170683819Y-135902784D01*
X170694918Y-135913309D01*
G37*
G36*
X170666094Y-136066513D02*
G01*
X170663777Y-136076470D01*
X170618480Y-136108611D01*
X170605415Y-136106668D01*
X170587132Y-136072673D01*
X170598726Y-136057817D01*
X170649560Y-136027619D01*
X170657088Y-136027618D01*
X170666094Y-136066513D01*
G37*
G36*
X170495949Y-136607194D02*
G01*
X170486382Y-136660149D01*
X170479369Y-136665018D01*
X170455294Y-136651672D01*
X170458747Y-136627815D01*
X170484851Y-136596668D01*
X170495949Y-136607194D01*
G37*
G36*
X176821216Y-138663424D02*
G01*
X176793315Y-138678891D01*
X176777848Y-138650989D01*
X176805750Y-138635523D01*
X176821216Y-138663424D01*
G37*
G36*
X177756549Y-139111539D02*
G01*
X177746981Y-139164495D01*
X177739968Y-139169363D01*
X177715893Y-139156017D01*
X177719346Y-139132161D01*
X177745450Y-139101014D01*
X177756549Y-139111539D01*
G37*
G36*
X170427346Y-137064679D02*
G01*
X170399445Y-137080146D01*
X170383978Y-137052244D01*
X170411880Y-137036779D01*
X170427346Y-137064679D01*
G37*
G36*
X176764787Y-139351248D02*
G01*
X176736885Y-139366714D01*
X176721419Y-139338812D01*
X176749320Y-139323346D01*
X176764787Y-139351248D01*
G37*
G36*
X175643596Y-138553706D02*
G01*
X175809202Y-138636529D01*
X175888431Y-138709141D01*
X175883910Y-138776157D01*
X175805612Y-138838188D01*
X175755171Y-138880104D01*
X175764387Y-138900120D01*
X175801213Y-138940131D01*
X175800046Y-138951130D01*
X175754971Y-138957378D01*
X175644353Y-138941148D01*
X175489084Y-138905877D01*
X175430291Y-138890286D01*
X175238240Y-138843302D01*
X175057828Y-138808944D01*
X174923342Y-138793565D01*
X174906941Y-138793299D01*
X174746547Y-138789008D01*
X174671208Y-138770179D01*
X174676467Y-138733641D01*
X174712234Y-138707931D01*
X174755466Y-138720328D01*
X174754026Y-138747817D01*
X174776088Y-138757530D01*
X174816334Y-138751898D01*
X174813290Y-138736909D01*
X174763310Y-138716961D01*
X174755466Y-138720328D01*
X174712234Y-138707931D01*
X174749386Y-138681227D01*
X174900025Y-138616506D01*
X175094358Y-138566482D01*
X175301474Y-138535566D01*
X175490469Y-138528163D01*
X175630432Y-138548681D01*
X175643596Y-138553706D01*
G37*
G36*
X170550762Y-137616338D02*
G01*
X170522860Y-137631804D01*
X170507395Y-137603902D01*
X170535295Y-137588437D01*
X170550762Y-137616338D01*
G37*
G36*
X176629598Y-139303464D02*
G01*
X176628465Y-139335625D01*
X176585985Y-139369041D01*
X176576209Y-139367574D01*
X176500594Y-139359005D01*
X176449715Y-139358601D01*
X176394688Y-139356786D01*
X176416497Y-139338921D01*
X176466892Y-139316592D01*
X176579302Y-139283291D01*
X176629598Y-139303464D01*
G37*
G36*
X175076931Y-139017944D02*
G01*
X175134894Y-139081715D01*
X175139920Y-139125466D01*
X175164576Y-139179547D01*
X175273787Y-139232075D01*
X175305808Y-139242569D01*
X175488901Y-139299677D01*
X175277260Y-139301209D01*
X175065620Y-139302743D01*
X175386573Y-139370101D01*
X175554095Y-139408134D01*
X175648963Y-139439269D01*
X175687621Y-139470853D01*
X175688192Y-139504889D01*
X175632476Y-139549286D01*
X175513644Y-139569008D01*
X175355634Y-139563109D01*
X175182383Y-139530640D01*
X175164168Y-139525619D01*
X175030929Y-139465287D01*
X174893108Y-139370583D01*
X174864313Y-139345339D01*
X174755458Y-139260646D01*
X174664566Y-139218636D01*
X174609719Y-139224469D01*
X174605076Y-139271365D01*
X174610596Y-139309954D01*
X174583487Y-139307200D01*
X174506805Y-139257889D01*
X174464208Y-139228024D01*
X174360204Y-139139838D01*
X174338035Y-139084631D01*
X174393928Y-139066864D01*
X174524111Y-139090998D01*
X174568735Y-139104391D01*
X174702087Y-139151460D01*
X174795152Y-139192982D01*
X174821326Y-139212021D01*
X174867828Y-139255506D01*
X174901313Y-139242323D01*
X174897607Y-139203044D01*
X174889918Y-139095350D01*
X174939903Y-139019610D01*
X175025231Y-138998878D01*
X175076931Y-139017944D01*
G37*
G36*
X174552406Y-139373927D02*
G01*
X174524504Y-139389394D01*
X174509037Y-139361492D01*
X174536939Y-139346026D01*
X174552406Y-139373927D01*
G37*
G36*
X176714419Y-140181609D02*
G01*
X176740234Y-140249014D01*
X176738399Y-140261656D01*
X176693954Y-140291811D01*
X176683330Y-140290029D01*
X176655392Y-140243815D01*
X176659349Y-140209982D01*
X176693245Y-140171123D01*
X176714419Y-140181609D01*
G37*
G36*
X174434424Y-139621698D02*
G01*
X174406522Y-139637165D01*
X174391057Y-139609263D01*
X174418958Y-139593796D01*
X174434424Y-139621698D01*
G37*
G36*
X178042426Y-140141462D02*
G01*
X178049234Y-140203292D01*
X178029398Y-140318660D01*
X177991217Y-140457910D01*
X177942988Y-140591391D01*
X177893007Y-140689446D01*
X177886629Y-140698286D01*
X177838385Y-140742129D01*
X177803993Y-140704872D01*
X177799502Y-140694957D01*
X177784657Y-140595703D01*
X177803100Y-140469910D01*
X177845472Y-140338900D01*
X177902414Y-140223998D01*
X177964566Y-140146528D01*
X178022570Y-140127816D01*
X178042426Y-140141462D01*
G37*
G36*
X174018982Y-139870218D02*
G01*
X174009415Y-139923175D01*
X174002402Y-139928042D01*
X173978327Y-139914696D01*
X173981780Y-139890840D01*
X174007884Y-139859694D01*
X174018982Y-139870218D01*
G37*
G36*
X170506142Y-138917684D02*
G01*
X170478241Y-138933150D01*
X170462775Y-138905248D01*
X170490677Y-138889782D01*
X170506142Y-138917684D01*
G37*
G36*
X174372880Y-139971199D02*
G01*
X174393610Y-140008643D01*
X174418521Y-140083148D01*
X174402618Y-140105381D01*
X174348885Y-140057533D01*
X174321935Y-140010711D01*
X174301576Y-139932209D01*
X174324972Y-139918853D01*
X174372880Y-139971199D01*
G37*
G36*
X170463642Y-139014032D02*
G01*
X170449377Y-139083293D01*
X170436384Y-139096171D01*
X170420382Y-139077585D01*
X170429928Y-139032720D01*
X170453789Y-138989482D01*
X170463642Y-139014032D01*
G37*
G36*
X170456585Y-139203588D02*
G01*
X170443809Y-139298745D01*
X170400217Y-139394806D01*
X170358083Y-139410547D01*
X170333310Y-139345535D01*
X170331712Y-139301803D01*
X170338760Y-139189607D01*
X170362500Y-139146046D01*
X170414866Y-139149648D01*
X170416063Y-139149989D01*
X170456585Y-139203588D01*
G37*
G36*
X170406345Y-139593071D02*
G01*
X170378443Y-139608538D01*
X170362978Y-139580636D01*
X170390879Y-139565169D01*
X170406345Y-139593071D01*
G37*
G36*
X170375152Y-139810972D02*
G01*
X170365585Y-139863928D01*
X170358571Y-139868796D01*
X170334496Y-139855450D01*
X170337950Y-139831594D01*
X170364053Y-139800447D01*
X170375152Y-139810972D01*
G37*
G36*
X176781272Y-139557499D02*
G01*
X176795571Y-139623430D01*
X176772558Y-139697184D01*
X176692114Y-139729077D01*
X176655548Y-139733127D01*
X176562832Y-139744007D01*
X176548000Y-139766502D01*
X176598527Y-139818335D01*
X176665278Y-139932331D01*
X176649326Y-140060941D01*
X176612662Y-140119973D01*
X176569361Y-140203835D01*
X176526638Y-140331707D01*
X176517569Y-140367392D01*
X176472747Y-140499842D01*
X176411645Y-140562422D01*
X176386649Y-140570978D01*
X176287511Y-140631590D01*
X176215388Y-140766227D01*
X176191974Y-140844987D01*
X176138709Y-140945054D01*
X176087565Y-140990223D01*
X176021166Y-141070286D01*
X176006708Y-141135640D01*
X175994131Y-141205022D01*
X175951680Y-141197485D01*
X175940217Y-141189272D01*
X175878848Y-141172664D01*
X175858247Y-141203312D01*
X175873937Y-141253191D01*
X175924492Y-141258292D01*
X175957056Y-141266653D01*
X175907983Y-141305769D01*
X175867545Y-141329135D01*
X175687646Y-141396852D01*
X175540158Y-141384614D01*
X175464199Y-141333640D01*
X175377301Y-141264997D01*
X175329970Y-141240327D01*
X175246227Y-141182758D01*
X175128723Y-141067569D01*
X174992810Y-140912833D01*
X174853839Y-140736623D01*
X174727161Y-140557013D01*
X174664339Y-140456660D01*
X174591355Y-140325260D01*
X174551466Y-140237295D01*
X174550970Y-140207389D01*
X174558677Y-140211360D01*
X174622864Y-140229564D01*
X174644308Y-140199161D01*
X174644671Y-140151321D01*
X176044779Y-140552796D01*
X176060246Y-140580698D01*
X176088148Y-140565231D01*
X176072681Y-140537330D01*
X176044779Y-140552796D01*
X174644671Y-140151321D01*
X174644947Y-140114714D01*
X174623969Y-139970178D01*
X174586335Y-139791688D01*
X174537007Y-139605384D01*
X174522614Y-139558045D01*
X174475773Y-139408739D01*
X174671278Y-139497954D01*
X174819637Y-139558149D01*
X174998705Y-139619885D01*
X175187153Y-139677232D01*
X175363649Y-139724261D01*
X175506860Y-139755042D01*
X175595456Y-139763646D01*
X175611230Y-139759235D01*
X175697826Y-139716362D01*
X175825498Y-139680874D01*
X175958509Y-139659488D01*
X176061120Y-139658926D01*
X176090604Y-139669097D01*
X176133756Y-139684096D01*
X176135320Y-139663016D01*
X176159903Y-139635427D01*
X176226786Y-139642847D01*
X176332887Y-139647166D01*
X176421949Y-139610849D01*
X176462113Y-139549456D01*
X176460003Y-139528961D01*
X176483260Y-139486495D01*
X176569495Y-139474354D01*
X176695641Y-139495693D01*
X176698067Y-139496384D01*
X176781272Y-139557499D01*
G37*
G36*
X173974310Y-141226306D02*
G01*
X173946409Y-141241771D01*
X173930943Y-141213870D01*
X173958844Y-141198404D01*
X173974310Y-141226306D01*
G37*
G36*
X173924568Y-141399777D02*
G01*
X173896667Y-141415242D01*
X173881201Y-141387341D01*
X173909102Y-141371875D01*
X173924568Y-141399777D01*
G37*
G36*
X176262527Y-142083020D02*
G01*
X176260210Y-142092977D01*
X176214913Y-142125119D01*
X176201847Y-142123176D01*
X176183565Y-142089180D01*
X176195158Y-142074324D01*
X176245991Y-142044127D01*
X176253520Y-142044126D01*
X176262527Y-142083020D01*
G37*
G36*
X174649721Y-140734342D02*
G01*
X174763804Y-140856247D01*
X174820909Y-140933379D01*
X174950863Y-141117043D01*
X175095658Y-141321706D01*
X175192213Y-141458199D01*
X175276878Y-141586497D01*
X175327830Y-141681247D01*
X175335579Y-141724395D01*
X175332584Y-141725296D01*
X175282595Y-141764553D01*
X175261715Y-141810575D01*
X175219915Y-141876684D01*
X175174477Y-141862216D01*
X175153638Y-141793815D01*
X175109701Y-141726531D01*
X175053568Y-141713954D01*
X174968368Y-141676366D01*
X174937015Y-141603723D01*
X174932541Y-141576496D01*
X174995153Y-141594449D01*
X174999847Y-141635144D01*
X175059816Y-141612219D01*
X175090545Y-141592239D01*
X175135669Y-141554296D01*
X175100493Y-141547651D01*
X175085276Y-141548817D01*
X175012040Y-141573652D01*
X174995153Y-141594449D01*
X174932541Y-141576496D01*
X174922981Y-141518317D01*
X174924181Y-141486943D01*
X174941110Y-141431189D01*
X174873118Y-141369954D01*
X174813004Y-141340940D01*
X174721611Y-141311556D01*
X174680495Y-141316014D01*
X174680602Y-141321306D01*
X174664541Y-141348403D01*
X174606841Y-141331321D01*
X174537692Y-141280492D01*
X174525631Y-141267746D01*
X174507518Y-141228460D01*
X174558701Y-141216620D01*
X174602943Y-141218828D01*
X174848040Y-141289109D01*
X174863506Y-141317011D01*
X174891408Y-141301545D01*
X174875941Y-141273643D01*
X174848040Y-141289109D01*
X174602943Y-141218828D01*
X174623333Y-141219846D01*
X174731810Y-141210274D01*
X174768453Y-141172774D01*
X174728398Y-141128693D01*
X174649537Y-141104898D01*
X174567372Y-141074612D01*
X174544990Y-141036557D01*
X174519302Y-140998700D01*
X174460790Y-140991376D01*
X174397787Y-140983397D01*
X174389280Y-140938212D01*
X174408777Y-140881551D01*
X174705814Y-140966725D01*
X174721280Y-140994627D01*
X174749182Y-140979160D01*
X174733716Y-140951258D01*
X174705814Y-140966725D01*
X174408777Y-140881551D01*
X174417002Y-140857649D01*
X174448435Y-140799976D01*
X174567203Y-140834032D01*
X174596609Y-140896646D01*
X174633166Y-140922426D01*
X174657753Y-140902660D01*
X174643381Y-140853821D01*
X174603386Y-140793153D01*
X174581939Y-140786147D01*
X174567203Y-140834032D01*
X174448435Y-140799976D01*
X174483129Y-140736319D01*
X174558432Y-140694792D01*
X174649721Y-140734342D01*
G37*
G36*
X175079162Y-141790630D02*
G01*
X175076844Y-141800587D01*
X175031548Y-141832728D01*
X175018482Y-141830785D01*
X175000200Y-141796790D01*
X175011793Y-141781934D01*
X175062627Y-141751736D01*
X175070156Y-141751735D01*
X175079162Y-141790630D01*
G37*
G36*
X174426407Y-142243198D02*
G01*
X174461039Y-142296758D01*
X174462119Y-142307623D01*
X174436426Y-142319546D01*
X174405029Y-142267319D01*
X174401798Y-142256838D01*
X174405197Y-142225697D01*
X174426407Y-142243198D01*
G37*
G36*
X174806821Y-142278268D02*
G01*
X174815207Y-142371053D01*
X174786709Y-142431580D01*
X174757571Y-142457816D01*
X174760524Y-142425620D01*
X174730995Y-142375119D01*
X174642542Y-142333122D01*
X174554441Y-142295532D01*
X174523583Y-142256984D01*
X174523709Y-142256508D01*
X174564698Y-142245059D01*
X174621485Y-142268471D01*
X174685080Y-142292537D01*
X174691360Y-142260647D01*
X174707607Y-142218920D01*
X174743701Y-142221329D01*
X174806821Y-142278268D01*
G37*
G36*
X174003991Y-142595890D02*
G01*
X173976089Y-142611356D01*
X173960623Y-142583455D01*
X173988524Y-142567988D01*
X174003991Y-142595890D01*
G37*
G36*
X176190562Y-143645281D02*
G01*
X176162660Y-143660748D01*
X176147195Y-143632846D01*
X176175096Y-143617379D01*
X176190562Y-143645281D01*
G37*
G36*
X174963882Y-143285714D02*
G01*
X174954314Y-143338670D01*
X174947301Y-143343538D01*
X174923226Y-143330192D01*
X174926680Y-143306336D01*
X174952783Y-143275189D01*
X174963882Y-143285714D01*
G37*
G36*
X175372010Y-144208437D02*
G01*
X175344109Y-144223902D01*
X175328642Y-144196001D01*
X175356544Y-144180535D01*
X175372010Y-144208437D01*
G37*
G36*
X174770923Y-144176878D02*
G01*
X174743021Y-144192344D01*
X174727555Y-144164442D01*
X174755457Y-144148976D01*
X174770923Y-144176878D01*
G37*
G36*
X175136362Y-144375533D02*
G01*
X175108460Y-144390999D01*
X175092994Y-144363098D01*
X175120895Y-144347631D01*
X175136362Y-144375533D01*
G37*
G36*
X173673981Y-144237804D02*
G01*
X173646079Y-144253269D01*
X173630612Y-144225368D01*
X173658514Y-144209902D01*
X173673981Y-144237804D01*
G37*
G36*
X173527541Y-144255592D02*
G01*
X173525224Y-144265549D01*
X173479927Y-144297690D01*
X173466861Y-144295747D01*
X173448579Y-144261752D01*
X173460172Y-144246895D01*
X173511006Y-144216697D01*
X173518535Y-144216697D01*
X173527541Y-144255592D01*
G37*
G36*
X173692164Y-144665420D02*
G01*
X173664262Y-144680885D01*
X173648796Y-144652984D01*
X173676698Y-144637518D01*
X173692164Y-144665420D01*
G37*
G36*
X172192842Y-144274607D02*
G01*
X172179496Y-144298682D01*
X172155639Y-144295229D01*
X172124493Y-144269125D01*
X172135018Y-144258027D01*
X172187974Y-144267594D01*
X172192842Y-144274607D01*
G37*
G36*
X172322893Y-144366655D02*
G01*
X172294991Y-144382120D01*
X172279524Y-144354219D01*
X172307426Y-144338753D01*
X172322893Y-144366655D01*
G37*
G36*
X172019319Y-144279607D02*
G01*
X171991417Y-144295072D01*
X171975950Y-144267171D01*
X172003852Y-144251705D01*
X172019319Y-144279607D01*
G37*
G36*
X172440560Y-144447329D02*
G01*
X172412658Y-144462795D01*
X172397193Y-144434893D01*
X172425094Y-144419427D01*
X172440560Y-144447329D01*
G37*
G36*
X173468951Y-144789149D02*
G01*
X173441049Y-144804615D01*
X173425584Y-144776714D01*
X173453485Y-144761247D01*
X173468951Y-144789149D01*
G37*
G36*
X173369780Y-144807645D02*
G01*
X173341878Y-144823112D01*
X173326413Y-144795210D01*
X173354314Y-144779744D01*
X173369780Y-144807645D01*
G37*
G36*
X172470866Y-145160023D02*
G01*
X172442965Y-145175489D01*
X172427499Y-145147587D01*
X172455401Y-145132121D01*
X172470866Y-145160023D01*
G37*
G36*
X171287502Y-144867632D02*
G01*
X171259601Y-144883098D01*
X171244134Y-144855196D01*
X171272036Y-144839731D01*
X171287502Y-144867632D01*
G37*
G36*
X170859777Y-145199884D02*
G01*
X171021615Y-145262941D01*
X171205822Y-145336457D01*
X171381788Y-145404775D01*
X171512889Y-145453687D01*
X171517880Y-145455463D01*
X171659757Y-145506467D01*
X171730154Y-145535899D01*
X171742664Y-145552256D01*
X171710879Y-145564038D01*
X171696979Y-145567413D01*
X171603632Y-145568967D01*
X171455506Y-145549485D01*
X171275775Y-145514573D01*
X171087612Y-145469843D01*
X170914193Y-145420907D01*
X170778689Y-145373372D01*
X170704276Y-145332850D01*
X170698550Y-145325704D01*
X170674031Y-145231268D01*
X170677868Y-145193231D01*
X170700074Y-145166598D01*
X170755178Y-145167693D01*
X170859777Y-145199884D01*
G37*
G36*
X179887596Y-133815691D02*
G01*
X180043101Y-133893097D01*
X180156330Y-133954323D01*
X180339233Y-134053422D01*
X180509104Y-134143535D01*
X180638704Y-134210284D01*
X180674448Y-134227831D01*
X180794272Y-134296549D01*
X180940288Y-134395827D01*
X181019712Y-134455931D01*
X181220445Y-134615195D01*
X178724436Y-143319810D01*
X178563819Y-143151310D01*
X178467081Y-143059022D01*
X178370098Y-142995622D01*
X178242838Y-142945728D01*
X178067433Y-142897053D01*
X177731663Y-142811294D01*
X177635689Y-142553449D01*
X177539715Y-142295602D01*
X177427799Y-142592045D01*
X177361535Y-142757450D01*
X177297423Y-142900821D01*
X177251523Y-142987369D01*
X177100331Y-143202807D01*
X176924870Y-143426309D01*
X176742505Y-143637921D01*
X176570600Y-143817694D01*
X176426519Y-143945673D01*
X176401646Y-143963943D01*
X176333760Y-144021775D01*
X176228811Y-144122160D01*
X176127266Y-144225090D01*
X176024329Y-144323135D01*
X175949186Y-144377489D01*
X175918035Y-144376449D01*
X175918017Y-144376290D01*
X175902896Y-144357755D01*
X175886000Y-144392984D01*
X175829539Y-144473183D01*
X175753121Y-144534173D01*
X175662428Y-144613071D01*
X175565386Y-144732327D01*
X175537516Y-144774604D01*
X175464026Y-144874518D01*
X175407741Y-144915111D01*
X175392348Y-144910167D01*
X175368290Y-144903866D01*
X175371656Y-144926794D01*
X175349297Y-144995470D01*
X175263647Y-145110140D01*
X175122847Y-145261663D01*
X174935031Y-145440898D01*
X174832723Y-145532205D01*
X174703454Y-145640771D01*
X174637224Y-145686005D01*
X174634137Y-145669235D01*
X174694296Y-145591788D01*
X174817807Y-145454992D01*
X174826014Y-145446226D01*
X174953317Y-145304916D01*
X175084508Y-145150132D01*
X175206897Y-144998082D01*
X175307799Y-144864970D01*
X175374525Y-144767007D01*
X175394389Y-144720396D01*
X175394321Y-144720269D01*
X175360655Y-144739175D01*
X175284913Y-144810256D01*
X175194279Y-144906384D01*
X175087139Y-145018501D01*
X174998371Y-145099745D01*
X174953963Y-145129262D01*
X174930414Y-145121989D01*
X174946797Y-145102832D01*
X174972824Y-145061457D01*
X174966041Y-145054164D01*
X174916697Y-145081702D01*
X174829897Y-145169169D01*
X174717440Y-145300890D01*
X174591124Y-145461194D01*
X174462746Y-145634406D01*
X174344105Y-145804852D01*
X174247000Y-145956860D01*
X174183226Y-146074755D01*
X174167990Y-146114374D01*
X174125328Y-146201581D01*
X174038369Y-146338812D01*
X173920221Y-146506473D01*
X173798394Y-146666766D01*
X173667191Y-146836214D01*
X173557685Y-146983002D01*
X173481629Y-147091006D01*
X173451001Y-147143224D01*
X173429678Y-147154689D01*
X173370908Y-147151717D01*
X173266956Y-147132415D01*
X173110092Y-147094894D01*
X172892581Y-147037261D01*
X172606689Y-146957628D01*
X172244684Y-146854102D01*
X172113315Y-146816144D01*
X170791562Y-146433503D01*
X170819993Y-146334353D01*
X170808773Y-146221992D01*
X170754169Y-146154716D01*
X170683533Y-146067809D01*
X170696750Y-145992124D01*
X170796508Y-145919139D01*
X170831158Y-145902294D01*
X171123246Y-145986049D01*
X171121806Y-146013538D01*
X171143867Y-146023251D01*
X171184114Y-146017620D01*
X171181070Y-146002630D01*
X171131091Y-145982682D01*
X171123246Y-145986049D01*
X170831158Y-145902294D01*
X170834285Y-145900774D01*
X170925288Y-145855747D01*
X170942078Y-145830819D01*
X170893429Y-145810654D01*
X170886905Y-145808768D01*
X170801568Y-145765047D01*
X170790725Y-145718297D01*
X170856247Y-145690229D01*
X170876555Y-145688827D01*
X170946762Y-145681219D01*
X170935663Y-145658202D01*
X170912512Y-145643427D01*
X170846374Y-145590716D01*
X170857948Y-145562817D01*
X170937950Y-145560608D01*
X171077092Y-145584970D01*
X171198025Y-145616379D01*
X171414574Y-145670612D01*
X171648965Y-145717332D01*
X171829472Y-145743792D01*
X172014525Y-145755778D01*
X172146109Y-145740494D01*
X172258217Y-145692865D01*
X172286900Y-145675489D01*
X172389236Y-145611488D01*
X172470621Y-145564221D01*
X172506224Y-145545630D01*
X173975990Y-145967078D01*
X173991456Y-145994980D01*
X174019358Y-145979514D01*
X174003891Y-145951613D01*
X173975990Y-145967078D01*
X172506224Y-145545630D01*
X172565992Y-145514421D01*
X172594145Y-145500440D01*
X174081378Y-145926898D01*
X174087010Y-145967144D01*
X174102000Y-145964100D01*
X174121949Y-145914121D01*
X174118581Y-145906276D01*
X174091092Y-145904836D01*
X174081378Y-145926898D01*
X172594145Y-145500440D01*
X172696277Y-145449726D01*
X172746851Y-145419072D01*
X173218273Y-145554250D01*
X173216833Y-145581739D01*
X173238894Y-145591452D01*
X173279141Y-145585820D01*
X173276097Y-145570830D01*
X173226118Y-145550883D01*
X173218273Y-145554250D01*
X172746851Y-145419072D01*
X172803074Y-145384993D01*
X172837967Y-145337208D01*
X172798116Y-145316241D01*
X172733273Y-145321253D01*
X172658322Y-145347649D01*
X172650705Y-145381162D01*
X172662041Y-145423449D01*
X172615818Y-145437537D01*
X172541516Y-145419015D01*
X172511313Y-145402014D01*
X172463320Y-145374399D01*
X172481030Y-145406413D01*
X172490570Y-145418661D01*
X172511847Y-145460500D01*
X172466956Y-145461698D01*
X172418112Y-145449245D01*
X172328839Y-145435976D01*
X172300398Y-145471611D01*
X172300798Y-145491951D01*
X172289896Y-145542642D01*
X172249244Y-145525574D01*
X172193855Y-145506505D01*
X172179961Y-145519824D01*
X172127803Y-145550887D01*
X172010201Y-145540381D01*
X171839848Y-145491867D01*
X171629430Y-145408910D01*
X171405792Y-145302376D01*
X171222700Y-145209936D01*
X171063824Y-145132605D01*
X170949808Y-145080272D01*
X170907730Y-145063803D01*
X170838049Y-145011881D01*
X170806819Y-144964467D01*
X171875840Y-145271004D01*
X171891307Y-145298905D01*
X171919208Y-145283439D01*
X171903742Y-145255537D01*
X171875840Y-145271004D01*
X170806819Y-144964467D01*
X170776030Y-144917723D01*
X170737691Y-144815096D01*
X170739050Y-144737764D01*
X170747587Y-144726234D01*
X170756060Y-144695625D01*
X170710541Y-144693159D01*
X170658689Y-144688679D01*
X170680321Y-144648357D01*
X170699007Y-144628483D01*
X170740509Y-144574664D01*
X170711650Y-144561881D01*
X170702015Y-144562537D01*
X170656150Y-144527718D01*
X170622111Y-144410901D01*
X170606285Y-144296086D01*
X170588718Y-144171686D01*
X171505544Y-144434582D01*
X171524362Y-144487771D01*
X171535743Y-144492944D01*
X171582225Y-144490261D01*
X171584594Y-144486255D01*
X171564822Y-144440516D01*
X171554396Y-144427893D01*
X171513447Y-144419872D01*
X171505544Y-144434582D01*
X170588718Y-144171686D01*
X170586661Y-144157129D01*
X170557986Y-144079691D01*
X170511485Y-144066256D01*
X170438383Y-144119307D01*
X170329910Y-144241328D01*
X170194378Y-144412696D01*
X169976345Y-144741691D01*
X169839365Y-145068706D01*
X169777047Y-145414034D01*
X169777917Y-145735789D01*
X169789442Y-145910104D01*
X169796940Y-146046747D01*
X169799239Y-146123328D01*
X169798639Y-146131668D01*
X169755732Y-146127061D01*
X169641390Y-146100805D01*
X169470741Y-146056729D01*
X169258909Y-145998660D01*
X169142264Y-145965570D01*
X168916399Y-145898852D01*
X168725707Y-145838792D01*
X168584987Y-145790349D01*
X168509040Y-145758485D01*
X168499982Y-145750319D01*
X168527657Y-145703780D01*
X168596347Y-145599688D01*
X168695161Y-145454298D01*
X168793388Y-145312280D01*
X169078559Y-144902959D01*
X168955423Y-144723808D01*
X168823576Y-144483170D01*
X168746589Y-144235332D01*
X168730706Y-144005293D01*
X168749314Y-143898732D01*
X168773354Y-143774944D01*
X168770046Y-143686418D01*
X168761988Y-143670511D01*
X168728415Y-143592976D01*
X168703856Y-143481959D01*
X171650634Y-144326934D01*
X171691272Y-144346103D01*
X171749806Y-144354258D01*
X171754723Y-144339646D01*
X171699649Y-144312651D01*
X171672583Y-144312388D01*
X171650634Y-144326934D01*
X168703856Y-143481959D01*
X168697689Y-143454087D01*
X168673229Y-143282721D01*
X168660218Y-143128665D01*
X171765487Y-144019087D01*
X171780952Y-144046989D01*
X171808854Y-144031522D01*
X171793388Y-144003620D01*
X171765487Y-144019087D01*
X168660218Y-143128665D01*
X168658451Y-143107751D01*
X168658065Y-143073292D01*
X171274037Y-143823410D01*
X171272598Y-143850899D01*
X171294659Y-143860612D01*
X171334905Y-143854980D01*
X171331860Y-143839990D01*
X171281882Y-143820043D01*
X171274037Y-143823410D01*
X168658065Y-143073292D01*
X168656771Y-142958056D01*
X168667726Y-142873849D01*
X168750890Y-142738129D01*
X168775613Y-142718746D01*
X170828782Y-143307483D01*
X170812238Y-143393120D01*
X170862824Y-143456108D01*
X170980018Y-143521257D01*
X171098358Y-143545406D01*
X171185076Y-143523407D01*
X171198840Y-143508856D01*
X171204059Y-143464792D01*
X171163521Y-143459874D01*
X171110134Y-143432292D01*
X171079579Y-143332373D01*
X171158073Y-143354881D01*
X171179785Y-143404006D01*
X171189739Y-143408125D01*
X171237921Y-143383739D01*
X171252495Y-143352949D01*
X171244341Y-143302032D01*
X171220828Y-143299705D01*
X171163216Y-143343189D01*
X171158073Y-143354881D01*
X171079579Y-143332373D01*
X171079025Y-143330563D01*
X171072532Y-143276994D01*
X171050135Y-143163609D01*
X171015597Y-143088121D01*
X170981326Y-143063827D01*
X170959726Y-143104018D01*
X170957591Y-143153823D01*
X170943583Y-143224113D01*
X170919016Y-143236629D01*
X170866071Y-143260639D01*
X170828782Y-143307483D01*
X168775613Y-142718746D01*
X168898699Y-142622247D01*
X169092129Y-142501577D01*
X169058206Y-142400060D01*
X170227844Y-142735448D01*
X170215542Y-142804331D01*
X170215809Y-142805321D01*
X170252541Y-142843016D01*
X170301953Y-142814691D01*
X170335825Y-142739943D01*
X170338122Y-142664680D01*
X170333092Y-142656960D01*
X170741475Y-142774062D01*
X170748066Y-142810623D01*
X170774481Y-142847449D01*
X170852304Y-142917353D01*
X170944352Y-142959259D01*
X171018833Y-142962423D01*
X171042903Y-142938144D01*
X171017129Y-142898485D01*
X170963549Y-142887529D01*
X170892314Y-142863944D01*
X170886635Y-142828409D01*
X170864536Y-142780307D01*
X170808634Y-142769262D01*
X170741475Y-142774062D01*
X170333092Y-142656960D01*
X170324483Y-142643747D01*
X170273787Y-142667603D01*
X170227844Y-142735448D01*
X169058206Y-142400060D01*
X169031910Y-142321366D01*
X168997266Y-142197956D01*
X168995844Y-142188454D01*
X170135346Y-142515201D01*
X170127190Y-142573737D01*
X170141802Y-142578653D01*
X170168798Y-142523579D01*
X170169061Y-142496513D01*
X170154514Y-142474565D01*
X170135346Y-142515201D01*
X168995844Y-142188454D01*
X168983894Y-142108626D01*
X168985440Y-142093204D01*
X169031712Y-142063679D01*
X169148434Y-142017131D01*
X169169104Y-142010148D01*
X170258690Y-142322582D01*
X170244313Y-142409557D01*
X170253351Y-142509239D01*
X170298612Y-142535989D01*
X170344995Y-142508469D01*
X170349485Y-142486649D01*
X170762906Y-142605195D01*
X170778372Y-142633097D01*
X170806273Y-142617631D01*
X170790808Y-142589729D01*
X170762906Y-142605195D01*
X170349485Y-142486649D01*
X170357960Y-142445461D01*
X170353650Y-142433087D01*
X170575031Y-142496567D01*
X170573591Y-142524056D01*
X170595652Y-142533769D01*
X170635899Y-142528137D01*
X170632854Y-142513148D01*
X170582876Y-142493200D01*
X170575031Y-142496567D01*
X170353650Y-142433087D01*
X170338373Y-142389236D01*
X170287146Y-142312845D01*
X170258690Y-142322582D01*
X169169104Y-142010148D01*
X169318814Y-141959570D01*
X169443616Y-141921895D01*
X170636556Y-142263965D01*
X170635303Y-142326951D01*
X170663230Y-142386953D01*
X170690373Y-142392214D01*
X170716559Y-142346555D01*
X170704749Y-142301605D01*
X170662307Y-142240096D01*
X170636556Y-142263965D01*
X169443616Y-141921895D01*
X169526061Y-141897007D01*
X169562031Y-141886791D01*
X169824084Y-141810595D01*
X169999554Y-141753769D01*
X170089841Y-141715653D01*
X170096341Y-141695589D01*
X170020453Y-141692919D01*
X169965822Y-141696701D01*
X169843566Y-141690935D01*
X169766754Y-141657479D01*
X169753727Y-141607201D01*
X169773011Y-141582475D01*
X169828205Y-141514539D01*
X169837496Y-141495034D01*
X169846260Y-141473171D01*
X170432217Y-141641191D01*
X170427773Y-141706238D01*
X170449508Y-141828946D01*
X170453236Y-141843775D01*
X170485806Y-141937100D01*
X170515583Y-141945653D01*
X170525673Y-141930489D01*
X170532938Y-141847105D01*
X170511070Y-141758579D01*
X172941324Y-142455443D01*
X172949463Y-142491016D01*
X173030216Y-142527843D01*
X173034749Y-142529165D01*
X173130737Y-142543337D01*
X173179445Y-142525044D01*
X173179847Y-142523838D01*
X173244898Y-142542491D01*
X173247944Y-142580653D01*
X173292396Y-142603044D01*
X173382029Y-142607803D01*
X173418370Y-142592233D01*
X173415325Y-142554072D01*
X173370872Y-142531680D01*
X173281239Y-142526922D01*
X173244898Y-142542491D01*
X173179847Y-142523838D01*
X173152243Y-142480335D01*
X173086423Y-142450115D01*
X172990011Y-142439775D01*
X172941324Y-142455443D01*
X170511070Y-141758579D01*
X170504679Y-141732710D01*
X170502105Y-141726247D01*
X170458454Y-141644348D01*
X170432217Y-141641191D01*
X169846260Y-141473171D01*
X169880827Y-141386943D01*
X169945898Y-141244345D01*
X170022056Y-141088186D01*
X170098644Y-140939412D01*
X170165011Y-140818967D01*
X170210501Y-140747796D01*
X170222940Y-140737287D01*
X170245009Y-140783036D01*
X170274727Y-140896427D01*
X170306695Y-141055817D01*
X170316251Y-141111382D01*
X170348723Y-141285952D01*
X170381517Y-141426434D01*
X170408771Y-141508599D01*
X170414574Y-141517814D01*
X170451786Y-141540633D01*
X170459241Y-141489635D01*
X170439809Y-141367685D01*
X170426617Y-141219501D01*
X170436440Y-141055153D01*
X170464458Y-140901573D01*
X170505852Y-140785691D01*
X170553029Y-140735094D01*
X170599118Y-140707022D01*
X170590419Y-140686304D01*
X170694449Y-140716134D01*
X170703410Y-140784895D01*
X170746495Y-140886638D01*
X170809531Y-140998756D01*
X170878343Y-141098643D01*
X170938751Y-141163690D01*
X170976584Y-141171292D01*
X170978230Y-141168706D01*
X171045313Y-141119844D01*
X171087570Y-141114747D01*
X171175006Y-141145036D01*
X171282188Y-141211511D01*
X171289904Y-141217444D01*
X171381220Y-141275527D01*
X171425864Y-141274132D01*
X171427099Y-141270938D01*
X171427736Y-141270491D01*
X172164517Y-141481760D01*
X172170149Y-141522006D01*
X172185139Y-141518962D01*
X172205088Y-141468983D01*
X172201720Y-141461138D01*
X172174231Y-141459699D01*
X172164517Y-141481760D01*
X171427736Y-141270491D01*
X171472784Y-141238946D01*
X171489130Y-141241162D01*
X171561870Y-141228525D01*
X171619418Y-141196387D01*
X171677359Y-141156714D01*
X171673811Y-141174244D01*
X171652085Y-141205754D01*
X171631984Y-141267524D01*
X171649028Y-141287012D01*
X171686414Y-141258758D01*
X171705537Y-141186457D01*
X171748242Y-141081920D01*
X171857318Y-140929532D01*
X171990493Y-140776407D01*
X172114613Y-140637859D01*
X172213308Y-140520174D01*
X172271442Y-140441726D01*
X172280163Y-140424757D01*
X172320777Y-140356106D01*
X172397309Y-140264791D01*
X172402522Y-140259333D01*
X172501031Y-140149901D01*
X172579835Y-140052042D01*
X172612256Y-140000800D01*
X172594495Y-139995699D01*
X172516188Y-140038329D01*
X172464552Y-140069742D01*
X172316471Y-140174314D01*
X172176156Y-140294168D01*
X172143643Y-140326696D01*
X172034692Y-140430914D01*
X171931726Y-140512528D01*
X171910598Y-140525917D01*
X171828162Y-140591660D01*
X171795291Y-140641604D01*
X171742525Y-140704779D01*
X171631410Y-140783077D01*
X171488943Y-140862333D01*
X171342124Y-140928386D01*
X171217950Y-140967073D01*
X171166685Y-140971367D01*
X171082507Y-140951520D01*
X171057490Y-140923148D01*
X171032457Y-140879165D01*
X171008998Y-140868818D01*
X170942334Y-140822466D01*
X170865799Y-140735427D01*
X170784810Y-140651268D01*
X170725675Y-140654328D01*
X170694449Y-140716134D01*
X170590419Y-140686304D01*
X170575116Y-140649861D01*
X170566655Y-140638231D01*
X170541576Y-140588741D01*
X170541671Y-140523740D01*
X170565077Y-140442716D01*
X170670329Y-140472896D01*
X170673477Y-140542617D01*
X170709221Y-140579671D01*
X170727554Y-140576133D01*
X170734344Y-140529861D01*
X170719782Y-140494116D01*
X170683130Y-140457149D01*
X170670329Y-140472896D01*
X170565077Y-140442716D01*
X170571053Y-140422032D01*
X170633830Y-140262418D01*
X170644516Y-140236654D01*
X170728051Y-139999225D01*
X170770431Y-139794481D01*
X170769171Y-139639009D01*
X170743996Y-139572557D01*
X170732516Y-139512526D01*
X170726225Y-139395067D01*
X170725454Y-139252850D01*
X170730535Y-139118549D01*
X170738615Y-139041251D01*
X170722538Y-138939532D01*
X170698733Y-138900747D01*
X170666966Y-138848317D01*
X170712546Y-138819620D01*
X170722947Y-138816303D01*
X170771424Y-138793604D01*
X170732155Y-138772203D01*
X170720480Y-138768661D01*
X170656336Y-138710169D01*
X170642895Y-138652357D01*
X170626965Y-138583483D01*
X170600590Y-138572159D01*
X170587076Y-138547531D01*
X170614982Y-138470750D01*
X170617927Y-138464960D01*
X170651168Y-138367951D01*
X170643816Y-138305736D01*
X170635425Y-138240554D01*
X170648312Y-138207513D01*
X170705110Y-138223800D01*
X170720576Y-138251702D01*
X170748478Y-138236236D01*
X170733012Y-138208334D01*
X170705110Y-138223800D01*
X170648312Y-138207513D01*
X170659136Y-138179764D01*
X170668321Y-138157239D01*
X170949526Y-138237873D01*
X170957662Y-138273000D01*
X171020153Y-138332241D01*
X171132091Y-138394725D01*
X171169712Y-138410501D01*
X171287698Y-138461291D01*
X171367087Y-138504860D01*
X171378565Y-138514387D01*
X171394584Y-138564780D01*
X171348022Y-138587979D01*
X171264421Y-138576181D01*
X171227546Y-138560536D01*
X171117464Y-138504356D01*
X171211699Y-138584913D01*
X171320045Y-138678112D01*
X171392853Y-138741264D01*
X171482661Y-138792470D01*
X171521986Y-138781955D01*
X171591304Y-138752354D01*
X171708783Y-138723924D01*
X171736419Y-138719122D01*
X171884129Y-138676805D01*
X172013133Y-138610884D01*
X172022377Y-138604097D01*
X172025188Y-138602326D01*
X172092879Y-138621736D01*
X172108344Y-138649638D01*
X172136246Y-138634172D01*
X172120780Y-138606270D01*
X172092879Y-138621736D01*
X172025188Y-138602326D01*
X172128257Y-138537399D01*
X172186692Y-138541726D01*
X172207116Y-138618062D01*
X172207296Y-138623324D01*
X172224104Y-138680327D01*
X172285377Y-138718054D01*
X172413375Y-138749881D01*
X172420187Y-138751217D01*
X172541776Y-138785946D01*
X172578346Y-138820140D01*
X172529390Y-138844815D01*
X172425888Y-138851645D01*
X172404108Y-138856426D01*
X172460262Y-138869228D01*
X172501138Y-138875652D01*
X172606346Y-138900782D01*
X172657572Y-138932523D01*
X172658483Y-138940714D01*
X172608650Y-138973997D01*
X172497335Y-139004104D01*
X172353265Y-139025966D01*
X172205167Y-139034516D01*
X172139425Y-139032280D01*
X172044152Y-139037832D01*
X172003132Y-139065644D01*
X172003099Y-139067252D01*
X171965882Y-139101693D01*
X171896351Y-139112173D01*
X171824785Y-139114580D01*
X171837883Y-139127927D01*
X171875125Y-139141288D01*
X171966186Y-139154796D01*
X172111029Y-139158896D01*
X172233774Y-139154940D01*
X172385352Y-139148266D01*
X172453983Y-139147683D01*
X173108521Y-139335369D01*
X173123986Y-139363271D01*
X173151888Y-139347804D01*
X173136422Y-139319902D01*
X173108521Y-139335369D01*
X172453983Y-139147683D01*
X172500716Y-139147287D01*
X172547051Y-139150903D01*
X172621094Y-139156685D01*
X172700025Y-139153457D01*
X172801032Y-139149723D01*
X172850318Y-139153627D01*
X172915482Y-139133852D01*
X172983538Y-139074818D01*
X173005890Y-139036072D01*
X172979556Y-138997270D01*
X172950829Y-138985083D01*
X172900353Y-138944262D01*
X172915674Y-138890898D01*
X172981795Y-138852617D01*
X173025428Y-138847681D01*
X173097853Y-138840271D01*
X173094722Y-138804177D01*
X173079231Y-138782807D01*
X173050378Y-138738997D01*
X173086067Y-138756084D01*
X173099837Y-138765249D01*
X173180361Y-138812124D01*
X173211708Y-138825221D01*
X173236965Y-138870535D01*
X173232876Y-138901691D01*
X173251104Y-138969141D01*
X173279274Y-138985397D01*
X173318607Y-138994613D01*
X173342332Y-138982758D01*
X173354931Y-138932402D01*
X173360886Y-138826116D01*
X173364539Y-138653814D01*
X173365319Y-138493329D01*
X173353859Y-138399952D01*
X173320866Y-138350607D01*
X173257047Y-138322221D01*
X173227463Y-138313469D01*
X173134106Y-138274219D01*
X173096638Y-138233025D01*
X173097180Y-138229178D01*
X173083681Y-138184028D01*
X173075618Y-138181619D01*
X172984571Y-138151771D01*
X172971635Y-138084820D01*
X172997545Y-138021979D01*
X173027757Y-137927670D01*
X173085058Y-137944100D01*
X173090689Y-137984347D01*
X173105679Y-137981303D01*
X173116885Y-137953227D01*
X174429458Y-138329601D01*
X174435091Y-138369848D01*
X174450080Y-138366803D01*
X174470029Y-138316824D01*
X174466660Y-138308979D01*
X174439171Y-138307540D01*
X174429458Y-138329601D01*
X173116885Y-137953227D01*
X173125628Y-137931323D01*
X173122260Y-137923479D01*
X173094771Y-137922039D01*
X173085058Y-137944100D01*
X173027757Y-137927670D01*
X173029786Y-137921338D01*
X173006821Y-137837829D01*
X172920954Y-137766300D01*
X172764484Y-137701605D01*
X172529711Y-137638594D01*
X172373474Y-137604650D01*
X172268978Y-137592001D01*
X172244223Y-137612683D01*
X172250884Y-137622978D01*
X172242070Y-137642196D01*
X172162486Y-137626375D01*
X172095765Y-137604311D01*
X171982580Y-137570157D01*
X171916305Y-137562831D01*
X171908470Y-137571519D01*
X171887205Y-137598426D01*
X171871225Y-137596040D01*
X171800529Y-137594926D01*
X171678202Y-137608177D01*
X171618691Y-137617549D01*
X171484779Y-137633516D01*
X171415129Y-137619700D01*
X171391779Y-137587682D01*
X171374747Y-137568247D01*
X171368848Y-137627986D01*
X171350506Y-137708423D01*
X171317385Y-137718830D01*
X171276606Y-137741023D01*
X171272630Y-137774894D01*
X171252058Y-137844574D01*
X171229793Y-137859354D01*
X171189338Y-137911695D01*
X171177946Y-138014402D01*
X171195482Y-138132470D01*
X171231155Y-138215879D01*
X171277356Y-138300968D01*
X171265479Y-138332677D01*
X171187481Y-138314909D01*
X171099768Y-138279636D01*
X170991457Y-138238125D01*
X170949526Y-138237873D01*
X170668321Y-138157239D01*
X170684562Y-138117417D01*
X170647309Y-138111104D01*
X170642612Y-138112371D01*
X170601114Y-138111180D01*
X170625605Y-138064062D01*
X170675417Y-137984932D01*
X170688521Y-137954299D01*
X170719457Y-137934769D01*
X170727450Y-137941297D01*
X170754125Y-137918955D01*
X170795299Y-137830711D01*
X170829960Y-137732486D01*
X170838302Y-137710723D01*
X170981278Y-137751721D01*
X170982154Y-137828789D01*
X171004958Y-137943886D01*
X171039972Y-138062268D01*
X171077482Y-138149188D01*
X171098930Y-138172459D01*
X171120133Y-138142109D01*
X171118948Y-138053656D01*
X171118313Y-138048949D01*
X171093151Y-137934757D01*
X171055810Y-137829733D01*
X171017007Y-137757123D01*
X170987459Y-137740171D01*
X170981278Y-137751721D01*
X170838302Y-137710723D01*
X170874843Y-137615399D01*
X170965943Y-137641522D01*
X170981409Y-137669424D01*
X171133196Y-137712948D01*
X171138828Y-137753194D01*
X171153818Y-137750150D01*
X171173765Y-137700171D01*
X171170398Y-137692326D01*
X171142909Y-137690887D01*
X171133196Y-137712948D01*
X170981409Y-137669424D01*
X171009311Y-137653957D01*
X170993844Y-137626056D01*
X170965943Y-137641522D01*
X170874843Y-137615399D01*
X170881483Y-137598079D01*
X170933834Y-137504585D01*
X170963182Y-137478120D01*
X170996868Y-137432054D01*
X171042151Y-137322936D01*
X171092910Y-137172567D01*
X171143024Y-137002745D01*
X171186372Y-136835272D01*
X171216833Y-136691946D01*
X171228286Y-136594569D01*
X171219741Y-136564425D01*
X171201657Y-136519629D01*
X171210270Y-136462096D01*
X171219919Y-136396445D01*
X171176558Y-136396400D01*
X171146221Y-136408529D01*
X171084548Y-136430938D01*
X171094237Y-136409528D01*
X171111036Y-136392453D01*
X171197486Y-136318900D01*
X171239349Y-136288446D01*
X171289533Y-136232235D01*
X171272417Y-136180595D01*
X176493710Y-137677776D01*
X176509176Y-137705677D01*
X176537077Y-137690212D01*
X176521611Y-137662310D01*
X176493710Y-137677776D01*
X171272417Y-136180595D01*
X171267441Y-136165584D01*
X171229074Y-136122800D01*
X171202382Y-136163438D01*
X171196298Y-136183469D01*
X171146186Y-136290939D01*
X171111807Y-136337093D01*
X171047698Y-136422420D01*
X170987908Y-136521415D01*
X170951145Y-136597243D01*
X170962345Y-136604346D01*
X170990035Y-136580907D01*
X171052309Y-136544742D01*
X171099699Y-136587249D01*
X171100918Y-136589235D01*
X171114896Y-136667959D01*
X171086338Y-136700118D01*
X171043149Y-136765278D01*
X171043712Y-136793915D01*
X171036829Y-136865332D01*
X170997272Y-136937012D01*
X170947752Y-136976581D01*
X170920632Y-136969371D01*
X170899677Y-136954101D01*
X170879289Y-136968821D01*
X170853375Y-137027564D01*
X170815838Y-137144357D01*
X170760587Y-137333231D01*
X170756667Y-137346845D01*
X170717421Y-137474225D01*
X170692222Y-137538022D01*
X170685470Y-137527658D01*
X170686873Y-137514567D01*
X170690761Y-137395478D01*
X170676270Y-137314310D01*
X170676460Y-137228843D01*
X170706434Y-137158692D01*
X170743389Y-137095801D01*
X170722654Y-137099789D01*
X170680388Y-137130288D01*
X170627675Y-137163955D01*
X170620670Y-137141869D01*
X170655327Y-137050929D01*
X170655639Y-137050182D01*
X170687292Y-136915210D01*
X170656091Y-136822594D01*
X170616320Y-136777263D01*
X170613914Y-136801293D01*
X170594979Y-136873913D01*
X170535689Y-136941840D01*
X170471188Y-136982426D01*
X170458392Y-136962750D01*
X170493174Y-136893438D01*
X170571411Y-136785113D01*
X170607759Y-136740944D01*
X170917139Y-136829657D01*
X170932606Y-136857558D01*
X170960508Y-136842093D01*
X170945041Y-136814191D01*
X170917139Y-136829657D01*
X170607759Y-136740944D01*
X170618985Y-136727304D01*
X170671075Y-136665232D01*
X170820362Y-136708040D01*
X170803812Y-136783448D01*
X170815518Y-136793862D01*
X170818355Y-136790492D01*
X170851621Y-136706858D01*
X170857269Y-136660849D01*
X170848536Y-136639205D01*
X170824510Y-136694654D01*
X170820362Y-136708040D01*
X170671075Y-136665232D01*
X170712021Y-136616440D01*
X170754064Y-136557054D01*
X170752855Y-136532131D01*
X170716137Y-136524651D01*
X170711378Y-136524255D01*
X170680333Y-136486925D01*
X170698854Y-136415063D01*
X170706270Y-136393722D01*
X170799785Y-136420538D01*
X170815251Y-136448439D01*
X170843153Y-136432973D01*
X170827687Y-136405071D01*
X170799785Y-136420538D01*
X170706270Y-136393722D01*
X170718370Y-136358901D01*
X170701061Y-136346712D01*
X170632814Y-136380419D01*
X170540105Y-136436735D01*
X170431391Y-136496653D01*
X170364177Y-136519049D01*
X170352447Y-136507500D01*
X170397999Y-136434151D01*
X170488978Y-136331841D01*
X170599840Y-136227325D01*
X170681099Y-136163283D01*
X170726071Y-136117798D01*
X170874398Y-136160331D01*
X170889864Y-136188233D01*
X170917766Y-136172766D01*
X170902300Y-136144865D01*
X170874398Y-136160331D01*
X170726071Y-136117798D01*
X170739190Y-136104530D01*
X170745545Y-136070446D01*
X170763043Y-136021238D01*
X170828291Y-135931031D01*
X170893224Y-135856505D01*
X171000281Y-135738746D01*
X171053782Y-135670347D01*
X171063122Y-135636022D01*
X171038213Y-135620634D01*
X170988236Y-135644756D01*
X170918914Y-135715494D01*
X170874969Y-135763383D01*
X170876966Y-135744232D01*
X170882103Y-135734603D01*
X170915752Y-135622118D01*
X170919805Y-135532647D01*
X170932455Y-135472975D01*
X171017563Y-135497380D01*
X171033029Y-135525280D01*
X171060930Y-135509815D01*
X171045464Y-135481913D01*
X171017563Y-135497380D01*
X170932455Y-135472975D01*
X170940165Y-135436600D01*
X170966127Y-135388763D01*
X170999066Y-135398208D01*
X171014532Y-135426109D01*
X171042434Y-135410644D01*
X171085801Y-135423080D01*
X171101268Y-135450981D01*
X171129170Y-135435515D01*
X171113703Y-135407613D01*
X171085801Y-135423080D01*
X171042434Y-135410644D01*
X171026968Y-135382742D01*
X170999066Y-135398208D01*
X170966127Y-135388763D01*
X171002010Y-135322648D01*
X171086444Y-135214130D01*
X171174566Y-135134384D01*
X171247478Y-135106749D01*
X171261362Y-135110848D01*
X171301489Y-135109700D01*
X171301271Y-135090335D01*
X171323421Y-135036246D01*
X171346830Y-135024859D01*
X171375848Y-135026795D01*
X171369786Y-135066295D01*
X171323592Y-135156016D01*
X171236300Y-135301967D01*
X171175079Y-135401745D01*
X171271708Y-135429453D01*
X171287175Y-135457355D01*
X171315076Y-135441889D01*
X171299610Y-135413988D01*
X171271708Y-135429453D01*
X171175079Y-135401745D01*
X171264330Y-135333470D01*
X171339947Y-135355153D01*
X171355413Y-135383055D01*
X171383315Y-135367589D01*
X171367848Y-135339688D01*
X171339947Y-135355153D01*
X171264330Y-135333470D01*
X171276233Y-135324365D01*
X171367761Y-135275155D01*
X171411599Y-135298070D01*
X171404452Y-135386682D01*
X171363048Y-135493678D01*
X171316469Y-135599916D01*
X171311828Y-135642148D01*
X171350390Y-135636916D01*
X171373292Y-135627383D01*
X171450444Y-135557158D01*
X171482470Y-135440751D01*
X171499557Y-135393099D01*
X176387135Y-136794589D01*
X176385695Y-136822078D01*
X176407756Y-136831791D01*
X176448004Y-136826160D01*
X176444959Y-136811170D01*
X176394980Y-136791222D01*
X176387135Y-136794589D01*
X171499557Y-135393099D01*
X171538890Y-135283414D01*
X171607052Y-135213806D01*
X171702672Y-135111939D01*
X171735731Y-135052499D01*
X176264030Y-136350967D01*
X176267177Y-136420688D01*
X176302922Y-136457743D01*
X176321254Y-136454203D01*
X176328045Y-136407932D01*
X176313482Y-136372187D01*
X176276831Y-136335219D01*
X176264030Y-136350967D01*
X171735731Y-135052499D01*
X171756364Y-135015401D01*
X171809681Y-134913021D01*
X171861187Y-134857724D01*
X171930030Y-134802756D01*
X172029214Y-134711318D01*
X172068752Y-134672397D01*
X174872171Y-135476265D01*
X174887638Y-135504166D01*
X174915538Y-135488700D01*
X174900073Y-135460798D01*
X174872171Y-135476265D01*
X172068752Y-134672397D01*
X172169063Y-134588297D01*
X172204276Y-134570457D01*
X173912019Y-135060144D01*
X173927485Y-135088046D01*
X173955387Y-135072580D01*
X173939921Y-135044679D01*
X173912019Y-135060144D01*
X172204276Y-134570457D01*
X172253433Y-134545552D01*
X172277860Y-134544624D01*
X172358832Y-134543768D01*
X172379152Y-134533622D01*
X172435966Y-134538261D01*
X172494042Y-134579386D01*
X172550706Y-134625501D01*
X172566007Y-134602938D01*
X172564854Y-134580538D01*
X172576027Y-134533814D01*
X172625081Y-134556904D01*
X172671753Y-134582305D01*
X172676783Y-134541870D01*
X172668580Y-134499510D01*
X172666327Y-134417719D01*
X172701989Y-134412442D01*
X172760697Y-134483607D01*
X172791760Y-134527705D01*
X172789080Y-134494045D01*
X172788496Y-134491578D01*
X172789967Y-134485025D01*
X173384291Y-134655445D01*
X173380930Y-134701509D01*
X173381657Y-134710622D01*
X173400786Y-134773579D01*
X173420208Y-134779561D01*
X173428498Y-134732289D01*
X173412896Y-134693306D01*
X173384291Y-134655445D01*
X172789967Y-134485025D01*
X172799370Y-134443113D01*
X172819361Y-134441762D01*
X172840516Y-134424361D01*
X173348552Y-134570038D01*
X173364017Y-134597939D01*
X173391919Y-134582473D01*
X173376453Y-134554571D01*
X173348552Y-134570038D01*
X172840516Y-134424361D01*
X172857814Y-134410133D01*
X172903563Y-134311955D01*
X172922875Y-134252420D01*
X173154615Y-134318871D01*
X173153175Y-134346360D01*
X173175236Y-134356073D01*
X173215484Y-134350441D01*
X173212439Y-134335451D01*
X173162460Y-134315504D01*
X173154615Y-134318871D01*
X172922875Y-134252420D01*
X172927029Y-134239618D01*
X172956529Y-134155388D01*
X173305420Y-134255431D01*
X173300455Y-134276759D01*
X173301127Y-134313876D01*
X173297500Y-134414194D01*
X173292202Y-134452118D01*
X173295427Y-134480454D01*
X173317504Y-134457303D01*
X173320464Y-134444650D01*
X173466376Y-134486490D01*
X173472008Y-134526736D01*
X173486997Y-134523692D01*
X173506945Y-134473712D01*
X173503578Y-134465868D01*
X173476088Y-134464428D01*
X173466376Y-134486490D01*
X173320464Y-134444650D01*
X173335561Y-134380107D01*
X173326428Y-134319061D01*
X173305420Y-134255431D01*
X172956529Y-134155388D01*
X172975689Y-134100688D01*
X172983607Y-134089923D01*
X173231196Y-134160918D01*
X173246663Y-134188819D01*
X173274564Y-134173354D01*
X173259098Y-134145452D01*
X173231196Y-134160918D01*
X172983607Y-134089923D01*
X173028751Y-134028556D01*
X173086952Y-134003158D01*
X173168917Y-133952661D01*
X173182548Y-133899851D01*
X173186452Y-133851658D01*
X173204214Y-133885344D01*
X173256005Y-133922623D01*
X173349764Y-133902387D01*
X173467706Y-133834734D01*
X173592047Y-133729764D01*
X173700876Y-133603327D01*
X173762103Y-133546620D01*
X173792039Y-133569624D01*
X173783235Y-133638676D01*
X173750787Y-133705723D01*
X173729277Y-133717070D01*
X173678410Y-133737621D01*
X173595750Y-133798784D01*
X173592879Y-133801249D01*
X173506625Y-133887570D01*
X173432606Y-133981148D01*
X173384309Y-134061191D01*
X173375220Y-134106907D01*
X173392867Y-134109605D01*
X173423068Y-134125964D01*
X173415858Y-134150492D01*
X173395986Y-134236149D01*
X173393031Y-134321377D01*
X173400199Y-134385150D01*
X173422223Y-134389479D01*
X173472615Y-134328073D01*
X173517809Y-134263289D01*
X173615333Y-134143705D01*
X173716895Y-134051809D01*
X173747754Y-134032391D01*
X173824391Y-133995510D01*
X173832593Y-134009659D01*
X173793978Y-134069113D01*
X173747861Y-134159500D01*
X173695668Y-134295249D01*
X173645027Y-134450881D01*
X173603562Y-134600919D01*
X173578902Y-134719885D01*
X173578671Y-134782300D01*
X173579962Y-134784116D01*
X173599013Y-134774020D01*
X173599708Y-134737465D01*
X173603757Y-134696154D01*
X173638111Y-134711712D01*
X173705887Y-134777206D01*
X173776762Y-134869369D01*
X173803068Y-134944503D01*
X173801881Y-134952176D01*
X173803865Y-134992824D01*
X173862467Y-134977816D01*
X173865621Y-134976439D01*
X173929267Y-134924289D01*
X173992694Y-134942477D01*
X174008160Y-134970379D01*
X174036061Y-134954912D01*
X174020596Y-134927011D01*
X173992694Y-134942477D01*
X173929267Y-134924289D01*
X173943491Y-134912636D01*
X173965729Y-134870332D01*
X173969896Y-134823251D01*
X173931150Y-134847707D01*
X173878453Y-134867514D01*
X173858116Y-134809165D01*
X173870912Y-134679024D01*
X173896445Y-134562605D01*
X173929722Y-134453213D01*
X173957138Y-134403385D01*
X173967723Y-134410527D01*
X173969444Y-134496628D01*
X173950753Y-134595204D01*
X173938573Y-134686028D01*
X173976499Y-134713539D01*
X173986557Y-134713121D01*
X174056208Y-134733593D01*
X174070964Y-134755769D01*
X174103424Y-134814615D01*
X174136135Y-134796235D01*
X174157826Y-134712894D01*
X174160986Y-134657798D01*
X174169719Y-134544081D01*
X174189187Y-134477016D01*
X174194225Y-134472099D01*
X174212411Y-134498530D01*
X174214874Y-134586334D01*
X174213921Y-134599481D01*
X174214172Y-134715349D01*
X174234440Y-134749588D01*
X174265136Y-134705807D01*
X174296672Y-134587613D01*
X174300334Y-134566965D01*
X174336683Y-134429668D01*
X174387483Y-134324141D01*
X174404656Y-134303544D01*
X174450134Y-134267507D01*
X174453162Y-134295817D01*
X174431090Y-134364181D01*
X174372440Y-134552354D01*
X174350646Y-134674189D01*
X174366413Y-134723653D01*
X174389730Y-134718749D01*
X174433129Y-134659231D01*
X174427074Y-134575250D01*
X174423188Y-134486095D01*
X174446423Y-134442746D01*
X174480446Y-134462550D01*
X174496413Y-134501605D01*
X174518179Y-134535130D01*
X174546586Y-134488552D01*
X174560759Y-134448297D01*
X174590352Y-134363686D01*
X174601697Y-134362643D01*
X174604006Y-134437231D01*
X174624337Y-134525551D01*
X174664267Y-134558192D01*
X174695776Y-134585533D01*
X174676393Y-134624174D01*
X174630546Y-134693721D01*
X174620235Y-134715592D01*
X174601479Y-134705594D01*
X174584881Y-134666415D01*
X174562936Y-134620527D01*
X174549813Y-134660727D01*
X174547395Y-134679133D01*
X174563658Y-134760219D01*
X174596378Y-134787046D01*
X174647726Y-134840528D01*
X174663205Y-134900075D01*
X174673321Y-134959772D01*
X174703534Y-134952770D01*
X174727301Y-134927224D01*
X174806590Y-134949960D01*
X174829126Y-135051481D01*
X174832856Y-135059799D01*
X174875476Y-135136960D01*
X174913148Y-135141962D01*
X174944970Y-135114753D01*
X174975990Y-135044783D01*
X174945564Y-134995655D01*
X174903609Y-134908001D01*
X174904521Y-134861338D01*
X174907255Y-134818075D01*
X174869954Y-134846192D01*
X174851659Y-134866120D01*
X174806590Y-134949960D01*
X174727301Y-134927224D01*
X174762064Y-134889861D01*
X174824757Y-134791642D01*
X174818551Y-134741791D01*
X174789604Y-134682192D01*
X174776524Y-134610997D01*
X174781861Y-134562009D01*
X174805279Y-134565678D01*
X174847616Y-134569108D01*
X174859581Y-134548486D01*
X174877124Y-134542407D01*
X174889849Y-134601329D01*
X174914787Y-134689790D01*
X174945856Y-134722990D01*
X174968865Y-134769743D01*
X174959533Y-134844244D01*
X174949018Y-134929464D01*
X174965989Y-134963430D01*
X174992596Y-134930196D01*
X175009817Y-134858663D01*
X175046268Y-134869116D01*
X175061735Y-134897017D01*
X175089636Y-134881551D01*
X175074170Y-134853650D01*
X175046268Y-134869116D01*
X175009817Y-134858663D01*
X175015798Y-134833814D01*
X175022603Y-134780196D01*
X175024362Y-134767274D01*
X175174143Y-134810223D01*
X175187180Y-134839121D01*
X175232453Y-134811296D01*
X175284329Y-134727703D01*
X175285540Y-134725050D01*
X175312505Y-134642785D01*
X175294127Y-134629715D01*
X175240913Y-134684168D01*
X175203273Y-134738135D01*
X175174143Y-134810223D01*
X175024362Y-134767274D01*
X175039108Y-134658903D01*
X175058048Y-134583465D01*
X175064774Y-134573266D01*
X175077062Y-134593347D01*
X175073368Y-134610929D01*
X175088718Y-134666998D01*
X175102228Y-134673961D01*
X175143003Y-134644594D01*
X175184124Y-134556385D01*
X175187390Y-134545847D01*
X175245543Y-134423936D01*
X175320588Y-134337640D01*
X175383478Y-134294416D01*
X175386238Y-134312521D01*
X175352435Y-134374149D01*
X175320475Y-134456721D01*
X175352940Y-134495273D01*
X175360818Y-134497798D01*
X175426944Y-134476633D01*
X175458173Y-134414695D01*
X175506099Y-134310826D01*
X175584943Y-134190895D01*
X175597284Y-134175074D01*
X175689715Y-134049327D01*
X175717846Y-133982194D01*
X175682962Y-133970315D01*
X175675010Y-133972328D01*
X175659517Y-133966898D01*
X175689091Y-133925340D01*
X175770629Y-133839911D01*
X175911034Y-133702865D01*
X175939215Y-133675828D01*
X175995382Y-133630623D01*
X176009822Y-133634191D01*
X176040691Y-133641839D01*
X176129269Y-133619321D01*
X176171629Y-133604264D01*
X176333251Y-133558851D01*
X176498325Y-133534886D01*
X176512495Y-133534265D01*
X176667363Y-133506683D01*
X176734121Y-133480782D01*
X176862885Y-133517705D01*
X176881809Y-133574048D01*
X176927186Y-133597813D01*
X176955675Y-133594520D01*
X176931636Y-133571613D01*
X176912064Y-133515997D01*
X176925404Y-133495880D01*
X176934197Y-133470654D01*
X176907580Y-133474554D01*
X176862885Y-133517705D01*
X176734121Y-133480782D01*
X176824117Y-133445867D01*
X176842938Y-133435474D01*
X176985576Y-133375140D01*
X177119083Y-133379180D01*
X177157149Y-133389669D01*
X177310654Y-133437497D01*
X177014305Y-133488933D01*
X177174453Y-133503297D01*
X177348105Y-133531375D01*
X177545306Y-133581853D01*
X177735067Y-133644881D01*
X177886393Y-133710601D01*
X177948672Y-133749457D01*
X177980988Y-133782781D01*
X177951288Y-133784186D01*
X177851661Y-133752269D01*
X177747706Y-133713763D01*
X177571282Y-133652737D01*
X177434703Y-133625529D01*
X177296515Y-133626811D01*
X177181893Y-133641028D01*
X177004036Y-133660807D01*
X176835629Y-133669169D01*
X176752049Y-133666980D01*
X176580575Y-133660980D01*
X176396428Y-133667784D01*
X176230807Y-133684949D01*
X176114910Y-133710023D01*
X176094814Y-133718553D01*
X176034119Y-133768313D01*
X175935257Y-133866747D01*
X175818375Y-133993671D01*
X175804577Y-134009309D01*
X175696302Y-134138038D01*
X175619285Y-134249771D01*
X175559236Y-134372366D01*
X175501867Y-134533683D01*
X175452117Y-134696453D01*
X175394935Y-134905191D01*
X175362898Y-135058424D01*
X175358338Y-135143893D01*
X175364571Y-135156253D01*
X175409886Y-135144271D01*
X175436743Y-135098985D01*
X175447942Y-135025807D01*
X175433640Y-135003660D01*
X175428448Y-134960739D01*
X175448499Y-134863050D01*
X175484740Y-134739284D01*
X175528122Y-134618134D01*
X175569591Y-134528290D01*
X175592752Y-134499325D01*
X175607822Y-134501005D01*
X175608753Y-134538634D01*
X175593260Y-134625541D01*
X175559058Y-134775057D01*
X175513576Y-134961303D01*
X175477535Y-135134249D01*
X175479757Y-135240754D01*
X175528168Y-135299360D01*
X175630697Y-135328605D01*
X175673132Y-135334416D01*
X175788803Y-135356983D01*
X175817719Y-135385558D01*
X175812034Y-135392657D01*
X175802845Y-135434062D01*
X175817797Y-135442350D01*
X175865530Y-135416173D01*
X175895128Y-135358924D01*
X175920851Y-135305375D01*
X175932660Y-135318066D01*
X175980109Y-135363646D01*
X176065023Y-135375488D01*
X176216885Y-135418133D01*
X176347040Y-135544529D01*
X176377826Y-135591202D01*
X176442054Y-135662352D01*
X176496624Y-135669253D01*
X176514241Y-135642052D01*
X176560400Y-135613650D01*
X176591728Y-135617338D01*
X176642508Y-135658021D01*
X176643955Y-135680720D01*
X176594154Y-135723594D01*
X176558918Y-135731758D01*
X176483069Y-135765160D01*
X176475562Y-135825226D01*
X176535582Y-135880663D01*
X176563042Y-135890714D01*
X176632880Y-135925638D01*
X176634783Y-135958219D01*
X176563168Y-135977110D01*
X176511368Y-135969763D01*
X176436330Y-135970923D01*
X176413203Y-135994415D01*
X176442035Y-136034925D01*
X176536778Y-136054490D01*
X176634948Y-136074474D01*
X176658840Y-136117457D01*
X176656618Y-136127588D01*
X176669980Y-136208197D01*
X176702111Y-136255367D01*
X176734479Y-136304950D01*
X176720150Y-136315218D01*
X176631805Y-136306910D01*
X176628712Y-136306744D01*
X176540576Y-136298054D01*
X176530412Y-136296611D01*
X176492087Y-136326172D01*
X176475619Y-136398063D01*
X176486615Y-136465857D01*
X176507659Y-136484969D01*
X176560091Y-136462666D01*
X176586788Y-136434284D01*
X176640094Y-136398939D01*
X176675217Y-136428959D01*
X176677399Y-136499542D01*
X176656515Y-136551463D01*
X176627082Y-136660893D01*
X176632172Y-136785763D01*
X176639327Y-136929521D01*
X176616915Y-137083153D01*
X176614951Y-137090273D01*
X176596391Y-137234913D01*
X176638083Y-137329641D01*
X176679229Y-137398643D01*
X176644371Y-137449659D01*
X176639706Y-137452917D01*
X176597825Y-137506919D01*
X176629055Y-137572734D01*
X176658563Y-137626091D01*
X176650572Y-137686394D01*
X176598504Y-137781984D01*
X176570049Y-137826848D01*
X176497086Y-137956497D01*
X176478966Y-138039519D01*
X176488473Y-138069720D01*
X176500568Y-138117139D01*
X176466280Y-138115779D01*
X176419877Y-138136294D01*
X176405660Y-138215731D01*
X176397563Y-138295423D01*
X176369586Y-138316015D01*
X176305303Y-138276432D01*
X176219942Y-138203578D01*
X176139372Y-138139111D01*
X176066328Y-138109477D01*
X175966231Y-138106919D01*
X175843603Y-138119131D01*
X175667987Y-138126845D01*
X175499388Y-138114441D01*
X175430381Y-138100341D01*
X175313276Y-138078656D01*
X175232959Y-138085036D01*
X175223942Y-138090557D01*
X175155623Y-138104187D01*
X175137713Y-138095183D01*
X175063803Y-138082013D01*
X174947484Y-138096456D01*
X174824365Y-138129612D01*
X174730051Y-138172579D01*
X174699968Y-138204609D01*
X174658725Y-138249480D01*
X174640236Y-138249240D01*
X174609030Y-138203627D01*
X174611377Y-138186209D01*
X174604747Y-138150579D01*
X174593462Y-138153585D01*
X174577417Y-138205691D01*
X174585362Y-138284488D01*
X174591341Y-138359465D01*
X174555441Y-138411193D01*
X174458052Y-138463715D01*
X174428391Y-138476903D01*
X174306715Y-138523043D01*
X174216901Y-138544327D01*
X174198565Y-138543732D01*
X174157938Y-138572155D01*
X174139917Y-138642738D01*
X174106968Y-138746579D01*
X174036064Y-138875748D01*
X174002034Y-138924550D01*
X173923688Y-139037815D01*
X173890896Y-139125562D01*
X173890717Y-139230979D01*
X173895837Y-139278951D01*
X173900896Y-139436165D01*
X173888923Y-139622426D01*
X173878077Y-139703446D01*
X173860657Y-139850413D01*
X173871479Y-139930918D01*
X173913370Y-139965078D01*
X173914945Y-139965543D01*
X173958879Y-139990974D01*
X173954589Y-140044799D01*
X173908591Y-140138116D01*
X173859426Y-140249552D01*
X173843230Y-140332631D01*
X173845207Y-140342875D01*
X173842875Y-140426091D01*
X173806723Y-140575425D01*
X173740793Y-140775090D01*
X173720459Y-140830148D01*
X173663309Y-140904676D01*
X173555982Y-140993336D01*
X173490044Y-141036254D01*
X173364544Y-141103527D01*
X173276436Y-141123177D01*
X173189643Y-141099966D01*
X173149990Y-141081142D01*
X173034857Y-141004051D01*
X172904496Y-140889492D01*
X172844779Y-140827048D01*
X172721094Y-140707507D01*
X172608076Y-140631066D01*
X172518692Y-140599922D01*
X172465912Y-140616269D01*
X172462703Y-140682306D01*
X172502585Y-140769094D01*
X172639794Y-140995509D01*
X172749243Y-141159445D01*
X172844752Y-141278506D01*
X172940141Y-141370295D01*
X173026664Y-141436637D01*
X173185410Y-141537819D01*
X173301376Y-141579523D01*
X173394900Y-141566757D01*
X173442998Y-141539141D01*
X173496238Y-141520147D01*
X173560652Y-141549748D01*
X173643468Y-141620936D01*
X173830317Y-141742508D01*
X173952218Y-141780036D01*
X174065970Y-141809108D01*
X174114288Y-141851997D01*
X174122284Y-141914680D01*
X174132270Y-141986501D01*
X174177587Y-141985035D01*
X174188665Y-141979232D01*
X174265176Y-141952005D01*
X174306124Y-141960620D01*
X174287762Y-141996881D01*
X174272699Y-142008238D01*
X174190823Y-142025825D01*
X174064876Y-142016098D01*
X174020915Y-142006965D01*
X173864392Y-141981173D01*
X173674087Y-141966152D01*
X173574922Y-141964432D01*
X173413840Y-141958522D01*
X173228650Y-141935388D01*
X173005090Y-141892160D01*
X172728890Y-141825965D01*
X172385786Y-141733933D01*
X172273080Y-141702379D01*
X172077666Y-141648957D01*
X171954882Y-141620948D01*
X171891224Y-141616890D01*
X171873187Y-141635316D01*
X171880005Y-141659749D01*
X171950609Y-141726011D01*
X172013212Y-141741720D01*
X172106367Y-141766508D01*
X172239514Y-141825770D01*
X172332684Y-141876845D01*
X172492146Y-141960034D01*
X172593861Y-141984445D01*
X172619127Y-141978883D01*
X172683760Y-141981698D01*
X172803320Y-142008434D01*
X172948596Y-142050408D01*
X173090377Y-142098936D01*
X173199454Y-142145337D01*
X173222570Y-142158249D01*
X173227811Y-142199972D01*
X173228108Y-142244341D01*
X173233908Y-142295099D01*
X173264300Y-142268963D01*
X173284474Y-142239914D01*
X173351532Y-142185324D01*
X173468298Y-142166209D01*
X173570144Y-142169294D01*
X173733210Y-142181968D01*
X173816418Y-142193692D01*
X173830065Y-142207190D01*
X173784448Y-142225189D01*
X173782989Y-142225617D01*
X173728347Y-142260338D01*
X173726852Y-142282358D01*
X173777834Y-142293393D01*
X173889611Y-142285861D01*
X173997713Y-142268710D01*
X174138750Y-142246517D01*
X174253332Y-142236845D01*
X174325501Y-142239232D01*
X174339296Y-142253213D01*
X174283164Y-142277006D01*
X174236702Y-142301307D01*
X174245114Y-142312310D01*
X174241532Y-142340532D01*
X174180806Y-142388456D01*
X174083077Y-142431028D01*
X174019110Y-142435958D01*
X173957859Y-142456273D01*
X173941583Y-142486176D01*
X173875343Y-142573994D01*
X173747996Y-142647145D01*
X173588659Y-142691992D01*
X173485857Y-142699591D01*
X173364325Y-142690903D01*
X173285928Y-142673001D01*
X173276284Y-142666729D01*
X173216562Y-142649925D01*
X173111984Y-142651482D01*
X172986198Y-142657836D01*
X172896547Y-142652598D01*
X172801489Y-142653812D01*
X172757617Y-142688337D01*
X172762748Y-142714534D01*
X172815976Y-142746467D01*
X172932359Y-142789708D01*
X173086715Y-142837173D01*
X173253866Y-142881771D01*
X173408629Y-142916417D01*
X173525825Y-142934022D01*
X173545794Y-142934928D01*
X173652380Y-142915105D01*
X173803956Y-142862092D01*
X173828873Y-142850744D01*
X174551992Y-143058095D01*
X174551178Y-143098042D01*
X174580365Y-143113165D01*
X174646195Y-143107537D01*
X174660412Y-143089184D01*
X174641365Y-143038132D01*
X174632039Y-143034115D01*
X174564265Y-143048796D01*
X174551992Y-143058095D01*
X173828873Y-142850744D01*
X173962907Y-142789699D01*
X174108048Y-142718677D01*
X174221322Y-142669476D01*
X174279680Y-142652047D01*
X174281155Y-142652285D01*
X174316884Y-142622201D01*
X174331076Y-142588083D01*
X174655893Y-142681222D01*
X174647120Y-142741033D01*
X174687120Y-142782389D01*
X174769848Y-142825878D01*
X174815517Y-142840776D01*
X174803871Y-142820952D01*
X174797470Y-142815800D01*
X174764835Y-142744630D01*
X174768186Y-142713330D01*
X174755566Y-142657835D01*
X174730418Y-142650678D01*
X174655893Y-142681222D01*
X174331076Y-142588083D01*
X174342944Y-142559557D01*
X174405057Y-142460767D01*
X174476117Y-142406804D01*
X174566301Y-142379399D01*
X174634594Y-142417094D01*
X174651189Y-142434629D01*
X174691296Y-142517133D01*
X174680435Y-142569014D01*
X174664365Y-142607236D01*
X174715658Y-142607513D01*
X174743464Y-142601937D01*
X174842816Y-142569410D01*
X174888932Y-142542413D01*
X174954034Y-142534410D01*
X175010016Y-142558947D01*
X175069667Y-142584423D01*
X175074571Y-142555900D01*
X175022466Y-142498017D01*
X174969848Y-142473910D01*
X174910785Y-142434962D01*
X174923717Y-142391784D01*
X174941612Y-142320043D01*
X174929170Y-142294184D01*
X174917627Y-142226233D01*
X174934756Y-142180996D01*
X174940976Y-142113629D01*
X175113682Y-142163152D01*
X175129148Y-142191053D01*
X175157049Y-142175587D01*
X175141583Y-142147685D01*
X175113682Y-142163152D01*
X174940976Y-142113629D01*
X174941996Y-142102569D01*
X174902003Y-142063962D01*
X174846305Y-142002687D01*
X174842105Y-141964515D01*
X174867563Y-141935353D01*
X174877310Y-141945099D01*
X174931171Y-141965239D01*
X174990312Y-141960206D01*
X175063094Y-141958557D01*
X175070174Y-141987527D01*
X175089538Y-142021569D01*
X175111531Y-142019513D01*
X175168929Y-142043835D01*
X175225742Y-142120461D01*
X175260769Y-142204057D01*
X175244208Y-142237206D01*
X175210364Y-142243397D01*
X175146780Y-142273082D01*
X175114919Y-142326436D01*
X175128077Y-142369570D01*
X175158049Y-142376696D01*
X175235837Y-142339204D01*
X175333520Y-142245867D01*
X175430447Y-142121450D01*
X175505968Y-141990717D01*
X175528868Y-141931968D01*
X175601559Y-141795323D01*
X175699668Y-141738860D01*
X175805608Y-141764110D01*
X175901793Y-141872602D01*
X175915378Y-141898347D01*
X175938205Y-141986364D01*
X175901069Y-142075237D01*
X175879594Y-142105365D01*
X175825794Y-142198316D01*
X175837967Y-142244579D01*
X175849608Y-142291350D01*
X175807855Y-142346541D01*
X175754471Y-142423994D01*
X175772498Y-142457521D01*
X175853207Y-142433144D01*
X175859734Y-142429599D01*
X175958420Y-142390651D01*
X175997346Y-142411612D01*
X175971231Y-142486790D01*
X175947165Y-142550384D01*
X175979056Y-142556663D01*
X176030659Y-142505605D01*
X176077137Y-142403521D01*
X176080552Y-142392167D01*
X176119707Y-142294175D01*
X176162074Y-142276152D01*
X176176116Y-142284353D01*
X176221964Y-142284437D01*
X176277277Y-142212383D01*
X176321129Y-142124994D01*
X176371793Y-142025245D01*
X176404366Y-141991116D01*
X176420343Y-142028119D01*
X176421224Y-142141765D01*
X176408505Y-142337564D01*
X176401588Y-142421034D01*
X176384929Y-142574615D01*
X176358709Y-142697920D01*
X176312712Y-142820527D01*
X176236727Y-142972020D01*
X176168380Y-143096471D01*
X176064871Y-143275826D01*
X175964899Y-143438127D01*
X175884591Y-143557584D01*
X175860471Y-143588935D01*
X175777688Y-143688382D01*
X175715138Y-143764042D01*
X175713115Y-143766510D01*
X175634143Y-143854262D01*
X175557195Y-143926964D01*
X175502949Y-143966602D01*
X175490168Y-143960716D01*
X175461406Y-143959868D01*
X175375088Y-143999207D01*
X175249655Y-144070275D01*
X175244949Y-144073132D01*
X175114881Y-144148890D01*
X175020221Y-144197616D01*
X174981406Y-144208794D01*
X174981394Y-144208761D01*
X174969241Y-144145262D01*
X174956078Y-144042396D01*
X174946793Y-143943737D01*
X174946026Y-143893574D01*
X174974116Y-143895674D01*
X174979178Y-143900717D01*
X175010990Y-143885376D01*
X175050801Y-143807764D01*
X175052037Y-143804432D01*
X175107866Y-143706450D01*
X175208848Y-143571706D01*
X175333842Y-143424640D01*
X175461703Y-143289695D01*
X175571288Y-143191313D01*
X175600067Y-143170891D01*
X175665999Y-143106083D01*
X175743349Y-142999601D01*
X175815833Y-142878857D01*
X175867171Y-142771259D01*
X175881081Y-142704217D01*
X175879561Y-142700375D01*
X175831068Y-142693916D01*
X175741898Y-142728838D01*
X175738358Y-142730780D01*
X175660347Y-142788627D01*
X175638661Y-142835940D01*
X175639251Y-142837129D01*
X175686065Y-142843962D01*
X175747461Y-142810795D01*
X175808316Y-142767930D01*
X175807843Y-142788382D01*
X175780579Y-142836886D01*
X175701612Y-142924957D01*
X175641634Y-142961312D01*
X175573366Y-143008797D01*
X175466196Y-143106793D01*
X175339628Y-143237030D01*
X175295670Y-143285378D01*
X175175770Y-143412024D01*
X175077093Y-143502258D01*
X175014920Y-143542688D01*
X175003297Y-143541517D01*
X174953962Y-143535380D01*
X174944177Y-143545729D01*
X174939745Y-143530407D01*
X174957489Y-143448611D01*
X174979158Y-143368836D01*
X175031362Y-143227296D01*
X175084457Y-143153859D01*
X175101373Y-143147219D01*
X175165775Y-143116587D01*
X175155712Y-143058714D01*
X175104067Y-143015066D01*
X175047315Y-142935892D01*
X175049870Y-142876718D01*
X175044857Y-142795403D01*
X175010854Y-142767269D01*
X174947581Y-142789379D01*
X174917201Y-142848362D01*
X174872106Y-142940617D01*
X174833749Y-142978512D01*
X174791816Y-143047567D01*
X174757508Y-143200657D01*
X174746981Y-143278363D01*
X174721752Y-143442989D01*
X174683859Y-143555643D01*
X174617722Y-143654540D01*
X174571949Y-143707697D01*
X174479871Y-143799354D01*
X174408127Y-143851032D01*
X174387262Y-143855663D01*
X174329220Y-143870778D01*
X174220220Y-143922082D01*
X174106600Y-143985315D01*
X173842803Y-144101637D01*
X173599552Y-144140863D01*
X173429022Y-144155322D01*
X173276282Y-144177597D01*
X173204686Y-144194206D01*
X173065563Y-144208028D01*
X172954159Y-144187704D01*
X172842224Y-144159878D01*
X172765763Y-144160066D01*
X172680892Y-144148368D01*
X172547070Y-144090844D01*
X172385015Y-143999001D01*
X172215452Y-143884347D01*
X172087958Y-143783627D01*
X171971034Y-143661241D01*
X171841911Y-143491867D01*
X171726801Y-143310163D01*
X171718029Y-143294399D01*
X171630783Y-143138106D01*
X171592881Y-143077855D01*
X171698186Y-143108050D01*
X171713652Y-143135952D01*
X171741554Y-143120486D01*
X171726088Y-143092584D01*
X171698186Y-143108050D01*
X171592881Y-143077855D01*
X171577116Y-143052796D01*
X171548372Y-143029717D01*
X171535893Y-143060116D01*
X171532292Y-143106636D01*
X171554552Y-143247570D01*
X171625499Y-143435869D01*
X171735084Y-143650396D01*
X171873258Y-143870018D01*
X171937305Y-143958569D01*
X172025419Y-144077753D01*
X172062109Y-144141850D01*
X172050871Y-144167367D01*
X171995200Y-144170809D01*
X171982163Y-144170406D01*
X171893251Y-144189782D01*
X171844065Y-144237994D01*
X171850448Y-144289810D01*
X171892246Y-144313569D01*
X171937668Y-144359401D01*
X171928017Y-144429962D01*
X171876958Y-144491530D01*
X171811987Y-144511624D01*
X171731840Y-144525790D01*
X171707763Y-144547744D01*
X171662462Y-144568379D01*
X171609454Y-144561015D01*
X171489994Y-144548833D01*
X171435203Y-144554909D01*
X171329930Y-144572759D01*
X171195580Y-144589746D01*
X171191046Y-144590223D01*
X171069283Y-144620357D01*
X171018271Y-144671004D01*
X171046271Y-144730773D01*
X171074611Y-144750767D01*
X171107015Y-144776983D01*
X171058225Y-144772068D01*
X171043238Y-144768679D01*
X170969378Y-144768858D01*
X170957005Y-144799530D01*
X171008008Y-144846188D01*
X171034243Y-144848656D01*
X171069775Y-144869112D01*
X171048821Y-144923076D01*
X171029268Y-144967148D01*
X171046256Y-144996450D01*
X171116430Y-145019997D01*
X171256428Y-145046802D01*
X171259476Y-145047330D01*
X172018379Y-145264942D01*
X172033845Y-145292844D01*
X172061747Y-145277377D01*
X172046281Y-145249475D01*
X172018379Y-145264942D01*
X171259476Y-145047330D01*
X171287006Y-145052097D01*
X171498290Y-145082738D01*
X171734477Y-145108633D01*
X171872357Y-145119476D01*
X172046582Y-145130471D01*
X172199636Y-145140871D01*
X172286729Y-145147481D01*
X172401247Y-145157298D01*
X172259628Y-145201075D01*
X172159792Y-145240464D01*
X172109060Y-145276866D01*
X172108215Y-145279000D01*
X172139662Y-145305162D01*
X172231831Y-145321166D01*
X172355491Y-145323883D01*
X172449737Y-145315549D01*
X172583656Y-145300350D01*
X172727663Y-145289810D01*
X172832323Y-145287535D01*
X172833227Y-145287577D01*
X172899846Y-145270955D01*
X173011672Y-145226610D01*
X173057465Y-145205741D01*
X173223067Y-145139882D01*
X173397584Y-145087793D01*
X173421358Y-145082433D01*
X173588159Y-145031343D01*
X173754763Y-144957215D01*
X173776181Y-144945286D01*
X173909200Y-144879882D01*
X174087629Y-144806942D01*
X174250563Y-144749683D01*
X174509254Y-144660996D01*
X174725340Y-144575202D01*
X174887285Y-144497729D01*
X174983553Y-144434004D01*
X175005111Y-144394649D01*
X175012356Y-144371864D01*
X175034750Y-144391346D01*
X175093458Y-144393463D01*
X175209686Y-144350946D01*
X175368232Y-144272579D01*
X175553896Y-144167145D01*
X175751477Y-144043431D01*
X175945775Y-143910217D01*
X176121589Y-143776291D01*
X176172378Y-143733934D01*
X176465359Y-143479292D01*
X176697507Y-143266417D01*
X176879277Y-143081769D01*
X177021130Y-142911811D01*
X177133524Y-142743001D01*
X177226917Y-142561800D01*
X177311768Y-142354671D01*
X177375187Y-142176803D01*
X177444752Y-142011791D01*
X177523931Y-141910830D01*
X177580302Y-141871883D01*
X177694889Y-141780552D01*
X177731871Y-141663658D01*
X177718756Y-141557718D01*
X177711469Y-141429023D01*
X177729769Y-141260415D01*
X177767042Y-141080244D01*
X177816670Y-140916861D01*
X177872040Y-140798618D01*
X177904513Y-140761652D01*
X177944753Y-140704045D01*
X178003341Y-140585525D01*
X178068497Y-140430233D01*
X178077039Y-140408067D01*
X178203865Y-140077993D01*
X178304322Y-139823763D01*
X178382753Y-139636378D01*
X178443506Y-139506838D01*
X178490922Y-139426142D01*
X178529346Y-139385294D01*
X178563123Y-139375294D01*
X178574582Y-139377396D01*
X178605927Y-139375410D01*
X178634016Y-139340305D01*
X178663920Y-139258176D01*
X178700713Y-139115122D01*
X178748998Y-138899406D01*
X178794308Y-138693705D01*
X178834371Y-138517212D01*
X178864402Y-138390685D01*
X178878405Y-138338110D01*
X178980566Y-138030143D01*
X179056328Y-137795546D01*
X179109059Y-137622510D01*
X179142130Y-137499228D01*
X179158912Y-137413892D01*
X179162772Y-137354691D01*
X179162198Y-137343669D01*
X179164068Y-137225747D01*
X179179425Y-137072811D01*
X179186554Y-137024998D01*
X179202387Y-136869119D01*
X179201352Y-136727972D01*
X179197308Y-136695891D01*
X179182814Y-136570880D01*
X179173532Y-136410756D01*
X179172276Y-136357298D01*
X179165853Y-136219818D01*
X179152700Y-136118003D01*
X179145607Y-136093863D01*
X179135315Y-136006905D01*
X179141348Y-135973497D01*
X179146036Y-135895783D01*
X179135016Y-135783964D01*
X179113969Y-135669019D01*
X179088572Y-135581927D01*
X179064503Y-135553666D01*
X179064401Y-135553720D01*
X179037970Y-135526167D01*
X179011840Y-135442952D01*
X178980107Y-135348601D01*
X178946323Y-135306901D01*
X178934124Y-135274617D01*
X178944277Y-135262593D01*
X178947627Y-135207300D01*
X178911156Y-135143285D01*
X178869473Y-135072405D01*
X178872921Y-135039792D01*
X178887342Y-134986087D01*
X178875078Y-134877609D01*
X178842904Y-134743377D01*
X178797595Y-134612415D01*
X178752252Y-134522939D01*
X178650164Y-134378741D01*
X178545933Y-134249317D01*
X178457588Y-134155746D01*
X178407560Y-134119875D01*
X178373194Y-134075451D01*
X178374872Y-134063568D01*
X178421008Y-134035001D01*
X178451466Y-134038597D01*
X178521843Y-134026282D01*
X178639297Y-133975617D01*
X178751471Y-133913422D01*
X178882292Y-133839356D01*
X178983936Y-133791957D01*
X179028261Y-133781589D01*
X179098470Y-133771887D01*
X179144302Y-133751701D01*
X179227481Y-133732635D01*
X179367096Y-133725434D01*
X179501072Y-133729861D01*
X179645288Y-133743907D01*
X179764560Y-133769240D01*
X179887596Y-133815691D01*
G37*
D10*
X173067310Y-122695719D02*
X155287310Y-122695719D01*
X173067310Y-92215719D02*
X173067310Y-122695719D01*
X167987310Y-92215719D02*
X173067310Y-92215719D01*
X167987310Y-89675719D02*
X167987310Y-92215719D01*
X160367310Y-89675719D02*
X167987310Y-89675719D01*
X160367310Y-92215719D02*
X160367310Y-89675719D01*
X155287310Y-92215719D02*
X160367310Y-92215719D01*
X155287310Y-92215719D02*
X155287310Y-122695719D01*
%LPC*%
D12*
X116796404Y-128848055D02*
X117711892Y-129110567D01*
X116455800Y-129344845D02*
X117647916Y-127606080D01*
X117737482Y-129712362D01*
X119136964Y-130014581D02*
X118927615Y-130053627D01*
X118561421Y-129948622D01*
X118404574Y-129804571D01*
X118365528Y-129595223D01*
X118575537Y-128862833D01*
X118719588Y-128705987D01*
X118928937Y-128666940D01*
X119295132Y-128771945D01*
X119451978Y-128915996D01*
X119491025Y-129125345D01*
X119438522Y-129308442D01*
X118470533Y-129229028D01*
X121217655Y-129323220D02*
X120771385Y-130879548D01*
X120627334Y-131036394D01*
X120509534Y-131101692D01*
X120300186Y-131140738D01*
X120025539Y-131061985D01*
X119868693Y-130917934D01*
X120876390Y-130513353D02*
X120667041Y-130552399D01*
X120300846Y-130447395D01*
X120144000Y-130303344D01*
X120078703Y-130185544D01*
X120039656Y-129976195D01*
X120197163Y-129426903D01*
X120341214Y-129270056D01*
X120459014Y-129204759D01*
X120668363Y-129165712D01*
X121034558Y-129270717D01*
X121191404Y-129414768D01*
X121765626Y-130867414D02*
X122133143Y-129585731D01*
X122316901Y-128944890D02*
X122199101Y-129010188D01*
X122264399Y-129127988D01*
X122382198Y-129062690D01*
X122316901Y-128944890D01*
X122264399Y-129127988D01*
X122615816Y-131012125D02*
X122772662Y-131156177D01*
X123138857Y-131261181D01*
X123348206Y-131222135D01*
X123492257Y-131065289D01*
X123518508Y-130973740D01*
X123479462Y-130764391D01*
X123322615Y-130620340D01*
X123047969Y-130541587D01*
X122891123Y-130397535D01*
X122852077Y-130188187D01*
X122878328Y-130096638D01*
X123022379Y-129939792D01*
X123231727Y-129900745D01*
X123506374Y-129979499D01*
X123663220Y-130123550D01*
X125886641Y-130662030D02*
X125976868Y-132074968D01*
X126802128Y-130924541D01*
X128174038Y-132704996D02*
X127075453Y-132389982D01*
X127624745Y-132547489D02*
X128176020Y-130624965D01*
X127914169Y-130847109D01*
X127678569Y-130977704D01*
X127469220Y-131016751D01*
X129050478Y-132758159D02*
X129115776Y-132875959D01*
X128997976Y-132941257D01*
X128932679Y-132823457D01*
X129050478Y-132758159D01*
X128997976Y-132941257D01*
X130920499Y-133492531D02*
X129821915Y-133177517D01*
X130371207Y-133335024D02*
X130922482Y-131412501D01*
X130660631Y-131634645D01*
X130425031Y-131765240D01*
X130215682Y-131804286D01*
X115304864Y-131112757D02*
X114937348Y-132394440D01*
X114480926Y-130876497D02*
X114192163Y-131883533D01*
X114231209Y-132092882D01*
X114388056Y-132236933D01*
X114662702Y-132315686D01*
X114872050Y-132276640D01*
X114989850Y-132211342D01*
X117803592Y-131036647D02*
X115446933Y-133035942D01*
X119017995Y-133366394D02*
X118900195Y-133431692D01*
X118599297Y-133444487D01*
X118416200Y-133391984D01*
X118167805Y-133221682D01*
X118037210Y-132986082D01*
X117998163Y-132776734D01*
X118011619Y-132384288D01*
X118090373Y-132109641D01*
X118286926Y-131769698D01*
X118430977Y-131612851D01*
X118666577Y-131482256D01*
X118967474Y-131469461D01*
X119150572Y-131521963D01*
X119398967Y-131692266D01*
X119464265Y-131810066D01*
X120064077Y-133864506D02*
X119907231Y-133720454D01*
X119841933Y-133602655D01*
X119802887Y-133393306D01*
X119960394Y-132844014D01*
X120104445Y-132687167D01*
X120222245Y-132621870D01*
X120431593Y-132582823D01*
X120706240Y-132661577D01*
X120863086Y-132805628D01*
X120928383Y-132923428D01*
X120967430Y-133132776D01*
X120809923Y-133682069D01*
X120665872Y-133838915D01*
X120548072Y-133904213D01*
X120338723Y-133943259D01*
X120064077Y-133864506D01*
X122720312Y-133239103D02*
X122352795Y-134520785D01*
X121896373Y-133002842D02*
X121607610Y-134009878D01*
X121646657Y-134219227D01*
X121803503Y-134363278D01*
X122078149Y-134442031D01*
X122287498Y-134402985D01*
X122405298Y-134337688D01*
X123268283Y-134783297D02*
X123635799Y-133501614D01*
X123583297Y-133684712D02*
X123701097Y-133619414D01*
X123910445Y-133580368D01*
X124185091Y-133659122D01*
X124341938Y-133803173D01*
X124380984Y-134012521D01*
X124092221Y-135019557D01*
X124380984Y-134012521D02*
X124525035Y-133855675D01*
X124734384Y-133816629D01*
X125009030Y-133895382D01*
X125165876Y-134039433D01*
X125204923Y-134248782D01*
X124916160Y-135255818D01*
X125831647Y-135518330D02*
X126382922Y-133595806D01*
X126172912Y-134328196D02*
X126382261Y-134289150D01*
X126748456Y-134394155D01*
X126905302Y-134538206D01*
X126970600Y-134656006D01*
X127009646Y-134865354D01*
X126852139Y-135414647D01*
X126708088Y-135571493D01*
X126590288Y-135636790D01*
X126380940Y-135675837D01*
X126014745Y-135570832D01*
X125857898Y-135426781D01*
X128395012Y-136253363D02*
X128683775Y-135246327D01*
X128644728Y-135036978D01*
X128487882Y-134892927D01*
X128121687Y-134787922D01*
X127912338Y-134826969D01*
X128421263Y-136161814D02*
X128211914Y-136200860D01*
X127754171Y-136069604D01*
X127597324Y-135925553D01*
X127558278Y-135716205D01*
X127610780Y-135533107D01*
X127754831Y-135376261D01*
X127964180Y-135337215D01*
X128421924Y-135468470D01*
X128631272Y-135429424D01*
X129494918Y-135181690D02*
X129585145Y-136594628D01*
X130410405Y-135444202D02*
X129585145Y-136594628D01*
X129270792Y-136999869D01*
X129152992Y-137065167D01*
X128943643Y-137104213D01*
X131599217Y-137172154D02*
X131887980Y-136165118D01*
X131848934Y-135955769D01*
X131692088Y-135811718D01*
X131325893Y-135706713D01*
X131116544Y-135745760D01*
X131625468Y-137080605D02*
X131416120Y-137119651D01*
X130958376Y-136988396D01*
X130801530Y-136844345D01*
X130762484Y-136634996D01*
X130814986Y-136451898D01*
X130959037Y-136295052D01*
X131168386Y-136256006D01*
X131626129Y-136387262D01*
X131835478Y-136348215D01*
D13*
X105189722Y-83629982D03*
X110702034Y-87074458D03*
X167677317Y-133705719D03*
X161177317Y-133705719D03*
D14*
X168101134Y-125842475D03*
X165561134Y-125842475D03*
X163021134Y-125842475D03*
D15*
X160481134Y-125842475D03*
D16*
X138706842Y-105881111D02*
X138455240Y-105717719D01*
X137323459Y-108011334D02*
X137071857Y-107847942D01*
D11*
G36*
X137207187Y-109872224D02*
G01*
X136209408Y-111408668D01*
X134421363Y-110247498D01*
X135419142Y-108711054D01*
X137207187Y-109872224D01*
G37*
G36*
X62770377Y-54492718D02*
G01*
X61878230Y-53935243D01*
X62621177Y-52746280D01*
X63513324Y-53303755D01*
X62770377Y-54492718D01*
G37*
D17*
X63774162Y-51893721D03*
D11*
G36*
X59974616Y-59388634D02*
G01*
X58703391Y-58594285D01*
X59497740Y-57323060D01*
X60768965Y-58117409D01*
X59974616Y-59388634D01*
G37*
G36*
X60889163Y-57503288D02*
G01*
X59997016Y-56945813D01*
X60739963Y-55756850D01*
X61632110Y-56314325D01*
X60889163Y-57503288D01*
G37*
G36*
X92611580Y-78445874D02*
G01*
X91719433Y-77888399D01*
X92462380Y-76699436D01*
X93354527Y-77256911D01*
X92611580Y-78445874D01*
G37*
D17*
X93615365Y-75846877D03*
D11*
G36*
X89815819Y-83341790D02*
G01*
X88544594Y-82547441D01*
X89338943Y-81276216D01*
X90610168Y-82070565D01*
X89815819Y-83341790D01*
G37*
G36*
X90730366Y-81456444D02*
G01*
X89838219Y-80898969D01*
X90581166Y-79710006D01*
X91473313Y-80267481D01*
X90730366Y-81456444D01*
G37*
G36*
X77558495Y-66681312D02*
G01*
X76666348Y-66123837D01*
X77409295Y-64934874D01*
X78301442Y-65492349D01*
X77558495Y-66681312D01*
G37*
D17*
X78562280Y-64082315D03*
D11*
G36*
X74762734Y-71577228D02*
G01*
X73491509Y-70782879D01*
X74285858Y-69511654D01*
X75557083Y-70306003D01*
X74762734Y-71577228D01*
G37*
G36*
X75677281Y-69691882D02*
G01*
X74785134Y-69134407D01*
X75528081Y-67945444D01*
X76420228Y-68502919D01*
X75677281Y-69691882D01*
G37*
G36*
X126322134Y-94942822D02*
G01*
X125764659Y-95834969D01*
X124575696Y-95092022D01*
X125133171Y-94199875D01*
X126322134Y-94942822D01*
G37*
D17*
X123723137Y-93939037D03*
D11*
G36*
X131218050Y-97738583D02*
G01*
X130423701Y-99009808D01*
X129152476Y-98215459D01*
X129946825Y-96944234D01*
X131218050Y-97738583D01*
G37*
G36*
X129332704Y-96824036D02*
G01*
X128775229Y-97716183D01*
X127586266Y-96973236D01*
X128143741Y-96081089D01*
X129332704Y-96824036D01*
G37*
D18*
X226427313Y-157930726D03*
D17*
X226427313Y-155895726D03*
D19*
X226427313Y-163515726D03*
D18*
X226427313Y-161480726D03*
D11*
G36*
X204907430Y-158782187D02*
G01*
X203891276Y-159054465D01*
X203528412Y-157700237D01*
X204544566Y-157427959D01*
X204907430Y-158782187D01*
G37*
D17*
X203691224Y-156275553D03*
D11*
G36*
X206581372Y-164165884D02*
G01*
X205133449Y-164553853D01*
X204745480Y-163105930D01*
X206193403Y-162717961D01*
X206581372Y-164165884D01*
G37*
G36*
X205826238Y-162211223D02*
G01*
X204810084Y-162483501D01*
X204447220Y-161129273D01*
X205463374Y-160856995D01*
X205826238Y-162211223D01*
G37*
G36*
X180118809Y-175103426D02*
G01*
X179576989Y-174201686D01*
X180778737Y-173479602D01*
X181320557Y-174381342D01*
X180118809Y-175103426D01*
G37*
D17*
X182193108Y-173243412D03*
D11*
G36*
X175405068Y-178196470D02*
G01*
X174633026Y-176911576D01*
X175917920Y-176139534D01*
X176689962Y-177424428D01*
X175405068Y-178196470D01*
G37*
G36*
X177075865Y-176931812D02*
G01*
X176534045Y-176030072D01*
X177735793Y-175307988D01*
X178277613Y-176209728D01*
X177075865Y-176931812D01*
G37*
G36*
X70440880Y-128658602D02*
G01*
X69512019Y-129152486D01*
X68853820Y-127914594D01*
X69782681Y-127420710D01*
X70440880Y-128658602D01*
G37*
D17*
X68691975Y-126489800D03*
D11*
G36*
X73282987Y-133527760D02*
G01*
X71959449Y-134231498D01*
X71255711Y-132907960D01*
X72579249Y-132204222D01*
X73282987Y-133527760D01*
G37*
G36*
X72107504Y-131793066D02*
G01*
X71178643Y-132286950D01*
X70520444Y-131049058D01*
X71449305Y-130555174D01*
X72107504Y-131793066D01*
G37*
G36*
X54187623Y-126274684D02*
G01*
X53470161Y-125505300D01*
X54495519Y-124549138D01*
X55212981Y-125318522D01*
X54187623Y-126274684D01*
G37*
D17*
X55829876Y-124024044D03*
D11*
G36*
X50219968Y-130280179D02*
G01*
X49197653Y-129183880D01*
X50293952Y-128161565D01*
X51316267Y-129257864D01*
X50219968Y-130280179D01*
G37*
G36*
X51591317Y-128695778D02*
G01*
X50873855Y-127926394D01*
X51899213Y-126970232D01*
X52616675Y-127739616D01*
X51591317Y-128695778D01*
G37*
G36*
X39429128Y-109773801D02*
G01*
X38536981Y-109216326D01*
X39279928Y-108027363D01*
X40172075Y-108584838D01*
X39429128Y-109773801D01*
G37*
D17*
X40432913Y-107174804D03*
D11*
G36*
X36633367Y-114669717D02*
G01*
X35362142Y-113875368D01*
X36156491Y-112604143D01*
X37427716Y-113398492D01*
X36633367Y-114669717D01*
G37*
G36*
X37547914Y-112784371D02*
G01*
X36655767Y-112226896D01*
X37398714Y-111037933D01*
X38290861Y-111595408D01*
X37547914Y-112784371D01*
G37*
D18*
X290677313Y-144180725D03*
D17*
X290677313Y-142145725D03*
D19*
X290677313Y-149765725D03*
D18*
X290677313Y-147730725D03*
X290677304Y-125430715D03*
D17*
X290677304Y-123395715D03*
D19*
X290677304Y-131015715D03*
D18*
X290677304Y-128980715D03*
X290677294Y-106180702D03*
D17*
X290677294Y-104145702D03*
D19*
X290677294Y-111765702D03*
D18*
X290677294Y-109730702D03*
X273677302Y-143180741D03*
D17*
X273677302Y-141145741D03*
D19*
X273677302Y-148765741D03*
D18*
X273677302Y-146730741D03*
X273677294Y-124180721D03*
D17*
X273677294Y-122145721D03*
D19*
X273677294Y-129765721D03*
D18*
X273677294Y-127730721D03*
X273677313Y-104930728D03*
D17*
X273677313Y-102895728D03*
D19*
X273677313Y-110515728D03*
D18*
X273677313Y-108480728D03*
X254677304Y-138680727D03*
D17*
X254677304Y-136645727D03*
D19*
X254677304Y-144265727D03*
D18*
X254677304Y-142230727D03*
X254677300Y-119430726D03*
D17*
X254677300Y-117395726D03*
D19*
X254677300Y-125015726D03*
D18*
X254677300Y-122980726D03*
X254677324Y-102930714D03*
D17*
X254677324Y-100895714D03*
D19*
X254677324Y-108515714D03*
D18*
X254677324Y-106480714D03*
X235677293Y-135930732D03*
D17*
X235677293Y-133895732D03*
D19*
X235677293Y-141515732D03*
D18*
X235677293Y-139480732D03*
X235677291Y-117180720D03*
D17*
X235677291Y-115145720D03*
D19*
X235677291Y-122765720D03*
D18*
X235677291Y-120730720D03*
X235677307Y-98180717D03*
D17*
X235677307Y-96145717D03*
D19*
X235677307Y-103765717D03*
D18*
X235677307Y-101730717D03*
X216677309Y-138180713D03*
D17*
X216677309Y-136145713D03*
D19*
X216677309Y-143765713D03*
D18*
X216677309Y-141730713D03*
X216677300Y-119430722D03*
D17*
X216677300Y-117395722D03*
D19*
X216677300Y-125015722D03*
D18*
X216677300Y-122980722D03*
X216677308Y-100430723D03*
D17*
X216677308Y-98395723D03*
D19*
X216677308Y-106015723D03*
D18*
X216677308Y-103980723D03*
X197677320Y-140930722D03*
D17*
X197677320Y-138895722D03*
D19*
X197677320Y-146515722D03*
D18*
X197677320Y-144480722D03*
X197677307Y-121930714D03*
D17*
X197677307Y-119895714D03*
D19*
X197677307Y-127515714D03*
D18*
X197677307Y-125480714D03*
X197677296Y-102930718D03*
D17*
X197677296Y-100895718D03*
D19*
X197677296Y-108515718D03*
D18*
X197677296Y-106480718D03*
D11*
G36*
X72077222Y-111307747D02*
G01*
X71185075Y-110750272D01*
X71928022Y-109561309D01*
X72820169Y-110118784D01*
X72077222Y-111307747D01*
G37*
D17*
X73081007Y-108708750D03*
D11*
G36*
X69281461Y-116203663D02*
G01*
X68010236Y-115409314D01*
X68804585Y-114138089D01*
X70075810Y-114932438D01*
X69281461Y-116203663D01*
G37*
G36*
X70196008Y-114318317D02*
G01*
X69303861Y-113760842D01*
X70046808Y-112571879D01*
X70938955Y-113129354D01*
X70196008Y-114318317D01*
G37*
G36*
X82145654Y-95194829D02*
G01*
X81253507Y-94637354D01*
X81996454Y-93448391D01*
X82888601Y-94005866D01*
X82145654Y-95194829D01*
G37*
D17*
X83149439Y-92595832D03*
D11*
G36*
X79349893Y-100090745D02*
G01*
X78078668Y-99296396D01*
X78873017Y-98025171D01*
X80144242Y-98819520D01*
X79349893Y-100090745D01*
G37*
G36*
X80264440Y-98205399D02*
G01*
X79372293Y-97647924D01*
X80115240Y-96458961D01*
X81007387Y-97016436D01*
X80264440Y-98205399D01*
G37*
G36*
X57421562Y-98907124D02*
G01*
X56529415Y-98349649D01*
X57272362Y-97160686D01*
X58164509Y-97718161D01*
X57421562Y-98907124D01*
G37*
D17*
X58425347Y-96308127D03*
D11*
G36*
X54625801Y-103803040D02*
G01*
X53354576Y-103008691D01*
X54148925Y-101737466D01*
X55420150Y-102531815D01*
X54625801Y-103803040D01*
G37*
G36*
X55540348Y-101917694D02*
G01*
X54648201Y-101360219D01*
X55391148Y-100171256D01*
X56283295Y-100728731D01*
X55540348Y-101917694D01*
G37*
G36*
X67357554Y-83006236D02*
G01*
X66465407Y-82448761D01*
X67208354Y-81259798D01*
X68100501Y-81817273D01*
X67357554Y-83006236D01*
G37*
D17*
X68361339Y-80407239D03*
D11*
G36*
X64561793Y-87902152D02*
G01*
X63290568Y-87107803D01*
X64084917Y-85836578D01*
X65356142Y-86630927D01*
X64561793Y-87902152D01*
G37*
G36*
X65476340Y-86016806D02*
G01*
X64584193Y-85459331D01*
X65327140Y-84270368D01*
X66219287Y-84827843D01*
X65476340Y-86016806D01*
G37*
G36*
X42500975Y-86930547D02*
G01*
X41608828Y-86373072D01*
X42351775Y-85184109D01*
X43243922Y-85741584D01*
X42500975Y-86930547D01*
G37*
D17*
X43504760Y-84331550D03*
D11*
G36*
X39705214Y-91826463D02*
G01*
X38433989Y-91032114D01*
X39228338Y-89760889D01*
X40499563Y-90555238D01*
X39705214Y-91826463D01*
G37*
G36*
X40619761Y-89941117D02*
G01*
X39727614Y-89383642D01*
X40470561Y-88194679D01*
X41362708Y-88752154D01*
X40619761Y-89941117D01*
G37*
G36*
X52569429Y-70817647D02*
G01*
X51677282Y-70260172D01*
X52420229Y-69071209D01*
X53312376Y-69628684D01*
X52569429Y-70817647D01*
G37*
D17*
X53573214Y-68218650D03*
D11*
G36*
X49773668Y-75713563D02*
G01*
X48502443Y-74919214D01*
X49296792Y-73647989D01*
X50568017Y-74442338D01*
X49773668Y-75713563D01*
G37*
G36*
X50688215Y-73828217D02*
G01*
X49796068Y-73270742D01*
X50539015Y-72081779D01*
X51431162Y-72639254D01*
X50688215Y-73828217D01*
G37*
G36*
X25195732Y-78770217D02*
G01*
X24303585Y-78212742D01*
X25046532Y-77023779D01*
X25938679Y-77581254D01*
X25195732Y-78770217D01*
G37*
D17*
X26199517Y-76171220D03*
D11*
G36*
X22399971Y-83666133D02*
G01*
X21128746Y-82871784D01*
X21923095Y-81600559D01*
X23194320Y-82394908D01*
X22399971Y-83666133D01*
G37*
G36*
X23314518Y-81780787D02*
G01*
X22422371Y-81223312D01*
X23165318Y-80034349D01*
X24057465Y-80591824D01*
X23314518Y-81780787D01*
G37*
G36*
X35264197Y-62657282D02*
G01*
X34372050Y-62099807D01*
X35114997Y-60910844D01*
X36007144Y-61468319D01*
X35264197Y-62657282D01*
G37*
D17*
X36267982Y-60058285D03*
D11*
G36*
X32468436Y-67553198D02*
G01*
X31197211Y-66758849D01*
X31991560Y-65487624D01*
X33262785Y-66281973D01*
X32468436Y-67553198D01*
G37*
G36*
X33382983Y-65667852D02*
G01*
X32490836Y-65110377D01*
X33233783Y-63921414D01*
X34125930Y-64478889D01*
X33382983Y-65667852D01*
G37*
G36*
X45465147Y-46332373D02*
G01*
X44573000Y-45774898D01*
X45315947Y-44585935D01*
X46208094Y-45143410D01*
X45465147Y-46332373D01*
G37*
D17*
X46468932Y-43733376D03*
D11*
G36*
X42669386Y-51228289D02*
G01*
X41398161Y-50433940D01*
X42192510Y-49162715D01*
X43463735Y-49957064D01*
X42669386Y-51228289D01*
G37*
G36*
X43583933Y-49342943D02*
G01*
X42691786Y-48785468D01*
X43434733Y-47596505D01*
X44326880Y-48153980D01*
X43583933Y-49342943D01*
G37*
G36*
X6698187Y-72517968D02*
G01*
X5806040Y-71960493D01*
X6548987Y-70771530D01*
X7441134Y-71329005D01*
X6698187Y-72517968D01*
G37*
D17*
X7701972Y-69918971D03*
D11*
G36*
X3902426Y-77413884D02*
G01*
X2631201Y-76619535D01*
X3425550Y-75348310D01*
X4696775Y-76142659D01*
X3902426Y-77413884D01*
G37*
G36*
X4816973Y-75528538D02*
G01*
X3924826Y-74971063D01*
X4667773Y-73782100D01*
X5559920Y-74339575D01*
X4816973Y-75528538D01*
G37*
G36*
X16766660Y-56405047D02*
G01*
X15874513Y-55847572D01*
X16617460Y-54658609D01*
X17509607Y-55216084D01*
X16766660Y-56405047D01*
G37*
D17*
X17770445Y-53806050D03*
D11*
G36*
X13970899Y-61300963D02*
G01*
X12699674Y-60506614D01*
X13494023Y-59235389D01*
X14765248Y-60029738D01*
X13970899Y-61300963D01*
G37*
G36*
X14885446Y-59415617D02*
G01*
X13993299Y-58858142D01*
X14736246Y-57669179D01*
X15628393Y-58226654D01*
X14885446Y-59415617D01*
G37*
G36*
X26835118Y-40292134D02*
G01*
X25942971Y-39734659D01*
X26685918Y-38545696D01*
X27578065Y-39103171D01*
X26835118Y-40292134D01*
G37*
D17*
X27838903Y-37693137D03*
D11*
G36*
X24039357Y-45188050D02*
G01*
X22768132Y-44393701D01*
X23562481Y-43122476D01*
X24833706Y-43916825D01*
X24039357Y-45188050D01*
G37*
G36*
X24953904Y-43302704D02*
G01*
X24061757Y-42745229D01*
X24804704Y-41556266D01*
X25696851Y-42113741D01*
X24953904Y-43302704D01*
G37*
G36*
X-9560463Y-62682676D02*
G01*
X-10452610Y-62125201D01*
X-9709663Y-60936238D01*
X-8817516Y-61493713D01*
X-9560463Y-62682676D01*
G37*
D17*
X-8556678Y-60083679D03*
D11*
G36*
X-12356224Y-67578592D02*
G01*
X-13627449Y-66784243D01*
X-12833100Y-65513018D01*
X-11561875Y-66307367D01*
X-12356224Y-67578592D01*
G37*
G36*
X-11441677Y-65693246D02*
G01*
X-12333824Y-65135771D01*
X-11590877Y-63946808D01*
X-10698730Y-64504283D01*
X-11441677Y-65693246D01*
G37*
G36*
X508012Y-46569791D02*
G01*
X-384135Y-46012316D01*
X358812Y-44823353D01*
X1250959Y-45380828D01*
X508012Y-46569791D01*
G37*
D17*
X1511797Y-43970794D03*
D11*
G36*
X-2287749Y-51465707D02*
G01*
X-3558974Y-50671358D01*
X-2764625Y-49400133D01*
X-1493400Y-50194482D01*
X-2287749Y-51465707D01*
G37*
G36*
X-1373202Y-49580361D02*
G01*
X-2265349Y-49022886D01*
X-1522402Y-47833923D01*
X-630255Y-48391398D01*
X-1373202Y-49580361D01*
G37*
G36*
X10751354Y-30271360D02*
G01*
X9859207Y-29713885D01*
X10602154Y-28524922D01*
X11494301Y-29082397D01*
X10751354Y-30271360D01*
G37*
D17*
X11755139Y-27672363D03*
D11*
G36*
X7955593Y-35167276D02*
G01*
X6684368Y-34372927D01*
X7478717Y-33101702D01*
X8749942Y-33896051D01*
X7955593Y-35167276D01*
G37*
G36*
X8870140Y-33281930D02*
G01*
X7977993Y-32724455D01*
X8720940Y-31535492D01*
X9613087Y-32092967D01*
X8870140Y-33281930D01*
G37*
D20*
X121734674Y-103518429D02*
X121684332Y-103598993D01*
X119580632Y-102172434D02*
X119530290Y-102252998D01*
D11*
G36*
X115993458Y-101226246D02*
G01*
X117107348Y-99443648D01*
X118809380Y-100507196D01*
X117695490Y-102289794D01*
X115993458Y-101226246D01*
G37*
D21*
X110727006Y-116341197D02*
X110727006Y-116341197D01*
D22*
X126994985Y-99624751D02*
X126994985Y-99624751D01*
D23*
X120463370Y-95700161D03*
D24*
X171797310Y-93485719D03*
X171797310Y-96025719D03*
X171797310Y-98565719D03*
X171797310Y-101105719D03*
X171797310Y-103645719D03*
X171797310Y-106185719D03*
X171797310Y-108725719D03*
X171797310Y-111265719D03*
X171797310Y-113805719D03*
X171797310Y-116345719D03*
X171797310Y-118885719D03*
X171797310Y-121425719D03*
X156557310Y-121425719D03*
X156557310Y-118885719D03*
X156557310Y-116345719D03*
X156557310Y-113805719D03*
X156557310Y-111265719D03*
X156557310Y-108725719D03*
X156557310Y-106185719D03*
X156557310Y-103645719D03*
X156557310Y-101105719D03*
X156557310Y-98565719D03*
X156557310Y-96025719D03*
D25*
X156557310Y-93485719D03*
D26*
X219337082Y-155629831D03*
D27*
X216797082Y-160709831D03*
D26*
X212987082Y-158169831D03*
D28*
X211717082Y-160709831D03*
X221877082Y-160709831D03*
D26*
X196860746Y-157945525D03*
D27*
X195722095Y-163509829D03*
D26*
X191384517Y-162042478D03*
D28*
X190815192Y-164824630D03*
X200628998Y-162195028D03*
D26*
X179166510Y-166894536D03*
D27*
X173497101Y-167234831D03*
D26*
X173791806Y-162665274D03*
D28*
X170957101Y-162835422D03*
X176037101Y-171634240D03*
D26*
X62462021Y-129752132D03*
D27*
X62604250Y-135429964D03*
D26*
X58047762Y-134975964D03*
D28*
X58118876Y-137814880D03*
X67089624Y-133045048D03*
D26*
X51233536Y-118891924D03*
D27*
X45785983Y-120498837D03*
D26*
X45045208Y-115980104D03*
D28*
X42321431Y-116783560D03*
X49250535Y-124214114D03*
D26*
X34306767Y-104033934D03*
D27*
X29460735Y-106996023D03*
D26*
X27575667Y-102822988D03*
D28*
X25152651Y-104304033D03*
X33768819Y-109688013D03*
D26*
X285787094Y-140754839D03*
D27*
X283247094Y-145834839D03*
D26*
X279437094Y-143294839D03*
D28*
X278167094Y-145834839D03*
X288327094Y-145834839D03*
D26*
X285767094Y-121779823D03*
D27*
X283227094Y-126859823D03*
D26*
X279417094Y-124319823D03*
D28*
X278147094Y-126859823D03*
X288307094Y-126859823D03*
D26*
X285817092Y-102754850D03*
D27*
X283277092Y-107834850D03*
D26*
X279467092Y-105294850D03*
D28*
X278197092Y-107834850D03*
X288357092Y-107834850D03*
D26*
X266792100Y-140754824D03*
D27*
X264252100Y-145834824D03*
D26*
X260442100Y-143294824D03*
D28*
X259172100Y-145834824D03*
X269332100Y-145834824D03*
D26*
X266767090Y-121779850D03*
D27*
X264227090Y-126859850D03*
D26*
X260417090Y-124319850D03*
D28*
X259147090Y-126859850D03*
X269307090Y-126859850D03*
D26*
X266762101Y-102779845D03*
D27*
X264222101Y-107859845D03*
D26*
X260412101Y-105319845D03*
D28*
X259142101Y-107859845D03*
X269302101Y-107859845D03*
D26*
X247792090Y-136004841D03*
D27*
X245252090Y-141084841D03*
D26*
X241442090Y-138544841D03*
D28*
X240172090Y-141084841D03*
X250332090Y-141084841D03*
D26*
X247767099Y-117029833D03*
D27*
X245227099Y-122109833D03*
D26*
X241417099Y-119569833D03*
D28*
X240147099Y-122109833D03*
X250307099Y-122109833D03*
D26*
X247767093Y-98004832D03*
D27*
X245227093Y-103084832D03*
D26*
X241417093Y-100544832D03*
D28*
X240147093Y-103084832D03*
X250307093Y-103084832D03*
D26*
X228762097Y-133604849D03*
D27*
X226222097Y-138684849D03*
D26*
X222412097Y-136144849D03*
D28*
X221142097Y-138684849D03*
X231302097Y-138684849D03*
D26*
X228787091Y-114654841D03*
D27*
X226247091Y-119734841D03*
D26*
X222437091Y-117194841D03*
D28*
X221167091Y-119734841D03*
X231327091Y-119734841D03*
D26*
X228762092Y-95654844D03*
D27*
X226222092Y-100734844D03*
D26*
X222412092Y-98194844D03*
D28*
X221142092Y-100734844D03*
X231302092Y-100734844D03*
D26*
X209792100Y-136004822D03*
D27*
X207252100Y-141084822D03*
D26*
X203442100Y-138544822D03*
D28*
X202172100Y-141084822D03*
X212332100Y-141084822D03*
D26*
X209767099Y-117004830D03*
D27*
X207227099Y-122084830D03*
D26*
X203417099Y-119544830D03*
D28*
X202147099Y-122084830D03*
X212307099Y-122084830D03*
D26*
X209812105Y-97979823D03*
D27*
X207272105Y-103059823D03*
D26*
X203462105Y-100519823D03*
D28*
X202192105Y-103059823D03*
X212352105Y-103059823D03*
D26*
X190742096Y-138404846D03*
D27*
X188202096Y-143484846D03*
D26*
X184392096Y-140944846D03*
D28*
X183122096Y-143484846D03*
X193282096Y-143484846D03*
D26*
X190762081Y-119404851D03*
D27*
X188222081Y-124484851D03*
D26*
X184412081Y-121944851D03*
D28*
X183142081Y-124484851D03*
X193302081Y-124484851D03*
D26*
X190737092Y-100404835D03*
D27*
X188197092Y-105484835D03*
D26*
X184387092Y-102944835D03*
D28*
X183117092Y-105484835D03*
X193277092Y-105484835D03*
D26*
X67548352Y-104523696D03*
D27*
X62702320Y-107485785D03*
D26*
X60817252Y-103312750D03*
D28*
X58394236Y-104793795D03*
X67010404Y-110177775D03*
D26*
X77642242Y-88426663D03*
D27*
X72796210Y-91388752D03*
D26*
X70911142Y-87215717D03*
D28*
X68488126Y-88696762D03*
X77104294Y-94080742D03*
D26*
X87723964Y-72292582D03*
D27*
X82877932Y-75254671D03*
D26*
X80992864Y-71081636D03*
D28*
X78569848Y-72562681D03*
X87186016Y-77946661D03*
D26*
X52736393Y-92467619D03*
D27*
X47890361Y-95429708D03*
D26*
X46005293Y-91256673D03*
D28*
X43582277Y-92737718D03*
X52198445Y-98121698D03*
D26*
X62787883Y-76344102D03*
D27*
X57941851Y-79306191D03*
D26*
X56056783Y-75133156D03*
D28*
X53633767Y-76614201D03*
X62249935Y-81998181D03*
D26*
X72886572Y-60220592D03*
D27*
X68040540Y-63182681D03*
D26*
X66155472Y-59009646D03*
D28*
X63732456Y-60490691D03*
X72348624Y-65874671D03*
D26*
X37826388Y-80379747D03*
D27*
X32980356Y-83341836D03*
D26*
X31095288Y-79168801D03*
D28*
X28672272Y-80649846D03*
X37288440Y-86033826D03*
D26*
X47912339Y-64248268D03*
D27*
X43066307Y-67210357D03*
D26*
X41181239Y-63037322D03*
D28*
X38758223Y-64518367D03*
X47374391Y-69902347D03*
D26*
X58011013Y-48124754D03*
D27*
X53164981Y-51086843D03*
D26*
X51279913Y-46913808D03*
D28*
X48856897Y-48394853D03*
X57473065Y-53778833D03*
D26*
X20481402Y-72282984D03*
D27*
X15635370Y-75245073D03*
D26*
X13750302Y-71072038D03*
D28*
X11327286Y-72553083D03*
X19943454Y-77937063D03*
D26*
X30571075Y-56183313D03*
D27*
X25725043Y-59145402D03*
D26*
X23839975Y-54972367D03*
D28*
X21416959Y-56453412D03*
X30033127Y-61837392D03*
D26*
X40605085Y-40078366D03*
D27*
X35759053Y-43040455D03*
D26*
X33873985Y-38867420D03*
D28*
X31450969Y-40348465D03*
X40067137Y-45732445D03*
D26*
X1829126Y-66287810D03*
D27*
X-3016906Y-69249899D03*
D26*
X-4901974Y-65076864D03*
D28*
X-7324990Y-66557909D03*
X1291178Y-71941889D03*
D26*
X11910844Y-50153701D03*
D27*
X7064812Y-53115790D03*
D26*
X5179744Y-48942755D03*
D28*
X2756728Y-50423800D03*
X11372896Y-55807780D03*
D26*
X21975075Y-34038121D03*
D27*
X17129043Y-37000210D03*
D26*
X15243975Y-32827175D03*
D28*
X12820959Y-34308220D03*
X21437127Y-39692200D03*
D26*
X-14240331Y-56187541D03*
D27*
X-19086363Y-59149630D03*
D26*
X-20971431Y-54976595D03*
D28*
X-23394447Y-56457640D03*
X-14778279Y-61841620D03*
D26*
X-4227521Y-40069310D03*
D27*
X-9073553Y-43031399D03*
D26*
X-10958621Y-38858364D03*
D28*
X-13381637Y-40339409D03*
X-4765469Y-45723389D03*
D26*
X5875380Y-23948447D03*
D27*
X1029348Y-26910536D03*
D26*
X-855720Y-22737501D03*
D28*
X-3278736Y-24218546D03*
X5337432Y-29602526D03*
M02*
